G04 #@! TF.GenerationSoftware,KiCad,Pcbnew,(6.0.0)*
G04 #@! TF.CreationDate,2022-08-18T21:42:32-04:00*
G04 #@! TF.ProjectId,io_i2c,696f5f69-3263-42e6-9b69-6361645f7063,rev?*
G04 #@! TF.SameCoordinates,Original*
G04 #@! TF.FileFunction,Legend,Bot*
G04 #@! TF.FilePolarity,Positive*
%FSLAX46Y46*%
G04 Gerber Fmt 4.6, Leading zero omitted, Abs format (unit mm)*
G04 Created by KiCad (PCBNEW (6.0.0)) date 2022-08-18 21:42:32*
%MOMM*%
%LPD*%
G01*
G04 APERTURE LIST*
%ADD10C,0.150000*%
%ADD11C,0.120000*%
%ADD12R,1.600000X1.600000*%
%ADD13O,1.600000X1.600000*%
%ADD14R,1.700000X1.700000*%
%ADD15C,1.600000*%
%ADD16C,3.200000*%
%ADD17O,1.700000X1.700000*%
%ADD18R,2.200000X2.200000*%
%ADD19O,2.200000X2.200000*%
%ADD20R,1.500000X1.500000*%
%ADD21C,1.500000*%
G04 APERTURE END LIST*
D10*
X170479333Y-138898380D02*
X170479333Y-139612666D01*
X170526952Y-139755523D01*
X170622190Y-139850761D01*
X170765047Y-139898380D01*
X170860285Y-139898380D01*
X169574571Y-139231714D02*
X169574571Y-139898380D01*
X170003142Y-139231714D02*
X170003142Y-139755523D01*
X169955523Y-139850761D01*
X169860285Y-139898380D01*
X169717428Y-139898380D01*
X169622190Y-139850761D01*
X169574571Y-139803142D01*
X169098380Y-139898380D02*
X169098380Y-139231714D01*
X169098380Y-139326952D02*
X169050761Y-139279333D01*
X168955523Y-139231714D01*
X168812666Y-139231714D01*
X168717428Y-139279333D01*
X168669809Y-139374571D01*
X168669809Y-139898380D01*
X168669809Y-139374571D02*
X168622190Y-139279333D01*
X168526952Y-139231714D01*
X168384095Y-139231714D01*
X168288857Y-139279333D01*
X168241238Y-139374571D01*
X168241238Y-139898380D01*
X167765047Y-139231714D02*
X167765047Y-140231714D01*
X167765047Y-139279333D02*
X167669809Y-139231714D01*
X167479333Y-139231714D01*
X167384095Y-139279333D01*
X167336476Y-139326952D01*
X167288857Y-139422190D01*
X167288857Y-139707904D01*
X167336476Y-139803142D01*
X167384095Y-139850761D01*
X167479333Y-139898380D01*
X167669809Y-139898380D01*
X167765047Y-139850761D01*
X166479333Y-139850761D02*
X166574571Y-139898380D01*
X166765047Y-139898380D01*
X166860285Y-139850761D01*
X166907904Y-139755523D01*
X166907904Y-139374571D01*
X166860285Y-139279333D01*
X166765047Y-139231714D01*
X166574571Y-139231714D01*
X166479333Y-139279333D01*
X166431714Y-139374571D01*
X166431714Y-139469809D01*
X166907904Y-139565047D01*
X166003142Y-139898380D02*
X166003142Y-139231714D01*
X166003142Y-139422190D02*
X165955523Y-139326952D01*
X165907904Y-139279333D01*
X165812666Y-139231714D01*
X165717428Y-139231714D01*
X164193619Y-139898380D02*
X164193619Y-139374571D01*
X164241238Y-139279333D01*
X164336476Y-139231714D01*
X164526952Y-139231714D01*
X164622190Y-139279333D01*
X164193619Y-139850761D02*
X164288857Y-139898380D01*
X164526952Y-139898380D01*
X164622190Y-139850761D01*
X164669809Y-139755523D01*
X164669809Y-139660285D01*
X164622190Y-139565047D01*
X164526952Y-139517428D01*
X164288857Y-139517428D01*
X164193619Y-139469809D01*
X163288857Y-139850761D02*
X163384095Y-139898380D01*
X163574571Y-139898380D01*
X163669809Y-139850761D01*
X163717428Y-139803142D01*
X163765047Y-139707904D01*
X163765047Y-139422190D01*
X163717428Y-139326952D01*
X163669809Y-139279333D01*
X163574571Y-139231714D01*
X163384095Y-139231714D01*
X163288857Y-139279333D01*
X162860285Y-139898380D02*
X162860285Y-139231714D01*
X162860285Y-139422190D02*
X162812666Y-139326952D01*
X162765047Y-139279333D01*
X162669809Y-139231714D01*
X162574571Y-139231714D01*
X162098380Y-139898380D02*
X162193619Y-139850761D01*
X162241238Y-139803142D01*
X162288857Y-139707904D01*
X162288857Y-139422190D01*
X162241238Y-139326952D01*
X162193619Y-139279333D01*
X162098380Y-139231714D01*
X161955523Y-139231714D01*
X161860285Y-139279333D01*
X161812666Y-139326952D01*
X161765047Y-139422190D01*
X161765047Y-139707904D01*
X161812666Y-139803142D01*
X161860285Y-139850761D01*
X161955523Y-139898380D01*
X162098380Y-139898380D01*
X161384095Y-139850761D02*
X161288857Y-139898380D01*
X161098380Y-139898380D01*
X161003142Y-139850761D01*
X160955523Y-139755523D01*
X160955523Y-139707904D01*
X161003142Y-139612666D01*
X161098380Y-139565047D01*
X161241238Y-139565047D01*
X161336476Y-139517428D01*
X161384095Y-139422190D01*
X161384095Y-139374571D01*
X161336476Y-139279333D01*
X161241238Y-139231714D01*
X161098380Y-139231714D01*
X161003142Y-139279333D01*
X160574571Y-139850761D02*
X160479333Y-139898380D01*
X160288857Y-139898380D01*
X160193619Y-139850761D01*
X160146000Y-139755523D01*
X160146000Y-139707904D01*
X160193619Y-139612666D01*
X160288857Y-139565047D01*
X160431714Y-139565047D01*
X160526952Y-139517428D01*
X160574571Y-139422190D01*
X160574571Y-139374571D01*
X160526952Y-139279333D01*
X160431714Y-139231714D01*
X160288857Y-139231714D01*
X160193619Y-139279333D01*
X158526952Y-139898380D02*
X158526952Y-139374571D01*
X158574571Y-139279333D01*
X158669809Y-139231714D01*
X158860285Y-139231714D01*
X158955523Y-139279333D01*
X158526952Y-139850761D02*
X158622190Y-139898380D01*
X158860285Y-139898380D01*
X158955523Y-139850761D01*
X159003142Y-139755523D01*
X159003142Y-139660285D01*
X158955523Y-139565047D01*
X158860285Y-139517428D01*
X158622190Y-139517428D01*
X158526952Y-139469809D01*
X157907904Y-139898380D02*
X158003142Y-139850761D01*
X158050761Y-139755523D01*
X158050761Y-138898380D01*
X157384095Y-139898380D02*
X157479333Y-139850761D01*
X157526952Y-139755523D01*
X157526952Y-138898380D01*
X155955523Y-138898380D02*
X155955523Y-139612666D01*
X156003142Y-139755523D01*
X156098380Y-139850761D01*
X156241238Y-139898380D01*
X156336476Y-139898380D01*
X155526952Y-138993619D02*
X155479333Y-138946000D01*
X155384095Y-138898380D01*
X155146000Y-138898380D01*
X155050761Y-138946000D01*
X155003142Y-138993619D01*
X154955523Y-139088857D01*
X154955523Y-139184095D01*
X155003142Y-139326952D01*
X155574571Y-139898380D01*
X154955523Y-139898380D01*
X153765047Y-139231714D02*
X153765047Y-140231714D01*
X153765047Y-139279333D02*
X153669809Y-139231714D01*
X153479333Y-139231714D01*
X153384095Y-139279333D01*
X153336476Y-139326952D01*
X153288857Y-139422190D01*
X153288857Y-139707904D01*
X153336476Y-139803142D01*
X153384095Y-139850761D01*
X153479333Y-139898380D01*
X153669809Y-139898380D01*
X153765047Y-139850761D01*
X152431714Y-139898380D02*
X152431714Y-139374571D01*
X152479333Y-139279333D01*
X152574571Y-139231714D01*
X152765047Y-139231714D01*
X152860285Y-139279333D01*
X152431714Y-139850761D02*
X152526952Y-139898380D01*
X152765047Y-139898380D01*
X152860285Y-139850761D01*
X152907904Y-139755523D01*
X152907904Y-139660285D01*
X152860285Y-139565047D01*
X152765047Y-139517428D01*
X152526952Y-139517428D01*
X152431714Y-139469809D01*
X151526952Y-139898380D02*
X151526952Y-138898380D01*
X151526952Y-139850761D02*
X151622190Y-139898380D01*
X151812666Y-139898380D01*
X151907904Y-139850761D01*
X151955523Y-139803142D01*
X152003142Y-139707904D01*
X152003142Y-139422190D01*
X151955523Y-139326952D01*
X151907904Y-139279333D01*
X151812666Y-139231714D01*
X151622190Y-139231714D01*
X151526952Y-139279333D01*
X151098380Y-139850761D02*
X151003142Y-139898380D01*
X150812666Y-139898380D01*
X150717428Y-139850761D01*
X150669809Y-139755523D01*
X150669809Y-139707904D01*
X150717428Y-139612666D01*
X150812666Y-139565047D01*
X150955523Y-139565047D01*
X151050761Y-139517428D01*
X151098380Y-139422190D01*
X151098380Y-139374571D01*
X151050761Y-139279333D01*
X150955523Y-139231714D01*
X150812666Y-139231714D01*
X150717428Y-139279333D01*
X149622190Y-139231714D02*
X149241238Y-139231714D01*
X149479333Y-139898380D02*
X149479333Y-139041238D01*
X149431714Y-138946000D01*
X149336476Y-138898380D01*
X149241238Y-138898380D01*
X148765047Y-139898380D02*
X148860285Y-139850761D01*
X148907904Y-139803142D01*
X148955523Y-139707904D01*
X148955523Y-139422190D01*
X148907904Y-139326952D01*
X148860285Y-139279333D01*
X148765047Y-139231714D01*
X148622190Y-139231714D01*
X148526952Y-139279333D01*
X148479333Y-139326952D01*
X148431714Y-139422190D01*
X148431714Y-139707904D01*
X148479333Y-139803142D01*
X148526952Y-139850761D01*
X148622190Y-139898380D01*
X148765047Y-139898380D01*
X148003142Y-139898380D02*
X148003142Y-139231714D01*
X148003142Y-139422190D02*
X147955523Y-139326952D01*
X147907904Y-139279333D01*
X147812666Y-139231714D01*
X147717428Y-139231714D01*
X146050761Y-139898380D02*
X146384095Y-139422190D01*
X146622190Y-139898380D02*
X146622190Y-138898380D01*
X146241238Y-138898380D01*
X146146000Y-138946000D01*
X146098380Y-138993619D01*
X146050761Y-139088857D01*
X146050761Y-139231714D01*
X146098380Y-139326952D01*
X146146000Y-139374571D01*
X146241238Y-139422190D01*
X146622190Y-139422190D01*
X145431714Y-138898380D02*
X145241238Y-138898380D01*
X145146000Y-138946000D01*
X145050761Y-139041238D01*
X145003142Y-139231714D01*
X145003142Y-139565047D01*
X145050761Y-139755523D01*
X145146000Y-139850761D01*
X145241238Y-139898380D01*
X145431714Y-139898380D01*
X145526952Y-139850761D01*
X145622190Y-139755523D01*
X145669809Y-139565047D01*
X145669809Y-139231714D01*
X145622190Y-139041238D01*
X145526952Y-138946000D01*
X145431714Y-138898380D01*
X144574571Y-139898380D02*
X144574571Y-138898380D01*
X144241238Y-139612666D01*
X143907904Y-138898380D01*
X143907904Y-139898380D01*
X143431714Y-139517428D02*
X142669809Y-139517428D01*
X142193619Y-139898380D02*
X142193619Y-139231714D01*
X142193619Y-139326952D02*
X142146000Y-139279333D01*
X142050761Y-139231714D01*
X141907904Y-139231714D01*
X141812666Y-139279333D01*
X141765047Y-139374571D01*
X141765047Y-139898380D01*
X141765047Y-139374571D02*
X141717428Y-139279333D01*
X141622190Y-139231714D01*
X141479333Y-139231714D01*
X141384095Y-139279333D01*
X141336476Y-139374571D01*
X141336476Y-139898380D01*
X140431714Y-139898380D02*
X140431714Y-139374571D01*
X140479333Y-139279333D01*
X140574571Y-139231714D01*
X140765047Y-139231714D01*
X140860285Y-139279333D01*
X140431714Y-139850761D02*
X140526952Y-139898380D01*
X140765047Y-139898380D01*
X140860285Y-139850761D01*
X140907904Y-139755523D01*
X140907904Y-139660285D01*
X140860285Y-139565047D01*
X140765047Y-139517428D01*
X140526952Y-139517428D01*
X140431714Y-139469809D01*
X139955523Y-139231714D02*
X139955523Y-140231714D01*
X139955523Y-139279333D02*
X139860285Y-139231714D01*
X139669809Y-139231714D01*
X139574571Y-139279333D01*
X139526952Y-139326952D01*
X139479333Y-139422190D01*
X139479333Y-139707904D01*
X139526952Y-139803142D01*
X139574571Y-139850761D01*
X139669809Y-139898380D01*
X139860285Y-139898380D01*
X139955523Y-139850761D01*
X139050761Y-139231714D02*
X139050761Y-140231714D01*
X139050761Y-139279333D02*
X138955523Y-139231714D01*
X138765047Y-139231714D01*
X138669809Y-139279333D01*
X138622190Y-139326952D01*
X138574571Y-139422190D01*
X138574571Y-139707904D01*
X138622190Y-139803142D01*
X138669809Y-139850761D01*
X138765047Y-139898380D01*
X138955523Y-139898380D01*
X139050761Y-139850761D01*
X137765047Y-139850761D02*
X137860285Y-139898380D01*
X138050761Y-139898380D01*
X138146000Y-139850761D01*
X138193619Y-139755523D01*
X138193619Y-139374571D01*
X138146000Y-139279333D01*
X138050761Y-139231714D01*
X137860285Y-139231714D01*
X137765047Y-139279333D01*
X137717428Y-139374571D01*
X137717428Y-139469809D01*
X138193619Y-139565047D01*
X136860285Y-139898380D02*
X136860285Y-138898380D01*
X136860285Y-139850761D02*
X136955523Y-139898380D01*
X137146000Y-139898380D01*
X137241238Y-139850761D01*
X137288857Y-139803142D01*
X137336476Y-139707904D01*
X137336476Y-139422190D01*
X137288857Y-139326952D01*
X137241238Y-139279333D01*
X137146000Y-139231714D01*
X136955523Y-139231714D01*
X136860285Y-139279333D01*
X135622190Y-139898380D02*
X135622190Y-138898380D01*
X134431714Y-138850761D02*
X135288857Y-140136476D01*
X133907904Y-138898380D02*
X133717428Y-138898380D01*
X133622190Y-138946000D01*
X133526952Y-139041238D01*
X133479333Y-139231714D01*
X133479333Y-139565047D01*
X133526952Y-139755523D01*
X133622190Y-139850761D01*
X133717428Y-139898380D01*
X133907904Y-139898380D01*
X134003142Y-139850761D01*
X134098380Y-139755523D01*
X134146000Y-139565047D01*
X134146000Y-139231714D01*
X134098380Y-139041238D01*
X134003142Y-138946000D01*
X133907904Y-138898380D01*
X86709285Y-102560380D02*
X87280714Y-102560380D01*
X86995000Y-102560380D02*
X86995000Y-101560380D01*
X87090238Y-101703238D01*
X87185476Y-101798476D01*
X87280714Y-101846095D01*
X137656857Y-134564380D02*
X137656857Y-133564380D01*
X137323523Y-134278666D01*
X136990190Y-133564380D01*
X136990190Y-134564380D01*
X136514000Y-134564380D02*
X136514000Y-133897714D01*
X136514000Y-133564380D02*
X136561619Y-133612000D01*
X136514000Y-133659619D01*
X136466380Y-133612000D01*
X136514000Y-133564380D01*
X136514000Y-133659619D01*
X136037809Y-133897714D02*
X136037809Y-134564380D01*
X136037809Y-133992952D02*
X135990190Y-133945333D01*
X135894952Y-133897714D01*
X135752095Y-133897714D01*
X135656857Y-133945333D01*
X135609238Y-134040571D01*
X135609238Y-134564380D01*
X135133047Y-134564380D02*
X135133047Y-133897714D01*
X135133047Y-133564380D02*
X135180666Y-133612000D01*
X135133047Y-133659619D01*
X135085428Y-133612000D01*
X135133047Y-133564380D01*
X135133047Y-133659619D01*
X134656857Y-134564380D02*
X134656857Y-133897714D01*
X134656857Y-133992952D02*
X134609238Y-133945333D01*
X134514000Y-133897714D01*
X134371142Y-133897714D01*
X134275904Y-133945333D01*
X134228285Y-134040571D01*
X134228285Y-134564380D01*
X134228285Y-134040571D02*
X134180666Y-133945333D01*
X134085428Y-133897714D01*
X133942571Y-133897714D01*
X133847333Y-133945333D01*
X133799714Y-134040571D01*
X133799714Y-134564380D01*
X132894952Y-134564380D02*
X132894952Y-134040571D01*
X132942571Y-133945333D01*
X133037809Y-133897714D01*
X133228285Y-133897714D01*
X133323523Y-133945333D01*
X132894952Y-134516761D02*
X132990190Y-134564380D01*
X133228285Y-134564380D01*
X133323523Y-134516761D01*
X133371142Y-134421523D01*
X133371142Y-134326285D01*
X133323523Y-134231047D01*
X133228285Y-134183428D01*
X132990190Y-134183428D01*
X132894952Y-134135809D01*
X132275904Y-134564380D02*
X132371142Y-134516761D01*
X132418761Y-134421523D01*
X132418761Y-133564380D01*
X131133047Y-134564380D02*
X131133047Y-133897714D01*
X131133047Y-133564380D02*
X131180666Y-133612000D01*
X131133047Y-133659619D01*
X131085428Y-133612000D01*
X131133047Y-133564380D01*
X131133047Y-133659619D01*
X130656857Y-133897714D02*
X130656857Y-134564380D01*
X130656857Y-133992952D02*
X130609238Y-133945333D01*
X130514000Y-133897714D01*
X130371142Y-133897714D01*
X130275904Y-133945333D01*
X130228285Y-134040571D01*
X130228285Y-134564380D01*
X129894952Y-133897714D02*
X129514000Y-133897714D01*
X129752095Y-133564380D02*
X129752095Y-134421523D01*
X129704476Y-134516761D01*
X129609238Y-134564380D01*
X129514000Y-134564380D01*
X128799714Y-134516761D02*
X128894952Y-134564380D01*
X129085428Y-134564380D01*
X129180666Y-134516761D01*
X129228285Y-134421523D01*
X129228285Y-134040571D01*
X129180666Y-133945333D01*
X129085428Y-133897714D01*
X128894952Y-133897714D01*
X128799714Y-133945333D01*
X128752095Y-134040571D01*
X128752095Y-134135809D01*
X129228285Y-134231047D01*
X128323523Y-134564380D02*
X128323523Y-133897714D01*
X128323523Y-134088190D02*
X128275904Y-133992952D01*
X128228285Y-133945333D01*
X128133047Y-133897714D01*
X128037809Y-133897714D01*
X127847333Y-133897714D02*
X127466380Y-133897714D01*
X127704476Y-134564380D02*
X127704476Y-133707238D01*
X127656857Y-133612000D01*
X127561619Y-133564380D01*
X127466380Y-133564380D01*
X126704476Y-134564380D02*
X126704476Y-134040571D01*
X126752095Y-133945333D01*
X126847333Y-133897714D01*
X127037809Y-133897714D01*
X127133047Y-133945333D01*
X126704476Y-134516761D02*
X126799714Y-134564380D01*
X127037809Y-134564380D01*
X127133047Y-134516761D01*
X127180666Y-134421523D01*
X127180666Y-134326285D01*
X127133047Y-134231047D01*
X127037809Y-134183428D01*
X126799714Y-134183428D01*
X126704476Y-134135809D01*
X125799714Y-134516761D02*
X125894952Y-134564380D01*
X126085428Y-134564380D01*
X126180666Y-134516761D01*
X126228285Y-134469142D01*
X126275904Y-134373904D01*
X126275904Y-134088190D01*
X126228285Y-133992952D01*
X126180666Y-133945333D01*
X126085428Y-133897714D01*
X125894952Y-133897714D01*
X125799714Y-133945333D01*
X124990190Y-134516761D02*
X125085428Y-134564380D01*
X125275904Y-134564380D01*
X125371142Y-134516761D01*
X125418761Y-134421523D01*
X125418761Y-134040571D01*
X125371142Y-133945333D01*
X125275904Y-133897714D01*
X125085428Y-133897714D01*
X124990190Y-133945333D01*
X124942571Y-134040571D01*
X124942571Y-134135809D01*
X125418761Y-134231047D01*
X123752095Y-134564380D02*
X123752095Y-133897714D01*
X123752095Y-133564380D02*
X123799714Y-133612000D01*
X123752095Y-133659619D01*
X123704476Y-133612000D01*
X123752095Y-133564380D01*
X123752095Y-133659619D01*
X123323523Y-134516761D02*
X123228285Y-134564380D01*
X123037809Y-134564380D01*
X122942571Y-134516761D01*
X122894952Y-134421523D01*
X122894952Y-134373904D01*
X122942571Y-134278666D01*
X123037809Y-134231047D01*
X123180666Y-134231047D01*
X123275904Y-134183428D01*
X123323523Y-134088190D01*
X123323523Y-134040571D01*
X123275904Y-133945333D01*
X123180666Y-133897714D01*
X123037809Y-133897714D01*
X122942571Y-133945333D01*
X121847333Y-133897714D02*
X121466380Y-133897714D01*
X121704476Y-133564380D02*
X121704476Y-134421523D01*
X121656857Y-134516761D01*
X121561619Y-134564380D01*
X121466380Y-134564380D01*
X121133047Y-134564380D02*
X121133047Y-133564380D01*
X120704476Y-134564380D02*
X120704476Y-134040571D01*
X120752095Y-133945333D01*
X120847333Y-133897714D01*
X120990190Y-133897714D01*
X121085428Y-133945333D01*
X121133047Y-133992952D01*
X119847333Y-134516761D02*
X119942571Y-134564380D01*
X120133047Y-134564380D01*
X120228285Y-134516761D01*
X120275904Y-134421523D01*
X120275904Y-134040571D01*
X120228285Y-133945333D01*
X120133047Y-133897714D01*
X119942571Y-133897714D01*
X119847333Y-133945333D01*
X119799714Y-134040571D01*
X119799714Y-134135809D01*
X120275904Y-134231047D01*
X118180666Y-134564380D02*
X118180666Y-134040571D01*
X118228285Y-133945333D01*
X118323523Y-133897714D01*
X118513999Y-133897714D01*
X118609238Y-133945333D01*
X118180666Y-134516761D02*
X118275904Y-134564380D01*
X118513999Y-134564380D01*
X118609238Y-134516761D01*
X118656857Y-134421523D01*
X118656857Y-134326285D01*
X118609238Y-134231047D01*
X118513999Y-134183428D01*
X118275904Y-134183428D01*
X118180666Y-134135809D01*
X117704476Y-134564380D02*
X117704476Y-133897714D01*
X117704476Y-134088190D02*
X117656857Y-133992952D01*
X117609238Y-133945333D01*
X117513999Y-133897714D01*
X117418761Y-133897714D01*
X116656857Y-134564380D02*
X116656857Y-133564380D01*
X116656857Y-134516761D02*
X116752095Y-134564380D01*
X116942571Y-134564380D01*
X117037809Y-134516761D01*
X117085428Y-134469142D01*
X117133047Y-134373904D01*
X117133047Y-134088190D01*
X117085428Y-133992952D01*
X117037809Y-133945333D01*
X116942571Y-133897714D01*
X116752095Y-133897714D01*
X116656857Y-133945333D01*
X115752095Y-133897714D02*
X115752095Y-134564380D01*
X116180666Y-133897714D02*
X116180666Y-134421523D01*
X116133047Y-134516761D01*
X116037809Y-134564380D01*
X115894952Y-134564380D01*
X115799714Y-134516761D01*
X115752095Y-134469142D01*
X115275904Y-134564380D02*
X115275904Y-133897714D01*
X115275904Y-133564380D02*
X115323523Y-133612000D01*
X115275904Y-133659619D01*
X115228285Y-133612000D01*
X115275904Y-133564380D01*
X115275904Y-133659619D01*
X114799714Y-133897714D02*
X114799714Y-134564380D01*
X114799714Y-133992952D02*
X114752095Y-133945333D01*
X114656857Y-133897714D01*
X114514000Y-133897714D01*
X114418761Y-133945333D01*
X114371142Y-134040571D01*
X114371142Y-134564380D01*
X113752095Y-134564380D02*
X113847333Y-134516761D01*
X113894952Y-134469142D01*
X113942571Y-134373904D01*
X113942571Y-134088190D01*
X113894952Y-133992952D01*
X113847333Y-133945333D01*
X113752095Y-133897714D01*
X113609238Y-133897714D01*
X113514000Y-133945333D01*
X113466380Y-133992952D01*
X113418761Y-134088190D01*
X113418761Y-134373904D01*
X113466380Y-134469142D01*
X113514000Y-134516761D01*
X113609238Y-134564380D01*
X113752095Y-134564380D01*
X112942571Y-134516761D02*
X112942571Y-134564380D01*
X112990190Y-134659619D01*
X113037809Y-134707238D01*
X111085428Y-134659619D02*
X111180666Y-134612000D01*
X111275904Y-134516761D01*
X111418761Y-134373904D01*
X111514000Y-134326285D01*
X111609238Y-134326285D01*
X111561619Y-134564380D02*
X111656857Y-134516761D01*
X111752095Y-134421523D01*
X111799714Y-134231047D01*
X111799714Y-133897714D01*
X111752095Y-133707238D01*
X111656857Y-133612000D01*
X111561619Y-133564380D01*
X111371142Y-133564380D01*
X111275904Y-133612000D01*
X111180666Y-133707238D01*
X111133047Y-133897714D01*
X111133047Y-134231047D01*
X111180666Y-134421523D01*
X111275904Y-134516761D01*
X111371142Y-134564380D01*
X111561619Y-134564380D01*
X110180666Y-134564380D02*
X110752095Y-134564380D01*
X110466380Y-134564380D02*
X110466380Y-133564380D01*
X110561619Y-133707238D01*
X110656857Y-133802476D01*
X110752095Y-133850095D01*
X109704476Y-134516761D02*
X109704476Y-134564380D01*
X109752095Y-134659619D01*
X109799714Y-134707238D01*
X107942571Y-134564380D02*
X108275904Y-134088190D01*
X108514000Y-134564380D02*
X108514000Y-133564380D01*
X108133047Y-133564380D01*
X108037809Y-133612000D01*
X107990190Y-133659619D01*
X107942571Y-133754857D01*
X107942571Y-133897714D01*
X107990190Y-133992952D01*
X108037809Y-134040571D01*
X108133047Y-134088190D01*
X108514000Y-134088190D01*
X107085428Y-133897714D02*
X107085428Y-134564380D01*
X107323523Y-133516761D02*
X107561619Y-134231047D01*
X106942571Y-134231047D01*
X106514000Y-134516761D02*
X106514000Y-134564380D01*
X106561619Y-134659619D01*
X106609238Y-134707238D01*
X104894952Y-134564380D02*
X104894952Y-134040571D01*
X104942571Y-133945333D01*
X105037809Y-133897714D01*
X105228285Y-133897714D01*
X105323523Y-133945333D01*
X104894952Y-134516761D02*
X104990190Y-134564380D01*
X105228285Y-134564380D01*
X105323523Y-134516761D01*
X105371142Y-134421523D01*
X105371142Y-134326285D01*
X105323523Y-134231047D01*
X105228285Y-134183428D01*
X104990190Y-134183428D01*
X104894952Y-134135809D01*
X104418761Y-133897714D02*
X104418761Y-134564380D01*
X104418761Y-133992952D02*
X104371142Y-133945333D01*
X104275904Y-133897714D01*
X104133047Y-133897714D01*
X104037809Y-133945333D01*
X103990190Y-134040571D01*
X103990190Y-134564380D01*
X103085428Y-134564380D02*
X103085428Y-133564380D01*
X103085428Y-134516761D02*
X103180666Y-134564380D01*
X103371142Y-134564380D01*
X103466380Y-134516761D01*
X103514000Y-134469142D01*
X103561619Y-134373904D01*
X103561619Y-134088190D01*
X103514000Y-133992952D01*
X103466380Y-133945333D01*
X103371142Y-133897714D01*
X103180666Y-133897714D01*
X103085428Y-133945333D01*
X101275904Y-134564380D02*
X101609238Y-134088190D01*
X101847333Y-134564380D02*
X101847333Y-133564380D01*
X101466380Y-133564380D01*
X101371142Y-133612000D01*
X101323523Y-133659619D01*
X101275904Y-133754857D01*
X101275904Y-133897714D01*
X101323523Y-133992952D01*
X101371142Y-134040571D01*
X101466380Y-134088190D01*
X101847333Y-134088190D01*
X100371142Y-133564380D02*
X100847333Y-133564380D01*
X100894952Y-134040571D01*
X100847333Y-133992952D01*
X100752095Y-133945333D01*
X100514000Y-133945333D01*
X100418761Y-133992952D01*
X100371142Y-134040571D01*
X100323523Y-134135809D01*
X100323523Y-134373904D01*
X100371142Y-134469142D01*
X100418761Y-134516761D01*
X100514000Y-134564380D01*
X100752095Y-134564380D01*
X100847333Y-134516761D01*
X100894952Y-134469142D01*
X98704476Y-134516761D02*
X98799714Y-134564380D01*
X98990190Y-134564380D01*
X99085428Y-134516761D01*
X99133047Y-134469142D01*
X99180666Y-134373904D01*
X99180666Y-134088190D01*
X99133047Y-133992952D01*
X99085428Y-133945333D01*
X98990190Y-133897714D01*
X98799714Y-133897714D01*
X98704476Y-133945333D01*
X98133047Y-134564380D02*
X98228285Y-134516761D01*
X98275904Y-134469142D01*
X98323523Y-134373904D01*
X98323523Y-134088190D01*
X98275904Y-133992952D01*
X98228285Y-133945333D01*
X98133047Y-133897714D01*
X97990190Y-133897714D01*
X97894952Y-133945333D01*
X97847333Y-133992952D01*
X97799714Y-134088190D01*
X97799714Y-134373904D01*
X97847333Y-134469142D01*
X97894952Y-134516761D01*
X97990190Y-134564380D01*
X98133047Y-134564380D01*
X97371142Y-133897714D02*
X97371142Y-134564380D01*
X97371142Y-133992952D02*
X97323523Y-133945333D01*
X97228285Y-133897714D01*
X97085428Y-133897714D01*
X96990190Y-133945333D01*
X96942571Y-134040571D01*
X96942571Y-134564380D01*
X96466380Y-133897714D02*
X96466380Y-134564380D01*
X96466380Y-133992952D02*
X96418761Y-133945333D01*
X96323523Y-133897714D01*
X96180666Y-133897714D01*
X96085428Y-133945333D01*
X96037809Y-134040571D01*
X96037809Y-134564380D01*
X95180666Y-134516761D02*
X95275904Y-134564380D01*
X95466380Y-134564380D01*
X95561619Y-134516761D01*
X95609238Y-134421523D01*
X95609238Y-134040571D01*
X95561619Y-133945333D01*
X95466380Y-133897714D01*
X95275904Y-133897714D01*
X95180666Y-133945333D01*
X95133047Y-134040571D01*
X95133047Y-134135809D01*
X95609238Y-134231047D01*
X94275904Y-134516761D02*
X94371142Y-134564380D01*
X94561619Y-134564380D01*
X94656857Y-134516761D01*
X94704476Y-134469142D01*
X94752095Y-134373904D01*
X94752095Y-134088190D01*
X94704476Y-133992952D01*
X94656857Y-133945333D01*
X94561619Y-133897714D01*
X94371142Y-133897714D01*
X94275904Y-133945333D01*
X93990190Y-133897714D02*
X93609238Y-133897714D01*
X93847333Y-133564380D02*
X93847333Y-134421523D01*
X93799714Y-134516761D01*
X93704476Y-134564380D01*
X93609238Y-134564380D01*
X92894952Y-134516761D02*
X92990190Y-134564380D01*
X93180666Y-134564380D01*
X93275904Y-134516761D01*
X93323523Y-134421523D01*
X93323523Y-134040571D01*
X93275904Y-133945333D01*
X93180666Y-133897714D01*
X92990190Y-133897714D01*
X92894952Y-133945333D01*
X92847333Y-134040571D01*
X92847333Y-134135809D01*
X93323523Y-134231047D01*
X91990190Y-134564380D02*
X91990190Y-133564380D01*
X91990190Y-134516761D02*
X92085428Y-134564380D01*
X92275904Y-134564380D01*
X92371142Y-134516761D01*
X92418761Y-134469142D01*
X92466380Y-134373904D01*
X92466380Y-134088190D01*
X92418761Y-133992952D01*
X92371142Y-133945333D01*
X92275904Y-133897714D01*
X92085428Y-133897714D01*
X91990190Y-133945333D01*
X90609238Y-134564380D02*
X90704476Y-134516761D01*
X90752095Y-134469142D01*
X90799714Y-134373904D01*
X90799714Y-134088190D01*
X90752095Y-133992952D01*
X90704476Y-133945333D01*
X90609238Y-133897714D01*
X90466380Y-133897714D01*
X90371142Y-133945333D01*
X90323523Y-133992952D01*
X90275904Y-134088190D01*
X90275904Y-134373904D01*
X90323523Y-134469142D01*
X90371142Y-134516761D01*
X90466380Y-134564380D01*
X90609238Y-134564380D01*
X89418761Y-133897714D02*
X89418761Y-134564380D01*
X89847333Y-133897714D02*
X89847333Y-134421523D01*
X89799714Y-134516761D01*
X89704476Y-134564380D01*
X89561619Y-134564380D01*
X89466380Y-134516761D01*
X89418761Y-134469142D01*
X89085428Y-133897714D02*
X88704476Y-133897714D01*
X88942571Y-133564380D02*
X88942571Y-134421523D01*
X88894952Y-134516761D01*
X88799714Y-134564380D01*
X88704476Y-134564380D01*
X87323523Y-133564380D02*
X87323523Y-134278666D01*
X87371142Y-134421523D01*
X87466380Y-134516761D01*
X87609238Y-134564380D01*
X87704476Y-134564380D01*
X86894952Y-133659619D02*
X86847333Y-133612000D01*
X86752095Y-133564380D01*
X86514000Y-133564380D01*
X86418761Y-133612000D01*
X86371142Y-133659619D01*
X86323523Y-133754857D01*
X86323523Y-133850095D01*
X86371142Y-133992952D01*
X86942571Y-134564380D01*
X86323523Y-134564380D01*
X139182952Y-165552380D02*
X139182952Y-165028571D01*
X139230571Y-164933333D01*
X139325809Y-164885714D01*
X139516285Y-164885714D01*
X139611523Y-164933333D01*
X139182952Y-165504761D02*
X139278190Y-165552380D01*
X139516285Y-165552380D01*
X139611523Y-165504761D01*
X139659142Y-165409523D01*
X139659142Y-165314285D01*
X139611523Y-165219047D01*
X139516285Y-165171428D01*
X139278190Y-165171428D01*
X139182952Y-165123809D01*
X138802000Y-164885714D02*
X138563904Y-165552380D01*
X138325809Y-164885714D01*
X137802000Y-165552380D02*
X137897238Y-165504761D01*
X137944857Y-165457142D01*
X137992476Y-165361904D01*
X137992476Y-165076190D01*
X137944857Y-164980952D01*
X137897238Y-164933333D01*
X137802000Y-164885714D01*
X137659142Y-164885714D01*
X137563904Y-164933333D01*
X137516285Y-164980952D01*
X137468666Y-165076190D01*
X137468666Y-165361904D01*
X137516285Y-165457142D01*
X137563904Y-165504761D01*
X137659142Y-165552380D01*
X137802000Y-165552380D01*
X137040095Y-165552380D02*
X137040095Y-164885714D01*
X137040095Y-164552380D02*
X137087714Y-164600000D01*
X137040095Y-164647619D01*
X136992476Y-164600000D01*
X137040095Y-164552380D01*
X137040095Y-164647619D01*
X136135333Y-165552380D02*
X136135333Y-164552380D01*
X136135333Y-165504761D02*
X136230571Y-165552380D01*
X136421047Y-165552380D01*
X136516285Y-165504761D01*
X136563904Y-165457142D01*
X136611523Y-165361904D01*
X136611523Y-165076190D01*
X136563904Y-164980952D01*
X136516285Y-164933333D01*
X136421047Y-164885714D01*
X136230571Y-164885714D01*
X136135333Y-164933333D01*
X135706761Y-165504761D02*
X135611523Y-165552380D01*
X135421047Y-165552380D01*
X135325809Y-165504761D01*
X135278190Y-165409523D01*
X135278190Y-165361904D01*
X135325809Y-165266666D01*
X135421047Y-165219047D01*
X135563904Y-165219047D01*
X135659142Y-165171428D01*
X135706761Y-165076190D01*
X135706761Y-165028571D01*
X135659142Y-164933333D01*
X135563904Y-164885714D01*
X135421047Y-164885714D01*
X135325809Y-164933333D01*
X134849619Y-164885714D02*
X134849619Y-165885714D01*
X134849619Y-164933333D02*
X134754380Y-164885714D01*
X134563904Y-164885714D01*
X134468666Y-164933333D01*
X134421047Y-164980952D01*
X134373428Y-165076190D01*
X134373428Y-165361904D01*
X134421047Y-165457142D01*
X134468666Y-165504761D01*
X134563904Y-165552380D01*
X134754380Y-165552380D01*
X134849619Y-165504761D01*
X133944857Y-165552380D02*
X133944857Y-164885714D01*
X133944857Y-164552380D02*
X133992476Y-164600000D01*
X133944857Y-164647619D01*
X133897238Y-164600000D01*
X133944857Y-164552380D01*
X133944857Y-164647619D01*
X133468666Y-165552380D02*
X133468666Y-164552380D01*
X133373428Y-165171428D02*
X133087714Y-165552380D01*
X133087714Y-164885714D02*
X133468666Y-165266666D01*
X132278190Y-165504761D02*
X132373428Y-165552380D01*
X132563904Y-165552380D01*
X132659142Y-165504761D01*
X132706761Y-165409523D01*
X132706761Y-165028571D01*
X132659142Y-164933333D01*
X132563904Y-164885714D01*
X132373428Y-164885714D01*
X132278190Y-164933333D01*
X132230571Y-165028571D01*
X132230571Y-165123809D01*
X132706761Y-165219047D01*
X131849619Y-165504761D02*
X131754380Y-165552380D01*
X131563904Y-165552380D01*
X131468666Y-165504761D01*
X131421047Y-165409523D01*
X131421047Y-165361904D01*
X131468666Y-165266666D01*
X131563904Y-165219047D01*
X131706761Y-165219047D01*
X131802000Y-165171428D01*
X131849619Y-165076190D01*
X131849619Y-165028571D01*
X131802000Y-164933333D01*
X131706761Y-164885714D01*
X131563904Y-164885714D01*
X131468666Y-164933333D01*
X130992476Y-165457142D02*
X130944857Y-165504761D01*
X130992476Y-165552380D01*
X131040095Y-165504761D01*
X130992476Y-165457142D01*
X130992476Y-165552380D01*
X130516285Y-165552380D02*
X130516285Y-164552380D01*
X130516285Y-164933333D02*
X130421047Y-164885714D01*
X130230571Y-164885714D01*
X130135333Y-164933333D01*
X130087714Y-164980952D01*
X130040095Y-165076190D01*
X130040095Y-165361904D01*
X130087714Y-165457142D01*
X130135333Y-165504761D01*
X130230571Y-165552380D01*
X130421047Y-165552380D01*
X130516285Y-165504761D01*
X129468666Y-165552380D02*
X129563904Y-165504761D01*
X129611523Y-165409523D01*
X129611523Y-164552380D01*
X128944857Y-165552380D02*
X129040095Y-165504761D01*
X129087714Y-165457142D01*
X129135333Y-165361904D01*
X129135333Y-165076190D01*
X129087714Y-164980952D01*
X129040095Y-164933333D01*
X128944857Y-164885714D01*
X128802000Y-164885714D01*
X128706761Y-164933333D01*
X128659142Y-164980952D01*
X128611523Y-165076190D01*
X128611523Y-165361904D01*
X128659142Y-165457142D01*
X128706761Y-165504761D01*
X128802000Y-165552380D01*
X128944857Y-165552380D01*
X127754380Y-164885714D02*
X127754380Y-165695238D01*
X127802000Y-165790476D01*
X127849619Y-165838095D01*
X127944857Y-165885714D01*
X128087714Y-165885714D01*
X128182952Y-165838095D01*
X127754380Y-165504761D02*
X127849619Y-165552380D01*
X128040095Y-165552380D01*
X128135333Y-165504761D01*
X128182952Y-165457142D01*
X128230571Y-165361904D01*
X128230571Y-165076190D01*
X128182952Y-164980952D01*
X128135333Y-164933333D01*
X128040095Y-164885714D01*
X127849619Y-164885714D01*
X127754380Y-164933333D01*
X127325809Y-165504761D02*
X127230571Y-165552380D01*
X127040095Y-165552380D01*
X126944857Y-165504761D01*
X126897238Y-165409523D01*
X126897238Y-165361904D01*
X126944857Y-165266666D01*
X127040095Y-165219047D01*
X127182952Y-165219047D01*
X127278190Y-165171428D01*
X127325809Y-165076190D01*
X127325809Y-165028571D01*
X127278190Y-164933333D01*
X127182952Y-164885714D01*
X127040095Y-164885714D01*
X126944857Y-164933333D01*
X126468666Y-164885714D02*
X126468666Y-165885714D01*
X126468666Y-164933333D02*
X126373428Y-164885714D01*
X126182952Y-164885714D01*
X126087714Y-164933333D01*
X126040095Y-164980952D01*
X125992476Y-165076190D01*
X125992476Y-165361904D01*
X126040095Y-165457142D01*
X126087714Y-165504761D01*
X126182952Y-165552380D01*
X126373428Y-165552380D01*
X126468666Y-165504761D01*
X125421047Y-165552380D02*
X125516285Y-165504761D01*
X125563904Y-165457142D01*
X125611523Y-165361904D01*
X125611523Y-165076190D01*
X125563904Y-164980952D01*
X125516285Y-164933333D01*
X125421047Y-164885714D01*
X125278190Y-164885714D01*
X125182952Y-164933333D01*
X125135333Y-164980952D01*
X125087714Y-165076190D01*
X125087714Y-165361904D01*
X125135333Y-165457142D01*
X125182952Y-165504761D01*
X125278190Y-165552380D01*
X125421047Y-165552380D01*
X124802000Y-164885714D02*
X124421047Y-164885714D01*
X124659142Y-164552380D02*
X124659142Y-165409523D01*
X124611523Y-165504761D01*
X124516285Y-165552380D01*
X124421047Y-165552380D01*
X124087714Y-165457142D02*
X124040095Y-165504761D01*
X124087714Y-165552380D01*
X124135333Y-165504761D01*
X124087714Y-165457142D01*
X124087714Y-165552380D01*
X123182952Y-165504761D02*
X123278190Y-165552380D01*
X123468666Y-165552380D01*
X123563904Y-165504761D01*
X123611523Y-165457142D01*
X123659142Y-165361904D01*
X123659142Y-165076190D01*
X123611523Y-164980952D01*
X123563904Y-164933333D01*
X123468666Y-164885714D01*
X123278190Y-164885714D01*
X123182952Y-164933333D01*
X122611523Y-165552380D02*
X122706761Y-165504761D01*
X122754380Y-165457142D01*
X122802000Y-165361904D01*
X122802000Y-165076190D01*
X122754380Y-164980952D01*
X122706761Y-164933333D01*
X122611523Y-164885714D01*
X122468666Y-164885714D01*
X122373428Y-164933333D01*
X122325809Y-164980952D01*
X122278190Y-165076190D01*
X122278190Y-165361904D01*
X122325809Y-165457142D01*
X122373428Y-165504761D01*
X122468666Y-165552380D01*
X122611523Y-165552380D01*
X121849619Y-165552380D02*
X121849619Y-164885714D01*
X121849619Y-164980952D02*
X121802000Y-164933333D01*
X121706761Y-164885714D01*
X121563904Y-164885714D01*
X121468666Y-164933333D01*
X121421047Y-165028571D01*
X121421047Y-165552380D01*
X121421047Y-165028571D02*
X121373428Y-164933333D01*
X121278190Y-164885714D01*
X121135333Y-164885714D01*
X121040095Y-164933333D01*
X120992476Y-165028571D01*
X120992476Y-165552380D01*
X121537333Y-139066380D02*
X121537333Y-139875904D01*
X121489714Y-139971142D01*
X121442095Y-140018761D01*
X121346857Y-140066380D01*
X121156380Y-140066380D01*
X121061142Y-140018761D01*
X121013523Y-139971142D01*
X120965904Y-139875904D01*
X120965904Y-139066380D01*
X120061142Y-139066380D02*
X120251619Y-139066380D01*
X120346857Y-139114000D01*
X120394476Y-139161619D01*
X120489714Y-139304476D01*
X120537333Y-139494952D01*
X120537333Y-139875904D01*
X120489714Y-139971142D01*
X120442095Y-140018761D01*
X120346857Y-140066380D01*
X120156380Y-140066380D01*
X120061142Y-140018761D01*
X120013523Y-139971142D01*
X119965904Y-139875904D01*
X119965904Y-139637809D01*
X120013523Y-139542571D01*
X120061142Y-139494952D01*
X120156380Y-139447333D01*
X120346857Y-139447333D01*
X120442095Y-139494952D01*
X120489714Y-139542571D01*
X120537333Y-139637809D01*
X119489714Y-140018761D02*
X119489714Y-140066380D01*
X119537333Y-140161619D01*
X119584952Y-140209238D01*
X117727809Y-139971142D02*
X117775428Y-140018761D01*
X117918285Y-140066380D01*
X118013523Y-140066380D01*
X118156380Y-140018761D01*
X118251619Y-139923523D01*
X118299238Y-139828285D01*
X118346857Y-139637809D01*
X118346857Y-139494952D01*
X118299238Y-139304476D01*
X118251619Y-139209238D01*
X118156380Y-139114000D01*
X118013523Y-139066380D01*
X117918285Y-139066380D01*
X117775428Y-139114000D01*
X117727809Y-139161619D01*
X116870666Y-139399714D02*
X116870666Y-140066380D01*
X117108761Y-139018761D02*
X117346857Y-139733047D01*
X116727809Y-139733047D01*
X116299238Y-140018761D02*
X116299238Y-140066380D01*
X116346857Y-140161619D01*
X116394476Y-140209238D01*
X114680190Y-140066380D02*
X114680190Y-139542571D01*
X114727809Y-139447333D01*
X114823047Y-139399714D01*
X115013523Y-139399714D01*
X115108761Y-139447333D01*
X114680190Y-140018761D02*
X114775428Y-140066380D01*
X115013523Y-140066380D01*
X115108761Y-140018761D01*
X115156380Y-139923523D01*
X115156380Y-139828285D01*
X115108761Y-139733047D01*
X115013523Y-139685428D01*
X114775428Y-139685428D01*
X114680190Y-139637809D01*
X114204000Y-139399714D02*
X114204000Y-140066380D01*
X114204000Y-139494952D02*
X114156380Y-139447333D01*
X114061142Y-139399714D01*
X113918285Y-139399714D01*
X113823047Y-139447333D01*
X113775428Y-139542571D01*
X113775428Y-140066380D01*
X112870666Y-140066380D02*
X112870666Y-139066380D01*
X112870666Y-140018761D02*
X112965904Y-140066380D01*
X113156380Y-140066380D01*
X113251619Y-140018761D01*
X113299238Y-139971142D01*
X113346857Y-139875904D01*
X113346857Y-139590190D01*
X113299238Y-139494952D01*
X113251619Y-139447333D01*
X113156380Y-139399714D01*
X112965904Y-139399714D01*
X112870666Y-139447333D01*
X111775428Y-139399714D02*
X111394476Y-139399714D01*
X111632571Y-140066380D02*
X111632571Y-139209238D01*
X111584952Y-139114000D01*
X111489714Y-139066380D01*
X111394476Y-139066380D01*
X111061142Y-140066380D02*
X111061142Y-139399714D01*
X111061142Y-139066380D02*
X111108761Y-139114000D01*
X111061142Y-139161619D01*
X111013523Y-139114000D01*
X111061142Y-139066380D01*
X111061142Y-139161619D01*
X110727809Y-139399714D02*
X110346857Y-139399714D01*
X110584952Y-139066380D02*
X110584952Y-139923523D01*
X110537333Y-140018761D01*
X110442095Y-140066380D01*
X110346857Y-140066380D01*
X110156380Y-139399714D02*
X109775428Y-139399714D01*
X110013523Y-139066380D02*
X110013523Y-139923523D01*
X109965904Y-140018761D01*
X109870666Y-140066380D01*
X109775428Y-140066380D01*
X109442095Y-140066380D02*
X109442095Y-139399714D01*
X109442095Y-139066380D02*
X109489714Y-139114000D01*
X109442095Y-139161619D01*
X109394476Y-139114000D01*
X109442095Y-139066380D01*
X109442095Y-139161619D01*
X108965904Y-139399714D02*
X108965904Y-140066380D01*
X108965904Y-139494952D02*
X108918285Y-139447333D01*
X108823047Y-139399714D01*
X108680190Y-139399714D01*
X108584952Y-139447333D01*
X108537333Y-139542571D01*
X108537333Y-140066380D01*
X107632571Y-139399714D02*
X107632571Y-140209238D01*
X107680190Y-140304476D01*
X107727809Y-140352095D01*
X107823047Y-140399714D01*
X107965904Y-140399714D01*
X108061142Y-140352095D01*
X107632571Y-140018761D02*
X107727809Y-140066380D01*
X107918285Y-140066380D01*
X108013523Y-140018761D01*
X108061142Y-139971142D01*
X108108761Y-139875904D01*
X108108761Y-139590190D01*
X108061142Y-139494952D01*
X108013523Y-139447333D01*
X107918285Y-139399714D01*
X107727809Y-139399714D01*
X107632571Y-139447333D01*
X106394476Y-139066380D02*
X106394476Y-139875904D01*
X106346857Y-139971142D01*
X106299238Y-140018761D01*
X106204000Y-140066380D01*
X106013523Y-140066380D01*
X105918285Y-140018761D01*
X105870666Y-139971142D01*
X105823047Y-139875904D01*
X105823047Y-139066380D01*
X104823047Y-140066380D02*
X105394476Y-140066380D01*
X105108761Y-140066380D02*
X105108761Y-139066380D01*
X105204000Y-139209238D01*
X105299238Y-139304476D01*
X105394476Y-139352095D01*
X103727809Y-139399714D02*
X103537333Y-140066380D01*
X103346857Y-139590190D01*
X103156380Y-140066380D01*
X102965904Y-139399714D01*
X102584952Y-140066380D02*
X102584952Y-139399714D01*
X102584952Y-139066380D02*
X102632571Y-139114000D01*
X102584952Y-139161619D01*
X102537333Y-139114000D01*
X102584952Y-139066380D01*
X102584952Y-139161619D01*
X102251619Y-139399714D02*
X101870666Y-139399714D01*
X102108761Y-139066380D02*
X102108761Y-139923523D01*
X102061142Y-140018761D01*
X101965904Y-140066380D01*
X101870666Y-140066380D01*
X101537333Y-140066380D02*
X101537333Y-139066380D01*
X101108761Y-140066380D02*
X101108761Y-139542571D01*
X101156380Y-139447333D01*
X101251619Y-139399714D01*
X101394476Y-139399714D01*
X101489714Y-139447333D01*
X101537333Y-139494952D01*
X99442095Y-140066380D02*
X99442095Y-139542571D01*
X99489714Y-139447333D01*
X99584952Y-139399714D01*
X99775428Y-139399714D01*
X99870666Y-139447333D01*
X99442095Y-140018761D02*
X99537333Y-140066380D01*
X99775428Y-140066380D01*
X99870666Y-140018761D01*
X99918285Y-139923523D01*
X99918285Y-139828285D01*
X99870666Y-139733047D01*
X99775428Y-139685428D01*
X99537333Y-139685428D01*
X99442095Y-139637809D01*
X98251619Y-139161619D02*
X98204000Y-139114000D01*
X98108761Y-139066380D01*
X97870666Y-139066380D01*
X97775428Y-139114000D01*
X97727809Y-139161619D01*
X97680190Y-139256857D01*
X97680190Y-139352095D01*
X97727809Y-139494952D01*
X98299238Y-140066380D01*
X97680190Y-140066380D01*
X97108761Y-139494952D02*
X97204000Y-139447333D01*
X97251619Y-139399714D01*
X97299238Y-139304476D01*
X97299238Y-139256857D01*
X97251619Y-139161619D01*
X97204000Y-139114000D01*
X97108761Y-139066380D01*
X96918285Y-139066380D01*
X96823047Y-139114000D01*
X96775428Y-139161619D01*
X96727809Y-139256857D01*
X96727809Y-139304476D01*
X96775428Y-139399714D01*
X96823047Y-139447333D01*
X96918285Y-139494952D01*
X97108761Y-139494952D01*
X97204000Y-139542571D01*
X97251619Y-139590190D01*
X97299238Y-139685428D01*
X97299238Y-139875904D01*
X97251619Y-139971142D01*
X97204000Y-140018761D01*
X97108761Y-140066380D01*
X96918285Y-140066380D01*
X96823047Y-140018761D01*
X96775428Y-139971142D01*
X96727809Y-139875904D01*
X96727809Y-139685428D01*
X96775428Y-139590190D01*
X96823047Y-139542571D01*
X96918285Y-139494952D01*
X95775428Y-140066380D02*
X96346857Y-140066380D01*
X96061142Y-140066380D02*
X96061142Y-139066380D01*
X96156380Y-139209238D01*
X96251619Y-139304476D01*
X96346857Y-139352095D01*
X94918285Y-139066380D02*
X95108761Y-139066380D01*
X95204000Y-139114000D01*
X95251619Y-139161619D01*
X95346857Y-139304476D01*
X95394476Y-139494952D01*
X95394476Y-139875904D01*
X95346857Y-139971142D01*
X95299238Y-140018761D01*
X95204000Y-140066380D01*
X95013523Y-140066380D01*
X94918285Y-140018761D01*
X94870666Y-139971142D01*
X94823047Y-139875904D01*
X94823047Y-139637809D01*
X94870666Y-139542571D01*
X94918285Y-139494952D01*
X95013523Y-139447333D01*
X95204000Y-139447333D01*
X95299238Y-139494952D01*
X95346857Y-139542571D01*
X95394476Y-139637809D01*
X119894476Y-141628761D02*
X119989714Y-141676380D01*
X120180190Y-141676380D01*
X120275428Y-141628761D01*
X120323047Y-141533523D01*
X120323047Y-141152571D01*
X120275428Y-141057333D01*
X120180190Y-141009714D01*
X119989714Y-141009714D01*
X119894476Y-141057333D01*
X119846857Y-141152571D01*
X119846857Y-141247809D01*
X120323047Y-141343047D01*
X119418285Y-141009714D02*
X119418285Y-141676380D01*
X119418285Y-141104952D02*
X119370666Y-141057333D01*
X119275428Y-141009714D01*
X119132571Y-141009714D01*
X119037333Y-141057333D01*
X118989714Y-141152571D01*
X118989714Y-141676380D01*
X118084952Y-141676380D02*
X118084952Y-141152571D01*
X118132571Y-141057333D01*
X118227809Y-141009714D01*
X118418285Y-141009714D01*
X118513523Y-141057333D01*
X118084952Y-141628761D02*
X118180190Y-141676380D01*
X118418285Y-141676380D01*
X118513523Y-141628761D01*
X118561142Y-141533523D01*
X118561142Y-141438285D01*
X118513523Y-141343047D01*
X118418285Y-141295428D01*
X118180190Y-141295428D01*
X118084952Y-141247809D01*
X117608761Y-141676380D02*
X117608761Y-140676380D01*
X117608761Y-141057333D02*
X117513523Y-141009714D01*
X117323047Y-141009714D01*
X117227809Y-141057333D01*
X117180190Y-141104952D01*
X117132571Y-141200190D01*
X117132571Y-141485904D01*
X117180190Y-141581142D01*
X117227809Y-141628761D01*
X117323047Y-141676380D01*
X117513523Y-141676380D01*
X117608761Y-141628761D01*
X116561142Y-141676380D02*
X116656380Y-141628761D01*
X116704000Y-141533523D01*
X116704000Y-140676380D01*
X115799238Y-141628761D02*
X115894476Y-141676380D01*
X116084952Y-141676380D01*
X116180190Y-141628761D01*
X116227809Y-141533523D01*
X116227809Y-141152571D01*
X116180190Y-141057333D01*
X116084952Y-141009714D01*
X115894476Y-141009714D01*
X115799238Y-141057333D01*
X115751619Y-141152571D01*
X115751619Y-141247809D01*
X116227809Y-141343047D01*
X115370666Y-141628761D02*
X115275428Y-141676380D01*
X115084952Y-141676380D01*
X114989714Y-141628761D01*
X114942095Y-141533523D01*
X114942095Y-141485904D01*
X114989714Y-141390666D01*
X115084952Y-141343047D01*
X115227809Y-141343047D01*
X115323047Y-141295428D01*
X115370666Y-141200190D01*
X115370666Y-141152571D01*
X115323047Y-141057333D01*
X115227809Y-141009714D01*
X115084952Y-141009714D01*
X114989714Y-141057333D01*
X113608761Y-141676380D02*
X113704000Y-141628761D01*
X113751619Y-141581142D01*
X113799238Y-141485904D01*
X113799238Y-141200190D01*
X113751619Y-141104952D01*
X113704000Y-141057333D01*
X113608761Y-141009714D01*
X113465904Y-141009714D01*
X113370666Y-141057333D01*
X113323047Y-141104952D01*
X113275428Y-141200190D01*
X113275428Y-141485904D01*
X113323047Y-141581142D01*
X113370666Y-141628761D01*
X113465904Y-141676380D01*
X113608761Y-141676380D01*
X112846857Y-141009714D02*
X112846857Y-141676380D01*
X112846857Y-141104952D02*
X112799238Y-141057333D01*
X112704000Y-141009714D01*
X112561142Y-141009714D01*
X112465904Y-141057333D01*
X112418285Y-141152571D01*
X112418285Y-141676380D01*
X111942095Y-141676380D02*
X111942095Y-140676380D01*
X111942095Y-141057333D02*
X111846857Y-141009714D01*
X111656380Y-141009714D01*
X111561142Y-141057333D01*
X111513523Y-141104952D01*
X111465904Y-141200190D01*
X111465904Y-141485904D01*
X111513523Y-141581142D01*
X111561142Y-141628761D01*
X111656380Y-141676380D01*
X111846857Y-141676380D01*
X111942095Y-141628761D01*
X110894476Y-141676380D02*
X110989714Y-141628761D01*
X111037333Y-141581142D01*
X111084952Y-141485904D01*
X111084952Y-141200190D01*
X111037333Y-141104952D01*
X110989714Y-141057333D01*
X110894476Y-141009714D01*
X110751619Y-141009714D01*
X110656380Y-141057333D01*
X110608761Y-141104952D01*
X110561142Y-141200190D01*
X110561142Y-141485904D01*
X110608761Y-141581142D01*
X110656380Y-141628761D01*
X110751619Y-141676380D01*
X110894476Y-141676380D01*
X109704000Y-141676380D02*
X109704000Y-141152571D01*
X109751619Y-141057333D01*
X109846857Y-141009714D01*
X110037333Y-141009714D01*
X110132571Y-141057333D01*
X109704000Y-141628761D02*
X109799238Y-141676380D01*
X110037333Y-141676380D01*
X110132571Y-141628761D01*
X110180190Y-141533523D01*
X110180190Y-141438285D01*
X110132571Y-141343047D01*
X110037333Y-141295428D01*
X109799238Y-141295428D01*
X109704000Y-141247809D01*
X109227809Y-141676380D02*
X109227809Y-141009714D01*
X109227809Y-141200190D02*
X109180190Y-141104952D01*
X109132571Y-141057333D01*
X109037333Y-141009714D01*
X108942095Y-141009714D01*
X108180190Y-141676380D02*
X108180190Y-140676380D01*
X108180190Y-141628761D02*
X108275428Y-141676380D01*
X108465904Y-141676380D01*
X108561142Y-141628761D01*
X108608761Y-141581142D01*
X108656380Y-141485904D01*
X108656380Y-141200190D01*
X108608761Y-141104952D01*
X108561142Y-141057333D01*
X108465904Y-141009714D01*
X108275428Y-141009714D01*
X108180190Y-141057333D01*
X106942095Y-141676380D02*
X106942095Y-141009714D01*
X106942095Y-141200190D02*
X106894476Y-141104952D01*
X106846857Y-141057333D01*
X106751619Y-141009714D01*
X106656380Y-141009714D01*
X105942095Y-141628761D02*
X106037333Y-141676380D01*
X106227809Y-141676380D01*
X106323047Y-141628761D01*
X106370666Y-141533523D01*
X106370666Y-141152571D01*
X106323047Y-141057333D01*
X106227809Y-141009714D01*
X106037333Y-141009714D01*
X105942095Y-141057333D01*
X105894476Y-141152571D01*
X105894476Y-141247809D01*
X106370666Y-141343047D01*
X105465904Y-141009714D02*
X105465904Y-142009714D01*
X105465904Y-141057333D02*
X105370666Y-141009714D01*
X105180190Y-141009714D01*
X105084952Y-141057333D01*
X105037333Y-141104952D01*
X104989714Y-141200190D01*
X104989714Y-141485904D01*
X105037333Y-141581142D01*
X105084952Y-141628761D01*
X105180190Y-141676380D01*
X105370666Y-141676380D01*
X105465904Y-141628761D01*
X104561142Y-141676380D02*
X104561142Y-141009714D01*
X104561142Y-141200190D02*
X104513523Y-141104952D01*
X104465904Y-141057333D01*
X104370666Y-141009714D01*
X104275428Y-141009714D01*
X103799238Y-141676380D02*
X103894476Y-141628761D01*
X103942095Y-141581142D01*
X103989714Y-141485904D01*
X103989714Y-141200190D01*
X103942095Y-141104952D01*
X103894476Y-141057333D01*
X103799238Y-141009714D01*
X103656380Y-141009714D01*
X103561142Y-141057333D01*
X103513523Y-141104952D01*
X103465904Y-141200190D01*
X103465904Y-141485904D01*
X103513523Y-141581142D01*
X103561142Y-141628761D01*
X103656380Y-141676380D01*
X103799238Y-141676380D01*
X102608761Y-141009714D02*
X102608761Y-141819238D01*
X102656380Y-141914476D01*
X102704000Y-141962095D01*
X102799238Y-142009714D01*
X102942095Y-142009714D01*
X103037333Y-141962095D01*
X102608761Y-141628761D02*
X102704000Y-141676380D01*
X102894476Y-141676380D01*
X102989714Y-141628761D01*
X103037333Y-141581142D01*
X103084952Y-141485904D01*
X103084952Y-141200190D01*
X103037333Y-141104952D01*
X102989714Y-141057333D01*
X102894476Y-141009714D01*
X102704000Y-141009714D01*
X102608761Y-141057333D01*
X102132571Y-141676380D02*
X102132571Y-141009714D01*
X102132571Y-141200190D02*
X102084952Y-141104952D01*
X102037333Y-141057333D01*
X101942095Y-141009714D01*
X101846857Y-141009714D01*
X101084952Y-141676380D02*
X101084952Y-141152571D01*
X101132571Y-141057333D01*
X101227809Y-141009714D01*
X101418285Y-141009714D01*
X101513523Y-141057333D01*
X101084952Y-141628761D02*
X101180190Y-141676380D01*
X101418285Y-141676380D01*
X101513523Y-141628761D01*
X101561142Y-141533523D01*
X101561142Y-141438285D01*
X101513523Y-141343047D01*
X101418285Y-141295428D01*
X101180190Y-141295428D01*
X101084952Y-141247809D01*
X100608761Y-141676380D02*
X100608761Y-141009714D01*
X100608761Y-141104952D02*
X100561142Y-141057333D01*
X100465904Y-141009714D01*
X100323047Y-141009714D01*
X100227809Y-141057333D01*
X100180190Y-141152571D01*
X100180190Y-141676380D01*
X100180190Y-141152571D02*
X100132571Y-141057333D01*
X100037333Y-141009714D01*
X99894476Y-141009714D01*
X99799238Y-141057333D01*
X99751619Y-141152571D01*
X99751619Y-141676380D01*
X99275428Y-141676380D02*
X99275428Y-141009714D01*
X99275428Y-141104952D02*
X99227809Y-141057333D01*
X99132571Y-141009714D01*
X98989714Y-141009714D01*
X98894476Y-141057333D01*
X98846857Y-141152571D01*
X98846857Y-141676380D01*
X98846857Y-141152571D02*
X98799238Y-141057333D01*
X98704000Y-141009714D01*
X98561142Y-141009714D01*
X98465904Y-141057333D01*
X98418285Y-141152571D01*
X98418285Y-141676380D01*
X97942095Y-141676380D02*
X97942095Y-141009714D01*
X97942095Y-140676380D02*
X97989714Y-140724000D01*
X97942095Y-140771619D01*
X97894476Y-140724000D01*
X97942095Y-140676380D01*
X97942095Y-140771619D01*
X97465904Y-141009714D02*
X97465904Y-141676380D01*
X97465904Y-141104952D02*
X97418285Y-141057333D01*
X97323047Y-141009714D01*
X97180190Y-141009714D01*
X97084952Y-141057333D01*
X97037333Y-141152571D01*
X97037333Y-141676380D01*
X96132571Y-141009714D02*
X96132571Y-141819238D01*
X96180190Y-141914476D01*
X96227809Y-141962095D01*
X96323047Y-142009714D01*
X96465904Y-142009714D01*
X96561142Y-141962095D01*
X96132571Y-141628761D02*
X96227809Y-141676380D01*
X96418285Y-141676380D01*
X96513523Y-141628761D01*
X96561142Y-141581142D01*
X96608761Y-141485904D01*
X96608761Y-141200190D01*
X96561142Y-141104952D01*
X96513523Y-141057333D01*
X96418285Y-141009714D01*
X96227809Y-141009714D01*
X96132571Y-141057333D01*
X114299238Y-143286380D02*
X114394476Y-143238761D01*
X114442095Y-143191142D01*
X114489714Y-143095904D01*
X114489714Y-142810190D01*
X114442095Y-142714952D01*
X114394476Y-142667333D01*
X114299238Y-142619714D01*
X114156380Y-142619714D01*
X114061142Y-142667333D01*
X114013523Y-142714952D01*
X113965904Y-142810190D01*
X113965904Y-143095904D01*
X114013523Y-143191142D01*
X114061142Y-143238761D01*
X114156380Y-143286380D01*
X114299238Y-143286380D01*
X113680190Y-142619714D02*
X113299238Y-142619714D01*
X113537333Y-143286380D02*
X113537333Y-142429238D01*
X113489714Y-142334000D01*
X113394476Y-142286380D01*
X113299238Y-142286380D01*
X112346857Y-142619714D02*
X111965904Y-142619714D01*
X112204000Y-142286380D02*
X112204000Y-143143523D01*
X112156380Y-143238761D01*
X112061142Y-143286380D01*
X111965904Y-143286380D01*
X111632571Y-143286380D02*
X111632571Y-142286380D01*
X111204000Y-143286380D02*
X111204000Y-142762571D01*
X111251619Y-142667333D01*
X111346857Y-142619714D01*
X111489714Y-142619714D01*
X111584952Y-142667333D01*
X111632571Y-142714952D01*
X110346857Y-143238761D02*
X110442095Y-143286380D01*
X110632571Y-143286380D01*
X110727809Y-143238761D01*
X110775428Y-143143523D01*
X110775428Y-142762571D01*
X110727809Y-142667333D01*
X110632571Y-142619714D01*
X110442095Y-142619714D01*
X110346857Y-142667333D01*
X110299238Y-142762571D01*
X110299238Y-142857809D01*
X110775428Y-142953047D01*
X109251619Y-142619714D02*
X108870666Y-142619714D01*
X109108761Y-143286380D02*
X109108761Y-142429238D01*
X109061142Y-142334000D01*
X108965904Y-142286380D01*
X108870666Y-142286380D01*
X108394476Y-143286380D02*
X108489714Y-143238761D01*
X108537333Y-143143523D01*
X108537333Y-142286380D01*
X107584952Y-143286380D02*
X107584952Y-142762571D01*
X107632571Y-142667333D01*
X107727809Y-142619714D01*
X107918285Y-142619714D01*
X108013523Y-142667333D01*
X107584952Y-143238761D02*
X107680190Y-143286380D01*
X107918285Y-143286380D01*
X108013523Y-143238761D01*
X108061142Y-143143523D01*
X108061142Y-143048285D01*
X108013523Y-142953047D01*
X107918285Y-142905428D01*
X107680190Y-142905428D01*
X107584952Y-142857809D01*
X107156380Y-143238761D02*
X107061142Y-143286380D01*
X106870666Y-143286380D01*
X106775428Y-143238761D01*
X106727809Y-143143523D01*
X106727809Y-143095904D01*
X106775428Y-143000666D01*
X106870666Y-142953047D01*
X107013523Y-142953047D01*
X107108761Y-142905428D01*
X107156380Y-142810190D01*
X107156380Y-142762571D01*
X107108761Y-142667333D01*
X107013523Y-142619714D01*
X106870666Y-142619714D01*
X106775428Y-142667333D01*
X106299238Y-143286380D02*
X106299238Y-142286380D01*
X105870666Y-143286380D02*
X105870666Y-142762571D01*
X105918285Y-142667333D01*
X106013523Y-142619714D01*
X106156380Y-142619714D01*
X106251619Y-142667333D01*
X106299238Y-142714952D01*
X104204000Y-143238761D02*
X104299238Y-143286380D01*
X104489714Y-143286380D01*
X104584952Y-143238761D01*
X104632571Y-143191142D01*
X104680190Y-143095904D01*
X104680190Y-142810190D01*
X104632571Y-142714952D01*
X104584952Y-142667333D01*
X104489714Y-142619714D01*
X104299238Y-142619714D01*
X104204000Y-142667333D01*
X103775428Y-143286380D02*
X103775428Y-142286380D01*
X103346857Y-143286380D02*
X103346857Y-142762571D01*
X103394476Y-142667333D01*
X103489714Y-142619714D01*
X103632571Y-142619714D01*
X103727809Y-142667333D01*
X103775428Y-142714952D01*
X102870666Y-143286380D02*
X102870666Y-142619714D01*
X102870666Y-142286380D02*
X102918285Y-142334000D01*
X102870666Y-142381619D01*
X102823047Y-142334000D01*
X102870666Y-142286380D01*
X102870666Y-142381619D01*
X102394476Y-142619714D02*
X102394476Y-143619714D01*
X102394476Y-142667333D02*
X102299238Y-142619714D01*
X102108761Y-142619714D01*
X102013523Y-142667333D01*
X101965904Y-142714952D01*
X101918285Y-142810190D01*
X101918285Y-143095904D01*
X101965904Y-143191142D01*
X102013523Y-143238761D01*
X102108761Y-143286380D01*
X102299238Y-143286380D01*
X102394476Y-143238761D01*
X139159142Y-161742380D02*
X139159142Y-161218571D01*
X139206761Y-161123333D01*
X139302000Y-161075714D01*
X139492476Y-161075714D01*
X139587714Y-161123333D01*
X139159142Y-161694761D02*
X139254380Y-161742380D01*
X139492476Y-161742380D01*
X139587714Y-161694761D01*
X139635333Y-161599523D01*
X139635333Y-161504285D01*
X139587714Y-161409047D01*
X139492476Y-161361428D01*
X139254380Y-161361428D01*
X139159142Y-161313809D01*
X138682952Y-161742380D02*
X138682952Y-160742380D01*
X138682952Y-161123333D02*
X138587714Y-161075714D01*
X138397238Y-161075714D01*
X138302000Y-161123333D01*
X138254380Y-161170952D01*
X138206761Y-161266190D01*
X138206761Y-161551904D01*
X138254380Y-161647142D01*
X138302000Y-161694761D01*
X138397238Y-161742380D01*
X138587714Y-161742380D01*
X138682952Y-161694761D01*
X137873428Y-161075714D02*
X137349619Y-161075714D01*
X137873428Y-161742380D01*
X137349619Y-161742380D01*
X136968666Y-161742380D02*
X136968666Y-161075714D01*
X136968666Y-161170952D02*
X136921047Y-161123333D01*
X136825809Y-161075714D01*
X136682952Y-161075714D01*
X136587714Y-161123333D01*
X136540095Y-161218571D01*
X136540095Y-161742380D01*
X136540095Y-161218571D02*
X136492476Y-161123333D01*
X136397238Y-161075714D01*
X136254380Y-161075714D01*
X136159142Y-161123333D01*
X136111523Y-161218571D01*
X136111523Y-161742380D01*
X135206761Y-161742380D02*
X135206761Y-161218571D01*
X135254380Y-161123333D01*
X135349619Y-161075714D01*
X135540095Y-161075714D01*
X135635333Y-161123333D01*
X135206761Y-161694761D02*
X135302000Y-161742380D01*
X135540095Y-161742380D01*
X135635333Y-161694761D01*
X135682952Y-161599523D01*
X135682952Y-161504285D01*
X135635333Y-161409047D01*
X135540095Y-161361428D01*
X135302000Y-161361428D01*
X135206761Y-161313809D01*
X134730571Y-161075714D02*
X134730571Y-161742380D01*
X134730571Y-161170952D02*
X134682952Y-161123333D01*
X134587714Y-161075714D01*
X134444857Y-161075714D01*
X134349619Y-161123333D01*
X134302000Y-161218571D01*
X134302000Y-161742380D01*
X133873428Y-160837619D02*
X133825809Y-160790000D01*
X133730571Y-160742380D01*
X133492476Y-160742380D01*
X133397238Y-160790000D01*
X133349619Y-160837619D01*
X133302000Y-160932857D01*
X133302000Y-161028095D01*
X133349619Y-161170952D01*
X133921047Y-161742380D01*
X133302000Y-161742380D01*
X132873428Y-161742380D02*
X132873428Y-160742380D01*
X132778190Y-161361428D02*
X132492476Y-161742380D01*
X132492476Y-161075714D02*
X132873428Y-161456666D01*
X132063904Y-161647142D02*
X132016285Y-161694761D01*
X132063904Y-161742380D01*
X132111523Y-161694761D01*
X132063904Y-161647142D01*
X132063904Y-161742380D01*
X131682952Y-161075714D02*
X131492476Y-161742380D01*
X131302000Y-161266190D01*
X131111523Y-161742380D01*
X130921047Y-161075714D01*
X130397238Y-161742380D02*
X130492476Y-161694761D01*
X130540095Y-161647142D01*
X130587714Y-161551904D01*
X130587714Y-161266190D01*
X130540095Y-161170952D01*
X130492476Y-161123333D01*
X130397238Y-161075714D01*
X130254380Y-161075714D01*
X130159142Y-161123333D01*
X130111523Y-161170952D01*
X130063904Y-161266190D01*
X130063904Y-161551904D01*
X130111523Y-161647142D01*
X130159142Y-161694761D01*
X130254380Y-161742380D01*
X130397238Y-161742380D01*
X129635333Y-161742380D02*
X129635333Y-161075714D01*
X129635333Y-161266190D02*
X129587714Y-161170952D01*
X129540095Y-161123333D01*
X129444857Y-161075714D01*
X129349619Y-161075714D01*
X128587714Y-161742380D02*
X128587714Y-160742380D01*
X128587714Y-161694761D02*
X128682952Y-161742380D01*
X128873428Y-161742380D01*
X128968666Y-161694761D01*
X129016285Y-161647142D01*
X129063904Y-161551904D01*
X129063904Y-161266190D01*
X129016285Y-161170952D01*
X128968666Y-161123333D01*
X128873428Y-161075714D01*
X128682952Y-161075714D01*
X128587714Y-161123333D01*
X128111523Y-161075714D02*
X128111523Y-162075714D01*
X128111523Y-161123333D02*
X128016285Y-161075714D01*
X127825809Y-161075714D01*
X127730571Y-161123333D01*
X127682952Y-161170952D01*
X127635333Y-161266190D01*
X127635333Y-161551904D01*
X127682952Y-161647142D01*
X127730571Y-161694761D01*
X127825809Y-161742380D01*
X128016285Y-161742380D01*
X128111523Y-161694761D01*
X127206761Y-161742380D02*
X127206761Y-161075714D01*
X127206761Y-161266190D02*
X127159142Y-161170952D01*
X127111523Y-161123333D01*
X127016285Y-161075714D01*
X126921047Y-161075714D01*
X126206761Y-161694761D02*
X126302000Y-161742380D01*
X126492476Y-161742380D01*
X126587714Y-161694761D01*
X126635333Y-161599523D01*
X126635333Y-161218571D01*
X126587714Y-161123333D01*
X126492476Y-161075714D01*
X126302000Y-161075714D01*
X126206761Y-161123333D01*
X126159142Y-161218571D01*
X126159142Y-161313809D01*
X126635333Y-161409047D01*
X125778190Y-161694761D02*
X125682952Y-161742380D01*
X125492476Y-161742380D01*
X125397238Y-161694761D01*
X125349619Y-161599523D01*
X125349619Y-161551904D01*
X125397238Y-161456666D01*
X125492476Y-161409047D01*
X125635333Y-161409047D01*
X125730571Y-161361428D01*
X125778190Y-161266190D01*
X125778190Y-161218571D01*
X125730571Y-161123333D01*
X125635333Y-161075714D01*
X125492476Y-161075714D01*
X125397238Y-161123333D01*
X124968666Y-161694761D02*
X124873428Y-161742380D01*
X124682952Y-161742380D01*
X124587714Y-161694761D01*
X124540095Y-161599523D01*
X124540095Y-161551904D01*
X124587714Y-161456666D01*
X124682952Y-161409047D01*
X124825809Y-161409047D01*
X124921047Y-161361428D01*
X124968666Y-161266190D01*
X124968666Y-161218571D01*
X124921047Y-161123333D01*
X124825809Y-161075714D01*
X124682952Y-161075714D01*
X124587714Y-161123333D01*
X124111523Y-161647142D02*
X124063904Y-161694761D01*
X124111523Y-161742380D01*
X124159142Y-161694761D01*
X124111523Y-161647142D01*
X124111523Y-161742380D01*
X123206761Y-161694761D02*
X123302000Y-161742380D01*
X123492476Y-161742380D01*
X123587714Y-161694761D01*
X123635333Y-161647142D01*
X123682952Y-161551904D01*
X123682952Y-161266190D01*
X123635333Y-161170952D01*
X123587714Y-161123333D01*
X123492476Y-161075714D01*
X123302000Y-161075714D01*
X123206761Y-161123333D01*
X122635333Y-161742380D02*
X122730571Y-161694761D01*
X122778190Y-161647142D01*
X122825809Y-161551904D01*
X122825809Y-161266190D01*
X122778190Y-161170952D01*
X122730571Y-161123333D01*
X122635333Y-161075714D01*
X122492476Y-161075714D01*
X122397238Y-161123333D01*
X122349619Y-161170952D01*
X122302000Y-161266190D01*
X122302000Y-161551904D01*
X122349619Y-161647142D01*
X122397238Y-161694761D01*
X122492476Y-161742380D01*
X122635333Y-161742380D01*
X121873428Y-161742380D02*
X121873428Y-161075714D01*
X121873428Y-161170952D02*
X121825809Y-161123333D01*
X121730571Y-161075714D01*
X121587714Y-161075714D01*
X121492476Y-161123333D01*
X121444857Y-161218571D01*
X121444857Y-161742380D01*
X121444857Y-161218571D02*
X121397238Y-161123333D01*
X121302000Y-161075714D01*
X121159142Y-161075714D01*
X121063904Y-161123333D01*
X121016285Y-161218571D01*
X121016285Y-161742380D01*
X164780857Y-142946380D02*
X164780857Y-141946380D01*
X164542761Y-141946380D01*
X164399904Y-141994000D01*
X164304666Y-142089238D01*
X164257047Y-142184476D01*
X164209428Y-142374952D01*
X164209428Y-142517809D01*
X164257047Y-142708285D01*
X164304666Y-142803523D01*
X164399904Y-142898761D01*
X164542761Y-142946380D01*
X164780857Y-142946380D01*
X163780857Y-142946380D02*
X163780857Y-142279714D01*
X163780857Y-141946380D02*
X163828476Y-141994000D01*
X163780857Y-142041619D01*
X163733238Y-141994000D01*
X163780857Y-141946380D01*
X163780857Y-142041619D01*
X163352285Y-142898761D02*
X163257047Y-142946380D01*
X163066571Y-142946380D01*
X162971333Y-142898761D01*
X162923714Y-142803523D01*
X162923714Y-142755904D01*
X162971333Y-142660666D01*
X163066571Y-142613047D01*
X163209428Y-142613047D01*
X163304666Y-142565428D01*
X163352285Y-142470190D01*
X163352285Y-142422571D01*
X163304666Y-142327333D01*
X163209428Y-142279714D01*
X163066571Y-142279714D01*
X162971333Y-142327333D01*
X162066571Y-142898761D02*
X162161809Y-142946380D01*
X162352285Y-142946380D01*
X162447523Y-142898761D01*
X162495142Y-142851142D01*
X162542761Y-142755904D01*
X162542761Y-142470190D01*
X162495142Y-142374952D01*
X162447523Y-142327333D01*
X162352285Y-142279714D01*
X162161809Y-142279714D01*
X162066571Y-142327333D01*
X161495142Y-142946380D02*
X161590380Y-142898761D01*
X161638000Y-142851142D01*
X161685619Y-142755904D01*
X161685619Y-142470190D01*
X161638000Y-142374952D01*
X161590380Y-142327333D01*
X161495142Y-142279714D01*
X161352285Y-142279714D01*
X161257047Y-142327333D01*
X161209428Y-142374952D01*
X161161809Y-142470190D01*
X161161809Y-142755904D01*
X161209428Y-142851142D01*
X161257047Y-142898761D01*
X161352285Y-142946380D01*
X161495142Y-142946380D01*
X160733238Y-142279714D02*
X160733238Y-142946380D01*
X160733238Y-142374952D02*
X160685619Y-142327333D01*
X160590380Y-142279714D01*
X160447523Y-142279714D01*
X160352285Y-142327333D01*
X160304666Y-142422571D01*
X160304666Y-142946380D01*
X159828476Y-142279714D02*
X159828476Y-142946380D01*
X159828476Y-142374952D02*
X159780857Y-142327333D01*
X159685619Y-142279714D01*
X159542761Y-142279714D01*
X159447523Y-142327333D01*
X159399904Y-142422571D01*
X159399904Y-142946380D01*
X158542761Y-142898761D02*
X158638000Y-142946380D01*
X158828476Y-142946380D01*
X158923714Y-142898761D01*
X158971333Y-142803523D01*
X158971333Y-142422571D01*
X158923714Y-142327333D01*
X158828476Y-142279714D01*
X158638000Y-142279714D01*
X158542761Y-142327333D01*
X158495142Y-142422571D01*
X158495142Y-142517809D01*
X158971333Y-142613047D01*
X157638000Y-142898761D02*
X157733238Y-142946380D01*
X157923714Y-142946380D01*
X158018952Y-142898761D01*
X158066571Y-142851142D01*
X158114190Y-142755904D01*
X158114190Y-142470190D01*
X158066571Y-142374952D01*
X158018952Y-142327333D01*
X157923714Y-142279714D01*
X157733238Y-142279714D01*
X157638000Y-142327333D01*
X157352285Y-142279714D02*
X156971333Y-142279714D01*
X157209428Y-141946380D02*
X157209428Y-142803523D01*
X157161809Y-142898761D01*
X157066571Y-142946380D01*
X156971333Y-142946380D01*
X156018952Y-142279714D02*
X155638000Y-142279714D01*
X155876095Y-141946380D02*
X155876095Y-142803523D01*
X155828476Y-142898761D01*
X155733238Y-142946380D01*
X155638000Y-142946380D01*
X154876095Y-142946380D02*
X154876095Y-142422571D01*
X154923714Y-142327333D01*
X155018952Y-142279714D01*
X155209428Y-142279714D01*
X155304666Y-142327333D01*
X154876095Y-142898761D02*
X154971333Y-142946380D01*
X155209428Y-142946380D01*
X155304666Y-142898761D01*
X155352285Y-142803523D01*
X155352285Y-142708285D01*
X155304666Y-142613047D01*
X155209428Y-142565428D01*
X154971333Y-142565428D01*
X154876095Y-142517809D01*
X154399904Y-142946380D02*
X154399904Y-142279714D01*
X154399904Y-142470190D02*
X154352285Y-142374952D01*
X154304666Y-142327333D01*
X154209428Y-142279714D01*
X154114190Y-142279714D01*
X153352285Y-142279714D02*
X153352285Y-143089238D01*
X153399904Y-143184476D01*
X153447523Y-143232095D01*
X153542761Y-143279714D01*
X153685619Y-143279714D01*
X153780857Y-143232095D01*
X153352285Y-142898761D02*
X153447523Y-142946380D01*
X153638000Y-142946380D01*
X153733238Y-142898761D01*
X153780857Y-142851142D01*
X153828476Y-142755904D01*
X153828476Y-142470190D01*
X153780857Y-142374952D01*
X153733238Y-142327333D01*
X153638000Y-142279714D01*
X153447523Y-142279714D01*
X153352285Y-142327333D01*
X152495142Y-142898761D02*
X152590380Y-142946380D01*
X152780857Y-142946380D01*
X152876095Y-142898761D01*
X152923714Y-142803523D01*
X152923714Y-142422571D01*
X152876095Y-142327333D01*
X152780857Y-142279714D01*
X152590380Y-142279714D01*
X152495142Y-142327333D01*
X152447523Y-142422571D01*
X152447523Y-142517809D01*
X152923714Y-142613047D01*
X152161809Y-142279714D02*
X151780857Y-142279714D01*
X152018952Y-141946380D02*
X152018952Y-142803523D01*
X151971333Y-142898761D01*
X151876095Y-142946380D01*
X151780857Y-142946380D01*
X150828476Y-142279714D02*
X150447523Y-142279714D01*
X150685619Y-142946380D02*
X150685619Y-142089238D01*
X150638000Y-141994000D01*
X150542761Y-141946380D01*
X150447523Y-141946380D01*
X149971333Y-142946380D02*
X150066571Y-142898761D01*
X150114190Y-142851142D01*
X150161809Y-142755904D01*
X150161809Y-142470190D01*
X150114190Y-142374952D01*
X150066571Y-142327333D01*
X149971333Y-142279714D01*
X149828476Y-142279714D01*
X149733238Y-142327333D01*
X149685619Y-142374952D01*
X149638000Y-142470190D01*
X149638000Y-142755904D01*
X149685619Y-142851142D01*
X149733238Y-142898761D01*
X149828476Y-142946380D01*
X149971333Y-142946380D01*
X149209428Y-142946380D02*
X149209428Y-142279714D01*
X149209428Y-142470190D02*
X149161809Y-142374952D01*
X149114190Y-142327333D01*
X149018952Y-142279714D01*
X148923714Y-142279714D01*
X147828476Y-142279714D02*
X147828476Y-143279714D01*
X147828476Y-142327333D02*
X147733238Y-142279714D01*
X147542761Y-142279714D01*
X147447523Y-142327333D01*
X147399904Y-142374952D01*
X147352285Y-142470190D01*
X147352285Y-142755904D01*
X147399904Y-142851142D01*
X147447523Y-142898761D01*
X147542761Y-142946380D01*
X147733238Y-142946380D01*
X147828476Y-142898761D01*
X146923714Y-142946380D02*
X146923714Y-142279714D01*
X146923714Y-142470190D02*
X146876095Y-142374952D01*
X146828476Y-142327333D01*
X146733238Y-142279714D01*
X146638000Y-142279714D01*
X146161809Y-142946380D02*
X146257047Y-142898761D01*
X146304666Y-142851142D01*
X146352285Y-142755904D01*
X146352285Y-142470190D01*
X146304666Y-142374952D01*
X146257047Y-142327333D01*
X146161809Y-142279714D01*
X146018952Y-142279714D01*
X145923714Y-142327333D01*
X145876095Y-142374952D01*
X145828476Y-142470190D01*
X145828476Y-142755904D01*
X145876095Y-142851142D01*
X145923714Y-142898761D01*
X146018952Y-142946380D01*
X146161809Y-142946380D01*
X144971333Y-142279714D02*
X144971333Y-143089238D01*
X145018952Y-143184476D01*
X145066571Y-143232095D01*
X145161809Y-143279714D01*
X145304666Y-143279714D01*
X145399904Y-143232095D01*
X144971333Y-142898761D02*
X145066571Y-142946380D01*
X145257047Y-142946380D01*
X145352285Y-142898761D01*
X145399904Y-142851142D01*
X145447523Y-142755904D01*
X145447523Y-142470190D01*
X145399904Y-142374952D01*
X145352285Y-142327333D01*
X145257047Y-142279714D01*
X145066571Y-142279714D01*
X144971333Y-142327333D01*
X144495142Y-142946380D02*
X144495142Y-142279714D01*
X144495142Y-142470190D02*
X144447523Y-142374952D01*
X144399904Y-142327333D01*
X144304666Y-142279714D01*
X144209428Y-142279714D01*
X143447523Y-142946380D02*
X143447523Y-142422571D01*
X143495142Y-142327333D01*
X143590380Y-142279714D01*
X143780857Y-142279714D01*
X143876095Y-142327333D01*
X143447523Y-142898761D02*
X143542761Y-142946380D01*
X143780857Y-142946380D01*
X143876095Y-142898761D01*
X143923714Y-142803523D01*
X143923714Y-142708285D01*
X143876095Y-142613047D01*
X143780857Y-142565428D01*
X143542761Y-142565428D01*
X143447523Y-142517809D01*
X142971333Y-142946380D02*
X142971333Y-142279714D01*
X142971333Y-142374952D02*
X142923714Y-142327333D01*
X142828476Y-142279714D01*
X142685619Y-142279714D01*
X142590380Y-142327333D01*
X142542761Y-142422571D01*
X142542761Y-142946380D01*
X142542761Y-142422571D02*
X142495142Y-142327333D01*
X142399904Y-142279714D01*
X142257047Y-142279714D01*
X142161809Y-142327333D01*
X142114190Y-142422571D01*
X142114190Y-142946380D01*
X141638000Y-142946380D02*
X141638000Y-142279714D01*
X141638000Y-142374952D02*
X141590380Y-142327333D01*
X141495142Y-142279714D01*
X141352285Y-142279714D01*
X141257047Y-142327333D01*
X141209428Y-142422571D01*
X141209428Y-142946380D01*
X141209428Y-142422571D02*
X141161809Y-142327333D01*
X141066571Y-142279714D01*
X140923714Y-142279714D01*
X140828476Y-142327333D01*
X140780857Y-142422571D01*
X140780857Y-142946380D01*
X140304666Y-142946380D02*
X140304666Y-142279714D01*
X140304666Y-141946380D02*
X140352285Y-141994000D01*
X140304666Y-142041619D01*
X140257047Y-141994000D01*
X140304666Y-141946380D01*
X140304666Y-142041619D01*
X139828476Y-142279714D02*
X139828476Y-142946380D01*
X139828476Y-142374952D02*
X139780857Y-142327333D01*
X139685619Y-142279714D01*
X139542761Y-142279714D01*
X139447523Y-142327333D01*
X139399904Y-142422571D01*
X139399904Y-142946380D01*
X138495142Y-142279714D02*
X138495142Y-143089238D01*
X138542761Y-143184476D01*
X138590380Y-143232095D01*
X138685619Y-143279714D01*
X138828476Y-143279714D01*
X138923714Y-143232095D01*
X138495142Y-142898761D02*
X138590380Y-142946380D01*
X138780857Y-142946380D01*
X138876095Y-142898761D01*
X138923714Y-142851142D01*
X138971333Y-142755904D01*
X138971333Y-142470190D01*
X138923714Y-142374952D01*
X138876095Y-142327333D01*
X138780857Y-142279714D01*
X138590380Y-142279714D01*
X138495142Y-142327333D01*
X93519523Y-99230380D02*
X93519523Y-99944666D01*
X93567142Y-100087523D01*
X93662380Y-100182761D01*
X93805238Y-100230380D01*
X93900476Y-100230380D01*
X92519523Y-100230380D02*
X93090952Y-100230380D01*
X92805238Y-100230380D02*
X92805238Y-99230380D01*
X92900476Y-99373238D01*
X92995714Y-99468476D01*
X93090952Y-99516095D01*
X91662380Y-99230380D02*
X91852857Y-99230380D01*
X91948095Y-99278000D01*
X91995714Y-99325619D01*
X92090952Y-99468476D01*
X92138571Y-99658952D01*
X92138571Y-100039904D01*
X92090952Y-100135142D01*
X92043333Y-100182761D01*
X91948095Y-100230380D01*
X91757619Y-100230380D01*
X91662380Y-100182761D01*
X91614761Y-100135142D01*
X91567142Y-100039904D01*
X91567142Y-99801809D01*
X91614761Y-99706571D01*
X91662380Y-99658952D01*
X91757619Y-99611333D01*
X91948095Y-99611333D01*
X92043333Y-99658952D01*
X92090952Y-99706571D01*
X92138571Y-99801809D01*
D11*
X103234000Y-100778000D02*
X97774000Y-100778000D01*
X90314000Y-100778000D02*
X90314000Y-131378000D01*
X105724000Y-131438000D02*
X105724000Y-100718000D01*
X103234000Y-131378000D02*
X103234000Y-100778000D01*
X90314000Y-131378000D02*
X103234000Y-131378000D01*
X87824000Y-100718000D02*
X87824000Y-131438000D01*
X95774000Y-100778000D02*
X90314000Y-100778000D01*
X87824000Y-131438000D02*
X105724000Y-131438000D01*
X105724000Y-100718000D02*
X87824000Y-100718000D01*
X95774000Y-100778000D02*
G75*
G03*
X97774000Y-100778000I1000000J0D01*
G01*
G36*
X143902776Y-161430216D02*
G01*
X143915313Y-161441474D01*
X143938164Y-161463163D01*
X143970015Y-161493999D01*
X144009555Y-161532702D01*
X144055469Y-161577987D01*
X144106446Y-161628573D01*
X144161171Y-161683178D01*
X144415347Y-161937463D01*
X144392636Y-161989176D01*
X144388254Y-161998989D01*
X144371644Y-162034696D01*
X144351639Y-162076217D01*
X144331645Y-162116444D01*
X144293363Y-162192000D01*
X144347527Y-162259647D01*
X144361637Y-162277248D01*
X144385334Y-162306712D01*
X144404567Y-162330508D01*
X144416150Y-162344686D01*
X144419064Y-162348231D01*
X144432774Y-162365094D01*
X144454804Y-162392306D01*
X144483364Y-162427653D01*
X144516665Y-162468922D01*
X144552918Y-162513898D01*
X144675226Y-162665717D01*
X144395656Y-162945386D01*
X144373962Y-162967053D01*
X144309782Y-163030697D01*
X144252974Y-163086320D01*
X144204322Y-163133179D01*
X144164612Y-163170534D01*
X144134628Y-163197643D01*
X144115153Y-163213764D01*
X144106974Y-163218157D01*
X144105461Y-163216981D01*
X144092471Y-163206657D01*
X144068755Y-163187690D01*
X144036452Y-163161793D01*
X143997697Y-163130679D01*
X143954630Y-163096060D01*
X143945407Y-163088643D01*
X143900576Y-163052607D01*
X143858683Y-163018961D01*
X143822375Y-162989827D01*
X143794299Y-162967331D01*
X143777102Y-162953595D01*
X143768196Y-162946459D01*
X143739448Y-162922902D01*
X143714166Y-162901558D01*
X143685525Y-162876787D01*
X143685525Y-161967644D01*
X143723810Y-161908462D01*
X143765745Y-161837138D01*
X143819769Y-161719660D01*
X143861410Y-161593415D01*
X143889542Y-161461446D01*
X143890586Y-161455466D01*
X143895665Y-161436527D01*
X143900823Y-161428893D01*
X143902776Y-161430216D01*
G37*
G36*
X144395469Y-160606388D02*
G01*
X144399685Y-160616637D01*
X144410326Y-160644942D01*
X144423682Y-160682284D01*
X144438105Y-160723887D01*
X144451951Y-160764974D01*
X144463572Y-160800768D01*
X144471323Y-160826493D01*
X144472864Y-160828264D01*
X144487565Y-160833417D01*
X144514711Y-160838244D01*
X144550680Y-160842034D01*
X144574723Y-160844060D01*
X144623688Y-160848754D01*
X144677162Y-160854408D01*
X144727220Y-160860207D01*
X144753071Y-160863313D01*
X144810982Y-160869977D01*
X144870631Y-160876532D01*
X144922538Y-160881925D01*
X144953046Y-160885027D01*
X144994086Y-160889415D01*
X145028349Y-160893318D01*
X145050580Y-160896152D01*
X145083133Y-160900891D01*
X145083133Y-161687791D01*
X145050580Y-161692529D01*
X145036184Y-161694419D01*
X145004835Y-161698088D01*
X144965203Y-161702417D01*
X144922538Y-161706820D01*
X144894284Y-161709678D01*
X144859136Y-161713340D01*
X144821221Y-161717427D01*
X144777643Y-161722261D01*
X144725508Y-161728164D01*
X144661921Y-161735458D01*
X144583987Y-161744464D01*
X144562226Y-161746805D01*
X144540627Y-161748782D01*
X144537841Y-161747666D01*
X144523515Y-161736807D01*
X144499126Y-161715534D01*
X144466086Y-161685246D01*
X144425804Y-161647343D01*
X144379693Y-161603225D01*
X144329162Y-161554292D01*
X144275623Y-161501943D01*
X144220487Y-161447578D01*
X144165164Y-161392597D01*
X144111066Y-161338400D01*
X144059604Y-161286385D01*
X144012187Y-161237954D01*
X143970228Y-161194505D01*
X143935138Y-161157439D01*
X143908326Y-161128154D01*
X143891204Y-161108052D01*
X143885184Y-161098532D01*
X143885156Y-161097311D01*
X143882100Y-161077073D01*
X143874820Y-161045119D01*
X143864496Y-161005759D01*
X143852308Y-160963303D01*
X143839437Y-160922061D01*
X143827064Y-160886343D01*
X143819745Y-160867436D01*
X143785139Y-160790439D01*
X143743642Y-160712943D01*
X143699892Y-160643796D01*
X143698157Y-160641311D01*
X143679437Y-160614321D01*
X143664507Y-160592492D01*
X143656462Y-160580346D01*
X143656629Y-160578546D01*
X143662883Y-160576110D01*
X143677584Y-160574123D01*
X143702004Y-160572548D01*
X143737418Y-160571346D01*
X143785099Y-160570478D01*
X143846320Y-160569906D01*
X143922355Y-160569591D01*
X144014477Y-160569495D01*
X144379176Y-160569495D01*
X144395469Y-160606388D01*
G37*
G36*
X143141848Y-158987420D02*
G01*
X143143735Y-159001815D01*
X143147397Y-159033163D01*
X143151713Y-159072796D01*
X143156100Y-159115462D01*
X143159075Y-159144705D01*
X143165082Y-159201621D01*
X143171604Y-159261411D01*
X143177673Y-159315120D01*
X143182132Y-159353732D01*
X143187246Y-159398232D01*
X143191603Y-159436377D01*
X143194581Y-159462722D01*
X143199431Y-159506154D01*
X142876056Y-159828359D01*
X142552682Y-160150563D01*
X142487576Y-160165648D01*
X142467007Y-160170608D01*
X142334294Y-160212275D01*
X142208690Y-160268675D01*
X142092600Y-160338755D01*
X142073730Y-160351776D01*
X142047208Y-160369881D01*
X142028565Y-160382347D01*
X142020983Y-160387030D01*
X142020736Y-160384690D01*
X142020290Y-160367930D01*
X142019883Y-160336546D01*
X142019527Y-160292329D01*
X142019230Y-160237074D01*
X142019006Y-160172574D01*
X142018863Y-160100622D01*
X142018813Y-160023011D01*
X142018813Y-159658824D01*
X142055706Y-159642531D01*
X142065956Y-159638315D01*
X142094261Y-159627674D01*
X142131603Y-159614318D01*
X142173206Y-159599895D01*
X142214292Y-159586049D01*
X142250087Y-159574428D01*
X142275812Y-159566677D01*
X142277582Y-159565136D01*
X142282736Y-159550435D01*
X142287562Y-159523289D01*
X142291352Y-159487320D01*
X142293378Y-159463277D01*
X142298072Y-159414312D01*
X142303727Y-159360838D01*
X142309525Y-159310780D01*
X142312631Y-159284929D01*
X142319295Y-159227018D01*
X142325851Y-159167369D01*
X142331243Y-159115462D01*
X142334346Y-159084954D01*
X142338734Y-159043914D01*
X142342636Y-159009651D01*
X142345471Y-158987420D01*
X142350209Y-158954867D01*
X143137109Y-158954867D01*
X143141848Y-158987420D01*
G37*
G36*
X141524102Y-159485230D02*
G01*
X141541267Y-159499073D01*
X141586919Y-159535870D01*
X141629166Y-159569896D01*
X141665483Y-159599119D01*
X141693342Y-159621504D01*
X141710217Y-159635018D01*
X141719154Y-159642197D01*
X141747888Y-159665779D01*
X141773153Y-159687123D01*
X141801793Y-159711895D01*
X141801793Y-160621038D01*
X141764012Y-160679904D01*
X141724476Y-160745571D01*
X141690901Y-160812207D01*
X141660471Y-160886343D01*
X141649580Y-160917113D01*
X141635619Y-160961092D01*
X141622725Y-161006170D01*
X141612066Y-161047975D01*
X141604813Y-161082138D01*
X141602135Y-161104288D01*
X141601242Y-161117365D01*
X141596866Y-161137376D01*
X141593482Y-161144224D01*
X141585959Y-161151108D01*
X141584326Y-161150003D01*
X141572348Y-161139202D01*
X141550007Y-161117931D01*
X141518619Y-161087478D01*
X141479504Y-161049133D01*
X141433977Y-161004185D01*
X141383357Y-160953923D01*
X141328962Y-160899637D01*
X141077603Y-160648166D01*
X141089190Y-160615341D01*
X141096259Y-160597804D01*
X141109983Y-160567103D01*
X141127689Y-160529476D01*
X141147272Y-160489481D01*
X141193766Y-160396447D01*
X141139697Y-160328917D01*
X141125678Y-160311426D01*
X141102004Y-160281974D01*
X141082795Y-160258179D01*
X141071237Y-160243995D01*
X141062944Y-160233821D01*
X141045405Y-160212128D01*
X141021143Y-160182029D01*
X140992115Y-160145962D01*
X140960277Y-160106363D01*
X140927587Y-160065668D01*
X140896001Y-160026313D01*
X140867477Y-159990735D01*
X140843971Y-159961371D01*
X140827441Y-159940655D01*
X140819843Y-159931026D01*
X140819919Y-159929709D01*
X140828099Y-159917875D01*
X140847774Y-159894993D01*
X140878202Y-159861850D01*
X140918641Y-159819228D01*
X140968350Y-159767914D01*
X141026588Y-159708691D01*
X141092614Y-159642344D01*
X141372283Y-159362774D01*
X141524102Y-159485230D01*
G37*
G36*
X142122115Y-162269601D02*
G01*
X142166967Y-162296905D01*
X142290822Y-162359530D01*
X142418007Y-162405751D01*
X142547321Y-162435102D01*
X142574489Y-162439860D01*
X142596713Y-162444624D01*
X142606731Y-162447957D01*
X142605598Y-162449976D01*
X142594703Y-162462503D01*
X142573370Y-162485304D01*
X142542854Y-162517090D01*
X142504405Y-162556568D01*
X142459278Y-162602451D01*
X142408723Y-162653448D01*
X142353993Y-162708269D01*
X142097249Y-162964575D01*
X142047180Y-162942591D01*
X142037399Y-162938220D01*
X142002420Y-162921928D01*
X141961486Y-162902184D01*
X141921556Y-162882326D01*
X141846000Y-162844045D01*
X141778353Y-162898208D01*
X141760752Y-162912318D01*
X141731288Y-162936016D01*
X141707492Y-162955249D01*
X141693314Y-162966832D01*
X141689769Y-162969745D01*
X141672906Y-162983456D01*
X141645694Y-163005486D01*
X141610347Y-163034046D01*
X141569078Y-163067347D01*
X141524102Y-163103599D01*
X141372283Y-163225908D01*
X141092614Y-162946337D01*
X141070947Y-162924643D01*
X141007303Y-162860463D01*
X140951680Y-162803655D01*
X140904821Y-162755004D01*
X140867466Y-162715294D01*
X140840357Y-162685309D01*
X140824236Y-162665835D01*
X140819843Y-162657656D01*
X140825254Y-162650794D01*
X140840117Y-162632160D01*
X140862304Y-162604434D01*
X140889879Y-162570025D01*
X140920907Y-162531344D01*
X140953453Y-162490801D01*
X140985582Y-162450806D01*
X141015360Y-162413769D01*
X141040852Y-162382100D01*
X141060123Y-162358210D01*
X141071237Y-162344508D01*
X141083833Y-162328910D01*
X141103039Y-162304886D01*
X141124691Y-162277643D01*
X141163755Y-162228347D01*
X141609949Y-162227937D01*
X142056142Y-162227526D01*
X142122115Y-162269601D01*
G37*
G36*
X143328080Y-161244859D02*
G01*
X143328399Y-161353477D01*
X143315785Y-161457408D01*
X143290796Y-161555020D01*
X143253991Y-161644683D01*
X143205929Y-161724762D01*
X143147169Y-161793628D01*
X143078268Y-161849647D01*
X143071495Y-161854074D01*
X143002598Y-161892187D01*
X142929017Y-161922088D01*
X142858052Y-161940755D01*
X142836559Y-161943331D01*
X142799299Y-161945520D01*
X142754899Y-161946519D01*
X142708936Y-161946126D01*
X142689075Y-161945533D01*
X142642504Y-161942992D01*
X142605324Y-161938480D01*
X142571664Y-161931109D01*
X142535651Y-161919994D01*
X142531035Y-161918405D01*
X142443265Y-161878702D01*
X142363979Y-161824289D01*
X142294504Y-161756246D01*
X142236164Y-161675656D01*
X142206112Y-161625979D01*
X142243791Y-161592542D01*
X142268981Y-161572277D01*
X142291626Y-161561219D01*
X142310147Y-161563128D01*
X142327806Y-161577417D01*
X142346582Y-161596027D01*
X142382548Y-161626290D01*
X142424253Y-161657265D01*
X142465971Y-161684771D01*
X142501977Y-161704626D01*
X142510758Y-161708676D01*
X142532668Y-161717626D01*
X142553726Y-161723375D01*
X142578486Y-161726620D01*
X142611498Y-161728056D01*
X142657315Y-161728380D01*
X142699034Y-161728233D01*
X142731698Y-161727181D01*
X142756174Y-161724312D01*
X142777222Y-161718715D01*
X142799604Y-161709478D01*
X142828080Y-161695690D01*
X142864383Y-161675049D01*
X142924803Y-161626123D01*
X142974083Y-161565660D01*
X143010999Y-161495712D01*
X143034327Y-161418333D01*
X143042842Y-161335575D01*
X143043147Y-161298681D01*
X142244914Y-161298681D01*
X142230645Y-161276905D01*
X142225364Y-161265497D01*
X142218124Y-161234590D01*
X142213367Y-161193038D01*
X142211225Y-161144999D01*
X142211834Y-161094630D01*
X142215327Y-161046089D01*
X142218518Y-161025236D01*
X142475443Y-161025236D01*
X142476771Y-161054768D01*
X142486602Y-161092702D01*
X142506810Y-161118391D01*
X142538383Y-161133536D01*
X142552613Y-161135656D01*
X142583057Y-161137846D01*
X142626191Y-161139695D01*
X142679517Y-161141122D01*
X142740539Y-161142044D01*
X142806760Y-161142378D01*
X143043477Y-161142427D01*
X143039038Y-161122895D01*
X143037227Y-161114802D01*
X143031720Y-161089636D01*
X143025389Y-161060233D01*
X143017859Y-161030827D01*
X142989522Y-160960999D01*
X142949287Y-160898330D01*
X142899433Y-160845970D01*
X142842236Y-160807067D01*
X142824922Y-160799245D01*
X142773614Y-160785451D01*
X142718236Y-160781305D01*
X142664870Y-160786932D01*
X142619598Y-160802458D01*
X142599218Y-160814184D01*
X142547868Y-160855575D01*
X142509079Y-160906158D01*
X142484417Y-160963517D01*
X142475443Y-161025236D01*
X142218518Y-161025236D01*
X142221838Y-161003534D01*
X142231140Y-160966304D01*
X142263034Y-160883253D01*
X142307696Y-160808467D01*
X142363535Y-160744327D01*
X142428964Y-160693214D01*
X142431833Y-160691419D01*
X142491995Y-160658449D01*
X142551820Y-160635862D01*
X142616920Y-160622002D01*
X142692906Y-160615209D01*
X142732920Y-160613736D01*
X142769102Y-160613961D01*
X142799721Y-160616919D01*
X142831112Y-160623276D01*
X142869607Y-160633691D01*
X142899918Y-160643108D01*
X142987009Y-160679972D01*
X143065373Y-160729793D01*
X143138635Y-160794742D01*
X143157297Y-160814349D01*
X143217085Y-160888627D01*
X143262521Y-160967170D01*
X143295370Y-161053491D01*
X143315436Y-161142427D01*
X143317395Y-161151108D01*
X143328080Y-161244859D01*
G37*
G36*
X144674063Y-159921602D02*
G01*
X144655626Y-159947494D01*
X144654815Y-159948627D01*
X144639473Y-159969078D01*
X144617856Y-159996827D01*
X144594373Y-160026208D01*
X144589147Y-160032662D01*
X144565298Y-160062214D01*
X144534936Y-160099937D01*
X144501419Y-160141657D01*
X144468105Y-160183199D01*
X144453172Y-160201803D01*
X144424617Y-160237155D01*
X144400276Y-160267006D01*
X144382351Y-160288665D01*
X144373043Y-160299438D01*
X144362403Y-160312040D01*
X144348010Y-160331991D01*
X144334588Y-160352475D01*
X143413877Y-160352475D01*
X143369575Y-160323083D01*
X143324961Y-160295761D01*
X143268849Y-160265198D01*
X143211103Y-160236823D01*
X143159360Y-160214578D01*
X143139235Y-160207316D01*
X143095298Y-160193387D01*
X143044721Y-160179030D01*
X142993266Y-160165772D01*
X142946693Y-160155141D01*
X142910765Y-160148664D01*
X142897017Y-160146453D01*
X142877284Y-160141601D01*
X142869531Y-160137038D01*
X142870975Y-160134953D01*
X142882467Y-160122216D01*
X142904368Y-160099185D01*
X142935397Y-160067168D01*
X142974277Y-160027474D01*
X143019729Y-159981411D01*
X143070475Y-159930287D01*
X143125235Y-159875411D01*
X143380938Y-159619817D01*
X143448594Y-159648898D01*
X143449006Y-159649075D01*
X143491376Y-159668224D01*
X143537437Y-159690444D01*
X143577290Y-159710960D01*
X143638330Y-159743942D01*
X143677119Y-159713454D01*
X143692750Y-159701099D01*
X143716623Y-159681992D01*
X143733340Y-159668318D01*
X143736391Y-159665766D01*
X143759611Y-159646657D01*
X143792926Y-159619561D01*
X143833397Y-159586837D01*
X143878085Y-159550845D01*
X143924053Y-159513943D01*
X143968363Y-159478493D01*
X144008076Y-159446852D01*
X144040255Y-159421380D01*
X144061961Y-159404436D01*
X144115225Y-159363540D01*
X144674063Y-159921602D01*
G37*
G36*
X143459454Y-162207310D02*
G01*
X143461890Y-162213565D01*
X143463877Y-162228265D01*
X143465452Y-162252686D01*
X143466654Y-162288100D01*
X143467522Y-162335781D01*
X143468094Y-162397002D01*
X143468409Y-162473036D01*
X143468505Y-162565158D01*
X143468505Y-162929858D01*
X143431612Y-162946151D01*
X143421363Y-162950367D01*
X143393058Y-162961008D01*
X143355716Y-162974363D01*
X143314113Y-162988787D01*
X143273026Y-163002632D01*
X143237232Y-163014254D01*
X143211507Y-163022004D01*
X143209736Y-163023545D01*
X143204583Y-163038247D01*
X143199756Y-163065393D01*
X143195966Y-163101362D01*
X143193940Y-163125404D01*
X143189246Y-163174369D01*
X143183592Y-163227843D01*
X143177793Y-163277902D01*
X143174687Y-163303753D01*
X143168023Y-163361664D01*
X143161468Y-163421312D01*
X143156075Y-163473220D01*
X143152973Y-163503727D01*
X143148585Y-163544768D01*
X143144682Y-163579030D01*
X143141848Y-163601261D01*
X143137109Y-163633814D01*
X142350209Y-163633814D01*
X142345471Y-163601261D01*
X142343583Y-163586867D01*
X142339922Y-163555518D01*
X142335606Y-163515885D01*
X142331218Y-163473220D01*
X142328244Y-163443977D01*
X142322236Y-163387060D01*
X142315715Y-163327271D01*
X142309646Y-163273562D01*
X142305228Y-163235338D01*
X142299982Y-163189812D01*
X142295435Y-163150214D01*
X142292239Y-163122204D01*
X142286892Y-163075016D01*
X142606380Y-162755441D01*
X142629120Y-162732728D01*
X142689745Y-162672520D01*
X142746523Y-162616618D01*
X142798260Y-162566168D01*
X142843760Y-162522318D01*
X142881826Y-162486216D01*
X142911264Y-162459008D01*
X142930876Y-162441842D01*
X142939468Y-162435865D01*
X142940689Y-162435837D01*
X142960927Y-162432782D01*
X142992881Y-162425502D01*
X143032241Y-162415177D01*
X143074697Y-162402990D01*
X143115939Y-162390119D01*
X143151657Y-162377745D01*
X143170564Y-162370426D01*
X143247561Y-162335821D01*
X143325057Y-162294323D01*
X143394204Y-162250574D01*
X143396689Y-162248838D01*
X143423679Y-162230119D01*
X143445508Y-162215189D01*
X143457654Y-162207143D01*
X143459454Y-162207310D01*
G37*
G36*
X141286621Y-161152442D02*
G01*
X141298959Y-161164783D01*
X141379702Y-161245950D01*
X141447882Y-161315258D01*
X141503550Y-161372761D01*
X141546758Y-161418513D01*
X141577557Y-161452569D01*
X141595999Y-161474983D01*
X141602135Y-161485809D01*
X141604097Y-161503149D01*
X141610663Y-161534955D01*
X141620726Y-161575114D01*
X141633121Y-161619289D01*
X141646686Y-161663143D01*
X141660255Y-161702338D01*
X141664980Y-161714711D01*
X141700134Y-161794100D01*
X141743095Y-161874605D01*
X141789258Y-161947471D01*
X141793526Y-161953602D01*
X141810968Y-161979212D01*
X141823214Y-161998113D01*
X141827836Y-162006582D01*
X141825613Y-162007016D01*
X141809060Y-162007825D01*
X141777863Y-162008563D01*
X141733817Y-162009211D01*
X141678722Y-162009748D01*
X141614375Y-162010156D01*
X141542573Y-162010415D01*
X141465116Y-162010506D01*
X141102397Y-162010506D01*
X141079844Y-161951911D01*
X141070083Y-161925666D01*
X141054946Y-161882770D01*
X141039457Y-161836966D01*
X141025764Y-161794643D01*
X141016017Y-161762188D01*
X141014464Y-161760413D01*
X140999741Y-161755262D01*
X140972589Y-161750436D01*
X140936638Y-161746648D01*
X140912596Y-161744622D01*
X140863631Y-161739928D01*
X140810157Y-161734273D01*
X140760098Y-161728475D01*
X140734247Y-161725369D01*
X140676336Y-161718705D01*
X140616688Y-161712149D01*
X140564780Y-161706757D01*
X140534273Y-161703654D01*
X140493232Y-161699266D01*
X140458970Y-161695364D01*
X140436739Y-161692529D01*
X140404186Y-161687791D01*
X140404186Y-160900891D01*
X140436739Y-160896152D01*
X140451133Y-160894265D01*
X140482482Y-160890603D01*
X140522115Y-160886287D01*
X140564780Y-160881900D01*
X140594031Y-160878922D01*
X140650945Y-160872902D01*
X140710732Y-160866358D01*
X140764438Y-160860261D01*
X140802230Y-160855885D01*
X140848859Y-160850542D01*
X140890032Y-160845882D01*
X140919857Y-160842576D01*
X140971106Y-160837016D01*
X141286621Y-161152442D01*
G37*
%LPC*%
D12*
X93218000Y-155448000D03*
D13*
X93218000Y-157988000D03*
D12*
X103378000Y-155448000D03*
D13*
X103378000Y-157988000D03*
D14*
X172974000Y-163576000D03*
D15*
X128299000Y-136906000D03*
D13*
X125759000Y-136906000D03*
D16*
X184658000Y-97282000D03*
D12*
X89154000Y-102108000D03*
D13*
X89154000Y-104648000D03*
X89154000Y-107188000D03*
X89154000Y-109728000D03*
X89154000Y-112268000D03*
X89154000Y-114808000D03*
X89154000Y-117348000D03*
X89154000Y-119888000D03*
X89154000Y-122428000D03*
X89154000Y-124968000D03*
X89154000Y-127508000D03*
X89154000Y-130048000D03*
X104394000Y-130048000D03*
X104394000Y-127508000D03*
X104394000Y-124968000D03*
X104394000Y-122428000D03*
X104394000Y-119888000D03*
X104394000Y-117348000D03*
X104394000Y-114808000D03*
X104394000Y-112268000D03*
X104394000Y-109728000D03*
X104394000Y-107188000D03*
X104394000Y-104648000D03*
X104394000Y-102108000D03*
D15*
X87376000Y-152788000D03*
D13*
X87376000Y-145288000D03*
D14*
X171704000Y-147828000D03*
D17*
X171704000Y-145288000D03*
X174244000Y-147828000D03*
X174244000Y-145288000D03*
X176784000Y-147828000D03*
X176784000Y-145288000D03*
D12*
X95758000Y-155448000D03*
D13*
X95758000Y-157988000D03*
D12*
X108458000Y-145288000D03*
D13*
X105918000Y-145288000D03*
X103378000Y-145288000D03*
X100838000Y-145288000D03*
X98298000Y-145288000D03*
X95758000Y-145288000D03*
X93218000Y-145288000D03*
X90678000Y-145288000D03*
X90678000Y-152908000D03*
X93218000Y-152908000D03*
X95758000Y-152908000D03*
X98298000Y-152908000D03*
X100838000Y-152908000D03*
X103378000Y-152908000D03*
X105918000Y-152908000D03*
X108458000Y-152908000D03*
D12*
X115062000Y-155448000D03*
D13*
X115062000Y-157988000D03*
D18*
X105664000Y-98806000D03*
D19*
X103124000Y-98806000D03*
D12*
X160175686Y-116840000D03*
D13*
X157635686Y-116840000D03*
D12*
X87376000Y-155448000D03*
D13*
X87376000Y-157988000D03*
D15*
X182851000Y-148590000D03*
D13*
X185391000Y-148590000D03*
D12*
X127762000Y-155448000D03*
D13*
X127762000Y-157988000D03*
D12*
X100838000Y-155448000D03*
D13*
X100838000Y-157988000D03*
D18*
X160274000Y-98044000D03*
D19*
X162814000Y-98044000D03*
D12*
X120142000Y-155448000D03*
D13*
X120142000Y-157988000D03*
D14*
X155438000Y-157729000D03*
D17*
X155438000Y-160269000D03*
X152898000Y-157729000D03*
X152898000Y-160269000D03*
X150358000Y-157729000D03*
X150358000Y-160269000D03*
X147818000Y-157729000D03*
X147818000Y-160269000D03*
D15*
X150876000Y-98866000D03*
D13*
X150876000Y-106366000D03*
D15*
X182851000Y-143256000D03*
D13*
X185391000Y-143256000D03*
D12*
X130302000Y-155448000D03*
D13*
X130302000Y-157988000D03*
D12*
X112014000Y-102108000D03*
D13*
X112014000Y-104648000D03*
X112014000Y-107188000D03*
X112014000Y-109728000D03*
X112014000Y-112268000D03*
X112014000Y-114808000D03*
X112014000Y-117348000D03*
X112014000Y-119888000D03*
X112014000Y-122428000D03*
X112014000Y-124968000D03*
X112014000Y-127508000D03*
X112014000Y-130048000D03*
X127254000Y-130048000D03*
X127254000Y-127508000D03*
X127254000Y-124968000D03*
X127254000Y-122428000D03*
X127254000Y-119888000D03*
X127254000Y-117348000D03*
X127254000Y-114808000D03*
X127254000Y-112268000D03*
X127254000Y-109728000D03*
X127254000Y-107188000D03*
X127254000Y-104648000D03*
X127254000Y-102108000D03*
D12*
X139954000Y-102108000D03*
D13*
X139954000Y-104648000D03*
X139954000Y-107188000D03*
X139954000Y-109728000D03*
X139954000Y-112268000D03*
X139954000Y-114808000D03*
X139954000Y-117348000D03*
X139954000Y-119888000D03*
X139954000Y-122428000D03*
X139954000Y-124968000D03*
X139954000Y-127508000D03*
X139954000Y-130048000D03*
X139954000Y-132588000D03*
X139954000Y-135128000D03*
X147574000Y-135128000D03*
X147574000Y-132588000D03*
X147574000Y-130048000D03*
X147574000Y-127508000D03*
X147574000Y-124968000D03*
X147574000Y-122428000D03*
X147574000Y-119888000D03*
X147574000Y-117348000D03*
X147574000Y-114808000D03*
X147574000Y-112268000D03*
X147574000Y-109728000D03*
X147574000Y-107188000D03*
X147574000Y-104648000D03*
X147574000Y-102108000D03*
D14*
X98440000Y-137795000D03*
D17*
X100980000Y-137795000D03*
X103520000Y-137795000D03*
D14*
X157734000Y-105918000D03*
D16*
X88138000Y-97282000D03*
D14*
X94234000Y-102108000D03*
D17*
X96774000Y-102108000D03*
X94234000Y-104648000D03*
X96774000Y-104648000D03*
X94234000Y-107188000D03*
X96774000Y-107188000D03*
X94234000Y-109728000D03*
X96774000Y-109728000D03*
X94234000Y-112268000D03*
X96774000Y-112268000D03*
X94234000Y-114808000D03*
X96774000Y-114808000D03*
X94234000Y-117348000D03*
X96774000Y-117348000D03*
X94234000Y-119888000D03*
X96774000Y-119888000D03*
X94234000Y-122428000D03*
X96774000Y-122428000D03*
X94234000Y-124968000D03*
X96774000Y-124968000D03*
X94234000Y-127508000D03*
X96774000Y-127508000D03*
X94234000Y-130048000D03*
X96774000Y-130048000D03*
D15*
X158975000Y-155702000D03*
D13*
X161515000Y-155702000D03*
D20*
X162306000Y-148598000D03*
D21*
X164846000Y-146058000D03*
X167386000Y-148598000D03*
D12*
X105918000Y-155448000D03*
D13*
X105918000Y-157988000D03*
D12*
X98298000Y-155448000D03*
D13*
X98298000Y-157988000D03*
D14*
X133350000Y-103886000D03*
D16*
X88138000Y-165100000D03*
D15*
X139169000Y-152838000D03*
D13*
X139169000Y-145338000D03*
D14*
X178054000Y-163576000D03*
D12*
X180848000Y-137160000D03*
D13*
X180848000Y-134620000D03*
X180848000Y-132080000D03*
X180848000Y-129540000D03*
X180848000Y-127000000D03*
X180848000Y-124460000D03*
X180848000Y-121920000D03*
X180848000Y-119380000D03*
X180848000Y-116840000D03*
X180848000Y-114300000D03*
X180848000Y-111760000D03*
X180848000Y-109220000D03*
X180848000Y-106680000D03*
X180848000Y-104140000D03*
X180848000Y-101600000D03*
X165608000Y-101600000D03*
X165608000Y-104140000D03*
X165608000Y-106680000D03*
X165608000Y-109220000D03*
X165608000Y-111760000D03*
X165608000Y-114300000D03*
X165608000Y-116840000D03*
X165608000Y-119380000D03*
X165608000Y-121920000D03*
X165608000Y-124460000D03*
X165608000Y-127000000D03*
X165608000Y-129540000D03*
X165608000Y-132080000D03*
X165608000Y-134620000D03*
X165608000Y-137160000D03*
D15*
X159229000Y-160528000D03*
D13*
X161769000Y-160528000D03*
D14*
X96266000Y-98806000D03*
D15*
X162306000Y-133321000D03*
D13*
X162306000Y-135861000D03*
D14*
X133350000Y-98806000D03*
D12*
X157739000Y-145298000D03*
D13*
X155199000Y-145298000D03*
X152659000Y-145298000D03*
X150119000Y-145298000D03*
X147579000Y-145298000D03*
X145039000Y-145298000D03*
X142499000Y-145298000D03*
X142499000Y-152918000D03*
X145039000Y-152918000D03*
X147579000Y-152918000D03*
X150119000Y-152918000D03*
X152659000Y-152918000D03*
X155199000Y-152918000D03*
X157739000Y-152918000D03*
D12*
X132827000Y-145298000D03*
D13*
X130287000Y-145298000D03*
X127747000Y-145298000D03*
X125207000Y-145298000D03*
X122667000Y-145298000D03*
X120127000Y-145298000D03*
X117587000Y-145298000D03*
X115047000Y-145298000D03*
X115047000Y-152918000D03*
X117587000Y-152918000D03*
X120127000Y-152918000D03*
X122667000Y-152918000D03*
X125207000Y-152918000D03*
X127747000Y-152918000D03*
X130287000Y-152918000D03*
X132827000Y-152918000D03*
D12*
X165349000Y-160518000D03*
D13*
X167889000Y-160518000D03*
X170429000Y-160518000D03*
X172969000Y-160518000D03*
X175509000Y-160518000D03*
X178049000Y-160518000D03*
X180589000Y-160518000D03*
X180589000Y-152898000D03*
X178049000Y-152898000D03*
X175509000Y-152898000D03*
X172969000Y-152898000D03*
X170429000Y-152898000D03*
X167889000Y-152898000D03*
X165349000Y-152898000D03*
D12*
X132842000Y-155448000D03*
D13*
X132842000Y-157988000D03*
D12*
X117602000Y-155448000D03*
D13*
X117602000Y-157988000D03*
D15*
X183896000Y-153028000D03*
D13*
X183896000Y-160528000D03*
D12*
X90678000Y-155448000D03*
D13*
X90678000Y-157988000D03*
D15*
X111760000Y-152788000D03*
D13*
X111760000Y-145288000D03*
D16*
X184658000Y-165100000D03*
D15*
X155448000Y-132588000D03*
D13*
X152908000Y-132588000D03*
D15*
X138938000Y-155448000D03*
D13*
X138938000Y-157988000D03*
D14*
X175514000Y-163576000D03*
D12*
X122682000Y-155448000D03*
D13*
X122682000Y-157988000D03*
D15*
X93345000Y-140335000D03*
D13*
X93345000Y-137795000D03*
D14*
X95265000Y-164592000D03*
D17*
X97805000Y-164592000D03*
X100345000Y-164592000D03*
D12*
X125222000Y-155448000D03*
D13*
X125222000Y-157988000D03*
M02*
