M48
; DRILL file {KiCad (6.0.0)} date Sun Mar 13 18:30:10 2022
; FORMAT={-:-/ absolute / metric / decimal}
; #@! TF.CreationDate,2022-03-13T18:30:10-04:00
; #@! TF.GenerationSoftware,Kicad,Pcbnew,(6.0.0)
; #@! TF.FileFunction,Plated,1,2,PTH
FMAT,2
METRIC
; #@! TA.AperFunction,Plated,PTH,ViaDrill
T1C0.400
; #@! TA.AperFunction,Plated,PTH,ComponentDrill
T2C0.750
; #@! TA.AperFunction,Plated,PTH,ComponentDrill
T3C0.800
; #@! TA.AperFunction,Plated,PTH,ComponentDrill
T4C1.000
; #@! TA.AperFunction,Plated,PTH,ComponentDrill
T5C1.100
%
G90
G05
T1
X103.124Y-157.48
X118.745Y-153.035
X126.289Y-162.433
X126.492Y-159.512
X127.127Y-120.904
X130.043Y-167.391
X130.048Y-120.904
X131.572Y-141.732
X133.325Y-162.408
X137.668Y-143.764
X138.467Y-130.011
X138.975Y-132.551
X139.653Y-134.734
X140.462Y-114.046
X141.177Y-134.48
X141.351Y-110.871
X141.478Y-121.158
X141.685Y-130.416
X141.685Y-132.194
X141.986Y-126.492
X145.034Y-112.522
X145.161Y-110.363
X145.542Y-108.204
X145.796Y-130.048
X147.371Y-148.869
X147.828Y-117.52
X149.098Y-95.18
X156.563Y-92.809
X157.226Y-154.686
X157.48Y-93.98
X158.685Y-166.664
X159.258Y-111.506
X160.35Y-139.395
X161.595Y-154.762
X162.509Y-141.732
X166.885Y-156.101
X167.488Y-158.09
X168.935Y-139.395
T2
X174.752Y-126.09
X176.022Y-126.09
X177.292Y-126.09
T3
X101.346Y-146.618
X101.346Y-154.118
X104.663Y-146.548
X104.663Y-154.168
X107.203Y-141.566
X107.203Y-144.106
X107.203Y-146.548
X107.203Y-154.168
X109.743Y-141.566
X109.743Y-144.106
X109.743Y-146.548
X109.743Y-154.168
X112.283Y-141.566
X112.283Y-144.106
X112.283Y-146.548
X112.283Y-154.168
X114.823Y-141.566
X114.823Y-144.106
X114.823Y-146.548
X114.823Y-154.168
X117.363Y-146.548
X117.363Y-154.168
X117.55Y-108.567
X117.55Y-111.107
X117.55Y-113.647
X117.55Y-116.187
X117.55Y-118.727
X117.55Y-121.267
X117.55Y-123.807
X117.55Y-126.347
X117.55Y-128.887
X117.55Y-131.427
X117.55Y-133.967
X117.55Y-136.507
X119.883Y-157.47
X119.883Y-165.09
X119.903Y-141.566
X119.903Y-144.106
X119.903Y-146.548
X119.903Y-154.168
X120.344Y-108.567
X120.344Y-111.107
X120.344Y-113.647
X120.344Y-116.187
X120.344Y-118.727
X120.344Y-121.267
X120.344Y-123.807
X120.344Y-126.347
X120.344Y-128.887
X120.344Y-131.427
X120.344Y-133.967
X120.344Y-136.507
X122.423Y-157.47
X122.423Y-165.09
X122.443Y-141.566
X122.443Y-144.106
X122.443Y-146.548
X122.443Y-154.168
X124.963Y-157.47
X124.963Y-165.09
X124.983Y-141.566
X124.983Y-144.106
X125.984Y-101.063
X125.984Y-103.603
X127.503Y-157.47
X127.503Y-165.09
X130.043Y-157.47
X130.043Y-165.09
X132.583Y-157.47
X132.583Y-165.09
X132.79Y-108.567
X132.79Y-111.107
X132.79Y-113.647
X132.79Y-116.187
X132.79Y-118.727
X132.79Y-121.267
X132.79Y-123.807
X132.79Y-126.347
X132.79Y-128.887
X132.79Y-131.427
X132.79Y-133.967
X132.79Y-136.507
X135.123Y-157.47
X135.123Y-165.09
X135.584Y-108.567
X135.584Y-111.107
X135.584Y-113.647
X135.584Y-116.187
X135.584Y-118.727
X135.584Y-121.267
X135.584Y-123.807
X135.584Y-126.347
X135.584Y-128.887
X135.584Y-131.427
X135.584Y-133.967
X135.584Y-136.507
X138.684Y-103.153
X138.684Y-105.693
X139.7Y-157.286
X139.7Y-164.786
X141.598Y-96.774
X142.24Y-139.192
X142.24Y-141.732
X143.209Y-100.19
X143.209Y-102.73
X143.209Y-105.27
X143.209Y-107.81
X143.209Y-110.35
X143.209Y-112.89
X143.209Y-115.43
X143.209Y-117.97
X143.209Y-120.51
X143.209Y-123.05
X143.209Y-125.59
X143.209Y-128.13
X143.209Y-130.67
X143.209Y-133.21
X144.775Y-145.532
X144.775Y-153.152
X144.78Y-157.226
X144.78Y-164.846
X147.315Y-145.532
X147.315Y-153.152
X147.32Y-157.226
X147.32Y-164.846
X149.098Y-96.774
X149.855Y-145.532
X149.855Y-153.152
X149.86Y-157.226
X149.86Y-164.846
X150.829Y-100.19
X150.829Y-102.73
X150.829Y-105.27
X150.829Y-107.81
X150.829Y-110.35
X150.829Y-112.89
X150.829Y-115.43
X150.829Y-117.97
X150.829Y-120.51
X150.829Y-123.05
X150.829Y-125.59
X150.829Y-128.13
X150.829Y-130.67
X150.829Y-133.21
X152.395Y-145.532
X152.395Y-153.152
X152.4Y-157.226
X152.4Y-164.846
X154.935Y-145.532
X154.935Y-153.152
X154.94Y-157.226
X154.94Y-164.846
X157.475Y-145.532
X157.475Y-153.152
X157.48Y-157.226
X157.48Y-164.846
X160.015Y-145.532
X160.015Y-153.152
X160.02Y-157.226
X160.02Y-164.846
X164.338Y-145.602
X164.338Y-153.102
X164.592Y-157.286
X164.592Y-164.786
X173.99Y-105.185
X173.99Y-107.725
X174.273Y-131.318
X176.813Y-131.318
T4
X108.665Y-108.572
X108.665Y-111.112
X108.665Y-113.652
X108.665Y-116.192
X108.665Y-118.732
X108.665Y-121.272
X108.665Y-123.812
X108.665Y-126.352
X108.665Y-128.892
X108.665Y-131.432
X108.665Y-133.972
X108.665Y-136.512
X111.205Y-108.572
X111.205Y-111.112
X111.205Y-113.652
X111.205Y-116.192
X111.205Y-118.732
X111.205Y-121.272
X111.205Y-123.812
X111.205Y-126.352
X111.205Y-128.892
X111.205Y-131.432
X111.205Y-133.972
X111.205Y-136.512
X136.398Y-146.812
X136.398Y-149.352
X136.398Y-151.892
X138.938Y-146.812
X138.938Y-149.352
X138.938Y-151.892
X155.438Y-96.266
X155.438Y-98.806
X155.438Y-101.346
X155.438Y-103.886
X155.438Y-106.426
X155.438Y-108.966
X155.438Y-111.506
X155.438Y-114.046
X155.438Y-116.586
X155.438Y-119.126
X155.438Y-121.666
X155.438Y-124.206
X155.438Y-126.746
X155.438Y-129.286
X155.438Y-131.826
X170.678Y-96.266
X170.678Y-98.806
X170.678Y-101.346
X170.678Y-103.886
X170.678Y-106.426
X170.678Y-108.966
X170.678Y-111.506
X170.678Y-114.046
X170.678Y-116.586
X170.678Y-119.126
X170.678Y-121.666
X170.678Y-124.206
X170.678Y-126.746
X170.678Y-129.286
X170.678Y-131.826
X175.006Y-112.268
X175.006Y-114.808
X175.006Y-117.348
X175.006Y-119.888
X177.546Y-112.268
X177.546Y-114.808
X177.546Y-117.348
X177.546Y-119.888
T5
X130.556Y-100.782
X130.556Y-103.322
X135.636Y-98.354
X135.636Y-100.894
T0
M30
