M48
; DRILL file {KiCad (6.0.0)} date Thu Aug 18 21:42:41 2022
; FORMAT={-:-/ absolute / metric / decimal}
; #@! TF.CreationDate,2022-08-18T21:42:41-04:00
; #@! TF.GenerationSoftware,Kicad,Pcbnew,(6.0.0)
; #@! TF.FileFunction,Plated,1,2,PTH
FMAT,2
METRIC
; #@! TA.AperFunction,Plated,PTH,ViaDrill
T1C0.400
; #@! TA.AperFunction,Plated,PTH,ComponentDrill
T2C0.800
; #@! TA.AperFunction,Plated,PTH,ComponentDrill
T3C1.000
; #@! TA.AperFunction,Plated,PTH,ComponentDrill
T4C1.100
%
G90
G05
T1
X90.678Y-150.876
X94.418Y-151.708
X96.812Y-150.076
X101.6Y-109.855
X102.235Y-147.32
X103.194Y-131.388
X108.204Y-118.618
X108.458Y-138.176
X108.712Y-113.538
X108.712Y-136.906
X118.618Y-117.602
X122.936Y-112.268
X124.206Y-141.224
X125.8Y-141.294
X127.0Y-141.224
X127.254Y-98.806
X128.962Y-100.908
X129.978Y-103.448
X130.15Y-122.072
X130.21Y-140.3
X130.429Y-124.587
X130.556Y-105.918
X130.619Y-119.748
X130.994Y-118.688
X131.064Y-107.188
X131.572Y-117.348
X131.756Y-108.528
X131.826Y-123.698
X132.01Y-118.688
X132.264Y-116.148
X132.334Y-109.728
X132.588Y-139.446
X132.772Y-111.068
X132.772Y-126.308
X132.842Y-114.808
X133.28Y-116.148
X133.534Y-113.608
X134.112Y-130.048
X134.239Y-141.351
X134.296Y-111.068
X135.128Y-127.508
X135.278Y-108.562
X135.636Y-125.73
X136.074Y-105.988
X136.105Y-122.898
X136.875Y-103.308
X136.978Y-120.629
X138.43Y-98.806
X149.606Y-122.428
X150.622Y-126.238
X151.13Y-150.876
X158.115Y-147.955
X162.052Y-150.622
X162.433Y-146.177
X164.149Y-151.449
X166.808Y-133.28
X167.607Y-145.509
X176.276Y-142.24
X176.53Y-127.0
X177.217Y-141.299
X178.016Y-140.5
X178.816Y-139.7
X179.648Y-138.868
X181.864Y-130.81
X182.048Y-128.34
T2
X87.376Y-145.288
X87.376Y-152.788
X87.376Y-155.448
X87.376Y-157.988
X89.154Y-102.108
X89.154Y-104.648
X89.154Y-107.188
X89.154Y-109.728
X89.154Y-112.268
X89.154Y-114.808
X89.154Y-117.348
X89.154Y-119.888
X89.154Y-122.428
X89.154Y-124.968
X89.154Y-127.508
X89.154Y-130.048
X90.678Y-145.288
X90.678Y-152.908
X90.678Y-155.448
X90.678Y-157.988
X93.218Y-145.288
X93.218Y-152.908
X93.218Y-155.448
X93.218Y-157.988
X93.345Y-137.795
X93.345Y-140.335
X95.758Y-145.288
X95.758Y-152.908
X95.758Y-155.448
X95.758Y-157.988
X98.298Y-145.288
X98.298Y-152.908
X98.298Y-155.448
X98.298Y-157.988
X100.838Y-145.288
X100.838Y-152.908
X100.838Y-155.448
X100.838Y-157.988
X103.378Y-145.288
X103.378Y-152.908
X103.378Y-155.448
X103.378Y-157.988
X104.394Y-102.108
X104.394Y-104.648
X104.394Y-107.188
X104.394Y-109.728
X104.394Y-112.268
X104.394Y-114.808
X104.394Y-117.348
X104.394Y-119.888
X104.394Y-122.428
X104.394Y-124.968
X104.394Y-127.508
X104.394Y-130.048
X105.918Y-145.288
X105.918Y-152.908
X105.918Y-155.448
X105.918Y-157.988
X108.458Y-145.288
X108.458Y-152.908
X111.76Y-145.288
X111.76Y-152.788
X112.014Y-102.108
X112.014Y-104.648
X112.014Y-107.188
X112.014Y-109.728
X112.014Y-112.268
X112.014Y-114.808
X112.014Y-117.348
X112.014Y-119.888
X112.014Y-122.428
X112.014Y-124.968
X112.014Y-127.508
X112.014Y-130.048
X115.047Y-145.298
X115.047Y-152.918
X115.062Y-155.448
X115.062Y-157.988
X117.587Y-145.298
X117.587Y-152.918
X117.602Y-155.448
X117.602Y-157.988
X120.127Y-145.298
X120.127Y-152.918
X120.142Y-155.448
X120.142Y-157.988
X122.667Y-145.298
X122.667Y-152.918
X122.682Y-155.448
X122.682Y-157.988
X125.207Y-145.298
X125.207Y-152.918
X125.222Y-155.448
X125.222Y-157.988
X125.759Y-136.906
X127.254Y-102.108
X127.254Y-104.648
X127.254Y-107.188
X127.254Y-109.728
X127.254Y-112.268
X127.254Y-114.808
X127.254Y-117.348
X127.254Y-119.888
X127.254Y-122.428
X127.254Y-124.968
X127.254Y-127.508
X127.254Y-130.048
X127.747Y-145.298
X127.747Y-152.918
X127.762Y-155.448
X127.762Y-157.988
X128.299Y-136.906
X130.287Y-145.298
X130.287Y-152.918
X130.302Y-155.448
X130.302Y-157.988
X132.827Y-145.298
X132.827Y-152.918
X132.842Y-155.448
X132.842Y-157.988
X138.938Y-155.448
X138.938Y-157.988
X139.169Y-145.338
X139.169Y-152.838
X139.954Y-102.108
X139.954Y-104.648
X139.954Y-107.188
X139.954Y-109.728
X139.954Y-112.268
X139.954Y-114.808
X139.954Y-117.348
X139.954Y-119.888
X139.954Y-122.428
X139.954Y-124.968
X139.954Y-127.508
X139.954Y-130.048
X139.954Y-132.588
X139.954Y-135.128
X142.499Y-145.298
X142.499Y-152.918
X145.039Y-145.298
X145.039Y-152.918
X147.574Y-102.108
X147.574Y-104.648
X147.574Y-107.188
X147.574Y-109.728
X147.574Y-112.268
X147.574Y-114.808
X147.574Y-117.348
X147.574Y-119.888
X147.574Y-122.428
X147.574Y-124.968
X147.574Y-127.508
X147.574Y-130.048
X147.574Y-132.588
X147.574Y-135.128
X147.579Y-145.298
X147.579Y-152.918
X150.119Y-145.298
X150.119Y-152.918
X150.876Y-98.866
X150.876Y-106.366
X152.659Y-145.298
X152.659Y-152.918
X152.908Y-132.588
X155.199Y-145.298
X155.199Y-152.918
X155.448Y-132.588
X157.636Y-116.84
X157.739Y-145.298
X157.739Y-152.918
X158.975Y-155.702
X159.229Y-160.528
X160.176Y-116.84
X161.515Y-155.702
X161.769Y-160.528
X162.306Y-133.321
X162.306Y-135.861
X162.306Y-148.598
X164.846Y-146.058
X165.349Y-152.898
X165.349Y-160.518
X167.386Y-148.598
X167.889Y-152.898
X167.889Y-160.518
X170.429Y-152.898
X170.429Y-160.518
X172.969Y-152.898
X172.969Y-160.518
X175.509Y-152.898
X175.509Y-160.518
X178.049Y-152.898
X178.049Y-160.518
X180.589Y-152.898
X180.589Y-160.518
X182.851Y-143.256
X182.851Y-148.59
X183.896Y-153.028
X183.896Y-160.528
X185.391Y-143.256
X185.391Y-148.59
T3
X94.234Y-102.108
X94.234Y-104.648
X94.234Y-107.188
X94.234Y-109.728
X94.234Y-112.268
X94.234Y-114.808
X94.234Y-117.348
X94.234Y-119.888
X94.234Y-122.428
X94.234Y-124.968
X94.234Y-127.508
X94.234Y-130.048
X95.265Y-164.592
X96.266Y-98.806
X96.774Y-102.108
X96.774Y-104.648
X96.774Y-107.188
X96.774Y-109.728
X96.774Y-112.268
X96.774Y-114.808
X96.774Y-117.348
X96.774Y-119.888
X96.774Y-122.428
X96.774Y-124.968
X96.774Y-127.508
X96.774Y-130.048
X97.805Y-164.592
X98.44Y-137.795
X100.345Y-164.592
X100.98Y-137.795
X103.52Y-137.795
X133.35Y-98.806
X133.35Y-103.886
X147.818Y-157.729
X147.818Y-160.269
X150.358Y-157.729
X150.358Y-160.269
X152.898Y-157.729
X152.898Y-160.269
X155.438Y-157.729
X155.438Y-160.269
X157.734Y-105.918
X165.608Y-101.6
X165.608Y-104.14
X165.608Y-106.68
X165.608Y-109.22
X165.608Y-111.76
X165.608Y-114.3
X165.608Y-116.84
X165.608Y-119.38
X165.608Y-121.92
X165.608Y-124.46
X165.608Y-127.0
X165.608Y-129.54
X165.608Y-132.08
X165.608Y-134.62
X165.608Y-137.16
X171.704Y-145.288
X171.704Y-147.828
X172.974Y-163.576
X174.244Y-145.288
X174.244Y-147.828
X175.514Y-163.576
X176.784Y-145.288
X176.784Y-147.828
X178.054Y-163.576
X180.848Y-101.6
X180.848Y-104.14
X180.848Y-106.68
X180.848Y-109.22
X180.848Y-111.76
X180.848Y-114.3
X180.848Y-116.84
X180.848Y-119.38
X180.848Y-121.92
X180.848Y-124.46
X180.848Y-127.0
X180.848Y-129.54
X180.848Y-132.08
X180.848Y-134.62
X180.848Y-137.16
T4
X103.124Y-98.806
X105.664Y-98.806
X160.274Y-98.044
X162.814Y-98.044
T0
M30
