G04 #@! TF.GenerationSoftware,KiCad,Pcbnew,(6.0.0)*
G04 #@! TF.CreationDate,2022-08-18T21:42:33-04:00*
G04 #@! TF.ProjectId,io_i2c,696f5f69-3263-42e6-9b69-6361645f7063,rev?*
G04 #@! TF.SameCoordinates,Original*
G04 #@! TF.FileFunction,AssemblyDrawing,Top*
%FSLAX46Y46*%
G04 Gerber Fmt 4.6, Leading zero omitted, Abs format (unit mm)*
G04 Created by KiCad (PCBNEW (6.0.0)) date 2022-08-18 21:42:33*
%MOMM*%
%LPD*%
G01*
G04 APERTURE LIST*
%ADD10C,0.150000*%
%ADD11C,0.114000*%
%ADD12C,0.100000*%
G04 APERTURE END LIST*
D10*
X90455009Y-158860857D02*
X90455009Y-159432285D01*
X90455009Y-159146571D02*
X89455009Y-159146571D01*
X89597867Y-159241809D01*
X89693105Y-159337047D01*
X89740724Y-159432285D01*
X90455009Y-158432285D02*
X89455009Y-158432285D01*
X90455009Y-157860857D01*
X89455009Y-157860857D01*
X89788343Y-156956095D02*
X90455009Y-156956095D01*
X89407390Y-157194190D02*
X90121676Y-157432285D01*
X90121676Y-156813238D01*
X90455009Y-155908476D02*
X90455009Y-156479904D01*
X90455009Y-156194190D02*
X89455009Y-156194190D01*
X89597867Y-156289428D01*
X89693105Y-156384666D01*
X89740724Y-156479904D01*
X89788343Y-155051333D02*
X90455009Y-155051333D01*
X89407390Y-155289428D02*
X90121676Y-155527523D01*
X90121676Y-154908476D01*
X89883581Y-154384666D02*
X89835962Y-154479904D01*
X89788343Y-154527523D01*
X89693105Y-154575142D01*
X89645486Y-154575142D01*
X89550248Y-154527523D01*
X89502629Y-154479904D01*
X89455009Y-154384666D01*
X89455009Y-154194190D01*
X89502629Y-154098952D01*
X89550248Y-154051333D01*
X89645486Y-154003714D01*
X89693105Y-154003714D01*
X89788343Y-154051333D01*
X89835962Y-154098952D01*
X89883581Y-154194190D01*
X89883581Y-154384666D01*
X89931200Y-154479904D01*
X89978819Y-154527523D01*
X90074057Y-154575142D01*
X90264533Y-154575142D01*
X90359771Y-154527523D01*
X90407390Y-154479904D01*
X90455009Y-154384666D01*
X90455009Y-154194190D01*
X90407390Y-154098952D01*
X90359771Y-154051333D01*
X90264533Y-154003714D01*
X90074057Y-154003714D01*
X89978819Y-154051333D01*
X89931200Y-154098952D01*
X89883581Y-154194190D01*
X95996751Y-157932285D02*
X94996751Y-157932285D01*
X94996751Y-157694190D01*
X95044371Y-157551333D01*
X95139609Y-157456095D01*
X95234847Y-157408476D01*
X95425323Y-157360857D01*
X95568180Y-157360857D01*
X95758656Y-157408476D01*
X95853894Y-157456095D01*
X95949132Y-157551333D01*
X95996751Y-157694190D01*
X95996751Y-157932285D01*
X95996751Y-156408476D02*
X95996751Y-156979904D01*
X95996751Y-156694190D02*
X94996751Y-156694190D01*
X95139609Y-156789428D01*
X95234847Y-156884666D01*
X95282466Y-156979904D01*
X95425323Y-155837047D02*
X95377704Y-155932285D01*
X95330085Y-155979904D01*
X95234847Y-156027523D01*
X95187228Y-156027523D01*
X95091990Y-155979904D01*
X95044371Y-155932285D01*
X94996751Y-155837047D01*
X94996751Y-155646571D01*
X95044371Y-155551333D01*
X95091990Y-155503714D01*
X95187228Y-155456095D01*
X95234847Y-155456095D01*
X95330085Y-155503714D01*
X95377704Y-155551333D01*
X95425323Y-155646571D01*
X95425323Y-155837047D01*
X95472942Y-155932285D01*
X95520561Y-155979904D01*
X95615799Y-156027523D01*
X95806275Y-156027523D01*
X95901513Y-155979904D01*
X95949132Y-155932285D01*
X95996751Y-155837047D01*
X95996751Y-155646571D01*
X95949132Y-155551333D01*
X95901513Y-155503714D01*
X95806275Y-155456095D01*
X95615799Y-155456095D01*
X95520561Y-155503714D01*
X95472942Y-155551333D01*
X95425323Y-155646571D01*
X93670380Y-153909904D02*
X92670380Y-153909904D01*
X93670380Y-153338476D02*
X93098952Y-153767047D01*
X92670380Y-153338476D02*
X93241809Y-153909904D01*
X93384666Y-160026095D02*
X93384666Y-159549904D01*
X93670380Y-160121333D02*
X92670380Y-159788000D01*
X93670380Y-159454666D01*
X100615009Y-158860857D02*
X100615009Y-159432285D01*
X100615009Y-159146571D02*
X99615009Y-159146571D01*
X99757867Y-159241809D01*
X99853105Y-159337047D01*
X99900724Y-159432285D01*
X100615009Y-158432285D02*
X99615009Y-158432285D01*
X100615009Y-157860857D01*
X99615009Y-157860857D01*
X99948343Y-156956095D02*
X100615009Y-156956095D01*
X99567390Y-157194190D02*
X100281676Y-157432285D01*
X100281676Y-156813238D01*
X100615009Y-155908476D02*
X100615009Y-156479904D01*
X100615009Y-156194190D02*
X99615009Y-156194190D01*
X99757867Y-156289428D01*
X99853105Y-156384666D01*
X99900724Y-156479904D01*
X99948343Y-155051333D02*
X100615009Y-155051333D01*
X99567390Y-155289428D02*
X100281676Y-155527523D01*
X100281676Y-154908476D01*
X100043581Y-154384666D02*
X99995962Y-154479904D01*
X99948343Y-154527523D01*
X99853105Y-154575142D01*
X99805486Y-154575142D01*
X99710248Y-154527523D01*
X99662629Y-154479904D01*
X99615009Y-154384666D01*
X99615009Y-154194190D01*
X99662629Y-154098952D01*
X99710248Y-154051333D01*
X99805486Y-154003714D01*
X99853105Y-154003714D01*
X99948343Y-154051333D01*
X99995962Y-154098952D01*
X100043581Y-154194190D01*
X100043581Y-154384666D01*
X100091200Y-154479904D01*
X100138819Y-154527523D01*
X100234057Y-154575142D01*
X100424533Y-154575142D01*
X100519771Y-154527523D01*
X100567390Y-154479904D01*
X100615009Y-154384666D01*
X100615009Y-154194190D01*
X100567390Y-154098952D01*
X100519771Y-154051333D01*
X100424533Y-154003714D01*
X100234057Y-154003714D01*
X100138819Y-154051333D01*
X100091200Y-154098952D01*
X100043581Y-154194190D01*
X103544666Y-160026095D02*
X103544666Y-159549904D01*
X103830380Y-160121333D02*
X102830380Y-159788000D01*
X103830380Y-159454666D01*
X106156751Y-157932285D02*
X105156751Y-157932285D01*
X105156751Y-157694190D01*
X105204371Y-157551333D01*
X105299609Y-157456095D01*
X105394847Y-157408476D01*
X105585323Y-157360857D01*
X105728180Y-157360857D01*
X105918656Y-157408476D01*
X106013894Y-157456095D01*
X106109132Y-157551333D01*
X106156751Y-157694190D01*
X106156751Y-157932285D01*
X106156751Y-156408476D02*
X106156751Y-156979904D01*
X106156751Y-156694190D02*
X105156751Y-156694190D01*
X105299609Y-156789428D01*
X105394847Y-156884666D01*
X105442466Y-156979904D01*
X105251990Y-156027523D02*
X105204371Y-155979904D01*
X105156751Y-155884666D01*
X105156751Y-155646571D01*
X105204371Y-155551333D01*
X105251990Y-155503714D01*
X105347228Y-155456095D01*
X105442466Y-155456095D01*
X105585323Y-155503714D01*
X106156751Y-156075142D01*
X106156751Y-155456095D01*
X103830380Y-153909904D02*
X102830380Y-153909904D01*
X103830380Y-153338476D02*
X103258952Y-153767047D01*
X102830380Y-153338476D02*
X103401809Y-153909904D01*
X175661142Y-167314095D02*
X175708761Y-167361714D01*
X175756380Y-167504571D01*
X175756380Y-167599809D01*
X175708761Y-167742666D01*
X175613523Y-167837904D01*
X175518285Y-167885523D01*
X175327809Y-167933142D01*
X175184952Y-167933142D01*
X174994476Y-167885523D01*
X174899238Y-167837904D01*
X174804000Y-167742666D01*
X174756380Y-167599809D01*
X174756380Y-167504571D01*
X174804000Y-167361714D01*
X174851619Y-167314095D01*
X175756380Y-166742666D02*
X175708761Y-166837904D01*
X175661142Y-166885523D01*
X175565904Y-166933142D01*
X175280190Y-166933142D01*
X175184952Y-166885523D01*
X175137333Y-166837904D01*
X175089714Y-166742666D01*
X175089714Y-166599809D01*
X175137333Y-166504571D01*
X175184952Y-166456952D01*
X175280190Y-166409333D01*
X175565904Y-166409333D01*
X175661142Y-166456952D01*
X175708761Y-166504571D01*
X175756380Y-166599809D01*
X175756380Y-166742666D01*
X175089714Y-165980761D02*
X175756380Y-165980761D01*
X175184952Y-165980761D02*
X175137333Y-165933142D01*
X175089714Y-165837904D01*
X175089714Y-165695047D01*
X175137333Y-165599809D01*
X175232571Y-165552190D01*
X175756380Y-165552190D01*
X175089714Y-165076000D02*
X175756380Y-165076000D01*
X175184952Y-165076000D02*
X175137333Y-165028380D01*
X175089714Y-164933142D01*
X175089714Y-164790285D01*
X175137333Y-164695047D01*
X175232571Y-164647428D01*
X175756380Y-164647428D01*
X175851619Y-164409333D02*
X175851619Y-163647428D01*
X174756380Y-163218857D02*
X174756380Y-163123619D01*
X174804000Y-163028380D01*
X174851619Y-162980761D01*
X174946857Y-162933142D01*
X175137333Y-162885523D01*
X175375428Y-162885523D01*
X175565904Y-162933142D01*
X175661142Y-162980761D01*
X175708761Y-163028380D01*
X175756380Y-163123619D01*
X175756380Y-163218857D01*
X175708761Y-163314095D01*
X175661142Y-163361714D01*
X175565904Y-163409333D01*
X175375428Y-163456952D01*
X175137333Y-163456952D01*
X174946857Y-163409333D01*
X174851619Y-163361714D01*
X174804000Y-163314095D01*
X174756380Y-163218857D01*
X175756380Y-161933142D02*
X175756380Y-162504571D01*
X175756380Y-162218857D02*
X174756380Y-162218857D01*
X174899238Y-162314095D01*
X174994476Y-162409333D01*
X175042095Y-162504571D01*
X175756380Y-161599809D02*
X175089714Y-161076000D01*
X175089714Y-161599809D02*
X175756380Y-161076000D01*
X174756380Y-160504571D02*
X174756380Y-160409333D01*
X174804000Y-160314095D01*
X174851619Y-160266476D01*
X174946857Y-160218857D01*
X175137333Y-160171238D01*
X175375428Y-160171238D01*
X175565904Y-160218857D01*
X175661142Y-160266476D01*
X175708761Y-160314095D01*
X175756380Y-160409333D01*
X175756380Y-160504571D01*
X175708761Y-160599809D01*
X175661142Y-160647428D01*
X175565904Y-160695047D01*
X175375428Y-160742666D01*
X175137333Y-160742666D01*
X174946857Y-160695047D01*
X174851619Y-160647428D01*
X174804000Y-160599809D01*
X174756380Y-160504571D01*
X175756380Y-159218857D02*
X175756380Y-159790285D01*
X175756380Y-159504571D02*
X174756380Y-159504571D01*
X174899238Y-159599809D01*
X174994476Y-159695047D01*
X175042095Y-159790285D01*
X172640666Y-163028380D02*
X172640666Y-163742666D01*
X172593047Y-163885523D01*
X172497809Y-163980761D01*
X172354952Y-164028380D01*
X172259714Y-164028380D01*
X173545428Y-163028380D02*
X173354952Y-163028380D01*
X173259714Y-163076000D01*
X173212095Y-163123619D01*
X173116857Y-163266476D01*
X173069238Y-163456952D01*
X173069238Y-163837904D01*
X173116857Y-163933142D01*
X173164476Y-163980761D01*
X173259714Y-164028380D01*
X173450190Y-164028380D01*
X173545428Y-163980761D01*
X173593047Y-163933142D01*
X173640666Y-163837904D01*
X173640666Y-163599809D01*
X173593047Y-163504571D01*
X173545428Y-163456952D01*
X173450190Y-163409333D01*
X173259714Y-163409333D01*
X173164476Y-163456952D01*
X173116857Y-163504571D01*
X173069238Y-163599809D01*
X126862333Y-139728380D02*
X126529000Y-139252190D01*
X126290904Y-139728380D02*
X126290904Y-138728380D01*
X126671857Y-138728380D01*
X126767095Y-138776000D01*
X126814714Y-138823619D01*
X126862333Y-138918857D01*
X126862333Y-139061714D01*
X126814714Y-139156952D01*
X126767095Y-139204571D01*
X126671857Y-139252190D01*
X126290904Y-139252190D01*
X127719476Y-138728380D02*
X127529000Y-138728380D01*
X127433761Y-138776000D01*
X127386142Y-138823619D01*
X127290904Y-138966476D01*
X127243285Y-139156952D01*
X127243285Y-139537904D01*
X127290904Y-139633142D01*
X127338523Y-139680761D01*
X127433761Y-139728380D01*
X127624238Y-139728380D01*
X127719476Y-139680761D01*
X127767095Y-139633142D01*
X127814714Y-139537904D01*
X127814714Y-139299809D01*
X127767095Y-139204571D01*
X127719476Y-139156952D01*
X127624238Y-139109333D01*
X127433761Y-139109333D01*
X127338523Y-139156952D01*
X127290904Y-139204571D01*
X127243285Y-139299809D01*
X175538952Y-101934380D02*
X175538952Y-100934380D01*
X175872285Y-101648666D01*
X176205619Y-100934380D01*
X176205619Y-101934380D01*
X176824666Y-101934380D02*
X176729428Y-101886761D01*
X176681809Y-101839142D01*
X176634190Y-101743904D01*
X176634190Y-101458190D01*
X176681809Y-101362952D01*
X176729428Y-101315333D01*
X176824666Y-101267714D01*
X176967523Y-101267714D01*
X177062761Y-101315333D01*
X177110380Y-101362952D01*
X177158000Y-101458190D01*
X177158000Y-101743904D01*
X177110380Y-101839142D01*
X177062761Y-101886761D01*
X176967523Y-101934380D01*
X176824666Y-101934380D01*
X178015142Y-101267714D02*
X178015142Y-101934380D01*
X177586571Y-101267714D02*
X177586571Y-101791523D01*
X177634190Y-101886761D01*
X177729428Y-101934380D01*
X177872285Y-101934380D01*
X177967523Y-101886761D01*
X178015142Y-101839142D01*
X178491333Y-101267714D02*
X178491333Y-101934380D01*
X178491333Y-101362952D02*
X178538952Y-101315333D01*
X178634190Y-101267714D01*
X178777047Y-101267714D01*
X178872285Y-101315333D01*
X178919904Y-101410571D01*
X178919904Y-101934380D01*
X179253238Y-101267714D02*
X179634190Y-101267714D01*
X179396095Y-100934380D02*
X179396095Y-101791523D01*
X179443714Y-101886761D01*
X179538952Y-101934380D01*
X179634190Y-101934380D01*
X179967523Y-101934380D02*
X179967523Y-101267714D01*
X179967523Y-100934380D02*
X179919904Y-100982000D01*
X179967523Y-101029619D01*
X180015142Y-100982000D01*
X179967523Y-100934380D01*
X179967523Y-101029619D01*
X180443714Y-101267714D02*
X180443714Y-101934380D01*
X180443714Y-101362952D02*
X180491333Y-101315333D01*
X180586571Y-101267714D01*
X180729428Y-101267714D01*
X180824666Y-101315333D01*
X180872285Y-101410571D01*
X180872285Y-101934380D01*
X181777047Y-101267714D02*
X181777047Y-102077238D01*
X181729428Y-102172476D01*
X181681809Y-102220095D01*
X181586571Y-102267714D01*
X181443714Y-102267714D01*
X181348476Y-102220095D01*
X181777047Y-101886761D02*
X181681809Y-101934380D01*
X181491333Y-101934380D01*
X181396095Y-101886761D01*
X181348476Y-101839142D01*
X181300857Y-101743904D01*
X181300857Y-101458190D01*
X181348476Y-101362952D01*
X181396095Y-101315333D01*
X181491333Y-101267714D01*
X181681809Y-101267714D01*
X181777047Y-101315333D01*
X182253238Y-101934380D02*
X182253238Y-100934380D01*
X182253238Y-101410571D02*
X182824666Y-101410571D01*
X182824666Y-101934380D02*
X182824666Y-100934380D01*
X183443714Y-101934380D02*
X183348476Y-101886761D01*
X183300857Y-101839142D01*
X183253238Y-101743904D01*
X183253238Y-101458190D01*
X183300857Y-101362952D01*
X183348476Y-101315333D01*
X183443714Y-101267714D01*
X183586571Y-101267714D01*
X183681809Y-101315333D01*
X183729428Y-101362952D01*
X183777047Y-101458190D01*
X183777047Y-101743904D01*
X183729428Y-101839142D01*
X183681809Y-101886761D01*
X183586571Y-101934380D01*
X183443714Y-101934380D01*
X184348476Y-101934380D02*
X184253238Y-101886761D01*
X184205619Y-101791523D01*
X184205619Y-100934380D01*
X185110380Y-101886761D02*
X185015142Y-101934380D01*
X184824666Y-101934380D01*
X184729428Y-101886761D01*
X184681809Y-101791523D01*
X184681809Y-101410571D01*
X184729428Y-101315333D01*
X184824666Y-101267714D01*
X185015142Y-101267714D01*
X185110380Y-101315333D01*
X185158000Y-101410571D01*
X185158000Y-101505809D01*
X184681809Y-101601047D01*
X185348476Y-102029619D02*
X186110380Y-102029619D01*
X186253238Y-100934380D02*
X186872285Y-100934380D01*
X186538952Y-101315333D01*
X186681809Y-101315333D01*
X186777047Y-101362952D01*
X186824666Y-101410571D01*
X186872285Y-101505809D01*
X186872285Y-101743904D01*
X186824666Y-101839142D01*
X186777047Y-101886761D01*
X186681809Y-101934380D01*
X186396095Y-101934380D01*
X186300857Y-101886761D01*
X186253238Y-101839142D01*
X187300857Y-101839142D02*
X187348476Y-101886761D01*
X187300857Y-101934380D01*
X187253238Y-101886761D01*
X187300857Y-101839142D01*
X187300857Y-101934380D01*
X187729428Y-101029619D02*
X187777047Y-100982000D01*
X187872285Y-100934380D01*
X188110380Y-100934380D01*
X188205619Y-100982000D01*
X188253238Y-101029619D01*
X188300857Y-101124857D01*
X188300857Y-101220095D01*
X188253238Y-101362952D01*
X187681809Y-101934380D01*
X188300857Y-101934380D01*
X188729428Y-101934380D02*
X188729428Y-101267714D01*
X188729428Y-101362952D02*
X188777047Y-101315333D01*
X188872285Y-101267714D01*
X189015142Y-101267714D01*
X189110380Y-101315333D01*
X189158000Y-101410571D01*
X189158000Y-101934380D01*
X189158000Y-101410571D02*
X189205619Y-101315333D01*
X189300857Y-101267714D01*
X189443714Y-101267714D01*
X189538952Y-101315333D01*
X189586571Y-101410571D01*
X189586571Y-101934380D01*
X190062761Y-101934380D02*
X190062761Y-101267714D01*
X190062761Y-101362952D02*
X190110380Y-101315333D01*
X190205619Y-101267714D01*
X190348476Y-101267714D01*
X190443714Y-101315333D01*
X190491333Y-101410571D01*
X190491333Y-101934380D01*
X190491333Y-101410571D02*
X190538952Y-101315333D01*
X190634190Y-101267714D01*
X190777047Y-101267714D01*
X190872285Y-101315333D01*
X190919904Y-101410571D01*
X190919904Y-101934380D01*
X191158000Y-102029619D02*
X191919904Y-102029619D01*
X192158000Y-101934380D02*
X192158000Y-100934380D01*
X192491333Y-101648666D01*
X192824666Y-100934380D01*
X192824666Y-101934380D01*
X193205619Y-100934380D02*
X193824666Y-100934380D01*
X193491333Y-101315333D01*
X193634190Y-101315333D01*
X193729428Y-101362952D01*
X193777047Y-101410571D01*
X193824666Y-101505809D01*
X193824666Y-101743904D01*
X193777047Y-101839142D01*
X193729428Y-101886761D01*
X193634190Y-101934380D01*
X193348476Y-101934380D01*
X193253238Y-101886761D01*
X193205619Y-101839142D01*
X183624666Y-97734380D02*
X183291333Y-97258190D01*
X183053238Y-97734380D02*
X183053238Y-96734380D01*
X183434190Y-96734380D01*
X183529428Y-96782000D01*
X183577047Y-96829619D01*
X183624666Y-96924857D01*
X183624666Y-97067714D01*
X183577047Y-97162952D01*
X183529428Y-97210571D01*
X183434190Y-97258190D01*
X183053238Y-97258190D01*
X184053238Y-97210571D02*
X184386571Y-97210571D01*
X184529428Y-97734380D02*
X184053238Y-97734380D01*
X184053238Y-96734380D01*
X184529428Y-96734380D01*
X185291333Y-97210571D02*
X184958000Y-97210571D01*
X184958000Y-97734380D02*
X184958000Y-96734380D01*
X185434190Y-96734380D01*
X185958000Y-96734380D02*
X185958000Y-96972476D01*
X185719904Y-96877238D02*
X185958000Y-96972476D01*
X186196095Y-96877238D01*
X185815142Y-97162952D02*
X185958000Y-96972476D01*
X186100857Y-97162952D01*
X186719904Y-96734380D02*
X186719904Y-96972476D01*
X186481809Y-96877238D02*
X186719904Y-96972476D01*
X186958000Y-96877238D01*
X186577047Y-97162952D02*
X186719904Y-96972476D01*
X186862761Y-97162952D01*
X89248380Y-150680857D02*
X89248380Y-150585619D01*
X89296000Y-150490380D01*
X89343619Y-150442761D01*
X89438857Y-150395142D01*
X89629333Y-150347523D01*
X89867428Y-150347523D01*
X90057904Y-150395142D01*
X90153142Y-150442761D01*
X90200761Y-150490380D01*
X90248380Y-150585619D01*
X90248380Y-150680857D01*
X90200761Y-150776095D01*
X90153142Y-150823714D01*
X90057904Y-150871333D01*
X89867428Y-150918952D01*
X89629333Y-150918952D01*
X89438857Y-150871333D01*
X89343619Y-150823714D01*
X89296000Y-150776095D01*
X89248380Y-150680857D01*
X90153142Y-149918952D02*
X90200761Y-149871333D01*
X90248380Y-149918952D01*
X90200761Y-149966571D01*
X90153142Y-149918952D01*
X90248380Y-149918952D01*
X90248380Y-148918952D02*
X90248380Y-149490380D01*
X90248380Y-149204666D02*
X89248380Y-149204666D01*
X89391238Y-149299904D01*
X89486476Y-149395142D01*
X89534095Y-149490380D01*
X89581714Y-148061809D02*
X90248380Y-148061809D01*
X89581714Y-148490380D02*
X90105523Y-148490380D01*
X90200761Y-148442761D01*
X90248380Y-148347523D01*
X90248380Y-148204666D01*
X90200761Y-148109428D01*
X90153142Y-148061809D01*
X89724571Y-147252285D02*
X89724571Y-147585619D01*
X90248380Y-147585619D02*
X89248380Y-147585619D01*
X89248380Y-147109428D01*
D11*
X87647428Y-149164666D02*
X87683619Y-149200857D01*
X87719809Y-149309428D01*
X87719809Y-149381809D01*
X87683619Y-149490380D01*
X87611238Y-149562761D01*
X87538857Y-149598952D01*
X87394095Y-149635142D01*
X87285523Y-149635142D01*
X87140761Y-149598952D01*
X87068380Y-149562761D01*
X86996000Y-149490380D01*
X86959809Y-149381809D01*
X86959809Y-149309428D01*
X86996000Y-149200857D01*
X87032190Y-149164666D01*
X86959809Y-148477047D02*
X86959809Y-148838952D01*
X87321714Y-148875142D01*
X87285523Y-148838952D01*
X87249333Y-148766571D01*
X87249333Y-148585619D01*
X87285523Y-148513238D01*
X87321714Y-148477047D01*
X87394095Y-148440857D01*
X87575047Y-148440857D01*
X87647428Y-148477047D01*
X87683619Y-148513238D01*
X87719809Y-148585619D01*
X87719809Y-148766571D01*
X87683619Y-148838952D01*
X87647428Y-148875142D01*
D10*
X178566380Y-151153238D02*
X179280666Y-151153238D01*
X179423523Y-151200857D01*
X179518761Y-151296095D01*
X179566380Y-151438952D01*
X179566380Y-151534190D01*
X178899714Y-150248476D02*
X179566380Y-150248476D01*
X178899714Y-150677047D02*
X179423523Y-150677047D01*
X179518761Y-150629428D01*
X179566380Y-150534190D01*
X179566380Y-150391333D01*
X179518761Y-150296095D01*
X179471142Y-150248476D01*
X179566380Y-149772285D02*
X178899714Y-149772285D01*
X178994952Y-149772285D02*
X178947333Y-149724666D01*
X178899714Y-149629428D01*
X178899714Y-149486571D01*
X178947333Y-149391333D01*
X179042571Y-149343714D01*
X179566380Y-149343714D01*
X179042571Y-149343714D02*
X178947333Y-149296095D01*
X178899714Y-149200857D01*
X178899714Y-149058000D01*
X178947333Y-148962761D01*
X179042571Y-148915142D01*
X179566380Y-148915142D01*
X178899714Y-148438952D02*
X179899714Y-148438952D01*
X178947333Y-148438952D02*
X178899714Y-148343714D01*
X178899714Y-148153238D01*
X178947333Y-148058000D01*
X178994952Y-148010380D01*
X179090190Y-147962761D01*
X179375904Y-147962761D01*
X179471142Y-148010380D01*
X179518761Y-148058000D01*
X179566380Y-148153238D01*
X179566380Y-148343714D01*
X179518761Y-148438952D01*
X179518761Y-147153238D02*
X179566380Y-147248476D01*
X179566380Y-147438952D01*
X179518761Y-147534190D01*
X179423523Y-147581809D01*
X179042571Y-147581809D01*
X178947333Y-147534190D01*
X178899714Y-147438952D01*
X178899714Y-147248476D01*
X178947333Y-147153238D01*
X179042571Y-147105619D01*
X179137809Y-147105619D01*
X179233047Y-147581809D01*
X179566380Y-146677047D02*
X178899714Y-146677047D01*
X179090190Y-146677047D02*
X178994952Y-146629428D01*
X178947333Y-146581809D01*
X178899714Y-146486571D01*
X178899714Y-146391333D01*
X179042571Y-144962761D02*
X179090190Y-144819904D01*
X179137809Y-144772285D01*
X179233047Y-144724666D01*
X179375904Y-144724666D01*
X179471142Y-144772285D01*
X179518761Y-144819904D01*
X179566380Y-144915142D01*
X179566380Y-145296095D01*
X178566380Y-145296095D01*
X178566380Y-144962761D01*
X178614000Y-144867523D01*
X178661619Y-144819904D01*
X178756857Y-144772285D01*
X178852095Y-144772285D01*
X178947333Y-144819904D01*
X178994952Y-144867523D01*
X179042571Y-144962761D01*
X179042571Y-145296095D01*
X179566380Y-144153238D02*
X179518761Y-144248476D01*
X179423523Y-144296095D01*
X178566380Y-144296095D01*
X179566380Y-143629428D02*
X179518761Y-143724666D01*
X179471142Y-143772285D01*
X179375904Y-143819904D01*
X179090190Y-143819904D01*
X178994952Y-143772285D01*
X178947333Y-143724666D01*
X178899714Y-143629428D01*
X178899714Y-143486571D01*
X178947333Y-143391333D01*
X178994952Y-143343714D01*
X179090190Y-143296095D01*
X179375904Y-143296095D01*
X179471142Y-143343714D01*
X179518761Y-143391333D01*
X179566380Y-143486571D01*
X179566380Y-143629428D01*
X179518761Y-142438952D02*
X179566380Y-142534190D01*
X179566380Y-142724666D01*
X179518761Y-142819904D01*
X179471142Y-142867523D01*
X179375904Y-142915142D01*
X179090190Y-142915142D01*
X178994952Y-142867523D01*
X178947333Y-142819904D01*
X178899714Y-142724666D01*
X178899714Y-142534190D01*
X178947333Y-142438952D01*
X179566380Y-142010380D02*
X178566380Y-142010380D01*
X179185428Y-141915142D02*
X179566380Y-141629428D01*
X178899714Y-141629428D02*
X179280666Y-142010380D01*
X173910666Y-146010380D02*
X173910666Y-146724666D01*
X173863047Y-146867523D01*
X173767809Y-146962761D01*
X173624952Y-147010380D01*
X173529714Y-147010380D01*
X174291619Y-146010380D02*
X174910666Y-146010380D01*
X174577333Y-146391333D01*
X174720190Y-146391333D01*
X174815428Y-146438952D01*
X174863047Y-146486571D01*
X174910666Y-146581809D01*
X174910666Y-146819904D01*
X174863047Y-146915142D01*
X174815428Y-146962761D01*
X174720190Y-147010380D01*
X174434476Y-147010380D01*
X174339238Y-146962761D01*
X174291619Y-146915142D01*
X92995009Y-158860857D02*
X92995009Y-159432285D01*
X92995009Y-159146571D02*
X91995009Y-159146571D01*
X92137867Y-159241809D01*
X92233105Y-159337047D01*
X92280724Y-159432285D01*
X92995009Y-158432285D02*
X91995009Y-158432285D01*
X92995009Y-157860857D01*
X91995009Y-157860857D01*
X92328343Y-156956095D02*
X92995009Y-156956095D01*
X91947390Y-157194190D02*
X92661676Y-157432285D01*
X92661676Y-156813238D01*
X92995009Y-155908476D02*
X92995009Y-156479904D01*
X92995009Y-156194190D02*
X91995009Y-156194190D01*
X92137867Y-156289428D01*
X92233105Y-156384666D01*
X92280724Y-156479904D01*
X92328343Y-155051333D02*
X92995009Y-155051333D01*
X91947390Y-155289428D02*
X92661676Y-155527523D01*
X92661676Y-154908476D01*
X92423581Y-154384666D02*
X92375962Y-154479904D01*
X92328343Y-154527523D01*
X92233105Y-154575142D01*
X92185486Y-154575142D01*
X92090248Y-154527523D01*
X92042629Y-154479904D01*
X91995009Y-154384666D01*
X91995009Y-154194190D01*
X92042629Y-154098952D01*
X92090248Y-154051333D01*
X92185486Y-154003714D01*
X92233105Y-154003714D01*
X92328343Y-154051333D01*
X92375962Y-154098952D01*
X92423581Y-154194190D01*
X92423581Y-154384666D01*
X92471200Y-154479904D01*
X92518819Y-154527523D01*
X92614057Y-154575142D01*
X92804533Y-154575142D01*
X92899771Y-154527523D01*
X92947390Y-154479904D01*
X92995009Y-154384666D01*
X92995009Y-154194190D01*
X92947390Y-154098952D01*
X92899771Y-154051333D01*
X92804533Y-154003714D01*
X92614057Y-154003714D01*
X92518819Y-154051333D01*
X92471200Y-154098952D01*
X92423581Y-154194190D01*
X96210380Y-153909904D02*
X95210380Y-153909904D01*
X96210380Y-153338476D02*
X95638952Y-153767047D01*
X95210380Y-153338476D02*
X95781809Y-153909904D01*
X98536751Y-157932285D02*
X97536751Y-157932285D01*
X97536751Y-157694190D01*
X97584371Y-157551333D01*
X97679609Y-157456095D01*
X97774847Y-157408476D01*
X97965323Y-157360857D01*
X98108180Y-157360857D01*
X98298656Y-157408476D01*
X98393894Y-157456095D01*
X98489132Y-157551333D01*
X98536751Y-157694190D01*
X98536751Y-157932285D01*
X98536751Y-156408476D02*
X98536751Y-156979904D01*
X98536751Y-156694190D02*
X97536751Y-156694190D01*
X97679609Y-156789428D01*
X97774847Y-156884666D01*
X97822466Y-156979904D01*
X97536751Y-155503714D02*
X97536751Y-155979904D01*
X98012942Y-156027523D01*
X97965323Y-155979904D01*
X97917704Y-155884666D01*
X97917704Y-155646571D01*
X97965323Y-155551333D01*
X98012942Y-155503714D01*
X98108180Y-155456095D01*
X98346275Y-155456095D01*
X98441513Y-155503714D01*
X98489132Y-155551333D01*
X98536751Y-155646571D01*
X98536751Y-155884666D01*
X98489132Y-155979904D01*
X98441513Y-156027523D01*
X99020380Y-149859904D02*
X99829904Y-149859904D01*
X99925142Y-149812285D01*
X99972761Y-149764666D01*
X100020380Y-149669428D01*
X100020380Y-149478952D01*
X99972761Y-149383714D01*
X99925142Y-149336095D01*
X99829904Y-149288476D01*
X99020380Y-149288476D01*
X99020380Y-148907523D02*
X99020380Y-148240857D01*
X100020380Y-148669428D01*
X112299009Y-158860857D02*
X112299009Y-159432285D01*
X112299009Y-159146571D02*
X111299009Y-159146571D01*
X111441867Y-159241809D01*
X111537105Y-159337047D01*
X111584724Y-159432285D01*
X112299009Y-158432285D02*
X111299009Y-158432285D01*
X112299009Y-157860857D01*
X111299009Y-157860857D01*
X111632343Y-156956095D02*
X112299009Y-156956095D01*
X111251390Y-157194190D02*
X111965676Y-157432285D01*
X111965676Y-156813238D01*
X112299009Y-155908476D02*
X112299009Y-156479904D01*
X112299009Y-156194190D02*
X111299009Y-156194190D01*
X111441867Y-156289428D01*
X111537105Y-156384666D01*
X111584724Y-156479904D01*
X111632343Y-155051333D02*
X112299009Y-155051333D01*
X111251390Y-155289428D02*
X111965676Y-155527523D01*
X111965676Y-154908476D01*
X111727581Y-154384666D02*
X111679962Y-154479904D01*
X111632343Y-154527523D01*
X111537105Y-154575142D01*
X111489486Y-154575142D01*
X111394248Y-154527523D01*
X111346629Y-154479904D01*
X111299009Y-154384666D01*
X111299009Y-154194190D01*
X111346629Y-154098952D01*
X111394248Y-154051333D01*
X111489486Y-154003714D01*
X111537105Y-154003714D01*
X111632343Y-154051333D01*
X111679962Y-154098952D01*
X111727581Y-154194190D01*
X111727581Y-154384666D01*
X111775200Y-154479904D01*
X111822819Y-154527523D01*
X111918057Y-154575142D01*
X112108533Y-154575142D01*
X112203771Y-154527523D01*
X112251390Y-154479904D01*
X112299009Y-154384666D01*
X112299009Y-154194190D01*
X112251390Y-154098952D01*
X112203771Y-154051333D01*
X112108533Y-154003714D01*
X111918057Y-154003714D01*
X111822819Y-154051333D01*
X111775200Y-154098952D01*
X111727581Y-154194190D01*
X117840751Y-157932285D02*
X116840751Y-157932285D01*
X116840751Y-157694190D01*
X116888371Y-157551333D01*
X116983609Y-157456095D01*
X117078847Y-157408476D01*
X117269323Y-157360857D01*
X117412180Y-157360857D01*
X117602656Y-157408476D01*
X117697894Y-157456095D01*
X117793132Y-157551333D01*
X117840751Y-157694190D01*
X117840751Y-157932285D01*
X117840751Y-156408476D02*
X117840751Y-156979904D01*
X117840751Y-156694190D02*
X116840751Y-156694190D01*
X116983609Y-156789428D01*
X117078847Y-156884666D01*
X117126466Y-156979904D01*
X116840751Y-155789428D02*
X116840751Y-155694190D01*
X116888371Y-155598952D01*
X116935990Y-155551333D01*
X117031228Y-155503714D01*
X117221704Y-155456095D01*
X117459799Y-155456095D01*
X117650275Y-155503714D01*
X117745513Y-155551333D01*
X117793132Y-155598952D01*
X117840751Y-155694190D01*
X117840751Y-155789428D01*
X117793132Y-155884666D01*
X117745513Y-155932285D01*
X117650275Y-155979904D01*
X117459799Y-156027523D01*
X117221704Y-156027523D01*
X117031228Y-155979904D01*
X116935990Y-155932285D01*
X116888371Y-155884666D01*
X116840751Y-155789428D01*
X115514380Y-153909904D02*
X114514380Y-153909904D01*
X115514380Y-153338476D02*
X114942952Y-153767047D01*
X114514380Y-153338476D02*
X115085809Y-153909904D01*
X103655904Y-102009015D02*
X103655904Y-101009015D01*
X103894000Y-101009015D01*
X104036857Y-101056635D01*
X104132095Y-101151873D01*
X104179714Y-101247111D01*
X104227333Y-101437587D01*
X104227333Y-101580444D01*
X104179714Y-101770920D01*
X104132095Y-101866158D01*
X104036857Y-101961396D01*
X103894000Y-102009015D01*
X103655904Y-102009015D01*
X105179714Y-102009015D02*
X104608285Y-102009015D01*
X104894000Y-102009015D02*
X104894000Y-101009015D01*
X104798761Y-101151873D01*
X104703523Y-101247111D01*
X104608285Y-101294730D01*
X100785904Y-98972666D02*
X101262095Y-98972666D01*
X100690666Y-99258380D02*
X101024000Y-98258380D01*
X101357333Y-99258380D01*
X156762828Y-114077009D02*
X156191400Y-114077009D01*
X156477114Y-114077009D02*
X156477114Y-113077009D01*
X156381876Y-113219867D01*
X156286638Y-113315105D01*
X156191400Y-113362724D01*
X157191400Y-114077009D02*
X157191400Y-113077009D01*
X157762828Y-114077009D01*
X157762828Y-113077009D01*
X158667590Y-113410343D02*
X158667590Y-114077009D01*
X158429495Y-113029390D02*
X158191400Y-113743676D01*
X158810447Y-113743676D01*
X159715209Y-114077009D02*
X159143781Y-114077009D01*
X159429495Y-114077009D02*
X159429495Y-113077009D01*
X159334257Y-113219867D01*
X159239019Y-113315105D01*
X159143781Y-113362724D01*
X160572352Y-113410343D02*
X160572352Y-114077009D01*
X160334257Y-113029390D02*
X160096162Y-113743676D01*
X160715209Y-113743676D01*
X161239019Y-113505581D02*
X161143781Y-113457962D01*
X161096162Y-113410343D01*
X161048543Y-113315105D01*
X161048543Y-113267486D01*
X161096162Y-113172248D01*
X161143781Y-113124629D01*
X161239019Y-113077009D01*
X161429495Y-113077009D01*
X161524733Y-113124629D01*
X161572352Y-113172248D01*
X161619971Y-113267486D01*
X161619971Y-113315105D01*
X161572352Y-113410343D01*
X161524733Y-113457962D01*
X161429495Y-113505581D01*
X161239019Y-113505581D01*
X161143781Y-113553200D01*
X161096162Y-113600819D01*
X161048543Y-113696057D01*
X161048543Y-113886533D01*
X161096162Y-113981771D01*
X161143781Y-114029390D01*
X161239019Y-114077009D01*
X161429495Y-114077009D01*
X161524733Y-114029390D01*
X161572352Y-113981771D01*
X161619971Y-113886533D01*
X161619971Y-113696057D01*
X161572352Y-113600819D01*
X161524733Y-113553200D01*
X161429495Y-113505581D01*
X161713781Y-117292380D02*
X161713781Y-116292380D01*
X162285209Y-117292380D02*
X161856638Y-116720952D01*
X162285209Y-116292380D02*
X161713781Y-116863809D01*
X157691400Y-119618751D02*
X157691400Y-118618751D01*
X157929495Y-118618751D01*
X158072352Y-118666371D01*
X158167590Y-118761609D01*
X158215209Y-118856847D01*
X158262828Y-119047323D01*
X158262828Y-119190180D01*
X158215209Y-119380656D01*
X158167590Y-119475894D01*
X158072352Y-119571132D01*
X157929495Y-119618751D01*
X157691400Y-119618751D01*
X159215209Y-119618751D02*
X158643781Y-119618751D01*
X158929495Y-119618751D02*
X158929495Y-118618751D01*
X158834257Y-118761609D01*
X158739019Y-118856847D01*
X158643781Y-118904466D01*
X159691400Y-119618751D02*
X159881876Y-119618751D01*
X159977114Y-119571132D01*
X160024733Y-119523513D01*
X160119971Y-119380656D01*
X160167590Y-119190180D01*
X160167590Y-118809228D01*
X160119971Y-118713990D01*
X160072352Y-118666371D01*
X159977114Y-118618751D01*
X159786638Y-118618751D01*
X159691400Y-118666371D01*
X159643781Y-118713990D01*
X159596162Y-118809228D01*
X159596162Y-119047323D01*
X159643781Y-119142561D01*
X159691400Y-119190180D01*
X159786638Y-119237799D01*
X159977114Y-119237799D01*
X160072352Y-119190180D01*
X160119971Y-119142561D01*
X160167590Y-119047323D01*
X84613009Y-158860857D02*
X84613009Y-159432285D01*
X84613009Y-159146571D02*
X83613009Y-159146571D01*
X83755867Y-159241809D01*
X83851105Y-159337047D01*
X83898724Y-159432285D01*
X84613009Y-158432285D02*
X83613009Y-158432285D01*
X84613009Y-157860857D01*
X83613009Y-157860857D01*
X83946343Y-156956095D02*
X84613009Y-156956095D01*
X83565390Y-157194190D02*
X84279676Y-157432285D01*
X84279676Y-156813238D01*
X84613009Y-155908476D02*
X84613009Y-156479904D01*
X84613009Y-156194190D02*
X83613009Y-156194190D01*
X83755867Y-156289428D01*
X83851105Y-156384666D01*
X83898724Y-156479904D01*
X83946343Y-155051333D02*
X84613009Y-155051333D01*
X83565390Y-155289428D02*
X84279676Y-155527523D01*
X84279676Y-154908476D01*
X84041581Y-154384666D02*
X83993962Y-154479904D01*
X83946343Y-154527523D01*
X83851105Y-154575142D01*
X83803486Y-154575142D01*
X83708248Y-154527523D01*
X83660629Y-154479904D01*
X83613009Y-154384666D01*
X83613009Y-154194190D01*
X83660629Y-154098952D01*
X83708248Y-154051333D01*
X83803486Y-154003714D01*
X83851105Y-154003714D01*
X83946343Y-154051333D01*
X83993962Y-154098952D01*
X84041581Y-154194190D01*
X84041581Y-154384666D01*
X84089200Y-154479904D01*
X84136819Y-154527523D01*
X84232057Y-154575142D01*
X84422533Y-154575142D01*
X84517771Y-154527523D01*
X84565390Y-154479904D01*
X84613009Y-154384666D01*
X84613009Y-154194190D01*
X84565390Y-154098952D01*
X84517771Y-154051333D01*
X84422533Y-154003714D01*
X84232057Y-154003714D01*
X84136819Y-154051333D01*
X84089200Y-154098952D01*
X84041581Y-154194190D01*
X90154751Y-157932285D02*
X89154751Y-157932285D01*
X89154751Y-157694190D01*
X89202371Y-157551333D01*
X89297609Y-157456095D01*
X89392847Y-157408476D01*
X89583323Y-157360857D01*
X89726180Y-157360857D01*
X89916656Y-157408476D01*
X90011894Y-157456095D01*
X90107132Y-157551333D01*
X90154751Y-157694190D01*
X90154751Y-157932285D01*
X90154751Y-156408476D02*
X90154751Y-156979904D01*
X90154751Y-156694190D02*
X89154751Y-156694190D01*
X89297609Y-156789428D01*
X89392847Y-156884666D01*
X89440466Y-156979904D01*
X89154751Y-156075142D02*
X89154751Y-155408476D01*
X90154751Y-155837047D01*
X87828380Y-153909904D02*
X86828380Y-153909904D01*
X87828380Y-153338476D02*
X87256952Y-153767047D01*
X86828380Y-153338476D02*
X87399809Y-153909904D01*
X183954333Y-146672380D02*
X183621000Y-146196190D01*
X183382904Y-146672380D02*
X183382904Y-145672380D01*
X183763857Y-145672380D01*
X183859095Y-145720000D01*
X183906714Y-145767619D01*
X183954333Y-145862857D01*
X183954333Y-146005714D01*
X183906714Y-146100952D01*
X183859095Y-146148571D01*
X183763857Y-146196190D01*
X183382904Y-146196190D01*
X184335285Y-145767619D02*
X184382904Y-145720000D01*
X184478142Y-145672380D01*
X184716238Y-145672380D01*
X184811476Y-145720000D01*
X184859095Y-145767619D01*
X184906714Y-145862857D01*
X184906714Y-145958095D01*
X184859095Y-146100952D01*
X184287666Y-146672380D01*
X184906714Y-146672380D01*
X124999009Y-158860857D02*
X124999009Y-159432285D01*
X124999009Y-159146571D02*
X123999009Y-159146571D01*
X124141867Y-159241809D01*
X124237105Y-159337047D01*
X124284724Y-159432285D01*
X124999009Y-158432285D02*
X123999009Y-158432285D01*
X124999009Y-157860857D01*
X123999009Y-157860857D01*
X124332343Y-156956095D02*
X124999009Y-156956095D01*
X123951390Y-157194190D02*
X124665676Y-157432285D01*
X124665676Y-156813238D01*
X124999009Y-155908476D02*
X124999009Y-156479904D01*
X124999009Y-156194190D02*
X123999009Y-156194190D01*
X124141867Y-156289428D01*
X124237105Y-156384666D01*
X124284724Y-156479904D01*
X124332343Y-155051333D02*
X124999009Y-155051333D01*
X123951390Y-155289428D02*
X124665676Y-155527523D01*
X124665676Y-154908476D01*
X124427581Y-154384666D02*
X124379962Y-154479904D01*
X124332343Y-154527523D01*
X124237105Y-154575142D01*
X124189486Y-154575142D01*
X124094248Y-154527523D01*
X124046629Y-154479904D01*
X123999009Y-154384666D01*
X123999009Y-154194190D01*
X124046629Y-154098952D01*
X124094248Y-154051333D01*
X124189486Y-154003714D01*
X124237105Y-154003714D01*
X124332343Y-154051333D01*
X124379962Y-154098952D01*
X124427581Y-154194190D01*
X124427581Y-154384666D01*
X124475200Y-154479904D01*
X124522819Y-154527523D01*
X124618057Y-154575142D01*
X124808533Y-154575142D01*
X124903771Y-154527523D01*
X124951390Y-154479904D01*
X124999009Y-154384666D01*
X124999009Y-154194190D01*
X124951390Y-154098952D01*
X124903771Y-154051333D01*
X124808533Y-154003714D01*
X124618057Y-154003714D01*
X124522819Y-154051333D01*
X124475200Y-154098952D01*
X124427581Y-154194190D01*
X128214380Y-153909904D02*
X127214380Y-153909904D01*
X128214380Y-153338476D02*
X127642952Y-153767047D01*
X127214380Y-153338476D02*
X127785809Y-153909904D01*
X130540751Y-157456095D02*
X129540751Y-157456095D01*
X129540751Y-157218000D01*
X129588371Y-157075142D01*
X129683609Y-156979904D01*
X129778847Y-156932285D01*
X129969323Y-156884666D01*
X130112180Y-156884666D01*
X130302656Y-156932285D01*
X130397894Y-156979904D01*
X130493132Y-157075142D01*
X130540751Y-157218000D01*
X130540751Y-157456095D01*
X129540751Y-155979904D02*
X129540751Y-156456095D01*
X130016942Y-156503714D01*
X129969323Y-156456095D01*
X129921704Y-156360857D01*
X129921704Y-156122761D01*
X129969323Y-156027523D01*
X130016942Y-155979904D01*
X130112180Y-155932285D01*
X130350275Y-155932285D01*
X130445513Y-155979904D01*
X130493132Y-156027523D01*
X130540751Y-156122761D01*
X130540751Y-156360857D01*
X130493132Y-156456095D01*
X130445513Y-156503714D01*
X98075009Y-158860857D02*
X98075009Y-159432285D01*
X98075009Y-159146571D02*
X97075009Y-159146571D01*
X97217867Y-159241809D01*
X97313105Y-159337047D01*
X97360724Y-159432285D01*
X98075009Y-158432285D02*
X97075009Y-158432285D01*
X98075009Y-157860857D01*
X97075009Y-157860857D01*
X97408343Y-156956095D02*
X98075009Y-156956095D01*
X97027390Y-157194190D02*
X97741676Y-157432285D01*
X97741676Y-156813238D01*
X98075009Y-155908476D02*
X98075009Y-156479904D01*
X98075009Y-156194190D02*
X97075009Y-156194190D01*
X97217867Y-156289428D01*
X97313105Y-156384666D01*
X97360724Y-156479904D01*
X97408343Y-155051333D02*
X98075009Y-155051333D01*
X97027390Y-155289428D02*
X97741676Y-155527523D01*
X97741676Y-154908476D01*
X97503581Y-154384666D02*
X97455962Y-154479904D01*
X97408343Y-154527523D01*
X97313105Y-154575142D01*
X97265486Y-154575142D01*
X97170248Y-154527523D01*
X97122629Y-154479904D01*
X97075009Y-154384666D01*
X97075009Y-154194190D01*
X97122629Y-154098952D01*
X97170248Y-154051333D01*
X97265486Y-154003714D01*
X97313105Y-154003714D01*
X97408343Y-154051333D01*
X97455962Y-154098952D01*
X97503581Y-154194190D01*
X97503581Y-154384666D01*
X97551200Y-154479904D01*
X97598819Y-154527523D01*
X97694057Y-154575142D01*
X97884533Y-154575142D01*
X97979771Y-154527523D01*
X98027390Y-154479904D01*
X98075009Y-154384666D01*
X98075009Y-154194190D01*
X98027390Y-154098952D01*
X97979771Y-154051333D01*
X97884533Y-154003714D01*
X97694057Y-154003714D01*
X97598819Y-154051333D01*
X97551200Y-154098952D01*
X97503581Y-154194190D01*
X103616751Y-157932285D02*
X102616751Y-157932285D01*
X102616751Y-157694190D01*
X102664371Y-157551333D01*
X102759609Y-157456095D01*
X102854847Y-157408476D01*
X103045323Y-157360857D01*
X103188180Y-157360857D01*
X103378656Y-157408476D01*
X103473894Y-157456095D01*
X103569132Y-157551333D01*
X103616751Y-157694190D01*
X103616751Y-157932285D01*
X103616751Y-156408476D02*
X103616751Y-156979904D01*
X103616751Y-156694190D02*
X102616751Y-156694190D01*
X102759609Y-156789428D01*
X102854847Y-156884666D01*
X102902466Y-156979904D01*
X102616751Y-156075142D02*
X102616751Y-155456095D01*
X102997704Y-155789428D01*
X102997704Y-155646571D01*
X103045323Y-155551333D01*
X103092942Y-155503714D01*
X103188180Y-155456095D01*
X103426275Y-155456095D01*
X103521513Y-155503714D01*
X103569132Y-155551333D01*
X103616751Y-155646571D01*
X103616751Y-155932285D01*
X103569132Y-156027523D01*
X103521513Y-156075142D01*
X101290380Y-153909904D02*
X100290380Y-153909904D01*
X101290380Y-153338476D02*
X100718952Y-153767047D01*
X100290380Y-153338476D02*
X100861809Y-153909904D01*
X160805904Y-95745745D02*
X160805904Y-94745745D01*
X161044000Y-94745745D01*
X161186857Y-94793365D01*
X161282095Y-94888603D01*
X161329714Y-94983841D01*
X161377333Y-95174317D01*
X161377333Y-95317174D01*
X161329714Y-95507650D01*
X161282095Y-95602888D01*
X161186857Y-95698126D01*
X161044000Y-95745745D01*
X160805904Y-95745745D01*
X161758285Y-94840984D02*
X161805904Y-94793365D01*
X161901142Y-94745745D01*
X162139238Y-94745745D01*
X162234476Y-94793365D01*
X162282095Y-94840984D01*
X162329714Y-94936222D01*
X162329714Y-95031460D01*
X162282095Y-95174317D01*
X161710666Y-95745745D01*
X162329714Y-95745745D01*
X164675904Y-98210666D02*
X165152095Y-98210666D01*
X164580666Y-98496380D02*
X164914000Y-97496380D01*
X165247333Y-98496380D01*
X117379009Y-158860857D02*
X117379009Y-159432285D01*
X117379009Y-159146571D02*
X116379009Y-159146571D01*
X116521867Y-159241809D01*
X116617105Y-159337047D01*
X116664724Y-159432285D01*
X117379009Y-158432285D02*
X116379009Y-158432285D01*
X117379009Y-157860857D01*
X116379009Y-157860857D01*
X116712343Y-156956095D02*
X117379009Y-156956095D01*
X116331390Y-157194190D02*
X117045676Y-157432285D01*
X117045676Y-156813238D01*
X117379009Y-155908476D02*
X117379009Y-156479904D01*
X117379009Y-156194190D02*
X116379009Y-156194190D01*
X116521867Y-156289428D01*
X116617105Y-156384666D01*
X116664724Y-156479904D01*
X116712343Y-155051333D02*
X117379009Y-155051333D01*
X116331390Y-155289428D02*
X117045676Y-155527523D01*
X117045676Y-154908476D01*
X116807581Y-154384666D02*
X116759962Y-154479904D01*
X116712343Y-154527523D01*
X116617105Y-154575142D01*
X116569486Y-154575142D01*
X116474248Y-154527523D01*
X116426629Y-154479904D01*
X116379009Y-154384666D01*
X116379009Y-154194190D01*
X116426629Y-154098952D01*
X116474248Y-154051333D01*
X116569486Y-154003714D01*
X116617105Y-154003714D01*
X116712343Y-154051333D01*
X116759962Y-154098952D01*
X116807581Y-154194190D01*
X116807581Y-154384666D01*
X116855200Y-154479904D01*
X116902819Y-154527523D01*
X116998057Y-154575142D01*
X117188533Y-154575142D01*
X117283771Y-154527523D01*
X117331390Y-154479904D01*
X117379009Y-154384666D01*
X117379009Y-154194190D01*
X117331390Y-154098952D01*
X117283771Y-154051333D01*
X117188533Y-154003714D01*
X116998057Y-154003714D01*
X116902819Y-154051333D01*
X116855200Y-154098952D01*
X116807581Y-154194190D01*
X120594380Y-153909904D02*
X119594380Y-153909904D01*
X120594380Y-153338476D02*
X120022952Y-153767047D01*
X119594380Y-153338476D02*
X120165809Y-153909904D01*
X122920751Y-157456095D02*
X121920751Y-157456095D01*
X121920751Y-157218000D01*
X121968371Y-157075142D01*
X122063609Y-156979904D01*
X122158847Y-156932285D01*
X122349323Y-156884666D01*
X122492180Y-156884666D01*
X122682656Y-156932285D01*
X122777894Y-156979904D01*
X122873132Y-157075142D01*
X122920751Y-157218000D01*
X122920751Y-157456095D01*
X122349323Y-156313238D02*
X122301704Y-156408476D01*
X122254085Y-156456095D01*
X122158847Y-156503714D01*
X122111228Y-156503714D01*
X122015990Y-156456095D01*
X121968371Y-156408476D01*
X121920751Y-156313238D01*
X121920751Y-156122761D01*
X121968371Y-156027523D01*
X122015990Y-155979904D01*
X122111228Y-155932285D01*
X122158847Y-155932285D01*
X122254085Y-155979904D01*
X122301704Y-156027523D01*
X122349323Y-156122761D01*
X122349323Y-156313238D01*
X122396942Y-156408476D01*
X122444561Y-156456095D01*
X122539799Y-156503714D01*
X122730275Y-156503714D01*
X122825513Y-156456095D01*
X122873132Y-156408476D01*
X122920751Y-156313238D01*
X122920751Y-156122761D01*
X122873132Y-156027523D01*
X122825513Y-155979904D01*
X122730275Y-155932285D01*
X122539799Y-155932285D01*
X122444561Y-155979904D01*
X122396942Y-156027523D01*
X122349323Y-156122761D01*
X144940380Y-163594238D02*
X145654666Y-163594238D01*
X145797523Y-163641857D01*
X145892761Y-163737095D01*
X145940380Y-163879952D01*
X145940380Y-163975190D01*
X145273714Y-162689476D02*
X145940380Y-162689476D01*
X145273714Y-163118047D02*
X145797523Y-163118047D01*
X145892761Y-163070428D01*
X145940380Y-162975190D01*
X145940380Y-162832333D01*
X145892761Y-162737095D01*
X145845142Y-162689476D01*
X145940380Y-162213285D02*
X145273714Y-162213285D01*
X145368952Y-162213285D02*
X145321333Y-162165666D01*
X145273714Y-162070428D01*
X145273714Y-161927571D01*
X145321333Y-161832333D01*
X145416571Y-161784714D01*
X145940380Y-161784714D01*
X145416571Y-161784714D02*
X145321333Y-161737095D01*
X145273714Y-161641857D01*
X145273714Y-161499000D01*
X145321333Y-161403761D01*
X145416571Y-161356142D01*
X145940380Y-161356142D01*
X145273714Y-160879952D02*
X146273714Y-160879952D01*
X145321333Y-160879952D02*
X145273714Y-160784714D01*
X145273714Y-160594238D01*
X145321333Y-160499000D01*
X145368952Y-160451380D01*
X145464190Y-160403761D01*
X145749904Y-160403761D01*
X145845142Y-160451380D01*
X145892761Y-160499000D01*
X145940380Y-160594238D01*
X145940380Y-160784714D01*
X145892761Y-160879952D01*
X145892761Y-159594238D02*
X145940380Y-159689476D01*
X145940380Y-159879952D01*
X145892761Y-159975190D01*
X145797523Y-160022809D01*
X145416571Y-160022809D01*
X145321333Y-159975190D01*
X145273714Y-159879952D01*
X145273714Y-159689476D01*
X145321333Y-159594238D01*
X145416571Y-159546619D01*
X145511809Y-159546619D01*
X145607047Y-160022809D01*
X145940380Y-159118047D02*
X145273714Y-159118047D01*
X145464190Y-159118047D02*
X145368952Y-159070428D01*
X145321333Y-159022809D01*
X145273714Y-158927571D01*
X145273714Y-158832333D01*
X145416571Y-157403761D02*
X145464190Y-157260904D01*
X145511809Y-157213285D01*
X145607047Y-157165666D01*
X145749904Y-157165666D01*
X145845142Y-157213285D01*
X145892761Y-157260904D01*
X145940380Y-157356142D01*
X145940380Y-157737095D01*
X144940380Y-157737095D01*
X144940380Y-157403761D01*
X144988000Y-157308523D01*
X145035619Y-157260904D01*
X145130857Y-157213285D01*
X145226095Y-157213285D01*
X145321333Y-157260904D01*
X145368952Y-157308523D01*
X145416571Y-157403761D01*
X145416571Y-157737095D01*
X145940380Y-156594238D02*
X145892761Y-156689476D01*
X145797523Y-156737095D01*
X144940380Y-156737095D01*
X145940380Y-156070428D02*
X145892761Y-156165666D01*
X145845142Y-156213285D01*
X145749904Y-156260904D01*
X145464190Y-156260904D01*
X145368952Y-156213285D01*
X145321333Y-156165666D01*
X145273714Y-156070428D01*
X145273714Y-155927571D01*
X145321333Y-155832333D01*
X145368952Y-155784714D01*
X145464190Y-155737095D01*
X145749904Y-155737095D01*
X145845142Y-155784714D01*
X145892761Y-155832333D01*
X145940380Y-155927571D01*
X145940380Y-156070428D01*
X145892761Y-154879952D02*
X145940380Y-154975190D01*
X145940380Y-155165666D01*
X145892761Y-155260904D01*
X145845142Y-155308523D01*
X145749904Y-155356142D01*
X145464190Y-155356142D01*
X145368952Y-155308523D01*
X145321333Y-155260904D01*
X145273714Y-155165666D01*
X145273714Y-154975190D01*
X145321333Y-154879952D01*
X145940380Y-154451380D02*
X144940380Y-154451380D01*
X145559428Y-154356142D02*
X145940380Y-154070428D01*
X145273714Y-154070428D02*
X145654666Y-154451380D01*
X151294666Y-158451380D02*
X151294666Y-159165666D01*
X151247047Y-159308523D01*
X151151809Y-159403761D01*
X151008952Y-159451380D01*
X150913714Y-159451380D01*
X151723238Y-158546619D02*
X151770857Y-158499000D01*
X151866095Y-158451380D01*
X152104190Y-158451380D01*
X152199428Y-158499000D01*
X152247047Y-158546619D01*
X152294666Y-158641857D01*
X152294666Y-158737095D01*
X152247047Y-158879952D01*
X151675619Y-159451380D01*
X152294666Y-159451380D01*
X147908380Y-104258857D02*
X147908380Y-104163619D01*
X147956000Y-104068380D01*
X148003619Y-104020761D01*
X148098857Y-103973142D01*
X148289333Y-103925523D01*
X148527428Y-103925523D01*
X148717904Y-103973142D01*
X148813142Y-104020761D01*
X148860761Y-104068380D01*
X148908380Y-104163619D01*
X148908380Y-104258857D01*
X148860761Y-104354095D01*
X148813142Y-104401714D01*
X148717904Y-104449333D01*
X148527428Y-104496952D01*
X148289333Y-104496952D01*
X148098857Y-104449333D01*
X148003619Y-104401714D01*
X147956000Y-104354095D01*
X147908380Y-104258857D01*
X148813142Y-103496952D02*
X148860761Y-103449333D01*
X148908380Y-103496952D01*
X148860761Y-103544571D01*
X148813142Y-103496952D01*
X148908380Y-103496952D01*
X148908380Y-102496952D02*
X148908380Y-103068380D01*
X148908380Y-102782666D02*
X147908380Y-102782666D01*
X148051238Y-102877904D01*
X148146476Y-102973142D01*
X148194095Y-103068380D01*
X148241714Y-101639809D02*
X148908380Y-101639809D01*
X148241714Y-102068380D02*
X148765523Y-102068380D01*
X148860761Y-102020761D01*
X148908380Y-101925523D01*
X148908380Y-101782666D01*
X148860761Y-101687428D01*
X148813142Y-101639809D01*
X148384571Y-100830285D02*
X148384571Y-101163619D01*
X148908380Y-101163619D02*
X147908380Y-101163619D01*
X147908380Y-100687428D01*
D11*
X151147428Y-102742666D02*
X151183619Y-102778857D01*
X151219809Y-102887428D01*
X151219809Y-102959809D01*
X151183619Y-103068380D01*
X151111238Y-103140761D01*
X151038857Y-103176952D01*
X150894095Y-103213142D01*
X150785523Y-103213142D01*
X150640761Y-103176952D01*
X150568380Y-103140761D01*
X150496000Y-103068380D01*
X150459809Y-102959809D01*
X150459809Y-102887428D01*
X150496000Y-102778857D01*
X150532190Y-102742666D01*
X150713142Y-102091238D02*
X151219809Y-102091238D01*
X150423619Y-102272190D02*
X150966476Y-102453142D01*
X150966476Y-101982666D01*
D10*
X183954333Y-141338380D02*
X183621000Y-140862190D01*
X183382904Y-141338380D02*
X183382904Y-140338380D01*
X183763857Y-140338380D01*
X183859095Y-140386000D01*
X183906714Y-140433619D01*
X183954333Y-140528857D01*
X183954333Y-140671714D01*
X183906714Y-140766952D01*
X183859095Y-140814571D01*
X183763857Y-140862190D01*
X183382904Y-140862190D01*
X184287666Y-140338380D02*
X184906714Y-140338380D01*
X184573380Y-140719333D01*
X184716238Y-140719333D01*
X184811476Y-140766952D01*
X184859095Y-140814571D01*
X184906714Y-140909809D01*
X184906714Y-141147904D01*
X184859095Y-141243142D01*
X184811476Y-141290761D01*
X184716238Y-141338380D01*
X184430523Y-141338380D01*
X184335285Y-141290761D01*
X184287666Y-141243142D01*
X127539009Y-158860857D02*
X127539009Y-159432285D01*
X127539009Y-159146571D02*
X126539009Y-159146571D01*
X126681867Y-159241809D01*
X126777105Y-159337047D01*
X126824724Y-159432285D01*
X127539009Y-158432285D02*
X126539009Y-158432285D01*
X127539009Y-157860857D01*
X126539009Y-157860857D01*
X126872343Y-156956095D02*
X127539009Y-156956095D01*
X126491390Y-157194190D02*
X127205676Y-157432285D01*
X127205676Y-156813238D01*
X127539009Y-155908476D02*
X127539009Y-156479904D01*
X127539009Y-156194190D02*
X126539009Y-156194190D01*
X126681867Y-156289428D01*
X126777105Y-156384666D01*
X126824724Y-156479904D01*
X126872343Y-155051333D02*
X127539009Y-155051333D01*
X126491390Y-155289428D02*
X127205676Y-155527523D01*
X127205676Y-154908476D01*
X126967581Y-154384666D02*
X126919962Y-154479904D01*
X126872343Y-154527523D01*
X126777105Y-154575142D01*
X126729486Y-154575142D01*
X126634248Y-154527523D01*
X126586629Y-154479904D01*
X126539009Y-154384666D01*
X126539009Y-154194190D01*
X126586629Y-154098952D01*
X126634248Y-154051333D01*
X126729486Y-154003714D01*
X126777105Y-154003714D01*
X126872343Y-154051333D01*
X126919962Y-154098952D01*
X126967581Y-154194190D01*
X126967581Y-154384666D01*
X127015200Y-154479904D01*
X127062819Y-154527523D01*
X127158057Y-154575142D01*
X127348533Y-154575142D01*
X127443771Y-154527523D01*
X127491390Y-154479904D01*
X127539009Y-154384666D01*
X127539009Y-154194190D01*
X127491390Y-154098952D01*
X127443771Y-154051333D01*
X127348533Y-154003714D01*
X127158057Y-154003714D01*
X127062819Y-154051333D01*
X127015200Y-154098952D01*
X126967581Y-154194190D01*
X130754380Y-153909904D02*
X129754380Y-153909904D01*
X130754380Y-153338476D02*
X130182952Y-153767047D01*
X129754380Y-153338476D02*
X130325809Y-153909904D01*
X133080751Y-157456095D02*
X132080751Y-157456095D01*
X132080751Y-157218000D01*
X132128371Y-157075142D01*
X132223609Y-156979904D01*
X132318847Y-156932285D01*
X132509323Y-156884666D01*
X132652180Y-156884666D01*
X132842656Y-156932285D01*
X132937894Y-156979904D01*
X133033132Y-157075142D01*
X133080751Y-157218000D01*
X133080751Y-157456095D01*
X132414085Y-156027523D02*
X133080751Y-156027523D01*
X132033132Y-156265619D02*
X132747418Y-156503714D01*
X132747418Y-155884666D01*
X117919714Y-131925619D02*
X117967333Y-131878000D01*
X118062571Y-131830380D01*
X118300666Y-131830380D01*
X118395904Y-131878000D01*
X118443523Y-131925619D01*
X118491142Y-132020857D01*
X118491142Y-132116095D01*
X118443523Y-132258952D01*
X117872095Y-132830380D01*
X118491142Y-132830380D01*
X118824476Y-131830380D02*
X119491142Y-131830380D01*
X119062571Y-132830380D01*
X120395904Y-132830380D02*
X119824476Y-132830380D01*
X120110190Y-132830380D02*
X120110190Y-131830380D01*
X120014952Y-131973238D01*
X119919714Y-132068476D01*
X119824476Y-132116095D01*
X121253047Y-131830380D02*
X121062571Y-131830380D01*
X120967333Y-131878000D01*
X120919714Y-131925619D01*
X120824476Y-132068476D01*
X120776857Y-132258952D01*
X120776857Y-132639904D01*
X120824476Y-132735142D01*
X120872095Y-132782761D01*
X120967333Y-132830380D01*
X121157809Y-132830380D01*
X121253047Y-132782761D01*
X121300666Y-132735142D01*
X121348285Y-132639904D01*
X121348285Y-132401809D01*
X121300666Y-132306571D01*
X121253047Y-132258952D01*
X121157809Y-132211333D01*
X120967333Y-132211333D01*
X120872095Y-132258952D01*
X120824476Y-132306571D01*
X120776857Y-132401809D01*
X118872095Y-115530380D02*
X118872095Y-116339904D01*
X118919714Y-116435142D01*
X118967333Y-116482761D01*
X119062571Y-116530380D01*
X119253047Y-116530380D01*
X119348285Y-116482761D01*
X119395904Y-116435142D01*
X119443523Y-116339904D01*
X119443523Y-115530380D01*
X120443523Y-116530380D02*
X119872095Y-116530380D01*
X120157809Y-116530380D02*
X120157809Y-115530380D01*
X120062571Y-115673238D01*
X119967333Y-115768476D01*
X119872095Y-115816095D01*
X143002095Y-118070380D02*
X143002095Y-118879904D01*
X143049714Y-118975142D01*
X143097333Y-119022761D01*
X143192571Y-119070380D01*
X143383047Y-119070380D01*
X143478285Y-119022761D01*
X143525904Y-118975142D01*
X143573523Y-118879904D01*
X143573523Y-118070380D01*
X144478285Y-118070380D02*
X144287809Y-118070380D01*
X144192571Y-118118000D01*
X144144952Y-118165619D01*
X144049714Y-118308476D01*
X144002095Y-118498952D01*
X144002095Y-118879904D01*
X144049714Y-118975142D01*
X144097333Y-119022761D01*
X144192571Y-119070380D01*
X144383047Y-119070380D01*
X144478285Y-119022761D01*
X144525904Y-118975142D01*
X144573523Y-118879904D01*
X144573523Y-118641809D01*
X144525904Y-118546571D01*
X144478285Y-118498952D01*
X144383047Y-118451333D01*
X144192571Y-118451333D01*
X144097333Y-118498952D01*
X144049714Y-118546571D01*
X144002095Y-118641809D01*
X106254761Y-140414047D02*
X106302380Y-140509285D01*
X106302380Y-140699761D01*
X106254761Y-140795000D01*
X106159523Y-140842619D01*
X105778571Y-140842619D01*
X105683333Y-140795000D01*
X105635714Y-140699761D01*
X105635714Y-140509285D01*
X105683333Y-140414047D01*
X105778571Y-140366428D01*
X105873809Y-140366428D01*
X105969047Y-140842619D01*
X106302380Y-140033095D02*
X105635714Y-139509285D01*
X105635714Y-140033095D02*
X106302380Y-139509285D01*
X105635714Y-139271190D02*
X105635714Y-138890238D01*
X105302380Y-139128333D02*
X106159523Y-139128333D01*
X106254761Y-139080714D01*
X106302380Y-138985476D01*
X106302380Y-138890238D01*
X106302380Y-138556904D02*
X105635714Y-138556904D01*
X105826190Y-138556904D02*
X105730952Y-138509285D01*
X105683333Y-138461666D01*
X105635714Y-138366428D01*
X105635714Y-138271190D01*
X106302380Y-137509285D02*
X105778571Y-137509285D01*
X105683333Y-137556904D01*
X105635714Y-137652142D01*
X105635714Y-137842619D01*
X105683333Y-137937857D01*
X106254761Y-137509285D02*
X106302380Y-137604523D01*
X106302380Y-137842619D01*
X106254761Y-137937857D01*
X106159523Y-137985476D01*
X106064285Y-137985476D01*
X105969047Y-137937857D01*
X105921428Y-137842619D01*
X105921428Y-137604523D01*
X105873809Y-137509285D01*
X106207142Y-135699761D02*
X106254761Y-135747380D01*
X106302380Y-135890238D01*
X106302380Y-135985476D01*
X106254761Y-136128333D01*
X106159523Y-136223571D01*
X106064285Y-136271190D01*
X105873809Y-136318809D01*
X105730952Y-136318809D01*
X105540476Y-136271190D01*
X105445238Y-136223571D01*
X105350000Y-136128333D01*
X105302380Y-135985476D01*
X105302380Y-135890238D01*
X105350000Y-135747380D01*
X105397619Y-135699761D01*
X106254761Y-135318809D02*
X106302380Y-135175952D01*
X106302380Y-134937857D01*
X106254761Y-134842619D01*
X106207142Y-134795000D01*
X106111904Y-134747380D01*
X106016666Y-134747380D01*
X105921428Y-134795000D01*
X105873809Y-134842619D01*
X105826190Y-134937857D01*
X105778571Y-135128333D01*
X105730952Y-135223571D01*
X105683333Y-135271190D01*
X105588095Y-135318809D01*
X105492857Y-135318809D01*
X105397619Y-135271190D01*
X105350000Y-135223571D01*
X105302380Y-135128333D01*
X105302380Y-134890238D01*
X105350000Y-134747380D01*
X100646666Y-137247380D02*
X100646666Y-137961666D01*
X100599047Y-138104523D01*
X100503809Y-138199761D01*
X100360952Y-138247380D01*
X100265714Y-138247380D01*
X101646666Y-138247380D02*
X101075238Y-138247380D01*
X101360952Y-138247380D02*
X101360952Y-137247380D01*
X101265714Y-137390238D01*
X101170476Y-137485476D01*
X101075238Y-137533095D01*
X153995904Y-108605142D02*
X153948285Y-108652761D01*
X153805428Y-108700380D01*
X153710190Y-108700380D01*
X153567333Y-108652761D01*
X153472095Y-108557523D01*
X153424476Y-108462285D01*
X153376857Y-108271809D01*
X153376857Y-108128952D01*
X153424476Y-107938476D01*
X153472095Y-107843238D01*
X153567333Y-107748000D01*
X153710190Y-107700380D01*
X153805428Y-107700380D01*
X153948285Y-107748000D01*
X153995904Y-107795619D01*
X154567333Y-108700380D02*
X154472095Y-108652761D01*
X154424476Y-108605142D01*
X154376857Y-108509904D01*
X154376857Y-108224190D01*
X154424476Y-108128952D01*
X154472095Y-108081333D01*
X154567333Y-108033714D01*
X154710190Y-108033714D01*
X154805428Y-108081333D01*
X154853047Y-108128952D01*
X154900666Y-108224190D01*
X154900666Y-108509904D01*
X154853047Y-108605142D01*
X154805428Y-108652761D01*
X154710190Y-108700380D01*
X154567333Y-108700380D01*
X155329238Y-108033714D02*
X155329238Y-108700380D01*
X155329238Y-108128952D02*
X155376857Y-108081333D01*
X155472095Y-108033714D01*
X155614952Y-108033714D01*
X155710190Y-108081333D01*
X155757809Y-108176571D01*
X155757809Y-108700380D01*
X156234000Y-108033714D02*
X156234000Y-108700380D01*
X156234000Y-108128952D02*
X156281619Y-108081333D01*
X156376857Y-108033714D01*
X156519714Y-108033714D01*
X156614952Y-108081333D01*
X156662571Y-108176571D01*
X156662571Y-108700380D01*
X156900666Y-108795619D02*
X157662571Y-108795619D01*
X158091142Y-107700380D02*
X158186380Y-107700380D01*
X158281619Y-107748000D01*
X158329238Y-107795619D01*
X158376857Y-107890857D01*
X158424476Y-108081333D01*
X158424476Y-108319428D01*
X158376857Y-108509904D01*
X158329238Y-108605142D01*
X158281619Y-108652761D01*
X158186380Y-108700380D01*
X158091142Y-108700380D01*
X157995904Y-108652761D01*
X157948285Y-108605142D01*
X157900666Y-108509904D01*
X157853047Y-108319428D01*
X157853047Y-108081333D01*
X157900666Y-107890857D01*
X157948285Y-107795619D01*
X157995904Y-107748000D01*
X158091142Y-107700380D01*
X159376857Y-108700380D02*
X158805428Y-108700380D01*
X159091142Y-108700380D02*
X159091142Y-107700380D01*
X158995904Y-107843238D01*
X158900666Y-107938476D01*
X158805428Y-107986095D01*
X159710190Y-108700380D02*
X160234000Y-108033714D01*
X159710190Y-108033714D02*
X160234000Y-108700380D01*
X160805428Y-107700380D02*
X160900666Y-107700380D01*
X160995904Y-107748000D01*
X161043523Y-107795619D01*
X161091142Y-107890857D01*
X161138761Y-108081333D01*
X161138761Y-108319428D01*
X161091142Y-108509904D01*
X161043523Y-108605142D01*
X160995904Y-108652761D01*
X160900666Y-108700380D01*
X160805428Y-108700380D01*
X160710190Y-108652761D01*
X160662571Y-108605142D01*
X160614952Y-108509904D01*
X160567333Y-108319428D01*
X160567333Y-108081333D01*
X160614952Y-107890857D01*
X160662571Y-107795619D01*
X160710190Y-107748000D01*
X160805428Y-107700380D01*
X162091142Y-108700380D02*
X161519714Y-108700380D01*
X161805428Y-108700380D02*
X161805428Y-107700380D01*
X161710190Y-107843238D01*
X161614952Y-107938476D01*
X161519714Y-107986095D01*
X157186380Y-106727523D02*
X157900666Y-106727523D01*
X158043523Y-106775142D01*
X158138761Y-106870380D01*
X158186380Y-107013238D01*
X158186380Y-107108476D01*
X158186380Y-105727523D02*
X158186380Y-106298952D01*
X158186380Y-106013238D02*
X157186380Y-106013238D01*
X157329238Y-106108476D01*
X157424476Y-106203714D01*
X157472095Y-106298952D01*
X157186380Y-104822761D02*
X157186380Y-105298952D01*
X157662571Y-105346571D01*
X157614952Y-105298952D01*
X157567333Y-105203714D01*
X157567333Y-104965619D01*
X157614952Y-104870380D01*
X157662571Y-104822761D01*
X157757809Y-104775142D01*
X157995904Y-104775142D01*
X158091142Y-104822761D01*
X158138761Y-104870380D01*
X158186380Y-104965619D01*
X158186380Y-105203714D01*
X158138761Y-105298952D01*
X158091142Y-105346571D01*
X79018952Y-101934380D02*
X79018952Y-100934380D01*
X79352285Y-101648666D01*
X79685619Y-100934380D01*
X79685619Y-101934380D01*
X80304666Y-101934380D02*
X80209428Y-101886761D01*
X80161809Y-101839142D01*
X80114190Y-101743904D01*
X80114190Y-101458190D01*
X80161809Y-101362952D01*
X80209428Y-101315333D01*
X80304666Y-101267714D01*
X80447523Y-101267714D01*
X80542761Y-101315333D01*
X80590380Y-101362952D01*
X80637999Y-101458190D01*
X80637999Y-101743904D01*
X80590380Y-101839142D01*
X80542761Y-101886761D01*
X80447523Y-101934380D01*
X80304666Y-101934380D01*
X81495142Y-101267714D02*
X81495142Y-101934380D01*
X81066571Y-101267714D02*
X81066571Y-101791523D01*
X81114190Y-101886761D01*
X81209428Y-101934380D01*
X81352285Y-101934380D01*
X81447523Y-101886761D01*
X81495142Y-101839142D01*
X81971333Y-101267714D02*
X81971333Y-101934380D01*
X81971333Y-101362952D02*
X82018952Y-101315333D01*
X82114190Y-101267714D01*
X82257047Y-101267714D01*
X82352285Y-101315333D01*
X82399904Y-101410571D01*
X82399904Y-101934380D01*
X82733238Y-101267714D02*
X83114190Y-101267714D01*
X82876095Y-100934380D02*
X82876095Y-101791523D01*
X82923714Y-101886761D01*
X83018952Y-101934380D01*
X83114190Y-101934380D01*
X83447523Y-101934380D02*
X83447523Y-101267714D01*
X83447523Y-100934380D02*
X83399904Y-100982000D01*
X83447523Y-101029619D01*
X83495142Y-100982000D01*
X83447523Y-100934380D01*
X83447523Y-101029619D01*
X83923714Y-101267714D02*
X83923714Y-101934380D01*
X83923714Y-101362952D02*
X83971333Y-101315333D01*
X84066571Y-101267714D01*
X84209428Y-101267714D01*
X84304666Y-101315333D01*
X84352285Y-101410571D01*
X84352285Y-101934380D01*
X85257047Y-101267714D02*
X85257047Y-102077238D01*
X85209428Y-102172476D01*
X85161809Y-102220095D01*
X85066571Y-102267714D01*
X84923714Y-102267714D01*
X84828476Y-102220095D01*
X85257047Y-101886761D02*
X85161809Y-101934380D01*
X84971333Y-101934380D01*
X84876095Y-101886761D01*
X84828476Y-101839142D01*
X84780857Y-101743904D01*
X84780857Y-101458190D01*
X84828476Y-101362952D01*
X84876095Y-101315333D01*
X84971333Y-101267714D01*
X85161809Y-101267714D01*
X85257047Y-101315333D01*
X85733238Y-101934380D02*
X85733238Y-100934380D01*
X85733238Y-101410571D02*
X86304666Y-101410571D01*
X86304666Y-101934380D02*
X86304666Y-100934380D01*
X86923714Y-101934380D02*
X86828476Y-101886761D01*
X86780857Y-101839142D01*
X86733238Y-101743904D01*
X86733238Y-101458190D01*
X86780857Y-101362952D01*
X86828476Y-101315333D01*
X86923714Y-101267714D01*
X87066571Y-101267714D01*
X87161809Y-101315333D01*
X87209428Y-101362952D01*
X87257047Y-101458190D01*
X87257047Y-101743904D01*
X87209428Y-101839142D01*
X87161809Y-101886761D01*
X87066571Y-101934380D01*
X86923714Y-101934380D01*
X87828476Y-101934380D02*
X87733238Y-101886761D01*
X87685619Y-101791523D01*
X87685619Y-100934380D01*
X88590380Y-101886761D02*
X88495142Y-101934380D01*
X88304666Y-101934380D01*
X88209428Y-101886761D01*
X88161809Y-101791523D01*
X88161809Y-101410571D01*
X88209428Y-101315333D01*
X88304666Y-101267714D01*
X88495142Y-101267714D01*
X88590380Y-101315333D01*
X88637999Y-101410571D01*
X88637999Y-101505809D01*
X88161809Y-101601047D01*
X88828476Y-102029619D02*
X89590380Y-102029619D01*
X89733238Y-100934380D02*
X90352285Y-100934380D01*
X90018952Y-101315333D01*
X90161809Y-101315333D01*
X90257047Y-101362952D01*
X90304666Y-101410571D01*
X90352285Y-101505809D01*
X90352285Y-101743904D01*
X90304666Y-101839142D01*
X90257047Y-101886761D01*
X90161809Y-101934380D01*
X89876095Y-101934380D01*
X89780857Y-101886761D01*
X89733238Y-101839142D01*
X90780857Y-101839142D02*
X90828476Y-101886761D01*
X90780857Y-101934380D01*
X90733238Y-101886761D01*
X90780857Y-101839142D01*
X90780857Y-101934380D01*
X91209428Y-101029619D02*
X91257047Y-100982000D01*
X91352285Y-100934380D01*
X91590380Y-100934380D01*
X91685619Y-100982000D01*
X91733238Y-101029619D01*
X91780857Y-101124857D01*
X91780857Y-101220095D01*
X91733238Y-101362952D01*
X91161809Y-101934380D01*
X91780857Y-101934380D01*
X92209428Y-101934380D02*
X92209428Y-101267714D01*
X92209428Y-101362952D02*
X92257047Y-101315333D01*
X92352285Y-101267714D01*
X92495142Y-101267714D01*
X92590380Y-101315333D01*
X92637999Y-101410571D01*
X92637999Y-101934380D01*
X92637999Y-101410571D02*
X92685619Y-101315333D01*
X92780857Y-101267714D01*
X92923714Y-101267714D01*
X93018952Y-101315333D01*
X93066571Y-101410571D01*
X93066571Y-101934380D01*
X93542761Y-101934380D02*
X93542761Y-101267714D01*
X93542761Y-101362952D02*
X93590380Y-101315333D01*
X93685619Y-101267714D01*
X93828476Y-101267714D01*
X93923714Y-101315333D01*
X93971333Y-101410571D01*
X93971333Y-101934380D01*
X93971333Y-101410571D02*
X94018952Y-101315333D01*
X94114190Y-101267714D01*
X94257047Y-101267714D01*
X94352285Y-101315333D01*
X94399904Y-101410571D01*
X94399904Y-101934380D01*
X94637999Y-102029619D02*
X95399904Y-102029619D01*
X95637999Y-101934380D02*
X95637999Y-100934380D01*
X95971333Y-101648666D01*
X96304666Y-100934380D01*
X96304666Y-101934380D01*
X96685619Y-100934380D02*
X97304666Y-100934380D01*
X96971333Y-101315333D01*
X97114190Y-101315333D01*
X97209428Y-101362952D01*
X97257047Y-101410571D01*
X97304666Y-101505809D01*
X97304666Y-101743904D01*
X97257047Y-101839142D01*
X97209428Y-101886761D01*
X97114190Y-101934380D01*
X96828476Y-101934380D01*
X96733238Y-101886761D01*
X96685619Y-101839142D01*
X87104666Y-97734380D02*
X86771333Y-97258190D01*
X86533238Y-97734380D02*
X86533238Y-96734380D01*
X86914190Y-96734380D01*
X87009428Y-96782000D01*
X87057047Y-96829619D01*
X87104666Y-96924857D01*
X87104666Y-97067714D01*
X87057047Y-97162952D01*
X87009428Y-97210571D01*
X86914190Y-97258190D01*
X86533238Y-97258190D01*
X87533238Y-97210571D02*
X87866571Y-97210571D01*
X88009428Y-97734380D02*
X87533238Y-97734380D01*
X87533238Y-96734380D01*
X88009428Y-96734380D01*
X88771333Y-97210571D02*
X88438000Y-97210571D01*
X88438000Y-97734380D02*
X88438000Y-96734380D01*
X88914190Y-96734380D01*
X89438000Y-96734380D02*
X89438000Y-96972476D01*
X89199904Y-96877238D02*
X89438000Y-96972476D01*
X89676095Y-96877238D01*
X89295142Y-97162952D02*
X89438000Y-96972476D01*
X89580857Y-97162952D01*
X90199904Y-96734380D02*
X90199904Y-96972476D01*
X89961809Y-96877238D02*
X90199904Y-96972476D01*
X90438000Y-96877238D01*
X90057047Y-97162952D02*
X90199904Y-96972476D01*
X90342761Y-97162952D01*
X84313523Y-131830380D02*
X84884952Y-131830380D01*
X84599238Y-132830380D02*
X84599238Y-131830380D01*
X85646857Y-132830380D02*
X85646857Y-132306571D01*
X85599238Y-132211333D01*
X85504000Y-132163714D01*
X85313523Y-132163714D01*
X85218285Y-132211333D01*
X85646857Y-132782761D02*
X85551619Y-132830380D01*
X85313523Y-132830380D01*
X85218285Y-132782761D01*
X85170666Y-132687523D01*
X85170666Y-132592285D01*
X85218285Y-132497047D01*
X85313523Y-132449428D01*
X85551619Y-132449428D01*
X85646857Y-132401809D01*
X86123047Y-132830380D02*
X86123047Y-132163714D01*
X86123047Y-132354190D02*
X86170666Y-132258952D01*
X86218285Y-132211333D01*
X86313523Y-132163714D01*
X86408761Y-132163714D01*
X87170666Y-132163714D02*
X87170666Y-132973238D01*
X87123047Y-133068476D01*
X87075428Y-133116095D01*
X86980190Y-133163714D01*
X86837333Y-133163714D01*
X86742095Y-133116095D01*
X87170666Y-132782761D02*
X87075428Y-132830380D01*
X86884952Y-132830380D01*
X86789714Y-132782761D01*
X86742095Y-132735142D01*
X86694476Y-132639904D01*
X86694476Y-132354190D01*
X86742095Y-132258952D01*
X86789714Y-132211333D01*
X86884952Y-132163714D01*
X87075428Y-132163714D01*
X87170666Y-132211333D01*
X88027809Y-132782761D02*
X87932571Y-132830380D01*
X87742095Y-132830380D01*
X87646857Y-132782761D01*
X87599238Y-132687523D01*
X87599238Y-132306571D01*
X87646857Y-132211333D01*
X87742095Y-132163714D01*
X87932571Y-132163714D01*
X88027809Y-132211333D01*
X88075428Y-132306571D01*
X88075428Y-132401809D01*
X87599238Y-132497047D01*
X88361142Y-132163714D02*
X88742095Y-132163714D01*
X88504000Y-131830380D02*
X88504000Y-132687523D01*
X88551619Y-132782761D01*
X88646857Y-132830380D01*
X88742095Y-132830380D01*
X89837333Y-132830380D02*
X89837333Y-131830380D01*
X90313523Y-132163714D02*
X90313523Y-132830380D01*
X90313523Y-132258952D02*
X90361142Y-132211333D01*
X90456380Y-132163714D01*
X90599238Y-132163714D01*
X90694476Y-132211333D01*
X90742095Y-132306571D01*
X90742095Y-132830380D01*
X91075428Y-132163714D02*
X91456380Y-132163714D01*
X91218285Y-131830380D02*
X91218285Y-132687523D01*
X91265904Y-132782761D01*
X91361142Y-132830380D01*
X91456380Y-132830380D01*
X92170666Y-132782761D02*
X92075428Y-132830380D01*
X91884952Y-132830380D01*
X91789714Y-132782761D01*
X91742095Y-132687523D01*
X91742095Y-132306571D01*
X91789714Y-132211333D01*
X91884952Y-132163714D01*
X92075428Y-132163714D01*
X92170666Y-132211333D01*
X92218285Y-132306571D01*
X92218285Y-132401809D01*
X91742095Y-132497047D01*
X92646857Y-132830380D02*
X92646857Y-132163714D01*
X92646857Y-132354190D02*
X92694476Y-132258952D01*
X92742095Y-132211333D01*
X92837333Y-132163714D01*
X92932571Y-132163714D01*
X93123047Y-132163714D02*
X93504000Y-132163714D01*
X93265904Y-132830380D02*
X93265904Y-131973238D01*
X93313523Y-131878000D01*
X93408761Y-131830380D01*
X93504000Y-131830380D01*
X94265904Y-132830380D02*
X94265904Y-132306571D01*
X94218285Y-132211333D01*
X94123047Y-132163714D01*
X93932571Y-132163714D01*
X93837333Y-132211333D01*
X94265904Y-132782761D02*
X94170666Y-132830380D01*
X93932571Y-132830380D01*
X93837333Y-132782761D01*
X93789714Y-132687523D01*
X93789714Y-132592285D01*
X93837333Y-132497047D01*
X93932571Y-132449428D01*
X94170666Y-132449428D01*
X94265904Y-132401809D01*
X95170666Y-132782761D02*
X95075428Y-132830380D01*
X94884952Y-132830380D01*
X94789714Y-132782761D01*
X94742095Y-132735142D01*
X94694476Y-132639904D01*
X94694476Y-132354190D01*
X94742095Y-132258952D01*
X94789714Y-132211333D01*
X94884952Y-132163714D01*
X95075428Y-132163714D01*
X95170666Y-132211333D01*
X95980190Y-132782761D02*
X95884952Y-132830380D01*
X95694476Y-132830380D01*
X95599238Y-132782761D01*
X95551619Y-132687523D01*
X95551619Y-132306571D01*
X95599238Y-132211333D01*
X95694476Y-132163714D01*
X95884952Y-132163714D01*
X95980190Y-132211333D01*
X96027809Y-132306571D01*
X96027809Y-132401809D01*
X95551619Y-132497047D01*
X96504000Y-132782761D02*
X96504000Y-132830380D01*
X96456380Y-132925619D01*
X96408761Y-132973238D01*
X97646857Y-131925619D02*
X97694476Y-131878000D01*
X97789714Y-131830380D01*
X98027809Y-131830380D01*
X98123047Y-131878000D01*
X98170666Y-131925619D01*
X98218285Y-132020857D01*
X98218285Y-132116095D01*
X98170666Y-132258952D01*
X97599238Y-132830380D01*
X98218285Y-132830380D01*
X98551619Y-131830380D02*
X99218285Y-131830380D01*
X98789714Y-132830380D01*
X100123047Y-132830380D02*
X99551619Y-132830380D01*
X99837333Y-132830380D02*
X99837333Y-131830380D01*
X99742095Y-131973238D01*
X99646857Y-132068476D01*
X99551619Y-132116095D01*
X100980190Y-131830380D02*
X100789714Y-131830380D01*
X100694476Y-131878000D01*
X100646857Y-131925619D01*
X100551619Y-132068476D01*
X100504000Y-132258952D01*
X100504000Y-132639904D01*
X100551619Y-132735142D01*
X100599238Y-132782761D01*
X100694476Y-132830380D01*
X100884952Y-132830380D01*
X100980190Y-132782761D01*
X101027809Y-132735142D01*
X101075428Y-132639904D01*
X101075428Y-132401809D01*
X101027809Y-132306571D01*
X100980190Y-132258952D01*
X100884952Y-132211333D01*
X100694476Y-132211333D01*
X100599238Y-132258952D01*
X100551619Y-132306571D01*
X100504000Y-132401809D01*
X102265904Y-132830380D02*
X102265904Y-131830380D01*
X102646857Y-131830380D01*
X102742095Y-131878000D01*
X102789714Y-131925619D01*
X102837333Y-132020857D01*
X102837333Y-132163714D01*
X102789714Y-132258952D01*
X102742095Y-132306571D01*
X102646857Y-132354190D01*
X102265904Y-132354190D01*
X103265904Y-132830380D02*
X103265904Y-132163714D01*
X103265904Y-131830380D02*
X103218285Y-131878000D01*
X103265904Y-131925619D01*
X103313523Y-131878000D01*
X103265904Y-131830380D01*
X103265904Y-131925619D01*
X103742095Y-132163714D02*
X103742095Y-132830380D01*
X103742095Y-132258952D02*
X103789714Y-132211333D01*
X103884952Y-132163714D01*
X104027809Y-132163714D01*
X104123047Y-132211333D01*
X104170666Y-132306571D01*
X104170666Y-132830380D01*
X104789714Y-132830380D02*
X104694476Y-132782761D01*
X104646857Y-132735142D01*
X104599238Y-132639904D01*
X104599238Y-132354190D01*
X104646857Y-132258952D01*
X104694476Y-132211333D01*
X104789714Y-132163714D01*
X104932571Y-132163714D01*
X105027809Y-132211333D01*
X105075428Y-132258952D01*
X105123047Y-132354190D01*
X105123047Y-132639904D01*
X105075428Y-132735142D01*
X105027809Y-132782761D01*
X104932571Y-132830380D01*
X104789714Y-132830380D01*
X105980190Y-132163714D02*
X105980190Y-132830380D01*
X105551619Y-132163714D02*
X105551619Y-132687523D01*
X105599238Y-132782761D01*
X105694476Y-132830380D01*
X105837333Y-132830380D01*
X105932571Y-132782761D01*
X105980190Y-132735142D01*
X106313523Y-132163714D02*
X106694476Y-132163714D01*
X106456380Y-131830380D02*
X106456380Y-132687523D01*
X106504000Y-132782761D01*
X106599238Y-132830380D01*
X106694476Y-132830380D01*
X94956380Y-116411333D02*
X95670666Y-116411333D01*
X95813523Y-116458952D01*
X95908761Y-116554190D01*
X95956380Y-116697047D01*
X95956380Y-116792285D01*
X95289714Y-115506571D02*
X95956380Y-115506571D01*
X94908761Y-115744666D02*
X95623047Y-115982761D01*
X95623047Y-115363714D01*
X160078333Y-153784380D02*
X159745000Y-153308190D01*
X159506904Y-153784380D02*
X159506904Y-152784380D01*
X159887857Y-152784380D01*
X159983095Y-152832000D01*
X160030714Y-152879619D01*
X160078333Y-152974857D01*
X160078333Y-153117714D01*
X160030714Y-153212952D01*
X159983095Y-153260571D01*
X159887857Y-153308190D01*
X159506904Y-153308190D01*
X161030714Y-153784380D02*
X160459285Y-153784380D01*
X160745000Y-153784380D02*
X160745000Y-152784380D01*
X160649761Y-152927238D01*
X160554523Y-153022476D01*
X160459285Y-153070095D01*
X164750761Y-149145619D02*
X164655523Y-149098000D01*
X164560285Y-149002761D01*
X164417428Y-148859904D01*
X164322190Y-148812285D01*
X164226952Y-148812285D01*
X164274571Y-149050380D02*
X164179333Y-149002761D01*
X164084095Y-148907523D01*
X164036476Y-148717047D01*
X164036476Y-148383714D01*
X164084095Y-148193238D01*
X164179333Y-148098000D01*
X164274571Y-148050380D01*
X164465047Y-148050380D01*
X164560285Y-148098000D01*
X164655523Y-148193238D01*
X164703142Y-148383714D01*
X164703142Y-148717047D01*
X164655523Y-148907523D01*
X164560285Y-149002761D01*
X164465047Y-149050380D01*
X164274571Y-149050380D01*
X165655523Y-149050380D02*
X165084095Y-149050380D01*
X165369809Y-149050380D02*
X165369809Y-148050380D01*
X165274571Y-148193238D01*
X165179333Y-148288476D01*
X165084095Y-148336095D01*
X103155009Y-158860857D02*
X103155009Y-159432285D01*
X103155009Y-159146571D02*
X102155009Y-159146571D01*
X102297867Y-159241809D01*
X102393105Y-159337047D01*
X102440724Y-159432285D01*
X103155009Y-158432285D02*
X102155009Y-158432285D01*
X103155009Y-157860857D01*
X102155009Y-157860857D01*
X102488343Y-156956095D02*
X103155009Y-156956095D01*
X102107390Y-157194190D02*
X102821676Y-157432285D01*
X102821676Y-156813238D01*
X103155009Y-155908476D02*
X103155009Y-156479904D01*
X103155009Y-156194190D02*
X102155009Y-156194190D01*
X102297867Y-156289428D01*
X102393105Y-156384666D01*
X102440724Y-156479904D01*
X102488343Y-155051333D02*
X103155009Y-155051333D01*
X102107390Y-155289428D02*
X102821676Y-155527523D01*
X102821676Y-154908476D01*
X102583581Y-154384666D02*
X102535962Y-154479904D01*
X102488343Y-154527523D01*
X102393105Y-154575142D01*
X102345486Y-154575142D01*
X102250248Y-154527523D01*
X102202629Y-154479904D01*
X102155009Y-154384666D01*
X102155009Y-154194190D01*
X102202629Y-154098952D01*
X102250248Y-154051333D01*
X102345486Y-154003714D01*
X102393105Y-154003714D01*
X102488343Y-154051333D01*
X102535962Y-154098952D01*
X102583581Y-154194190D01*
X102583581Y-154384666D01*
X102631200Y-154479904D01*
X102678819Y-154527523D01*
X102774057Y-154575142D01*
X102964533Y-154575142D01*
X103059771Y-154527523D01*
X103107390Y-154479904D01*
X103155009Y-154384666D01*
X103155009Y-154194190D01*
X103107390Y-154098952D01*
X103059771Y-154051333D01*
X102964533Y-154003714D01*
X102774057Y-154003714D01*
X102678819Y-154051333D01*
X102631200Y-154098952D01*
X102583581Y-154194190D01*
X106084666Y-160026095D02*
X106084666Y-159549904D01*
X106370380Y-160121333D02*
X105370380Y-159788000D01*
X106370380Y-159454666D01*
X106370380Y-153909904D02*
X105370380Y-153909904D01*
X106370380Y-153338476D02*
X105798952Y-153767047D01*
X105370380Y-153338476D02*
X105941809Y-153909904D01*
X108696751Y-157932285D02*
X107696751Y-157932285D01*
X107696751Y-157694190D01*
X107744371Y-157551333D01*
X107839609Y-157456095D01*
X107934847Y-157408476D01*
X108125323Y-157360857D01*
X108268180Y-157360857D01*
X108458656Y-157408476D01*
X108553894Y-157456095D01*
X108649132Y-157551333D01*
X108696751Y-157694190D01*
X108696751Y-157932285D01*
X108696751Y-156408476D02*
X108696751Y-156979904D01*
X108696751Y-156694190D02*
X107696751Y-156694190D01*
X107839609Y-156789428D01*
X107934847Y-156884666D01*
X107982466Y-156979904D01*
X108696751Y-155456095D02*
X108696751Y-156027523D01*
X108696751Y-155741809D02*
X107696751Y-155741809D01*
X107839609Y-155837047D01*
X107934847Y-155932285D01*
X107982466Y-156027523D01*
X95535009Y-158860857D02*
X95535009Y-159432285D01*
X95535009Y-159146571D02*
X94535009Y-159146571D01*
X94677867Y-159241809D01*
X94773105Y-159337047D01*
X94820724Y-159432285D01*
X95535009Y-158432285D02*
X94535009Y-158432285D01*
X95535009Y-157860857D01*
X94535009Y-157860857D01*
X94868343Y-156956095D02*
X95535009Y-156956095D01*
X94487390Y-157194190D02*
X95201676Y-157432285D01*
X95201676Y-156813238D01*
X95535009Y-155908476D02*
X95535009Y-156479904D01*
X95535009Y-156194190D02*
X94535009Y-156194190D01*
X94677867Y-156289428D01*
X94773105Y-156384666D01*
X94820724Y-156479904D01*
X94868343Y-155051333D02*
X95535009Y-155051333D01*
X94487390Y-155289428D02*
X95201676Y-155527523D01*
X95201676Y-154908476D01*
X94963581Y-154384666D02*
X94915962Y-154479904D01*
X94868343Y-154527523D01*
X94773105Y-154575142D01*
X94725486Y-154575142D01*
X94630248Y-154527523D01*
X94582629Y-154479904D01*
X94535009Y-154384666D01*
X94535009Y-154194190D01*
X94582629Y-154098952D01*
X94630248Y-154051333D01*
X94725486Y-154003714D01*
X94773105Y-154003714D01*
X94868343Y-154051333D01*
X94915962Y-154098952D01*
X94963581Y-154194190D01*
X94963581Y-154384666D01*
X95011200Y-154479904D01*
X95058819Y-154527523D01*
X95154057Y-154575142D01*
X95344533Y-154575142D01*
X95439771Y-154527523D01*
X95487390Y-154479904D01*
X95535009Y-154384666D01*
X95535009Y-154194190D01*
X95487390Y-154098952D01*
X95439771Y-154051333D01*
X95344533Y-154003714D01*
X95154057Y-154003714D01*
X95058819Y-154051333D01*
X95011200Y-154098952D01*
X94963581Y-154194190D01*
X101076751Y-157932285D02*
X100076751Y-157932285D01*
X100076751Y-157694190D01*
X100124371Y-157551333D01*
X100219609Y-157456095D01*
X100314847Y-157408476D01*
X100505323Y-157360857D01*
X100648180Y-157360857D01*
X100838656Y-157408476D01*
X100933894Y-157456095D01*
X101029132Y-157551333D01*
X101076751Y-157694190D01*
X101076751Y-157932285D01*
X101076751Y-156408476D02*
X101076751Y-156979904D01*
X101076751Y-156694190D02*
X100076751Y-156694190D01*
X100219609Y-156789428D01*
X100314847Y-156884666D01*
X100362466Y-156979904D01*
X100410085Y-155551333D02*
X101076751Y-155551333D01*
X100029132Y-155789428D02*
X100743418Y-156027523D01*
X100743418Y-155408476D01*
X98750380Y-153909904D02*
X97750380Y-153909904D01*
X98750380Y-153338476D02*
X98178952Y-153767047D01*
X97750380Y-153338476D02*
X98321809Y-153909904D01*
X129611904Y-106573142D02*
X129564285Y-106620761D01*
X129421428Y-106668380D01*
X129326190Y-106668380D01*
X129183333Y-106620761D01*
X129088095Y-106525523D01*
X129040476Y-106430285D01*
X128992857Y-106239809D01*
X128992857Y-106096952D01*
X129040476Y-105906476D01*
X129088095Y-105811238D01*
X129183333Y-105716000D01*
X129326190Y-105668380D01*
X129421428Y-105668380D01*
X129564285Y-105716000D01*
X129611904Y-105763619D01*
X130183333Y-106668380D02*
X130088095Y-106620761D01*
X130040476Y-106573142D01*
X129992857Y-106477904D01*
X129992857Y-106192190D01*
X130040476Y-106096952D01*
X130088095Y-106049333D01*
X130183333Y-106001714D01*
X130326190Y-106001714D01*
X130421428Y-106049333D01*
X130469047Y-106096952D01*
X130516666Y-106192190D01*
X130516666Y-106477904D01*
X130469047Y-106573142D01*
X130421428Y-106620761D01*
X130326190Y-106668380D01*
X130183333Y-106668380D01*
X130945238Y-106001714D02*
X130945238Y-106668380D01*
X130945238Y-106096952D02*
X130992857Y-106049333D01*
X131088095Y-106001714D01*
X131230952Y-106001714D01*
X131326190Y-106049333D01*
X131373809Y-106144571D01*
X131373809Y-106668380D01*
X131850000Y-106001714D02*
X131850000Y-106668380D01*
X131850000Y-106096952D02*
X131897619Y-106049333D01*
X131992857Y-106001714D01*
X132135714Y-106001714D01*
X132230952Y-106049333D01*
X132278571Y-106144571D01*
X132278571Y-106668380D01*
X132516666Y-106763619D02*
X133278571Y-106763619D01*
X133707142Y-105668380D02*
X133802380Y-105668380D01*
X133897619Y-105716000D01*
X133945238Y-105763619D01*
X133992857Y-105858857D01*
X134040476Y-106049333D01*
X134040476Y-106287428D01*
X133992857Y-106477904D01*
X133945238Y-106573142D01*
X133897619Y-106620761D01*
X133802380Y-106668380D01*
X133707142Y-106668380D01*
X133611904Y-106620761D01*
X133564285Y-106573142D01*
X133516666Y-106477904D01*
X133469047Y-106287428D01*
X133469047Y-106049333D01*
X133516666Y-105858857D01*
X133564285Y-105763619D01*
X133611904Y-105716000D01*
X133707142Y-105668380D01*
X134992857Y-106668380D02*
X134421428Y-106668380D01*
X134707142Y-106668380D02*
X134707142Y-105668380D01*
X134611904Y-105811238D01*
X134516666Y-105906476D01*
X134421428Y-105954095D01*
X135326190Y-106668380D02*
X135850000Y-106001714D01*
X135326190Y-106001714D02*
X135850000Y-106668380D01*
X136421428Y-105668380D02*
X136516666Y-105668380D01*
X136611904Y-105716000D01*
X136659523Y-105763619D01*
X136707142Y-105858857D01*
X136754761Y-106049333D01*
X136754761Y-106287428D01*
X136707142Y-106477904D01*
X136659523Y-106573142D01*
X136611904Y-106620761D01*
X136516666Y-106668380D01*
X136421428Y-106668380D01*
X136326190Y-106620761D01*
X136278571Y-106573142D01*
X136230952Y-106477904D01*
X136183333Y-106287428D01*
X136183333Y-106049333D01*
X136230952Y-105858857D01*
X136278571Y-105763619D01*
X136326190Y-105716000D01*
X136421428Y-105668380D01*
X137707142Y-106668380D02*
X137135714Y-106668380D01*
X137421428Y-106668380D02*
X137421428Y-105668380D01*
X137326190Y-105811238D01*
X137230952Y-105906476D01*
X137135714Y-105954095D01*
X132802380Y-104695523D02*
X133516666Y-104695523D01*
X133659523Y-104743142D01*
X133754761Y-104838380D01*
X133802380Y-104981238D01*
X133802380Y-105076476D01*
X133802380Y-103695523D02*
X133802380Y-104266952D01*
X133802380Y-103981238D02*
X132802380Y-103981238D01*
X132945238Y-104076476D01*
X133040476Y-104171714D01*
X133088095Y-104266952D01*
X133135714Y-102838380D02*
X133802380Y-102838380D01*
X132754761Y-103076476D02*
X133469047Y-103314571D01*
X133469047Y-102695523D01*
X79018952Y-169752380D02*
X79018952Y-168752380D01*
X79352285Y-169466666D01*
X79685619Y-168752380D01*
X79685619Y-169752380D01*
X80304666Y-169752380D02*
X80209428Y-169704761D01*
X80161809Y-169657142D01*
X80114190Y-169561904D01*
X80114190Y-169276190D01*
X80161809Y-169180952D01*
X80209428Y-169133333D01*
X80304666Y-169085714D01*
X80447523Y-169085714D01*
X80542761Y-169133333D01*
X80590380Y-169180952D01*
X80637999Y-169276190D01*
X80637999Y-169561904D01*
X80590380Y-169657142D01*
X80542761Y-169704761D01*
X80447523Y-169752380D01*
X80304666Y-169752380D01*
X81495142Y-169085714D02*
X81495142Y-169752380D01*
X81066571Y-169085714D02*
X81066571Y-169609523D01*
X81114190Y-169704761D01*
X81209428Y-169752380D01*
X81352285Y-169752380D01*
X81447523Y-169704761D01*
X81495142Y-169657142D01*
X81971333Y-169085714D02*
X81971333Y-169752380D01*
X81971333Y-169180952D02*
X82018952Y-169133333D01*
X82114190Y-169085714D01*
X82257047Y-169085714D01*
X82352285Y-169133333D01*
X82399904Y-169228571D01*
X82399904Y-169752380D01*
X82733238Y-169085714D02*
X83114190Y-169085714D01*
X82876095Y-168752380D02*
X82876095Y-169609523D01*
X82923714Y-169704761D01*
X83018952Y-169752380D01*
X83114190Y-169752380D01*
X83447523Y-169752380D02*
X83447523Y-169085714D01*
X83447523Y-168752380D02*
X83399904Y-168800000D01*
X83447523Y-168847619D01*
X83495142Y-168800000D01*
X83447523Y-168752380D01*
X83447523Y-168847619D01*
X83923714Y-169085714D02*
X83923714Y-169752380D01*
X83923714Y-169180952D02*
X83971333Y-169133333D01*
X84066571Y-169085714D01*
X84209428Y-169085714D01*
X84304666Y-169133333D01*
X84352285Y-169228571D01*
X84352285Y-169752380D01*
X85257047Y-169085714D02*
X85257047Y-169895238D01*
X85209428Y-169990476D01*
X85161809Y-170038095D01*
X85066571Y-170085714D01*
X84923714Y-170085714D01*
X84828476Y-170038095D01*
X85257047Y-169704761D02*
X85161809Y-169752380D01*
X84971333Y-169752380D01*
X84876095Y-169704761D01*
X84828476Y-169657142D01*
X84780857Y-169561904D01*
X84780857Y-169276190D01*
X84828476Y-169180952D01*
X84876095Y-169133333D01*
X84971333Y-169085714D01*
X85161809Y-169085714D01*
X85257047Y-169133333D01*
X85733238Y-169752380D02*
X85733238Y-168752380D01*
X85733238Y-169228571D02*
X86304666Y-169228571D01*
X86304666Y-169752380D02*
X86304666Y-168752380D01*
X86923714Y-169752380D02*
X86828476Y-169704761D01*
X86780857Y-169657142D01*
X86733238Y-169561904D01*
X86733238Y-169276190D01*
X86780857Y-169180952D01*
X86828476Y-169133333D01*
X86923714Y-169085714D01*
X87066571Y-169085714D01*
X87161809Y-169133333D01*
X87209428Y-169180952D01*
X87257047Y-169276190D01*
X87257047Y-169561904D01*
X87209428Y-169657142D01*
X87161809Y-169704761D01*
X87066571Y-169752380D01*
X86923714Y-169752380D01*
X87828476Y-169752380D02*
X87733238Y-169704761D01*
X87685619Y-169609523D01*
X87685619Y-168752380D01*
X88590380Y-169704761D02*
X88495142Y-169752380D01*
X88304666Y-169752380D01*
X88209428Y-169704761D01*
X88161809Y-169609523D01*
X88161809Y-169228571D01*
X88209428Y-169133333D01*
X88304666Y-169085714D01*
X88495142Y-169085714D01*
X88590380Y-169133333D01*
X88637999Y-169228571D01*
X88637999Y-169323809D01*
X88161809Y-169419047D01*
X88828476Y-169847619D02*
X89590380Y-169847619D01*
X89733238Y-168752380D02*
X90352285Y-168752380D01*
X90018952Y-169133333D01*
X90161809Y-169133333D01*
X90257047Y-169180952D01*
X90304666Y-169228571D01*
X90352285Y-169323809D01*
X90352285Y-169561904D01*
X90304666Y-169657142D01*
X90257047Y-169704761D01*
X90161809Y-169752380D01*
X89876095Y-169752380D01*
X89780857Y-169704761D01*
X89733238Y-169657142D01*
X90780857Y-169657142D02*
X90828476Y-169704761D01*
X90780857Y-169752380D01*
X90733238Y-169704761D01*
X90780857Y-169657142D01*
X90780857Y-169752380D01*
X91209428Y-168847619D02*
X91257047Y-168800000D01*
X91352285Y-168752380D01*
X91590380Y-168752380D01*
X91685619Y-168800000D01*
X91733238Y-168847619D01*
X91780857Y-168942857D01*
X91780857Y-169038095D01*
X91733238Y-169180952D01*
X91161809Y-169752380D01*
X91780857Y-169752380D01*
X92209428Y-169752380D02*
X92209428Y-169085714D01*
X92209428Y-169180952D02*
X92257047Y-169133333D01*
X92352285Y-169085714D01*
X92495142Y-169085714D01*
X92590380Y-169133333D01*
X92637999Y-169228571D01*
X92637999Y-169752380D01*
X92637999Y-169228571D02*
X92685619Y-169133333D01*
X92780857Y-169085714D01*
X92923714Y-169085714D01*
X93018952Y-169133333D01*
X93066571Y-169228571D01*
X93066571Y-169752380D01*
X93542761Y-169752380D02*
X93542761Y-169085714D01*
X93542761Y-169180952D02*
X93590380Y-169133333D01*
X93685619Y-169085714D01*
X93828476Y-169085714D01*
X93923714Y-169133333D01*
X93971333Y-169228571D01*
X93971333Y-169752380D01*
X93971333Y-169228571D02*
X94018952Y-169133333D01*
X94114190Y-169085714D01*
X94257047Y-169085714D01*
X94352285Y-169133333D01*
X94399904Y-169228571D01*
X94399904Y-169752380D01*
X94637999Y-169847619D02*
X95399904Y-169847619D01*
X95637999Y-169752380D02*
X95637999Y-168752380D01*
X95971333Y-169466666D01*
X96304666Y-168752380D01*
X96304666Y-169752380D01*
X96685619Y-168752380D02*
X97304666Y-168752380D01*
X96971333Y-169133333D01*
X97114190Y-169133333D01*
X97209428Y-169180952D01*
X97257047Y-169228571D01*
X97304666Y-169323809D01*
X97304666Y-169561904D01*
X97257047Y-169657142D01*
X97209428Y-169704761D01*
X97114190Y-169752380D01*
X96828476Y-169752380D01*
X96733238Y-169704761D01*
X96685619Y-169657142D01*
X87104666Y-165552380D02*
X86771333Y-165076190D01*
X86533238Y-165552380D02*
X86533238Y-164552380D01*
X86914190Y-164552380D01*
X87009428Y-164600000D01*
X87057047Y-164647619D01*
X87104666Y-164742857D01*
X87104666Y-164885714D01*
X87057047Y-164980952D01*
X87009428Y-165028571D01*
X86914190Y-165076190D01*
X86533238Y-165076190D01*
X87533238Y-165028571D02*
X87866571Y-165028571D01*
X88009428Y-165552380D02*
X87533238Y-165552380D01*
X87533238Y-164552380D01*
X88009428Y-164552380D01*
X88771333Y-165028571D02*
X88438000Y-165028571D01*
X88438000Y-165552380D02*
X88438000Y-164552380D01*
X88914190Y-164552380D01*
X89438000Y-164552380D02*
X89438000Y-164790476D01*
X89199904Y-164695238D02*
X89438000Y-164790476D01*
X89676095Y-164695238D01*
X89295142Y-164980952D02*
X89438000Y-164790476D01*
X89580857Y-164980952D01*
X90199904Y-164552380D02*
X90199904Y-164790476D01*
X89961809Y-164695238D02*
X90199904Y-164790476D01*
X90438000Y-164695238D01*
X90057047Y-164980952D02*
X90199904Y-164790476D01*
X90342761Y-164980952D01*
X141041380Y-150730857D02*
X141041380Y-150635619D01*
X141089000Y-150540380D01*
X141136619Y-150492761D01*
X141231857Y-150445142D01*
X141422333Y-150397523D01*
X141660428Y-150397523D01*
X141850904Y-150445142D01*
X141946142Y-150492761D01*
X141993761Y-150540380D01*
X142041380Y-150635619D01*
X142041380Y-150730857D01*
X141993761Y-150826095D01*
X141946142Y-150873714D01*
X141850904Y-150921333D01*
X141660428Y-150968952D01*
X141422333Y-150968952D01*
X141231857Y-150921333D01*
X141136619Y-150873714D01*
X141089000Y-150826095D01*
X141041380Y-150730857D01*
X141946142Y-149968952D02*
X141993761Y-149921333D01*
X142041380Y-149968952D01*
X141993761Y-150016571D01*
X141946142Y-149968952D01*
X142041380Y-149968952D01*
X142041380Y-148968952D02*
X142041380Y-149540380D01*
X142041380Y-149254666D02*
X141041380Y-149254666D01*
X141184238Y-149349904D01*
X141279476Y-149445142D01*
X141327095Y-149540380D01*
X141374714Y-148111809D02*
X142041380Y-148111809D01*
X141374714Y-148540380D02*
X141898523Y-148540380D01*
X141993761Y-148492761D01*
X142041380Y-148397523D01*
X142041380Y-148254666D01*
X141993761Y-148159428D01*
X141946142Y-148111809D01*
X141517571Y-147302285D02*
X141517571Y-147635619D01*
X142041380Y-147635619D02*
X141041380Y-147635619D01*
X141041380Y-147159428D01*
D11*
X139440428Y-149214666D02*
X139476619Y-149250857D01*
X139512809Y-149359428D01*
X139512809Y-149431809D01*
X139476619Y-149540380D01*
X139404238Y-149612761D01*
X139331857Y-149648952D01*
X139187095Y-149685142D01*
X139078523Y-149685142D01*
X138933761Y-149648952D01*
X138861380Y-149612761D01*
X138789000Y-149540380D01*
X138752809Y-149431809D01*
X138752809Y-149359428D01*
X138789000Y-149250857D01*
X138825190Y-149214666D01*
X138825190Y-148925142D02*
X138789000Y-148888952D01*
X138752809Y-148816571D01*
X138752809Y-148635619D01*
X138789000Y-148563238D01*
X138825190Y-148527047D01*
X138897571Y-148490857D01*
X138969952Y-148490857D01*
X139078523Y-148527047D01*
X139512809Y-148961333D01*
X139512809Y-148490857D01*
D10*
X180741142Y-167314095D02*
X180788761Y-167361714D01*
X180836380Y-167504571D01*
X180836380Y-167599809D01*
X180788761Y-167742666D01*
X180693523Y-167837904D01*
X180598285Y-167885523D01*
X180407809Y-167933142D01*
X180264952Y-167933142D01*
X180074476Y-167885523D01*
X179979238Y-167837904D01*
X179884000Y-167742666D01*
X179836380Y-167599809D01*
X179836380Y-167504571D01*
X179884000Y-167361714D01*
X179931619Y-167314095D01*
X180836380Y-166742666D02*
X180788761Y-166837904D01*
X180741142Y-166885523D01*
X180645904Y-166933142D01*
X180360190Y-166933142D01*
X180264952Y-166885523D01*
X180217333Y-166837904D01*
X180169714Y-166742666D01*
X180169714Y-166599809D01*
X180217333Y-166504571D01*
X180264952Y-166456952D01*
X180360190Y-166409333D01*
X180645904Y-166409333D01*
X180741142Y-166456952D01*
X180788761Y-166504571D01*
X180836380Y-166599809D01*
X180836380Y-166742666D01*
X180169714Y-165980761D02*
X180836380Y-165980761D01*
X180264952Y-165980761D02*
X180217333Y-165933142D01*
X180169714Y-165837904D01*
X180169714Y-165695047D01*
X180217333Y-165599809D01*
X180312571Y-165552190D01*
X180836380Y-165552190D01*
X180169714Y-165076000D02*
X180836380Y-165076000D01*
X180264952Y-165076000D02*
X180217333Y-165028380D01*
X180169714Y-164933142D01*
X180169714Y-164790285D01*
X180217333Y-164695047D01*
X180312571Y-164647428D01*
X180836380Y-164647428D01*
X180931619Y-164409333D02*
X180931619Y-163647428D01*
X179836380Y-163218857D02*
X179836380Y-163123619D01*
X179884000Y-163028380D01*
X179931619Y-162980761D01*
X180026857Y-162933142D01*
X180217333Y-162885523D01*
X180455428Y-162885523D01*
X180645904Y-162933142D01*
X180741142Y-162980761D01*
X180788761Y-163028380D01*
X180836380Y-163123619D01*
X180836380Y-163218857D01*
X180788761Y-163314095D01*
X180741142Y-163361714D01*
X180645904Y-163409333D01*
X180455428Y-163456952D01*
X180217333Y-163456952D01*
X180026857Y-163409333D01*
X179931619Y-163361714D01*
X179884000Y-163314095D01*
X179836380Y-163218857D01*
X180836380Y-161933142D02*
X180836380Y-162504571D01*
X180836380Y-162218857D02*
X179836380Y-162218857D01*
X179979238Y-162314095D01*
X180074476Y-162409333D01*
X180122095Y-162504571D01*
X180836380Y-161599809D02*
X180169714Y-161076000D01*
X180169714Y-161599809D02*
X180836380Y-161076000D01*
X179836380Y-160504571D02*
X179836380Y-160409333D01*
X179884000Y-160314095D01*
X179931619Y-160266476D01*
X180026857Y-160218857D01*
X180217333Y-160171238D01*
X180455428Y-160171238D01*
X180645904Y-160218857D01*
X180741142Y-160266476D01*
X180788761Y-160314095D01*
X180836380Y-160409333D01*
X180836380Y-160504571D01*
X180788761Y-160599809D01*
X180741142Y-160647428D01*
X180645904Y-160695047D01*
X180455428Y-160742666D01*
X180217333Y-160742666D01*
X180026857Y-160695047D01*
X179931619Y-160647428D01*
X179884000Y-160599809D01*
X179836380Y-160504571D01*
X180836380Y-159218857D02*
X180836380Y-159790285D01*
X180836380Y-159504571D02*
X179836380Y-159504571D01*
X179979238Y-159599809D01*
X180074476Y-159695047D01*
X180122095Y-159790285D01*
X177720666Y-163028380D02*
X177720666Y-163742666D01*
X177673047Y-163885523D01*
X177577809Y-163980761D01*
X177434952Y-164028380D01*
X177339714Y-164028380D01*
X178101619Y-163028380D02*
X178768285Y-163028380D01*
X178339714Y-164028380D01*
X174664666Y-118824285D02*
X174664666Y-118348095D01*
X174950380Y-118919523D02*
X173950380Y-118586190D01*
X174950380Y-118252857D01*
X174950380Y-117395714D02*
X174950380Y-117967142D01*
X174950380Y-117681428D02*
X173950380Y-117681428D01*
X174093238Y-117776666D01*
X174188476Y-117871904D01*
X174236095Y-117967142D01*
X160332333Y-158610380D02*
X159999000Y-158134190D01*
X159760904Y-158610380D02*
X159760904Y-157610380D01*
X160141857Y-157610380D01*
X160237095Y-157658000D01*
X160284714Y-157705619D01*
X160332333Y-157800857D01*
X160332333Y-157943714D01*
X160284714Y-158038952D01*
X160237095Y-158086571D01*
X160141857Y-158134190D01*
X159760904Y-158134190D01*
X161189476Y-157943714D02*
X161189476Y-158610380D01*
X160951380Y-157562761D02*
X160713285Y-158277047D01*
X161332333Y-158277047D01*
X92527904Y-101493142D02*
X92480285Y-101540761D01*
X92337428Y-101588380D01*
X92242190Y-101588380D01*
X92099333Y-101540761D01*
X92004095Y-101445523D01*
X91956476Y-101350285D01*
X91908857Y-101159809D01*
X91908857Y-101016952D01*
X91956476Y-100826476D01*
X92004095Y-100731238D01*
X92099333Y-100636000D01*
X92242190Y-100588380D01*
X92337428Y-100588380D01*
X92480285Y-100636000D01*
X92527904Y-100683619D01*
X93099333Y-101588380D02*
X93004095Y-101540761D01*
X92956476Y-101493142D01*
X92908857Y-101397904D01*
X92908857Y-101112190D01*
X92956476Y-101016952D01*
X93004095Y-100969333D01*
X93099333Y-100921714D01*
X93242190Y-100921714D01*
X93337428Y-100969333D01*
X93385047Y-101016952D01*
X93432666Y-101112190D01*
X93432666Y-101397904D01*
X93385047Y-101493142D01*
X93337428Y-101540761D01*
X93242190Y-101588380D01*
X93099333Y-101588380D01*
X93861238Y-100921714D02*
X93861238Y-101588380D01*
X93861238Y-101016952D02*
X93908857Y-100969333D01*
X94004095Y-100921714D01*
X94146952Y-100921714D01*
X94242190Y-100969333D01*
X94289809Y-101064571D01*
X94289809Y-101588380D01*
X94766000Y-100921714D02*
X94766000Y-101588380D01*
X94766000Y-101016952D02*
X94813619Y-100969333D01*
X94908857Y-100921714D01*
X95051714Y-100921714D01*
X95146952Y-100969333D01*
X95194571Y-101064571D01*
X95194571Y-101588380D01*
X95432666Y-101683619D02*
X96194571Y-101683619D01*
X96623142Y-100588380D02*
X96718380Y-100588380D01*
X96813619Y-100636000D01*
X96861238Y-100683619D01*
X96908857Y-100778857D01*
X96956476Y-100969333D01*
X96956476Y-101207428D01*
X96908857Y-101397904D01*
X96861238Y-101493142D01*
X96813619Y-101540761D01*
X96718380Y-101588380D01*
X96623142Y-101588380D01*
X96527904Y-101540761D01*
X96480285Y-101493142D01*
X96432666Y-101397904D01*
X96385047Y-101207428D01*
X96385047Y-100969333D01*
X96432666Y-100778857D01*
X96480285Y-100683619D01*
X96527904Y-100636000D01*
X96623142Y-100588380D01*
X97908857Y-101588380D02*
X97337428Y-101588380D01*
X97623142Y-101588380D02*
X97623142Y-100588380D01*
X97527904Y-100731238D01*
X97432666Y-100826476D01*
X97337428Y-100874095D01*
X98242190Y-101588380D02*
X98766000Y-100921714D01*
X98242190Y-100921714D02*
X98766000Y-101588380D01*
X99337428Y-100588380D02*
X99432666Y-100588380D01*
X99527904Y-100636000D01*
X99575523Y-100683619D01*
X99623142Y-100778857D01*
X99670761Y-100969333D01*
X99670761Y-101207428D01*
X99623142Y-101397904D01*
X99575523Y-101493142D01*
X99527904Y-101540761D01*
X99432666Y-101588380D01*
X99337428Y-101588380D01*
X99242190Y-101540761D01*
X99194571Y-101493142D01*
X99146952Y-101397904D01*
X99099333Y-101207428D01*
X99099333Y-100969333D01*
X99146952Y-100778857D01*
X99194571Y-100683619D01*
X99242190Y-100636000D01*
X99337428Y-100588380D01*
X100623142Y-101588380D02*
X100051714Y-101588380D01*
X100337428Y-101588380D02*
X100337428Y-100588380D01*
X100242190Y-100731238D01*
X100146952Y-100826476D01*
X100051714Y-100874095D01*
X95718380Y-99615523D02*
X96432666Y-99615523D01*
X96575523Y-99663142D01*
X96670761Y-99758380D01*
X96718380Y-99901238D01*
X96718380Y-99996476D01*
X96718380Y-98615523D02*
X96718380Y-99186952D01*
X96718380Y-98901238D02*
X95718380Y-98901238D01*
X95861238Y-98996476D01*
X95956476Y-99091714D01*
X96004095Y-99186952D01*
X95813619Y-98234571D02*
X95766000Y-98186952D01*
X95718380Y-98091714D01*
X95718380Y-97853619D01*
X95766000Y-97758380D01*
X95813619Y-97710761D01*
X95908857Y-97663142D01*
X96004095Y-97663142D01*
X96146952Y-97710761D01*
X96718380Y-98282190D01*
X96718380Y-97663142D01*
X165128380Y-134757666D02*
X164652190Y-135091000D01*
X165128380Y-135329095D02*
X164128380Y-135329095D01*
X164128380Y-134948142D01*
X164176000Y-134852904D01*
X164223619Y-134805285D01*
X164318857Y-134757666D01*
X164461714Y-134757666D01*
X164556952Y-134805285D01*
X164604571Y-134852904D01*
X164652190Y-134948142D01*
X164652190Y-135329095D01*
X164556952Y-134186238D02*
X164509333Y-134281476D01*
X164461714Y-134329095D01*
X164366476Y-134376714D01*
X164318857Y-134376714D01*
X164223619Y-134329095D01*
X164176000Y-134281476D01*
X164128380Y-134186238D01*
X164128380Y-133995761D01*
X164176000Y-133900523D01*
X164223619Y-133852904D01*
X164318857Y-133805285D01*
X164366476Y-133805285D01*
X164461714Y-133852904D01*
X164509333Y-133900523D01*
X164556952Y-133995761D01*
X164556952Y-134186238D01*
X164604571Y-134281476D01*
X164652190Y-134329095D01*
X164747428Y-134376714D01*
X164937904Y-134376714D01*
X165033142Y-134329095D01*
X165080761Y-134281476D01*
X165128380Y-134186238D01*
X165128380Y-133995761D01*
X165080761Y-133900523D01*
X165033142Y-133852904D01*
X164937904Y-133805285D01*
X164747428Y-133805285D01*
X164652190Y-133852904D01*
X164604571Y-133900523D01*
X164556952Y-133995761D01*
X129611904Y-101493142D02*
X129564285Y-101540761D01*
X129421428Y-101588380D01*
X129326190Y-101588380D01*
X129183333Y-101540761D01*
X129088095Y-101445523D01*
X129040476Y-101350285D01*
X128992857Y-101159809D01*
X128992857Y-101016952D01*
X129040476Y-100826476D01*
X129088095Y-100731238D01*
X129183333Y-100636000D01*
X129326190Y-100588380D01*
X129421428Y-100588380D01*
X129564285Y-100636000D01*
X129611904Y-100683619D01*
X130183333Y-101588380D02*
X130088095Y-101540761D01*
X130040476Y-101493142D01*
X129992857Y-101397904D01*
X129992857Y-101112190D01*
X130040476Y-101016952D01*
X130088095Y-100969333D01*
X130183333Y-100921714D01*
X130326190Y-100921714D01*
X130421428Y-100969333D01*
X130469047Y-101016952D01*
X130516666Y-101112190D01*
X130516666Y-101397904D01*
X130469047Y-101493142D01*
X130421428Y-101540761D01*
X130326190Y-101588380D01*
X130183333Y-101588380D01*
X130945238Y-100921714D02*
X130945238Y-101588380D01*
X130945238Y-101016952D02*
X130992857Y-100969333D01*
X131088095Y-100921714D01*
X131230952Y-100921714D01*
X131326190Y-100969333D01*
X131373809Y-101064571D01*
X131373809Y-101588380D01*
X131850000Y-100921714D02*
X131850000Y-101588380D01*
X131850000Y-101016952D02*
X131897619Y-100969333D01*
X131992857Y-100921714D01*
X132135714Y-100921714D01*
X132230952Y-100969333D01*
X132278571Y-101064571D01*
X132278571Y-101588380D01*
X132516666Y-101683619D02*
X133278571Y-101683619D01*
X133707142Y-100588380D02*
X133802380Y-100588380D01*
X133897619Y-100636000D01*
X133945238Y-100683619D01*
X133992857Y-100778857D01*
X134040476Y-100969333D01*
X134040476Y-101207428D01*
X133992857Y-101397904D01*
X133945238Y-101493142D01*
X133897619Y-101540761D01*
X133802380Y-101588380D01*
X133707142Y-101588380D01*
X133611904Y-101540761D01*
X133564285Y-101493142D01*
X133516666Y-101397904D01*
X133469047Y-101207428D01*
X133469047Y-100969333D01*
X133516666Y-100778857D01*
X133564285Y-100683619D01*
X133611904Y-100636000D01*
X133707142Y-100588380D01*
X134992857Y-101588380D02*
X134421428Y-101588380D01*
X134707142Y-101588380D02*
X134707142Y-100588380D01*
X134611904Y-100731238D01*
X134516666Y-100826476D01*
X134421428Y-100874095D01*
X135326190Y-101588380D02*
X135850000Y-100921714D01*
X135326190Y-100921714D02*
X135850000Y-101588380D01*
X136421428Y-100588380D02*
X136516666Y-100588380D01*
X136611904Y-100636000D01*
X136659523Y-100683619D01*
X136707142Y-100778857D01*
X136754761Y-100969333D01*
X136754761Y-101207428D01*
X136707142Y-101397904D01*
X136659523Y-101493142D01*
X136611904Y-101540761D01*
X136516666Y-101588380D01*
X136421428Y-101588380D01*
X136326190Y-101540761D01*
X136278571Y-101493142D01*
X136230952Y-101397904D01*
X136183333Y-101207428D01*
X136183333Y-100969333D01*
X136230952Y-100778857D01*
X136278571Y-100683619D01*
X136326190Y-100636000D01*
X136421428Y-100588380D01*
X137707142Y-101588380D02*
X137135714Y-101588380D01*
X137421428Y-101588380D02*
X137421428Y-100588380D01*
X137326190Y-100731238D01*
X137230952Y-100826476D01*
X137135714Y-100874095D01*
X132802380Y-99615523D02*
X133516666Y-99615523D01*
X133659523Y-99663142D01*
X133754761Y-99758380D01*
X133802380Y-99901238D01*
X133802380Y-99996476D01*
X133802380Y-98615523D02*
X133802380Y-99186952D01*
X133802380Y-98901238D02*
X132802380Y-98901238D01*
X132945238Y-98996476D01*
X133040476Y-99091714D01*
X133088095Y-99186952D01*
X132802380Y-98282190D02*
X132802380Y-97663142D01*
X133183333Y-97996476D01*
X133183333Y-97853619D01*
X133230952Y-97758380D01*
X133278571Y-97710761D01*
X133373809Y-97663142D01*
X133611904Y-97663142D01*
X133707142Y-97710761D01*
X133754761Y-97758380D01*
X133802380Y-97853619D01*
X133802380Y-98139333D01*
X133754761Y-98234571D01*
X133707142Y-98282190D01*
X149571380Y-149869904D02*
X150380904Y-149869904D01*
X150476142Y-149822285D01*
X150523761Y-149774666D01*
X150571380Y-149679428D01*
X150571380Y-149488952D01*
X150523761Y-149393714D01*
X150476142Y-149346095D01*
X150380904Y-149298476D01*
X149571380Y-149298476D01*
X149666619Y-148869904D02*
X149619000Y-148822285D01*
X149571380Y-148727047D01*
X149571380Y-148488952D01*
X149619000Y-148393714D01*
X149666619Y-148346095D01*
X149761857Y-148298476D01*
X149857095Y-148298476D01*
X149999952Y-148346095D01*
X150571380Y-148917523D01*
X150571380Y-148298476D01*
X123389380Y-149869904D02*
X124198904Y-149869904D01*
X124294142Y-149822285D01*
X124341761Y-149774666D01*
X124389380Y-149679428D01*
X124389380Y-149488952D01*
X124341761Y-149393714D01*
X124294142Y-149346095D01*
X124198904Y-149298476D01*
X123389380Y-149298476D01*
X123722714Y-148393714D02*
X124389380Y-148393714D01*
X123341761Y-148631809D02*
X124056047Y-148869904D01*
X124056047Y-148250857D01*
X172421380Y-157469904D02*
X173230904Y-157469904D01*
X173326142Y-157422285D01*
X173373761Y-157374666D01*
X173421380Y-157279428D01*
X173421380Y-157088952D01*
X173373761Y-156993714D01*
X173326142Y-156946095D01*
X173230904Y-156898476D01*
X172421380Y-156898476D01*
X172421380Y-156517523D02*
X172421380Y-155898476D01*
X172802333Y-156231809D01*
X172802333Y-156088952D01*
X172849952Y-155993714D01*
X172897571Y-155946095D01*
X172992809Y-155898476D01*
X173230904Y-155898476D01*
X173326142Y-155946095D01*
X173373761Y-155993714D01*
X173421380Y-156088952D01*
X173421380Y-156374666D01*
X173373761Y-156469904D01*
X173326142Y-156517523D01*
X130079009Y-158860857D02*
X130079009Y-159432285D01*
X130079009Y-159146571D02*
X129079009Y-159146571D01*
X129221867Y-159241809D01*
X129317105Y-159337047D01*
X129364724Y-159432285D01*
X130079009Y-158432285D02*
X129079009Y-158432285D01*
X130079009Y-157860857D01*
X129079009Y-157860857D01*
X129412343Y-156956095D02*
X130079009Y-156956095D01*
X129031390Y-157194190D02*
X129745676Y-157432285D01*
X129745676Y-156813238D01*
X130079009Y-155908476D02*
X130079009Y-156479904D01*
X130079009Y-156194190D02*
X129079009Y-156194190D01*
X129221867Y-156289428D01*
X129317105Y-156384666D01*
X129364724Y-156479904D01*
X129412343Y-155051333D02*
X130079009Y-155051333D01*
X129031390Y-155289428D02*
X129745676Y-155527523D01*
X129745676Y-154908476D01*
X129507581Y-154384666D02*
X129459962Y-154479904D01*
X129412343Y-154527523D01*
X129317105Y-154575142D01*
X129269486Y-154575142D01*
X129174248Y-154527523D01*
X129126629Y-154479904D01*
X129079009Y-154384666D01*
X129079009Y-154194190D01*
X129126629Y-154098952D01*
X129174248Y-154051333D01*
X129269486Y-154003714D01*
X129317105Y-154003714D01*
X129412343Y-154051333D01*
X129459962Y-154098952D01*
X129507581Y-154194190D01*
X129507581Y-154384666D01*
X129555200Y-154479904D01*
X129602819Y-154527523D01*
X129698057Y-154575142D01*
X129888533Y-154575142D01*
X129983771Y-154527523D01*
X130031390Y-154479904D01*
X130079009Y-154384666D01*
X130079009Y-154194190D01*
X130031390Y-154098952D01*
X129983771Y-154051333D01*
X129888533Y-154003714D01*
X129698057Y-154003714D01*
X129602819Y-154051333D01*
X129555200Y-154098952D01*
X129507581Y-154194190D01*
X133294380Y-153909904D02*
X132294380Y-153909904D01*
X133294380Y-153338476D02*
X132722952Y-153767047D01*
X132294380Y-153338476D02*
X132865809Y-153909904D01*
X135620751Y-157456095D02*
X134620751Y-157456095D01*
X134620751Y-157218000D01*
X134668371Y-157075142D01*
X134763609Y-156979904D01*
X134858847Y-156932285D01*
X135049323Y-156884666D01*
X135192180Y-156884666D01*
X135382656Y-156932285D01*
X135477894Y-156979904D01*
X135573132Y-157075142D01*
X135620751Y-157218000D01*
X135620751Y-157456095D01*
X134620751Y-156551333D02*
X134620751Y-155932285D01*
X135001704Y-156265619D01*
X135001704Y-156122761D01*
X135049323Y-156027523D01*
X135096942Y-155979904D01*
X135192180Y-155932285D01*
X135430275Y-155932285D01*
X135525513Y-155979904D01*
X135573132Y-156027523D01*
X135620751Y-156122761D01*
X135620751Y-156408476D01*
X135573132Y-156503714D01*
X135525513Y-156551333D01*
X114839009Y-158860857D02*
X114839009Y-159432285D01*
X114839009Y-159146571D02*
X113839009Y-159146571D01*
X113981867Y-159241809D01*
X114077105Y-159337047D01*
X114124724Y-159432285D01*
X114839009Y-158432285D02*
X113839009Y-158432285D01*
X114839009Y-157860857D01*
X113839009Y-157860857D01*
X114172343Y-156956095D02*
X114839009Y-156956095D01*
X113791390Y-157194190D02*
X114505676Y-157432285D01*
X114505676Y-156813238D01*
X114839009Y-155908476D02*
X114839009Y-156479904D01*
X114839009Y-156194190D02*
X113839009Y-156194190D01*
X113981867Y-156289428D01*
X114077105Y-156384666D01*
X114124724Y-156479904D01*
X114172343Y-155051333D02*
X114839009Y-155051333D01*
X113791390Y-155289428D02*
X114505676Y-155527523D01*
X114505676Y-154908476D01*
X114267581Y-154384666D02*
X114219962Y-154479904D01*
X114172343Y-154527523D01*
X114077105Y-154575142D01*
X114029486Y-154575142D01*
X113934248Y-154527523D01*
X113886629Y-154479904D01*
X113839009Y-154384666D01*
X113839009Y-154194190D01*
X113886629Y-154098952D01*
X113934248Y-154051333D01*
X114029486Y-154003714D01*
X114077105Y-154003714D01*
X114172343Y-154051333D01*
X114219962Y-154098952D01*
X114267581Y-154194190D01*
X114267581Y-154384666D01*
X114315200Y-154479904D01*
X114362819Y-154527523D01*
X114458057Y-154575142D01*
X114648533Y-154575142D01*
X114743771Y-154527523D01*
X114791390Y-154479904D01*
X114839009Y-154384666D01*
X114839009Y-154194190D01*
X114791390Y-154098952D01*
X114743771Y-154051333D01*
X114648533Y-154003714D01*
X114458057Y-154003714D01*
X114362819Y-154051333D01*
X114315200Y-154098952D01*
X114267581Y-154194190D01*
X120380751Y-157456095D02*
X119380751Y-157456095D01*
X119380751Y-157218000D01*
X119428371Y-157075142D01*
X119523609Y-156979904D01*
X119618847Y-156932285D01*
X119809323Y-156884666D01*
X119952180Y-156884666D01*
X120142656Y-156932285D01*
X120237894Y-156979904D01*
X120333132Y-157075142D01*
X120380751Y-157218000D01*
X120380751Y-157456095D01*
X120380751Y-156408476D02*
X120380751Y-156218000D01*
X120333132Y-156122761D01*
X120285513Y-156075142D01*
X120142656Y-155979904D01*
X119952180Y-155932285D01*
X119571228Y-155932285D01*
X119475990Y-155979904D01*
X119428371Y-156027523D01*
X119380751Y-156122761D01*
X119380751Y-156313238D01*
X119428371Y-156408476D01*
X119475990Y-156456095D01*
X119571228Y-156503714D01*
X119809323Y-156503714D01*
X119904561Y-156456095D01*
X119952180Y-156408476D01*
X119999799Y-156313238D01*
X119999799Y-156122761D01*
X119952180Y-156027523D01*
X119904561Y-155979904D01*
X119809323Y-155932285D01*
X118054380Y-153909904D02*
X117054380Y-153909904D01*
X118054380Y-153338476D02*
X117482952Y-153767047D01*
X117054380Y-153338476D02*
X117625809Y-153909904D01*
X180928380Y-158420857D02*
X180928380Y-158325619D01*
X180976000Y-158230380D01*
X181023619Y-158182761D01*
X181118857Y-158135142D01*
X181309333Y-158087523D01*
X181547428Y-158087523D01*
X181737904Y-158135142D01*
X181833142Y-158182761D01*
X181880761Y-158230380D01*
X181928380Y-158325619D01*
X181928380Y-158420857D01*
X181880761Y-158516095D01*
X181833142Y-158563714D01*
X181737904Y-158611333D01*
X181547428Y-158658952D01*
X181309333Y-158658952D01*
X181118857Y-158611333D01*
X181023619Y-158563714D01*
X180976000Y-158516095D01*
X180928380Y-158420857D01*
X181833142Y-157658952D02*
X181880761Y-157611333D01*
X181928380Y-157658952D01*
X181880761Y-157706571D01*
X181833142Y-157658952D01*
X181928380Y-157658952D01*
X181928380Y-156658952D02*
X181928380Y-157230380D01*
X181928380Y-156944666D02*
X180928380Y-156944666D01*
X181071238Y-157039904D01*
X181166476Y-157135142D01*
X181214095Y-157230380D01*
X181261714Y-155801809D02*
X181928380Y-155801809D01*
X181261714Y-156230380D02*
X181785523Y-156230380D01*
X181880761Y-156182761D01*
X181928380Y-156087523D01*
X181928380Y-155944666D01*
X181880761Y-155849428D01*
X181833142Y-155801809D01*
X181404571Y-154992285D02*
X181404571Y-155325619D01*
X181928380Y-155325619D02*
X180928380Y-155325619D01*
X180928380Y-154849428D01*
D11*
X184167428Y-156904666D02*
X184203619Y-156940857D01*
X184239809Y-157049428D01*
X184239809Y-157121809D01*
X184203619Y-157230380D01*
X184131238Y-157302761D01*
X184058857Y-157338952D01*
X183914095Y-157375142D01*
X183805523Y-157375142D01*
X183660761Y-157338952D01*
X183588380Y-157302761D01*
X183516000Y-157230380D01*
X183479809Y-157121809D01*
X183479809Y-157049428D01*
X183516000Y-156940857D01*
X183552190Y-156904666D01*
X183479809Y-156651333D02*
X183479809Y-156180857D01*
X183769333Y-156434190D01*
X183769333Y-156325619D01*
X183805523Y-156253238D01*
X183841714Y-156217047D01*
X183914095Y-156180857D01*
X184095047Y-156180857D01*
X184167428Y-156217047D01*
X184203619Y-156253238D01*
X184239809Y-156325619D01*
X184239809Y-156542761D01*
X184203619Y-156615142D01*
X184167428Y-156651333D01*
D10*
X87915009Y-158860857D02*
X87915009Y-159432285D01*
X87915009Y-159146571D02*
X86915009Y-159146571D01*
X87057867Y-159241809D01*
X87153105Y-159337047D01*
X87200724Y-159432285D01*
X87915009Y-158432285D02*
X86915009Y-158432285D01*
X87915009Y-157860857D01*
X86915009Y-157860857D01*
X87248343Y-156956095D02*
X87915009Y-156956095D01*
X86867390Y-157194190D02*
X87581676Y-157432285D01*
X87581676Y-156813238D01*
X87915009Y-155908476D02*
X87915009Y-156479904D01*
X87915009Y-156194190D02*
X86915009Y-156194190D01*
X87057867Y-156289428D01*
X87153105Y-156384666D01*
X87200724Y-156479904D01*
X87248343Y-155051333D02*
X87915009Y-155051333D01*
X86867390Y-155289428D02*
X87581676Y-155527523D01*
X87581676Y-154908476D01*
X87343581Y-154384666D02*
X87295962Y-154479904D01*
X87248343Y-154527523D01*
X87153105Y-154575142D01*
X87105486Y-154575142D01*
X87010248Y-154527523D01*
X86962629Y-154479904D01*
X86915009Y-154384666D01*
X86915009Y-154194190D01*
X86962629Y-154098952D01*
X87010248Y-154051333D01*
X87105486Y-154003714D01*
X87153105Y-154003714D01*
X87248343Y-154051333D01*
X87295962Y-154098952D01*
X87343581Y-154194190D01*
X87343581Y-154384666D01*
X87391200Y-154479904D01*
X87438819Y-154527523D01*
X87534057Y-154575142D01*
X87724533Y-154575142D01*
X87819771Y-154527523D01*
X87867390Y-154479904D01*
X87915009Y-154384666D01*
X87915009Y-154194190D01*
X87867390Y-154098952D01*
X87819771Y-154051333D01*
X87724533Y-154003714D01*
X87534057Y-154003714D01*
X87438819Y-154051333D01*
X87391200Y-154098952D01*
X87343581Y-154194190D01*
X93456751Y-157932285D02*
X92456751Y-157932285D01*
X92456751Y-157694190D01*
X92504371Y-157551333D01*
X92599609Y-157456095D01*
X92694847Y-157408476D01*
X92885323Y-157360857D01*
X93028180Y-157360857D01*
X93218656Y-157408476D01*
X93313894Y-157456095D01*
X93409132Y-157551333D01*
X93456751Y-157694190D01*
X93456751Y-157932285D01*
X93456751Y-156408476D02*
X93456751Y-156979904D01*
X93456751Y-156694190D02*
X92456751Y-156694190D01*
X92599609Y-156789428D01*
X92694847Y-156884666D01*
X92742466Y-156979904D01*
X92456751Y-155551333D02*
X92456751Y-155741809D01*
X92504371Y-155837047D01*
X92551990Y-155884666D01*
X92694847Y-155979904D01*
X92885323Y-156027523D01*
X93266275Y-156027523D01*
X93361513Y-155979904D01*
X93409132Y-155932285D01*
X93456751Y-155837047D01*
X93456751Y-155646571D01*
X93409132Y-155551333D01*
X93361513Y-155503714D01*
X93266275Y-155456095D01*
X93028180Y-155456095D01*
X92932942Y-155503714D01*
X92885323Y-155551333D01*
X92837704Y-155646571D01*
X92837704Y-155837047D01*
X92885323Y-155932285D01*
X92932942Y-155979904D01*
X93028180Y-156027523D01*
X91130380Y-153909904D02*
X90130380Y-153909904D01*
X91130380Y-153338476D02*
X90558952Y-153767047D01*
X90130380Y-153338476D02*
X90701809Y-153909904D01*
X113632380Y-150680857D02*
X113632380Y-150585619D01*
X113680000Y-150490380D01*
X113727619Y-150442761D01*
X113822857Y-150395142D01*
X114013333Y-150347523D01*
X114251428Y-150347523D01*
X114441904Y-150395142D01*
X114537142Y-150442761D01*
X114584761Y-150490380D01*
X114632380Y-150585619D01*
X114632380Y-150680857D01*
X114584761Y-150776095D01*
X114537142Y-150823714D01*
X114441904Y-150871333D01*
X114251428Y-150918952D01*
X114013333Y-150918952D01*
X113822857Y-150871333D01*
X113727619Y-150823714D01*
X113680000Y-150776095D01*
X113632380Y-150680857D01*
X114537142Y-149918952D02*
X114584761Y-149871333D01*
X114632380Y-149918952D01*
X114584761Y-149966571D01*
X114537142Y-149918952D01*
X114632380Y-149918952D01*
X114632380Y-148918952D02*
X114632380Y-149490380D01*
X114632380Y-149204666D02*
X113632380Y-149204666D01*
X113775238Y-149299904D01*
X113870476Y-149395142D01*
X113918095Y-149490380D01*
X113965714Y-148061809D02*
X114632380Y-148061809D01*
X113965714Y-148490380D02*
X114489523Y-148490380D01*
X114584761Y-148442761D01*
X114632380Y-148347523D01*
X114632380Y-148204666D01*
X114584761Y-148109428D01*
X114537142Y-148061809D01*
X114108571Y-147252285D02*
X114108571Y-147585619D01*
X114632380Y-147585619D02*
X113632380Y-147585619D01*
X113632380Y-147109428D01*
D11*
X112031428Y-149164666D02*
X112067619Y-149200857D01*
X112103809Y-149309428D01*
X112103809Y-149381809D01*
X112067619Y-149490380D01*
X111995238Y-149562761D01*
X111922857Y-149598952D01*
X111778095Y-149635142D01*
X111669523Y-149635142D01*
X111524761Y-149598952D01*
X111452380Y-149562761D01*
X111380000Y-149490380D01*
X111343809Y-149381809D01*
X111343809Y-149309428D01*
X111380000Y-149200857D01*
X111416190Y-149164666D01*
X112103809Y-148440857D02*
X112103809Y-148875142D01*
X112103809Y-148658000D02*
X111343809Y-148658000D01*
X111452380Y-148730380D01*
X111524761Y-148802761D01*
X111560952Y-148875142D01*
D10*
X175538952Y-169752380D02*
X175538952Y-168752380D01*
X175872285Y-169466666D01*
X176205619Y-168752380D01*
X176205619Y-169752380D01*
X176824666Y-169752380D02*
X176729428Y-169704761D01*
X176681809Y-169657142D01*
X176634190Y-169561904D01*
X176634190Y-169276190D01*
X176681809Y-169180952D01*
X176729428Y-169133333D01*
X176824666Y-169085714D01*
X176967523Y-169085714D01*
X177062761Y-169133333D01*
X177110380Y-169180952D01*
X177158000Y-169276190D01*
X177158000Y-169561904D01*
X177110380Y-169657142D01*
X177062761Y-169704761D01*
X176967523Y-169752380D01*
X176824666Y-169752380D01*
X178015142Y-169085714D02*
X178015142Y-169752380D01*
X177586571Y-169085714D02*
X177586571Y-169609523D01*
X177634190Y-169704761D01*
X177729428Y-169752380D01*
X177872285Y-169752380D01*
X177967523Y-169704761D01*
X178015142Y-169657142D01*
X178491333Y-169085714D02*
X178491333Y-169752380D01*
X178491333Y-169180952D02*
X178538952Y-169133333D01*
X178634190Y-169085714D01*
X178777047Y-169085714D01*
X178872285Y-169133333D01*
X178919904Y-169228571D01*
X178919904Y-169752380D01*
X179253238Y-169085714D02*
X179634190Y-169085714D01*
X179396095Y-168752380D02*
X179396095Y-169609523D01*
X179443714Y-169704761D01*
X179538952Y-169752380D01*
X179634190Y-169752380D01*
X179967523Y-169752380D02*
X179967523Y-169085714D01*
X179967523Y-168752380D02*
X179919904Y-168800000D01*
X179967523Y-168847619D01*
X180015142Y-168800000D01*
X179967523Y-168752380D01*
X179967523Y-168847619D01*
X180443714Y-169085714D02*
X180443714Y-169752380D01*
X180443714Y-169180952D02*
X180491333Y-169133333D01*
X180586571Y-169085714D01*
X180729428Y-169085714D01*
X180824666Y-169133333D01*
X180872285Y-169228571D01*
X180872285Y-169752380D01*
X181777047Y-169085714D02*
X181777047Y-169895238D01*
X181729428Y-169990476D01*
X181681809Y-170038095D01*
X181586571Y-170085714D01*
X181443714Y-170085714D01*
X181348476Y-170038095D01*
X181777047Y-169704761D02*
X181681809Y-169752380D01*
X181491333Y-169752380D01*
X181396095Y-169704761D01*
X181348476Y-169657142D01*
X181300857Y-169561904D01*
X181300857Y-169276190D01*
X181348476Y-169180952D01*
X181396095Y-169133333D01*
X181491333Y-169085714D01*
X181681809Y-169085714D01*
X181777047Y-169133333D01*
X182253238Y-169752380D02*
X182253238Y-168752380D01*
X182253238Y-169228571D02*
X182824666Y-169228571D01*
X182824666Y-169752380D02*
X182824666Y-168752380D01*
X183443714Y-169752380D02*
X183348476Y-169704761D01*
X183300857Y-169657142D01*
X183253238Y-169561904D01*
X183253238Y-169276190D01*
X183300857Y-169180952D01*
X183348476Y-169133333D01*
X183443714Y-169085714D01*
X183586571Y-169085714D01*
X183681809Y-169133333D01*
X183729428Y-169180952D01*
X183777047Y-169276190D01*
X183777047Y-169561904D01*
X183729428Y-169657142D01*
X183681809Y-169704761D01*
X183586571Y-169752380D01*
X183443714Y-169752380D01*
X184348476Y-169752380D02*
X184253238Y-169704761D01*
X184205619Y-169609523D01*
X184205619Y-168752380D01*
X185110380Y-169704761D02*
X185015142Y-169752380D01*
X184824666Y-169752380D01*
X184729428Y-169704761D01*
X184681809Y-169609523D01*
X184681809Y-169228571D01*
X184729428Y-169133333D01*
X184824666Y-169085714D01*
X185015142Y-169085714D01*
X185110380Y-169133333D01*
X185158000Y-169228571D01*
X185158000Y-169323809D01*
X184681809Y-169419047D01*
X185348476Y-169847619D02*
X186110380Y-169847619D01*
X186253238Y-168752380D02*
X186872285Y-168752380D01*
X186538952Y-169133333D01*
X186681809Y-169133333D01*
X186777047Y-169180952D01*
X186824666Y-169228571D01*
X186872285Y-169323809D01*
X186872285Y-169561904D01*
X186824666Y-169657142D01*
X186777047Y-169704761D01*
X186681809Y-169752380D01*
X186396095Y-169752380D01*
X186300857Y-169704761D01*
X186253238Y-169657142D01*
X187300857Y-169657142D02*
X187348476Y-169704761D01*
X187300857Y-169752380D01*
X187253238Y-169704761D01*
X187300857Y-169657142D01*
X187300857Y-169752380D01*
X187729428Y-168847619D02*
X187777047Y-168800000D01*
X187872285Y-168752380D01*
X188110380Y-168752380D01*
X188205619Y-168800000D01*
X188253238Y-168847619D01*
X188300857Y-168942857D01*
X188300857Y-169038095D01*
X188253238Y-169180952D01*
X187681809Y-169752380D01*
X188300857Y-169752380D01*
X188729428Y-169752380D02*
X188729428Y-169085714D01*
X188729428Y-169180952D02*
X188777047Y-169133333D01*
X188872285Y-169085714D01*
X189015142Y-169085714D01*
X189110380Y-169133333D01*
X189158000Y-169228571D01*
X189158000Y-169752380D01*
X189158000Y-169228571D02*
X189205619Y-169133333D01*
X189300857Y-169085714D01*
X189443714Y-169085714D01*
X189538952Y-169133333D01*
X189586571Y-169228571D01*
X189586571Y-169752380D01*
X190062761Y-169752380D02*
X190062761Y-169085714D01*
X190062761Y-169180952D02*
X190110380Y-169133333D01*
X190205619Y-169085714D01*
X190348476Y-169085714D01*
X190443714Y-169133333D01*
X190491333Y-169228571D01*
X190491333Y-169752380D01*
X190491333Y-169228571D02*
X190538952Y-169133333D01*
X190634190Y-169085714D01*
X190777047Y-169085714D01*
X190872285Y-169133333D01*
X190919904Y-169228571D01*
X190919904Y-169752380D01*
X191158000Y-169847619D02*
X191919904Y-169847619D01*
X192158000Y-169752380D02*
X192158000Y-168752380D01*
X192491333Y-169466666D01*
X192824666Y-168752380D01*
X192824666Y-169752380D01*
X193205619Y-168752380D02*
X193824666Y-168752380D01*
X193491333Y-169133333D01*
X193634190Y-169133333D01*
X193729428Y-169180952D01*
X193777047Y-169228571D01*
X193824666Y-169323809D01*
X193824666Y-169561904D01*
X193777047Y-169657142D01*
X193729428Y-169704761D01*
X193634190Y-169752380D01*
X193348476Y-169752380D01*
X193253238Y-169704761D01*
X193205619Y-169657142D01*
X183624666Y-165552380D02*
X183291333Y-165076190D01*
X183053238Y-165552380D02*
X183053238Y-164552380D01*
X183434190Y-164552380D01*
X183529428Y-164600000D01*
X183577047Y-164647619D01*
X183624666Y-164742857D01*
X183624666Y-164885714D01*
X183577047Y-164980952D01*
X183529428Y-165028571D01*
X183434190Y-165076190D01*
X183053238Y-165076190D01*
X184053238Y-165028571D02*
X184386571Y-165028571D01*
X184529428Y-165552380D02*
X184053238Y-165552380D01*
X184053238Y-164552380D01*
X184529428Y-164552380D01*
X185291333Y-165028571D02*
X184958000Y-165028571D01*
X184958000Y-165552380D02*
X184958000Y-164552380D01*
X185434190Y-164552380D01*
X185958000Y-164552380D02*
X185958000Y-164790476D01*
X185719904Y-164695238D02*
X185958000Y-164790476D01*
X186196095Y-164695238D01*
X185815142Y-164980952D02*
X185958000Y-164790476D01*
X186100857Y-164980952D01*
X186719904Y-164552380D02*
X186719904Y-164790476D01*
X186481809Y-164695238D02*
X186719904Y-164790476D01*
X186958000Y-164695238D01*
X186577047Y-164980952D02*
X186719904Y-164790476D01*
X186862761Y-164980952D01*
X154011333Y-135410380D02*
X153678000Y-134934190D01*
X153439904Y-135410380D02*
X153439904Y-134410380D01*
X153820857Y-134410380D01*
X153916095Y-134458000D01*
X153963714Y-134505619D01*
X154011333Y-134600857D01*
X154011333Y-134743714D01*
X153963714Y-134838952D01*
X153916095Y-134886571D01*
X153820857Y-134934190D01*
X153439904Y-134934190D01*
X154916095Y-134410380D02*
X154439904Y-134410380D01*
X154392285Y-134886571D01*
X154439904Y-134838952D01*
X154535142Y-134791333D01*
X154773238Y-134791333D01*
X154868476Y-134838952D01*
X154916095Y-134886571D01*
X154963714Y-134981809D01*
X154963714Y-135219904D01*
X154916095Y-135315142D01*
X154868476Y-135362761D01*
X154773238Y-135410380D01*
X154535142Y-135410380D01*
X154439904Y-135362761D01*
X154392285Y-135315142D01*
X141760380Y-156884666D02*
X141284190Y-157218000D01*
X141760380Y-157456095D02*
X140760380Y-157456095D01*
X140760380Y-157075142D01*
X140808000Y-156979904D01*
X140855619Y-156932285D01*
X140950857Y-156884666D01*
X141093714Y-156884666D01*
X141188952Y-156932285D01*
X141236571Y-156979904D01*
X141284190Y-157075142D01*
X141284190Y-157456095D01*
X140760380Y-156551333D02*
X140760380Y-155884666D01*
X141760380Y-156313238D01*
X178201142Y-167314095D02*
X178248761Y-167361714D01*
X178296380Y-167504571D01*
X178296380Y-167599809D01*
X178248761Y-167742666D01*
X178153523Y-167837904D01*
X178058285Y-167885523D01*
X177867809Y-167933142D01*
X177724952Y-167933142D01*
X177534476Y-167885523D01*
X177439238Y-167837904D01*
X177344000Y-167742666D01*
X177296380Y-167599809D01*
X177296380Y-167504571D01*
X177344000Y-167361714D01*
X177391619Y-167314095D01*
X178296380Y-166742666D02*
X178248761Y-166837904D01*
X178201142Y-166885523D01*
X178105904Y-166933142D01*
X177820190Y-166933142D01*
X177724952Y-166885523D01*
X177677333Y-166837904D01*
X177629714Y-166742666D01*
X177629714Y-166599809D01*
X177677333Y-166504571D01*
X177724952Y-166456952D01*
X177820190Y-166409333D01*
X178105904Y-166409333D01*
X178201142Y-166456952D01*
X178248761Y-166504571D01*
X178296380Y-166599809D01*
X178296380Y-166742666D01*
X177629714Y-165980761D02*
X178296380Y-165980761D01*
X177724952Y-165980761D02*
X177677333Y-165933142D01*
X177629714Y-165837904D01*
X177629714Y-165695047D01*
X177677333Y-165599809D01*
X177772571Y-165552190D01*
X178296380Y-165552190D01*
X177629714Y-165076000D02*
X178296380Y-165076000D01*
X177724952Y-165076000D02*
X177677333Y-165028380D01*
X177629714Y-164933142D01*
X177629714Y-164790285D01*
X177677333Y-164695047D01*
X177772571Y-164647428D01*
X178296380Y-164647428D01*
X178391619Y-164409333D02*
X178391619Y-163647428D01*
X177296380Y-163218857D02*
X177296380Y-163123619D01*
X177344000Y-163028380D01*
X177391619Y-162980761D01*
X177486857Y-162933142D01*
X177677333Y-162885523D01*
X177915428Y-162885523D01*
X178105904Y-162933142D01*
X178201142Y-162980761D01*
X178248761Y-163028380D01*
X178296380Y-163123619D01*
X178296380Y-163218857D01*
X178248761Y-163314095D01*
X178201142Y-163361714D01*
X178105904Y-163409333D01*
X177915428Y-163456952D01*
X177677333Y-163456952D01*
X177486857Y-163409333D01*
X177391619Y-163361714D01*
X177344000Y-163314095D01*
X177296380Y-163218857D01*
X178296380Y-161933142D02*
X178296380Y-162504571D01*
X178296380Y-162218857D02*
X177296380Y-162218857D01*
X177439238Y-162314095D01*
X177534476Y-162409333D01*
X177582095Y-162504571D01*
X178296380Y-161599809D02*
X177629714Y-161076000D01*
X177629714Y-161599809D02*
X178296380Y-161076000D01*
X177296380Y-160504571D02*
X177296380Y-160409333D01*
X177344000Y-160314095D01*
X177391619Y-160266476D01*
X177486857Y-160218857D01*
X177677333Y-160171238D01*
X177915428Y-160171238D01*
X178105904Y-160218857D01*
X178201142Y-160266476D01*
X178248761Y-160314095D01*
X178296380Y-160409333D01*
X178296380Y-160504571D01*
X178248761Y-160599809D01*
X178201142Y-160647428D01*
X178105904Y-160695047D01*
X177915428Y-160742666D01*
X177677333Y-160742666D01*
X177486857Y-160695047D01*
X177391619Y-160647428D01*
X177344000Y-160599809D01*
X177296380Y-160504571D01*
X178296380Y-159218857D02*
X178296380Y-159790285D01*
X178296380Y-159504571D02*
X177296380Y-159504571D01*
X177439238Y-159599809D01*
X177534476Y-159695047D01*
X177582095Y-159790285D01*
X175180666Y-163028380D02*
X175180666Y-163742666D01*
X175133047Y-163885523D01*
X175037809Y-163980761D01*
X174894952Y-164028380D01*
X174799714Y-164028380D01*
X175799714Y-163456952D02*
X175704476Y-163409333D01*
X175656857Y-163361714D01*
X175609238Y-163266476D01*
X175609238Y-163218857D01*
X175656857Y-163123619D01*
X175704476Y-163076000D01*
X175799714Y-163028380D01*
X175990190Y-163028380D01*
X176085428Y-163076000D01*
X176133047Y-163123619D01*
X176180666Y-163218857D01*
X176180666Y-163266476D01*
X176133047Y-163361714D01*
X176085428Y-163409333D01*
X175990190Y-163456952D01*
X175799714Y-163456952D01*
X175704476Y-163504571D01*
X175656857Y-163552190D01*
X175609238Y-163647428D01*
X175609238Y-163837904D01*
X175656857Y-163933142D01*
X175704476Y-163980761D01*
X175799714Y-164028380D01*
X175990190Y-164028380D01*
X176085428Y-163980761D01*
X176133047Y-163933142D01*
X176180666Y-163837904D01*
X176180666Y-163647428D01*
X176133047Y-163552190D01*
X176085428Y-163504571D01*
X175990190Y-163456952D01*
X119919009Y-158860857D02*
X119919009Y-159432285D01*
X119919009Y-159146571D02*
X118919009Y-159146571D01*
X119061867Y-159241809D01*
X119157105Y-159337047D01*
X119204724Y-159432285D01*
X119919009Y-158432285D02*
X118919009Y-158432285D01*
X119919009Y-157860857D01*
X118919009Y-157860857D01*
X119252343Y-156956095D02*
X119919009Y-156956095D01*
X118871390Y-157194190D02*
X119585676Y-157432285D01*
X119585676Y-156813238D01*
X119919009Y-155908476D02*
X119919009Y-156479904D01*
X119919009Y-156194190D02*
X118919009Y-156194190D01*
X119061867Y-156289428D01*
X119157105Y-156384666D01*
X119204724Y-156479904D01*
X119252343Y-155051333D02*
X119919009Y-155051333D01*
X118871390Y-155289428D02*
X119585676Y-155527523D01*
X119585676Y-154908476D01*
X119347581Y-154384666D02*
X119299962Y-154479904D01*
X119252343Y-154527523D01*
X119157105Y-154575142D01*
X119109486Y-154575142D01*
X119014248Y-154527523D01*
X118966629Y-154479904D01*
X118919009Y-154384666D01*
X118919009Y-154194190D01*
X118966629Y-154098952D01*
X119014248Y-154051333D01*
X119109486Y-154003714D01*
X119157105Y-154003714D01*
X119252343Y-154051333D01*
X119299962Y-154098952D01*
X119347581Y-154194190D01*
X119347581Y-154384666D01*
X119395200Y-154479904D01*
X119442819Y-154527523D01*
X119538057Y-154575142D01*
X119728533Y-154575142D01*
X119823771Y-154527523D01*
X119871390Y-154479904D01*
X119919009Y-154384666D01*
X119919009Y-154194190D01*
X119871390Y-154098952D01*
X119823771Y-154051333D01*
X119728533Y-154003714D01*
X119538057Y-154003714D01*
X119442819Y-154051333D01*
X119395200Y-154098952D01*
X119347581Y-154194190D01*
X123134380Y-153909904D02*
X122134380Y-153909904D01*
X123134380Y-153338476D02*
X122562952Y-153767047D01*
X122134380Y-153338476D02*
X122705809Y-153909904D01*
X125460751Y-157456095D02*
X124460751Y-157456095D01*
X124460751Y-157218000D01*
X124508371Y-157075142D01*
X124603609Y-156979904D01*
X124698847Y-156932285D01*
X124889323Y-156884666D01*
X125032180Y-156884666D01*
X125222656Y-156932285D01*
X125317894Y-156979904D01*
X125413132Y-157075142D01*
X125460751Y-157218000D01*
X125460751Y-157456095D01*
X124460751Y-156551333D02*
X124460751Y-155884666D01*
X125460751Y-156313238D01*
X95500714Y-139993571D02*
X96167380Y-139993571D01*
X95119761Y-140231666D02*
X95834047Y-140469761D01*
X95834047Y-139850714D01*
X96072142Y-139469761D02*
X96119761Y-139422142D01*
X96167380Y-139469761D01*
X96119761Y-139517380D01*
X96072142Y-139469761D01*
X96167380Y-139469761D01*
X95167380Y-139088809D02*
X95167380Y-138422142D01*
X96167380Y-138850714D01*
X96167380Y-138041190D02*
X95167380Y-138041190D01*
X95786428Y-137945952D02*
X96167380Y-137660238D01*
X95500714Y-137660238D02*
X95881666Y-138041190D01*
X91427380Y-139231666D02*
X90951190Y-139565000D01*
X91427380Y-139803095D02*
X90427380Y-139803095D01*
X90427380Y-139422142D01*
X90475000Y-139326904D01*
X90522619Y-139279285D01*
X90617857Y-139231666D01*
X90760714Y-139231666D01*
X90855952Y-139279285D01*
X90903571Y-139326904D01*
X90951190Y-139422142D01*
X90951190Y-139803095D01*
X91427380Y-138755476D02*
X91427380Y-138565000D01*
X91379761Y-138469761D01*
X91332142Y-138422142D01*
X91189285Y-138326904D01*
X90998809Y-138279285D01*
X90617857Y-138279285D01*
X90522619Y-138326904D01*
X90475000Y-138374523D01*
X90427380Y-138469761D01*
X90427380Y-138660238D01*
X90475000Y-138755476D01*
X90522619Y-138803095D01*
X90617857Y-138850714D01*
X90855952Y-138850714D01*
X90951190Y-138803095D01*
X90998809Y-138755476D01*
X91046428Y-138660238D01*
X91046428Y-138469761D01*
X90998809Y-138374523D01*
X90951190Y-138326904D01*
X90855952Y-138279285D01*
X103127380Y-168711047D02*
X102460714Y-168711047D01*
X102651190Y-168711047D02*
X102555952Y-168663428D01*
X102508333Y-168615809D01*
X102460714Y-168520571D01*
X102460714Y-168425333D01*
X103079761Y-167711047D02*
X103127380Y-167806285D01*
X103127380Y-167996761D01*
X103079761Y-168092000D01*
X102984523Y-168139619D01*
X102603571Y-168139619D01*
X102508333Y-168092000D01*
X102460714Y-167996761D01*
X102460714Y-167806285D01*
X102508333Y-167711047D01*
X102603571Y-167663428D01*
X102698809Y-167663428D01*
X102794047Y-168139619D01*
X103127380Y-166806285D02*
X102603571Y-166806285D01*
X102508333Y-166853904D01*
X102460714Y-166949142D01*
X102460714Y-167139619D01*
X102508333Y-167234857D01*
X103079761Y-166806285D02*
X103127380Y-166901523D01*
X103127380Y-167139619D01*
X103079761Y-167234857D01*
X102984523Y-167282476D01*
X102889285Y-167282476D01*
X102794047Y-167234857D01*
X102746428Y-167139619D01*
X102746428Y-166901523D01*
X102698809Y-166806285D01*
X103127380Y-165901523D02*
X102127380Y-165901523D01*
X103079761Y-165901523D02*
X103127380Y-165996761D01*
X103127380Y-166187238D01*
X103079761Y-166282476D01*
X103032142Y-166330095D01*
X102936904Y-166377714D01*
X102651190Y-166377714D01*
X102555952Y-166330095D01*
X102508333Y-166282476D01*
X102460714Y-166187238D01*
X102460714Y-165996761D01*
X102508333Y-165901523D01*
X103127380Y-164663428D02*
X102460714Y-164663428D01*
X102651190Y-164663428D02*
X102555952Y-164615809D01*
X102508333Y-164568190D01*
X102460714Y-164472952D01*
X102460714Y-164377714D01*
X103079761Y-163663428D02*
X103127380Y-163758666D01*
X103127380Y-163949142D01*
X103079761Y-164044380D01*
X102984523Y-164092000D01*
X102603571Y-164092000D01*
X102508333Y-164044380D01*
X102460714Y-163949142D01*
X102460714Y-163758666D01*
X102508333Y-163663428D01*
X102603571Y-163615809D01*
X102698809Y-163615809D01*
X102794047Y-164092000D01*
X102460714Y-162758666D02*
X103270238Y-162758666D01*
X103365476Y-162806285D01*
X103413095Y-162853904D01*
X103460714Y-162949142D01*
X103460714Y-163092000D01*
X103413095Y-163187238D01*
X103079761Y-162758666D02*
X103127380Y-162853904D01*
X103127380Y-163044380D01*
X103079761Y-163139619D01*
X103032142Y-163187238D01*
X102936904Y-163234857D01*
X102651190Y-163234857D01*
X102555952Y-163187238D01*
X102508333Y-163139619D01*
X102460714Y-163044380D01*
X102460714Y-162853904D01*
X102508333Y-162758666D01*
X103127380Y-162282476D02*
X102460714Y-162282476D01*
X102127380Y-162282476D02*
X102175000Y-162330095D01*
X102222619Y-162282476D01*
X102175000Y-162234857D01*
X102127380Y-162282476D01*
X102222619Y-162282476D01*
X103127380Y-161663428D02*
X103079761Y-161758666D01*
X103032142Y-161806285D01*
X102936904Y-161853904D01*
X102651190Y-161853904D01*
X102555952Y-161806285D01*
X102508333Y-161758666D01*
X102460714Y-161663428D01*
X102460714Y-161520571D01*
X102508333Y-161425333D01*
X102555952Y-161377714D01*
X102651190Y-161330095D01*
X102936904Y-161330095D01*
X103032142Y-161377714D01*
X103079761Y-161425333D01*
X103127380Y-161520571D01*
X103127380Y-161663428D01*
X102460714Y-160901523D02*
X103127380Y-160901523D01*
X102555952Y-160901523D02*
X102508333Y-160853904D01*
X102460714Y-160758666D01*
X102460714Y-160615809D01*
X102508333Y-160520571D01*
X102603571Y-160472952D01*
X103127380Y-160472952D01*
X97471666Y-164044380D02*
X97471666Y-164758666D01*
X97424047Y-164901523D01*
X97328809Y-164996761D01*
X97185952Y-165044380D01*
X97090714Y-165044380D01*
X98424047Y-164044380D02*
X97947857Y-164044380D01*
X97900238Y-164520571D01*
X97947857Y-164472952D01*
X98043095Y-164425333D01*
X98281190Y-164425333D01*
X98376428Y-164472952D01*
X98424047Y-164520571D01*
X98471666Y-164615809D01*
X98471666Y-164853904D01*
X98424047Y-164949142D01*
X98376428Y-164996761D01*
X98281190Y-165044380D01*
X98043095Y-165044380D01*
X97947857Y-164996761D01*
X97900238Y-164949142D01*
X122459009Y-158860857D02*
X122459009Y-159432285D01*
X122459009Y-159146571D02*
X121459009Y-159146571D01*
X121601867Y-159241809D01*
X121697105Y-159337047D01*
X121744724Y-159432285D01*
X122459009Y-158432285D02*
X121459009Y-158432285D01*
X122459009Y-157860857D01*
X121459009Y-157860857D01*
X121792343Y-156956095D02*
X122459009Y-156956095D01*
X121411390Y-157194190D02*
X122125676Y-157432285D01*
X122125676Y-156813238D01*
X122459009Y-155908476D02*
X122459009Y-156479904D01*
X122459009Y-156194190D02*
X121459009Y-156194190D01*
X121601867Y-156289428D01*
X121697105Y-156384666D01*
X121744724Y-156479904D01*
X121792343Y-155051333D02*
X122459009Y-155051333D01*
X121411390Y-155289428D02*
X122125676Y-155527523D01*
X122125676Y-154908476D01*
X121887581Y-154384666D02*
X121839962Y-154479904D01*
X121792343Y-154527523D01*
X121697105Y-154575142D01*
X121649486Y-154575142D01*
X121554248Y-154527523D01*
X121506629Y-154479904D01*
X121459009Y-154384666D01*
X121459009Y-154194190D01*
X121506629Y-154098952D01*
X121554248Y-154051333D01*
X121649486Y-154003714D01*
X121697105Y-154003714D01*
X121792343Y-154051333D01*
X121839962Y-154098952D01*
X121887581Y-154194190D01*
X121887581Y-154384666D01*
X121935200Y-154479904D01*
X121982819Y-154527523D01*
X122078057Y-154575142D01*
X122268533Y-154575142D01*
X122363771Y-154527523D01*
X122411390Y-154479904D01*
X122459009Y-154384666D01*
X122459009Y-154194190D01*
X122411390Y-154098952D01*
X122363771Y-154051333D01*
X122268533Y-154003714D01*
X122078057Y-154003714D01*
X121982819Y-154051333D01*
X121935200Y-154098952D01*
X121887581Y-154194190D01*
X125674380Y-153909904D02*
X124674380Y-153909904D01*
X125674380Y-153338476D02*
X125102952Y-153767047D01*
X124674380Y-153338476D02*
X125245809Y-153909904D01*
X128000751Y-157456095D02*
X127000751Y-157456095D01*
X127000751Y-157218000D01*
X127048371Y-157075142D01*
X127143609Y-156979904D01*
X127238847Y-156932285D01*
X127429323Y-156884666D01*
X127572180Y-156884666D01*
X127762656Y-156932285D01*
X127857894Y-156979904D01*
X127953132Y-157075142D01*
X128000751Y-157218000D01*
X128000751Y-157456095D01*
X127000751Y-156027523D02*
X127000751Y-156218000D01*
X127048371Y-156313238D01*
X127095990Y-156360857D01*
X127238847Y-156456095D01*
X127429323Y-156503714D01*
X127810275Y-156503714D01*
X127905513Y-156456095D01*
X127953132Y-156408476D01*
X128000751Y-156313238D01*
X128000751Y-156122761D01*
X127953132Y-156027523D01*
X127905513Y-155979904D01*
X127810275Y-155932285D01*
X127572180Y-155932285D01*
X127476942Y-155979904D01*
X127429323Y-156027523D01*
X127381704Y-156122761D01*
X127381704Y-156313238D01*
X127429323Y-156408476D01*
X127476942Y-156456095D01*
X127572180Y-156503714D01*
D12*
X93218000Y-155448000D02*
X93218000Y-157988000D01*
X94218000Y-157988000D02*
G75*
G03*
X94218000Y-157988000I-1000000J0D01*
G01*
X103378000Y-155448000D02*
X103378000Y-157988000D01*
X104378000Y-157988000D02*
G75*
G03*
X104378000Y-157988000I-1000000J0D01*
G01*
X171704000Y-164211000D02*
X171704000Y-162306000D01*
X174244000Y-164846000D02*
X172339000Y-164846000D01*
X171704000Y-162306000D02*
X174244000Y-162306000D01*
X172339000Y-164846000D02*
X171704000Y-164211000D01*
X174244000Y-162306000D02*
X174244000Y-164846000D01*
X128299000Y-136906000D02*
X125759000Y-136906000D01*
X129549000Y-136906000D02*
G75*
G03*
X129549000Y-136906000I-1250000J0D01*
G01*
X87376000Y-152788000D02*
X87376000Y-150938000D01*
X88676000Y-150938000D02*
X88676000Y-147138000D01*
X86076000Y-150938000D02*
X88676000Y-150938000D01*
X88676000Y-147138000D02*
X86076000Y-147138000D01*
X86076000Y-147138000D02*
X86076000Y-150938000D01*
X87376000Y-145288000D02*
X87376000Y-147138000D01*
X178054000Y-144018000D02*
X178054000Y-149098000D01*
X170434000Y-147828000D02*
X170434000Y-144018000D01*
X171704000Y-149098000D02*
X170434000Y-147828000D01*
X178054000Y-149098000D02*
X171704000Y-149098000D01*
X170434000Y-144018000D02*
X178054000Y-144018000D01*
X95758000Y-155448000D02*
X95758000Y-157988000D01*
X96758000Y-157988000D02*
G75*
G03*
X96758000Y-157988000I-1000000J0D01*
G01*
X109728000Y-152273000D02*
X89408000Y-152273000D01*
X89408000Y-152273000D02*
X89408000Y-145923000D01*
X109728000Y-146923000D02*
X109728000Y-152273000D01*
X108728000Y-145923000D02*
X109728000Y-146923000D01*
X89408000Y-145923000D02*
X108728000Y-145923000D01*
X115062000Y-155448000D02*
X115062000Y-157988000D01*
X116062000Y-157988000D02*
G75*
G03*
X116062000Y-157988000I-1000000J0D01*
G01*
X105664000Y-98806000D02*
X103124000Y-98806000D01*
X107014000Y-98806000D02*
G75*
G03*
X107014000Y-98806000I-1350000J0D01*
G01*
X160175686Y-116840000D02*
X157635686Y-116840000D01*
X158635686Y-116840000D02*
G75*
G03*
X158635686Y-116840000I-1000000J0D01*
G01*
X87376000Y-155448000D02*
X87376000Y-157988000D01*
X88376000Y-157988000D02*
G75*
G03*
X88376000Y-157988000I-1000000J0D01*
G01*
X182851000Y-148590000D02*
X185391000Y-148590000D01*
X184101000Y-148590000D02*
G75*
G03*
X184101000Y-148590000I-1250000J0D01*
G01*
X127762000Y-155448000D02*
X127762000Y-157988000D01*
X128762000Y-157988000D02*
G75*
G03*
X128762000Y-157988000I-1000000J0D01*
G01*
X100838000Y-155448000D02*
X100838000Y-157988000D01*
X101838000Y-157988000D02*
G75*
G03*
X101838000Y-157988000I-1000000J0D01*
G01*
X160274000Y-98044000D02*
X162814000Y-98044000D01*
X161624000Y-98044000D02*
G75*
G03*
X161624000Y-98044000I-1350000J0D01*
G01*
X120142000Y-155448000D02*
X120142000Y-157988000D01*
X121142000Y-157988000D02*
G75*
G03*
X121142000Y-157988000I-1000000J0D01*
G01*
X155438000Y-156459000D02*
X156708000Y-157729000D01*
X156708000Y-157729000D02*
X156708000Y-161539000D01*
X146548000Y-161539000D02*
X146548000Y-156459000D01*
X156708000Y-161539000D02*
X146548000Y-161539000D01*
X146548000Y-156459000D02*
X155438000Y-156459000D01*
X152176000Y-104516000D02*
X152176000Y-100716000D01*
X150876000Y-98866000D02*
X150876000Y-100716000D01*
X149576000Y-104516000D02*
X152176000Y-104516000D01*
X150876000Y-106366000D02*
X150876000Y-104516000D01*
X152176000Y-100716000D02*
X149576000Y-100716000D01*
X149576000Y-100716000D02*
X149576000Y-104516000D01*
X182851000Y-143256000D02*
X185391000Y-143256000D01*
X184101000Y-143256000D02*
G75*
G03*
X184101000Y-143256000I-1250000J0D01*
G01*
X130302000Y-155448000D02*
X130302000Y-157988000D01*
X131302000Y-157988000D02*
G75*
G03*
X131302000Y-157988000I-1000000J0D01*
G01*
X126999000Y-100838000D02*
X126999000Y-131318000D01*
X126999000Y-131318000D02*
X112269000Y-131318000D01*
X113269000Y-100838000D02*
X126999000Y-100838000D01*
X128524000Y-131378000D02*
X128524000Y-100778000D01*
X110744000Y-100778000D02*
X110744000Y-131378000D01*
X110744000Y-131378000D02*
X128524000Y-131378000D01*
X112269000Y-131318000D02*
X112269000Y-101838000D01*
X112269000Y-101838000D02*
X113269000Y-100838000D01*
X128524000Y-100778000D02*
X110744000Y-100778000D01*
X141589000Y-100838000D02*
X146939000Y-100838000D01*
X146939000Y-136398000D02*
X140589000Y-136398000D01*
X140589000Y-101838000D02*
X141589000Y-100838000D01*
X146939000Y-100838000D02*
X146939000Y-136398000D01*
X140589000Y-136398000D02*
X140589000Y-101838000D01*
X97170000Y-136525000D02*
X104790000Y-136525000D01*
X97805000Y-139065000D02*
X97170000Y-138430000D01*
X104790000Y-139065000D02*
X97805000Y-139065000D01*
X104790000Y-136525000D02*
X104790000Y-139065000D01*
X97170000Y-138430000D02*
X97170000Y-136525000D01*
X156464000Y-105283000D02*
X157099000Y-104648000D01*
X157099000Y-104648000D02*
X159004000Y-104648000D01*
X159004000Y-107188000D02*
X156464000Y-107188000D01*
X159004000Y-104648000D02*
X159004000Y-107188000D01*
X156464000Y-107188000D02*
X156464000Y-105283000D01*
X92964000Y-131318000D02*
X92964000Y-102108000D01*
X98044000Y-100838000D02*
X98044000Y-131318000D01*
X94234000Y-100838000D02*
X98044000Y-100838000D01*
X98044000Y-131318000D02*
X92964000Y-131318000D01*
X92964000Y-102108000D02*
X94234000Y-100838000D01*
X158975000Y-155702000D02*
X161515000Y-155702000D01*
X160225000Y-155702000D02*
G75*
G03*
X160225000Y-155702000I-1250000J0D01*
G01*
X163106000Y-150348000D02*
X166606000Y-150348000D01*
X166599625Y-150351625D02*
G75*
G03*
X164846000Y-146118000I-1753625J1753625D01*
G01*
X164846000Y-146118000D02*
G75*
G03*
X163092375Y-150351625I0J-2480000D01*
G01*
X105918000Y-155448000D02*
X105918000Y-157988000D01*
X106918000Y-157988000D02*
G75*
G03*
X106918000Y-157988000I-1000000J0D01*
G01*
X98298000Y-155448000D02*
X98298000Y-157988000D01*
X99298000Y-157988000D02*
G75*
G03*
X99298000Y-157988000I-1000000J0D01*
G01*
X134620000Y-105156000D02*
X132080000Y-105156000D01*
X134620000Y-102616000D02*
X134620000Y-105156000D01*
X132080000Y-105156000D02*
X132080000Y-103251000D01*
X132080000Y-103251000D02*
X132715000Y-102616000D01*
X132715000Y-102616000D02*
X134620000Y-102616000D01*
X139169000Y-152838000D02*
X139169000Y-150988000D01*
X137869000Y-150988000D02*
X140469000Y-150988000D01*
X140469000Y-150988000D02*
X140469000Y-147188000D01*
X139169000Y-145338000D02*
X139169000Y-147188000D01*
X140469000Y-147188000D02*
X137869000Y-147188000D01*
X137869000Y-147188000D02*
X137869000Y-150988000D01*
X179324000Y-162306000D02*
X179324000Y-164846000D01*
X177419000Y-164846000D02*
X176784000Y-164211000D01*
X176784000Y-162306000D02*
X179324000Y-162306000D01*
X176784000Y-164211000D02*
X176784000Y-162306000D01*
X179324000Y-164846000D02*
X177419000Y-164846000D01*
X182118000Y-97790000D02*
X182118000Y-139700000D01*
X164338000Y-97790000D02*
X182118000Y-97790000D01*
X164338000Y-140970000D02*
X164338000Y-97790000D01*
X180848000Y-140970000D02*
X164338000Y-140970000D01*
X182118000Y-139700000D02*
X180848000Y-140970000D01*
X159229000Y-160528000D02*
X161769000Y-160528000D01*
X160479000Y-160528000D02*
G75*
G03*
X160479000Y-160528000I-1250000J0D01*
G01*
X95631000Y-97536000D02*
X97536000Y-97536000D01*
X97536000Y-97536000D02*
X97536000Y-100076000D01*
X94996000Y-100076000D02*
X94996000Y-98171000D01*
X97536000Y-100076000D02*
X94996000Y-100076000D01*
X94996000Y-98171000D02*
X95631000Y-97536000D01*
X162306000Y-133321000D02*
X162306000Y-135861000D01*
X163556000Y-133321000D02*
G75*
G03*
X163556000Y-133321000I-1250000J0D01*
G01*
X132715000Y-97536000D02*
X134620000Y-97536000D01*
X132080000Y-100076000D02*
X132080000Y-98171000D01*
X134620000Y-100076000D02*
X132080000Y-100076000D01*
X132080000Y-98171000D02*
X132715000Y-97536000D01*
X134620000Y-97536000D02*
X134620000Y-100076000D01*
X141229000Y-152283000D02*
X141229000Y-145933000D01*
X158009000Y-145933000D02*
X159009000Y-146933000D01*
X159009000Y-146933000D02*
X159009000Y-152283000D01*
X159009000Y-152283000D02*
X141229000Y-152283000D01*
X141229000Y-145933000D02*
X158009000Y-145933000D01*
X113777000Y-145933000D02*
X133097000Y-145933000D01*
X133097000Y-145933000D02*
X134097000Y-146933000D01*
X134097000Y-152283000D02*
X113777000Y-152283000D01*
X134097000Y-146933000D02*
X134097000Y-152283000D01*
X113777000Y-152283000D02*
X113777000Y-145933000D01*
X181859000Y-159883000D02*
X165079000Y-159883000D01*
X165079000Y-159883000D02*
X164079000Y-158883000D01*
X164079000Y-153533000D02*
X181859000Y-153533000D01*
X181859000Y-153533000D02*
X181859000Y-159883000D01*
X164079000Y-158883000D02*
X164079000Y-153533000D01*
X132842000Y-155448000D02*
X132842000Y-157988000D01*
X133842000Y-157988000D02*
G75*
G03*
X133842000Y-157988000I-1000000J0D01*
G01*
X117602000Y-155448000D02*
X117602000Y-157988000D01*
X118602000Y-157988000D02*
G75*
G03*
X118602000Y-157988000I-1000000J0D01*
G01*
X183896000Y-160528000D02*
X183896000Y-158678000D01*
X183896000Y-153028000D02*
X183896000Y-154878000D01*
X182596000Y-154878000D02*
X182596000Y-158678000D01*
X185196000Y-154878000D02*
X182596000Y-154878000D01*
X182596000Y-158678000D02*
X185196000Y-158678000D01*
X185196000Y-158678000D02*
X185196000Y-154878000D01*
X90678000Y-155448000D02*
X90678000Y-157988000D01*
X91678000Y-157988000D02*
G75*
G03*
X91678000Y-157988000I-1000000J0D01*
G01*
X111760000Y-152788000D02*
X111760000Y-150938000D01*
X113060000Y-147138000D02*
X110460000Y-147138000D01*
X110460000Y-147138000D02*
X110460000Y-150938000D01*
X113060000Y-150938000D02*
X113060000Y-147138000D01*
X111760000Y-145288000D02*
X111760000Y-147138000D01*
X110460000Y-150938000D02*
X113060000Y-150938000D01*
X155448000Y-132588000D02*
X152908000Y-132588000D01*
X156698000Y-132588000D02*
G75*
G03*
X156698000Y-132588000I-1250000J0D01*
G01*
X138938000Y-155448000D02*
X138938000Y-157988000D01*
X140188000Y-155448000D02*
G75*
G03*
X140188000Y-155448000I-1250000J0D01*
G01*
X174879000Y-164846000D02*
X174244000Y-164211000D01*
X174244000Y-164211000D02*
X174244000Y-162306000D01*
X174244000Y-162306000D02*
X176784000Y-162306000D01*
X176784000Y-164846000D02*
X174879000Y-164846000D01*
X176784000Y-162306000D02*
X176784000Y-164846000D01*
X122682000Y-155448000D02*
X122682000Y-157988000D01*
X123682000Y-157988000D02*
G75*
G03*
X123682000Y-157988000I-1000000J0D01*
G01*
X93345000Y-140335000D02*
X93345000Y-137795000D01*
X94595000Y-140335000D02*
G75*
G03*
X94595000Y-140335000I-1250000J0D01*
G01*
X101615000Y-163322000D02*
X101615000Y-165862000D01*
X93995000Y-163322000D02*
X101615000Y-163322000D01*
X101615000Y-165862000D02*
X94630000Y-165862000D01*
X94630000Y-165862000D02*
X93995000Y-165227000D01*
X93995000Y-165227000D02*
X93995000Y-163322000D01*
X125222000Y-155448000D02*
X125222000Y-157988000D01*
X126222000Y-157988000D02*
G75*
G03*
X126222000Y-157988000I-1000000J0D01*
G01*
M02*
