%TF.GenerationSoftware,KiCad,Pcbnew,(6.0.0)*%
%TF.CreationDate,2022-03-13T18:30:08-04:00*%
%TF.ProjectId,io_i2c,696f5f69-3263-42e6-9b69-6361645f7063,rev?*%
%TF.SameCoordinates,Original*%
%TF.FileFunction,Soldermask,Top*%
%TF.FilePolarity,Negative*%
%FSLAX46Y46*%
G04 Gerber Fmt 4.6, Leading zero omitted, Abs format (unit mm)*
G04 Created by KiCad (PCBNEW (6.0.0)) date 2022-03-13 18:30:08*
%MOMM*%
%LPD*%
G01*
G04 APERTURE LIST*
G04 Aperture macros list*
%AMRoundRect*
0 Rectangle with rounded corners*
0 $1 Rounding radius*
0 $2 $3 $4 $5 $6 $7 $8 $9 X,Y pos of 4 corners*
0 Add a 4 corners polygon primitive as box body*
4,1,4,$2,$3,$4,$5,$6,$7,$8,$9,$2,$3,0*
0 Add four circle primitives for the rounded corners*
1,1,$1+$1,$2,$3*
1,1,$1+$1,$4,$5*
1,1,$1+$1,$6,$7*
1,1,$1+$1,$8,$9*
0 Add four rect primitives between the rounded corners*
20,1,$1+$1,$2,$3,$4,$5,0*
20,1,$1+$1,$4,$5,$6,$7,0*
20,1,$1+$1,$6,$7,$8,$9,0*
20,1,$1+$1,$8,$9,$2,$3,0*%
G04 Aperture macros list end*
%ADD10R,1.600000X1.600000*%
%ADD11O,1.600000X1.600000*%
%ADD12C,1.600000*%
%ADD13R,1.050000X1.500000*%
%ADD14O,1.050000X1.500000*%
%ADD15R,1.700000X1.700000*%
%ADD16O,1.700000X1.700000*%
%ADD17C,3.200000*%
%ADD18RoundRect,0.225000X-0.225000X-0.250000X0.225000X-0.250000X0.225000X0.250000X-0.225000X0.250000X0*%
%ADD19R,2.200000X2.200000*%
%ADD20O,2.200000X2.200000*%
G04 APERTURE END LIST*
D10*
%TO.C,U1*%
X120343789Y-108566511D03*
D11*
X120343789Y-111106511D03*
X120343789Y-113646511D03*
X120343789Y-116186511D03*
X120343789Y-118726511D03*
X120343789Y-121266511D03*
X120343789Y-123806511D03*
X120343789Y-126346511D03*
X120343789Y-128886511D03*
X120343789Y-131426511D03*
X120343789Y-133966511D03*
X120343789Y-136506511D03*
X135583789Y-136506511D03*
X135583789Y-133966511D03*
X135583789Y-131426511D03*
X135583789Y-128886511D03*
X135583789Y-126346511D03*
X135583789Y-123806511D03*
X135583789Y-121266511D03*
X135583789Y-118726511D03*
X135583789Y-116186511D03*
X135583789Y-113646511D03*
X135583789Y-111106511D03*
X135583789Y-108566511D03*
%TD*%
D10*
%TO.C,U2*%
X144780000Y-164846000D03*
D11*
X147320000Y-164846000D03*
X149860000Y-164846000D03*
X152400000Y-164846000D03*
X154940000Y-164846000D03*
X157480000Y-164846000D03*
X160020000Y-164846000D03*
X160020000Y-157226000D03*
X157480000Y-157226000D03*
X154940000Y-157226000D03*
X152400000Y-157226000D03*
X149860000Y-157226000D03*
X147320000Y-157226000D03*
X144780000Y-157226000D03*
%TD*%
D10*
%TO.C,J1*%
X117549789Y-108566511D03*
D11*
X117549789Y-111106511D03*
X117549789Y-113646511D03*
X117549789Y-116186511D03*
X117549789Y-118726511D03*
X117549789Y-121266511D03*
X117549789Y-123806511D03*
X117549789Y-126346511D03*
X117549789Y-128886511D03*
X117549789Y-131426511D03*
X117549789Y-133966511D03*
X117549789Y-136506511D03*
X132789789Y-136506511D03*
X132789789Y-133966511D03*
X132789789Y-131426511D03*
X132789789Y-128886511D03*
X132789789Y-126346511D03*
X132789789Y-123806511D03*
X132789789Y-121266511D03*
X132789789Y-118726511D03*
X132789789Y-116186511D03*
X132789789Y-113646511D03*
X132789789Y-111106511D03*
X132789789Y-108566511D03*
%TD*%
D12*
%TO.C,C1*%
X101346000Y-146618000D03*
D11*
X101346000Y-154118000D03*
%TD*%
D12*
%TO.C,C2*%
X149098000Y-96774000D03*
D11*
X141598000Y-96774000D03*
%TD*%
D10*
%TO.C,U4*%
X104663000Y-154168000D03*
D11*
X107203000Y-154168000D03*
X109743000Y-154168000D03*
X112283000Y-154168000D03*
X114823000Y-154168000D03*
X117363000Y-154168000D03*
X119903000Y-154168000D03*
X122443000Y-154168000D03*
X122443000Y-146548000D03*
X119903000Y-146548000D03*
X117363000Y-146548000D03*
X114823000Y-146548000D03*
X112283000Y-146548000D03*
X109743000Y-146548000D03*
X107203000Y-146548000D03*
X104663000Y-146548000D03*
%TD*%
D10*
%TO.C,U3*%
X119883000Y-165090000D03*
D11*
X122423000Y-165090000D03*
X124963000Y-165090000D03*
X127503000Y-165090000D03*
X130043000Y-165090000D03*
X132583000Y-165090000D03*
X135123000Y-165090000D03*
X135123000Y-157470000D03*
X132583000Y-157470000D03*
X130043000Y-157470000D03*
X127503000Y-157470000D03*
X124963000Y-157470000D03*
X122423000Y-157470000D03*
X119883000Y-157470000D03*
%TD*%
D12*
%TO.C,C3*%
X139700000Y-157286000D03*
D11*
X139700000Y-164786000D03*
%TD*%
D13*
%TO.C,Q1*%
X174752000Y-126090000D03*
D14*
X176022000Y-126090000D03*
X177292000Y-126090000D03*
%TD*%
D10*
%TO.C,A1*%
X170678000Y-131826000D03*
D11*
X170678000Y-129286000D03*
X170678000Y-126746000D03*
X170678000Y-124206000D03*
X170678000Y-121666000D03*
X170678000Y-119126000D03*
X170678000Y-116586000D03*
X170678000Y-114046000D03*
X170678000Y-111506000D03*
X170678000Y-108966000D03*
X170678000Y-106426000D03*
X170678000Y-103886000D03*
X170678000Y-101346000D03*
X170678000Y-98806000D03*
X170678000Y-96266000D03*
X155438000Y-96266000D03*
X155438000Y-98806000D03*
X155438000Y-101346000D03*
X155438000Y-103886000D03*
X155438000Y-106426000D03*
X155438000Y-108966000D03*
X155438000Y-111506000D03*
X155438000Y-114046000D03*
X155438000Y-116586000D03*
X155438000Y-119126000D03*
X155438000Y-121666000D03*
X155438000Y-124206000D03*
X155438000Y-126746000D03*
X155438000Y-129286000D03*
X155438000Y-131826000D03*
%TD*%
D15*
%TO.C,J2*%
X175006000Y-112268000D03*
D16*
X177546000Y-112268000D03*
X175006000Y-114808000D03*
X177546000Y-114808000D03*
X175006000Y-117348000D03*
X177546000Y-117348000D03*
X175006000Y-119888000D03*
X177546000Y-119888000D03*
%TD*%
D10*
%TO.C,D7*%
X124983000Y-144106314D03*
D11*
X124983000Y-141566314D03*
%TD*%
D12*
%TO.C,R1*%
X173990000Y-107725000D03*
D11*
X173990000Y-105185000D03*
%TD*%
D17*
%TO.C,REF\u002A\u002A*%
X101600000Y-95885000D03*
%TD*%
D10*
%TO.C,D3*%
X112283000Y-144106314D03*
D11*
X112283000Y-141566314D03*
%TD*%
D15*
%TO.C,J3*%
X136398000Y-146812000D03*
D16*
X138938000Y-146812000D03*
X136398000Y-149352000D03*
X138938000Y-149352000D03*
X136398000Y-151892000D03*
X138938000Y-151892000D03*
%TD*%
D12*
%TO.C,C5*%
X164592000Y-157286000D03*
D11*
X164592000Y-164786000D03*
%TD*%
D12*
%TO.C,R3*%
X125984000Y-101063000D03*
D11*
X125984000Y-103603000D03*
%TD*%
D17*
%TO.C,REF\u002A\u002A*%
X179705000Y-95885000D03*
%TD*%
D10*
%TO.C,U6*%
X150828789Y-133209511D03*
D11*
X150828789Y-130669511D03*
X150828789Y-128129511D03*
X150828789Y-125589511D03*
X150828789Y-123049511D03*
X150828789Y-120509511D03*
X150828789Y-117969511D03*
X150828789Y-115429511D03*
X150828789Y-112889511D03*
X150828789Y-110349511D03*
X150828789Y-107809511D03*
X150828789Y-105269511D03*
X150828789Y-102729511D03*
X150828789Y-100189511D03*
X143208789Y-100189511D03*
X143208789Y-102729511D03*
X143208789Y-105269511D03*
X143208789Y-107809511D03*
X143208789Y-110349511D03*
X143208789Y-112889511D03*
X143208789Y-115429511D03*
X143208789Y-117969511D03*
X143208789Y-120509511D03*
X143208789Y-123049511D03*
X143208789Y-125589511D03*
X143208789Y-128129511D03*
X143208789Y-130669511D03*
X143208789Y-133209511D03*
%TD*%
D12*
%TO.C,R4*%
X176813000Y-131318000D03*
D11*
X174273000Y-131318000D03*
%TD*%
D10*
%TO.C,D2*%
X109743000Y-144106314D03*
D11*
X109743000Y-141566314D03*
%TD*%
D18*
%TO.C,C6*%
X131559000Y-167538400D03*
X133109000Y-167538400D03*
%TD*%
D12*
%TO.C,R5*%
X138684000Y-105693000D03*
D11*
X138684000Y-103153000D03*
%TD*%
D15*
%TO.C,J4*%
X108664789Y-108571511D03*
D16*
X111204789Y-108571511D03*
X108664789Y-111111511D03*
X111204789Y-111111511D03*
X108664789Y-113651511D03*
X111204789Y-113651511D03*
X108664789Y-116191511D03*
X111204789Y-116191511D03*
X108664789Y-118731511D03*
X111204789Y-118731511D03*
X108664789Y-121271511D03*
X111204789Y-121271511D03*
X108664789Y-123811511D03*
X111204789Y-123811511D03*
X108664789Y-126351511D03*
X111204789Y-126351511D03*
X108664789Y-128891511D03*
X111204789Y-128891511D03*
X108664789Y-131431511D03*
X111204789Y-131431511D03*
X108664789Y-133971511D03*
X111204789Y-133971511D03*
X108664789Y-136511511D03*
X111204789Y-136511511D03*
%TD*%
D19*
%TO.C,D9*%
X135636000Y-100893766D03*
D20*
X135636000Y-98353766D03*
%TD*%
D10*
%TO.C,D1*%
X107203000Y-144106314D03*
D11*
X107203000Y-141566314D03*
%TD*%
D17*
%TO.C,REF\u002A\u002A*%
X101600000Y-165100000D03*
%TD*%
D12*
%TO.C,R2*%
X142240000Y-139192000D03*
D11*
X142240000Y-141732000D03*
%TD*%
D17*
%TO.C,REF\u002A\u002A*%
X179705000Y-165100000D03*
%TD*%
D10*
%TO.C,U5*%
X144775000Y-153152000D03*
D11*
X147315000Y-153152000D03*
X149855000Y-153152000D03*
X152395000Y-153152000D03*
X154935000Y-153152000D03*
X157475000Y-153152000D03*
X160015000Y-153152000D03*
X160015000Y-145532000D03*
X157475000Y-145532000D03*
X154935000Y-145532000D03*
X152395000Y-145532000D03*
X149855000Y-145532000D03*
X147315000Y-145532000D03*
X144775000Y-145532000D03*
%TD*%
D10*
%TO.C,D6*%
X122443000Y-144106314D03*
D11*
X122443000Y-141566314D03*
%TD*%
D12*
%TO.C,C4*%
X164338000Y-145602000D03*
D11*
X164338000Y-153102000D03*
%TD*%
D19*
%TO.C,D8*%
X130556000Y-100782234D03*
D20*
X130556000Y-103322234D03*
%TD*%
D10*
%TO.C,D4*%
X114823000Y-144106314D03*
D11*
X114823000Y-141566314D03*
%TD*%
D10*
%TO.C,D5*%
X119903000Y-144106314D03*
D11*
X119903000Y-141566314D03*
%TD*%
M02*
