G04 #@! TF.GenerationSoftware,KiCad,Pcbnew,(6.0.0)*
G04 #@! TF.CreationDate,2022-08-18T21:42:32-04:00*
G04 #@! TF.ProjectId,io_i2c,696f5f69-3263-42e6-9b69-6361645f7063,rev?*
G04 #@! TF.SameCoordinates,Original*
G04 #@! TF.FileFunction,Soldermask,Top*
G04 #@! TF.FilePolarity,Negative*
%FSLAX46Y46*%
G04 Gerber Fmt 4.6, Leading zero omitted, Abs format (unit mm)*
G04 Created by KiCad (PCBNEW (6.0.0)) date 2022-08-18 21:42:32*
%MOMM*%
%LPD*%
G01*
G04 APERTURE LIST*
%ADD10R,1.600000X1.600000*%
%ADD11O,1.600000X1.600000*%
%ADD12R,1.700000X1.700000*%
%ADD13C,1.600000*%
%ADD14C,3.200000*%
%ADD15O,1.700000X1.700000*%
%ADD16R,2.200000X2.200000*%
%ADD17O,2.200000X2.200000*%
%ADD18R,1.500000X1.500000*%
%ADD19C,1.500000*%
G04 APERTURE END LIST*
D10*
X93218000Y-155448000D03*
D11*
X93218000Y-157988000D03*
D10*
X103378000Y-155448000D03*
D11*
X103378000Y-157988000D03*
D12*
X172974000Y-163576000D03*
D13*
X128299000Y-136906000D03*
D11*
X125759000Y-136906000D03*
D14*
X184658000Y-97282000D03*
D10*
X89154000Y-102108000D03*
D11*
X89154000Y-104648000D03*
X89154000Y-107188000D03*
X89154000Y-109728000D03*
X89154000Y-112268000D03*
X89154000Y-114808000D03*
X89154000Y-117348000D03*
X89154000Y-119888000D03*
X89154000Y-122428000D03*
X89154000Y-124968000D03*
X89154000Y-127508000D03*
X89154000Y-130048000D03*
X104394000Y-130048000D03*
X104394000Y-127508000D03*
X104394000Y-124968000D03*
X104394000Y-122428000D03*
X104394000Y-119888000D03*
X104394000Y-117348000D03*
X104394000Y-114808000D03*
X104394000Y-112268000D03*
X104394000Y-109728000D03*
X104394000Y-107188000D03*
X104394000Y-104648000D03*
X104394000Y-102108000D03*
D13*
X87376000Y-152788000D03*
D11*
X87376000Y-145288000D03*
D12*
X171704000Y-147828000D03*
D15*
X171704000Y-145288000D03*
X174244000Y-147828000D03*
X174244000Y-145288000D03*
X176784000Y-147828000D03*
X176784000Y-145288000D03*
D10*
X95758000Y-155448000D03*
D11*
X95758000Y-157988000D03*
D10*
X108458000Y-145288000D03*
D11*
X105918000Y-145288000D03*
X103378000Y-145288000D03*
X100838000Y-145288000D03*
X98298000Y-145288000D03*
X95758000Y-145288000D03*
X93218000Y-145288000D03*
X90678000Y-145288000D03*
X90678000Y-152908000D03*
X93218000Y-152908000D03*
X95758000Y-152908000D03*
X98298000Y-152908000D03*
X100838000Y-152908000D03*
X103378000Y-152908000D03*
X105918000Y-152908000D03*
X108458000Y-152908000D03*
D10*
X115062000Y-155448000D03*
D11*
X115062000Y-157988000D03*
D16*
X105664000Y-98806000D03*
D17*
X103124000Y-98806000D03*
D10*
X160175686Y-116840000D03*
D11*
X157635686Y-116840000D03*
D10*
X87376000Y-155448000D03*
D11*
X87376000Y-157988000D03*
D13*
X182851000Y-148590000D03*
D11*
X185391000Y-148590000D03*
D10*
X127762000Y-155448000D03*
D11*
X127762000Y-157988000D03*
D10*
X100838000Y-155448000D03*
D11*
X100838000Y-157988000D03*
D16*
X160274000Y-98044000D03*
D17*
X162814000Y-98044000D03*
D10*
X120142000Y-155448000D03*
D11*
X120142000Y-157988000D03*
D12*
X155438000Y-157729000D03*
D15*
X155438000Y-160269000D03*
X152898000Y-157729000D03*
X152898000Y-160269000D03*
X150358000Y-157729000D03*
X150358000Y-160269000D03*
X147818000Y-157729000D03*
X147818000Y-160269000D03*
D13*
X150876000Y-98866000D03*
D11*
X150876000Y-106366000D03*
D13*
X182851000Y-143256000D03*
D11*
X185391000Y-143256000D03*
D10*
X130302000Y-155448000D03*
D11*
X130302000Y-157988000D03*
D10*
X112014000Y-102108000D03*
D11*
X112014000Y-104648000D03*
X112014000Y-107188000D03*
X112014000Y-109728000D03*
X112014000Y-112268000D03*
X112014000Y-114808000D03*
X112014000Y-117348000D03*
X112014000Y-119888000D03*
X112014000Y-122428000D03*
X112014000Y-124968000D03*
X112014000Y-127508000D03*
X112014000Y-130048000D03*
X127254000Y-130048000D03*
X127254000Y-127508000D03*
X127254000Y-124968000D03*
X127254000Y-122428000D03*
X127254000Y-119888000D03*
X127254000Y-117348000D03*
X127254000Y-114808000D03*
X127254000Y-112268000D03*
X127254000Y-109728000D03*
X127254000Y-107188000D03*
X127254000Y-104648000D03*
X127254000Y-102108000D03*
D10*
X139954000Y-102108000D03*
D11*
X139954000Y-104648000D03*
X139954000Y-107188000D03*
X139954000Y-109728000D03*
X139954000Y-112268000D03*
X139954000Y-114808000D03*
X139954000Y-117348000D03*
X139954000Y-119888000D03*
X139954000Y-122428000D03*
X139954000Y-124968000D03*
X139954000Y-127508000D03*
X139954000Y-130048000D03*
X139954000Y-132588000D03*
X139954000Y-135128000D03*
X147574000Y-135128000D03*
X147574000Y-132588000D03*
X147574000Y-130048000D03*
X147574000Y-127508000D03*
X147574000Y-124968000D03*
X147574000Y-122428000D03*
X147574000Y-119888000D03*
X147574000Y-117348000D03*
X147574000Y-114808000D03*
X147574000Y-112268000D03*
X147574000Y-109728000D03*
X147574000Y-107188000D03*
X147574000Y-104648000D03*
X147574000Y-102108000D03*
D12*
X98440000Y-137795000D03*
D15*
X100980000Y-137795000D03*
X103520000Y-137795000D03*
D12*
X157734000Y-105918000D03*
D14*
X88138000Y-97282000D03*
D12*
X94234000Y-102108000D03*
D15*
X96774000Y-102108000D03*
X94234000Y-104648000D03*
X96774000Y-104648000D03*
X94234000Y-107188000D03*
X96774000Y-107188000D03*
X94234000Y-109728000D03*
X96774000Y-109728000D03*
X94234000Y-112268000D03*
X96774000Y-112268000D03*
X94234000Y-114808000D03*
X96774000Y-114808000D03*
X94234000Y-117348000D03*
X96774000Y-117348000D03*
X94234000Y-119888000D03*
X96774000Y-119888000D03*
X94234000Y-122428000D03*
X96774000Y-122428000D03*
X94234000Y-124968000D03*
X96774000Y-124968000D03*
X94234000Y-127508000D03*
X96774000Y-127508000D03*
X94234000Y-130048000D03*
X96774000Y-130048000D03*
D13*
X158975000Y-155702000D03*
D11*
X161515000Y-155702000D03*
D18*
X162306000Y-148598000D03*
D19*
X164846000Y-146058000D03*
X167386000Y-148598000D03*
D10*
X105918000Y-155448000D03*
D11*
X105918000Y-157988000D03*
D10*
X98298000Y-155448000D03*
D11*
X98298000Y-157988000D03*
D12*
X133350000Y-103886000D03*
D14*
X88138000Y-165100000D03*
D13*
X139169000Y-152838000D03*
D11*
X139169000Y-145338000D03*
D12*
X178054000Y-163576000D03*
D10*
X180848000Y-137160000D03*
D11*
X180848000Y-134620000D03*
X180848000Y-132080000D03*
X180848000Y-129540000D03*
X180848000Y-127000000D03*
X180848000Y-124460000D03*
X180848000Y-121920000D03*
X180848000Y-119380000D03*
X180848000Y-116840000D03*
X180848000Y-114300000D03*
X180848000Y-111760000D03*
X180848000Y-109220000D03*
X180848000Y-106680000D03*
X180848000Y-104140000D03*
X180848000Y-101600000D03*
X165608000Y-101600000D03*
X165608000Y-104140000D03*
X165608000Y-106680000D03*
X165608000Y-109220000D03*
X165608000Y-111760000D03*
X165608000Y-114300000D03*
X165608000Y-116840000D03*
X165608000Y-119380000D03*
X165608000Y-121920000D03*
X165608000Y-124460000D03*
X165608000Y-127000000D03*
X165608000Y-129540000D03*
X165608000Y-132080000D03*
X165608000Y-134620000D03*
X165608000Y-137160000D03*
D13*
X159229000Y-160528000D03*
D11*
X161769000Y-160528000D03*
D12*
X96266000Y-98806000D03*
D13*
X162306000Y-133321000D03*
D11*
X162306000Y-135861000D03*
D12*
X133350000Y-98806000D03*
D10*
X157739000Y-145298000D03*
D11*
X155199000Y-145298000D03*
X152659000Y-145298000D03*
X150119000Y-145298000D03*
X147579000Y-145298000D03*
X145039000Y-145298000D03*
X142499000Y-145298000D03*
X142499000Y-152918000D03*
X145039000Y-152918000D03*
X147579000Y-152918000D03*
X150119000Y-152918000D03*
X152659000Y-152918000D03*
X155199000Y-152918000D03*
X157739000Y-152918000D03*
D10*
X132827000Y-145298000D03*
D11*
X130287000Y-145298000D03*
X127747000Y-145298000D03*
X125207000Y-145298000D03*
X122667000Y-145298000D03*
X120127000Y-145298000D03*
X117587000Y-145298000D03*
X115047000Y-145298000D03*
X115047000Y-152918000D03*
X117587000Y-152918000D03*
X120127000Y-152918000D03*
X122667000Y-152918000D03*
X125207000Y-152918000D03*
X127747000Y-152918000D03*
X130287000Y-152918000D03*
X132827000Y-152918000D03*
D10*
X165349000Y-160518000D03*
D11*
X167889000Y-160518000D03*
X170429000Y-160518000D03*
X172969000Y-160518000D03*
X175509000Y-160518000D03*
X178049000Y-160518000D03*
X180589000Y-160518000D03*
X180589000Y-152898000D03*
X178049000Y-152898000D03*
X175509000Y-152898000D03*
X172969000Y-152898000D03*
X170429000Y-152898000D03*
X167889000Y-152898000D03*
X165349000Y-152898000D03*
D10*
X132842000Y-155448000D03*
D11*
X132842000Y-157988000D03*
D10*
X117602000Y-155448000D03*
D11*
X117602000Y-157988000D03*
D13*
X183896000Y-153028000D03*
D11*
X183896000Y-160528000D03*
D10*
X90678000Y-155448000D03*
D11*
X90678000Y-157988000D03*
D13*
X111760000Y-152788000D03*
D11*
X111760000Y-145288000D03*
D14*
X184658000Y-165100000D03*
D13*
X155448000Y-132588000D03*
D11*
X152908000Y-132588000D03*
D13*
X138938000Y-155448000D03*
D11*
X138938000Y-157988000D03*
D12*
X175514000Y-163576000D03*
D10*
X122682000Y-155448000D03*
D11*
X122682000Y-157988000D03*
D13*
X93345000Y-140335000D03*
D11*
X93345000Y-137795000D03*
D12*
X95265000Y-164592000D03*
D15*
X97805000Y-164592000D03*
X100345000Y-164592000D03*
D10*
X125222000Y-155448000D03*
D11*
X125222000Y-157988000D03*
M02*
