M48
; DRILL file {KiCad (5.1.9)-1} date 04/24/21 11:27:47
; FORMAT={-:-/ absolute / inch / decimal}
; #@! TF.CreationDate,2021-04-24T11:27:47-04:00
; #@! TF.GenerationSoftware,Kicad,Pcbnew,(5.1.9)-1
; #@! TF.FileFunction,Plated,1,2,PTH
FMAT,2
INCH
T1C0.0276
T2C0.0295
T3C0.0315
T4C0.0394
%
G90
G05
T1
X1.65Y-3.65
T2
X4.3Y-1.95
X4.3Y-2.0
X4.3Y-2.05
T3
X1.7Y-1.6
X1.7Y-2.0
X1.75Y-2.7
X1.75Y-2.8
X1.75Y-2.9
X1.75Y-3.0
X1.75Y-3.1
X1.75Y-3.2
X1.75Y-3.3
X1.7547Y-2.4
X1.85Y-3.55
X1.85Y-3.85
X1.95Y-1.65
X1.95Y-1.95
X1.95Y-3.55
X1.95Y-3.85
X2.05Y-1.65
X2.05Y-1.95
X2.05Y-2.4
X2.05Y-2.7
X2.05Y-2.8
X2.05Y-2.9
X2.05Y-3.0
X2.05Y-3.1
X2.05Y-3.2
X2.05Y-3.3
X2.05Y-3.55
X2.05Y-3.85
X2.15Y-1.65
X2.15Y-1.95
X2.15Y-3.55
X2.15Y-3.85
X2.25Y-1.65
X2.25Y-1.95
X2.25Y-3.55
X2.25Y-3.85
X2.35Y-1.65
X2.35Y-1.95
X2.35Y-2.2
X2.35Y-2.3
X2.35Y-2.4
X2.35Y-2.5
X2.35Y-2.6
X2.35Y-2.7
X2.35Y-2.8
X2.35Y-2.9
X2.35Y-3.0
X2.35Y-3.1
X2.35Y-3.2
X2.35Y-3.3
X2.35Y-3.55
X2.35Y-3.85
X2.45Y-1.65
X2.45Y-1.95
X2.45Y-3.55
X2.45Y-3.85
X2.55Y-1.65
X2.55Y-1.95
X2.55Y-3.55
X2.55Y-3.85
X2.9Y-1.65
X2.9Y-1.9453
X2.9Y-3.55
X2.9Y-3.8453
X2.95Y-2.2
X2.95Y-2.3
X2.95Y-2.4
X2.95Y-2.5
X2.95Y-2.6
X2.95Y-2.7
X2.95Y-2.8
X2.95Y-2.9
X2.95Y-3.0
X2.95Y-3.1
X2.95Y-3.2
X2.95Y-3.3
X3.25Y-2.2
X3.25Y-2.3
X3.25Y-2.4
X3.25Y-2.5
X3.25Y-2.6
X3.25Y-2.7
X3.25Y-2.8
X3.25Y-2.9
X3.25Y-3.0
X3.25Y-3.1
X3.25Y-3.2
X3.25Y-3.3
X3.85Y-2.2
X3.85Y-2.3
X3.85Y-2.4
X3.85Y-2.5
X3.85Y-2.6
X3.85Y-2.7
X3.85Y-2.8
X3.85Y-2.9
X3.85Y-3.0
X3.85Y-3.1
X3.85Y-3.2
X3.85Y-3.3
X4.0Y-1.7
X4.4Y-1.7
T4
X4.15Y-2.45
X4.15Y-2.55
X4.15Y-2.65
X4.15Y-2.75
X4.15Y-2.85
X4.15Y-2.95
X4.15Y-3.05
X4.15Y-3.15
X4.15Y-3.25
X4.15Y-3.35
X4.15Y-3.45
X4.15Y-3.55
X4.15Y-3.65
X4.15Y-3.75
X4.15Y-3.85
X4.65Y-1.7
X4.65Y-1.8
X4.65Y-1.9
X4.75Y-2.45
X4.75Y-2.55
X4.75Y-2.65
X4.75Y-2.75
X4.75Y-2.85
X4.75Y-2.95
X4.75Y-3.05
X4.75Y-3.15
X4.75Y-3.25
X4.75Y-3.35
X4.75Y-3.45
X4.75Y-3.55
X4.75Y-3.65
X4.75Y-3.75
X4.75Y-3.85
T0
M30
