%TF.GenerationSoftware,KiCad,Pcbnew,(5.1.9)-1*%
%TF.CreationDate,2021-04-24T11:27:16-04:00*%
%TF.ProjectId,io_i2c,696f5f69-3263-42e6-9b69-6361645f7063,rev?*%
%TF.SameCoordinates,Original*%
%TF.FileFunction,Legend,Top*%
%TF.FilePolarity,Positive*%
%FSLAX46Y46*%
G04 Gerber Fmt 4.6, Leading zero omitted, Abs format (unit mm)*
G04 Created by KiCad (PCBNEW (5.1.9)-1) date 2021-04-24 11:27:16*
%MOMM*%
%LPD*%
G01*
G04 APERTURE LIST*
%ADD10C,0.150000*%
%ADD11C,0.120000*%
G04 APERTURE END LIST*
D10*
X122428095Y-47760000D02*
X122332857Y-47712380D01*
X122190000Y-47712380D01*
X122047142Y-47760000D01*
X121951904Y-47855238D01*
X121904285Y-47950476D01*
X121856666Y-48140952D01*
X121856666Y-48283809D01*
X121904285Y-48474285D01*
X121951904Y-48569523D01*
X122047142Y-48664761D01*
X122190000Y-48712380D01*
X122285238Y-48712380D01*
X122428095Y-48664761D01*
X122475714Y-48617142D01*
X122475714Y-48283809D01*
X122285238Y-48283809D01*
X122904285Y-48712380D02*
X122904285Y-47712380D01*
X123475714Y-48712380D01*
X123475714Y-47712380D01*
X123951904Y-48712380D02*
X123951904Y-47712380D01*
X124190000Y-47712380D01*
X124332857Y-47760000D01*
X124428095Y-47855238D01*
X124475714Y-47950476D01*
X124523333Y-48140952D01*
X124523333Y-48283809D01*
X124475714Y-48474285D01*
X124428095Y-48569523D01*
X124332857Y-48664761D01*
X124190000Y-48712380D01*
X123951904Y-48712380D01*
X121975714Y-46124761D02*
X122118571Y-46172380D01*
X122356666Y-46172380D01*
X122451904Y-46124761D01*
X122499523Y-46077142D01*
X122547142Y-45981904D01*
X122547142Y-45886666D01*
X122499523Y-45791428D01*
X122451904Y-45743809D01*
X122356666Y-45696190D01*
X122166190Y-45648571D01*
X122070952Y-45600952D01*
X122023333Y-45553333D01*
X121975714Y-45458095D01*
X121975714Y-45362857D01*
X122023333Y-45267619D01*
X122070952Y-45220000D01*
X122166190Y-45172380D01*
X122404285Y-45172380D01*
X122547142Y-45220000D01*
X122975714Y-46172380D02*
X122975714Y-45172380D01*
X123213809Y-45172380D01*
X123356666Y-45220000D01*
X123451904Y-45315238D01*
X123499523Y-45410476D01*
X123547142Y-45600952D01*
X123547142Y-45743809D01*
X123499523Y-45934285D01*
X123451904Y-46029523D01*
X123356666Y-46124761D01*
X123213809Y-46172380D01*
X122975714Y-46172380D01*
X123928095Y-45886666D02*
X124404285Y-45886666D01*
X123832857Y-46172380D02*
X124166190Y-45172380D01*
X124499523Y-46172380D01*
X121904285Y-43584761D02*
X122047142Y-43632380D01*
X122285238Y-43632380D01*
X122380476Y-43584761D01*
X122428095Y-43537142D01*
X122475714Y-43441904D01*
X122475714Y-43346666D01*
X122428095Y-43251428D01*
X122380476Y-43203809D01*
X122285238Y-43156190D01*
X122094761Y-43108571D01*
X121999523Y-43060952D01*
X121951904Y-43013333D01*
X121904285Y-42918095D01*
X121904285Y-42822857D01*
X121951904Y-42727619D01*
X121999523Y-42680000D01*
X122094761Y-42632380D01*
X122332857Y-42632380D01*
X122475714Y-42680000D01*
X123475714Y-43537142D02*
X123428095Y-43584761D01*
X123285238Y-43632380D01*
X123190000Y-43632380D01*
X123047142Y-43584761D01*
X122951904Y-43489523D01*
X122904285Y-43394285D01*
X122856666Y-43203809D01*
X122856666Y-43060952D01*
X122904285Y-42870476D01*
X122951904Y-42775238D01*
X123047142Y-42680000D01*
X123190000Y-42632380D01*
X123285238Y-42632380D01*
X123428095Y-42680000D01*
X123475714Y-42727619D01*
X123904285Y-43632380D02*
X123904285Y-42632380D01*
X124475714Y-43632380D02*
X124047142Y-43060952D01*
X124475714Y-42632380D02*
X123904285Y-43203809D01*
X123245714Y-77874761D02*
X123388571Y-77922380D01*
X123626666Y-77922380D01*
X123721904Y-77874761D01*
X123769523Y-77827142D01*
X123817142Y-77731904D01*
X123817142Y-77636666D01*
X123769523Y-77541428D01*
X123721904Y-77493809D01*
X123626666Y-77446190D01*
X123436190Y-77398571D01*
X123340952Y-77350952D01*
X123293333Y-77303333D01*
X123245714Y-77208095D01*
X123245714Y-77112857D01*
X123293333Y-77017619D01*
X123340952Y-76970000D01*
X123436190Y-76922380D01*
X123674285Y-76922380D01*
X123817142Y-76970000D01*
X124245714Y-77922380D02*
X124245714Y-76922380D01*
X124483809Y-76922380D01*
X124626666Y-76970000D01*
X124721904Y-77065238D01*
X124769523Y-77160476D01*
X124817142Y-77350952D01*
X124817142Y-77493809D01*
X124769523Y-77684285D01*
X124721904Y-77779523D01*
X124626666Y-77874761D01*
X124483809Y-77922380D01*
X124245714Y-77922380D01*
X125198095Y-77636666D02*
X125674285Y-77636666D01*
X125102857Y-77922380D02*
X125436190Y-76922380D01*
X125769523Y-77922380D01*
X123174285Y-75334761D02*
X123317142Y-75382380D01*
X123555238Y-75382380D01*
X123650476Y-75334761D01*
X123698095Y-75287142D01*
X123745714Y-75191904D01*
X123745714Y-75096666D01*
X123698095Y-75001428D01*
X123650476Y-74953809D01*
X123555238Y-74906190D01*
X123364761Y-74858571D01*
X123269523Y-74810952D01*
X123221904Y-74763333D01*
X123174285Y-74668095D01*
X123174285Y-74572857D01*
X123221904Y-74477619D01*
X123269523Y-74430000D01*
X123364761Y-74382380D01*
X123602857Y-74382380D01*
X123745714Y-74430000D01*
X124745714Y-75287142D02*
X124698095Y-75334761D01*
X124555238Y-75382380D01*
X124460000Y-75382380D01*
X124317142Y-75334761D01*
X124221904Y-75239523D01*
X124174285Y-75144285D01*
X124126666Y-74953809D01*
X124126666Y-74810952D01*
X124174285Y-74620476D01*
X124221904Y-74525238D01*
X124317142Y-74430000D01*
X124460000Y-74382380D01*
X124555238Y-74382380D01*
X124698095Y-74430000D01*
X124745714Y-74477619D01*
X125174285Y-75382380D02*
X125174285Y-74382380D01*
X125745714Y-75382380D02*
X125317142Y-74810952D01*
X125745714Y-74382380D02*
X125174285Y-74953809D01*
X82521190Y-90495476D02*
X82521190Y-89245476D01*
X82818809Y-89245476D01*
X82997380Y-89305000D01*
X83116428Y-89424047D01*
X83175952Y-89543095D01*
X83235476Y-89781190D01*
X83235476Y-89959761D01*
X83175952Y-90197857D01*
X83116428Y-90316904D01*
X82997380Y-90435952D01*
X82818809Y-90495476D01*
X82521190Y-90495476D01*
X84247380Y-90435952D02*
X84128333Y-90495476D01*
X83890238Y-90495476D01*
X83771190Y-90435952D01*
X83711666Y-90316904D01*
X83711666Y-89840714D01*
X83771190Y-89721666D01*
X83890238Y-89662142D01*
X84128333Y-89662142D01*
X84247380Y-89721666D01*
X84306904Y-89840714D01*
X84306904Y-89959761D01*
X83711666Y-90078809D01*
X84842619Y-90495476D02*
X84842619Y-89662142D01*
X84842619Y-89781190D02*
X84902142Y-89721666D01*
X85021190Y-89662142D01*
X85199761Y-89662142D01*
X85318809Y-89721666D01*
X85378333Y-89840714D01*
X85378333Y-90495476D01*
X85378333Y-89840714D02*
X85437857Y-89721666D01*
X85556904Y-89662142D01*
X85735476Y-89662142D01*
X85854523Y-89721666D01*
X85914047Y-89840714D01*
X85914047Y-90495476D01*
X86687857Y-90495476D02*
X86568809Y-90435952D01*
X86509285Y-90376428D01*
X86449761Y-90257380D01*
X86449761Y-89900238D01*
X86509285Y-89781190D01*
X86568809Y-89721666D01*
X86687857Y-89662142D01*
X86866428Y-89662142D01*
X86985476Y-89721666D01*
X87045000Y-89781190D01*
X87104523Y-89900238D01*
X87104523Y-90257380D01*
X87045000Y-90376428D01*
X86985476Y-90435952D01*
X86866428Y-90495476D01*
X86687857Y-90495476D01*
X87640238Y-89662142D02*
X87640238Y-90495476D01*
X87640238Y-89781190D02*
X87699761Y-89721666D01*
X87818809Y-89662142D01*
X87997380Y-89662142D01*
X88116428Y-89721666D01*
X88175952Y-89840714D01*
X88175952Y-90495476D01*
X89723571Y-90495476D02*
X89723571Y-89245476D01*
X90021190Y-89245476D01*
X90199761Y-89305000D01*
X90318809Y-89424047D01*
X90378333Y-89543095D01*
X90437857Y-89781190D01*
X90437857Y-89959761D01*
X90378333Y-90197857D01*
X90318809Y-90316904D01*
X90199761Y-90435952D01*
X90021190Y-90495476D01*
X89723571Y-90495476D01*
X91449761Y-90435952D02*
X91330714Y-90495476D01*
X91092619Y-90495476D01*
X90973571Y-90435952D01*
X90914047Y-90316904D01*
X90914047Y-89840714D01*
X90973571Y-89721666D01*
X91092619Y-89662142D01*
X91330714Y-89662142D01*
X91449761Y-89721666D01*
X91509285Y-89840714D01*
X91509285Y-89959761D01*
X90914047Y-90078809D01*
X92045000Y-90495476D02*
X92045000Y-89245476D01*
X92045000Y-89721666D02*
X92164047Y-89662142D01*
X92402142Y-89662142D01*
X92521190Y-89721666D01*
X92580714Y-89781190D01*
X92640238Y-89900238D01*
X92640238Y-90257380D01*
X92580714Y-90376428D01*
X92521190Y-90435952D01*
X92402142Y-90495476D01*
X92164047Y-90495476D01*
X92045000Y-90435952D01*
X93711666Y-89662142D02*
X93711666Y-90495476D01*
X93175952Y-89662142D02*
X93175952Y-90316904D01*
X93235476Y-90435952D01*
X93354523Y-90495476D01*
X93533095Y-90495476D01*
X93652142Y-90435952D01*
X93711666Y-90376428D01*
X94842619Y-89662142D02*
X94842619Y-90674047D01*
X94783095Y-90793095D01*
X94723571Y-90852619D01*
X94604523Y-90912142D01*
X94425952Y-90912142D01*
X94306904Y-90852619D01*
X94842619Y-90435952D02*
X94723571Y-90495476D01*
X94485476Y-90495476D01*
X94366428Y-90435952D01*
X94306904Y-90376428D01*
X94247380Y-90257380D01*
X94247380Y-89900238D01*
X94306904Y-89781190D01*
X94366428Y-89721666D01*
X94485476Y-89662142D01*
X94723571Y-89662142D01*
X94842619Y-89721666D01*
X95973571Y-89662142D02*
X95973571Y-90674047D01*
X95914047Y-90793095D01*
X95854523Y-90852619D01*
X95735476Y-90912142D01*
X95556904Y-90912142D01*
X95437857Y-90852619D01*
X95973571Y-90435952D02*
X95854523Y-90495476D01*
X95616428Y-90495476D01*
X95497380Y-90435952D01*
X95437857Y-90376428D01*
X95378333Y-90257380D01*
X95378333Y-89900238D01*
X95437857Y-89781190D01*
X95497380Y-89721666D01*
X95616428Y-89662142D01*
X95854523Y-89662142D01*
X95973571Y-89721666D01*
X97045000Y-90435952D02*
X96925952Y-90495476D01*
X96687857Y-90495476D01*
X96568809Y-90435952D01*
X96509285Y-90316904D01*
X96509285Y-89840714D01*
X96568809Y-89721666D01*
X96687857Y-89662142D01*
X96925952Y-89662142D01*
X97045000Y-89721666D01*
X97104523Y-89840714D01*
X97104523Y-89959761D01*
X96509285Y-90078809D01*
X97640238Y-90495476D02*
X97640238Y-89662142D01*
X97640238Y-89900238D02*
X97699761Y-89781190D01*
X97759285Y-89721666D01*
X97878333Y-89662142D01*
X97997380Y-89662142D01*
X83622380Y-92520476D02*
X83205714Y-91925238D01*
X82908095Y-92520476D02*
X82908095Y-91270476D01*
X83384285Y-91270476D01*
X83503333Y-91330000D01*
X83562857Y-91389523D01*
X83622380Y-91508571D01*
X83622380Y-91687142D01*
X83562857Y-91806190D01*
X83503333Y-91865714D01*
X83384285Y-91925238D01*
X82908095Y-91925238D01*
X84396190Y-91270476D02*
X84634285Y-91270476D01*
X84753333Y-91330000D01*
X84872380Y-91449047D01*
X84931904Y-91687142D01*
X84931904Y-92103809D01*
X84872380Y-92341904D01*
X84753333Y-92460952D01*
X84634285Y-92520476D01*
X84396190Y-92520476D01*
X84277142Y-92460952D01*
X84158095Y-92341904D01*
X84098571Y-92103809D01*
X84098571Y-91687142D01*
X84158095Y-91449047D01*
X84277142Y-91330000D01*
X84396190Y-91270476D01*
X85467619Y-92520476D02*
X85467619Y-91270476D01*
X85884285Y-92163333D01*
X86300952Y-91270476D01*
X86300952Y-92520476D01*
X86896190Y-92044285D02*
X87848571Y-92044285D01*
X88443809Y-92520476D02*
X88443809Y-91270476D01*
X89931904Y-91210952D02*
X88860476Y-92818095D01*
X90586666Y-91270476D02*
X90824761Y-91270476D01*
X90943809Y-91330000D01*
X91062857Y-91449047D01*
X91122380Y-91687142D01*
X91122380Y-92103809D01*
X91062857Y-92341904D01*
X90943809Y-92460952D01*
X90824761Y-92520476D01*
X90586666Y-92520476D01*
X90467619Y-92460952D01*
X90348571Y-92341904D01*
X90289047Y-92103809D01*
X90289047Y-91687142D01*
X90348571Y-91449047D01*
X90467619Y-91330000D01*
X90586666Y-91270476D01*
X93027142Y-91865714D02*
X93205714Y-91925238D01*
X93265238Y-91984761D01*
X93324761Y-92103809D01*
X93324761Y-92282380D01*
X93265238Y-92401428D01*
X93205714Y-92460952D01*
X93086666Y-92520476D01*
X92610476Y-92520476D01*
X92610476Y-91270476D01*
X93027142Y-91270476D01*
X93146190Y-91330000D01*
X93205714Y-91389523D01*
X93265238Y-91508571D01*
X93265238Y-91627619D01*
X93205714Y-91746666D01*
X93146190Y-91806190D01*
X93027142Y-91865714D01*
X92610476Y-91865714D01*
X94039047Y-92520476D02*
X93920000Y-92460952D01*
X93860476Y-92401428D01*
X93800952Y-92282380D01*
X93800952Y-91925238D01*
X93860476Y-91806190D01*
X93920000Y-91746666D01*
X94039047Y-91687142D01*
X94217619Y-91687142D01*
X94336666Y-91746666D01*
X94396190Y-91806190D01*
X94455714Y-91925238D01*
X94455714Y-92282380D01*
X94396190Y-92401428D01*
X94336666Y-92460952D01*
X94217619Y-92520476D01*
X94039047Y-92520476D01*
X95527142Y-92520476D02*
X95527142Y-91865714D01*
X95467619Y-91746666D01*
X95348571Y-91687142D01*
X95110476Y-91687142D01*
X94991428Y-91746666D01*
X95527142Y-92460952D02*
X95408095Y-92520476D01*
X95110476Y-92520476D01*
X94991428Y-92460952D01*
X94931904Y-92341904D01*
X94931904Y-92222857D01*
X94991428Y-92103809D01*
X95110476Y-92044285D01*
X95408095Y-92044285D01*
X95527142Y-91984761D01*
X96122380Y-92520476D02*
X96122380Y-91687142D01*
X96122380Y-91925238D02*
X96181904Y-91806190D01*
X96241428Y-91746666D01*
X96360476Y-91687142D01*
X96479523Y-91687142D01*
X97431904Y-92520476D02*
X97431904Y-91270476D01*
X97431904Y-92460952D02*
X97312857Y-92520476D01*
X97074761Y-92520476D01*
X96955714Y-92460952D01*
X96896190Y-92401428D01*
X96836666Y-92282380D01*
X96836666Y-91925238D01*
X96896190Y-91806190D01*
X96955714Y-91746666D01*
X97074761Y-91687142D01*
X97312857Y-91687142D01*
X97431904Y-91746666D01*
X85080714Y-94545476D02*
X85080714Y-93295476D01*
X85616428Y-93414523D02*
X85675952Y-93355000D01*
X85795000Y-93295476D01*
X86092619Y-93295476D01*
X86211666Y-93355000D01*
X86271190Y-93414523D01*
X86330714Y-93533571D01*
X86330714Y-93652619D01*
X86271190Y-93831190D01*
X85556904Y-94545476D01*
X86330714Y-94545476D01*
X87580714Y-94426428D02*
X87521190Y-94485952D01*
X87342619Y-94545476D01*
X87223571Y-94545476D01*
X87045000Y-94485952D01*
X86925952Y-94366904D01*
X86866428Y-94247857D01*
X86806904Y-94009761D01*
X86806904Y-93831190D01*
X86866428Y-93593095D01*
X86925952Y-93474047D01*
X87045000Y-93355000D01*
X87223571Y-93295476D01*
X87342619Y-93295476D01*
X87521190Y-93355000D01*
X87580714Y-93414523D01*
X88890238Y-93295476D02*
X89306904Y-94545476D01*
X89723571Y-93295476D01*
X90616428Y-94485952D02*
X90497380Y-94545476D01*
X90259285Y-94545476D01*
X90140238Y-94485952D01*
X90080714Y-94366904D01*
X90080714Y-93890714D01*
X90140238Y-93771666D01*
X90259285Y-93712142D01*
X90497380Y-93712142D01*
X90616428Y-93771666D01*
X90675952Y-93890714D01*
X90675952Y-94009761D01*
X90080714Y-94128809D01*
X91211666Y-94545476D02*
X91211666Y-93712142D01*
X91211666Y-93950238D02*
X91271190Y-93831190D01*
X91330714Y-93771666D01*
X91449761Y-93712142D01*
X91568809Y-93712142D01*
X91925952Y-94485952D02*
X92045000Y-94545476D01*
X92283095Y-94545476D01*
X92402142Y-94485952D01*
X92461666Y-94366904D01*
X92461666Y-94307380D01*
X92402142Y-94188333D01*
X92283095Y-94128809D01*
X92104523Y-94128809D01*
X91985476Y-94069285D01*
X91925952Y-93950238D01*
X91925952Y-93890714D01*
X91985476Y-93771666D01*
X92104523Y-93712142D01*
X92283095Y-93712142D01*
X92402142Y-93771666D01*
X92997380Y-94545476D02*
X92997380Y-93712142D01*
X92997380Y-93295476D02*
X92937857Y-93355000D01*
X92997380Y-93414523D01*
X93056904Y-93355000D01*
X92997380Y-93295476D01*
X92997380Y-93414523D01*
X93771190Y-94545476D02*
X93652142Y-94485952D01*
X93592619Y-94426428D01*
X93533095Y-94307380D01*
X93533095Y-93950238D01*
X93592619Y-93831190D01*
X93652142Y-93771666D01*
X93771190Y-93712142D01*
X93949761Y-93712142D01*
X94068809Y-93771666D01*
X94128333Y-93831190D01*
X94187857Y-93950238D01*
X94187857Y-94307380D01*
X94128333Y-94426428D01*
X94068809Y-94485952D01*
X93949761Y-94545476D01*
X93771190Y-94545476D01*
X94723571Y-93712142D02*
X94723571Y-94545476D01*
X94723571Y-93831190D02*
X94783095Y-93771666D01*
X94902142Y-93712142D01*
X95080714Y-93712142D01*
X95199761Y-93771666D01*
X95259285Y-93890714D01*
X95259285Y-94545476D01*
X88235476Y-96570476D02*
X87818809Y-95975238D01*
X87521190Y-96570476D02*
X87521190Y-95320476D01*
X87997380Y-95320476D01*
X88116428Y-95380000D01*
X88175952Y-95439523D01*
X88235476Y-95558571D01*
X88235476Y-95737142D01*
X88175952Y-95856190D01*
X88116428Y-95915714D01*
X87997380Y-95975238D01*
X87521190Y-95975238D01*
X89247380Y-96510952D02*
X89128333Y-96570476D01*
X88890238Y-96570476D01*
X88771190Y-96510952D01*
X88711666Y-96391904D01*
X88711666Y-95915714D01*
X88771190Y-95796666D01*
X88890238Y-95737142D01*
X89128333Y-95737142D01*
X89247380Y-95796666D01*
X89306904Y-95915714D01*
X89306904Y-96034761D01*
X88711666Y-96153809D01*
X89723571Y-95737142D02*
X90021190Y-96570476D01*
X90318809Y-95737142D01*
X90795000Y-96451428D02*
X90854523Y-96510952D01*
X90795000Y-96570476D01*
X90735476Y-96510952D01*
X90795000Y-96451428D01*
X90795000Y-96570476D01*
X92283095Y-96213333D02*
X92878333Y-96213333D01*
X92164047Y-96570476D02*
X92580714Y-95320476D01*
X92997380Y-96570476D01*
X83920000Y-98595476D02*
X83920000Y-97345476D01*
X84634285Y-98595476D02*
X84098571Y-97881190D01*
X84634285Y-97345476D02*
X83920000Y-98059761D01*
X85170000Y-97762142D02*
X85170000Y-98595476D01*
X85170000Y-97881190D02*
X85229523Y-97821666D01*
X85348571Y-97762142D01*
X85527142Y-97762142D01*
X85646190Y-97821666D01*
X85705714Y-97940714D01*
X85705714Y-98595476D01*
X86836666Y-98595476D02*
X86836666Y-97940714D01*
X86777142Y-97821666D01*
X86658095Y-97762142D01*
X86420000Y-97762142D01*
X86300952Y-97821666D01*
X86836666Y-98535952D02*
X86717619Y-98595476D01*
X86420000Y-98595476D01*
X86300952Y-98535952D01*
X86241428Y-98416904D01*
X86241428Y-98297857D01*
X86300952Y-98178809D01*
X86420000Y-98119285D01*
X86717619Y-98119285D01*
X86836666Y-98059761D01*
X87431904Y-98595476D02*
X87431904Y-97762142D01*
X87431904Y-98000238D02*
X87491428Y-97881190D01*
X87550952Y-97821666D01*
X87670000Y-97762142D01*
X87789047Y-97762142D01*
X88027142Y-97762142D02*
X88503333Y-97762142D01*
X88205714Y-98595476D02*
X88205714Y-97524047D01*
X88265238Y-97405000D01*
X88384285Y-97345476D01*
X88503333Y-97345476D01*
X88920000Y-98595476D02*
X88920000Y-97762142D01*
X88920000Y-97345476D02*
X88860476Y-97405000D01*
X88920000Y-97464523D01*
X88979523Y-97405000D01*
X88920000Y-97345476D01*
X88920000Y-97464523D01*
X90050952Y-98595476D02*
X90050952Y-97940714D01*
X89991428Y-97821666D01*
X89872380Y-97762142D01*
X89634285Y-97762142D01*
X89515238Y-97821666D01*
X90050952Y-98535952D02*
X89931904Y-98595476D01*
X89634285Y-98595476D01*
X89515238Y-98535952D01*
X89455714Y-98416904D01*
X89455714Y-98297857D01*
X89515238Y-98178809D01*
X89634285Y-98119285D01*
X89931904Y-98119285D01*
X90050952Y-98059761D01*
X90646190Y-97762142D02*
X90646190Y-98595476D01*
X90646190Y-97881190D02*
X90705714Y-97821666D01*
X90824761Y-97762142D01*
X91003333Y-97762142D01*
X91122380Y-97821666D01*
X91181904Y-97940714D01*
X91181904Y-98595476D01*
X93324761Y-98595476D02*
X92729523Y-98595476D01*
X92729523Y-97345476D01*
X94277142Y-98595476D02*
X94277142Y-97940714D01*
X94217619Y-97821666D01*
X94098571Y-97762142D01*
X93860476Y-97762142D01*
X93741428Y-97821666D01*
X94277142Y-98535952D02*
X94158095Y-98595476D01*
X93860476Y-98595476D01*
X93741428Y-98535952D01*
X93681904Y-98416904D01*
X93681904Y-98297857D01*
X93741428Y-98178809D01*
X93860476Y-98119285D01*
X94158095Y-98119285D01*
X94277142Y-98059761D01*
X94872380Y-98595476D02*
X94872380Y-97345476D01*
X94872380Y-97821666D02*
X94991428Y-97762142D01*
X95229523Y-97762142D01*
X95348571Y-97821666D01*
X95408095Y-97881190D01*
X95467619Y-98000238D01*
X95467619Y-98357380D01*
X95408095Y-98476428D01*
X95348571Y-98535952D01*
X95229523Y-98595476D01*
X94991428Y-98595476D01*
X94872380Y-98535952D01*
X95943809Y-98535952D02*
X96062857Y-98595476D01*
X96300952Y-98595476D01*
X96420000Y-98535952D01*
X96479523Y-98416904D01*
X96479523Y-98357380D01*
X96420000Y-98238333D01*
X96300952Y-98178809D01*
X96122380Y-98178809D01*
X96003333Y-98119285D01*
X95943809Y-98000238D01*
X95943809Y-97940714D01*
X96003333Y-97821666D01*
X96122380Y-97762142D01*
X96300952Y-97762142D01*
X96420000Y-97821666D01*
D11*
%TO.C,U4*%
X45660000Y-91330000D02*
X45660000Y-92980000D01*
X66100000Y-91330000D02*
X45660000Y-91330000D01*
X66100000Y-96630000D02*
X66100000Y-91330000D01*
X45660000Y-96630000D02*
X66100000Y-96630000D01*
X45660000Y-94980000D02*
X45660000Y-96630000D01*
X45660000Y-92980000D02*
G75*
G02*
X45660000Y-94980000I0J-1000000D01*
G01*
%TO.C,TP1*%
X42860000Y-92710000D02*
G75*
G03*
X42860000Y-92710000I-950000J0D01*
G01*
%TO.C,JP1*%
X42910000Y-97090000D02*
X42910000Y-98490000D01*
X42210000Y-99190000D02*
X41610000Y-99190000D01*
X40910000Y-98490000D02*
X40910000Y-97090000D01*
X41610000Y-96390000D02*
X42210000Y-96390000D01*
X42210000Y-96390000D02*
G75*
G02*
X42910000Y-97090000I0J-700000D01*
G01*
X40910000Y-97090000D02*
G75*
G02*
X41610000Y-96390000I700000J0D01*
G01*
X41610000Y-99190000D02*
G75*
G02*
X40910000Y-98490000I0J700000D01*
G01*
X42910000Y-98490000D02*
G75*
G02*
X42210000Y-99190000I-700000J0D01*
G01*
%TO.C,U1*%
X99120000Y-54490000D02*
X81220000Y-54490000D01*
X99120000Y-85210000D02*
X99120000Y-54490000D01*
X81220000Y-85210000D02*
X99120000Y-85210000D01*
X81220000Y-54490000D02*
X81220000Y-85210000D01*
X96630000Y-54550000D02*
X91170000Y-54550000D01*
X96630000Y-85150000D02*
X96630000Y-54550000D01*
X83710000Y-85150000D02*
X96630000Y-85150000D01*
X83710000Y-54550000D02*
X83710000Y-85150000D01*
X89170000Y-54550000D02*
X83710000Y-54550000D01*
X91170000Y-54550000D02*
G75*
G02*
X89170000Y-54550000I-1000000J0D01*
G01*
%TO.C,C3*%
X45610000Y-60960000D02*
X46300000Y-60960000D01*
X51030000Y-60960000D02*
X50340000Y-60960000D01*
X46300000Y-62380000D02*
X50340000Y-62380000D01*
X46300000Y-59540000D02*
X46300000Y-62380000D01*
X50340000Y-59540000D02*
X46300000Y-59540000D01*
X50340000Y-62380000D02*
X50340000Y-59540000D01*
%TO.C,C2*%
X73660000Y-96630000D02*
X73660000Y-95940000D01*
X73660000Y-91210000D02*
X73660000Y-91900000D01*
X75080000Y-95940000D02*
X75080000Y-91900000D01*
X72240000Y-95940000D02*
X75080000Y-95940000D01*
X72240000Y-91900000D02*
X72240000Y-95940000D01*
X75080000Y-91900000D02*
X72240000Y-91900000D01*
%TO.C,C1*%
X73660000Y-48370000D02*
X73660000Y-47680000D01*
X73660000Y-42950000D02*
X73660000Y-43640000D01*
X75080000Y-47680000D02*
X75080000Y-43640000D01*
X72240000Y-47680000D02*
X75080000Y-47680000D01*
X72240000Y-43640000D02*
X72240000Y-47680000D01*
X75080000Y-43640000D02*
X72240000Y-43640000D01*
%TO.C,R1*%
X110720000Y-43180000D02*
X109950000Y-43180000D01*
X102640000Y-43180000D02*
X103410000Y-43180000D01*
X109950000Y-41810000D02*
X103410000Y-41810000D01*
X109950000Y-44550000D02*
X109950000Y-41810000D01*
X103410000Y-44550000D02*
X109950000Y-44550000D01*
X103410000Y-41810000D02*
X103410000Y-44550000D01*
%TO.C,R2*%
X43180000Y-41680000D02*
X43180000Y-42450000D01*
X43180000Y-49760000D02*
X43180000Y-48990000D01*
X41810000Y-42450000D02*
X41810000Y-48990000D01*
X44550000Y-42450000D02*
X41810000Y-42450000D01*
X44550000Y-48990000D02*
X44550000Y-42450000D01*
X41810000Y-48990000D02*
X44550000Y-48990000D01*
%TO.C,J2*%
X116780000Y-41850000D02*
X118110000Y-41850000D01*
X116780000Y-43180000D02*
X116780000Y-41850000D01*
X116780000Y-44450000D02*
X119440000Y-44450000D01*
X119440000Y-44450000D02*
X119440000Y-49590000D01*
X116780000Y-44450000D02*
X116780000Y-49590000D01*
X116780000Y-49590000D02*
X119440000Y-49590000D01*
%TO.C,Q1*%
X111070000Y-52600000D02*
X111070000Y-49000000D01*
X111058478Y-48961522D02*
G75*
G03*
X106620000Y-50800000I-1838478J-1838478D01*
G01*
X111058478Y-52638478D02*
G75*
G02*
X106620000Y-50800000I-1838478J1838478D01*
G01*
%TO.C,U3*%
X50910000Y-67250000D02*
X49260000Y-67250000D01*
X50910000Y-85150000D02*
X50910000Y-67250000D01*
X45610000Y-85150000D02*
X50910000Y-85150000D01*
X45610000Y-67250000D02*
X45610000Y-85150000D01*
X47260000Y-67250000D02*
X45610000Y-67250000D01*
X49260000Y-67250000D02*
G75*
G02*
X47260000Y-67250000I-1000000J0D01*
G01*
%TO.C,U2*%
X48200000Y-43070000D02*
X48200000Y-44720000D01*
X66100000Y-43070000D02*
X48200000Y-43070000D01*
X66100000Y-48370000D02*
X66100000Y-43070000D01*
X48200000Y-48370000D02*
X66100000Y-48370000D01*
X48200000Y-46720000D02*
X48200000Y-48370000D01*
X48200000Y-44720000D02*
G75*
G02*
X48200000Y-46720000I0J-1000000D01*
G01*
%TO.C,J1*%
X76260000Y-54490000D02*
X58360000Y-54490000D01*
X76260000Y-85210000D02*
X76260000Y-54490000D01*
X58360000Y-85210000D02*
X76260000Y-85210000D01*
X58360000Y-54490000D02*
X58360000Y-85210000D01*
X73770000Y-54550000D02*
X68310000Y-54550000D01*
X73770000Y-85150000D02*
X73770000Y-54550000D01*
X60850000Y-85150000D02*
X73770000Y-85150000D01*
X60850000Y-54550000D02*
X60850000Y-85150000D01*
X66310000Y-54550000D02*
X60850000Y-54550000D01*
X68310000Y-54550000D02*
G75*
G02*
X66310000Y-54550000I-1000000J0D01*
G01*
%TO.C,A1*%
X122050000Y-58290000D02*
X104010000Y-58290000D01*
X122050000Y-101730000D02*
X122050000Y-58290000D01*
X104010000Y-101730000D02*
X122050000Y-101730000D01*
X106680000Y-99060000D02*
X104010000Y-99060000D01*
X106680000Y-63500000D02*
X106680000Y-99060000D01*
X106680000Y-63500000D02*
X104010000Y-63500000D01*
X119380000Y-99060000D02*
X122050000Y-99060000D01*
X119380000Y-60960000D02*
X119380000Y-99060000D01*
X119380000Y-60960000D02*
X122050000Y-60960000D01*
X104010000Y-58290000D02*
X104010000Y-60960000D01*
X104010000Y-63500000D02*
X104010000Y-101730000D01*
X106680000Y-60960000D02*
X104010000Y-60960000D01*
X106680000Y-63500000D02*
X106680000Y-60960000D01*
%TO.C,U4*%
D10*
X44112380Y-94741904D02*
X44921904Y-94741904D01*
X45017142Y-94694285D01*
X45064761Y-94646666D01*
X45112380Y-94551428D01*
X45112380Y-94360952D01*
X45064761Y-94265714D01*
X45017142Y-94218095D01*
X44921904Y-94170476D01*
X44112380Y-94170476D01*
X44445714Y-93265714D02*
X45112380Y-93265714D01*
X44064761Y-93503809D02*
X44779047Y-93741904D01*
X44779047Y-93122857D01*
X66552380Y-97622857D02*
X66552380Y-96956190D01*
X67552380Y-97384761D01*
X66885714Y-96146666D02*
X67552380Y-96146666D01*
X66504761Y-96384761D02*
X67219047Y-96622857D01*
X67219047Y-96003809D01*
X67552380Y-95622857D02*
X66552380Y-95622857D01*
X67028571Y-95622857D02*
X67028571Y-95051428D01*
X67552380Y-95051428D02*
X66552380Y-95051428D01*
X67457142Y-94003809D02*
X67504761Y-94051428D01*
X67552380Y-94194285D01*
X67552380Y-94289523D01*
X67504761Y-94432380D01*
X67409523Y-94527619D01*
X67314285Y-94575238D01*
X67123809Y-94622857D01*
X66980952Y-94622857D01*
X66790476Y-94575238D01*
X66695238Y-94527619D01*
X66600000Y-94432380D01*
X66552380Y-94289523D01*
X66552380Y-94194285D01*
X66600000Y-94051428D01*
X66647619Y-94003809D01*
X66552380Y-93718095D02*
X66552380Y-93146666D01*
X67552380Y-93432380D02*
X66552380Y-93432380D01*
X67552380Y-92289523D02*
X67552380Y-92860952D01*
X67552380Y-92575238D02*
X66552380Y-92575238D01*
X66695238Y-92670476D01*
X66790476Y-92765714D01*
X66838095Y-92860952D01*
X66552380Y-91956190D02*
X66552380Y-91337142D01*
X66933333Y-91670476D01*
X66933333Y-91527619D01*
X66980952Y-91432380D01*
X67028571Y-91384761D01*
X67123809Y-91337142D01*
X67361904Y-91337142D01*
X67457142Y-91384761D01*
X67504761Y-91432380D01*
X67552380Y-91527619D01*
X67552380Y-91813333D01*
X67504761Y-91908571D01*
X67457142Y-91956190D01*
X66980952Y-90765714D02*
X66933333Y-90860952D01*
X66885714Y-90908571D01*
X66790476Y-90956190D01*
X66742857Y-90956190D01*
X66647619Y-90908571D01*
X66600000Y-90860952D01*
X66552380Y-90765714D01*
X66552380Y-90575238D01*
X66600000Y-90480000D01*
X66647619Y-90432380D01*
X66742857Y-90384761D01*
X66790476Y-90384761D01*
X66885714Y-90432380D01*
X66933333Y-90480000D01*
X66980952Y-90575238D01*
X66980952Y-90765714D01*
X67028571Y-90860952D01*
X67076190Y-90908571D01*
X67171428Y-90956190D01*
X67361904Y-90956190D01*
X67457142Y-90908571D01*
X67504761Y-90860952D01*
X67552380Y-90765714D01*
X67552380Y-90575238D01*
X67504761Y-90480000D01*
X67457142Y-90432380D01*
X67361904Y-90384761D01*
X67171428Y-90384761D01*
X67076190Y-90432380D01*
X67028571Y-90480000D01*
X66980952Y-90575238D01*
%TO.C,TP1*%
X40648095Y-90514380D02*
X41219523Y-90514380D01*
X40933809Y-91514380D02*
X40933809Y-90514380D01*
X41552857Y-91514380D02*
X41552857Y-90514380D01*
X41933809Y-90514380D01*
X42029047Y-90562000D01*
X42076666Y-90609619D01*
X42124285Y-90704857D01*
X42124285Y-90847714D01*
X42076666Y-90942952D01*
X42029047Y-90990571D01*
X41933809Y-91038190D01*
X41552857Y-91038190D01*
X43076666Y-91514380D02*
X42505238Y-91514380D01*
X42790952Y-91514380D02*
X42790952Y-90514380D01*
X42695714Y-90657238D01*
X42600476Y-90752476D01*
X42505238Y-90800095D01*
%TO.C,JP1*%
X43162380Y-98623333D02*
X43876666Y-98623333D01*
X44019523Y-98670952D01*
X44114761Y-98766190D01*
X44162380Y-98909047D01*
X44162380Y-99004285D01*
X44162380Y-98147142D02*
X43162380Y-98147142D01*
X43162380Y-97766190D01*
X43210000Y-97670952D01*
X43257619Y-97623333D01*
X43352857Y-97575714D01*
X43495714Y-97575714D01*
X43590952Y-97623333D01*
X43638571Y-97670952D01*
X43686190Y-97766190D01*
X43686190Y-98147142D01*
X44162380Y-96623333D02*
X44162380Y-97194761D01*
X44162380Y-96909047D02*
X43162380Y-96909047D01*
X43305238Y-97004285D01*
X43400476Y-97099523D01*
X43448095Y-97194761D01*
%TO.C,U1*%
X89408095Y-53002380D02*
X89408095Y-53811904D01*
X89455714Y-53907142D01*
X89503333Y-53954761D01*
X89598571Y-54002380D01*
X89789047Y-54002380D01*
X89884285Y-53954761D01*
X89931904Y-53907142D01*
X89979523Y-53811904D01*
X89979523Y-53002380D01*
X90979523Y-54002380D02*
X90408095Y-54002380D01*
X90693809Y-54002380D02*
X90693809Y-53002380D01*
X90598571Y-53145238D01*
X90503333Y-53240476D01*
X90408095Y-53288095D01*
X88455714Y-85697619D02*
X88503333Y-85650000D01*
X88598571Y-85602380D01*
X88836666Y-85602380D01*
X88931904Y-85650000D01*
X88979523Y-85697619D01*
X89027142Y-85792857D01*
X89027142Y-85888095D01*
X88979523Y-86030952D01*
X88408095Y-86602380D01*
X89027142Y-86602380D01*
X89360476Y-85602380D02*
X90027142Y-85602380D01*
X89598571Y-86602380D01*
X90931904Y-86602380D02*
X90360476Y-86602380D01*
X90646190Y-86602380D02*
X90646190Y-85602380D01*
X90550952Y-85745238D01*
X90455714Y-85840476D01*
X90360476Y-85888095D01*
X91789047Y-85602380D02*
X91598571Y-85602380D01*
X91503333Y-85650000D01*
X91455714Y-85697619D01*
X91360476Y-85840476D01*
X91312857Y-86030952D01*
X91312857Y-86411904D01*
X91360476Y-86507142D01*
X91408095Y-86554761D01*
X91503333Y-86602380D01*
X91693809Y-86602380D01*
X91789047Y-86554761D01*
X91836666Y-86507142D01*
X91884285Y-86411904D01*
X91884285Y-86173809D01*
X91836666Y-86078571D01*
X91789047Y-86030952D01*
X91693809Y-85983333D01*
X91503333Y-85983333D01*
X91408095Y-86030952D01*
X91360476Y-86078571D01*
X91312857Y-86173809D01*
%TO.C,C3*%
X48153333Y-63737142D02*
X48105714Y-63784761D01*
X47962857Y-63832380D01*
X47867619Y-63832380D01*
X47724761Y-63784761D01*
X47629523Y-63689523D01*
X47581904Y-63594285D01*
X47534285Y-63403809D01*
X47534285Y-63260952D01*
X47581904Y-63070476D01*
X47629523Y-62975238D01*
X47724761Y-62880000D01*
X47867619Y-62832380D01*
X47962857Y-62832380D01*
X48105714Y-62880000D01*
X48153333Y-62927619D01*
X48486666Y-62832380D02*
X49105714Y-62832380D01*
X48772380Y-63213333D01*
X48915238Y-63213333D01*
X49010476Y-63260952D01*
X49058095Y-63308571D01*
X49105714Y-63403809D01*
X49105714Y-63641904D01*
X49058095Y-63737142D01*
X49010476Y-63784761D01*
X48915238Y-63832380D01*
X48629523Y-63832380D01*
X48534285Y-63784761D01*
X48486666Y-63737142D01*
X46677142Y-57992380D02*
X46772380Y-57992380D01*
X46867619Y-58040000D01*
X46915238Y-58087619D01*
X46962857Y-58182857D01*
X47010476Y-58373333D01*
X47010476Y-58611428D01*
X46962857Y-58801904D01*
X46915238Y-58897142D01*
X46867619Y-58944761D01*
X46772380Y-58992380D01*
X46677142Y-58992380D01*
X46581904Y-58944761D01*
X46534285Y-58897142D01*
X46486666Y-58801904D01*
X46439047Y-58611428D01*
X46439047Y-58373333D01*
X46486666Y-58182857D01*
X46534285Y-58087619D01*
X46581904Y-58040000D01*
X46677142Y-57992380D01*
X47439047Y-58897142D02*
X47486666Y-58944761D01*
X47439047Y-58992380D01*
X47391428Y-58944761D01*
X47439047Y-58897142D01*
X47439047Y-58992380D01*
X48439047Y-58992380D02*
X47867619Y-58992380D01*
X48153333Y-58992380D02*
X48153333Y-57992380D01*
X48058095Y-58135238D01*
X47962857Y-58230476D01*
X47867619Y-58278095D01*
X49296190Y-58325714D02*
X49296190Y-58992380D01*
X48867619Y-58325714D02*
X48867619Y-58849523D01*
X48915238Y-58944761D01*
X49010476Y-58992380D01*
X49153333Y-58992380D01*
X49248571Y-58944761D01*
X49296190Y-58897142D01*
X50105714Y-58468571D02*
X49772380Y-58468571D01*
X49772380Y-58992380D02*
X49772380Y-57992380D01*
X50248571Y-57992380D01*
%TO.C,C2*%
X76437142Y-94086666D02*
X76484761Y-94134285D01*
X76532380Y-94277142D01*
X76532380Y-94372380D01*
X76484761Y-94515238D01*
X76389523Y-94610476D01*
X76294285Y-94658095D01*
X76103809Y-94705714D01*
X75960952Y-94705714D01*
X75770476Y-94658095D01*
X75675238Y-94610476D01*
X75580000Y-94515238D01*
X75532380Y-94372380D01*
X75532380Y-94277142D01*
X75580000Y-94134285D01*
X75627619Y-94086666D01*
X75627619Y-93705714D02*
X75580000Y-93658095D01*
X75532380Y-93562857D01*
X75532380Y-93324761D01*
X75580000Y-93229523D01*
X75627619Y-93181904D01*
X75722857Y-93134285D01*
X75818095Y-93134285D01*
X75960952Y-93181904D01*
X76532380Y-93753333D01*
X76532380Y-93134285D01*
X70692380Y-95562857D02*
X70692380Y-95467619D01*
X70740000Y-95372380D01*
X70787619Y-95324761D01*
X70882857Y-95277142D01*
X71073333Y-95229523D01*
X71311428Y-95229523D01*
X71501904Y-95277142D01*
X71597142Y-95324761D01*
X71644761Y-95372380D01*
X71692380Y-95467619D01*
X71692380Y-95562857D01*
X71644761Y-95658095D01*
X71597142Y-95705714D01*
X71501904Y-95753333D01*
X71311428Y-95800952D01*
X71073333Y-95800952D01*
X70882857Y-95753333D01*
X70787619Y-95705714D01*
X70740000Y-95658095D01*
X70692380Y-95562857D01*
X71597142Y-94800952D02*
X71644761Y-94753333D01*
X71692380Y-94800952D01*
X71644761Y-94848571D01*
X71597142Y-94800952D01*
X71692380Y-94800952D01*
X71692380Y-93800952D02*
X71692380Y-94372380D01*
X71692380Y-94086666D02*
X70692380Y-94086666D01*
X70835238Y-94181904D01*
X70930476Y-94277142D01*
X70978095Y-94372380D01*
X71025714Y-92943809D02*
X71692380Y-92943809D01*
X71025714Y-93372380D02*
X71549523Y-93372380D01*
X71644761Y-93324761D01*
X71692380Y-93229523D01*
X71692380Y-93086666D01*
X71644761Y-92991428D01*
X71597142Y-92943809D01*
X71168571Y-92134285D02*
X71168571Y-92467619D01*
X71692380Y-92467619D02*
X70692380Y-92467619D01*
X70692380Y-91991428D01*
%TO.C,C1*%
X76437142Y-45826666D02*
X76484761Y-45874285D01*
X76532380Y-46017142D01*
X76532380Y-46112380D01*
X76484761Y-46255238D01*
X76389523Y-46350476D01*
X76294285Y-46398095D01*
X76103809Y-46445714D01*
X75960952Y-46445714D01*
X75770476Y-46398095D01*
X75675238Y-46350476D01*
X75580000Y-46255238D01*
X75532380Y-46112380D01*
X75532380Y-46017142D01*
X75580000Y-45874285D01*
X75627619Y-45826666D01*
X76532380Y-44874285D02*
X76532380Y-45445714D01*
X76532380Y-45160000D02*
X75532380Y-45160000D01*
X75675238Y-45255238D01*
X75770476Y-45350476D01*
X75818095Y-45445714D01*
X70692380Y-47302857D02*
X70692380Y-47207619D01*
X70740000Y-47112380D01*
X70787619Y-47064761D01*
X70882857Y-47017142D01*
X71073333Y-46969523D01*
X71311428Y-46969523D01*
X71501904Y-47017142D01*
X71597142Y-47064761D01*
X71644761Y-47112380D01*
X71692380Y-47207619D01*
X71692380Y-47302857D01*
X71644761Y-47398095D01*
X71597142Y-47445714D01*
X71501904Y-47493333D01*
X71311428Y-47540952D01*
X71073333Y-47540952D01*
X70882857Y-47493333D01*
X70787619Y-47445714D01*
X70740000Y-47398095D01*
X70692380Y-47302857D01*
X71597142Y-46540952D02*
X71644761Y-46493333D01*
X71692380Y-46540952D01*
X71644761Y-46588571D01*
X71597142Y-46540952D01*
X71692380Y-46540952D01*
X71692380Y-45540952D02*
X71692380Y-46112380D01*
X71692380Y-45826666D02*
X70692380Y-45826666D01*
X70835238Y-45921904D01*
X70930476Y-46017142D01*
X70978095Y-46112380D01*
X71025714Y-44683809D02*
X71692380Y-44683809D01*
X71025714Y-45112380D02*
X71549523Y-45112380D01*
X71644761Y-45064761D01*
X71692380Y-44969523D01*
X71692380Y-44826666D01*
X71644761Y-44731428D01*
X71597142Y-44683809D01*
X71168571Y-43874285D02*
X71168571Y-44207619D01*
X71692380Y-44207619D02*
X70692380Y-44207619D01*
X70692380Y-43731428D01*
%TO.C,R1*%
X106513333Y-41262380D02*
X106180000Y-40786190D01*
X105941904Y-41262380D02*
X105941904Y-40262380D01*
X106322857Y-40262380D01*
X106418095Y-40310000D01*
X106465714Y-40357619D01*
X106513333Y-40452857D01*
X106513333Y-40595714D01*
X106465714Y-40690952D01*
X106418095Y-40738571D01*
X106322857Y-40786190D01*
X105941904Y-40786190D01*
X107465714Y-41262380D02*
X106894285Y-41262380D01*
X107180000Y-41262380D02*
X107180000Y-40262380D01*
X107084761Y-40405238D01*
X106989523Y-40500476D01*
X106894285Y-40548095D01*
X105751428Y-45335714D02*
X105751428Y-46002380D01*
X105513333Y-44954761D02*
X105275238Y-45669047D01*
X105894285Y-45669047D01*
X106275238Y-45907142D02*
X106322857Y-45954761D01*
X106275238Y-46002380D01*
X106227619Y-45954761D01*
X106275238Y-45907142D01*
X106275238Y-46002380D01*
X106656190Y-45002380D02*
X107322857Y-45002380D01*
X106894285Y-46002380D01*
X107703809Y-46002380D02*
X107703809Y-45002380D01*
X107799047Y-45621428D02*
X108084761Y-46002380D01*
X108084761Y-45335714D02*
X107703809Y-45716666D01*
%TO.C,R2*%
X41262380Y-45886666D02*
X40786190Y-46220000D01*
X41262380Y-46458095D02*
X40262380Y-46458095D01*
X40262380Y-46077142D01*
X40310000Y-45981904D01*
X40357619Y-45934285D01*
X40452857Y-45886666D01*
X40595714Y-45886666D01*
X40690952Y-45934285D01*
X40738571Y-45981904D01*
X40786190Y-46077142D01*
X40786190Y-46458095D01*
X40357619Y-45505714D02*
X40310000Y-45458095D01*
X40262380Y-45362857D01*
X40262380Y-45124761D01*
X40310000Y-45029523D01*
X40357619Y-44981904D01*
X40452857Y-44934285D01*
X40548095Y-44934285D01*
X40690952Y-44981904D01*
X41262380Y-45553333D01*
X41262380Y-44934285D01*
X45335714Y-46648571D02*
X46002380Y-46648571D01*
X44954761Y-46886666D02*
X45669047Y-47124761D01*
X45669047Y-46505714D01*
X45907142Y-46124761D02*
X45954761Y-46077142D01*
X46002380Y-46124761D01*
X45954761Y-46172380D01*
X45907142Y-46124761D01*
X46002380Y-46124761D01*
X45002380Y-45743809D02*
X45002380Y-45077142D01*
X46002380Y-45505714D01*
X46002380Y-44696190D02*
X45002380Y-44696190D01*
X45621428Y-44600952D02*
X46002380Y-44315238D01*
X45335714Y-44315238D02*
X45716666Y-44696190D01*
%TO.C,J2*%
X117776666Y-40302380D02*
X117776666Y-41016666D01*
X117729047Y-41159523D01*
X117633809Y-41254761D01*
X117490952Y-41302380D01*
X117395714Y-41302380D01*
X118205238Y-40397619D02*
X118252857Y-40350000D01*
X118348095Y-40302380D01*
X118586190Y-40302380D01*
X118681428Y-40350000D01*
X118729047Y-40397619D01*
X118776666Y-40492857D01*
X118776666Y-40588095D01*
X118729047Y-40730952D01*
X118157619Y-41302380D01*
X118776666Y-41302380D01*
X117133809Y-51252380D02*
X117133809Y-50252380D01*
X117562380Y-50347619D02*
X117610000Y-50300000D01*
X117705238Y-50252380D01*
X117943333Y-50252380D01*
X118038571Y-50300000D01*
X118086190Y-50347619D01*
X118133809Y-50442857D01*
X118133809Y-50538095D01*
X118086190Y-50680952D01*
X117514761Y-51252380D01*
X118133809Y-51252380D01*
X119133809Y-51157142D02*
X119086190Y-51204761D01*
X118943333Y-51252380D01*
X118848095Y-51252380D01*
X118705238Y-51204761D01*
X118610000Y-51109523D01*
X118562380Y-51014285D01*
X118514761Y-50823809D01*
X118514761Y-50680952D01*
X118562380Y-50490476D01*
X118610000Y-50395238D01*
X118705238Y-50300000D01*
X118848095Y-50252380D01*
X118943333Y-50252380D01*
X119086190Y-50300000D01*
X119133809Y-50347619D01*
%TO.C,Q1*%
X106207619Y-50895238D02*
X106160000Y-50990476D01*
X106064761Y-51085714D01*
X105921904Y-51228571D01*
X105874285Y-51323809D01*
X105874285Y-51419047D01*
X106112380Y-51371428D02*
X106064761Y-51466666D01*
X105969523Y-51561904D01*
X105779047Y-51609523D01*
X105445714Y-51609523D01*
X105255238Y-51561904D01*
X105160000Y-51466666D01*
X105112380Y-51371428D01*
X105112380Y-51180952D01*
X105160000Y-51085714D01*
X105255238Y-50990476D01*
X105445714Y-50942857D01*
X105779047Y-50942857D01*
X105969523Y-50990476D01*
X106064761Y-51085714D01*
X106112380Y-51180952D01*
X106112380Y-51371428D01*
X106112380Y-49990476D02*
X106112380Y-50561904D01*
X106112380Y-50276190D02*
X105112380Y-50276190D01*
X105255238Y-50371428D01*
X105350476Y-50466666D01*
X105398095Y-50561904D01*
X111557619Y-53514285D02*
X111510000Y-53466666D01*
X111462380Y-53371428D01*
X111462380Y-53133333D01*
X111510000Y-53038095D01*
X111557619Y-52990476D01*
X111652857Y-52942857D01*
X111748095Y-52942857D01*
X111890952Y-52990476D01*
X112462380Y-53561904D01*
X112462380Y-52942857D01*
X112462380Y-52514285D02*
X111462380Y-52514285D01*
X112462380Y-51942857D01*
X111462380Y-51942857D01*
X111462380Y-51561904D02*
X111462380Y-50895238D01*
X112462380Y-51323809D01*
X111462380Y-50323809D02*
X111462380Y-50228571D01*
X111510000Y-50133333D01*
X111557619Y-50085714D01*
X111652857Y-50038095D01*
X111843333Y-49990476D01*
X112081428Y-49990476D01*
X112271904Y-50038095D01*
X112367142Y-50085714D01*
X112414761Y-50133333D01*
X112462380Y-50228571D01*
X112462380Y-50323809D01*
X112414761Y-50419047D01*
X112367142Y-50466666D01*
X112271904Y-50514285D01*
X112081428Y-50561904D01*
X111843333Y-50561904D01*
X111652857Y-50514285D01*
X111557619Y-50466666D01*
X111510000Y-50419047D01*
X111462380Y-50323809D01*
X111462380Y-49371428D02*
X111462380Y-49276190D01*
X111510000Y-49180952D01*
X111557619Y-49133333D01*
X111652857Y-49085714D01*
X111843333Y-49038095D01*
X112081428Y-49038095D01*
X112271904Y-49085714D01*
X112367142Y-49133333D01*
X112414761Y-49180952D01*
X112462380Y-49276190D01*
X112462380Y-49371428D01*
X112414761Y-49466666D01*
X112367142Y-49514285D01*
X112271904Y-49561904D01*
X112081428Y-49609523D01*
X111843333Y-49609523D01*
X111652857Y-49561904D01*
X111557619Y-49514285D01*
X111510000Y-49466666D01*
X111462380Y-49371428D01*
X111462380Y-48419047D02*
X111462380Y-48323809D01*
X111510000Y-48228571D01*
X111557619Y-48180952D01*
X111652857Y-48133333D01*
X111843333Y-48085714D01*
X112081428Y-48085714D01*
X112271904Y-48133333D01*
X112367142Y-48180952D01*
X112414761Y-48228571D01*
X112462380Y-48323809D01*
X112462380Y-48419047D01*
X112414761Y-48514285D01*
X112367142Y-48561904D01*
X112271904Y-48609523D01*
X112081428Y-48657142D01*
X111843333Y-48657142D01*
X111652857Y-48609523D01*
X111557619Y-48561904D01*
X111510000Y-48514285D01*
X111462380Y-48419047D01*
%TO.C,U3*%
X47498095Y-65702380D02*
X47498095Y-66511904D01*
X47545714Y-66607142D01*
X47593333Y-66654761D01*
X47688571Y-66702380D01*
X47879047Y-66702380D01*
X47974285Y-66654761D01*
X48021904Y-66607142D01*
X48069523Y-66511904D01*
X48069523Y-65702380D01*
X48450476Y-65702380D02*
X49069523Y-65702380D01*
X48736190Y-66083333D01*
X48879047Y-66083333D01*
X48974285Y-66130952D01*
X49021904Y-66178571D01*
X49069523Y-66273809D01*
X49069523Y-66511904D01*
X49021904Y-66607142D01*
X48974285Y-66654761D01*
X48879047Y-66702380D01*
X48593333Y-66702380D01*
X48498095Y-66654761D01*
X48450476Y-66607142D01*
X44617142Y-85602380D02*
X45283809Y-85602380D01*
X44855238Y-86602380D01*
X46093333Y-85935714D02*
X46093333Y-86602380D01*
X45855238Y-85554761D02*
X45617142Y-86269047D01*
X46236190Y-86269047D01*
X46617142Y-86602380D02*
X46617142Y-85602380D01*
X46617142Y-86078571D02*
X47188571Y-86078571D01*
X47188571Y-86602380D02*
X47188571Y-85602380D01*
X48236190Y-86507142D02*
X48188571Y-86554761D01*
X48045714Y-86602380D01*
X47950476Y-86602380D01*
X47807619Y-86554761D01*
X47712380Y-86459523D01*
X47664761Y-86364285D01*
X47617142Y-86173809D01*
X47617142Y-86030952D01*
X47664761Y-85840476D01*
X47712380Y-85745238D01*
X47807619Y-85650000D01*
X47950476Y-85602380D01*
X48045714Y-85602380D01*
X48188571Y-85650000D01*
X48236190Y-85697619D01*
X48521904Y-85602380D02*
X49093333Y-85602380D01*
X48807619Y-86602380D02*
X48807619Y-85602380D01*
X49950476Y-86602380D02*
X49379047Y-86602380D01*
X49664761Y-86602380D02*
X49664761Y-85602380D01*
X49569523Y-85745238D01*
X49474285Y-85840476D01*
X49379047Y-85888095D01*
X50331428Y-85697619D02*
X50379047Y-85650000D01*
X50474285Y-85602380D01*
X50712380Y-85602380D01*
X50807619Y-85650000D01*
X50855238Y-85697619D01*
X50902857Y-85792857D01*
X50902857Y-85888095D01*
X50855238Y-86030952D01*
X50283809Y-86602380D01*
X50902857Y-86602380D01*
X51807619Y-85602380D02*
X51331428Y-85602380D01*
X51283809Y-86078571D01*
X51331428Y-86030952D01*
X51426666Y-85983333D01*
X51664761Y-85983333D01*
X51760000Y-86030952D01*
X51807619Y-86078571D01*
X51855238Y-86173809D01*
X51855238Y-86411904D01*
X51807619Y-86507142D01*
X51760000Y-86554761D01*
X51664761Y-86602380D01*
X51426666Y-86602380D01*
X51331428Y-86554761D01*
X51283809Y-86507142D01*
%TO.C,U2*%
X46652380Y-46481904D02*
X47461904Y-46481904D01*
X47557142Y-46434285D01*
X47604761Y-46386666D01*
X47652380Y-46291428D01*
X47652380Y-46100952D01*
X47604761Y-46005714D01*
X47557142Y-45958095D01*
X47461904Y-45910476D01*
X46652380Y-45910476D01*
X46747619Y-45481904D02*
X46700000Y-45434285D01*
X46652380Y-45339047D01*
X46652380Y-45100952D01*
X46700000Y-45005714D01*
X46747619Y-44958095D01*
X46842857Y-44910476D01*
X46938095Y-44910476D01*
X47080952Y-44958095D01*
X47652380Y-45529523D01*
X47652380Y-44910476D01*
X66552380Y-48886666D02*
X66552380Y-48220000D01*
X67552380Y-48648571D01*
X66885714Y-47410476D02*
X67552380Y-47410476D01*
X66504761Y-47648571D02*
X67219047Y-47886666D01*
X67219047Y-47267619D01*
X67552380Y-46886666D02*
X66552380Y-46886666D01*
X67028571Y-46886666D02*
X67028571Y-46315238D01*
X67552380Y-46315238D02*
X66552380Y-46315238D01*
X67457142Y-45267619D02*
X67504761Y-45315238D01*
X67552380Y-45458095D01*
X67552380Y-45553333D01*
X67504761Y-45696190D01*
X67409523Y-45791428D01*
X67314285Y-45839047D01*
X67123809Y-45886666D01*
X66980952Y-45886666D01*
X66790476Y-45839047D01*
X66695238Y-45791428D01*
X66600000Y-45696190D01*
X66552380Y-45553333D01*
X66552380Y-45458095D01*
X66600000Y-45315238D01*
X66647619Y-45267619D01*
X66552380Y-44981904D02*
X66552380Y-44410476D01*
X67552380Y-44696190D02*
X66552380Y-44696190D01*
X66552380Y-44172380D02*
X66552380Y-43505714D01*
X67552380Y-43934285D01*
X66885714Y-42696190D02*
X67552380Y-42696190D01*
X66504761Y-42934285D02*
X67219047Y-43172380D01*
X67219047Y-42553333D01*
%TO.C,J1*%
X66976666Y-53002380D02*
X66976666Y-53716666D01*
X66929047Y-53859523D01*
X66833809Y-53954761D01*
X66690952Y-54002380D01*
X66595714Y-54002380D01*
X67976666Y-54002380D02*
X67405238Y-54002380D01*
X67690952Y-54002380D02*
X67690952Y-53002380D01*
X67595714Y-53145238D01*
X67500476Y-53240476D01*
X67405238Y-53288095D01*
X56119523Y-85812380D02*
X56690952Y-85812380D01*
X56405238Y-86812380D02*
X56405238Y-85812380D01*
X57452857Y-86812380D02*
X57452857Y-86288571D01*
X57405238Y-86193333D01*
X57310000Y-86145714D01*
X57119523Y-86145714D01*
X57024285Y-86193333D01*
X57452857Y-86764761D02*
X57357619Y-86812380D01*
X57119523Y-86812380D01*
X57024285Y-86764761D01*
X56976666Y-86669523D01*
X56976666Y-86574285D01*
X57024285Y-86479047D01*
X57119523Y-86431428D01*
X57357619Y-86431428D01*
X57452857Y-86383809D01*
X57929047Y-86812380D02*
X57929047Y-86145714D01*
X57929047Y-86336190D02*
X57976666Y-86240952D01*
X58024285Y-86193333D01*
X58119523Y-86145714D01*
X58214761Y-86145714D01*
X58976666Y-86145714D02*
X58976666Y-86955238D01*
X58929047Y-87050476D01*
X58881428Y-87098095D01*
X58786190Y-87145714D01*
X58643333Y-87145714D01*
X58548095Y-87098095D01*
X58976666Y-86764761D02*
X58881428Y-86812380D01*
X58690952Y-86812380D01*
X58595714Y-86764761D01*
X58548095Y-86717142D01*
X58500476Y-86621904D01*
X58500476Y-86336190D01*
X58548095Y-86240952D01*
X58595714Y-86193333D01*
X58690952Y-86145714D01*
X58881428Y-86145714D01*
X58976666Y-86193333D01*
X59833809Y-86764761D02*
X59738571Y-86812380D01*
X59548095Y-86812380D01*
X59452857Y-86764761D01*
X59405238Y-86669523D01*
X59405238Y-86288571D01*
X59452857Y-86193333D01*
X59548095Y-86145714D01*
X59738571Y-86145714D01*
X59833809Y-86193333D01*
X59881428Y-86288571D01*
X59881428Y-86383809D01*
X59405238Y-86479047D01*
X60167142Y-86145714D02*
X60548095Y-86145714D01*
X60310000Y-85812380D02*
X60310000Y-86669523D01*
X60357619Y-86764761D01*
X60452857Y-86812380D01*
X60548095Y-86812380D01*
X61643333Y-86812380D02*
X61643333Y-85812380D01*
X62119523Y-86145714D02*
X62119523Y-86812380D01*
X62119523Y-86240952D02*
X62167142Y-86193333D01*
X62262380Y-86145714D01*
X62405238Y-86145714D01*
X62500476Y-86193333D01*
X62548095Y-86288571D01*
X62548095Y-86812380D01*
X62881428Y-86145714D02*
X63262380Y-86145714D01*
X63024285Y-85812380D02*
X63024285Y-86669523D01*
X63071904Y-86764761D01*
X63167142Y-86812380D01*
X63262380Y-86812380D01*
X63976666Y-86764761D02*
X63881428Y-86812380D01*
X63690952Y-86812380D01*
X63595714Y-86764761D01*
X63548095Y-86669523D01*
X63548095Y-86288571D01*
X63595714Y-86193333D01*
X63690952Y-86145714D01*
X63881428Y-86145714D01*
X63976666Y-86193333D01*
X64024285Y-86288571D01*
X64024285Y-86383809D01*
X63548095Y-86479047D01*
X64452857Y-86812380D02*
X64452857Y-86145714D01*
X64452857Y-86336190D02*
X64500476Y-86240952D01*
X64548095Y-86193333D01*
X64643333Y-86145714D01*
X64738571Y-86145714D01*
X64929047Y-86145714D02*
X65310000Y-86145714D01*
X65071904Y-86812380D02*
X65071904Y-85955238D01*
X65119523Y-85860000D01*
X65214761Y-85812380D01*
X65310000Y-85812380D01*
X66071904Y-86812380D02*
X66071904Y-86288571D01*
X66024285Y-86193333D01*
X65929047Y-86145714D01*
X65738571Y-86145714D01*
X65643333Y-86193333D01*
X66071904Y-86764761D02*
X65976666Y-86812380D01*
X65738571Y-86812380D01*
X65643333Y-86764761D01*
X65595714Y-86669523D01*
X65595714Y-86574285D01*
X65643333Y-86479047D01*
X65738571Y-86431428D01*
X65976666Y-86431428D01*
X66071904Y-86383809D01*
X66976666Y-86764761D02*
X66881428Y-86812380D01*
X66690952Y-86812380D01*
X66595714Y-86764761D01*
X66548095Y-86717142D01*
X66500476Y-86621904D01*
X66500476Y-86336190D01*
X66548095Y-86240952D01*
X66595714Y-86193333D01*
X66690952Y-86145714D01*
X66881428Y-86145714D01*
X66976666Y-86193333D01*
X67786190Y-86764761D02*
X67690952Y-86812380D01*
X67500476Y-86812380D01*
X67405238Y-86764761D01*
X67357619Y-86669523D01*
X67357619Y-86288571D01*
X67405238Y-86193333D01*
X67500476Y-86145714D01*
X67690952Y-86145714D01*
X67786190Y-86193333D01*
X67833809Y-86288571D01*
X67833809Y-86383809D01*
X67357619Y-86479047D01*
X68310000Y-86764761D02*
X68310000Y-86812380D01*
X68262380Y-86907619D01*
X68214761Y-86955238D01*
X69452857Y-85907619D02*
X69500476Y-85860000D01*
X69595714Y-85812380D01*
X69833809Y-85812380D01*
X69929047Y-85860000D01*
X69976666Y-85907619D01*
X70024285Y-86002857D01*
X70024285Y-86098095D01*
X69976666Y-86240952D01*
X69405238Y-86812380D01*
X70024285Y-86812380D01*
X70357619Y-85812380D02*
X71024285Y-85812380D01*
X70595714Y-86812380D01*
X71929047Y-86812380D02*
X71357619Y-86812380D01*
X71643333Y-86812380D02*
X71643333Y-85812380D01*
X71548095Y-85955238D01*
X71452857Y-86050476D01*
X71357619Y-86098095D01*
X72786190Y-85812380D02*
X72595714Y-85812380D01*
X72500476Y-85860000D01*
X72452857Y-85907619D01*
X72357619Y-86050476D01*
X72310000Y-86240952D01*
X72310000Y-86621904D01*
X72357619Y-86717142D01*
X72405238Y-86764761D01*
X72500476Y-86812380D01*
X72690952Y-86812380D01*
X72786190Y-86764761D01*
X72833809Y-86717142D01*
X72881428Y-86621904D01*
X72881428Y-86383809D01*
X72833809Y-86288571D01*
X72786190Y-86240952D01*
X72690952Y-86193333D01*
X72500476Y-86193333D01*
X72405238Y-86240952D01*
X72357619Y-86288571D01*
X72310000Y-86383809D01*
X74071904Y-86812380D02*
X74071904Y-85812380D01*
X74452857Y-85812380D01*
X74548095Y-85860000D01*
X74595714Y-85907619D01*
X74643333Y-86002857D01*
X74643333Y-86145714D01*
X74595714Y-86240952D01*
X74548095Y-86288571D01*
X74452857Y-86336190D01*
X74071904Y-86336190D01*
X75071904Y-86812380D02*
X75071904Y-86145714D01*
X75071904Y-85812380D02*
X75024285Y-85860000D01*
X75071904Y-85907619D01*
X75119523Y-85860000D01*
X75071904Y-85812380D01*
X75071904Y-85907619D01*
X75548095Y-86145714D02*
X75548095Y-86812380D01*
X75548095Y-86240952D02*
X75595714Y-86193333D01*
X75690952Y-86145714D01*
X75833809Y-86145714D01*
X75929047Y-86193333D01*
X75976666Y-86288571D01*
X75976666Y-86812380D01*
X76595714Y-86812380D02*
X76500476Y-86764761D01*
X76452857Y-86717142D01*
X76405238Y-86621904D01*
X76405238Y-86336190D01*
X76452857Y-86240952D01*
X76500476Y-86193333D01*
X76595714Y-86145714D01*
X76738571Y-86145714D01*
X76833809Y-86193333D01*
X76881428Y-86240952D01*
X76929047Y-86336190D01*
X76929047Y-86621904D01*
X76881428Y-86717142D01*
X76833809Y-86764761D01*
X76738571Y-86812380D01*
X76595714Y-86812380D01*
X77786190Y-86145714D02*
X77786190Y-86812380D01*
X77357619Y-86145714D02*
X77357619Y-86669523D01*
X77405238Y-86764761D01*
X77500476Y-86812380D01*
X77643333Y-86812380D01*
X77738571Y-86764761D01*
X77786190Y-86717142D01*
X78119523Y-86145714D02*
X78500476Y-86145714D01*
X78262380Y-85812380D02*
X78262380Y-86669523D01*
X78310000Y-86764761D01*
X78405238Y-86812380D01*
X78500476Y-86812380D01*
%TO.C,A1*%
X104695714Y-57316666D02*
X105171904Y-57316666D01*
X104600476Y-57602380D02*
X104933809Y-56602380D01*
X105267142Y-57602380D01*
X106124285Y-57602380D02*
X105552857Y-57602380D01*
X105838571Y-57602380D02*
X105838571Y-56602380D01*
X105743333Y-56745238D01*
X105648095Y-56840476D01*
X105552857Y-56888095D01*
X107561904Y-57316666D02*
X108038095Y-57316666D01*
X107466666Y-57602380D02*
X107800000Y-56602380D01*
X108133333Y-57602380D01*
X108466666Y-57602380D02*
X108466666Y-56935714D01*
X108466666Y-57126190D02*
X108514285Y-57030952D01*
X108561904Y-56983333D01*
X108657142Y-56935714D01*
X108752380Y-56935714D01*
X109514285Y-57602380D02*
X109514285Y-56602380D01*
X109514285Y-57554761D02*
X109419047Y-57602380D01*
X109228571Y-57602380D01*
X109133333Y-57554761D01*
X109085714Y-57507142D01*
X109038095Y-57411904D01*
X109038095Y-57126190D01*
X109085714Y-57030952D01*
X109133333Y-56983333D01*
X109228571Y-56935714D01*
X109419047Y-56935714D01*
X109514285Y-56983333D01*
X110419047Y-56935714D02*
X110419047Y-57602380D01*
X109990476Y-56935714D02*
X109990476Y-57459523D01*
X110038095Y-57554761D01*
X110133333Y-57602380D01*
X110276190Y-57602380D01*
X110371428Y-57554761D01*
X110419047Y-57507142D01*
X110895238Y-57602380D02*
X110895238Y-56935714D01*
X110895238Y-56602380D02*
X110847619Y-56650000D01*
X110895238Y-56697619D01*
X110942857Y-56650000D01*
X110895238Y-56602380D01*
X110895238Y-56697619D01*
X111371428Y-56935714D02*
X111371428Y-57602380D01*
X111371428Y-57030952D02*
X111419047Y-56983333D01*
X111514285Y-56935714D01*
X111657142Y-56935714D01*
X111752380Y-56983333D01*
X111800000Y-57078571D01*
X111800000Y-57602380D01*
X112419047Y-57602380D02*
X112323809Y-57554761D01*
X112276190Y-57507142D01*
X112228571Y-57411904D01*
X112228571Y-57126190D01*
X112276190Y-57030952D01*
X112323809Y-56983333D01*
X112419047Y-56935714D01*
X112561904Y-56935714D01*
X112657142Y-56983333D01*
X112704761Y-57030952D01*
X112752380Y-57126190D01*
X112752380Y-57411904D01*
X112704761Y-57507142D01*
X112657142Y-57554761D01*
X112561904Y-57602380D01*
X112419047Y-57602380D01*
X112942857Y-57697619D02*
X113704761Y-57697619D01*
X113942857Y-57602380D02*
X113942857Y-56602380D01*
X114514285Y-57602380D01*
X114514285Y-56602380D01*
X115419047Y-57602380D02*
X115419047Y-57078571D01*
X115371428Y-56983333D01*
X115276190Y-56935714D01*
X115085714Y-56935714D01*
X114990476Y-56983333D01*
X115419047Y-57554761D02*
X115323809Y-57602380D01*
X115085714Y-57602380D01*
X114990476Y-57554761D01*
X114942857Y-57459523D01*
X114942857Y-57364285D01*
X114990476Y-57269047D01*
X115085714Y-57221428D01*
X115323809Y-57221428D01*
X115419047Y-57173809D01*
X115895238Y-56935714D02*
X115895238Y-57602380D01*
X115895238Y-57030952D02*
X115942857Y-56983333D01*
X116038095Y-56935714D01*
X116180952Y-56935714D01*
X116276190Y-56983333D01*
X116323809Y-57078571D01*
X116323809Y-57602380D01*
X116942857Y-57602380D02*
X116847619Y-57554761D01*
X116800000Y-57507142D01*
X116752380Y-57411904D01*
X116752380Y-57126190D01*
X116800000Y-57030952D01*
X116847619Y-56983333D01*
X116942857Y-56935714D01*
X117085714Y-56935714D01*
X117180952Y-56983333D01*
X117228571Y-57030952D01*
X117276190Y-57126190D01*
X117276190Y-57411904D01*
X117228571Y-57507142D01*
X117180952Y-57554761D01*
X117085714Y-57602380D01*
X116942857Y-57602380D01*
X117466666Y-57697619D02*
X118228571Y-57697619D01*
X118371428Y-56935714D02*
X118609523Y-57602380D01*
X118847619Y-56935714D01*
X119133333Y-56602380D02*
X119752380Y-56602380D01*
X119419047Y-56983333D01*
X119561904Y-56983333D01*
X119657142Y-57030952D01*
X119704761Y-57078571D01*
X119752380Y-57173809D01*
X119752380Y-57411904D01*
X119704761Y-57507142D01*
X119657142Y-57554761D01*
X119561904Y-57602380D01*
X119276190Y-57602380D01*
X119180952Y-57554761D01*
X119133333Y-57507142D01*
X120180952Y-57507142D02*
X120228571Y-57554761D01*
X120180952Y-57602380D01*
X120133333Y-57554761D01*
X120180952Y-57507142D01*
X120180952Y-57602380D01*
X120561904Y-57602380D02*
X121085714Y-56935714D01*
X120561904Y-56935714D02*
X121085714Y-57602380D01*
%TD*%
M02*
