%TF.GenerationSoftware,KiCad,Pcbnew,(5.1.9)-1*%
%TF.CreationDate,2021-04-24T11:27:16-04:00*%
%TF.ProjectId,io_i2c,696f5f69-3263-42e6-9b69-6361645f7063,rev?*%
%TF.SameCoordinates,Original*%
%TF.FileFunction,Soldermask,Bot*%
%TF.FilePolarity,Negative*%
%FSLAX46Y46*%
G04 Gerber Fmt 4.6, Leading zero omitted, Abs format (unit mm)*
G04 Created by KiCad (PCBNEW (5.1.9)-1) date 2021-04-24 11:27:16*
%MOMM*%
%LPD*%
G01*
G04 APERTURE LIST*
%ADD10O,1.600000X1.600000*%
%ADD11R,1.600000X1.600000*%
%ADD12C,1.500000*%
%ADD13C,1.600000*%
%ADD14O,1.700000X1.700000*%
%ADD15R,1.700000X1.700000*%
%ADD16R,1.500000X1.050000*%
%ADD17O,1.500000X1.050000*%
G04 APERTURE END LIST*
D10*
%TO.C,U4*%
X46990000Y-90170000D03*
X64770000Y-97790000D03*
X49530000Y-90170000D03*
X62230000Y-97790000D03*
X52070000Y-90170000D03*
X59690000Y-97790000D03*
X54610000Y-90170000D03*
X57150000Y-97790000D03*
X57150000Y-90170000D03*
X54610000Y-97790000D03*
X59690000Y-90170000D03*
X52070000Y-97790000D03*
X62230000Y-90170000D03*
X49530000Y-97790000D03*
X64770000Y-90170000D03*
D11*
X46990000Y-97790000D03*
%TD*%
D12*
%TO.C,TP1*%
X41910000Y-92710000D03*
%TD*%
D10*
%TO.C,U1*%
X97790000Y-55880000D03*
X82550000Y-83820000D03*
X97790000Y-58420000D03*
X82550000Y-81280000D03*
X97790000Y-60960000D03*
X82550000Y-78740000D03*
X97790000Y-63500000D03*
X82550000Y-76200000D03*
X97790000Y-66040000D03*
X82550000Y-73660000D03*
X97790000Y-68580000D03*
X82550000Y-71120000D03*
X97790000Y-71120000D03*
X82550000Y-68580000D03*
X97790000Y-73660000D03*
X82550000Y-66040000D03*
X97790000Y-76200000D03*
X82550000Y-63500000D03*
X97790000Y-78740000D03*
X82550000Y-60960000D03*
X97790000Y-81280000D03*
X82550000Y-58420000D03*
X97790000Y-83820000D03*
D11*
X82550000Y-55880000D03*
%TD*%
D10*
%TO.C,C3*%
X44570000Y-60960000D03*
D13*
X52070000Y-60960000D03*
%TD*%
D10*
%TO.C,C2*%
X73660000Y-97670000D03*
D13*
X73660000Y-90170000D03*
%TD*%
D10*
%TO.C,C1*%
X73660000Y-49410000D03*
D13*
X73660000Y-41910000D03*
%TD*%
D10*
%TO.C,R1*%
X111760000Y-43180000D03*
D13*
X101600000Y-43180000D03*
%TD*%
D10*
%TO.C,R2*%
X43180000Y-40640000D03*
D13*
X43180000Y-50800000D03*
%TD*%
D14*
%TO.C,J2*%
X118110000Y-48260000D03*
X118110000Y-45720000D03*
D15*
X118110000Y-43180000D03*
%TD*%
D16*
%TO.C,Q1*%
X109220000Y-52070000D03*
D17*
X109220000Y-49530000D03*
X109220000Y-50800000D03*
%TD*%
D10*
%TO.C,U3*%
X52070000Y-68580000D03*
X44450000Y-83820000D03*
X52070000Y-71120000D03*
X44450000Y-81280000D03*
X52070000Y-73660000D03*
X44450000Y-78740000D03*
X52070000Y-76200000D03*
X44450000Y-76200000D03*
X52070000Y-78740000D03*
X44450000Y-73660000D03*
X52070000Y-81280000D03*
X44450000Y-71120000D03*
X52070000Y-83820000D03*
D11*
X44450000Y-68580000D03*
%TD*%
D10*
%TO.C,U2*%
X49530000Y-41910000D03*
X64770000Y-49530000D03*
X52070000Y-41910000D03*
X62230000Y-49530000D03*
X54610000Y-41910000D03*
X59690000Y-49530000D03*
X57150000Y-41910000D03*
X57150000Y-49530000D03*
X59690000Y-41910000D03*
X54610000Y-49530000D03*
X62230000Y-41910000D03*
X52070000Y-49530000D03*
X64770000Y-41910000D03*
D11*
X49530000Y-49530000D03*
%TD*%
D10*
%TO.C,J1*%
X74930000Y-55880000D03*
X59690000Y-83820000D03*
X74930000Y-58420000D03*
X59690000Y-81280000D03*
X74930000Y-60960000D03*
X59690000Y-78740000D03*
X74930000Y-63500000D03*
X59690000Y-76200000D03*
X74930000Y-66040000D03*
X59690000Y-73660000D03*
X74930000Y-68580000D03*
X59690000Y-71120000D03*
X74930000Y-71120000D03*
X59690000Y-68580000D03*
X74930000Y-73660000D03*
X59690000Y-66040000D03*
X74930000Y-76200000D03*
X59690000Y-63500000D03*
X74930000Y-78740000D03*
X59690000Y-60960000D03*
X74930000Y-81280000D03*
X59690000Y-58420000D03*
X74930000Y-83820000D03*
D11*
X59690000Y-55880000D03*
%TD*%
D10*
%TO.C,A1*%
X120650000Y-97790000D03*
X105410000Y-97790000D03*
X120650000Y-62230000D03*
X105410000Y-95250000D03*
X120650000Y-64770000D03*
X105410000Y-92710000D03*
X120650000Y-67310000D03*
X105410000Y-90170000D03*
X120650000Y-69850000D03*
X105410000Y-87630000D03*
X120650000Y-72390000D03*
X105410000Y-85090000D03*
X120650000Y-74930000D03*
X105410000Y-82550000D03*
X120650000Y-77470000D03*
X105410000Y-80010000D03*
X120650000Y-80010000D03*
X105410000Y-77470000D03*
X120650000Y-82550000D03*
X105410000Y-74930000D03*
X120650000Y-85090000D03*
X105410000Y-72390000D03*
X120650000Y-87630000D03*
X105410000Y-69850000D03*
X120650000Y-90170000D03*
X105410000Y-67310000D03*
X120650000Y-92710000D03*
X105410000Y-64770000D03*
X120650000Y-95250000D03*
D11*
X105410000Y-62230000D03*
%TD*%
M02*
