%TF.GenerationSoftware,KiCad,Pcbnew,(5.1.9)-1*%
%TF.CreationDate,2021-04-24T11:27:16-04:00*%
%TF.ProjectId,io_i2c,696f5f69-3263-42e6-9b69-6361645f7063,rev?*%
%TF.SameCoordinates,Original*%
%TF.FileFunction,Copper,L2,Bot*%
%TF.FilePolarity,Positive*%
%FSLAX46Y46*%
G04 Gerber Fmt 4.6, Leading zero omitted, Abs format (unit mm)*
G04 Created by KiCad (PCBNEW (5.1.9)-1) date 2021-04-24 11:27:16*
%MOMM*%
%LPD*%
G01*
G04 APERTURE LIST*
%TA.AperFunction,ComponentPad*%
%ADD10O,1.600000X1.600000*%
%TD*%
%TA.AperFunction,ComponentPad*%
%ADD11R,1.600000X1.600000*%
%TD*%
%TA.AperFunction,ComponentPad*%
%ADD12C,1.500000*%
%TD*%
%TA.AperFunction,ComponentPad*%
%ADD13C,1.600000*%
%TD*%
%TA.AperFunction,ComponentPad*%
%ADD14O,1.700000X1.700000*%
%TD*%
%TA.AperFunction,ComponentPad*%
%ADD15R,1.700000X1.700000*%
%TD*%
%TA.AperFunction,ComponentPad*%
%ADD16R,1.500000X1.050000*%
%TD*%
%TA.AperFunction,ComponentPad*%
%ADD17O,1.500000X1.050000*%
%TD*%
%TA.AperFunction,Conductor*%
%ADD18C,0.250000*%
%TD*%
%TA.AperFunction,Conductor*%
%ADD19C,1.000000*%
%TD*%
%TA.AperFunction,Conductor*%
%ADD20C,0.254000*%
%TD*%
%TA.AperFunction,Conductor*%
%ADD21C,0.100000*%
%TD*%
G04 APERTURE END LIST*
D10*
%TO.P,U4,16*%
%TO.N,+5V*%
X46990000Y-90170000D03*
%TO.P,U4,8*%
%TO.N,GND*%
X64770000Y-97790000D03*
%TO.P,U4,15*%
%TO.N,Net-(U3-Pad4)*%
X49530000Y-90170000D03*
%TO.P,U4,7*%
%TO.N,N/C*%
X62230000Y-97790000D03*
%TO.P,U4,14*%
%TO.N,Net-(U2-Pad11)*%
X52070000Y-90170000D03*
%TO.P,U4,6*%
%TO.N,+5V*%
X59690000Y-97790000D03*
%TO.P,U4,13*%
%TO.N,Net-(U3-Pad10)*%
X54610000Y-90170000D03*
%TO.P,U4,5*%
%TO.N,GND*%
X57150000Y-97790000D03*
%TO.P,U4,12*%
%TO.N,Net-(U3-Pad13)*%
X57150000Y-90170000D03*
%TO.P,U4,4*%
%TO.N,Net-(J1-Pad20)*%
X54610000Y-97790000D03*
%TO.P,U4,11*%
%TO.N,N/C*%
X59690000Y-90170000D03*
%TO.P,U4,3*%
%TO.N,Net-(JP1-Pad1)*%
X52070000Y-97790000D03*
%TO.P,U4,10*%
%TO.N,N/C*%
X62230000Y-90170000D03*
%TO.P,U4,2*%
%TO.N,/A10*%
X49530000Y-97790000D03*
%TO.P,U4,9*%
%TO.N,N/C*%
X64770000Y-90170000D03*
D11*
%TO.P,U4,1*%
%TO.N,/A9*%
X46990000Y-97790000D03*
%TD*%
D12*
%TO.P,TP1,1*%
%TO.N,Net-(JP1-Pad1)*%
X41910000Y-92710000D03*
%TD*%
D10*
%TO.P,U1,24*%
%TO.N,+5V*%
X97790000Y-55880000D03*
%TO.P,U1,12*%
%TO.N,GND*%
X82550000Y-83820000D03*
%TO.P,U1,23*%
%TO.N,/A8*%
X97790000Y-58420000D03*
%TO.P,U1,11*%
%TO.N,/D2*%
X82550000Y-81280000D03*
%TO.P,U1,22*%
%TO.N,/A9*%
X97790000Y-60960000D03*
%TO.P,U1,10*%
%TO.N,/D1*%
X82550000Y-78740000D03*
%TO.P,U1,21*%
%TO.N,/VPP*%
X97790000Y-63500000D03*
%TO.P,U1,9*%
%TO.N,/D0*%
X82550000Y-76200000D03*
%TO.P,U1,20*%
%TO.N,Net-(R2-Pad2)*%
X97790000Y-66040000D03*
%TO.P,U1,8*%
%TO.N,/A0*%
X82550000Y-73660000D03*
%TO.P,U1,19*%
%TO.N,/A10*%
X97790000Y-68580000D03*
%TO.P,U1,7*%
%TO.N,/A1*%
X82550000Y-71120000D03*
%TO.P,U1,18*%
%TO.N,/~CE*%
X97790000Y-71120000D03*
%TO.P,U1,6*%
%TO.N,/A2*%
X82550000Y-68580000D03*
%TO.P,U1,17*%
%TO.N,/D7*%
X97790000Y-73660000D03*
%TO.P,U1,5*%
%TO.N,/A3*%
X82550000Y-66040000D03*
%TO.P,U1,16*%
%TO.N,/D6*%
X97790000Y-76200000D03*
%TO.P,U1,4*%
%TO.N,/A4*%
X82550000Y-63500000D03*
%TO.P,U1,15*%
%TO.N,/D5*%
X97790000Y-78740000D03*
%TO.P,U1,3*%
%TO.N,/A5*%
X82550000Y-60960000D03*
%TO.P,U1,14*%
%TO.N,/D4*%
X97790000Y-81280000D03*
%TO.P,U1,2*%
%TO.N,/A6*%
X82550000Y-58420000D03*
%TO.P,U1,13*%
%TO.N,/D3*%
X97790000Y-83820000D03*
D11*
%TO.P,U1,1*%
%TO.N,/A7*%
X82550000Y-55880000D03*
%TD*%
D10*
%TO.P,C3,2*%
%TO.N,GND*%
X44570000Y-60960000D03*
D13*
%TO.P,C3,1*%
%TO.N,+5V*%
X52070000Y-60960000D03*
%TD*%
D10*
%TO.P,C2,2*%
%TO.N,GND*%
X73660000Y-97670000D03*
D13*
%TO.P,C2,1*%
%TO.N,+5V*%
X73660000Y-90170000D03*
%TD*%
D10*
%TO.P,C1,2*%
%TO.N,GND*%
X73660000Y-49410000D03*
D13*
%TO.P,C1,1*%
%TO.N,+5V*%
X73660000Y-41910000D03*
%TD*%
D10*
%TO.P,R1,2*%
%TO.N,/SDA*%
X111760000Y-43180000D03*
D13*
%TO.P,R1,1*%
%TO.N,+5V*%
X101600000Y-43180000D03*
%TD*%
D10*
%TO.P,R2,2*%
%TO.N,Net-(R2-Pad2)*%
X43180000Y-40640000D03*
D13*
%TO.P,R2,1*%
%TO.N,+5V*%
X43180000Y-50800000D03*
%TD*%
D14*
%TO.P,J2,3*%
%TO.N,GND*%
X118110000Y-48260000D03*
%TO.P,J2,2*%
%TO.N,/SDA*%
X118110000Y-45720000D03*
D15*
%TO.P,J2,1*%
%TO.N,/SCK*%
X118110000Y-43180000D03*
%TD*%
D16*
%TO.P,Q1,1*%
%TO.N,GND*%
X109220000Y-52070000D03*
D17*
%TO.P,Q1,3*%
%TO.N,/SDA*%
X109220000Y-49530000D03*
%TO.P,Q1,2*%
%TO.N,Net-(Q1-Pad2)*%
X109220000Y-50800000D03*
%TD*%
D10*
%TO.P,U3,14*%
%TO.N,+5V*%
X52070000Y-68580000D03*
%TO.P,U3,7*%
%TO.N,GND*%
X44450000Y-83820000D03*
%TO.P,U3,13*%
%TO.N,Net-(U3-Pad13)*%
X52070000Y-71120000D03*
%TO.P,U3,6*%
%TO.N,Net-(R2-Pad2)*%
X44450000Y-81280000D03*
%TO.P,U3,12*%
%TO.N,GND*%
X52070000Y-73660000D03*
%TO.P,U3,5*%
X44450000Y-78740000D03*
%TO.P,U3,11*%
%TO.N,Net-(R2-Pad2)*%
X52070000Y-76200000D03*
%TO.P,U3,4*%
%TO.N,Net-(U3-Pad4)*%
X44450000Y-76200000D03*
%TO.P,U3,10*%
%TO.N,Net-(U3-Pad10)*%
X52070000Y-78740000D03*
%TO.P,U3,3*%
%TO.N,/D0*%
X44450000Y-73660000D03*
%TO.P,U3,9*%
%TO.N,GND*%
X52070000Y-81280000D03*
%TO.P,U3,2*%
%TO.N,/SDA*%
X44450000Y-71120000D03*
%TO.P,U3,8*%
%TO.N,Net-(R2-Pad2)*%
X52070000Y-83820000D03*
D11*
%TO.P,U3,1*%
%TO.N,Net-(U2-Pad11)*%
X44450000Y-68580000D03*
%TD*%
D10*
%TO.P,U2,14*%
%TO.N,+5V*%
X49530000Y-41910000D03*
%TO.P,U2,7*%
%TO.N,GND*%
X64770000Y-49530000D03*
%TO.P,U2,13*%
%TO.N,+5V*%
X52070000Y-41910000D03*
%TO.P,U2,6*%
%TO.N,N/C*%
X62230000Y-49530000D03*
%TO.P,U2,12*%
%TO.N,/A1*%
X54610000Y-41910000D03*
%TO.P,U2,5*%
%TO.N,/SCK*%
X59690000Y-49530000D03*
%TO.P,U2,11*%
%TO.N,Net-(U2-Pad11)*%
X57150000Y-41910000D03*
%TO.P,U2,4*%
%TO.N,+5V*%
X57150000Y-49530000D03*
%TO.P,U2,10*%
X59690000Y-41910000D03*
%TO.P,U2,3*%
%TO.N,Net-(U2-Pad11)*%
X54610000Y-49530000D03*
%TO.P,U2,9*%
%TO.N,Net-(Q1-Pad2)*%
X62230000Y-41910000D03*
%TO.P,U2,2*%
%TO.N,/A0*%
X52070000Y-49530000D03*
%TO.P,U2,8*%
%TO.N,N/C*%
X64770000Y-41910000D03*
D11*
%TO.P,U2,1*%
%TO.N,+5V*%
X49530000Y-49530000D03*
%TD*%
D10*
%TO.P,J1,24*%
%TO.N,+5V*%
X74930000Y-55880000D03*
%TO.P,J1,12*%
%TO.N,GND*%
X59690000Y-83820000D03*
%TO.P,J1,23*%
%TO.N,/A8*%
X74930000Y-58420000D03*
%TO.P,J1,11*%
%TO.N,/D2*%
X59690000Y-81280000D03*
%TO.P,J1,22*%
%TO.N,/A9*%
X74930000Y-60960000D03*
%TO.P,J1,10*%
%TO.N,/D1*%
X59690000Y-78740000D03*
%TO.P,J1,21*%
%TO.N,/VPP*%
X74930000Y-63500000D03*
%TO.P,J1,9*%
%TO.N,/D0*%
X59690000Y-76200000D03*
%TO.P,J1,20*%
%TO.N,Net-(J1-Pad20)*%
X74930000Y-66040000D03*
%TO.P,J1,8*%
%TO.N,/A0*%
X59690000Y-73660000D03*
%TO.P,J1,19*%
%TO.N,/A10*%
X74930000Y-68580000D03*
%TO.P,J1,7*%
%TO.N,/A1*%
X59690000Y-71120000D03*
%TO.P,J1,18*%
%TO.N,/~CE*%
X74930000Y-71120000D03*
%TO.P,J1,6*%
%TO.N,/A2*%
X59690000Y-68580000D03*
%TO.P,J1,17*%
%TO.N,/D7*%
X74930000Y-73660000D03*
%TO.P,J1,5*%
%TO.N,/A3*%
X59690000Y-66040000D03*
%TO.P,J1,16*%
%TO.N,/D6*%
X74930000Y-76200000D03*
%TO.P,J1,4*%
%TO.N,/A4*%
X59690000Y-63500000D03*
%TO.P,J1,15*%
%TO.N,/D5*%
X74930000Y-78740000D03*
%TO.P,J1,3*%
%TO.N,/A5*%
X59690000Y-60960000D03*
%TO.P,J1,14*%
%TO.N,/D4*%
X74930000Y-81280000D03*
%TO.P,J1,2*%
%TO.N,/A6*%
X59690000Y-58420000D03*
%TO.P,J1,13*%
%TO.N,/D3*%
X74930000Y-83820000D03*
D11*
%TO.P,J1,1*%
%TO.N,/A7*%
X59690000Y-55880000D03*
%TD*%
D10*
%TO.P,A1,16*%
%TO.N,N/C*%
X120650000Y-97790000D03*
%TO.P,A1,15*%
X105410000Y-97790000D03*
%TO.P,A1,30*%
X120650000Y-62230000D03*
%TO.P,A1,14*%
X105410000Y-95250000D03*
%TO.P,A1,29*%
%TO.N,GND*%
X120650000Y-64770000D03*
%TO.P,A1,13*%
%TO.N,N/C*%
X105410000Y-92710000D03*
%TO.P,A1,28*%
X120650000Y-67310000D03*
%TO.P,A1,12*%
X105410000Y-90170000D03*
%TO.P,A1,27*%
X120650000Y-69850000D03*
%TO.P,A1,11*%
X105410000Y-87630000D03*
%TO.P,A1,26*%
X120650000Y-72390000D03*
%TO.P,A1,10*%
X105410000Y-85090000D03*
%TO.P,A1,25*%
X120650000Y-74930000D03*
%TO.P,A1,9*%
X105410000Y-82550000D03*
%TO.P,A1,24*%
%TO.N,/SCK*%
X120650000Y-77470000D03*
%TO.P,A1,8*%
%TO.N,N/C*%
X105410000Y-80010000D03*
%TO.P,A1,23*%
%TO.N,/SDA*%
X120650000Y-80010000D03*
%TO.P,A1,7*%
%TO.N,N/C*%
X105410000Y-77470000D03*
%TO.P,A1,22*%
X120650000Y-82550000D03*
%TO.P,A1,6*%
X105410000Y-74930000D03*
%TO.P,A1,21*%
X120650000Y-85090000D03*
%TO.P,A1,5*%
X105410000Y-72390000D03*
%TO.P,A1,20*%
X120650000Y-87630000D03*
%TO.P,A1,4*%
%TO.N,GND*%
X105410000Y-69850000D03*
%TO.P,A1,19*%
%TO.N,N/C*%
X120650000Y-90170000D03*
%TO.P,A1,3*%
X105410000Y-67310000D03*
%TO.P,A1,18*%
X120650000Y-92710000D03*
%TO.P,A1,2*%
X105410000Y-64770000D03*
%TO.P,A1,17*%
X120650000Y-95250000D03*
D11*
%TO.P,A1,1*%
X105410000Y-62230000D03*
%TD*%
D18*
%TO.N,/SDA*%
X120650000Y-80010000D02*
X121920000Y-80010000D01*
X121920000Y-80010000D02*
X124460000Y-77470000D01*
X124460000Y-77470000D02*
X124460000Y-46990000D01*
X123190000Y-45720000D02*
X118110000Y-45720000D01*
X124460000Y-46990000D02*
X123190000Y-45720000D01*
D19*
%TO.N,+5V*%
X46990000Y-90170000D02*
X46990000Y-87630000D01*
X46990000Y-87630000D02*
X48260000Y-86360000D01*
X48260000Y-86360000D02*
X48260000Y-68580000D01*
X48260000Y-68580000D02*
X52070000Y-68580000D01*
X52070000Y-68580000D02*
X52070000Y-60960000D01*
X52070000Y-60960000D02*
X52070000Y-59690000D01*
X52070000Y-59690000D02*
X49530000Y-57150000D01*
X43180000Y-50800000D02*
X45720000Y-50800000D01*
X45720000Y-50800000D02*
X46990000Y-49530000D01*
X49530000Y-49530000D02*
X46990000Y-49530000D01*
X74930000Y-55880000D02*
X77470000Y-53340000D01*
X77470000Y-45720000D02*
X73660000Y-41910000D01*
X73660000Y-41910000D02*
X71120000Y-39370000D01*
X71120000Y-39370000D02*
X59690000Y-39370000D01*
X59690000Y-39370000D02*
X59690000Y-41910000D01*
X59690000Y-39370000D02*
X52070000Y-39370000D01*
X52070000Y-39370000D02*
X52070000Y-41910000D01*
X97790000Y-53340000D02*
X97790000Y-55880000D01*
X97790000Y-43180000D02*
X101600000Y-43180000D01*
X77470000Y-49530000D02*
X97790000Y-49530000D01*
X97790000Y-49530000D02*
X97790000Y-43180000D01*
X97790000Y-53340000D02*
X97790000Y-49530000D01*
X77470000Y-53340000D02*
X77470000Y-49530000D01*
X77470000Y-49530000D02*
X77470000Y-45720000D01*
X49530000Y-57150000D02*
X49530000Y-52070000D01*
X49530000Y-52070000D02*
X49530000Y-49530000D01*
X57150000Y-46990000D02*
X57150000Y-49530000D01*
X49530000Y-46990000D02*
X57150000Y-46990000D01*
X49530000Y-49530000D02*
X49530000Y-46990000D01*
D18*
%TO.N,/A8*%
X74930000Y-58420000D02*
X76200000Y-57150000D01*
X76200000Y-57150000D02*
X96520000Y-57150000D01*
X96520000Y-57150000D02*
X97790000Y-58420000D01*
%TO.N,/A9*%
X97790000Y-60960000D02*
X96520000Y-59690000D01*
X96520000Y-59690000D02*
X76200000Y-59690000D01*
X76200000Y-59690000D02*
X74930000Y-60960000D01*
X74930000Y-60960000D02*
X68580000Y-67310000D01*
X68580000Y-67310000D02*
X68580000Y-91440000D01*
X68580000Y-91440000D02*
X67310000Y-92710000D01*
X67310000Y-92710000D02*
X52070000Y-92710000D01*
X52070000Y-92710000D02*
X46990000Y-97790000D01*
%TO.N,/VPP*%
X74930000Y-63500000D02*
X76200000Y-62230000D01*
X76200000Y-62230000D02*
X96520000Y-62230000D01*
X96520000Y-62230000D02*
X97790000Y-63500000D01*
%TO.N,Net-(J1-Pad20)*%
X69850000Y-71120000D02*
X74930000Y-66040000D01*
X67310000Y-93980000D02*
X69850000Y-91440000D01*
X54610000Y-95250000D02*
X55880000Y-93980000D01*
X69850000Y-91440000D02*
X69850000Y-71120000D01*
X55880000Y-93980000D02*
X67310000Y-93980000D01*
X54610000Y-97790000D02*
X54610000Y-95250000D01*
%TO.N,/A0*%
X59690000Y-73660000D02*
X63500000Y-69850000D01*
X52070000Y-49530000D02*
X52070000Y-50800000D01*
X63500000Y-69850000D02*
X63500000Y-54610000D01*
X63500000Y-54610000D02*
X62230000Y-53340000D01*
X62230000Y-53340000D02*
X53340000Y-53340000D01*
X53340000Y-53340000D02*
X52070000Y-52070000D01*
X52070000Y-52070000D02*
X52070000Y-49530000D01*
%TO.N,/A10*%
X97790000Y-68580000D02*
X96520000Y-67310000D01*
X96520000Y-67310000D02*
X76200000Y-67310000D01*
X76200000Y-67310000D02*
X74930000Y-68580000D01*
X74930000Y-68580000D02*
X71120000Y-72390000D01*
X71120000Y-72390000D02*
X71120000Y-97790000D01*
X71120000Y-97790000D02*
X68580000Y-100330000D01*
X52070000Y-100330000D02*
X49530000Y-97790000D01*
X68580000Y-100330000D02*
X52070000Y-100330000D01*
%TO.N,/~CE*%
X74930000Y-71120000D02*
X76200000Y-69850000D01*
X76200000Y-69850000D02*
X96520000Y-69850000D01*
X96520000Y-69850000D02*
X97790000Y-71120000D01*
%TO.N,/D7*%
X97790000Y-73660000D02*
X96520000Y-72390000D01*
X96520000Y-72390000D02*
X76200000Y-72390000D01*
X76200000Y-72390000D02*
X74930000Y-73660000D01*
%TO.N,/D6*%
X74930000Y-76200000D02*
X76200000Y-74930000D01*
X76200000Y-74930000D02*
X96520000Y-74930000D01*
X96520000Y-74930000D02*
X97790000Y-76200000D01*
%TO.N,/D5*%
X97790000Y-78740000D02*
X96520000Y-77470000D01*
X96520000Y-77470000D02*
X76200000Y-77470000D01*
X76200000Y-77470000D02*
X74930000Y-78740000D01*
%TO.N,/D4*%
X74930000Y-81280000D02*
X76200000Y-80010000D01*
X76200000Y-80010000D02*
X96520000Y-80010000D01*
X96520000Y-80010000D02*
X97790000Y-81280000D01*
%TO.N,/D3*%
X97790000Y-83820000D02*
X96520000Y-82550000D01*
X96520000Y-82550000D02*
X76200000Y-82550000D01*
X76200000Y-82550000D02*
X74930000Y-83820000D01*
%TO.N,Net-(U2-Pad11)*%
X52070000Y-90170000D02*
X52070000Y-91440000D01*
X52070000Y-91440000D02*
X50800000Y-92710000D01*
X50800000Y-92710000D02*
X44450000Y-92710000D01*
X44450000Y-92710000D02*
X41910000Y-90170000D01*
X41910000Y-90170000D02*
X41910000Y-71120000D01*
X41910000Y-71120000D02*
X44450000Y-68580000D01*
X57150000Y-41910000D02*
X57150000Y-44450000D01*
X57150000Y-44450000D02*
X58420000Y-45720000D01*
X58420000Y-45720000D02*
X58420000Y-50800000D01*
X58420000Y-50800000D02*
X57150000Y-52070000D01*
X57150000Y-52070000D02*
X55880000Y-52070000D01*
X55880000Y-52070000D02*
X54610000Y-50800000D01*
X54610000Y-50800000D02*
X54610000Y-49530000D01*
%TO.N,Net-(U3-Pad13)*%
X57150000Y-90170000D02*
X57150000Y-76200000D01*
X57150000Y-76200000D02*
X52070000Y-71120000D01*
%TO.N,Net-(R2-Pad2)*%
X46990000Y-78740000D02*
X44450000Y-81280000D01*
X46990000Y-67310000D02*
X46990000Y-78740000D01*
X40640000Y-44450000D02*
X40640000Y-60960000D01*
X43180000Y-41910000D02*
X40640000Y-44450000D01*
X40640000Y-60960000D02*
X46990000Y-67310000D01*
X43180000Y-40640000D02*
X43180000Y-41910000D01*
%TO.N,Net-(U3-Pad10)*%
X54610000Y-90170000D02*
X54610000Y-81280000D01*
X54610000Y-81280000D02*
X52070000Y-78740000D01*
%TD*%
D20*
%TO.N,GND*%
X51016324Y-38933553D02*
X50951423Y-39147501D01*
X50929509Y-39370000D01*
X50935000Y-39425752D01*
X50935001Y-41025715D01*
X50800000Y-41227759D01*
X50644637Y-40995241D01*
X50444759Y-40795363D01*
X50209727Y-40638320D01*
X49948574Y-40530147D01*
X49671335Y-40475000D01*
X49388665Y-40475000D01*
X49111426Y-40530147D01*
X48850273Y-40638320D01*
X48615241Y-40795363D01*
X48415363Y-40995241D01*
X48258320Y-41230273D01*
X48150147Y-41491426D01*
X48095000Y-41768665D01*
X48095000Y-42051335D01*
X48150147Y-42328574D01*
X48258320Y-42589727D01*
X48415363Y-42824759D01*
X48615241Y-43024637D01*
X48850273Y-43181680D01*
X49111426Y-43289853D01*
X49388665Y-43345000D01*
X49671335Y-43345000D01*
X49948574Y-43289853D01*
X50209727Y-43181680D01*
X50444759Y-43024637D01*
X50644637Y-42824759D01*
X50800000Y-42592241D01*
X50955363Y-42824759D01*
X51155241Y-43024637D01*
X51390273Y-43181680D01*
X51651426Y-43289853D01*
X51928665Y-43345000D01*
X52211335Y-43345000D01*
X52488574Y-43289853D01*
X52749727Y-43181680D01*
X52984759Y-43024637D01*
X53184637Y-42824759D01*
X53340000Y-42592241D01*
X53495363Y-42824759D01*
X53695241Y-43024637D01*
X53930273Y-43181680D01*
X54191426Y-43289853D01*
X54468665Y-43345000D01*
X54751335Y-43345000D01*
X55028574Y-43289853D01*
X55289727Y-43181680D01*
X55524759Y-43024637D01*
X55724637Y-42824759D01*
X55880000Y-42592241D01*
X56035363Y-42824759D01*
X56235241Y-43024637D01*
X56390000Y-43128044D01*
X56390001Y-44412667D01*
X56386324Y-44450000D01*
X56390001Y-44487333D01*
X56400998Y-44598986D01*
X56414180Y-44642442D01*
X56444454Y-44742246D01*
X56515026Y-44874276D01*
X56585379Y-44960000D01*
X56610000Y-44990001D01*
X56638998Y-45013799D01*
X57550669Y-45925471D01*
X57372499Y-45871423D01*
X57205752Y-45855000D01*
X57205751Y-45855000D01*
X57150000Y-45849509D01*
X57094248Y-45855000D01*
X49585752Y-45855000D01*
X49530000Y-45849509D01*
X49474249Y-45855000D01*
X49474248Y-45855000D01*
X49307501Y-45871423D01*
X49093553Y-45936324D01*
X48896377Y-46041716D01*
X48723551Y-46183551D01*
X48581716Y-46356377D01*
X48476324Y-46553553D01*
X48411423Y-46767501D01*
X48389509Y-46990000D01*
X48395001Y-47045761D01*
X48395001Y-48189043D01*
X48375506Y-48199463D01*
X48278815Y-48278815D01*
X48199463Y-48375506D01*
X48189043Y-48395000D01*
X47045743Y-48395000D01*
X46989999Y-48389510D01*
X46934255Y-48395000D01*
X46934248Y-48395000D01*
X46788493Y-48409356D01*
X46767500Y-48411423D01*
X46717705Y-48426529D01*
X46553553Y-48476324D01*
X46356377Y-48581716D01*
X46183551Y-48723551D01*
X46148008Y-48766860D01*
X45249869Y-49665000D01*
X44064284Y-49665000D01*
X43859727Y-49528320D01*
X43598574Y-49420147D01*
X43321335Y-49365000D01*
X43038665Y-49365000D01*
X42761426Y-49420147D01*
X42500273Y-49528320D01*
X42265241Y-49685363D01*
X42065363Y-49885241D01*
X41908320Y-50120273D01*
X41800147Y-50381426D01*
X41745000Y-50658665D01*
X41745000Y-50941335D01*
X41800147Y-51218574D01*
X41908320Y-51479727D01*
X42065363Y-51714759D01*
X42265241Y-51914637D01*
X42500273Y-52071680D01*
X42761426Y-52179853D01*
X43038665Y-52235000D01*
X43321335Y-52235000D01*
X43598574Y-52179853D01*
X43859727Y-52071680D01*
X44064284Y-51935000D01*
X45664249Y-51935000D01*
X45720000Y-51940491D01*
X45775751Y-51935000D01*
X45775752Y-51935000D01*
X45942499Y-51918577D01*
X46156447Y-51853676D01*
X46353623Y-51748284D01*
X46526449Y-51606449D01*
X46561996Y-51563135D01*
X47460132Y-50665000D01*
X48189043Y-50665000D01*
X48199463Y-50684494D01*
X48278815Y-50781185D01*
X48375506Y-50860537D01*
X48395000Y-50870957D01*
X48395000Y-52125751D01*
X48395001Y-52125761D01*
X48395000Y-57094248D01*
X48389509Y-57150000D01*
X48395000Y-57205751D01*
X48411423Y-57372498D01*
X48476324Y-57586446D01*
X48581716Y-57783623D01*
X48723551Y-57956449D01*
X48766865Y-57991996D01*
X50901188Y-60126320D01*
X50798320Y-60280273D01*
X50690147Y-60541426D01*
X50635000Y-60818665D01*
X50635000Y-61101335D01*
X50690147Y-61378574D01*
X50798320Y-61639727D01*
X50935001Y-61844285D01*
X50935000Y-67445000D01*
X48315752Y-67445000D01*
X48260000Y-67439509D01*
X48204249Y-67445000D01*
X48204248Y-67445000D01*
X48037501Y-67461423D01*
X47823553Y-67526324D01*
X47750000Y-67565639D01*
X47750000Y-67347322D01*
X47753676Y-67309999D01*
X47750000Y-67272676D01*
X47750000Y-67272667D01*
X47739003Y-67161014D01*
X47695546Y-67017753D01*
X47624975Y-66885725D01*
X47624974Y-66885723D01*
X47553799Y-66798997D01*
X47530001Y-66769999D01*
X47501003Y-66746201D01*
X42063841Y-61309039D01*
X43178096Y-61309039D01*
X43218754Y-61443087D01*
X43338963Y-61697420D01*
X43506481Y-61923414D01*
X43714869Y-62112385D01*
X43956119Y-62257070D01*
X44220960Y-62351909D01*
X44443000Y-62230624D01*
X44443000Y-61087000D01*
X44697000Y-61087000D01*
X44697000Y-62230624D01*
X44919040Y-62351909D01*
X45183881Y-62257070D01*
X45425131Y-62112385D01*
X45633519Y-61923414D01*
X45801037Y-61697420D01*
X45921246Y-61443087D01*
X45961904Y-61309039D01*
X45839915Y-61087000D01*
X44697000Y-61087000D01*
X44443000Y-61087000D01*
X43300085Y-61087000D01*
X43178096Y-61309039D01*
X42063841Y-61309039D01*
X41400000Y-60645199D01*
X41400000Y-60610961D01*
X43178096Y-60610961D01*
X43300085Y-60833000D01*
X44443000Y-60833000D01*
X44443000Y-59689376D01*
X44697000Y-59689376D01*
X44697000Y-60833000D01*
X45839915Y-60833000D01*
X45961904Y-60610961D01*
X45921246Y-60476913D01*
X45801037Y-60222580D01*
X45633519Y-59996586D01*
X45425131Y-59807615D01*
X45183881Y-59662930D01*
X44919040Y-59568091D01*
X44697000Y-59689376D01*
X44443000Y-59689376D01*
X44220960Y-59568091D01*
X43956119Y-59662930D01*
X43714869Y-59807615D01*
X43506481Y-59996586D01*
X43338963Y-60222580D01*
X43218754Y-60476913D01*
X43178096Y-60610961D01*
X41400000Y-60610961D01*
X41400000Y-44764801D01*
X43691008Y-42473795D01*
X43720001Y-42450001D01*
X43743795Y-42421008D01*
X43743799Y-42421004D01*
X43801811Y-42350315D01*
X43814974Y-42334276D01*
X43885546Y-42202247D01*
X43929003Y-42058986D01*
X43940000Y-41947333D01*
X43940000Y-41947324D01*
X43943676Y-41910001D01*
X43940000Y-41872678D01*
X43940000Y-41858043D01*
X44094759Y-41754637D01*
X44294637Y-41554759D01*
X44451680Y-41319727D01*
X44559853Y-41058574D01*
X44615000Y-40781335D01*
X44615000Y-40498665D01*
X44559853Y-40221426D01*
X44451680Y-39960273D01*
X44294637Y-39725241D01*
X44094759Y-39525363D01*
X43859727Y-39368320D01*
X43598574Y-39260147D01*
X43321335Y-39205000D01*
X43038665Y-39205000D01*
X42761426Y-39260147D01*
X42500273Y-39368320D01*
X42265241Y-39525363D01*
X42065363Y-39725241D01*
X41908320Y-39960273D01*
X41800147Y-40221426D01*
X41745000Y-40498665D01*
X41745000Y-40781335D01*
X41800147Y-41058574D01*
X41908320Y-41319727D01*
X42065363Y-41554759D01*
X42262901Y-41752297D01*
X40129003Y-43886196D01*
X40099999Y-43909999D01*
X40044871Y-43977174D01*
X40005026Y-44025724D01*
X39968126Y-44094759D01*
X39934454Y-44157754D01*
X39890997Y-44301015D01*
X39880000Y-44412668D01*
X39880000Y-44412678D01*
X39876324Y-44450000D01*
X39880000Y-44487322D01*
X39880001Y-60922667D01*
X39876324Y-60960000D01*
X39880001Y-60997333D01*
X39890998Y-61108986D01*
X39904180Y-61152442D01*
X39934454Y-61252246D01*
X40005026Y-61384276D01*
X40072362Y-61466324D01*
X40100000Y-61500001D01*
X40128998Y-61523799D01*
X46230000Y-67624802D01*
X46230001Y-78425196D01*
X45744127Y-78911070D01*
X45719915Y-78867000D01*
X44577000Y-78867000D01*
X44577000Y-78887000D01*
X44323000Y-78887000D01*
X44323000Y-78867000D01*
X43180085Y-78867000D01*
X43058096Y-79089039D01*
X43098754Y-79223087D01*
X43218963Y-79477420D01*
X43386481Y-79703414D01*
X43594869Y-79892385D01*
X43780865Y-80003933D01*
X43770273Y-80008320D01*
X43535241Y-80165363D01*
X43335363Y-80365241D01*
X43178320Y-80600273D01*
X43070147Y-80861426D01*
X43015000Y-81138665D01*
X43015000Y-81421335D01*
X43070147Y-81698574D01*
X43178320Y-81959727D01*
X43335363Y-82194759D01*
X43535241Y-82394637D01*
X43770273Y-82551680D01*
X43780865Y-82556067D01*
X43594869Y-82667615D01*
X43386481Y-82856586D01*
X43218963Y-83082580D01*
X43098754Y-83336913D01*
X43058096Y-83470961D01*
X43180085Y-83693000D01*
X44323000Y-83693000D01*
X44323000Y-83673000D01*
X44577000Y-83673000D01*
X44577000Y-83693000D01*
X45719915Y-83693000D01*
X45841904Y-83470961D01*
X45801246Y-83336913D01*
X45681037Y-83082580D01*
X45513519Y-82856586D01*
X45305131Y-82667615D01*
X45119135Y-82556067D01*
X45129727Y-82551680D01*
X45364759Y-82394637D01*
X45564637Y-82194759D01*
X45721680Y-81959727D01*
X45829853Y-81698574D01*
X45885000Y-81421335D01*
X45885000Y-81138665D01*
X45848688Y-80956114D01*
X47125000Y-79679802D01*
X47125000Y-85889868D01*
X46226860Y-86788009D01*
X46183552Y-86823551D01*
X46041717Y-86996377D01*
X45985384Y-87101770D01*
X45936324Y-87193554D01*
X45871423Y-87407502D01*
X45849509Y-87630000D01*
X45855001Y-87685761D01*
X45855000Y-89285716D01*
X45718320Y-89490273D01*
X45610147Y-89751426D01*
X45555000Y-90028665D01*
X45555000Y-90311335D01*
X45610147Y-90588574D01*
X45718320Y-90849727D01*
X45875363Y-91084759D01*
X46075241Y-91284637D01*
X46310273Y-91441680D01*
X46571426Y-91549853D01*
X46848665Y-91605000D01*
X47131335Y-91605000D01*
X47408574Y-91549853D01*
X47669727Y-91441680D01*
X47904759Y-91284637D01*
X48104637Y-91084759D01*
X48260000Y-90852241D01*
X48415363Y-91084759D01*
X48615241Y-91284637D01*
X48850273Y-91441680D01*
X49111426Y-91549853D01*
X49388665Y-91605000D01*
X49671335Y-91605000D01*
X49948574Y-91549853D01*
X50209727Y-91441680D01*
X50444759Y-91284637D01*
X50644637Y-91084759D01*
X50800000Y-90852241D01*
X50955363Y-91084759D01*
X51152901Y-91282297D01*
X50485199Y-91950000D01*
X44764803Y-91950000D01*
X42670000Y-89855199D01*
X42670000Y-84169039D01*
X43058096Y-84169039D01*
X43098754Y-84303087D01*
X43218963Y-84557420D01*
X43386481Y-84783414D01*
X43594869Y-84972385D01*
X43836119Y-85117070D01*
X44100960Y-85211909D01*
X44323000Y-85090624D01*
X44323000Y-83947000D01*
X44577000Y-83947000D01*
X44577000Y-85090624D01*
X44799040Y-85211909D01*
X45063881Y-85117070D01*
X45305131Y-84972385D01*
X45513519Y-84783414D01*
X45681037Y-84557420D01*
X45801246Y-84303087D01*
X45841904Y-84169039D01*
X45719915Y-83947000D01*
X44577000Y-83947000D01*
X44323000Y-83947000D01*
X43180085Y-83947000D01*
X43058096Y-84169039D01*
X42670000Y-84169039D01*
X42670000Y-71434801D01*
X43015000Y-71089801D01*
X43015000Y-71261335D01*
X43070147Y-71538574D01*
X43178320Y-71799727D01*
X43335363Y-72034759D01*
X43535241Y-72234637D01*
X43767759Y-72390000D01*
X43535241Y-72545363D01*
X43335363Y-72745241D01*
X43178320Y-72980273D01*
X43070147Y-73241426D01*
X43015000Y-73518665D01*
X43015000Y-73801335D01*
X43070147Y-74078574D01*
X43178320Y-74339727D01*
X43335363Y-74574759D01*
X43535241Y-74774637D01*
X43767759Y-74930000D01*
X43535241Y-75085363D01*
X43335363Y-75285241D01*
X43178320Y-75520273D01*
X43070147Y-75781426D01*
X43015000Y-76058665D01*
X43015000Y-76341335D01*
X43070147Y-76618574D01*
X43178320Y-76879727D01*
X43335363Y-77114759D01*
X43535241Y-77314637D01*
X43770273Y-77471680D01*
X43780865Y-77476067D01*
X43594869Y-77587615D01*
X43386481Y-77776586D01*
X43218963Y-78002580D01*
X43098754Y-78256913D01*
X43058096Y-78390961D01*
X43180085Y-78613000D01*
X44323000Y-78613000D01*
X44323000Y-78593000D01*
X44577000Y-78593000D01*
X44577000Y-78613000D01*
X45719915Y-78613000D01*
X45841904Y-78390961D01*
X45801246Y-78256913D01*
X45681037Y-78002580D01*
X45513519Y-77776586D01*
X45305131Y-77587615D01*
X45119135Y-77476067D01*
X45129727Y-77471680D01*
X45364759Y-77314637D01*
X45564637Y-77114759D01*
X45721680Y-76879727D01*
X45829853Y-76618574D01*
X45885000Y-76341335D01*
X45885000Y-76058665D01*
X45829853Y-75781426D01*
X45721680Y-75520273D01*
X45564637Y-75285241D01*
X45364759Y-75085363D01*
X45132241Y-74930000D01*
X45364759Y-74774637D01*
X45564637Y-74574759D01*
X45721680Y-74339727D01*
X45829853Y-74078574D01*
X45885000Y-73801335D01*
X45885000Y-73518665D01*
X45829853Y-73241426D01*
X45721680Y-72980273D01*
X45564637Y-72745241D01*
X45364759Y-72545363D01*
X45132241Y-72390000D01*
X45364759Y-72234637D01*
X45564637Y-72034759D01*
X45721680Y-71799727D01*
X45829853Y-71538574D01*
X45885000Y-71261335D01*
X45885000Y-70978665D01*
X45829853Y-70701426D01*
X45721680Y-70440273D01*
X45564637Y-70205241D01*
X45366039Y-70006643D01*
X45374482Y-70005812D01*
X45494180Y-69969502D01*
X45604494Y-69910537D01*
X45701185Y-69831185D01*
X45780537Y-69734494D01*
X45839502Y-69624180D01*
X45875812Y-69504482D01*
X45888072Y-69380000D01*
X45888072Y-67780000D01*
X45875812Y-67655518D01*
X45839502Y-67535820D01*
X45780537Y-67425506D01*
X45701185Y-67328815D01*
X45604494Y-67249463D01*
X45494180Y-67190498D01*
X45374482Y-67154188D01*
X45250000Y-67141928D01*
X43650000Y-67141928D01*
X43525518Y-67154188D01*
X43405820Y-67190498D01*
X43295506Y-67249463D01*
X43198815Y-67328815D01*
X43119463Y-67425506D01*
X43060498Y-67535820D01*
X43024188Y-67655518D01*
X43011928Y-67780000D01*
X43011928Y-68943270D01*
X41398998Y-70556201D01*
X41370000Y-70579999D01*
X41346202Y-70608997D01*
X41346201Y-70608998D01*
X41275026Y-70695724D01*
X41204454Y-70827754D01*
X41174180Y-70927558D01*
X41160998Y-70971014D01*
X41157908Y-71002385D01*
X41146324Y-71120000D01*
X41150001Y-71157333D01*
X41150000Y-90132678D01*
X41146324Y-90170000D01*
X41150000Y-90207322D01*
X41150000Y-90207332D01*
X41160997Y-90318985D01*
X41183297Y-90392498D01*
X41204454Y-90462246D01*
X41275026Y-90594276D01*
X41285014Y-90606446D01*
X41369999Y-90710001D01*
X41399003Y-90733804D01*
X41990199Y-91325000D01*
X41773589Y-91325000D01*
X41506011Y-91378225D01*
X41253957Y-91482629D01*
X41027114Y-91634201D01*
X40834201Y-91827114D01*
X40682629Y-92053957D01*
X40578225Y-92306011D01*
X40525000Y-92573589D01*
X40525000Y-92846411D01*
X40578225Y-93113989D01*
X40682629Y-93366043D01*
X40834201Y-93592886D01*
X41027114Y-93785799D01*
X41253957Y-93937371D01*
X41506011Y-94041775D01*
X41773589Y-94095000D01*
X42046411Y-94095000D01*
X42313989Y-94041775D01*
X42566043Y-93937371D01*
X42792886Y-93785799D01*
X42985799Y-93592886D01*
X43137371Y-93366043D01*
X43241775Y-93113989D01*
X43295000Y-92846411D01*
X43295000Y-92629803D01*
X43886205Y-93221008D01*
X43909999Y-93250001D01*
X43938992Y-93273795D01*
X43938996Y-93273799D01*
X44009685Y-93331811D01*
X44025724Y-93344974D01*
X44157753Y-93415546D01*
X44301014Y-93459003D01*
X44412667Y-93470000D01*
X44412676Y-93470000D01*
X44449999Y-93473676D01*
X44487322Y-93470000D01*
X50235198Y-93470000D01*
X47353271Y-96351928D01*
X46190000Y-96351928D01*
X46065518Y-96364188D01*
X45945820Y-96400498D01*
X45835506Y-96459463D01*
X45738815Y-96538815D01*
X45659463Y-96635506D01*
X45600498Y-96745820D01*
X45564188Y-96865518D01*
X45551928Y-96990000D01*
X45551928Y-98590000D01*
X45564188Y-98714482D01*
X45600498Y-98834180D01*
X45659463Y-98944494D01*
X45738815Y-99041185D01*
X45835506Y-99120537D01*
X45945820Y-99179502D01*
X46065518Y-99215812D01*
X46190000Y-99228072D01*
X47790000Y-99228072D01*
X47914482Y-99215812D01*
X48034180Y-99179502D01*
X48144494Y-99120537D01*
X48241185Y-99041185D01*
X48320537Y-98944494D01*
X48379502Y-98834180D01*
X48415812Y-98714482D01*
X48416643Y-98706039D01*
X48615241Y-98904637D01*
X48850273Y-99061680D01*
X49111426Y-99169853D01*
X49388665Y-99225000D01*
X49671335Y-99225000D01*
X49853886Y-99188688D01*
X51506205Y-100841008D01*
X51529999Y-100870001D01*
X51558992Y-100893795D01*
X51558996Y-100893799D01*
X51584830Y-100915000D01*
X38785000Y-100915000D01*
X38785000Y-38785000D01*
X51095727Y-38785000D01*
X51016324Y-38933553D01*
%TA.AperFunction,Conductor*%
D21*
G36*
X51016324Y-38933553D02*
G01*
X50951423Y-39147501D01*
X50929509Y-39370000D01*
X50935000Y-39425752D01*
X50935001Y-41025715D01*
X50800000Y-41227759D01*
X50644637Y-40995241D01*
X50444759Y-40795363D01*
X50209727Y-40638320D01*
X49948574Y-40530147D01*
X49671335Y-40475000D01*
X49388665Y-40475000D01*
X49111426Y-40530147D01*
X48850273Y-40638320D01*
X48615241Y-40795363D01*
X48415363Y-40995241D01*
X48258320Y-41230273D01*
X48150147Y-41491426D01*
X48095000Y-41768665D01*
X48095000Y-42051335D01*
X48150147Y-42328574D01*
X48258320Y-42589727D01*
X48415363Y-42824759D01*
X48615241Y-43024637D01*
X48850273Y-43181680D01*
X49111426Y-43289853D01*
X49388665Y-43345000D01*
X49671335Y-43345000D01*
X49948574Y-43289853D01*
X50209727Y-43181680D01*
X50444759Y-43024637D01*
X50644637Y-42824759D01*
X50800000Y-42592241D01*
X50955363Y-42824759D01*
X51155241Y-43024637D01*
X51390273Y-43181680D01*
X51651426Y-43289853D01*
X51928665Y-43345000D01*
X52211335Y-43345000D01*
X52488574Y-43289853D01*
X52749727Y-43181680D01*
X52984759Y-43024637D01*
X53184637Y-42824759D01*
X53340000Y-42592241D01*
X53495363Y-42824759D01*
X53695241Y-43024637D01*
X53930273Y-43181680D01*
X54191426Y-43289853D01*
X54468665Y-43345000D01*
X54751335Y-43345000D01*
X55028574Y-43289853D01*
X55289727Y-43181680D01*
X55524759Y-43024637D01*
X55724637Y-42824759D01*
X55880000Y-42592241D01*
X56035363Y-42824759D01*
X56235241Y-43024637D01*
X56390000Y-43128044D01*
X56390001Y-44412667D01*
X56386324Y-44450000D01*
X56390001Y-44487333D01*
X56400998Y-44598986D01*
X56414180Y-44642442D01*
X56444454Y-44742246D01*
X56515026Y-44874276D01*
X56585379Y-44960000D01*
X56610000Y-44990001D01*
X56638998Y-45013799D01*
X57550669Y-45925471D01*
X57372499Y-45871423D01*
X57205752Y-45855000D01*
X57205751Y-45855000D01*
X57150000Y-45849509D01*
X57094248Y-45855000D01*
X49585752Y-45855000D01*
X49530000Y-45849509D01*
X49474249Y-45855000D01*
X49474248Y-45855000D01*
X49307501Y-45871423D01*
X49093553Y-45936324D01*
X48896377Y-46041716D01*
X48723551Y-46183551D01*
X48581716Y-46356377D01*
X48476324Y-46553553D01*
X48411423Y-46767501D01*
X48389509Y-46990000D01*
X48395001Y-47045761D01*
X48395001Y-48189043D01*
X48375506Y-48199463D01*
X48278815Y-48278815D01*
X48199463Y-48375506D01*
X48189043Y-48395000D01*
X47045743Y-48395000D01*
X46989999Y-48389510D01*
X46934255Y-48395000D01*
X46934248Y-48395000D01*
X46788493Y-48409356D01*
X46767500Y-48411423D01*
X46717705Y-48426529D01*
X46553553Y-48476324D01*
X46356377Y-48581716D01*
X46183551Y-48723551D01*
X46148008Y-48766860D01*
X45249869Y-49665000D01*
X44064284Y-49665000D01*
X43859727Y-49528320D01*
X43598574Y-49420147D01*
X43321335Y-49365000D01*
X43038665Y-49365000D01*
X42761426Y-49420147D01*
X42500273Y-49528320D01*
X42265241Y-49685363D01*
X42065363Y-49885241D01*
X41908320Y-50120273D01*
X41800147Y-50381426D01*
X41745000Y-50658665D01*
X41745000Y-50941335D01*
X41800147Y-51218574D01*
X41908320Y-51479727D01*
X42065363Y-51714759D01*
X42265241Y-51914637D01*
X42500273Y-52071680D01*
X42761426Y-52179853D01*
X43038665Y-52235000D01*
X43321335Y-52235000D01*
X43598574Y-52179853D01*
X43859727Y-52071680D01*
X44064284Y-51935000D01*
X45664249Y-51935000D01*
X45720000Y-51940491D01*
X45775751Y-51935000D01*
X45775752Y-51935000D01*
X45942499Y-51918577D01*
X46156447Y-51853676D01*
X46353623Y-51748284D01*
X46526449Y-51606449D01*
X46561996Y-51563135D01*
X47460132Y-50665000D01*
X48189043Y-50665000D01*
X48199463Y-50684494D01*
X48278815Y-50781185D01*
X48375506Y-50860537D01*
X48395000Y-50870957D01*
X48395000Y-52125751D01*
X48395001Y-52125761D01*
X48395000Y-57094248D01*
X48389509Y-57150000D01*
X48395000Y-57205751D01*
X48411423Y-57372498D01*
X48476324Y-57586446D01*
X48581716Y-57783623D01*
X48723551Y-57956449D01*
X48766865Y-57991996D01*
X50901188Y-60126320D01*
X50798320Y-60280273D01*
X50690147Y-60541426D01*
X50635000Y-60818665D01*
X50635000Y-61101335D01*
X50690147Y-61378574D01*
X50798320Y-61639727D01*
X50935001Y-61844285D01*
X50935000Y-67445000D01*
X48315752Y-67445000D01*
X48260000Y-67439509D01*
X48204249Y-67445000D01*
X48204248Y-67445000D01*
X48037501Y-67461423D01*
X47823553Y-67526324D01*
X47750000Y-67565639D01*
X47750000Y-67347322D01*
X47753676Y-67309999D01*
X47750000Y-67272676D01*
X47750000Y-67272667D01*
X47739003Y-67161014D01*
X47695546Y-67017753D01*
X47624975Y-66885725D01*
X47624974Y-66885723D01*
X47553799Y-66798997D01*
X47530001Y-66769999D01*
X47501003Y-66746201D01*
X42063841Y-61309039D01*
X43178096Y-61309039D01*
X43218754Y-61443087D01*
X43338963Y-61697420D01*
X43506481Y-61923414D01*
X43714869Y-62112385D01*
X43956119Y-62257070D01*
X44220960Y-62351909D01*
X44443000Y-62230624D01*
X44443000Y-61087000D01*
X44697000Y-61087000D01*
X44697000Y-62230624D01*
X44919040Y-62351909D01*
X45183881Y-62257070D01*
X45425131Y-62112385D01*
X45633519Y-61923414D01*
X45801037Y-61697420D01*
X45921246Y-61443087D01*
X45961904Y-61309039D01*
X45839915Y-61087000D01*
X44697000Y-61087000D01*
X44443000Y-61087000D01*
X43300085Y-61087000D01*
X43178096Y-61309039D01*
X42063841Y-61309039D01*
X41400000Y-60645199D01*
X41400000Y-60610961D01*
X43178096Y-60610961D01*
X43300085Y-60833000D01*
X44443000Y-60833000D01*
X44443000Y-59689376D01*
X44697000Y-59689376D01*
X44697000Y-60833000D01*
X45839915Y-60833000D01*
X45961904Y-60610961D01*
X45921246Y-60476913D01*
X45801037Y-60222580D01*
X45633519Y-59996586D01*
X45425131Y-59807615D01*
X45183881Y-59662930D01*
X44919040Y-59568091D01*
X44697000Y-59689376D01*
X44443000Y-59689376D01*
X44220960Y-59568091D01*
X43956119Y-59662930D01*
X43714869Y-59807615D01*
X43506481Y-59996586D01*
X43338963Y-60222580D01*
X43218754Y-60476913D01*
X43178096Y-60610961D01*
X41400000Y-60610961D01*
X41400000Y-44764801D01*
X43691008Y-42473795D01*
X43720001Y-42450001D01*
X43743795Y-42421008D01*
X43743799Y-42421004D01*
X43801811Y-42350315D01*
X43814974Y-42334276D01*
X43885546Y-42202247D01*
X43929003Y-42058986D01*
X43940000Y-41947333D01*
X43940000Y-41947324D01*
X43943676Y-41910001D01*
X43940000Y-41872678D01*
X43940000Y-41858043D01*
X44094759Y-41754637D01*
X44294637Y-41554759D01*
X44451680Y-41319727D01*
X44559853Y-41058574D01*
X44615000Y-40781335D01*
X44615000Y-40498665D01*
X44559853Y-40221426D01*
X44451680Y-39960273D01*
X44294637Y-39725241D01*
X44094759Y-39525363D01*
X43859727Y-39368320D01*
X43598574Y-39260147D01*
X43321335Y-39205000D01*
X43038665Y-39205000D01*
X42761426Y-39260147D01*
X42500273Y-39368320D01*
X42265241Y-39525363D01*
X42065363Y-39725241D01*
X41908320Y-39960273D01*
X41800147Y-40221426D01*
X41745000Y-40498665D01*
X41745000Y-40781335D01*
X41800147Y-41058574D01*
X41908320Y-41319727D01*
X42065363Y-41554759D01*
X42262901Y-41752297D01*
X40129003Y-43886196D01*
X40099999Y-43909999D01*
X40044871Y-43977174D01*
X40005026Y-44025724D01*
X39968126Y-44094759D01*
X39934454Y-44157754D01*
X39890997Y-44301015D01*
X39880000Y-44412668D01*
X39880000Y-44412678D01*
X39876324Y-44450000D01*
X39880000Y-44487322D01*
X39880001Y-60922667D01*
X39876324Y-60960000D01*
X39880001Y-60997333D01*
X39890998Y-61108986D01*
X39904180Y-61152442D01*
X39934454Y-61252246D01*
X40005026Y-61384276D01*
X40072362Y-61466324D01*
X40100000Y-61500001D01*
X40128998Y-61523799D01*
X46230000Y-67624802D01*
X46230001Y-78425196D01*
X45744127Y-78911070D01*
X45719915Y-78867000D01*
X44577000Y-78867000D01*
X44577000Y-78887000D01*
X44323000Y-78887000D01*
X44323000Y-78867000D01*
X43180085Y-78867000D01*
X43058096Y-79089039D01*
X43098754Y-79223087D01*
X43218963Y-79477420D01*
X43386481Y-79703414D01*
X43594869Y-79892385D01*
X43780865Y-80003933D01*
X43770273Y-80008320D01*
X43535241Y-80165363D01*
X43335363Y-80365241D01*
X43178320Y-80600273D01*
X43070147Y-80861426D01*
X43015000Y-81138665D01*
X43015000Y-81421335D01*
X43070147Y-81698574D01*
X43178320Y-81959727D01*
X43335363Y-82194759D01*
X43535241Y-82394637D01*
X43770273Y-82551680D01*
X43780865Y-82556067D01*
X43594869Y-82667615D01*
X43386481Y-82856586D01*
X43218963Y-83082580D01*
X43098754Y-83336913D01*
X43058096Y-83470961D01*
X43180085Y-83693000D01*
X44323000Y-83693000D01*
X44323000Y-83673000D01*
X44577000Y-83673000D01*
X44577000Y-83693000D01*
X45719915Y-83693000D01*
X45841904Y-83470961D01*
X45801246Y-83336913D01*
X45681037Y-83082580D01*
X45513519Y-82856586D01*
X45305131Y-82667615D01*
X45119135Y-82556067D01*
X45129727Y-82551680D01*
X45364759Y-82394637D01*
X45564637Y-82194759D01*
X45721680Y-81959727D01*
X45829853Y-81698574D01*
X45885000Y-81421335D01*
X45885000Y-81138665D01*
X45848688Y-80956114D01*
X47125000Y-79679802D01*
X47125000Y-85889868D01*
X46226860Y-86788009D01*
X46183552Y-86823551D01*
X46041717Y-86996377D01*
X45985384Y-87101770D01*
X45936324Y-87193554D01*
X45871423Y-87407502D01*
X45849509Y-87630000D01*
X45855001Y-87685761D01*
X45855000Y-89285716D01*
X45718320Y-89490273D01*
X45610147Y-89751426D01*
X45555000Y-90028665D01*
X45555000Y-90311335D01*
X45610147Y-90588574D01*
X45718320Y-90849727D01*
X45875363Y-91084759D01*
X46075241Y-91284637D01*
X46310273Y-91441680D01*
X46571426Y-91549853D01*
X46848665Y-91605000D01*
X47131335Y-91605000D01*
X47408574Y-91549853D01*
X47669727Y-91441680D01*
X47904759Y-91284637D01*
X48104637Y-91084759D01*
X48260000Y-90852241D01*
X48415363Y-91084759D01*
X48615241Y-91284637D01*
X48850273Y-91441680D01*
X49111426Y-91549853D01*
X49388665Y-91605000D01*
X49671335Y-91605000D01*
X49948574Y-91549853D01*
X50209727Y-91441680D01*
X50444759Y-91284637D01*
X50644637Y-91084759D01*
X50800000Y-90852241D01*
X50955363Y-91084759D01*
X51152901Y-91282297D01*
X50485199Y-91950000D01*
X44764803Y-91950000D01*
X42670000Y-89855199D01*
X42670000Y-84169039D01*
X43058096Y-84169039D01*
X43098754Y-84303087D01*
X43218963Y-84557420D01*
X43386481Y-84783414D01*
X43594869Y-84972385D01*
X43836119Y-85117070D01*
X44100960Y-85211909D01*
X44323000Y-85090624D01*
X44323000Y-83947000D01*
X44577000Y-83947000D01*
X44577000Y-85090624D01*
X44799040Y-85211909D01*
X45063881Y-85117070D01*
X45305131Y-84972385D01*
X45513519Y-84783414D01*
X45681037Y-84557420D01*
X45801246Y-84303087D01*
X45841904Y-84169039D01*
X45719915Y-83947000D01*
X44577000Y-83947000D01*
X44323000Y-83947000D01*
X43180085Y-83947000D01*
X43058096Y-84169039D01*
X42670000Y-84169039D01*
X42670000Y-71434801D01*
X43015000Y-71089801D01*
X43015000Y-71261335D01*
X43070147Y-71538574D01*
X43178320Y-71799727D01*
X43335363Y-72034759D01*
X43535241Y-72234637D01*
X43767759Y-72390000D01*
X43535241Y-72545363D01*
X43335363Y-72745241D01*
X43178320Y-72980273D01*
X43070147Y-73241426D01*
X43015000Y-73518665D01*
X43015000Y-73801335D01*
X43070147Y-74078574D01*
X43178320Y-74339727D01*
X43335363Y-74574759D01*
X43535241Y-74774637D01*
X43767759Y-74930000D01*
X43535241Y-75085363D01*
X43335363Y-75285241D01*
X43178320Y-75520273D01*
X43070147Y-75781426D01*
X43015000Y-76058665D01*
X43015000Y-76341335D01*
X43070147Y-76618574D01*
X43178320Y-76879727D01*
X43335363Y-77114759D01*
X43535241Y-77314637D01*
X43770273Y-77471680D01*
X43780865Y-77476067D01*
X43594869Y-77587615D01*
X43386481Y-77776586D01*
X43218963Y-78002580D01*
X43098754Y-78256913D01*
X43058096Y-78390961D01*
X43180085Y-78613000D01*
X44323000Y-78613000D01*
X44323000Y-78593000D01*
X44577000Y-78593000D01*
X44577000Y-78613000D01*
X45719915Y-78613000D01*
X45841904Y-78390961D01*
X45801246Y-78256913D01*
X45681037Y-78002580D01*
X45513519Y-77776586D01*
X45305131Y-77587615D01*
X45119135Y-77476067D01*
X45129727Y-77471680D01*
X45364759Y-77314637D01*
X45564637Y-77114759D01*
X45721680Y-76879727D01*
X45829853Y-76618574D01*
X45885000Y-76341335D01*
X45885000Y-76058665D01*
X45829853Y-75781426D01*
X45721680Y-75520273D01*
X45564637Y-75285241D01*
X45364759Y-75085363D01*
X45132241Y-74930000D01*
X45364759Y-74774637D01*
X45564637Y-74574759D01*
X45721680Y-74339727D01*
X45829853Y-74078574D01*
X45885000Y-73801335D01*
X45885000Y-73518665D01*
X45829853Y-73241426D01*
X45721680Y-72980273D01*
X45564637Y-72745241D01*
X45364759Y-72545363D01*
X45132241Y-72390000D01*
X45364759Y-72234637D01*
X45564637Y-72034759D01*
X45721680Y-71799727D01*
X45829853Y-71538574D01*
X45885000Y-71261335D01*
X45885000Y-70978665D01*
X45829853Y-70701426D01*
X45721680Y-70440273D01*
X45564637Y-70205241D01*
X45366039Y-70006643D01*
X45374482Y-70005812D01*
X45494180Y-69969502D01*
X45604494Y-69910537D01*
X45701185Y-69831185D01*
X45780537Y-69734494D01*
X45839502Y-69624180D01*
X45875812Y-69504482D01*
X45888072Y-69380000D01*
X45888072Y-67780000D01*
X45875812Y-67655518D01*
X45839502Y-67535820D01*
X45780537Y-67425506D01*
X45701185Y-67328815D01*
X45604494Y-67249463D01*
X45494180Y-67190498D01*
X45374482Y-67154188D01*
X45250000Y-67141928D01*
X43650000Y-67141928D01*
X43525518Y-67154188D01*
X43405820Y-67190498D01*
X43295506Y-67249463D01*
X43198815Y-67328815D01*
X43119463Y-67425506D01*
X43060498Y-67535820D01*
X43024188Y-67655518D01*
X43011928Y-67780000D01*
X43011928Y-68943270D01*
X41398998Y-70556201D01*
X41370000Y-70579999D01*
X41346202Y-70608997D01*
X41346201Y-70608998D01*
X41275026Y-70695724D01*
X41204454Y-70827754D01*
X41174180Y-70927558D01*
X41160998Y-70971014D01*
X41157908Y-71002385D01*
X41146324Y-71120000D01*
X41150001Y-71157333D01*
X41150000Y-90132678D01*
X41146324Y-90170000D01*
X41150000Y-90207322D01*
X41150000Y-90207332D01*
X41160997Y-90318985D01*
X41183297Y-90392498D01*
X41204454Y-90462246D01*
X41275026Y-90594276D01*
X41285014Y-90606446D01*
X41369999Y-90710001D01*
X41399003Y-90733804D01*
X41990199Y-91325000D01*
X41773589Y-91325000D01*
X41506011Y-91378225D01*
X41253957Y-91482629D01*
X41027114Y-91634201D01*
X40834201Y-91827114D01*
X40682629Y-92053957D01*
X40578225Y-92306011D01*
X40525000Y-92573589D01*
X40525000Y-92846411D01*
X40578225Y-93113989D01*
X40682629Y-93366043D01*
X40834201Y-93592886D01*
X41027114Y-93785799D01*
X41253957Y-93937371D01*
X41506011Y-94041775D01*
X41773589Y-94095000D01*
X42046411Y-94095000D01*
X42313989Y-94041775D01*
X42566043Y-93937371D01*
X42792886Y-93785799D01*
X42985799Y-93592886D01*
X43137371Y-93366043D01*
X43241775Y-93113989D01*
X43295000Y-92846411D01*
X43295000Y-92629803D01*
X43886205Y-93221008D01*
X43909999Y-93250001D01*
X43938992Y-93273795D01*
X43938996Y-93273799D01*
X44009685Y-93331811D01*
X44025724Y-93344974D01*
X44157753Y-93415546D01*
X44301014Y-93459003D01*
X44412667Y-93470000D01*
X44412676Y-93470000D01*
X44449999Y-93473676D01*
X44487322Y-93470000D01*
X50235198Y-93470000D01*
X47353271Y-96351928D01*
X46190000Y-96351928D01*
X46065518Y-96364188D01*
X45945820Y-96400498D01*
X45835506Y-96459463D01*
X45738815Y-96538815D01*
X45659463Y-96635506D01*
X45600498Y-96745820D01*
X45564188Y-96865518D01*
X45551928Y-96990000D01*
X45551928Y-98590000D01*
X45564188Y-98714482D01*
X45600498Y-98834180D01*
X45659463Y-98944494D01*
X45738815Y-99041185D01*
X45835506Y-99120537D01*
X45945820Y-99179502D01*
X46065518Y-99215812D01*
X46190000Y-99228072D01*
X47790000Y-99228072D01*
X47914482Y-99215812D01*
X48034180Y-99179502D01*
X48144494Y-99120537D01*
X48241185Y-99041185D01*
X48320537Y-98944494D01*
X48379502Y-98834180D01*
X48415812Y-98714482D01*
X48416643Y-98706039D01*
X48615241Y-98904637D01*
X48850273Y-99061680D01*
X49111426Y-99169853D01*
X49388665Y-99225000D01*
X49671335Y-99225000D01*
X49853886Y-99188688D01*
X51506205Y-100841008D01*
X51529999Y-100870001D01*
X51558992Y-100893795D01*
X51558996Y-100893799D01*
X51584830Y-100915000D01*
X38785000Y-100915000D01*
X38785000Y-38785000D01*
X51095727Y-38785000D01*
X51016324Y-38933553D01*
G37*
%TD.AperFunction*%
D20*
X126315001Y-100915000D02*
X69065170Y-100915000D01*
X69120001Y-100870001D01*
X69143804Y-100840997D01*
X71631008Y-98353795D01*
X71660001Y-98330001D01*
X71683795Y-98301008D01*
X71683799Y-98301004D01*
X71754973Y-98214277D01*
X71754974Y-98214276D01*
X71825546Y-98082247D01*
X71844719Y-98019040D01*
X72268091Y-98019040D01*
X72362930Y-98283881D01*
X72507615Y-98525131D01*
X72696586Y-98733519D01*
X72922580Y-98901037D01*
X73176913Y-99021246D01*
X73310961Y-99061904D01*
X73533000Y-98939915D01*
X73533000Y-97797000D01*
X73787000Y-97797000D01*
X73787000Y-98939915D01*
X74009039Y-99061904D01*
X74143087Y-99021246D01*
X74397420Y-98901037D01*
X74623414Y-98733519D01*
X74812385Y-98525131D01*
X74957070Y-98283881D01*
X75051909Y-98019040D01*
X74930624Y-97797000D01*
X73787000Y-97797000D01*
X73533000Y-97797000D01*
X72389376Y-97797000D01*
X72268091Y-98019040D01*
X71844719Y-98019040D01*
X71869003Y-97938986D01*
X71880000Y-97827333D01*
X71880000Y-97827324D01*
X71883676Y-97790001D01*
X71880000Y-97752678D01*
X71880000Y-97320960D01*
X72268091Y-97320960D01*
X72389376Y-97543000D01*
X73533000Y-97543000D01*
X73533000Y-96400085D01*
X73787000Y-96400085D01*
X73787000Y-97543000D01*
X74930624Y-97543000D01*
X75051909Y-97320960D01*
X74957070Y-97056119D01*
X74812385Y-96814869D01*
X74623414Y-96606481D01*
X74397420Y-96438963D01*
X74143087Y-96318754D01*
X74009039Y-96278096D01*
X73787000Y-96400085D01*
X73533000Y-96400085D01*
X73310961Y-96278096D01*
X73176913Y-96318754D01*
X72922580Y-96438963D01*
X72696586Y-96606481D01*
X72507615Y-96814869D01*
X72362930Y-97056119D01*
X72268091Y-97320960D01*
X71880000Y-97320960D01*
X71880000Y-90028665D01*
X72225000Y-90028665D01*
X72225000Y-90311335D01*
X72280147Y-90588574D01*
X72388320Y-90849727D01*
X72545363Y-91084759D01*
X72745241Y-91284637D01*
X72980273Y-91441680D01*
X73241426Y-91549853D01*
X73518665Y-91605000D01*
X73801335Y-91605000D01*
X74078574Y-91549853D01*
X74339727Y-91441680D01*
X74574759Y-91284637D01*
X74774637Y-91084759D01*
X74931680Y-90849727D01*
X75039853Y-90588574D01*
X75095000Y-90311335D01*
X75095000Y-90028665D01*
X75039853Y-89751426D01*
X74931680Y-89490273D01*
X74774637Y-89255241D01*
X74574759Y-89055363D01*
X74339727Y-88898320D01*
X74078574Y-88790147D01*
X73801335Y-88735000D01*
X73518665Y-88735000D01*
X73241426Y-88790147D01*
X72980273Y-88898320D01*
X72745241Y-89055363D01*
X72545363Y-89255241D01*
X72388320Y-89490273D01*
X72280147Y-89751426D01*
X72225000Y-90028665D01*
X71880000Y-90028665D01*
X71880000Y-72704801D01*
X73495000Y-71089801D01*
X73495000Y-71261335D01*
X73550147Y-71538574D01*
X73658320Y-71799727D01*
X73815363Y-72034759D01*
X74015241Y-72234637D01*
X74247759Y-72390000D01*
X74015241Y-72545363D01*
X73815363Y-72745241D01*
X73658320Y-72980273D01*
X73550147Y-73241426D01*
X73495000Y-73518665D01*
X73495000Y-73801335D01*
X73550147Y-74078574D01*
X73658320Y-74339727D01*
X73815363Y-74574759D01*
X74015241Y-74774637D01*
X74247759Y-74930000D01*
X74015241Y-75085363D01*
X73815363Y-75285241D01*
X73658320Y-75520273D01*
X73550147Y-75781426D01*
X73495000Y-76058665D01*
X73495000Y-76341335D01*
X73550147Y-76618574D01*
X73658320Y-76879727D01*
X73815363Y-77114759D01*
X74015241Y-77314637D01*
X74247759Y-77470000D01*
X74015241Y-77625363D01*
X73815363Y-77825241D01*
X73658320Y-78060273D01*
X73550147Y-78321426D01*
X73495000Y-78598665D01*
X73495000Y-78881335D01*
X73550147Y-79158574D01*
X73658320Y-79419727D01*
X73815363Y-79654759D01*
X74015241Y-79854637D01*
X74247759Y-80010000D01*
X74015241Y-80165363D01*
X73815363Y-80365241D01*
X73658320Y-80600273D01*
X73550147Y-80861426D01*
X73495000Y-81138665D01*
X73495000Y-81421335D01*
X73550147Y-81698574D01*
X73658320Y-81959727D01*
X73815363Y-82194759D01*
X74015241Y-82394637D01*
X74247759Y-82550000D01*
X74015241Y-82705363D01*
X73815363Y-82905241D01*
X73658320Y-83140273D01*
X73550147Y-83401426D01*
X73495000Y-83678665D01*
X73495000Y-83961335D01*
X73550147Y-84238574D01*
X73658320Y-84499727D01*
X73815363Y-84734759D01*
X74015241Y-84934637D01*
X74250273Y-85091680D01*
X74511426Y-85199853D01*
X74788665Y-85255000D01*
X75071335Y-85255000D01*
X75348574Y-85199853D01*
X75609727Y-85091680D01*
X75844759Y-84934637D01*
X76044637Y-84734759D01*
X76201680Y-84499727D01*
X76309853Y-84238574D01*
X76323684Y-84169039D01*
X81158096Y-84169039D01*
X81198754Y-84303087D01*
X81318963Y-84557420D01*
X81486481Y-84783414D01*
X81694869Y-84972385D01*
X81936119Y-85117070D01*
X82200960Y-85211909D01*
X82423000Y-85090624D01*
X82423000Y-83947000D01*
X82677000Y-83947000D01*
X82677000Y-85090624D01*
X82899040Y-85211909D01*
X83163881Y-85117070D01*
X83405131Y-84972385D01*
X83613519Y-84783414D01*
X83781037Y-84557420D01*
X83901246Y-84303087D01*
X83941904Y-84169039D01*
X83819915Y-83947000D01*
X82677000Y-83947000D01*
X82423000Y-83947000D01*
X81280085Y-83947000D01*
X81158096Y-84169039D01*
X76323684Y-84169039D01*
X76365000Y-83961335D01*
X76365000Y-83678665D01*
X76328688Y-83496114D01*
X76514802Y-83310000D01*
X81211474Y-83310000D01*
X81198754Y-83336913D01*
X81158096Y-83470961D01*
X81280085Y-83693000D01*
X82423000Y-83693000D01*
X82423000Y-83673000D01*
X82677000Y-83673000D01*
X82677000Y-83693000D01*
X83819915Y-83693000D01*
X83941904Y-83470961D01*
X83901246Y-83336913D01*
X83888526Y-83310000D01*
X96205199Y-83310000D01*
X96391312Y-83496114D01*
X96355000Y-83678665D01*
X96355000Y-83961335D01*
X96410147Y-84238574D01*
X96518320Y-84499727D01*
X96675363Y-84734759D01*
X96875241Y-84934637D01*
X97110273Y-85091680D01*
X97371426Y-85199853D01*
X97648665Y-85255000D01*
X97931335Y-85255000D01*
X98208574Y-85199853D01*
X98469727Y-85091680D01*
X98704759Y-84934637D01*
X98904637Y-84734759D01*
X99061680Y-84499727D01*
X99169853Y-84238574D01*
X99225000Y-83961335D01*
X99225000Y-83678665D01*
X99169853Y-83401426D01*
X99061680Y-83140273D01*
X98904637Y-82905241D01*
X98704759Y-82705363D01*
X98472241Y-82550000D01*
X98704759Y-82394637D01*
X98904637Y-82194759D01*
X99061680Y-81959727D01*
X99169853Y-81698574D01*
X99225000Y-81421335D01*
X99225000Y-81138665D01*
X99169853Y-80861426D01*
X99061680Y-80600273D01*
X98904637Y-80365241D01*
X98704759Y-80165363D01*
X98472241Y-80010000D01*
X98704759Y-79854637D01*
X98904637Y-79654759D01*
X99061680Y-79419727D01*
X99169853Y-79158574D01*
X99225000Y-78881335D01*
X99225000Y-78598665D01*
X99169853Y-78321426D01*
X99061680Y-78060273D01*
X98904637Y-77825241D01*
X98704759Y-77625363D01*
X98472241Y-77470000D01*
X98704759Y-77314637D01*
X98904637Y-77114759D01*
X99061680Y-76879727D01*
X99169853Y-76618574D01*
X99225000Y-76341335D01*
X99225000Y-76058665D01*
X99169853Y-75781426D01*
X99061680Y-75520273D01*
X98904637Y-75285241D01*
X98704759Y-75085363D01*
X98472241Y-74930000D01*
X98704759Y-74774637D01*
X98904637Y-74574759D01*
X99061680Y-74339727D01*
X99169853Y-74078574D01*
X99225000Y-73801335D01*
X99225000Y-73518665D01*
X99169853Y-73241426D01*
X99061680Y-72980273D01*
X98904637Y-72745241D01*
X98704759Y-72545363D01*
X98472241Y-72390000D01*
X98683764Y-72248665D01*
X103975000Y-72248665D01*
X103975000Y-72531335D01*
X104030147Y-72808574D01*
X104138320Y-73069727D01*
X104295363Y-73304759D01*
X104495241Y-73504637D01*
X104727759Y-73660000D01*
X104495241Y-73815363D01*
X104295363Y-74015241D01*
X104138320Y-74250273D01*
X104030147Y-74511426D01*
X103975000Y-74788665D01*
X103975000Y-75071335D01*
X104030147Y-75348574D01*
X104138320Y-75609727D01*
X104295363Y-75844759D01*
X104495241Y-76044637D01*
X104727759Y-76200000D01*
X104495241Y-76355363D01*
X104295363Y-76555241D01*
X104138320Y-76790273D01*
X104030147Y-77051426D01*
X103975000Y-77328665D01*
X103975000Y-77611335D01*
X104030147Y-77888574D01*
X104138320Y-78149727D01*
X104295363Y-78384759D01*
X104495241Y-78584637D01*
X104727759Y-78740000D01*
X104495241Y-78895363D01*
X104295363Y-79095241D01*
X104138320Y-79330273D01*
X104030147Y-79591426D01*
X103975000Y-79868665D01*
X103975000Y-80151335D01*
X104030147Y-80428574D01*
X104138320Y-80689727D01*
X104295363Y-80924759D01*
X104495241Y-81124637D01*
X104727759Y-81280000D01*
X104495241Y-81435363D01*
X104295363Y-81635241D01*
X104138320Y-81870273D01*
X104030147Y-82131426D01*
X103975000Y-82408665D01*
X103975000Y-82691335D01*
X104030147Y-82968574D01*
X104138320Y-83229727D01*
X104295363Y-83464759D01*
X104495241Y-83664637D01*
X104727759Y-83820000D01*
X104495241Y-83975363D01*
X104295363Y-84175241D01*
X104138320Y-84410273D01*
X104030147Y-84671426D01*
X103975000Y-84948665D01*
X103975000Y-85231335D01*
X104030147Y-85508574D01*
X104138320Y-85769727D01*
X104295363Y-86004759D01*
X104495241Y-86204637D01*
X104727759Y-86360000D01*
X104495241Y-86515363D01*
X104295363Y-86715241D01*
X104138320Y-86950273D01*
X104030147Y-87211426D01*
X103975000Y-87488665D01*
X103975000Y-87771335D01*
X104030147Y-88048574D01*
X104138320Y-88309727D01*
X104295363Y-88544759D01*
X104495241Y-88744637D01*
X104727759Y-88900000D01*
X104495241Y-89055363D01*
X104295363Y-89255241D01*
X104138320Y-89490273D01*
X104030147Y-89751426D01*
X103975000Y-90028665D01*
X103975000Y-90311335D01*
X104030147Y-90588574D01*
X104138320Y-90849727D01*
X104295363Y-91084759D01*
X104495241Y-91284637D01*
X104727759Y-91440000D01*
X104495241Y-91595363D01*
X104295363Y-91795241D01*
X104138320Y-92030273D01*
X104030147Y-92291426D01*
X103975000Y-92568665D01*
X103975000Y-92851335D01*
X104030147Y-93128574D01*
X104138320Y-93389727D01*
X104295363Y-93624759D01*
X104495241Y-93824637D01*
X104727759Y-93980000D01*
X104495241Y-94135363D01*
X104295363Y-94335241D01*
X104138320Y-94570273D01*
X104030147Y-94831426D01*
X103975000Y-95108665D01*
X103975000Y-95391335D01*
X104030147Y-95668574D01*
X104138320Y-95929727D01*
X104295363Y-96164759D01*
X104495241Y-96364637D01*
X104727759Y-96520000D01*
X104495241Y-96675363D01*
X104295363Y-96875241D01*
X104138320Y-97110273D01*
X104030147Y-97371426D01*
X103975000Y-97648665D01*
X103975000Y-97931335D01*
X104030147Y-98208574D01*
X104138320Y-98469727D01*
X104295363Y-98704759D01*
X104495241Y-98904637D01*
X104730273Y-99061680D01*
X104991426Y-99169853D01*
X105268665Y-99225000D01*
X105551335Y-99225000D01*
X105828574Y-99169853D01*
X106089727Y-99061680D01*
X106324759Y-98904637D01*
X106524637Y-98704759D01*
X106681680Y-98469727D01*
X106789853Y-98208574D01*
X106845000Y-97931335D01*
X106845000Y-97648665D01*
X106789853Y-97371426D01*
X106681680Y-97110273D01*
X106524637Y-96875241D01*
X106324759Y-96675363D01*
X106092241Y-96520000D01*
X106324759Y-96364637D01*
X106524637Y-96164759D01*
X106681680Y-95929727D01*
X106789853Y-95668574D01*
X106845000Y-95391335D01*
X106845000Y-95108665D01*
X106789853Y-94831426D01*
X106681680Y-94570273D01*
X106524637Y-94335241D01*
X106324759Y-94135363D01*
X106092241Y-93980000D01*
X106324759Y-93824637D01*
X106524637Y-93624759D01*
X106681680Y-93389727D01*
X106789853Y-93128574D01*
X106845000Y-92851335D01*
X106845000Y-92568665D01*
X106789853Y-92291426D01*
X106681680Y-92030273D01*
X106524637Y-91795241D01*
X106324759Y-91595363D01*
X106092241Y-91440000D01*
X106324759Y-91284637D01*
X106524637Y-91084759D01*
X106681680Y-90849727D01*
X106789853Y-90588574D01*
X106845000Y-90311335D01*
X106845000Y-90028665D01*
X106789853Y-89751426D01*
X106681680Y-89490273D01*
X106524637Y-89255241D01*
X106324759Y-89055363D01*
X106092241Y-88900000D01*
X106324759Y-88744637D01*
X106524637Y-88544759D01*
X106681680Y-88309727D01*
X106789853Y-88048574D01*
X106845000Y-87771335D01*
X106845000Y-87488665D01*
X106789853Y-87211426D01*
X106681680Y-86950273D01*
X106524637Y-86715241D01*
X106324759Y-86515363D01*
X106092241Y-86360000D01*
X106324759Y-86204637D01*
X106524637Y-86004759D01*
X106681680Y-85769727D01*
X106789853Y-85508574D01*
X106845000Y-85231335D01*
X106845000Y-84948665D01*
X106789853Y-84671426D01*
X106681680Y-84410273D01*
X106524637Y-84175241D01*
X106324759Y-83975363D01*
X106092241Y-83820000D01*
X106324759Y-83664637D01*
X106524637Y-83464759D01*
X106681680Y-83229727D01*
X106789853Y-82968574D01*
X106845000Y-82691335D01*
X106845000Y-82408665D01*
X106789853Y-82131426D01*
X106681680Y-81870273D01*
X106524637Y-81635241D01*
X106324759Y-81435363D01*
X106092241Y-81280000D01*
X106324759Y-81124637D01*
X106524637Y-80924759D01*
X106681680Y-80689727D01*
X106789853Y-80428574D01*
X106845000Y-80151335D01*
X106845000Y-79868665D01*
X106789853Y-79591426D01*
X106681680Y-79330273D01*
X106524637Y-79095241D01*
X106324759Y-78895363D01*
X106092241Y-78740000D01*
X106324759Y-78584637D01*
X106524637Y-78384759D01*
X106681680Y-78149727D01*
X106789853Y-77888574D01*
X106845000Y-77611335D01*
X106845000Y-77328665D01*
X106789853Y-77051426D01*
X106681680Y-76790273D01*
X106524637Y-76555241D01*
X106324759Y-76355363D01*
X106092241Y-76200000D01*
X106324759Y-76044637D01*
X106524637Y-75844759D01*
X106681680Y-75609727D01*
X106789853Y-75348574D01*
X106845000Y-75071335D01*
X106845000Y-74788665D01*
X106789853Y-74511426D01*
X106681680Y-74250273D01*
X106524637Y-74015241D01*
X106324759Y-73815363D01*
X106092241Y-73660000D01*
X106324759Y-73504637D01*
X106524637Y-73304759D01*
X106681680Y-73069727D01*
X106789853Y-72808574D01*
X106845000Y-72531335D01*
X106845000Y-72248665D01*
X106789853Y-71971426D01*
X106681680Y-71710273D01*
X106524637Y-71475241D01*
X106324759Y-71275363D01*
X106089727Y-71118320D01*
X106079135Y-71113933D01*
X106265131Y-71002385D01*
X106473519Y-70813414D01*
X106641037Y-70587420D01*
X106761246Y-70333087D01*
X106801904Y-70199039D01*
X106679915Y-69977000D01*
X105537000Y-69977000D01*
X105537000Y-69997000D01*
X105283000Y-69997000D01*
X105283000Y-69977000D01*
X104140085Y-69977000D01*
X104018096Y-70199039D01*
X104058754Y-70333087D01*
X104178963Y-70587420D01*
X104346481Y-70813414D01*
X104554869Y-71002385D01*
X104740865Y-71113933D01*
X104730273Y-71118320D01*
X104495241Y-71275363D01*
X104295363Y-71475241D01*
X104138320Y-71710273D01*
X104030147Y-71971426D01*
X103975000Y-72248665D01*
X98683764Y-72248665D01*
X98704759Y-72234637D01*
X98904637Y-72034759D01*
X99061680Y-71799727D01*
X99169853Y-71538574D01*
X99225000Y-71261335D01*
X99225000Y-70978665D01*
X99169853Y-70701426D01*
X99061680Y-70440273D01*
X98904637Y-70205241D01*
X98704759Y-70005363D01*
X98472241Y-69850000D01*
X98704759Y-69694637D01*
X98904637Y-69494759D01*
X99061680Y-69259727D01*
X99169853Y-68998574D01*
X99225000Y-68721335D01*
X99225000Y-68438665D01*
X99169853Y-68161426D01*
X99061680Y-67900273D01*
X98904637Y-67665241D01*
X98704759Y-67465363D01*
X98472241Y-67310000D01*
X98704759Y-67154637D01*
X98904637Y-66954759D01*
X99061680Y-66719727D01*
X99169853Y-66458574D01*
X99225000Y-66181335D01*
X99225000Y-65898665D01*
X99169853Y-65621426D01*
X99061680Y-65360273D01*
X98904637Y-65125241D01*
X98704759Y-64925363D01*
X98472241Y-64770000D01*
X98704759Y-64614637D01*
X98904637Y-64414759D01*
X99061680Y-64179727D01*
X99169853Y-63918574D01*
X99225000Y-63641335D01*
X99225000Y-63358665D01*
X99169853Y-63081426D01*
X99061680Y-62820273D01*
X98904637Y-62585241D01*
X98704759Y-62385363D01*
X98472241Y-62230000D01*
X98704759Y-62074637D01*
X98904637Y-61874759D01*
X99061680Y-61639727D01*
X99148551Y-61430000D01*
X103971928Y-61430000D01*
X103971928Y-63030000D01*
X103984188Y-63154482D01*
X104020498Y-63274180D01*
X104079463Y-63384494D01*
X104158815Y-63481185D01*
X104255506Y-63560537D01*
X104365820Y-63619502D01*
X104485518Y-63655812D01*
X104493961Y-63656643D01*
X104295363Y-63855241D01*
X104138320Y-64090273D01*
X104030147Y-64351426D01*
X103975000Y-64628665D01*
X103975000Y-64911335D01*
X104030147Y-65188574D01*
X104138320Y-65449727D01*
X104295363Y-65684759D01*
X104495241Y-65884637D01*
X104727759Y-66040000D01*
X104495241Y-66195363D01*
X104295363Y-66395241D01*
X104138320Y-66630273D01*
X104030147Y-66891426D01*
X103975000Y-67168665D01*
X103975000Y-67451335D01*
X104030147Y-67728574D01*
X104138320Y-67989727D01*
X104295363Y-68224759D01*
X104495241Y-68424637D01*
X104730273Y-68581680D01*
X104740865Y-68586067D01*
X104554869Y-68697615D01*
X104346481Y-68886586D01*
X104178963Y-69112580D01*
X104058754Y-69366913D01*
X104018096Y-69500961D01*
X104140085Y-69723000D01*
X105283000Y-69723000D01*
X105283000Y-69703000D01*
X105537000Y-69703000D01*
X105537000Y-69723000D01*
X106679915Y-69723000D01*
X106801904Y-69500961D01*
X106761246Y-69366913D01*
X106641037Y-69112580D01*
X106473519Y-68886586D01*
X106265131Y-68697615D01*
X106079135Y-68586067D01*
X106089727Y-68581680D01*
X106324759Y-68424637D01*
X106524637Y-68224759D01*
X106681680Y-67989727D01*
X106789853Y-67728574D01*
X106845000Y-67451335D01*
X106845000Y-67168665D01*
X106789853Y-66891426D01*
X106681680Y-66630273D01*
X106524637Y-66395241D01*
X106324759Y-66195363D01*
X106092241Y-66040000D01*
X106324759Y-65884637D01*
X106524637Y-65684759D01*
X106681680Y-65449727D01*
X106789853Y-65188574D01*
X106845000Y-64911335D01*
X106845000Y-64628665D01*
X106789853Y-64351426D01*
X106681680Y-64090273D01*
X106524637Y-63855241D01*
X106326039Y-63656643D01*
X106334482Y-63655812D01*
X106454180Y-63619502D01*
X106564494Y-63560537D01*
X106661185Y-63481185D01*
X106740537Y-63384494D01*
X106799502Y-63274180D01*
X106835812Y-63154482D01*
X106848072Y-63030000D01*
X106848072Y-62088665D01*
X119215000Y-62088665D01*
X119215000Y-62371335D01*
X119270147Y-62648574D01*
X119378320Y-62909727D01*
X119535363Y-63144759D01*
X119735241Y-63344637D01*
X119970273Y-63501680D01*
X119980865Y-63506067D01*
X119794869Y-63617615D01*
X119586481Y-63806586D01*
X119418963Y-64032580D01*
X119298754Y-64286913D01*
X119258096Y-64420961D01*
X119380085Y-64643000D01*
X120523000Y-64643000D01*
X120523000Y-64623000D01*
X120777000Y-64623000D01*
X120777000Y-64643000D01*
X121919915Y-64643000D01*
X122041904Y-64420961D01*
X122001246Y-64286913D01*
X121881037Y-64032580D01*
X121713519Y-63806586D01*
X121505131Y-63617615D01*
X121319135Y-63506067D01*
X121329727Y-63501680D01*
X121564759Y-63344637D01*
X121764637Y-63144759D01*
X121921680Y-62909727D01*
X122029853Y-62648574D01*
X122085000Y-62371335D01*
X122085000Y-62088665D01*
X122029853Y-61811426D01*
X121921680Y-61550273D01*
X121764637Y-61315241D01*
X121564759Y-61115363D01*
X121329727Y-60958320D01*
X121068574Y-60850147D01*
X120791335Y-60795000D01*
X120508665Y-60795000D01*
X120231426Y-60850147D01*
X119970273Y-60958320D01*
X119735241Y-61115363D01*
X119535363Y-61315241D01*
X119378320Y-61550273D01*
X119270147Y-61811426D01*
X119215000Y-62088665D01*
X106848072Y-62088665D01*
X106848072Y-61430000D01*
X106835812Y-61305518D01*
X106799502Y-61185820D01*
X106740537Y-61075506D01*
X106661185Y-60978815D01*
X106564494Y-60899463D01*
X106454180Y-60840498D01*
X106334482Y-60804188D01*
X106210000Y-60791928D01*
X104610000Y-60791928D01*
X104485518Y-60804188D01*
X104365820Y-60840498D01*
X104255506Y-60899463D01*
X104158815Y-60978815D01*
X104079463Y-61075506D01*
X104020498Y-61185820D01*
X103984188Y-61305518D01*
X103971928Y-61430000D01*
X99148551Y-61430000D01*
X99169853Y-61378574D01*
X99225000Y-61101335D01*
X99225000Y-60818665D01*
X99169853Y-60541426D01*
X99061680Y-60280273D01*
X98904637Y-60045241D01*
X98704759Y-59845363D01*
X98472241Y-59690000D01*
X98704759Y-59534637D01*
X98904637Y-59334759D01*
X99061680Y-59099727D01*
X99169853Y-58838574D01*
X99225000Y-58561335D01*
X99225000Y-58278665D01*
X99169853Y-58001426D01*
X99061680Y-57740273D01*
X98904637Y-57505241D01*
X98704759Y-57305363D01*
X98472241Y-57150000D01*
X98704759Y-56994637D01*
X98904637Y-56794759D01*
X99061680Y-56559727D01*
X99169853Y-56298574D01*
X99225000Y-56021335D01*
X99225000Y-55738665D01*
X99169853Y-55461426D01*
X99061680Y-55200273D01*
X98925000Y-54995716D01*
X98925000Y-52595000D01*
X107831928Y-52595000D01*
X107844188Y-52719482D01*
X107880498Y-52839180D01*
X107939463Y-52949494D01*
X108018815Y-53046185D01*
X108115506Y-53125537D01*
X108225820Y-53184502D01*
X108345518Y-53220812D01*
X108470000Y-53233072D01*
X108934250Y-53230000D01*
X109093000Y-53071250D01*
X109093000Y-52197000D01*
X109347000Y-52197000D01*
X109347000Y-53071250D01*
X109505750Y-53230000D01*
X109970000Y-53233072D01*
X110094482Y-53220812D01*
X110214180Y-53184502D01*
X110324494Y-53125537D01*
X110421185Y-53046185D01*
X110500537Y-52949494D01*
X110559502Y-52839180D01*
X110595812Y-52719482D01*
X110608072Y-52595000D01*
X110605000Y-52355750D01*
X110446250Y-52197000D01*
X109347000Y-52197000D01*
X109093000Y-52197000D01*
X107993750Y-52197000D01*
X107835000Y-52355750D01*
X107831928Y-52595000D01*
X98925000Y-52595000D01*
X98925000Y-49585751D01*
X98930491Y-49530000D01*
X107829388Y-49530000D01*
X107851785Y-49757400D01*
X107918115Y-49976060D01*
X108019105Y-50165000D01*
X107918115Y-50353940D01*
X107851785Y-50572600D01*
X107829388Y-50800000D01*
X107851785Y-51027400D01*
X107915093Y-51236098D01*
X107880498Y-51300820D01*
X107844188Y-51420518D01*
X107831928Y-51545000D01*
X107835000Y-51784250D01*
X107993750Y-51943000D01*
X108766891Y-51943000D01*
X108767600Y-51943215D01*
X108938021Y-51960000D01*
X109501979Y-51960000D01*
X109672400Y-51943215D01*
X109673109Y-51943000D01*
X110446250Y-51943000D01*
X110605000Y-51784250D01*
X110608072Y-51545000D01*
X110595812Y-51420518D01*
X110559502Y-51300820D01*
X110524907Y-51236098D01*
X110588215Y-51027400D01*
X110610612Y-50800000D01*
X110588215Y-50572600D01*
X110521885Y-50353940D01*
X110420895Y-50165000D01*
X110521885Y-49976060D01*
X110588215Y-49757400D01*
X110610612Y-49530000D01*
X110588215Y-49302600D01*
X110521885Y-49083940D01*
X110414171Y-48882421D01*
X110269212Y-48705788D01*
X110160890Y-48616890D01*
X116668524Y-48616890D01*
X116713175Y-48764099D01*
X116838359Y-49026920D01*
X117012412Y-49260269D01*
X117228645Y-49455178D01*
X117478748Y-49604157D01*
X117753109Y-49701481D01*
X117983000Y-49580814D01*
X117983000Y-48387000D01*
X118237000Y-48387000D01*
X118237000Y-49580814D01*
X118466891Y-49701481D01*
X118741252Y-49604157D01*
X118991355Y-49455178D01*
X119207588Y-49260269D01*
X119381641Y-49026920D01*
X119506825Y-48764099D01*
X119551476Y-48616890D01*
X119430155Y-48387000D01*
X118237000Y-48387000D01*
X117983000Y-48387000D01*
X116789845Y-48387000D01*
X116668524Y-48616890D01*
X110160890Y-48616890D01*
X110092579Y-48560829D01*
X109891060Y-48453115D01*
X109672400Y-48386785D01*
X109501979Y-48370000D01*
X108938021Y-48370000D01*
X108767600Y-48386785D01*
X108548940Y-48453115D01*
X108347421Y-48560829D01*
X108170788Y-48705788D01*
X108025829Y-48882421D01*
X107918115Y-49083940D01*
X107851785Y-49302600D01*
X107829388Y-49530000D01*
X98930491Y-49530000D01*
X98925000Y-49474248D01*
X98925000Y-44315000D01*
X100715716Y-44315000D01*
X100920273Y-44451680D01*
X101181426Y-44559853D01*
X101458665Y-44615000D01*
X101741335Y-44615000D01*
X102018574Y-44559853D01*
X102279727Y-44451680D01*
X102514759Y-44294637D01*
X102714637Y-44094759D01*
X102871680Y-43859727D01*
X102979853Y-43598574D01*
X103035000Y-43321335D01*
X103035000Y-43038665D01*
X110325000Y-43038665D01*
X110325000Y-43321335D01*
X110380147Y-43598574D01*
X110488320Y-43859727D01*
X110645363Y-44094759D01*
X110845241Y-44294637D01*
X111080273Y-44451680D01*
X111341426Y-44559853D01*
X111618665Y-44615000D01*
X111901335Y-44615000D01*
X112178574Y-44559853D01*
X112439727Y-44451680D01*
X112674759Y-44294637D01*
X112874637Y-44094759D01*
X113031680Y-43859727D01*
X113139853Y-43598574D01*
X113195000Y-43321335D01*
X113195000Y-43038665D01*
X113139853Y-42761426D01*
X113031680Y-42500273D01*
X112917908Y-42330000D01*
X116621928Y-42330000D01*
X116621928Y-44030000D01*
X116634188Y-44154482D01*
X116670498Y-44274180D01*
X116729463Y-44384494D01*
X116808815Y-44481185D01*
X116905506Y-44560537D01*
X117015820Y-44619502D01*
X117088380Y-44641513D01*
X116956525Y-44773368D01*
X116794010Y-45016589D01*
X116682068Y-45286842D01*
X116625000Y-45573740D01*
X116625000Y-45866260D01*
X116682068Y-46153158D01*
X116794010Y-46423411D01*
X116956525Y-46666632D01*
X117163368Y-46873475D01*
X117345534Y-46995195D01*
X117228645Y-47064822D01*
X117012412Y-47259731D01*
X116838359Y-47493080D01*
X116713175Y-47755901D01*
X116668524Y-47903110D01*
X116789845Y-48133000D01*
X117983000Y-48133000D01*
X117983000Y-48113000D01*
X118237000Y-48113000D01*
X118237000Y-48133000D01*
X119430155Y-48133000D01*
X119551476Y-47903110D01*
X119506825Y-47755901D01*
X119381641Y-47493080D01*
X119207588Y-47259731D01*
X118991355Y-47064822D01*
X118874466Y-46995195D01*
X119056632Y-46873475D01*
X119263475Y-46666632D01*
X119388178Y-46480000D01*
X122875199Y-46480000D01*
X123700001Y-47304803D01*
X123700000Y-77155197D01*
X121762297Y-79092901D01*
X121564759Y-78895363D01*
X121332241Y-78740000D01*
X121564759Y-78584637D01*
X121764637Y-78384759D01*
X121921680Y-78149727D01*
X122029853Y-77888574D01*
X122085000Y-77611335D01*
X122085000Y-77328665D01*
X122029853Y-77051426D01*
X121921680Y-76790273D01*
X121764637Y-76555241D01*
X121564759Y-76355363D01*
X121332241Y-76200000D01*
X121564759Y-76044637D01*
X121764637Y-75844759D01*
X121921680Y-75609727D01*
X122029853Y-75348574D01*
X122085000Y-75071335D01*
X122085000Y-74788665D01*
X122029853Y-74511426D01*
X121921680Y-74250273D01*
X121764637Y-74015241D01*
X121564759Y-73815363D01*
X121332241Y-73660000D01*
X121564759Y-73504637D01*
X121764637Y-73304759D01*
X121921680Y-73069727D01*
X122029853Y-72808574D01*
X122085000Y-72531335D01*
X122085000Y-72248665D01*
X122029853Y-71971426D01*
X121921680Y-71710273D01*
X121764637Y-71475241D01*
X121564759Y-71275363D01*
X121332241Y-71120000D01*
X121564759Y-70964637D01*
X121764637Y-70764759D01*
X121921680Y-70529727D01*
X122029853Y-70268574D01*
X122085000Y-69991335D01*
X122085000Y-69708665D01*
X122029853Y-69431426D01*
X121921680Y-69170273D01*
X121764637Y-68935241D01*
X121564759Y-68735363D01*
X121332241Y-68580000D01*
X121564759Y-68424637D01*
X121764637Y-68224759D01*
X121921680Y-67989727D01*
X122029853Y-67728574D01*
X122085000Y-67451335D01*
X122085000Y-67168665D01*
X122029853Y-66891426D01*
X121921680Y-66630273D01*
X121764637Y-66395241D01*
X121564759Y-66195363D01*
X121329727Y-66038320D01*
X121319135Y-66033933D01*
X121505131Y-65922385D01*
X121713519Y-65733414D01*
X121881037Y-65507420D01*
X122001246Y-65253087D01*
X122041904Y-65119039D01*
X121919915Y-64897000D01*
X120777000Y-64897000D01*
X120777000Y-64917000D01*
X120523000Y-64917000D01*
X120523000Y-64897000D01*
X119380085Y-64897000D01*
X119258096Y-65119039D01*
X119298754Y-65253087D01*
X119418963Y-65507420D01*
X119586481Y-65733414D01*
X119794869Y-65922385D01*
X119980865Y-66033933D01*
X119970273Y-66038320D01*
X119735241Y-66195363D01*
X119535363Y-66395241D01*
X119378320Y-66630273D01*
X119270147Y-66891426D01*
X119215000Y-67168665D01*
X119215000Y-67451335D01*
X119270147Y-67728574D01*
X119378320Y-67989727D01*
X119535363Y-68224759D01*
X119735241Y-68424637D01*
X119967759Y-68580000D01*
X119735241Y-68735363D01*
X119535363Y-68935241D01*
X119378320Y-69170273D01*
X119270147Y-69431426D01*
X119215000Y-69708665D01*
X119215000Y-69991335D01*
X119270147Y-70268574D01*
X119378320Y-70529727D01*
X119535363Y-70764759D01*
X119735241Y-70964637D01*
X119967759Y-71120000D01*
X119735241Y-71275363D01*
X119535363Y-71475241D01*
X119378320Y-71710273D01*
X119270147Y-71971426D01*
X119215000Y-72248665D01*
X119215000Y-72531335D01*
X119270147Y-72808574D01*
X119378320Y-73069727D01*
X119535363Y-73304759D01*
X119735241Y-73504637D01*
X119967759Y-73660000D01*
X119735241Y-73815363D01*
X119535363Y-74015241D01*
X119378320Y-74250273D01*
X119270147Y-74511426D01*
X119215000Y-74788665D01*
X119215000Y-75071335D01*
X119270147Y-75348574D01*
X119378320Y-75609727D01*
X119535363Y-75844759D01*
X119735241Y-76044637D01*
X119967759Y-76200000D01*
X119735241Y-76355363D01*
X119535363Y-76555241D01*
X119378320Y-76790273D01*
X119270147Y-77051426D01*
X119215000Y-77328665D01*
X119215000Y-77611335D01*
X119270147Y-77888574D01*
X119378320Y-78149727D01*
X119535363Y-78384759D01*
X119735241Y-78584637D01*
X119967759Y-78740000D01*
X119735241Y-78895363D01*
X119535363Y-79095241D01*
X119378320Y-79330273D01*
X119270147Y-79591426D01*
X119215000Y-79868665D01*
X119215000Y-80151335D01*
X119270147Y-80428574D01*
X119378320Y-80689727D01*
X119535363Y-80924759D01*
X119735241Y-81124637D01*
X119967759Y-81280000D01*
X119735241Y-81435363D01*
X119535363Y-81635241D01*
X119378320Y-81870273D01*
X119270147Y-82131426D01*
X119215000Y-82408665D01*
X119215000Y-82691335D01*
X119270147Y-82968574D01*
X119378320Y-83229727D01*
X119535363Y-83464759D01*
X119735241Y-83664637D01*
X119967759Y-83820000D01*
X119735241Y-83975363D01*
X119535363Y-84175241D01*
X119378320Y-84410273D01*
X119270147Y-84671426D01*
X119215000Y-84948665D01*
X119215000Y-85231335D01*
X119270147Y-85508574D01*
X119378320Y-85769727D01*
X119535363Y-86004759D01*
X119735241Y-86204637D01*
X119967759Y-86360000D01*
X119735241Y-86515363D01*
X119535363Y-86715241D01*
X119378320Y-86950273D01*
X119270147Y-87211426D01*
X119215000Y-87488665D01*
X119215000Y-87771335D01*
X119270147Y-88048574D01*
X119378320Y-88309727D01*
X119535363Y-88544759D01*
X119735241Y-88744637D01*
X119967759Y-88900000D01*
X119735241Y-89055363D01*
X119535363Y-89255241D01*
X119378320Y-89490273D01*
X119270147Y-89751426D01*
X119215000Y-90028665D01*
X119215000Y-90311335D01*
X119270147Y-90588574D01*
X119378320Y-90849727D01*
X119535363Y-91084759D01*
X119735241Y-91284637D01*
X119967759Y-91440000D01*
X119735241Y-91595363D01*
X119535363Y-91795241D01*
X119378320Y-92030273D01*
X119270147Y-92291426D01*
X119215000Y-92568665D01*
X119215000Y-92851335D01*
X119270147Y-93128574D01*
X119378320Y-93389727D01*
X119535363Y-93624759D01*
X119735241Y-93824637D01*
X119967759Y-93980000D01*
X119735241Y-94135363D01*
X119535363Y-94335241D01*
X119378320Y-94570273D01*
X119270147Y-94831426D01*
X119215000Y-95108665D01*
X119215000Y-95391335D01*
X119270147Y-95668574D01*
X119378320Y-95929727D01*
X119535363Y-96164759D01*
X119735241Y-96364637D01*
X119967759Y-96520000D01*
X119735241Y-96675363D01*
X119535363Y-96875241D01*
X119378320Y-97110273D01*
X119270147Y-97371426D01*
X119215000Y-97648665D01*
X119215000Y-97931335D01*
X119270147Y-98208574D01*
X119378320Y-98469727D01*
X119535363Y-98704759D01*
X119735241Y-98904637D01*
X119970273Y-99061680D01*
X120231426Y-99169853D01*
X120508665Y-99225000D01*
X120791335Y-99225000D01*
X121068574Y-99169853D01*
X121329727Y-99061680D01*
X121564759Y-98904637D01*
X121764637Y-98704759D01*
X121921680Y-98469727D01*
X122029853Y-98208574D01*
X122085000Y-97931335D01*
X122085000Y-97648665D01*
X122029853Y-97371426D01*
X121921680Y-97110273D01*
X121764637Y-96875241D01*
X121564759Y-96675363D01*
X121332241Y-96520000D01*
X121564759Y-96364637D01*
X121764637Y-96164759D01*
X121921680Y-95929727D01*
X122029853Y-95668574D01*
X122085000Y-95391335D01*
X122085000Y-95108665D01*
X122029853Y-94831426D01*
X121921680Y-94570273D01*
X121764637Y-94335241D01*
X121564759Y-94135363D01*
X121332241Y-93980000D01*
X121564759Y-93824637D01*
X121764637Y-93624759D01*
X121921680Y-93389727D01*
X122029853Y-93128574D01*
X122085000Y-92851335D01*
X122085000Y-92568665D01*
X122029853Y-92291426D01*
X121921680Y-92030273D01*
X121764637Y-91795241D01*
X121564759Y-91595363D01*
X121332241Y-91440000D01*
X121564759Y-91284637D01*
X121764637Y-91084759D01*
X121921680Y-90849727D01*
X122029853Y-90588574D01*
X122085000Y-90311335D01*
X122085000Y-90028665D01*
X122029853Y-89751426D01*
X121921680Y-89490273D01*
X121764637Y-89255241D01*
X121564759Y-89055363D01*
X121332241Y-88900000D01*
X121564759Y-88744637D01*
X121764637Y-88544759D01*
X121921680Y-88309727D01*
X122029853Y-88048574D01*
X122085000Y-87771335D01*
X122085000Y-87488665D01*
X122029853Y-87211426D01*
X121921680Y-86950273D01*
X121764637Y-86715241D01*
X121564759Y-86515363D01*
X121332241Y-86360000D01*
X121564759Y-86204637D01*
X121764637Y-86004759D01*
X121921680Y-85769727D01*
X122029853Y-85508574D01*
X122085000Y-85231335D01*
X122085000Y-84948665D01*
X122029853Y-84671426D01*
X121921680Y-84410273D01*
X121764637Y-84175241D01*
X121564759Y-83975363D01*
X121332241Y-83820000D01*
X121564759Y-83664637D01*
X121764637Y-83464759D01*
X121921680Y-83229727D01*
X122029853Y-82968574D01*
X122085000Y-82691335D01*
X122085000Y-82408665D01*
X122029853Y-82131426D01*
X121921680Y-81870273D01*
X121764637Y-81635241D01*
X121564759Y-81435363D01*
X121332241Y-81280000D01*
X121564759Y-81124637D01*
X121764637Y-80924759D01*
X121868043Y-80770000D01*
X121882678Y-80770000D01*
X121920000Y-80773676D01*
X121957322Y-80770000D01*
X121957333Y-80770000D01*
X122068986Y-80759003D01*
X122212247Y-80715546D01*
X122344276Y-80644974D01*
X122460001Y-80550001D01*
X122483804Y-80520997D01*
X124971009Y-78033794D01*
X125000001Y-78010001D01*
X125023795Y-77981008D01*
X125023799Y-77981004D01*
X125094973Y-77894277D01*
X125094974Y-77894276D01*
X125165546Y-77762247D01*
X125209003Y-77618986D01*
X125220000Y-77507333D01*
X125220000Y-77507324D01*
X125223676Y-77470001D01*
X125220000Y-77432678D01*
X125220000Y-47027322D01*
X125223676Y-46989999D01*
X125220000Y-46952676D01*
X125220000Y-46952667D01*
X125209003Y-46841014D01*
X125165546Y-46697753D01*
X125094974Y-46565724D01*
X125000001Y-46449999D01*
X124971003Y-46426201D01*
X123753804Y-45209003D01*
X123730001Y-45179999D01*
X123614276Y-45085026D01*
X123482247Y-45014454D01*
X123338986Y-44970997D01*
X123227333Y-44960000D01*
X123227322Y-44960000D01*
X123190000Y-44956324D01*
X123152678Y-44960000D01*
X119388178Y-44960000D01*
X119263475Y-44773368D01*
X119131620Y-44641513D01*
X119204180Y-44619502D01*
X119314494Y-44560537D01*
X119411185Y-44481185D01*
X119490537Y-44384494D01*
X119549502Y-44274180D01*
X119585812Y-44154482D01*
X119598072Y-44030000D01*
X119598072Y-42330000D01*
X119585812Y-42205518D01*
X119549502Y-42085820D01*
X119490537Y-41975506D01*
X119411185Y-41878815D01*
X119314494Y-41799463D01*
X119204180Y-41740498D01*
X119084482Y-41704188D01*
X118960000Y-41691928D01*
X117260000Y-41691928D01*
X117135518Y-41704188D01*
X117015820Y-41740498D01*
X116905506Y-41799463D01*
X116808815Y-41878815D01*
X116729463Y-41975506D01*
X116670498Y-42085820D01*
X116634188Y-42205518D01*
X116621928Y-42330000D01*
X112917908Y-42330000D01*
X112874637Y-42265241D01*
X112674759Y-42065363D01*
X112439727Y-41908320D01*
X112178574Y-41800147D01*
X111901335Y-41745000D01*
X111618665Y-41745000D01*
X111341426Y-41800147D01*
X111080273Y-41908320D01*
X110845241Y-42065363D01*
X110645363Y-42265241D01*
X110488320Y-42500273D01*
X110380147Y-42761426D01*
X110325000Y-43038665D01*
X103035000Y-43038665D01*
X102979853Y-42761426D01*
X102871680Y-42500273D01*
X102714637Y-42265241D01*
X102514759Y-42065363D01*
X102279727Y-41908320D01*
X102018574Y-41800147D01*
X101741335Y-41745000D01*
X101458665Y-41745000D01*
X101181426Y-41800147D01*
X100920273Y-41908320D01*
X100715716Y-42045000D01*
X97845752Y-42045000D01*
X97790000Y-42039509D01*
X97734249Y-42045000D01*
X97734248Y-42045000D01*
X97567501Y-42061423D01*
X97353553Y-42126324D01*
X97156377Y-42231716D01*
X96983551Y-42373551D01*
X96841716Y-42546377D01*
X96736324Y-42743553D01*
X96671423Y-42957501D01*
X96649509Y-43180000D01*
X96655001Y-43235762D01*
X96655000Y-48395000D01*
X78605000Y-48395000D01*
X78605000Y-45775752D01*
X78610491Y-45720000D01*
X78588577Y-45497501D01*
X78523676Y-45283553D01*
X78418284Y-45086377D01*
X78311989Y-44956856D01*
X78311987Y-44956854D01*
X78276449Y-44913551D01*
X78233146Y-44878013D01*
X75087850Y-41732718D01*
X75039853Y-41491426D01*
X74931680Y-41230273D01*
X74774637Y-40995241D01*
X74574759Y-40795363D01*
X74339727Y-40638320D01*
X74078574Y-40530147D01*
X73837282Y-40482150D01*
X72140131Y-38785000D01*
X126315000Y-38785000D01*
X126315001Y-100915000D01*
%TA.AperFunction,Conductor*%
D21*
G36*
X126315001Y-100915000D02*
G01*
X69065170Y-100915000D01*
X69120001Y-100870001D01*
X69143804Y-100840997D01*
X71631008Y-98353795D01*
X71660001Y-98330001D01*
X71683795Y-98301008D01*
X71683799Y-98301004D01*
X71754973Y-98214277D01*
X71754974Y-98214276D01*
X71825546Y-98082247D01*
X71844719Y-98019040D01*
X72268091Y-98019040D01*
X72362930Y-98283881D01*
X72507615Y-98525131D01*
X72696586Y-98733519D01*
X72922580Y-98901037D01*
X73176913Y-99021246D01*
X73310961Y-99061904D01*
X73533000Y-98939915D01*
X73533000Y-97797000D01*
X73787000Y-97797000D01*
X73787000Y-98939915D01*
X74009039Y-99061904D01*
X74143087Y-99021246D01*
X74397420Y-98901037D01*
X74623414Y-98733519D01*
X74812385Y-98525131D01*
X74957070Y-98283881D01*
X75051909Y-98019040D01*
X74930624Y-97797000D01*
X73787000Y-97797000D01*
X73533000Y-97797000D01*
X72389376Y-97797000D01*
X72268091Y-98019040D01*
X71844719Y-98019040D01*
X71869003Y-97938986D01*
X71880000Y-97827333D01*
X71880000Y-97827324D01*
X71883676Y-97790001D01*
X71880000Y-97752678D01*
X71880000Y-97320960D01*
X72268091Y-97320960D01*
X72389376Y-97543000D01*
X73533000Y-97543000D01*
X73533000Y-96400085D01*
X73787000Y-96400085D01*
X73787000Y-97543000D01*
X74930624Y-97543000D01*
X75051909Y-97320960D01*
X74957070Y-97056119D01*
X74812385Y-96814869D01*
X74623414Y-96606481D01*
X74397420Y-96438963D01*
X74143087Y-96318754D01*
X74009039Y-96278096D01*
X73787000Y-96400085D01*
X73533000Y-96400085D01*
X73310961Y-96278096D01*
X73176913Y-96318754D01*
X72922580Y-96438963D01*
X72696586Y-96606481D01*
X72507615Y-96814869D01*
X72362930Y-97056119D01*
X72268091Y-97320960D01*
X71880000Y-97320960D01*
X71880000Y-90028665D01*
X72225000Y-90028665D01*
X72225000Y-90311335D01*
X72280147Y-90588574D01*
X72388320Y-90849727D01*
X72545363Y-91084759D01*
X72745241Y-91284637D01*
X72980273Y-91441680D01*
X73241426Y-91549853D01*
X73518665Y-91605000D01*
X73801335Y-91605000D01*
X74078574Y-91549853D01*
X74339727Y-91441680D01*
X74574759Y-91284637D01*
X74774637Y-91084759D01*
X74931680Y-90849727D01*
X75039853Y-90588574D01*
X75095000Y-90311335D01*
X75095000Y-90028665D01*
X75039853Y-89751426D01*
X74931680Y-89490273D01*
X74774637Y-89255241D01*
X74574759Y-89055363D01*
X74339727Y-88898320D01*
X74078574Y-88790147D01*
X73801335Y-88735000D01*
X73518665Y-88735000D01*
X73241426Y-88790147D01*
X72980273Y-88898320D01*
X72745241Y-89055363D01*
X72545363Y-89255241D01*
X72388320Y-89490273D01*
X72280147Y-89751426D01*
X72225000Y-90028665D01*
X71880000Y-90028665D01*
X71880000Y-72704801D01*
X73495000Y-71089801D01*
X73495000Y-71261335D01*
X73550147Y-71538574D01*
X73658320Y-71799727D01*
X73815363Y-72034759D01*
X74015241Y-72234637D01*
X74247759Y-72390000D01*
X74015241Y-72545363D01*
X73815363Y-72745241D01*
X73658320Y-72980273D01*
X73550147Y-73241426D01*
X73495000Y-73518665D01*
X73495000Y-73801335D01*
X73550147Y-74078574D01*
X73658320Y-74339727D01*
X73815363Y-74574759D01*
X74015241Y-74774637D01*
X74247759Y-74930000D01*
X74015241Y-75085363D01*
X73815363Y-75285241D01*
X73658320Y-75520273D01*
X73550147Y-75781426D01*
X73495000Y-76058665D01*
X73495000Y-76341335D01*
X73550147Y-76618574D01*
X73658320Y-76879727D01*
X73815363Y-77114759D01*
X74015241Y-77314637D01*
X74247759Y-77470000D01*
X74015241Y-77625363D01*
X73815363Y-77825241D01*
X73658320Y-78060273D01*
X73550147Y-78321426D01*
X73495000Y-78598665D01*
X73495000Y-78881335D01*
X73550147Y-79158574D01*
X73658320Y-79419727D01*
X73815363Y-79654759D01*
X74015241Y-79854637D01*
X74247759Y-80010000D01*
X74015241Y-80165363D01*
X73815363Y-80365241D01*
X73658320Y-80600273D01*
X73550147Y-80861426D01*
X73495000Y-81138665D01*
X73495000Y-81421335D01*
X73550147Y-81698574D01*
X73658320Y-81959727D01*
X73815363Y-82194759D01*
X74015241Y-82394637D01*
X74247759Y-82550000D01*
X74015241Y-82705363D01*
X73815363Y-82905241D01*
X73658320Y-83140273D01*
X73550147Y-83401426D01*
X73495000Y-83678665D01*
X73495000Y-83961335D01*
X73550147Y-84238574D01*
X73658320Y-84499727D01*
X73815363Y-84734759D01*
X74015241Y-84934637D01*
X74250273Y-85091680D01*
X74511426Y-85199853D01*
X74788665Y-85255000D01*
X75071335Y-85255000D01*
X75348574Y-85199853D01*
X75609727Y-85091680D01*
X75844759Y-84934637D01*
X76044637Y-84734759D01*
X76201680Y-84499727D01*
X76309853Y-84238574D01*
X76323684Y-84169039D01*
X81158096Y-84169039D01*
X81198754Y-84303087D01*
X81318963Y-84557420D01*
X81486481Y-84783414D01*
X81694869Y-84972385D01*
X81936119Y-85117070D01*
X82200960Y-85211909D01*
X82423000Y-85090624D01*
X82423000Y-83947000D01*
X82677000Y-83947000D01*
X82677000Y-85090624D01*
X82899040Y-85211909D01*
X83163881Y-85117070D01*
X83405131Y-84972385D01*
X83613519Y-84783414D01*
X83781037Y-84557420D01*
X83901246Y-84303087D01*
X83941904Y-84169039D01*
X83819915Y-83947000D01*
X82677000Y-83947000D01*
X82423000Y-83947000D01*
X81280085Y-83947000D01*
X81158096Y-84169039D01*
X76323684Y-84169039D01*
X76365000Y-83961335D01*
X76365000Y-83678665D01*
X76328688Y-83496114D01*
X76514802Y-83310000D01*
X81211474Y-83310000D01*
X81198754Y-83336913D01*
X81158096Y-83470961D01*
X81280085Y-83693000D01*
X82423000Y-83693000D01*
X82423000Y-83673000D01*
X82677000Y-83673000D01*
X82677000Y-83693000D01*
X83819915Y-83693000D01*
X83941904Y-83470961D01*
X83901246Y-83336913D01*
X83888526Y-83310000D01*
X96205199Y-83310000D01*
X96391312Y-83496114D01*
X96355000Y-83678665D01*
X96355000Y-83961335D01*
X96410147Y-84238574D01*
X96518320Y-84499727D01*
X96675363Y-84734759D01*
X96875241Y-84934637D01*
X97110273Y-85091680D01*
X97371426Y-85199853D01*
X97648665Y-85255000D01*
X97931335Y-85255000D01*
X98208574Y-85199853D01*
X98469727Y-85091680D01*
X98704759Y-84934637D01*
X98904637Y-84734759D01*
X99061680Y-84499727D01*
X99169853Y-84238574D01*
X99225000Y-83961335D01*
X99225000Y-83678665D01*
X99169853Y-83401426D01*
X99061680Y-83140273D01*
X98904637Y-82905241D01*
X98704759Y-82705363D01*
X98472241Y-82550000D01*
X98704759Y-82394637D01*
X98904637Y-82194759D01*
X99061680Y-81959727D01*
X99169853Y-81698574D01*
X99225000Y-81421335D01*
X99225000Y-81138665D01*
X99169853Y-80861426D01*
X99061680Y-80600273D01*
X98904637Y-80365241D01*
X98704759Y-80165363D01*
X98472241Y-80010000D01*
X98704759Y-79854637D01*
X98904637Y-79654759D01*
X99061680Y-79419727D01*
X99169853Y-79158574D01*
X99225000Y-78881335D01*
X99225000Y-78598665D01*
X99169853Y-78321426D01*
X99061680Y-78060273D01*
X98904637Y-77825241D01*
X98704759Y-77625363D01*
X98472241Y-77470000D01*
X98704759Y-77314637D01*
X98904637Y-77114759D01*
X99061680Y-76879727D01*
X99169853Y-76618574D01*
X99225000Y-76341335D01*
X99225000Y-76058665D01*
X99169853Y-75781426D01*
X99061680Y-75520273D01*
X98904637Y-75285241D01*
X98704759Y-75085363D01*
X98472241Y-74930000D01*
X98704759Y-74774637D01*
X98904637Y-74574759D01*
X99061680Y-74339727D01*
X99169853Y-74078574D01*
X99225000Y-73801335D01*
X99225000Y-73518665D01*
X99169853Y-73241426D01*
X99061680Y-72980273D01*
X98904637Y-72745241D01*
X98704759Y-72545363D01*
X98472241Y-72390000D01*
X98683764Y-72248665D01*
X103975000Y-72248665D01*
X103975000Y-72531335D01*
X104030147Y-72808574D01*
X104138320Y-73069727D01*
X104295363Y-73304759D01*
X104495241Y-73504637D01*
X104727759Y-73660000D01*
X104495241Y-73815363D01*
X104295363Y-74015241D01*
X104138320Y-74250273D01*
X104030147Y-74511426D01*
X103975000Y-74788665D01*
X103975000Y-75071335D01*
X104030147Y-75348574D01*
X104138320Y-75609727D01*
X104295363Y-75844759D01*
X104495241Y-76044637D01*
X104727759Y-76200000D01*
X104495241Y-76355363D01*
X104295363Y-76555241D01*
X104138320Y-76790273D01*
X104030147Y-77051426D01*
X103975000Y-77328665D01*
X103975000Y-77611335D01*
X104030147Y-77888574D01*
X104138320Y-78149727D01*
X104295363Y-78384759D01*
X104495241Y-78584637D01*
X104727759Y-78740000D01*
X104495241Y-78895363D01*
X104295363Y-79095241D01*
X104138320Y-79330273D01*
X104030147Y-79591426D01*
X103975000Y-79868665D01*
X103975000Y-80151335D01*
X104030147Y-80428574D01*
X104138320Y-80689727D01*
X104295363Y-80924759D01*
X104495241Y-81124637D01*
X104727759Y-81280000D01*
X104495241Y-81435363D01*
X104295363Y-81635241D01*
X104138320Y-81870273D01*
X104030147Y-82131426D01*
X103975000Y-82408665D01*
X103975000Y-82691335D01*
X104030147Y-82968574D01*
X104138320Y-83229727D01*
X104295363Y-83464759D01*
X104495241Y-83664637D01*
X104727759Y-83820000D01*
X104495241Y-83975363D01*
X104295363Y-84175241D01*
X104138320Y-84410273D01*
X104030147Y-84671426D01*
X103975000Y-84948665D01*
X103975000Y-85231335D01*
X104030147Y-85508574D01*
X104138320Y-85769727D01*
X104295363Y-86004759D01*
X104495241Y-86204637D01*
X104727759Y-86360000D01*
X104495241Y-86515363D01*
X104295363Y-86715241D01*
X104138320Y-86950273D01*
X104030147Y-87211426D01*
X103975000Y-87488665D01*
X103975000Y-87771335D01*
X104030147Y-88048574D01*
X104138320Y-88309727D01*
X104295363Y-88544759D01*
X104495241Y-88744637D01*
X104727759Y-88900000D01*
X104495241Y-89055363D01*
X104295363Y-89255241D01*
X104138320Y-89490273D01*
X104030147Y-89751426D01*
X103975000Y-90028665D01*
X103975000Y-90311335D01*
X104030147Y-90588574D01*
X104138320Y-90849727D01*
X104295363Y-91084759D01*
X104495241Y-91284637D01*
X104727759Y-91440000D01*
X104495241Y-91595363D01*
X104295363Y-91795241D01*
X104138320Y-92030273D01*
X104030147Y-92291426D01*
X103975000Y-92568665D01*
X103975000Y-92851335D01*
X104030147Y-93128574D01*
X104138320Y-93389727D01*
X104295363Y-93624759D01*
X104495241Y-93824637D01*
X104727759Y-93980000D01*
X104495241Y-94135363D01*
X104295363Y-94335241D01*
X104138320Y-94570273D01*
X104030147Y-94831426D01*
X103975000Y-95108665D01*
X103975000Y-95391335D01*
X104030147Y-95668574D01*
X104138320Y-95929727D01*
X104295363Y-96164759D01*
X104495241Y-96364637D01*
X104727759Y-96520000D01*
X104495241Y-96675363D01*
X104295363Y-96875241D01*
X104138320Y-97110273D01*
X104030147Y-97371426D01*
X103975000Y-97648665D01*
X103975000Y-97931335D01*
X104030147Y-98208574D01*
X104138320Y-98469727D01*
X104295363Y-98704759D01*
X104495241Y-98904637D01*
X104730273Y-99061680D01*
X104991426Y-99169853D01*
X105268665Y-99225000D01*
X105551335Y-99225000D01*
X105828574Y-99169853D01*
X106089727Y-99061680D01*
X106324759Y-98904637D01*
X106524637Y-98704759D01*
X106681680Y-98469727D01*
X106789853Y-98208574D01*
X106845000Y-97931335D01*
X106845000Y-97648665D01*
X106789853Y-97371426D01*
X106681680Y-97110273D01*
X106524637Y-96875241D01*
X106324759Y-96675363D01*
X106092241Y-96520000D01*
X106324759Y-96364637D01*
X106524637Y-96164759D01*
X106681680Y-95929727D01*
X106789853Y-95668574D01*
X106845000Y-95391335D01*
X106845000Y-95108665D01*
X106789853Y-94831426D01*
X106681680Y-94570273D01*
X106524637Y-94335241D01*
X106324759Y-94135363D01*
X106092241Y-93980000D01*
X106324759Y-93824637D01*
X106524637Y-93624759D01*
X106681680Y-93389727D01*
X106789853Y-93128574D01*
X106845000Y-92851335D01*
X106845000Y-92568665D01*
X106789853Y-92291426D01*
X106681680Y-92030273D01*
X106524637Y-91795241D01*
X106324759Y-91595363D01*
X106092241Y-91440000D01*
X106324759Y-91284637D01*
X106524637Y-91084759D01*
X106681680Y-90849727D01*
X106789853Y-90588574D01*
X106845000Y-90311335D01*
X106845000Y-90028665D01*
X106789853Y-89751426D01*
X106681680Y-89490273D01*
X106524637Y-89255241D01*
X106324759Y-89055363D01*
X106092241Y-88900000D01*
X106324759Y-88744637D01*
X106524637Y-88544759D01*
X106681680Y-88309727D01*
X106789853Y-88048574D01*
X106845000Y-87771335D01*
X106845000Y-87488665D01*
X106789853Y-87211426D01*
X106681680Y-86950273D01*
X106524637Y-86715241D01*
X106324759Y-86515363D01*
X106092241Y-86360000D01*
X106324759Y-86204637D01*
X106524637Y-86004759D01*
X106681680Y-85769727D01*
X106789853Y-85508574D01*
X106845000Y-85231335D01*
X106845000Y-84948665D01*
X106789853Y-84671426D01*
X106681680Y-84410273D01*
X106524637Y-84175241D01*
X106324759Y-83975363D01*
X106092241Y-83820000D01*
X106324759Y-83664637D01*
X106524637Y-83464759D01*
X106681680Y-83229727D01*
X106789853Y-82968574D01*
X106845000Y-82691335D01*
X106845000Y-82408665D01*
X106789853Y-82131426D01*
X106681680Y-81870273D01*
X106524637Y-81635241D01*
X106324759Y-81435363D01*
X106092241Y-81280000D01*
X106324759Y-81124637D01*
X106524637Y-80924759D01*
X106681680Y-80689727D01*
X106789853Y-80428574D01*
X106845000Y-80151335D01*
X106845000Y-79868665D01*
X106789853Y-79591426D01*
X106681680Y-79330273D01*
X106524637Y-79095241D01*
X106324759Y-78895363D01*
X106092241Y-78740000D01*
X106324759Y-78584637D01*
X106524637Y-78384759D01*
X106681680Y-78149727D01*
X106789853Y-77888574D01*
X106845000Y-77611335D01*
X106845000Y-77328665D01*
X106789853Y-77051426D01*
X106681680Y-76790273D01*
X106524637Y-76555241D01*
X106324759Y-76355363D01*
X106092241Y-76200000D01*
X106324759Y-76044637D01*
X106524637Y-75844759D01*
X106681680Y-75609727D01*
X106789853Y-75348574D01*
X106845000Y-75071335D01*
X106845000Y-74788665D01*
X106789853Y-74511426D01*
X106681680Y-74250273D01*
X106524637Y-74015241D01*
X106324759Y-73815363D01*
X106092241Y-73660000D01*
X106324759Y-73504637D01*
X106524637Y-73304759D01*
X106681680Y-73069727D01*
X106789853Y-72808574D01*
X106845000Y-72531335D01*
X106845000Y-72248665D01*
X106789853Y-71971426D01*
X106681680Y-71710273D01*
X106524637Y-71475241D01*
X106324759Y-71275363D01*
X106089727Y-71118320D01*
X106079135Y-71113933D01*
X106265131Y-71002385D01*
X106473519Y-70813414D01*
X106641037Y-70587420D01*
X106761246Y-70333087D01*
X106801904Y-70199039D01*
X106679915Y-69977000D01*
X105537000Y-69977000D01*
X105537000Y-69997000D01*
X105283000Y-69997000D01*
X105283000Y-69977000D01*
X104140085Y-69977000D01*
X104018096Y-70199039D01*
X104058754Y-70333087D01*
X104178963Y-70587420D01*
X104346481Y-70813414D01*
X104554869Y-71002385D01*
X104740865Y-71113933D01*
X104730273Y-71118320D01*
X104495241Y-71275363D01*
X104295363Y-71475241D01*
X104138320Y-71710273D01*
X104030147Y-71971426D01*
X103975000Y-72248665D01*
X98683764Y-72248665D01*
X98704759Y-72234637D01*
X98904637Y-72034759D01*
X99061680Y-71799727D01*
X99169853Y-71538574D01*
X99225000Y-71261335D01*
X99225000Y-70978665D01*
X99169853Y-70701426D01*
X99061680Y-70440273D01*
X98904637Y-70205241D01*
X98704759Y-70005363D01*
X98472241Y-69850000D01*
X98704759Y-69694637D01*
X98904637Y-69494759D01*
X99061680Y-69259727D01*
X99169853Y-68998574D01*
X99225000Y-68721335D01*
X99225000Y-68438665D01*
X99169853Y-68161426D01*
X99061680Y-67900273D01*
X98904637Y-67665241D01*
X98704759Y-67465363D01*
X98472241Y-67310000D01*
X98704759Y-67154637D01*
X98904637Y-66954759D01*
X99061680Y-66719727D01*
X99169853Y-66458574D01*
X99225000Y-66181335D01*
X99225000Y-65898665D01*
X99169853Y-65621426D01*
X99061680Y-65360273D01*
X98904637Y-65125241D01*
X98704759Y-64925363D01*
X98472241Y-64770000D01*
X98704759Y-64614637D01*
X98904637Y-64414759D01*
X99061680Y-64179727D01*
X99169853Y-63918574D01*
X99225000Y-63641335D01*
X99225000Y-63358665D01*
X99169853Y-63081426D01*
X99061680Y-62820273D01*
X98904637Y-62585241D01*
X98704759Y-62385363D01*
X98472241Y-62230000D01*
X98704759Y-62074637D01*
X98904637Y-61874759D01*
X99061680Y-61639727D01*
X99148551Y-61430000D01*
X103971928Y-61430000D01*
X103971928Y-63030000D01*
X103984188Y-63154482D01*
X104020498Y-63274180D01*
X104079463Y-63384494D01*
X104158815Y-63481185D01*
X104255506Y-63560537D01*
X104365820Y-63619502D01*
X104485518Y-63655812D01*
X104493961Y-63656643D01*
X104295363Y-63855241D01*
X104138320Y-64090273D01*
X104030147Y-64351426D01*
X103975000Y-64628665D01*
X103975000Y-64911335D01*
X104030147Y-65188574D01*
X104138320Y-65449727D01*
X104295363Y-65684759D01*
X104495241Y-65884637D01*
X104727759Y-66040000D01*
X104495241Y-66195363D01*
X104295363Y-66395241D01*
X104138320Y-66630273D01*
X104030147Y-66891426D01*
X103975000Y-67168665D01*
X103975000Y-67451335D01*
X104030147Y-67728574D01*
X104138320Y-67989727D01*
X104295363Y-68224759D01*
X104495241Y-68424637D01*
X104730273Y-68581680D01*
X104740865Y-68586067D01*
X104554869Y-68697615D01*
X104346481Y-68886586D01*
X104178963Y-69112580D01*
X104058754Y-69366913D01*
X104018096Y-69500961D01*
X104140085Y-69723000D01*
X105283000Y-69723000D01*
X105283000Y-69703000D01*
X105537000Y-69703000D01*
X105537000Y-69723000D01*
X106679915Y-69723000D01*
X106801904Y-69500961D01*
X106761246Y-69366913D01*
X106641037Y-69112580D01*
X106473519Y-68886586D01*
X106265131Y-68697615D01*
X106079135Y-68586067D01*
X106089727Y-68581680D01*
X106324759Y-68424637D01*
X106524637Y-68224759D01*
X106681680Y-67989727D01*
X106789853Y-67728574D01*
X106845000Y-67451335D01*
X106845000Y-67168665D01*
X106789853Y-66891426D01*
X106681680Y-66630273D01*
X106524637Y-66395241D01*
X106324759Y-66195363D01*
X106092241Y-66040000D01*
X106324759Y-65884637D01*
X106524637Y-65684759D01*
X106681680Y-65449727D01*
X106789853Y-65188574D01*
X106845000Y-64911335D01*
X106845000Y-64628665D01*
X106789853Y-64351426D01*
X106681680Y-64090273D01*
X106524637Y-63855241D01*
X106326039Y-63656643D01*
X106334482Y-63655812D01*
X106454180Y-63619502D01*
X106564494Y-63560537D01*
X106661185Y-63481185D01*
X106740537Y-63384494D01*
X106799502Y-63274180D01*
X106835812Y-63154482D01*
X106848072Y-63030000D01*
X106848072Y-62088665D01*
X119215000Y-62088665D01*
X119215000Y-62371335D01*
X119270147Y-62648574D01*
X119378320Y-62909727D01*
X119535363Y-63144759D01*
X119735241Y-63344637D01*
X119970273Y-63501680D01*
X119980865Y-63506067D01*
X119794869Y-63617615D01*
X119586481Y-63806586D01*
X119418963Y-64032580D01*
X119298754Y-64286913D01*
X119258096Y-64420961D01*
X119380085Y-64643000D01*
X120523000Y-64643000D01*
X120523000Y-64623000D01*
X120777000Y-64623000D01*
X120777000Y-64643000D01*
X121919915Y-64643000D01*
X122041904Y-64420961D01*
X122001246Y-64286913D01*
X121881037Y-64032580D01*
X121713519Y-63806586D01*
X121505131Y-63617615D01*
X121319135Y-63506067D01*
X121329727Y-63501680D01*
X121564759Y-63344637D01*
X121764637Y-63144759D01*
X121921680Y-62909727D01*
X122029853Y-62648574D01*
X122085000Y-62371335D01*
X122085000Y-62088665D01*
X122029853Y-61811426D01*
X121921680Y-61550273D01*
X121764637Y-61315241D01*
X121564759Y-61115363D01*
X121329727Y-60958320D01*
X121068574Y-60850147D01*
X120791335Y-60795000D01*
X120508665Y-60795000D01*
X120231426Y-60850147D01*
X119970273Y-60958320D01*
X119735241Y-61115363D01*
X119535363Y-61315241D01*
X119378320Y-61550273D01*
X119270147Y-61811426D01*
X119215000Y-62088665D01*
X106848072Y-62088665D01*
X106848072Y-61430000D01*
X106835812Y-61305518D01*
X106799502Y-61185820D01*
X106740537Y-61075506D01*
X106661185Y-60978815D01*
X106564494Y-60899463D01*
X106454180Y-60840498D01*
X106334482Y-60804188D01*
X106210000Y-60791928D01*
X104610000Y-60791928D01*
X104485518Y-60804188D01*
X104365820Y-60840498D01*
X104255506Y-60899463D01*
X104158815Y-60978815D01*
X104079463Y-61075506D01*
X104020498Y-61185820D01*
X103984188Y-61305518D01*
X103971928Y-61430000D01*
X99148551Y-61430000D01*
X99169853Y-61378574D01*
X99225000Y-61101335D01*
X99225000Y-60818665D01*
X99169853Y-60541426D01*
X99061680Y-60280273D01*
X98904637Y-60045241D01*
X98704759Y-59845363D01*
X98472241Y-59690000D01*
X98704759Y-59534637D01*
X98904637Y-59334759D01*
X99061680Y-59099727D01*
X99169853Y-58838574D01*
X99225000Y-58561335D01*
X99225000Y-58278665D01*
X99169853Y-58001426D01*
X99061680Y-57740273D01*
X98904637Y-57505241D01*
X98704759Y-57305363D01*
X98472241Y-57150000D01*
X98704759Y-56994637D01*
X98904637Y-56794759D01*
X99061680Y-56559727D01*
X99169853Y-56298574D01*
X99225000Y-56021335D01*
X99225000Y-55738665D01*
X99169853Y-55461426D01*
X99061680Y-55200273D01*
X98925000Y-54995716D01*
X98925000Y-52595000D01*
X107831928Y-52595000D01*
X107844188Y-52719482D01*
X107880498Y-52839180D01*
X107939463Y-52949494D01*
X108018815Y-53046185D01*
X108115506Y-53125537D01*
X108225820Y-53184502D01*
X108345518Y-53220812D01*
X108470000Y-53233072D01*
X108934250Y-53230000D01*
X109093000Y-53071250D01*
X109093000Y-52197000D01*
X109347000Y-52197000D01*
X109347000Y-53071250D01*
X109505750Y-53230000D01*
X109970000Y-53233072D01*
X110094482Y-53220812D01*
X110214180Y-53184502D01*
X110324494Y-53125537D01*
X110421185Y-53046185D01*
X110500537Y-52949494D01*
X110559502Y-52839180D01*
X110595812Y-52719482D01*
X110608072Y-52595000D01*
X110605000Y-52355750D01*
X110446250Y-52197000D01*
X109347000Y-52197000D01*
X109093000Y-52197000D01*
X107993750Y-52197000D01*
X107835000Y-52355750D01*
X107831928Y-52595000D01*
X98925000Y-52595000D01*
X98925000Y-49585751D01*
X98930491Y-49530000D01*
X107829388Y-49530000D01*
X107851785Y-49757400D01*
X107918115Y-49976060D01*
X108019105Y-50165000D01*
X107918115Y-50353940D01*
X107851785Y-50572600D01*
X107829388Y-50800000D01*
X107851785Y-51027400D01*
X107915093Y-51236098D01*
X107880498Y-51300820D01*
X107844188Y-51420518D01*
X107831928Y-51545000D01*
X107835000Y-51784250D01*
X107993750Y-51943000D01*
X108766891Y-51943000D01*
X108767600Y-51943215D01*
X108938021Y-51960000D01*
X109501979Y-51960000D01*
X109672400Y-51943215D01*
X109673109Y-51943000D01*
X110446250Y-51943000D01*
X110605000Y-51784250D01*
X110608072Y-51545000D01*
X110595812Y-51420518D01*
X110559502Y-51300820D01*
X110524907Y-51236098D01*
X110588215Y-51027400D01*
X110610612Y-50800000D01*
X110588215Y-50572600D01*
X110521885Y-50353940D01*
X110420895Y-50165000D01*
X110521885Y-49976060D01*
X110588215Y-49757400D01*
X110610612Y-49530000D01*
X110588215Y-49302600D01*
X110521885Y-49083940D01*
X110414171Y-48882421D01*
X110269212Y-48705788D01*
X110160890Y-48616890D01*
X116668524Y-48616890D01*
X116713175Y-48764099D01*
X116838359Y-49026920D01*
X117012412Y-49260269D01*
X117228645Y-49455178D01*
X117478748Y-49604157D01*
X117753109Y-49701481D01*
X117983000Y-49580814D01*
X117983000Y-48387000D01*
X118237000Y-48387000D01*
X118237000Y-49580814D01*
X118466891Y-49701481D01*
X118741252Y-49604157D01*
X118991355Y-49455178D01*
X119207588Y-49260269D01*
X119381641Y-49026920D01*
X119506825Y-48764099D01*
X119551476Y-48616890D01*
X119430155Y-48387000D01*
X118237000Y-48387000D01*
X117983000Y-48387000D01*
X116789845Y-48387000D01*
X116668524Y-48616890D01*
X110160890Y-48616890D01*
X110092579Y-48560829D01*
X109891060Y-48453115D01*
X109672400Y-48386785D01*
X109501979Y-48370000D01*
X108938021Y-48370000D01*
X108767600Y-48386785D01*
X108548940Y-48453115D01*
X108347421Y-48560829D01*
X108170788Y-48705788D01*
X108025829Y-48882421D01*
X107918115Y-49083940D01*
X107851785Y-49302600D01*
X107829388Y-49530000D01*
X98930491Y-49530000D01*
X98925000Y-49474248D01*
X98925000Y-44315000D01*
X100715716Y-44315000D01*
X100920273Y-44451680D01*
X101181426Y-44559853D01*
X101458665Y-44615000D01*
X101741335Y-44615000D01*
X102018574Y-44559853D01*
X102279727Y-44451680D01*
X102514759Y-44294637D01*
X102714637Y-44094759D01*
X102871680Y-43859727D01*
X102979853Y-43598574D01*
X103035000Y-43321335D01*
X103035000Y-43038665D01*
X110325000Y-43038665D01*
X110325000Y-43321335D01*
X110380147Y-43598574D01*
X110488320Y-43859727D01*
X110645363Y-44094759D01*
X110845241Y-44294637D01*
X111080273Y-44451680D01*
X111341426Y-44559853D01*
X111618665Y-44615000D01*
X111901335Y-44615000D01*
X112178574Y-44559853D01*
X112439727Y-44451680D01*
X112674759Y-44294637D01*
X112874637Y-44094759D01*
X113031680Y-43859727D01*
X113139853Y-43598574D01*
X113195000Y-43321335D01*
X113195000Y-43038665D01*
X113139853Y-42761426D01*
X113031680Y-42500273D01*
X112917908Y-42330000D01*
X116621928Y-42330000D01*
X116621928Y-44030000D01*
X116634188Y-44154482D01*
X116670498Y-44274180D01*
X116729463Y-44384494D01*
X116808815Y-44481185D01*
X116905506Y-44560537D01*
X117015820Y-44619502D01*
X117088380Y-44641513D01*
X116956525Y-44773368D01*
X116794010Y-45016589D01*
X116682068Y-45286842D01*
X116625000Y-45573740D01*
X116625000Y-45866260D01*
X116682068Y-46153158D01*
X116794010Y-46423411D01*
X116956525Y-46666632D01*
X117163368Y-46873475D01*
X117345534Y-46995195D01*
X117228645Y-47064822D01*
X117012412Y-47259731D01*
X116838359Y-47493080D01*
X116713175Y-47755901D01*
X116668524Y-47903110D01*
X116789845Y-48133000D01*
X117983000Y-48133000D01*
X117983000Y-48113000D01*
X118237000Y-48113000D01*
X118237000Y-48133000D01*
X119430155Y-48133000D01*
X119551476Y-47903110D01*
X119506825Y-47755901D01*
X119381641Y-47493080D01*
X119207588Y-47259731D01*
X118991355Y-47064822D01*
X118874466Y-46995195D01*
X119056632Y-46873475D01*
X119263475Y-46666632D01*
X119388178Y-46480000D01*
X122875199Y-46480000D01*
X123700001Y-47304803D01*
X123700000Y-77155197D01*
X121762297Y-79092901D01*
X121564759Y-78895363D01*
X121332241Y-78740000D01*
X121564759Y-78584637D01*
X121764637Y-78384759D01*
X121921680Y-78149727D01*
X122029853Y-77888574D01*
X122085000Y-77611335D01*
X122085000Y-77328665D01*
X122029853Y-77051426D01*
X121921680Y-76790273D01*
X121764637Y-76555241D01*
X121564759Y-76355363D01*
X121332241Y-76200000D01*
X121564759Y-76044637D01*
X121764637Y-75844759D01*
X121921680Y-75609727D01*
X122029853Y-75348574D01*
X122085000Y-75071335D01*
X122085000Y-74788665D01*
X122029853Y-74511426D01*
X121921680Y-74250273D01*
X121764637Y-74015241D01*
X121564759Y-73815363D01*
X121332241Y-73660000D01*
X121564759Y-73504637D01*
X121764637Y-73304759D01*
X121921680Y-73069727D01*
X122029853Y-72808574D01*
X122085000Y-72531335D01*
X122085000Y-72248665D01*
X122029853Y-71971426D01*
X121921680Y-71710273D01*
X121764637Y-71475241D01*
X121564759Y-71275363D01*
X121332241Y-71120000D01*
X121564759Y-70964637D01*
X121764637Y-70764759D01*
X121921680Y-70529727D01*
X122029853Y-70268574D01*
X122085000Y-69991335D01*
X122085000Y-69708665D01*
X122029853Y-69431426D01*
X121921680Y-69170273D01*
X121764637Y-68935241D01*
X121564759Y-68735363D01*
X121332241Y-68580000D01*
X121564759Y-68424637D01*
X121764637Y-68224759D01*
X121921680Y-67989727D01*
X122029853Y-67728574D01*
X122085000Y-67451335D01*
X122085000Y-67168665D01*
X122029853Y-66891426D01*
X121921680Y-66630273D01*
X121764637Y-66395241D01*
X121564759Y-66195363D01*
X121329727Y-66038320D01*
X121319135Y-66033933D01*
X121505131Y-65922385D01*
X121713519Y-65733414D01*
X121881037Y-65507420D01*
X122001246Y-65253087D01*
X122041904Y-65119039D01*
X121919915Y-64897000D01*
X120777000Y-64897000D01*
X120777000Y-64917000D01*
X120523000Y-64917000D01*
X120523000Y-64897000D01*
X119380085Y-64897000D01*
X119258096Y-65119039D01*
X119298754Y-65253087D01*
X119418963Y-65507420D01*
X119586481Y-65733414D01*
X119794869Y-65922385D01*
X119980865Y-66033933D01*
X119970273Y-66038320D01*
X119735241Y-66195363D01*
X119535363Y-66395241D01*
X119378320Y-66630273D01*
X119270147Y-66891426D01*
X119215000Y-67168665D01*
X119215000Y-67451335D01*
X119270147Y-67728574D01*
X119378320Y-67989727D01*
X119535363Y-68224759D01*
X119735241Y-68424637D01*
X119967759Y-68580000D01*
X119735241Y-68735363D01*
X119535363Y-68935241D01*
X119378320Y-69170273D01*
X119270147Y-69431426D01*
X119215000Y-69708665D01*
X119215000Y-69991335D01*
X119270147Y-70268574D01*
X119378320Y-70529727D01*
X119535363Y-70764759D01*
X119735241Y-70964637D01*
X119967759Y-71120000D01*
X119735241Y-71275363D01*
X119535363Y-71475241D01*
X119378320Y-71710273D01*
X119270147Y-71971426D01*
X119215000Y-72248665D01*
X119215000Y-72531335D01*
X119270147Y-72808574D01*
X119378320Y-73069727D01*
X119535363Y-73304759D01*
X119735241Y-73504637D01*
X119967759Y-73660000D01*
X119735241Y-73815363D01*
X119535363Y-74015241D01*
X119378320Y-74250273D01*
X119270147Y-74511426D01*
X119215000Y-74788665D01*
X119215000Y-75071335D01*
X119270147Y-75348574D01*
X119378320Y-75609727D01*
X119535363Y-75844759D01*
X119735241Y-76044637D01*
X119967759Y-76200000D01*
X119735241Y-76355363D01*
X119535363Y-76555241D01*
X119378320Y-76790273D01*
X119270147Y-77051426D01*
X119215000Y-77328665D01*
X119215000Y-77611335D01*
X119270147Y-77888574D01*
X119378320Y-78149727D01*
X119535363Y-78384759D01*
X119735241Y-78584637D01*
X119967759Y-78740000D01*
X119735241Y-78895363D01*
X119535363Y-79095241D01*
X119378320Y-79330273D01*
X119270147Y-79591426D01*
X119215000Y-79868665D01*
X119215000Y-80151335D01*
X119270147Y-80428574D01*
X119378320Y-80689727D01*
X119535363Y-80924759D01*
X119735241Y-81124637D01*
X119967759Y-81280000D01*
X119735241Y-81435363D01*
X119535363Y-81635241D01*
X119378320Y-81870273D01*
X119270147Y-82131426D01*
X119215000Y-82408665D01*
X119215000Y-82691335D01*
X119270147Y-82968574D01*
X119378320Y-83229727D01*
X119535363Y-83464759D01*
X119735241Y-83664637D01*
X119967759Y-83820000D01*
X119735241Y-83975363D01*
X119535363Y-84175241D01*
X119378320Y-84410273D01*
X119270147Y-84671426D01*
X119215000Y-84948665D01*
X119215000Y-85231335D01*
X119270147Y-85508574D01*
X119378320Y-85769727D01*
X119535363Y-86004759D01*
X119735241Y-86204637D01*
X119967759Y-86360000D01*
X119735241Y-86515363D01*
X119535363Y-86715241D01*
X119378320Y-86950273D01*
X119270147Y-87211426D01*
X119215000Y-87488665D01*
X119215000Y-87771335D01*
X119270147Y-88048574D01*
X119378320Y-88309727D01*
X119535363Y-88544759D01*
X119735241Y-88744637D01*
X119967759Y-88900000D01*
X119735241Y-89055363D01*
X119535363Y-89255241D01*
X119378320Y-89490273D01*
X119270147Y-89751426D01*
X119215000Y-90028665D01*
X119215000Y-90311335D01*
X119270147Y-90588574D01*
X119378320Y-90849727D01*
X119535363Y-91084759D01*
X119735241Y-91284637D01*
X119967759Y-91440000D01*
X119735241Y-91595363D01*
X119535363Y-91795241D01*
X119378320Y-92030273D01*
X119270147Y-92291426D01*
X119215000Y-92568665D01*
X119215000Y-92851335D01*
X119270147Y-93128574D01*
X119378320Y-93389727D01*
X119535363Y-93624759D01*
X119735241Y-93824637D01*
X119967759Y-93980000D01*
X119735241Y-94135363D01*
X119535363Y-94335241D01*
X119378320Y-94570273D01*
X119270147Y-94831426D01*
X119215000Y-95108665D01*
X119215000Y-95391335D01*
X119270147Y-95668574D01*
X119378320Y-95929727D01*
X119535363Y-96164759D01*
X119735241Y-96364637D01*
X119967759Y-96520000D01*
X119735241Y-96675363D01*
X119535363Y-96875241D01*
X119378320Y-97110273D01*
X119270147Y-97371426D01*
X119215000Y-97648665D01*
X119215000Y-97931335D01*
X119270147Y-98208574D01*
X119378320Y-98469727D01*
X119535363Y-98704759D01*
X119735241Y-98904637D01*
X119970273Y-99061680D01*
X120231426Y-99169853D01*
X120508665Y-99225000D01*
X120791335Y-99225000D01*
X121068574Y-99169853D01*
X121329727Y-99061680D01*
X121564759Y-98904637D01*
X121764637Y-98704759D01*
X121921680Y-98469727D01*
X122029853Y-98208574D01*
X122085000Y-97931335D01*
X122085000Y-97648665D01*
X122029853Y-97371426D01*
X121921680Y-97110273D01*
X121764637Y-96875241D01*
X121564759Y-96675363D01*
X121332241Y-96520000D01*
X121564759Y-96364637D01*
X121764637Y-96164759D01*
X121921680Y-95929727D01*
X122029853Y-95668574D01*
X122085000Y-95391335D01*
X122085000Y-95108665D01*
X122029853Y-94831426D01*
X121921680Y-94570273D01*
X121764637Y-94335241D01*
X121564759Y-94135363D01*
X121332241Y-93980000D01*
X121564759Y-93824637D01*
X121764637Y-93624759D01*
X121921680Y-93389727D01*
X122029853Y-93128574D01*
X122085000Y-92851335D01*
X122085000Y-92568665D01*
X122029853Y-92291426D01*
X121921680Y-92030273D01*
X121764637Y-91795241D01*
X121564759Y-91595363D01*
X121332241Y-91440000D01*
X121564759Y-91284637D01*
X121764637Y-91084759D01*
X121921680Y-90849727D01*
X122029853Y-90588574D01*
X122085000Y-90311335D01*
X122085000Y-90028665D01*
X122029853Y-89751426D01*
X121921680Y-89490273D01*
X121764637Y-89255241D01*
X121564759Y-89055363D01*
X121332241Y-88900000D01*
X121564759Y-88744637D01*
X121764637Y-88544759D01*
X121921680Y-88309727D01*
X122029853Y-88048574D01*
X122085000Y-87771335D01*
X122085000Y-87488665D01*
X122029853Y-87211426D01*
X121921680Y-86950273D01*
X121764637Y-86715241D01*
X121564759Y-86515363D01*
X121332241Y-86360000D01*
X121564759Y-86204637D01*
X121764637Y-86004759D01*
X121921680Y-85769727D01*
X122029853Y-85508574D01*
X122085000Y-85231335D01*
X122085000Y-84948665D01*
X122029853Y-84671426D01*
X121921680Y-84410273D01*
X121764637Y-84175241D01*
X121564759Y-83975363D01*
X121332241Y-83820000D01*
X121564759Y-83664637D01*
X121764637Y-83464759D01*
X121921680Y-83229727D01*
X122029853Y-82968574D01*
X122085000Y-82691335D01*
X122085000Y-82408665D01*
X122029853Y-82131426D01*
X121921680Y-81870273D01*
X121764637Y-81635241D01*
X121564759Y-81435363D01*
X121332241Y-81280000D01*
X121564759Y-81124637D01*
X121764637Y-80924759D01*
X121868043Y-80770000D01*
X121882678Y-80770000D01*
X121920000Y-80773676D01*
X121957322Y-80770000D01*
X121957333Y-80770000D01*
X122068986Y-80759003D01*
X122212247Y-80715546D01*
X122344276Y-80644974D01*
X122460001Y-80550001D01*
X122483804Y-80520997D01*
X124971009Y-78033794D01*
X125000001Y-78010001D01*
X125023795Y-77981008D01*
X125023799Y-77981004D01*
X125094973Y-77894277D01*
X125094974Y-77894276D01*
X125165546Y-77762247D01*
X125209003Y-77618986D01*
X125220000Y-77507333D01*
X125220000Y-77507324D01*
X125223676Y-77470001D01*
X125220000Y-77432678D01*
X125220000Y-47027322D01*
X125223676Y-46989999D01*
X125220000Y-46952676D01*
X125220000Y-46952667D01*
X125209003Y-46841014D01*
X125165546Y-46697753D01*
X125094974Y-46565724D01*
X125000001Y-46449999D01*
X124971003Y-46426201D01*
X123753804Y-45209003D01*
X123730001Y-45179999D01*
X123614276Y-45085026D01*
X123482247Y-45014454D01*
X123338986Y-44970997D01*
X123227333Y-44960000D01*
X123227322Y-44960000D01*
X123190000Y-44956324D01*
X123152678Y-44960000D01*
X119388178Y-44960000D01*
X119263475Y-44773368D01*
X119131620Y-44641513D01*
X119204180Y-44619502D01*
X119314494Y-44560537D01*
X119411185Y-44481185D01*
X119490537Y-44384494D01*
X119549502Y-44274180D01*
X119585812Y-44154482D01*
X119598072Y-44030000D01*
X119598072Y-42330000D01*
X119585812Y-42205518D01*
X119549502Y-42085820D01*
X119490537Y-41975506D01*
X119411185Y-41878815D01*
X119314494Y-41799463D01*
X119204180Y-41740498D01*
X119084482Y-41704188D01*
X118960000Y-41691928D01*
X117260000Y-41691928D01*
X117135518Y-41704188D01*
X117015820Y-41740498D01*
X116905506Y-41799463D01*
X116808815Y-41878815D01*
X116729463Y-41975506D01*
X116670498Y-42085820D01*
X116634188Y-42205518D01*
X116621928Y-42330000D01*
X112917908Y-42330000D01*
X112874637Y-42265241D01*
X112674759Y-42065363D01*
X112439727Y-41908320D01*
X112178574Y-41800147D01*
X111901335Y-41745000D01*
X111618665Y-41745000D01*
X111341426Y-41800147D01*
X111080273Y-41908320D01*
X110845241Y-42065363D01*
X110645363Y-42265241D01*
X110488320Y-42500273D01*
X110380147Y-42761426D01*
X110325000Y-43038665D01*
X103035000Y-43038665D01*
X102979853Y-42761426D01*
X102871680Y-42500273D01*
X102714637Y-42265241D01*
X102514759Y-42065363D01*
X102279727Y-41908320D01*
X102018574Y-41800147D01*
X101741335Y-41745000D01*
X101458665Y-41745000D01*
X101181426Y-41800147D01*
X100920273Y-41908320D01*
X100715716Y-42045000D01*
X97845752Y-42045000D01*
X97790000Y-42039509D01*
X97734249Y-42045000D01*
X97734248Y-42045000D01*
X97567501Y-42061423D01*
X97353553Y-42126324D01*
X97156377Y-42231716D01*
X96983551Y-42373551D01*
X96841716Y-42546377D01*
X96736324Y-42743553D01*
X96671423Y-42957501D01*
X96649509Y-43180000D01*
X96655001Y-43235762D01*
X96655000Y-48395000D01*
X78605000Y-48395000D01*
X78605000Y-45775752D01*
X78610491Y-45720000D01*
X78588577Y-45497501D01*
X78523676Y-45283553D01*
X78418284Y-45086377D01*
X78311989Y-44956856D01*
X78311987Y-44956854D01*
X78276449Y-44913551D01*
X78233146Y-44878013D01*
X75087850Y-41732718D01*
X75039853Y-41491426D01*
X74931680Y-41230273D01*
X74774637Y-40995241D01*
X74574759Y-40795363D01*
X74339727Y-40638320D01*
X74078574Y-40530147D01*
X73837282Y-40482150D01*
X72140131Y-38785000D01*
X126315000Y-38785000D01*
X126315001Y-100915000D01*
G37*
%TD.AperFunction*%
D20*
X70360001Y-97475196D02*
X68265199Y-99570000D01*
X52384803Y-99570000D01*
X52039803Y-99225000D01*
X52211335Y-99225000D01*
X52488574Y-99169853D01*
X52749727Y-99061680D01*
X52984759Y-98904637D01*
X53184637Y-98704759D01*
X53340000Y-98472241D01*
X53495363Y-98704759D01*
X53695241Y-98904637D01*
X53930273Y-99061680D01*
X54191426Y-99169853D01*
X54468665Y-99225000D01*
X54751335Y-99225000D01*
X55028574Y-99169853D01*
X55289727Y-99061680D01*
X55524759Y-98904637D01*
X55724637Y-98704759D01*
X55881680Y-98469727D01*
X55886067Y-98459135D01*
X55997615Y-98645131D01*
X56186586Y-98853519D01*
X56412580Y-99021037D01*
X56666913Y-99141246D01*
X56800961Y-99181904D01*
X57023000Y-99059915D01*
X57023000Y-97917000D01*
X57003000Y-97917000D01*
X57003000Y-97663000D01*
X57023000Y-97663000D01*
X57023000Y-96520085D01*
X57277000Y-96520085D01*
X57277000Y-97663000D01*
X57297000Y-97663000D01*
X57297000Y-97917000D01*
X57277000Y-97917000D01*
X57277000Y-99059915D01*
X57499039Y-99181904D01*
X57633087Y-99141246D01*
X57887420Y-99021037D01*
X58113414Y-98853519D01*
X58302385Y-98645131D01*
X58413933Y-98459135D01*
X58418320Y-98469727D01*
X58575363Y-98704759D01*
X58775241Y-98904637D01*
X59010273Y-99061680D01*
X59271426Y-99169853D01*
X59548665Y-99225000D01*
X59831335Y-99225000D01*
X60108574Y-99169853D01*
X60369727Y-99061680D01*
X60604759Y-98904637D01*
X60804637Y-98704759D01*
X60960000Y-98472241D01*
X61115363Y-98704759D01*
X61315241Y-98904637D01*
X61550273Y-99061680D01*
X61811426Y-99169853D01*
X62088665Y-99225000D01*
X62371335Y-99225000D01*
X62648574Y-99169853D01*
X62909727Y-99061680D01*
X63144759Y-98904637D01*
X63344637Y-98704759D01*
X63501680Y-98469727D01*
X63506067Y-98459135D01*
X63617615Y-98645131D01*
X63806586Y-98853519D01*
X64032580Y-99021037D01*
X64286913Y-99141246D01*
X64420961Y-99181904D01*
X64643000Y-99059915D01*
X64643000Y-97917000D01*
X64897000Y-97917000D01*
X64897000Y-99059915D01*
X65119039Y-99181904D01*
X65253087Y-99141246D01*
X65507420Y-99021037D01*
X65733414Y-98853519D01*
X65922385Y-98645131D01*
X66067070Y-98403881D01*
X66161909Y-98139040D01*
X66040624Y-97917000D01*
X64897000Y-97917000D01*
X64643000Y-97917000D01*
X64623000Y-97917000D01*
X64623000Y-97663000D01*
X64643000Y-97663000D01*
X64643000Y-96520085D01*
X64897000Y-96520085D01*
X64897000Y-97663000D01*
X66040624Y-97663000D01*
X66161909Y-97440960D01*
X66067070Y-97176119D01*
X65922385Y-96934869D01*
X65733414Y-96726481D01*
X65507420Y-96558963D01*
X65253087Y-96438754D01*
X65119039Y-96398096D01*
X64897000Y-96520085D01*
X64643000Y-96520085D01*
X64420961Y-96398096D01*
X64286913Y-96438754D01*
X64032580Y-96558963D01*
X63806586Y-96726481D01*
X63617615Y-96934869D01*
X63506067Y-97120865D01*
X63501680Y-97110273D01*
X63344637Y-96875241D01*
X63144759Y-96675363D01*
X62909727Y-96518320D01*
X62648574Y-96410147D01*
X62371335Y-96355000D01*
X62088665Y-96355000D01*
X61811426Y-96410147D01*
X61550273Y-96518320D01*
X61315241Y-96675363D01*
X61115363Y-96875241D01*
X60960000Y-97107759D01*
X60804637Y-96875241D01*
X60604759Y-96675363D01*
X60369727Y-96518320D01*
X60108574Y-96410147D01*
X59831335Y-96355000D01*
X59548665Y-96355000D01*
X59271426Y-96410147D01*
X59010273Y-96518320D01*
X58775241Y-96675363D01*
X58575363Y-96875241D01*
X58418320Y-97110273D01*
X58413933Y-97120865D01*
X58302385Y-96934869D01*
X58113414Y-96726481D01*
X57887420Y-96558963D01*
X57633087Y-96438754D01*
X57499039Y-96398096D01*
X57277000Y-96520085D01*
X57023000Y-96520085D01*
X56800961Y-96398096D01*
X56666913Y-96438754D01*
X56412580Y-96558963D01*
X56186586Y-96726481D01*
X55997615Y-96934869D01*
X55886067Y-97120865D01*
X55881680Y-97110273D01*
X55724637Y-96875241D01*
X55524759Y-96675363D01*
X55370000Y-96571957D01*
X55370000Y-95564801D01*
X56194802Y-94740000D01*
X67272678Y-94740000D01*
X67310000Y-94743676D01*
X67347322Y-94740000D01*
X67347333Y-94740000D01*
X67458986Y-94729003D01*
X67602247Y-94685546D01*
X67734276Y-94614974D01*
X67850001Y-94520001D01*
X67873804Y-94490997D01*
X70360001Y-92004802D01*
X70360001Y-97475196D01*
%TA.AperFunction,Conductor*%
D21*
G36*
X70360001Y-97475196D02*
G01*
X68265199Y-99570000D01*
X52384803Y-99570000D01*
X52039803Y-99225000D01*
X52211335Y-99225000D01*
X52488574Y-99169853D01*
X52749727Y-99061680D01*
X52984759Y-98904637D01*
X53184637Y-98704759D01*
X53340000Y-98472241D01*
X53495363Y-98704759D01*
X53695241Y-98904637D01*
X53930273Y-99061680D01*
X54191426Y-99169853D01*
X54468665Y-99225000D01*
X54751335Y-99225000D01*
X55028574Y-99169853D01*
X55289727Y-99061680D01*
X55524759Y-98904637D01*
X55724637Y-98704759D01*
X55881680Y-98469727D01*
X55886067Y-98459135D01*
X55997615Y-98645131D01*
X56186586Y-98853519D01*
X56412580Y-99021037D01*
X56666913Y-99141246D01*
X56800961Y-99181904D01*
X57023000Y-99059915D01*
X57023000Y-97917000D01*
X57003000Y-97917000D01*
X57003000Y-97663000D01*
X57023000Y-97663000D01*
X57023000Y-96520085D01*
X57277000Y-96520085D01*
X57277000Y-97663000D01*
X57297000Y-97663000D01*
X57297000Y-97917000D01*
X57277000Y-97917000D01*
X57277000Y-99059915D01*
X57499039Y-99181904D01*
X57633087Y-99141246D01*
X57887420Y-99021037D01*
X58113414Y-98853519D01*
X58302385Y-98645131D01*
X58413933Y-98459135D01*
X58418320Y-98469727D01*
X58575363Y-98704759D01*
X58775241Y-98904637D01*
X59010273Y-99061680D01*
X59271426Y-99169853D01*
X59548665Y-99225000D01*
X59831335Y-99225000D01*
X60108574Y-99169853D01*
X60369727Y-99061680D01*
X60604759Y-98904637D01*
X60804637Y-98704759D01*
X60960000Y-98472241D01*
X61115363Y-98704759D01*
X61315241Y-98904637D01*
X61550273Y-99061680D01*
X61811426Y-99169853D01*
X62088665Y-99225000D01*
X62371335Y-99225000D01*
X62648574Y-99169853D01*
X62909727Y-99061680D01*
X63144759Y-98904637D01*
X63344637Y-98704759D01*
X63501680Y-98469727D01*
X63506067Y-98459135D01*
X63617615Y-98645131D01*
X63806586Y-98853519D01*
X64032580Y-99021037D01*
X64286913Y-99141246D01*
X64420961Y-99181904D01*
X64643000Y-99059915D01*
X64643000Y-97917000D01*
X64897000Y-97917000D01*
X64897000Y-99059915D01*
X65119039Y-99181904D01*
X65253087Y-99141246D01*
X65507420Y-99021037D01*
X65733414Y-98853519D01*
X65922385Y-98645131D01*
X66067070Y-98403881D01*
X66161909Y-98139040D01*
X66040624Y-97917000D01*
X64897000Y-97917000D01*
X64643000Y-97917000D01*
X64623000Y-97917000D01*
X64623000Y-97663000D01*
X64643000Y-97663000D01*
X64643000Y-96520085D01*
X64897000Y-96520085D01*
X64897000Y-97663000D01*
X66040624Y-97663000D01*
X66161909Y-97440960D01*
X66067070Y-97176119D01*
X65922385Y-96934869D01*
X65733414Y-96726481D01*
X65507420Y-96558963D01*
X65253087Y-96438754D01*
X65119039Y-96398096D01*
X64897000Y-96520085D01*
X64643000Y-96520085D01*
X64420961Y-96398096D01*
X64286913Y-96438754D01*
X64032580Y-96558963D01*
X63806586Y-96726481D01*
X63617615Y-96934869D01*
X63506067Y-97120865D01*
X63501680Y-97110273D01*
X63344637Y-96875241D01*
X63144759Y-96675363D01*
X62909727Y-96518320D01*
X62648574Y-96410147D01*
X62371335Y-96355000D01*
X62088665Y-96355000D01*
X61811426Y-96410147D01*
X61550273Y-96518320D01*
X61315241Y-96675363D01*
X61115363Y-96875241D01*
X60960000Y-97107759D01*
X60804637Y-96875241D01*
X60604759Y-96675363D01*
X60369727Y-96518320D01*
X60108574Y-96410147D01*
X59831335Y-96355000D01*
X59548665Y-96355000D01*
X59271426Y-96410147D01*
X59010273Y-96518320D01*
X58775241Y-96675363D01*
X58575363Y-96875241D01*
X58418320Y-97110273D01*
X58413933Y-97120865D01*
X58302385Y-96934869D01*
X58113414Y-96726481D01*
X57887420Y-96558963D01*
X57633087Y-96438754D01*
X57499039Y-96398096D01*
X57277000Y-96520085D01*
X57023000Y-96520085D01*
X56800961Y-96398096D01*
X56666913Y-96438754D01*
X56412580Y-96558963D01*
X56186586Y-96726481D01*
X55997615Y-96934869D01*
X55886067Y-97120865D01*
X55881680Y-97110273D01*
X55724637Y-96875241D01*
X55524759Y-96675363D01*
X55370000Y-96571957D01*
X55370000Y-95564801D01*
X56194802Y-94740000D01*
X67272678Y-94740000D01*
X67310000Y-94743676D01*
X67347322Y-94740000D01*
X67347333Y-94740000D01*
X67458986Y-94729003D01*
X67602247Y-94685546D01*
X67734276Y-94614974D01*
X67850001Y-94520001D01*
X67873804Y-94490997D01*
X70360001Y-92004802D01*
X70360001Y-97475196D01*
G37*
%TD.AperFunction*%
D20*
X72232150Y-42087282D02*
X72280147Y-42328574D01*
X72388320Y-42589727D01*
X72545363Y-42824759D01*
X72745241Y-43024637D01*
X72980273Y-43181680D01*
X73241426Y-43289853D01*
X73482718Y-43337850D01*
X76335001Y-46190134D01*
X76335000Y-49474248D01*
X76329509Y-49530000D01*
X76335001Y-49585762D01*
X76335000Y-52869868D01*
X74752718Y-54452150D01*
X74511426Y-54500147D01*
X74250273Y-54608320D01*
X74015241Y-54765363D01*
X73815363Y-54965241D01*
X73658320Y-55200273D01*
X73550147Y-55461426D01*
X73495000Y-55738665D01*
X73495000Y-56021335D01*
X73550147Y-56298574D01*
X73658320Y-56559727D01*
X73815363Y-56794759D01*
X74015241Y-56994637D01*
X74247759Y-57150000D01*
X74015241Y-57305363D01*
X73815363Y-57505241D01*
X73658320Y-57740273D01*
X73550147Y-58001426D01*
X73495000Y-58278665D01*
X73495000Y-58561335D01*
X73550147Y-58838574D01*
X73658320Y-59099727D01*
X73815363Y-59334759D01*
X74015241Y-59534637D01*
X74247759Y-59690000D01*
X74015241Y-59845363D01*
X73815363Y-60045241D01*
X73658320Y-60280273D01*
X73550147Y-60541426D01*
X73495000Y-60818665D01*
X73495000Y-61101335D01*
X73531312Y-61283886D01*
X68069003Y-66746196D01*
X68039999Y-66769999D01*
X67984871Y-66837174D01*
X67945026Y-66885724D01*
X67908126Y-66954759D01*
X67874454Y-67017754D01*
X67830997Y-67161015D01*
X67820000Y-67272668D01*
X67820000Y-67272678D01*
X67816324Y-67310000D01*
X67820000Y-67347322D01*
X67820001Y-91125197D01*
X66995199Y-91950000D01*
X52634622Y-91950000D01*
X52704974Y-91864276D01*
X52775546Y-91732247D01*
X52819003Y-91588986D01*
X52830000Y-91477333D01*
X52830000Y-91477324D01*
X52833676Y-91440001D01*
X52830000Y-91402678D01*
X52830000Y-91388043D01*
X52984759Y-91284637D01*
X53184637Y-91084759D01*
X53340000Y-90852241D01*
X53495363Y-91084759D01*
X53695241Y-91284637D01*
X53930273Y-91441680D01*
X54191426Y-91549853D01*
X54468665Y-91605000D01*
X54751335Y-91605000D01*
X55028574Y-91549853D01*
X55289727Y-91441680D01*
X55524759Y-91284637D01*
X55724637Y-91084759D01*
X55880000Y-90852241D01*
X56035363Y-91084759D01*
X56235241Y-91284637D01*
X56470273Y-91441680D01*
X56731426Y-91549853D01*
X57008665Y-91605000D01*
X57291335Y-91605000D01*
X57568574Y-91549853D01*
X57829727Y-91441680D01*
X58064759Y-91284637D01*
X58264637Y-91084759D01*
X58420000Y-90852241D01*
X58575363Y-91084759D01*
X58775241Y-91284637D01*
X59010273Y-91441680D01*
X59271426Y-91549853D01*
X59548665Y-91605000D01*
X59831335Y-91605000D01*
X60108574Y-91549853D01*
X60369727Y-91441680D01*
X60604759Y-91284637D01*
X60804637Y-91084759D01*
X60960000Y-90852241D01*
X61115363Y-91084759D01*
X61315241Y-91284637D01*
X61550273Y-91441680D01*
X61811426Y-91549853D01*
X62088665Y-91605000D01*
X62371335Y-91605000D01*
X62648574Y-91549853D01*
X62909727Y-91441680D01*
X63144759Y-91284637D01*
X63344637Y-91084759D01*
X63500000Y-90852241D01*
X63655363Y-91084759D01*
X63855241Y-91284637D01*
X64090273Y-91441680D01*
X64351426Y-91549853D01*
X64628665Y-91605000D01*
X64911335Y-91605000D01*
X65188574Y-91549853D01*
X65449727Y-91441680D01*
X65684759Y-91284637D01*
X65884637Y-91084759D01*
X66041680Y-90849727D01*
X66149853Y-90588574D01*
X66205000Y-90311335D01*
X66205000Y-90028665D01*
X66149853Y-89751426D01*
X66041680Y-89490273D01*
X65884637Y-89255241D01*
X65684759Y-89055363D01*
X65449727Y-88898320D01*
X65188574Y-88790147D01*
X64911335Y-88735000D01*
X64628665Y-88735000D01*
X64351426Y-88790147D01*
X64090273Y-88898320D01*
X63855241Y-89055363D01*
X63655363Y-89255241D01*
X63500000Y-89487759D01*
X63344637Y-89255241D01*
X63144759Y-89055363D01*
X62909727Y-88898320D01*
X62648574Y-88790147D01*
X62371335Y-88735000D01*
X62088665Y-88735000D01*
X61811426Y-88790147D01*
X61550273Y-88898320D01*
X61315241Y-89055363D01*
X61115363Y-89255241D01*
X60960000Y-89487759D01*
X60804637Y-89255241D01*
X60604759Y-89055363D01*
X60369727Y-88898320D01*
X60108574Y-88790147D01*
X59831335Y-88735000D01*
X59548665Y-88735000D01*
X59271426Y-88790147D01*
X59010273Y-88898320D01*
X58775241Y-89055363D01*
X58575363Y-89255241D01*
X58420000Y-89487759D01*
X58264637Y-89255241D01*
X58064759Y-89055363D01*
X57910000Y-88951957D01*
X57910000Y-84169039D01*
X58298096Y-84169039D01*
X58338754Y-84303087D01*
X58458963Y-84557420D01*
X58626481Y-84783414D01*
X58834869Y-84972385D01*
X59076119Y-85117070D01*
X59340960Y-85211909D01*
X59563000Y-85090624D01*
X59563000Y-83947000D01*
X59817000Y-83947000D01*
X59817000Y-85090624D01*
X60039040Y-85211909D01*
X60303881Y-85117070D01*
X60545131Y-84972385D01*
X60753519Y-84783414D01*
X60921037Y-84557420D01*
X61041246Y-84303087D01*
X61081904Y-84169039D01*
X60959915Y-83947000D01*
X59817000Y-83947000D01*
X59563000Y-83947000D01*
X58420085Y-83947000D01*
X58298096Y-84169039D01*
X57910000Y-84169039D01*
X57910000Y-76237323D01*
X57913676Y-76200000D01*
X57910000Y-76162677D01*
X57910000Y-76162667D01*
X57899003Y-76051014D01*
X57855546Y-75907753D01*
X57788022Y-75781426D01*
X57784974Y-75775723D01*
X57713799Y-75688997D01*
X57690001Y-75659999D01*
X57661003Y-75636201D01*
X53468688Y-71443887D01*
X53505000Y-71261335D01*
X53505000Y-70978665D01*
X53449853Y-70701426D01*
X53341680Y-70440273D01*
X53184637Y-70205241D01*
X52984759Y-70005363D01*
X52752241Y-69850000D01*
X52984759Y-69694637D01*
X53184637Y-69494759D01*
X53341680Y-69259727D01*
X53449853Y-68998574D01*
X53505000Y-68721335D01*
X53505000Y-68438665D01*
X53449853Y-68161426D01*
X53341680Y-67900273D01*
X53205000Y-67695716D01*
X53205000Y-61844284D01*
X53341680Y-61639727D01*
X53449853Y-61378574D01*
X53505000Y-61101335D01*
X53505000Y-60818665D01*
X53449853Y-60541426D01*
X53341680Y-60280273D01*
X53205000Y-60075716D01*
X53205000Y-59745741D01*
X53210490Y-59689999D01*
X53205000Y-59634257D01*
X53205000Y-59634248D01*
X53188577Y-59467501D01*
X53123676Y-59253553D01*
X53018284Y-59056377D01*
X52876449Y-58883551D01*
X52833141Y-58848009D01*
X50665000Y-56679869D01*
X50665000Y-50870957D01*
X50684494Y-50860537D01*
X50781185Y-50781185D01*
X50860537Y-50684494D01*
X50919502Y-50574180D01*
X50955812Y-50454482D01*
X50956643Y-50446039D01*
X51155241Y-50644637D01*
X51310001Y-50748044D01*
X51310000Y-52032677D01*
X51306324Y-52070000D01*
X51310000Y-52107322D01*
X51310000Y-52107332D01*
X51320997Y-52218985D01*
X51364454Y-52362246D01*
X51435026Y-52494276D01*
X51474871Y-52542826D01*
X51529999Y-52610001D01*
X51559003Y-52633804D01*
X52776200Y-53851002D01*
X52799999Y-53880001D01*
X52915724Y-53974974D01*
X53047753Y-54045546D01*
X53191014Y-54089003D01*
X53302667Y-54100000D01*
X53302676Y-54100000D01*
X53339999Y-54103676D01*
X53377322Y-54100000D01*
X61915199Y-54100000D01*
X62740001Y-54924803D01*
X62740000Y-69535198D01*
X61125000Y-71150198D01*
X61125000Y-70978665D01*
X61069853Y-70701426D01*
X60961680Y-70440273D01*
X60804637Y-70205241D01*
X60604759Y-70005363D01*
X60372241Y-69850000D01*
X60604759Y-69694637D01*
X60804637Y-69494759D01*
X60961680Y-69259727D01*
X61069853Y-68998574D01*
X61125000Y-68721335D01*
X61125000Y-68438665D01*
X61069853Y-68161426D01*
X60961680Y-67900273D01*
X60804637Y-67665241D01*
X60604759Y-67465363D01*
X60372241Y-67310000D01*
X60604759Y-67154637D01*
X60804637Y-66954759D01*
X60961680Y-66719727D01*
X61069853Y-66458574D01*
X61125000Y-66181335D01*
X61125000Y-65898665D01*
X61069853Y-65621426D01*
X60961680Y-65360273D01*
X60804637Y-65125241D01*
X60604759Y-64925363D01*
X60372241Y-64770000D01*
X60604759Y-64614637D01*
X60804637Y-64414759D01*
X60961680Y-64179727D01*
X61069853Y-63918574D01*
X61125000Y-63641335D01*
X61125000Y-63358665D01*
X61069853Y-63081426D01*
X60961680Y-62820273D01*
X60804637Y-62585241D01*
X60604759Y-62385363D01*
X60372241Y-62230000D01*
X60604759Y-62074637D01*
X60804637Y-61874759D01*
X60961680Y-61639727D01*
X61069853Y-61378574D01*
X61125000Y-61101335D01*
X61125000Y-60818665D01*
X61069853Y-60541426D01*
X60961680Y-60280273D01*
X60804637Y-60045241D01*
X60604759Y-59845363D01*
X60372241Y-59690000D01*
X60604759Y-59534637D01*
X60804637Y-59334759D01*
X60961680Y-59099727D01*
X61069853Y-58838574D01*
X61125000Y-58561335D01*
X61125000Y-58278665D01*
X61069853Y-58001426D01*
X60961680Y-57740273D01*
X60804637Y-57505241D01*
X60606039Y-57306643D01*
X60614482Y-57305812D01*
X60734180Y-57269502D01*
X60844494Y-57210537D01*
X60941185Y-57131185D01*
X61020537Y-57034494D01*
X61079502Y-56924180D01*
X61115812Y-56804482D01*
X61128072Y-56680000D01*
X61128072Y-55080000D01*
X61115812Y-54955518D01*
X61079502Y-54835820D01*
X61020537Y-54725506D01*
X60941185Y-54628815D01*
X60844494Y-54549463D01*
X60734180Y-54490498D01*
X60614482Y-54454188D01*
X60490000Y-54441928D01*
X58890000Y-54441928D01*
X58765518Y-54454188D01*
X58645820Y-54490498D01*
X58535506Y-54549463D01*
X58438815Y-54628815D01*
X58359463Y-54725506D01*
X58300498Y-54835820D01*
X58264188Y-54955518D01*
X58251928Y-55080000D01*
X58251928Y-56680000D01*
X58264188Y-56804482D01*
X58300498Y-56924180D01*
X58359463Y-57034494D01*
X58438815Y-57131185D01*
X58535506Y-57210537D01*
X58645820Y-57269502D01*
X58765518Y-57305812D01*
X58773961Y-57306643D01*
X58575363Y-57505241D01*
X58418320Y-57740273D01*
X58310147Y-58001426D01*
X58255000Y-58278665D01*
X58255000Y-58561335D01*
X58310147Y-58838574D01*
X58418320Y-59099727D01*
X58575363Y-59334759D01*
X58775241Y-59534637D01*
X59007759Y-59690000D01*
X58775241Y-59845363D01*
X58575363Y-60045241D01*
X58418320Y-60280273D01*
X58310147Y-60541426D01*
X58255000Y-60818665D01*
X58255000Y-61101335D01*
X58310147Y-61378574D01*
X58418320Y-61639727D01*
X58575363Y-61874759D01*
X58775241Y-62074637D01*
X59007759Y-62230000D01*
X58775241Y-62385363D01*
X58575363Y-62585241D01*
X58418320Y-62820273D01*
X58310147Y-63081426D01*
X58255000Y-63358665D01*
X58255000Y-63641335D01*
X58310147Y-63918574D01*
X58418320Y-64179727D01*
X58575363Y-64414759D01*
X58775241Y-64614637D01*
X59007759Y-64770000D01*
X58775241Y-64925363D01*
X58575363Y-65125241D01*
X58418320Y-65360273D01*
X58310147Y-65621426D01*
X58255000Y-65898665D01*
X58255000Y-66181335D01*
X58310147Y-66458574D01*
X58418320Y-66719727D01*
X58575363Y-66954759D01*
X58775241Y-67154637D01*
X59007759Y-67310000D01*
X58775241Y-67465363D01*
X58575363Y-67665241D01*
X58418320Y-67900273D01*
X58310147Y-68161426D01*
X58255000Y-68438665D01*
X58255000Y-68721335D01*
X58310147Y-68998574D01*
X58418320Y-69259727D01*
X58575363Y-69494759D01*
X58775241Y-69694637D01*
X59007759Y-69850000D01*
X58775241Y-70005363D01*
X58575363Y-70205241D01*
X58418320Y-70440273D01*
X58310147Y-70701426D01*
X58255000Y-70978665D01*
X58255000Y-71261335D01*
X58310147Y-71538574D01*
X58418320Y-71799727D01*
X58575363Y-72034759D01*
X58775241Y-72234637D01*
X59007759Y-72390000D01*
X58775241Y-72545363D01*
X58575363Y-72745241D01*
X58418320Y-72980273D01*
X58310147Y-73241426D01*
X58255000Y-73518665D01*
X58255000Y-73801335D01*
X58310147Y-74078574D01*
X58418320Y-74339727D01*
X58575363Y-74574759D01*
X58775241Y-74774637D01*
X59007759Y-74930000D01*
X58775241Y-75085363D01*
X58575363Y-75285241D01*
X58418320Y-75520273D01*
X58310147Y-75781426D01*
X58255000Y-76058665D01*
X58255000Y-76341335D01*
X58310147Y-76618574D01*
X58418320Y-76879727D01*
X58575363Y-77114759D01*
X58775241Y-77314637D01*
X59007759Y-77470000D01*
X58775241Y-77625363D01*
X58575363Y-77825241D01*
X58418320Y-78060273D01*
X58310147Y-78321426D01*
X58255000Y-78598665D01*
X58255000Y-78881335D01*
X58310147Y-79158574D01*
X58418320Y-79419727D01*
X58575363Y-79654759D01*
X58775241Y-79854637D01*
X59007759Y-80010000D01*
X58775241Y-80165363D01*
X58575363Y-80365241D01*
X58418320Y-80600273D01*
X58310147Y-80861426D01*
X58255000Y-81138665D01*
X58255000Y-81421335D01*
X58310147Y-81698574D01*
X58418320Y-81959727D01*
X58575363Y-82194759D01*
X58775241Y-82394637D01*
X59010273Y-82551680D01*
X59020865Y-82556067D01*
X58834869Y-82667615D01*
X58626481Y-82856586D01*
X58458963Y-83082580D01*
X58338754Y-83336913D01*
X58298096Y-83470961D01*
X58420085Y-83693000D01*
X59563000Y-83693000D01*
X59563000Y-83673000D01*
X59817000Y-83673000D01*
X59817000Y-83693000D01*
X60959915Y-83693000D01*
X61081904Y-83470961D01*
X61041246Y-83336913D01*
X60921037Y-83082580D01*
X60753519Y-82856586D01*
X60545131Y-82667615D01*
X60359135Y-82556067D01*
X60369727Y-82551680D01*
X60604759Y-82394637D01*
X60804637Y-82194759D01*
X60961680Y-81959727D01*
X61069853Y-81698574D01*
X61125000Y-81421335D01*
X61125000Y-81138665D01*
X61069853Y-80861426D01*
X60961680Y-80600273D01*
X60804637Y-80365241D01*
X60604759Y-80165363D01*
X60372241Y-80010000D01*
X60604759Y-79854637D01*
X60804637Y-79654759D01*
X60961680Y-79419727D01*
X61069853Y-79158574D01*
X61125000Y-78881335D01*
X61125000Y-78598665D01*
X61069853Y-78321426D01*
X60961680Y-78060273D01*
X60804637Y-77825241D01*
X60604759Y-77625363D01*
X60372241Y-77470000D01*
X60604759Y-77314637D01*
X60804637Y-77114759D01*
X60961680Y-76879727D01*
X61069853Y-76618574D01*
X61125000Y-76341335D01*
X61125000Y-76058665D01*
X61069853Y-75781426D01*
X60961680Y-75520273D01*
X60804637Y-75285241D01*
X60604759Y-75085363D01*
X60372241Y-74930000D01*
X60604759Y-74774637D01*
X60804637Y-74574759D01*
X60961680Y-74339727D01*
X61069853Y-74078574D01*
X61125000Y-73801335D01*
X61125000Y-73518665D01*
X61088688Y-73336113D01*
X64011004Y-70413798D01*
X64040001Y-70390001D01*
X64134974Y-70274276D01*
X64205546Y-70142247D01*
X64249003Y-69998986D01*
X64260000Y-69887333D01*
X64260000Y-69887325D01*
X64263676Y-69850000D01*
X64260000Y-69812675D01*
X64260000Y-54647322D01*
X64263676Y-54609999D01*
X64260000Y-54572676D01*
X64260000Y-54572667D01*
X64249003Y-54461014D01*
X64205546Y-54317753D01*
X64134974Y-54185724D01*
X64040001Y-54069999D01*
X64011003Y-54046201D01*
X62793804Y-52829003D01*
X62770001Y-52799999D01*
X62654276Y-52705026D01*
X62522247Y-52634454D01*
X62378986Y-52590997D01*
X62267333Y-52580000D01*
X62267322Y-52580000D01*
X62230000Y-52576324D01*
X62192678Y-52580000D01*
X57714801Y-52580000D01*
X58931003Y-51363799D01*
X58960001Y-51340001D01*
X59054974Y-51224276D01*
X59125546Y-51092247D01*
X59169003Y-50948986D01*
X59176721Y-50870625D01*
X59271426Y-50909853D01*
X59548665Y-50965000D01*
X59831335Y-50965000D01*
X60108574Y-50909853D01*
X60369727Y-50801680D01*
X60604759Y-50644637D01*
X60804637Y-50444759D01*
X60960000Y-50212241D01*
X61115363Y-50444759D01*
X61315241Y-50644637D01*
X61550273Y-50801680D01*
X61811426Y-50909853D01*
X62088665Y-50965000D01*
X62371335Y-50965000D01*
X62648574Y-50909853D01*
X62909727Y-50801680D01*
X63144759Y-50644637D01*
X63344637Y-50444759D01*
X63501680Y-50209727D01*
X63506067Y-50199135D01*
X63617615Y-50385131D01*
X63806586Y-50593519D01*
X64032580Y-50761037D01*
X64286913Y-50881246D01*
X64420961Y-50921904D01*
X64643000Y-50799915D01*
X64643000Y-49657000D01*
X64897000Y-49657000D01*
X64897000Y-50799915D01*
X65119039Y-50921904D01*
X65253087Y-50881246D01*
X65507420Y-50761037D01*
X65733414Y-50593519D01*
X65922385Y-50385131D01*
X66067070Y-50143881D01*
X66161909Y-49879040D01*
X66096362Y-49759040D01*
X72268091Y-49759040D01*
X72362930Y-50023881D01*
X72507615Y-50265131D01*
X72696586Y-50473519D01*
X72922580Y-50641037D01*
X73176913Y-50761246D01*
X73310961Y-50801904D01*
X73533000Y-50679915D01*
X73533000Y-49537000D01*
X73787000Y-49537000D01*
X73787000Y-50679915D01*
X74009039Y-50801904D01*
X74143087Y-50761246D01*
X74397420Y-50641037D01*
X74623414Y-50473519D01*
X74812385Y-50265131D01*
X74957070Y-50023881D01*
X75051909Y-49759040D01*
X74930624Y-49537000D01*
X73787000Y-49537000D01*
X73533000Y-49537000D01*
X72389376Y-49537000D01*
X72268091Y-49759040D01*
X66096362Y-49759040D01*
X66040624Y-49657000D01*
X64897000Y-49657000D01*
X64643000Y-49657000D01*
X64623000Y-49657000D01*
X64623000Y-49403000D01*
X64643000Y-49403000D01*
X64643000Y-48260085D01*
X64897000Y-48260085D01*
X64897000Y-49403000D01*
X66040624Y-49403000D01*
X66161909Y-49180960D01*
X66118938Y-49060960D01*
X72268091Y-49060960D01*
X72389376Y-49283000D01*
X73533000Y-49283000D01*
X73533000Y-48140085D01*
X73787000Y-48140085D01*
X73787000Y-49283000D01*
X74930624Y-49283000D01*
X75051909Y-49060960D01*
X74957070Y-48796119D01*
X74812385Y-48554869D01*
X74623414Y-48346481D01*
X74397420Y-48178963D01*
X74143087Y-48058754D01*
X74009039Y-48018096D01*
X73787000Y-48140085D01*
X73533000Y-48140085D01*
X73310961Y-48018096D01*
X73176913Y-48058754D01*
X72922580Y-48178963D01*
X72696586Y-48346481D01*
X72507615Y-48554869D01*
X72362930Y-48796119D01*
X72268091Y-49060960D01*
X66118938Y-49060960D01*
X66067070Y-48916119D01*
X65922385Y-48674869D01*
X65733414Y-48466481D01*
X65507420Y-48298963D01*
X65253087Y-48178754D01*
X65119039Y-48138096D01*
X64897000Y-48260085D01*
X64643000Y-48260085D01*
X64420961Y-48138096D01*
X64286913Y-48178754D01*
X64032580Y-48298963D01*
X63806586Y-48466481D01*
X63617615Y-48674869D01*
X63506067Y-48860865D01*
X63501680Y-48850273D01*
X63344637Y-48615241D01*
X63144759Y-48415363D01*
X62909727Y-48258320D01*
X62648574Y-48150147D01*
X62371335Y-48095000D01*
X62088665Y-48095000D01*
X61811426Y-48150147D01*
X61550273Y-48258320D01*
X61315241Y-48415363D01*
X61115363Y-48615241D01*
X60960000Y-48847759D01*
X60804637Y-48615241D01*
X60604759Y-48415363D01*
X60369727Y-48258320D01*
X60108574Y-48150147D01*
X59831335Y-48095000D01*
X59548665Y-48095000D01*
X59271426Y-48150147D01*
X59180000Y-48188017D01*
X59180000Y-45757322D01*
X59183676Y-45719999D01*
X59180000Y-45682676D01*
X59180000Y-45682667D01*
X59169003Y-45571014D01*
X59125546Y-45427753D01*
X59054974Y-45295724D01*
X58960001Y-45179999D01*
X58931003Y-45156201D01*
X57910000Y-44135199D01*
X57910000Y-43128043D01*
X58064759Y-43024637D01*
X58264637Y-42824759D01*
X58420000Y-42592241D01*
X58575363Y-42824759D01*
X58775241Y-43024637D01*
X59010273Y-43181680D01*
X59271426Y-43289853D01*
X59548665Y-43345000D01*
X59831335Y-43345000D01*
X60108574Y-43289853D01*
X60369727Y-43181680D01*
X60604759Y-43024637D01*
X60804637Y-42824759D01*
X60960000Y-42592241D01*
X61115363Y-42824759D01*
X61315241Y-43024637D01*
X61550273Y-43181680D01*
X61811426Y-43289853D01*
X62088665Y-43345000D01*
X62371335Y-43345000D01*
X62648574Y-43289853D01*
X62909727Y-43181680D01*
X63144759Y-43024637D01*
X63344637Y-42824759D01*
X63500000Y-42592241D01*
X63655363Y-42824759D01*
X63855241Y-43024637D01*
X64090273Y-43181680D01*
X64351426Y-43289853D01*
X64628665Y-43345000D01*
X64911335Y-43345000D01*
X65188574Y-43289853D01*
X65449727Y-43181680D01*
X65684759Y-43024637D01*
X65884637Y-42824759D01*
X66041680Y-42589727D01*
X66149853Y-42328574D01*
X66205000Y-42051335D01*
X66205000Y-41768665D01*
X66149853Y-41491426D01*
X66041680Y-41230273D01*
X65884637Y-40995241D01*
X65684759Y-40795363D01*
X65449727Y-40638320D01*
X65188574Y-40530147D01*
X65062153Y-40505000D01*
X70649869Y-40505000D01*
X72232150Y-42087282D01*
%TA.AperFunction,Conductor*%
D21*
G36*
X72232150Y-42087282D02*
G01*
X72280147Y-42328574D01*
X72388320Y-42589727D01*
X72545363Y-42824759D01*
X72745241Y-43024637D01*
X72980273Y-43181680D01*
X73241426Y-43289853D01*
X73482718Y-43337850D01*
X76335001Y-46190134D01*
X76335000Y-49474248D01*
X76329509Y-49530000D01*
X76335001Y-49585762D01*
X76335000Y-52869868D01*
X74752718Y-54452150D01*
X74511426Y-54500147D01*
X74250273Y-54608320D01*
X74015241Y-54765363D01*
X73815363Y-54965241D01*
X73658320Y-55200273D01*
X73550147Y-55461426D01*
X73495000Y-55738665D01*
X73495000Y-56021335D01*
X73550147Y-56298574D01*
X73658320Y-56559727D01*
X73815363Y-56794759D01*
X74015241Y-56994637D01*
X74247759Y-57150000D01*
X74015241Y-57305363D01*
X73815363Y-57505241D01*
X73658320Y-57740273D01*
X73550147Y-58001426D01*
X73495000Y-58278665D01*
X73495000Y-58561335D01*
X73550147Y-58838574D01*
X73658320Y-59099727D01*
X73815363Y-59334759D01*
X74015241Y-59534637D01*
X74247759Y-59690000D01*
X74015241Y-59845363D01*
X73815363Y-60045241D01*
X73658320Y-60280273D01*
X73550147Y-60541426D01*
X73495000Y-60818665D01*
X73495000Y-61101335D01*
X73531312Y-61283886D01*
X68069003Y-66746196D01*
X68039999Y-66769999D01*
X67984871Y-66837174D01*
X67945026Y-66885724D01*
X67908126Y-66954759D01*
X67874454Y-67017754D01*
X67830997Y-67161015D01*
X67820000Y-67272668D01*
X67820000Y-67272678D01*
X67816324Y-67310000D01*
X67820000Y-67347322D01*
X67820001Y-91125197D01*
X66995199Y-91950000D01*
X52634622Y-91950000D01*
X52704974Y-91864276D01*
X52775546Y-91732247D01*
X52819003Y-91588986D01*
X52830000Y-91477333D01*
X52830000Y-91477324D01*
X52833676Y-91440001D01*
X52830000Y-91402678D01*
X52830000Y-91388043D01*
X52984759Y-91284637D01*
X53184637Y-91084759D01*
X53340000Y-90852241D01*
X53495363Y-91084759D01*
X53695241Y-91284637D01*
X53930273Y-91441680D01*
X54191426Y-91549853D01*
X54468665Y-91605000D01*
X54751335Y-91605000D01*
X55028574Y-91549853D01*
X55289727Y-91441680D01*
X55524759Y-91284637D01*
X55724637Y-91084759D01*
X55880000Y-90852241D01*
X56035363Y-91084759D01*
X56235241Y-91284637D01*
X56470273Y-91441680D01*
X56731426Y-91549853D01*
X57008665Y-91605000D01*
X57291335Y-91605000D01*
X57568574Y-91549853D01*
X57829727Y-91441680D01*
X58064759Y-91284637D01*
X58264637Y-91084759D01*
X58420000Y-90852241D01*
X58575363Y-91084759D01*
X58775241Y-91284637D01*
X59010273Y-91441680D01*
X59271426Y-91549853D01*
X59548665Y-91605000D01*
X59831335Y-91605000D01*
X60108574Y-91549853D01*
X60369727Y-91441680D01*
X60604759Y-91284637D01*
X60804637Y-91084759D01*
X60960000Y-90852241D01*
X61115363Y-91084759D01*
X61315241Y-91284637D01*
X61550273Y-91441680D01*
X61811426Y-91549853D01*
X62088665Y-91605000D01*
X62371335Y-91605000D01*
X62648574Y-91549853D01*
X62909727Y-91441680D01*
X63144759Y-91284637D01*
X63344637Y-91084759D01*
X63500000Y-90852241D01*
X63655363Y-91084759D01*
X63855241Y-91284637D01*
X64090273Y-91441680D01*
X64351426Y-91549853D01*
X64628665Y-91605000D01*
X64911335Y-91605000D01*
X65188574Y-91549853D01*
X65449727Y-91441680D01*
X65684759Y-91284637D01*
X65884637Y-91084759D01*
X66041680Y-90849727D01*
X66149853Y-90588574D01*
X66205000Y-90311335D01*
X66205000Y-90028665D01*
X66149853Y-89751426D01*
X66041680Y-89490273D01*
X65884637Y-89255241D01*
X65684759Y-89055363D01*
X65449727Y-88898320D01*
X65188574Y-88790147D01*
X64911335Y-88735000D01*
X64628665Y-88735000D01*
X64351426Y-88790147D01*
X64090273Y-88898320D01*
X63855241Y-89055363D01*
X63655363Y-89255241D01*
X63500000Y-89487759D01*
X63344637Y-89255241D01*
X63144759Y-89055363D01*
X62909727Y-88898320D01*
X62648574Y-88790147D01*
X62371335Y-88735000D01*
X62088665Y-88735000D01*
X61811426Y-88790147D01*
X61550273Y-88898320D01*
X61315241Y-89055363D01*
X61115363Y-89255241D01*
X60960000Y-89487759D01*
X60804637Y-89255241D01*
X60604759Y-89055363D01*
X60369727Y-88898320D01*
X60108574Y-88790147D01*
X59831335Y-88735000D01*
X59548665Y-88735000D01*
X59271426Y-88790147D01*
X59010273Y-88898320D01*
X58775241Y-89055363D01*
X58575363Y-89255241D01*
X58420000Y-89487759D01*
X58264637Y-89255241D01*
X58064759Y-89055363D01*
X57910000Y-88951957D01*
X57910000Y-84169039D01*
X58298096Y-84169039D01*
X58338754Y-84303087D01*
X58458963Y-84557420D01*
X58626481Y-84783414D01*
X58834869Y-84972385D01*
X59076119Y-85117070D01*
X59340960Y-85211909D01*
X59563000Y-85090624D01*
X59563000Y-83947000D01*
X59817000Y-83947000D01*
X59817000Y-85090624D01*
X60039040Y-85211909D01*
X60303881Y-85117070D01*
X60545131Y-84972385D01*
X60753519Y-84783414D01*
X60921037Y-84557420D01*
X61041246Y-84303087D01*
X61081904Y-84169039D01*
X60959915Y-83947000D01*
X59817000Y-83947000D01*
X59563000Y-83947000D01*
X58420085Y-83947000D01*
X58298096Y-84169039D01*
X57910000Y-84169039D01*
X57910000Y-76237323D01*
X57913676Y-76200000D01*
X57910000Y-76162677D01*
X57910000Y-76162667D01*
X57899003Y-76051014D01*
X57855546Y-75907753D01*
X57788022Y-75781426D01*
X57784974Y-75775723D01*
X57713799Y-75688997D01*
X57690001Y-75659999D01*
X57661003Y-75636201D01*
X53468688Y-71443887D01*
X53505000Y-71261335D01*
X53505000Y-70978665D01*
X53449853Y-70701426D01*
X53341680Y-70440273D01*
X53184637Y-70205241D01*
X52984759Y-70005363D01*
X52752241Y-69850000D01*
X52984759Y-69694637D01*
X53184637Y-69494759D01*
X53341680Y-69259727D01*
X53449853Y-68998574D01*
X53505000Y-68721335D01*
X53505000Y-68438665D01*
X53449853Y-68161426D01*
X53341680Y-67900273D01*
X53205000Y-67695716D01*
X53205000Y-61844284D01*
X53341680Y-61639727D01*
X53449853Y-61378574D01*
X53505000Y-61101335D01*
X53505000Y-60818665D01*
X53449853Y-60541426D01*
X53341680Y-60280273D01*
X53205000Y-60075716D01*
X53205000Y-59745741D01*
X53210490Y-59689999D01*
X53205000Y-59634257D01*
X53205000Y-59634248D01*
X53188577Y-59467501D01*
X53123676Y-59253553D01*
X53018284Y-59056377D01*
X52876449Y-58883551D01*
X52833141Y-58848009D01*
X50665000Y-56679869D01*
X50665000Y-50870957D01*
X50684494Y-50860537D01*
X50781185Y-50781185D01*
X50860537Y-50684494D01*
X50919502Y-50574180D01*
X50955812Y-50454482D01*
X50956643Y-50446039D01*
X51155241Y-50644637D01*
X51310001Y-50748044D01*
X51310000Y-52032677D01*
X51306324Y-52070000D01*
X51310000Y-52107322D01*
X51310000Y-52107332D01*
X51320997Y-52218985D01*
X51364454Y-52362246D01*
X51435026Y-52494276D01*
X51474871Y-52542826D01*
X51529999Y-52610001D01*
X51559003Y-52633804D01*
X52776200Y-53851002D01*
X52799999Y-53880001D01*
X52915724Y-53974974D01*
X53047753Y-54045546D01*
X53191014Y-54089003D01*
X53302667Y-54100000D01*
X53302676Y-54100000D01*
X53339999Y-54103676D01*
X53377322Y-54100000D01*
X61915199Y-54100000D01*
X62740001Y-54924803D01*
X62740000Y-69535198D01*
X61125000Y-71150198D01*
X61125000Y-70978665D01*
X61069853Y-70701426D01*
X60961680Y-70440273D01*
X60804637Y-70205241D01*
X60604759Y-70005363D01*
X60372241Y-69850000D01*
X60604759Y-69694637D01*
X60804637Y-69494759D01*
X60961680Y-69259727D01*
X61069853Y-68998574D01*
X61125000Y-68721335D01*
X61125000Y-68438665D01*
X61069853Y-68161426D01*
X60961680Y-67900273D01*
X60804637Y-67665241D01*
X60604759Y-67465363D01*
X60372241Y-67310000D01*
X60604759Y-67154637D01*
X60804637Y-66954759D01*
X60961680Y-66719727D01*
X61069853Y-66458574D01*
X61125000Y-66181335D01*
X61125000Y-65898665D01*
X61069853Y-65621426D01*
X60961680Y-65360273D01*
X60804637Y-65125241D01*
X60604759Y-64925363D01*
X60372241Y-64770000D01*
X60604759Y-64614637D01*
X60804637Y-64414759D01*
X60961680Y-64179727D01*
X61069853Y-63918574D01*
X61125000Y-63641335D01*
X61125000Y-63358665D01*
X61069853Y-63081426D01*
X60961680Y-62820273D01*
X60804637Y-62585241D01*
X60604759Y-62385363D01*
X60372241Y-62230000D01*
X60604759Y-62074637D01*
X60804637Y-61874759D01*
X60961680Y-61639727D01*
X61069853Y-61378574D01*
X61125000Y-61101335D01*
X61125000Y-60818665D01*
X61069853Y-60541426D01*
X60961680Y-60280273D01*
X60804637Y-60045241D01*
X60604759Y-59845363D01*
X60372241Y-59690000D01*
X60604759Y-59534637D01*
X60804637Y-59334759D01*
X60961680Y-59099727D01*
X61069853Y-58838574D01*
X61125000Y-58561335D01*
X61125000Y-58278665D01*
X61069853Y-58001426D01*
X60961680Y-57740273D01*
X60804637Y-57505241D01*
X60606039Y-57306643D01*
X60614482Y-57305812D01*
X60734180Y-57269502D01*
X60844494Y-57210537D01*
X60941185Y-57131185D01*
X61020537Y-57034494D01*
X61079502Y-56924180D01*
X61115812Y-56804482D01*
X61128072Y-56680000D01*
X61128072Y-55080000D01*
X61115812Y-54955518D01*
X61079502Y-54835820D01*
X61020537Y-54725506D01*
X60941185Y-54628815D01*
X60844494Y-54549463D01*
X60734180Y-54490498D01*
X60614482Y-54454188D01*
X60490000Y-54441928D01*
X58890000Y-54441928D01*
X58765518Y-54454188D01*
X58645820Y-54490498D01*
X58535506Y-54549463D01*
X58438815Y-54628815D01*
X58359463Y-54725506D01*
X58300498Y-54835820D01*
X58264188Y-54955518D01*
X58251928Y-55080000D01*
X58251928Y-56680000D01*
X58264188Y-56804482D01*
X58300498Y-56924180D01*
X58359463Y-57034494D01*
X58438815Y-57131185D01*
X58535506Y-57210537D01*
X58645820Y-57269502D01*
X58765518Y-57305812D01*
X58773961Y-57306643D01*
X58575363Y-57505241D01*
X58418320Y-57740273D01*
X58310147Y-58001426D01*
X58255000Y-58278665D01*
X58255000Y-58561335D01*
X58310147Y-58838574D01*
X58418320Y-59099727D01*
X58575363Y-59334759D01*
X58775241Y-59534637D01*
X59007759Y-59690000D01*
X58775241Y-59845363D01*
X58575363Y-60045241D01*
X58418320Y-60280273D01*
X58310147Y-60541426D01*
X58255000Y-60818665D01*
X58255000Y-61101335D01*
X58310147Y-61378574D01*
X58418320Y-61639727D01*
X58575363Y-61874759D01*
X58775241Y-62074637D01*
X59007759Y-62230000D01*
X58775241Y-62385363D01*
X58575363Y-62585241D01*
X58418320Y-62820273D01*
X58310147Y-63081426D01*
X58255000Y-63358665D01*
X58255000Y-63641335D01*
X58310147Y-63918574D01*
X58418320Y-64179727D01*
X58575363Y-64414759D01*
X58775241Y-64614637D01*
X59007759Y-64770000D01*
X58775241Y-64925363D01*
X58575363Y-65125241D01*
X58418320Y-65360273D01*
X58310147Y-65621426D01*
X58255000Y-65898665D01*
X58255000Y-66181335D01*
X58310147Y-66458574D01*
X58418320Y-66719727D01*
X58575363Y-66954759D01*
X58775241Y-67154637D01*
X59007759Y-67310000D01*
X58775241Y-67465363D01*
X58575363Y-67665241D01*
X58418320Y-67900273D01*
X58310147Y-68161426D01*
X58255000Y-68438665D01*
X58255000Y-68721335D01*
X58310147Y-68998574D01*
X58418320Y-69259727D01*
X58575363Y-69494759D01*
X58775241Y-69694637D01*
X59007759Y-69850000D01*
X58775241Y-70005363D01*
X58575363Y-70205241D01*
X58418320Y-70440273D01*
X58310147Y-70701426D01*
X58255000Y-70978665D01*
X58255000Y-71261335D01*
X58310147Y-71538574D01*
X58418320Y-71799727D01*
X58575363Y-72034759D01*
X58775241Y-72234637D01*
X59007759Y-72390000D01*
X58775241Y-72545363D01*
X58575363Y-72745241D01*
X58418320Y-72980273D01*
X58310147Y-73241426D01*
X58255000Y-73518665D01*
X58255000Y-73801335D01*
X58310147Y-74078574D01*
X58418320Y-74339727D01*
X58575363Y-74574759D01*
X58775241Y-74774637D01*
X59007759Y-74930000D01*
X58775241Y-75085363D01*
X58575363Y-75285241D01*
X58418320Y-75520273D01*
X58310147Y-75781426D01*
X58255000Y-76058665D01*
X58255000Y-76341335D01*
X58310147Y-76618574D01*
X58418320Y-76879727D01*
X58575363Y-77114759D01*
X58775241Y-77314637D01*
X59007759Y-77470000D01*
X58775241Y-77625363D01*
X58575363Y-77825241D01*
X58418320Y-78060273D01*
X58310147Y-78321426D01*
X58255000Y-78598665D01*
X58255000Y-78881335D01*
X58310147Y-79158574D01*
X58418320Y-79419727D01*
X58575363Y-79654759D01*
X58775241Y-79854637D01*
X59007759Y-80010000D01*
X58775241Y-80165363D01*
X58575363Y-80365241D01*
X58418320Y-80600273D01*
X58310147Y-80861426D01*
X58255000Y-81138665D01*
X58255000Y-81421335D01*
X58310147Y-81698574D01*
X58418320Y-81959727D01*
X58575363Y-82194759D01*
X58775241Y-82394637D01*
X59010273Y-82551680D01*
X59020865Y-82556067D01*
X58834869Y-82667615D01*
X58626481Y-82856586D01*
X58458963Y-83082580D01*
X58338754Y-83336913D01*
X58298096Y-83470961D01*
X58420085Y-83693000D01*
X59563000Y-83693000D01*
X59563000Y-83673000D01*
X59817000Y-83673000D01*
X59817000Y-83693000D01*
X60959915Y-83693000D01*
X61081904Y-83470961D01*
X61041246Y-83336913D01*
X60921037Y-83082580D01*
X60753519Y-82856586D01*
X60545131Y-82667615D01*
X60359135Y-82556067D01*
X60369727Y-82551680D01*
X60604759Y-82394637D01*
X60804637Y-82194759D01*
X60961680Y-81959727D01*
X61069853Y-81698574D01*
X61125000Y-81421335D01*
X61125000Y-81138665D01*
X61069853Y-80861426D01*
X60961680Y-80600273D01*
X60804637Y-80365241D01*
X60604759Y-80165363D01*
X60372241Y-80010000D01*
X60604759Y-79854637D01*
X60804637Y-79654759D01*
X60961680Y-79419727D01*
X61069853Y-79158574D01*
X61125000Y-78881335D01*
X61125000Y-78598665D01*
X61069853Y-78321426D01*
X60961680Y-78060273D01*
X60804637Y-77825241D01*
X60604759Y-77625363D01*
X60372241Y-77470000D01*
X60604759Y-77314637D01*
X60804637Y-77114759D01*
X60961680Y-76879727D01*
X61069853Y-76618574D01*
X61125000Y-76341335D01*
X61125000Y-76058665D01*
X61069853Y-75781426D01*
X60961680Y-75520273D01*
X60804637Y-75285241D01*
X60604759Y-75085363D01*
X60372241Y-74930000D01*
X60604759Y-74774637D01*
X60804637Y-74574759D01*
X60961680Y-74339727D01*
X61069853Y-74078574D01*
X61125000Y-73801335D01*
X61125000Y-73518665D01*
X61088688Y-73336113D01*
X64011004Y-70413798D01*
X64040001Y-70390001D01*
X64134974Y-70274276D01*
X64205546Y-70142247D01*
X64249003Y-69998986D01*
X64260000Y-69887333D01*
X64260000Y-69887325D01*
X64263676Y-69850000D01*
X64260000Y-69812675D01*
X64260000Y-54647322D01*
X64263676Y-54609999D01*
X64260000Y-54572676D01*
X64260000Y-54572667D01*
X64249003Y-54461014D01*
X64205546Y-54317753D01*
X64134974Y-54185724D01*
X64040001Y-54069999D01*
X64011003Y-54046201D01*
X62793804Y-52829003D01*
X62770001Y-52799999D01*
X62654276Y-52705026D01*
X62522247Y-52634454D01*
X62378986Y-52590997D01*
X62267333Y-52580000D01*
X62267322Y-52580000D01*
X62230000Y-52576324D01*
X62192678Y-52580000D01*
X57714801Y-52580000D01*
X58931003Y-51363799D01*
X58960001Y-51340001D01*
X59054974Y-51224276D01*
X59125546Y-51092247D01*
X59169003Y-50948986D01*
X59176721Y-50870625D01*
X59271426Y-50909853D01*
X59548665Y-50965000D01*
X59831335Y-50965000D01*
X60108574Y-50909853D01*
X60369727Y-50801680D01*
X60604759Y-50644637D01*
X60804637Y-50444759D01*
X60960000Y-50212241D01*
X61115363Y-50444759D01*
X61315241Y-50644637D01*
X61550273Y-50801680D01*
X61811426Y-50909853D01*
X62088665Y-50965000D01*
X62371335Y-50965000D01*
X62648574Y-50909853D01*
X62909727Y-50801680D01*
X63144759Y-50644637D01*
X63344637Y-50444759D01*
X63501680Y-50209727D01*
X63506067Y-50199135D01*
X63617615Y-50385131D01*
X63806586Y-50593519D01*
X64032580Y-50761037D01*
X64286913Y-50881246D01*
X64420961Y-50921904D01*
X64643000Y-50799915D01*
X64643000Y-49657000D01*
X64897000Y-49657000D01*
X64897000Y-50799915D01*
X65119039Y-50921904D01*
X65253087Y-50881246D01*
X65507420Y-50761037D01*
X65733414Y-50593519D01*
X65922385Y-50385131D01*
X66067070Y-50143881D01*
X66161909Y-49879040D01*
X66096362Y-49759040D01*
X72268091Y-49759040D01*
X72362930Y-50023881D01*
X72507615Y-50265131D01*
X72696586Y-50473519D01*
X72922580Y-50641037D01*
X73176913Y-50761246D01*
X73310961Y-50801904D01*
X73533000Y-50679915D01*
X73533000Y-49537000D01*
X73787000Y-49537000D01*
X73787000Y-50679915D01*
X74009039Y-50801904D01*
X74143087Y-50761246D01*
X74397420Y-50641037D01*
X74623414Y-50473519D01*
X74812385Y-50265131D01*
X74957070Y-50023881D01*
X75051909Y-49759040D01*
X74930624Y-49537000D01*
X73787000Y-49537000D01*
X73533000Y-49537000D01*
X72389376Y-49537000D01*
X72268091Y-49759040D01*
X66096362Y-49759040D01*
X66040624Y-49657000D01*
X64897000Y-49657000D01*
X64643000Y-49657000D01*
X64623000Y-49657000D01*
X64623000Y-49403000D01*
X64643000Y-49403000D01*
X64643000Y-48260085D01*
X64897000Y-48260085D01*
X64897000Y-49403000D01*
X66040624Y-49403000D01*
X66161909Y-49180960D01*
X66118938Y-49060960D01*
X72268091Y-49060960D01*
X72389376Y-49283000D01*
X73533000Y-49283000D01*
X73533000Y-48140085D01*
X73787000Y-48140085D01*
X73787000Y-49283000D01*
X74930624Y-49283000D01*
X75051909Y-49060960D01*
X74957070Y-48796119D01*
X74812385Y-48554869D01*
X74623414Y-48346481D01*
X74397420Y-48178963D01*
X74143087Y-48058754D01*
X74009039Y-48018096D01*
X73787000Y-48140085D01*
X73533000Y-48140085D01*
X73310961Y-48018096D01*
X73176913Y-48058754D01*
X72922580Y-48178963D01*
X72696586Y-48346481D01*
X72507615Y-48554869D01*
X72362930Y-48796119D01*
X72268091Y-49060960D01*
X66118938Y-49060960D01*
X66067070Y-48916119D01*
X65922385Y-48674869D01*
X65733414Y-48466481D01*
X65507420Y-48298963D01*
X65253087Y-48178754D01*
X65119039Y-48138096D01*
X64897000Y-48260085D01*
X64643000Y-48260085D01*
X64420961Y-48138096D01*
X64286913Y-48178754D01*
X64032580Y-48298963D01*
X63806586Y-48466481D01*
X63617615Y-48674869D01*
X63506067Y-48860865D01*
X63501680Y-48850273D01*
X63344637Y-48615241D01*
X63144759Y-48415363D01*
X62909727Y-48258320D01*
X62648574Y-48150147D01*
X62371335Y-48095000D01*
X62088665Y-48095000D01*
X61811426Y-48150147D01*
X61550273Y-48258320D01*
X61315241Y-48415363D01*
X61115363Y-48615241D01*
X60960000Y-48847759D01*
X60804637Y-48615241D01*
X60604759Y-48415363D01*
X60369727Y-48258320D01*
X60108574Y-48150147D01*
X59831335Y-48095000D01*
X59548665Y-48095000D01*
X59271426Y-48150147D01*
X59180000Y-48188017D01*
X59180000Y-45757322D01*
X59183676Y-45719999D01*
X59180000Y-45682676D01*
X59180000Y-45682667D01*
X59169003Y-45571014D01*
X59125546Y-45427753D01*
X59054974Y-45295724D01*
X58960001Y-45179999D01*
X58931003Y-45156201D01*
X57910000Y-44135199D01*
X57910000Y-43128043D01*
X58064759Y-43024637D01*
X58264637Y-42824759D01*
X58420000Y-42592241D01*
X58575363Y-42824759D01*
X58775241Y-43024637D01*
X59010273Y-43181680D01*
X59271426Y-43289853D01*
X59548665Y-43345000D01*
X59831335Y-43345000D01*
X60108574Y-43289853D01*
X60369727Y-43181680D01*
X60604759Y-43024637D01*
X60804637Y-42824759D01*
X60960000Y-42592241D01*
X61115363Y-42824759D01*
X61315241Y-43024637D01*
X61550273Y-43181680D01*
X61811426Y-43289853D01*
X62088665Y-43345000D01*
X62371335Y-43345000D01*
X62648574Y-43289853D01*
X62909727Y-43181680D01*
X63144759Y-43024637D01*
X63344637Y-42824759D01*
X63500000Y-42592241D01*
X63655363Y-42824759D01*
X63855241Y-43024637D01*
X64090273Y-43181680D01*
X64351426Y-43289853D01*
X64628665Y-43345000D01*
X64911335Y-43345000D01*
X65188574Y-43289853D01*
X65449727Y-43181680D01*
X65684759Y-43024637D01*
X65884637Y-42824759D01*
X66041680Y-42589727D01*
X66149853Y-42328574D01*
X66205000Y-42051335D01*
X66205000Y-41768665D01*
X66149853Y-41491426D01*
X66041680Y-41230273D01*
X65884637Y-40995241D01*
X65684759Y-40795363D01*
X65449727Y-40638320D01*
X65188574Y-40530147D01*
X65062153Y-40505000D01*
X70649869Y-40505000D01*
X72232150Y-42087282D01*
G37*
%TD.AperFunction*%
D20*
X51387759Y-69850000D02*
X51155241Y-70005363D01*
X50955363Y-70205241D01*
X50798320Y-70440273D01*
X50690147Y-70701426D01*
X50635000Y-70978665D01*
X50635000Y-71261335D01*
X50690147Y-71538574D01*
X50798320Y-71799727D01*
X50955363Y-72034759D01*
X51155241Y-72234637D01*
X51390273Y-72391680D01*
X51400865Y-72396067D01*
X51214869Y-72507615D01*
X51006481Y-72696586D01*
X50838963Y-72922580D01*
X50718754Y-73176913D01*
X50678096Y-73310961D01*
X50800085Y-73533000D01*
X51943000Y-73533000D01*
X51943000Y-73513000D01*
X52197000Y-73513000D01*
X52197000Y-73533000D01*
X53339915Y-73533000D01*
X53364128Y-73488929D01*
X56390001Y-76514803D01*
X56390000Y-88951957D01*
X56235241Y-89055363D01*
X56035363Y-89255241D01*
X55880000Y-89487759D01*
X55724637Y-89255241D01*
X55524759Y-89055363D01*
X55370000Y-88951957D01*
X55370000Y-81317322D01*
X55373676Y-81279999D01*
X55370000Y-81242676D01*
X55370000Y-81242667D01*
X55359003Y-81131014D01*
X55315546Y-80987753D01*
X55244974Y-80855724D01*
X55231811Y-80839685D01*
X55173799Y-80768996D01*
X55173795Y-80768992D01*
X55150001Y-80739999D01*
X55121008Y-80716205D01*
X53468688Y-79063886D01*
X53505000Y-78881335D01*
X53505000Y-78598665D01*
X53449853Y-78321426D01*
X53341680Y-78060273D01*
X53184637Y-77825241D01*
X52984759Y-77625363D01*
X52752241Y-77470000D01*
X52984759Y-77314637D01*
X53184637Y-77114759D01*
X53341680Y-76879727D01*
X53449853Y-76618574D01*
X53505000Y-76341335D01*
X53505000Y-76058665D01*
X53449853Y-75781426D01*
X53341680Y-75520273D01*
X53184637Y-75285241D01*
X52984759Y-75085363D01*
X52749727Y-74928320D01*
X52739135Y-74923933D01*
X52925131Y-74812385D01*
X53133519Y-74623414D01*
X53301037Y-74397420D01*
X53421246Y-74143087D01*
X53461904Y-74009039D01*
X53339915Y-73787000D01*
X52197000Y-73787000D01*
X52197000Y-73807000D01*
X51943000Y-73807000D01*
X51943000Y-73787000D01*
X50800085Y-73787000D01*
X50678096Y-74009039D01*
X50718754Y-74143087D01*
X50838963Y-74397420D01*
X51006481Y-74623414D01*
X51214869Y-74812385D01*
X51400865Y-74923933D01*
X51390273Y-74928320D01*
X51155241Y-75085363D01*
X50955363Y-75285241D01*
X50798320Y-75520273D01*
X50690147Y-75781426D01*
X50635000Y-76058665D01*
X50635000Y-76341335D01*
X50690147Y-76618574D01*
X50798320Y-76879727D01*
X50955363Y-77114759D01*
X51155241Y-77314637D01*
X51387759Y-77470000D01*
X51155241Y-77625363D01*
X50955363Y-77825241D01*
X50798320Y-78060273D01*
X50690147Y-78321426D01*
X50635000Y-78598665D01*
X50635000Y-78881335D01*
X50690147Y-79158574D01*
X50798320Y-79419727D01*
X50955363Y-79654759D01*
X51155241Y-79854637D01*
X51390273Y-80011680D01*
X51400865Y-80016067D01*
X51214869Y-80127615D01*
X51006481Y-80316586D01*
X50838963Y-80542580D01*
X50718754Y-80796913D01*
X50678096Y-80930961D01*
X50800085Y-81153000D01*
X51943000Y-81153000D01*
X51943000Y-81133000D01*
X52197000Y-81133000D01*
X52197000Y-81153000D01*
X53339915Y-81153000D01*
X53364127Y-81108930D01*
X53850001Y-81594804D01*
X53850000Y-88951956D01*
X53695241Y-89055363D01*
X53495363Y-89255241D01*
X53340000Y-89487759D01*
X53184637Y-89255241D01*
X52984759Y-89055363D01*
X52749727Y-88898320D01*
X52488574Y-88790147D01*
X52211335Y-88735000D01*
X51928665Y-88735000D01*
X51651426Y-88790147D01*
X51390273Y-88898320D01*
X51155241Y-89055363D01*
X50955363Y-89255241D01*
X50800000Y-89487759D01*
X50644637Y-89255241D01*
X50444759Y-89055363D01*
X50209727Y-88898320D01*
X49948574Y-88790147D01*
X49671335Y-88735000D01*
X49388665Y-88735000D01*
X49111426Y-88790147D01*
X48850273Y-88898320D01*
X48615241Y-89055363D01*
X48415363Y-89255241D01*
X48260000Y-89487759D01*
X48125000Y-89285716D01*
X48125000Y-88100131D01*
X49023140Y-87201992D01*
X49066449Y-87166449D01*
X49208284Y-86993623D01*
X49313676Y-86796447D01*
X49378577Y-86582499D01*
X49395000Y-86415752D01*
X49395000Y-86415745D01*
X49400490Y-86360001D01*
X49395000Y-86304257D01*
X49395000Y-83678665D01*
X50635000Y-83678665D01*
X50635000Y-83961335D01*
X50690147Y-84238574D01*
X50798320Y-84499727D01*
X50955363Y-84734759D01*
X51155241Y-84934637D01*
X51390273Y-85091680D01*
X51651426Y-85199853D01*
X51928665Y-85255000D01*
X52211335Y-85255000D01*
X52488574Y-85199853D01*
X52749727Y-85091680D01*
X52984759Y-84934637D01*
X53184637Y-84734759D01*
X53341680Y-84499727D01*
X53449853Y-84238574D01*
X53505000Y-83961335D01*
X53505000Y-83678665D01*
X53449853Y-83401426D01*
X53341680Y-83140273D01*
X53184637Y-82905241D01*
X52984759Y-82705363D01*
X52749727Y-82548320D01*
X52739135Y-82543933D01*
X52925131Y-82432385D01*
X53133519Y-82243414D01*
X53301037Y-82017420D01*
X53421246Y-81763087D01*
X53461904Y-81629039D01*
X53339915Y-81407000D01*
X52197000Y-81407000D01*
X52197000Y-81427000D01*
X51943000Y-81427000D01*
X51943000Y-81407000D01*
X50800085Y-81407000D01*
X50678096Y-81629039D01*
X50718754Y-81763087D01*
X50838963Y-82017420D01*
X51006481Y-82243414D01*
X51214869Y-82432385D01*
X51400865Y-82543933D01*
X51390273Y-82548320D01*
X51155241Y-82705363D01*
X50955363Y-82905241D01*
X50798320Y-83140273D01*
X50690147Y-83401426D01*
X50635000Y-83678665D01*
X49395000Y-83678665D01*
X49395000Y-69715000D01*
X51185716Y-69715000D01*
X51387759Y-69850000D01*
%TA.AperFunction,Conductor*%
D21*
G36*
X51387759Y-69850000D02*
G01*
X51155241Y-70005363D01*
X50955363Y-70205241D01*
X50798320Y-70440273D01*
X50690147Y-70701426D01*
X50635000Y-70978665D01*
X50635000Y-71261335D01*
X50690147Y-71538574D01*
X50798320Y-71799727D01*
X50955363Y-72034759D01*
X51155241Y-72234637D01*
X51390273Y-72391680D01*
X51400865Y-72396067D01*
X51214869Y-72507615D01*
X51006481Y-72696586D01*
X50838963Y-72922580D01*
X50718754Y-73176913D01*
X50678096Y-73310961D01*
X50800085Y-73533000D01*
X51943000Y-73533000D01*
X51943000Y-73513000D01*
X52197000Y-73513000D01*
X52197000Y-73533000D01*
X53339915Y-73533000D01*
X53364128Y-73488929D01*
X56390001Y-76514803D01*
X56390000Y-88951957D01*
X56235241Y-89055363D01*
X56035363Y-89255241D01*
X55880000Y-89487759D01*
X55724637Y-89255241D01*
X55524759Y-89055363D01*
X55370000Y-88951957D01*
X55370000Y-81317322D01*
X55373676Y-81279999D01*
X55370000Y-81242676D01*
X55370000Y-81242667D01*
X55359003Y-81131014D01*
X55315546Y-80987753D01*
X55244974Y-80855724D01*
X55231811Y-80839685D01*
X55173799Y-80768996D01*
X55173795Y-80768992D01*
X55150001Y-80739999D01*
X55121008Y-80716205D01*
X53468688Y-79063886D01*
X53505000Y-78881335D01*
X53505000Y-78598665D01*
X53449853Y-78321426D01*
X53341680Y-78060273D01*
X53184637Y-77825241D01*
X52984759Y-77625363D01*
X52752241Y-77470000D01*
X52984759Y-77314637D01*
X53184637Y-77114759D01*
X53341680Y-76879727D01*
X53449853Y-76618574D01*
X53505000Y-76341335D01*
X53505000Y-76058665D01*
X53449853Y-75781426D01*
X53341680Y-75520273D01*
X53184637Y-75285241D01*
X52984759Y-75085363D01*
X52749727Y-74928320D01*
X52739135Y-74923933D01*
X52925131Y-74812385D01*
X53133519Y-74623414D01*
X53301037Y-74397420D01*
X53421246Y-74143087D01*
X53461904Y-74009039D01*
X53339915Y-73787000D01*
X52197000Y-73787000D01*
X52197000Y-73807000D01*
X51943000Y-73807000D01*
X51943000Y-73787000D01*
X50800085Y-73787000D01*
X50678096Y-74009039D01*
X50718754Y-74143087D01*
X50838963Y-74397420D01*
X51006481Y-74623414D01*
X51214869Y-74812385D01*
X51400865Y-74923933D01*
X51390273Y-74928320D01*
X51155241Y-75085363D01*
X50955363Y-75285241D01*
X50798320Y-75520273D01*
X50690147Y-75781426D01*
X50635000Y-76058665D01*
X50635000Y-76341335D01*
X50690147Y-76618574D01*
X50798320Y-76879727D01*
X50955363Y-77114759D01*
X51155241Y-77314637D01*
X51387759Y-77470000D01*
X51155241Y-77625363D01*
X50955363Y-77825241D01*
X50798320Y-78060273D01*
X50690147Y-78321426D01*
X50635000Y-78598665D01*
X50635000Y-78881335D01*
X50690147Y-79158574D01*
X50798320Y-79419727D01*
X50955363Y-79654759D01*
X51155241Y-79854637D01*
X51390273Y-80011680D01*
X51400865Y-80016067D01*
X51214869Y-80127615D01*
X51006481Y-80316586D01*
X50838963Y-80542580D01*
X50718754Y-80796913D01*
X50678096Y-80930961D01*
X50800085Y-81153000D01*
X51943000Y-81153000D01*
X51943000Y-81133000D01*
X52197000Y-81133000D01*
X52197000Y-81153000D01*
X53339915Y-81153000D01*
X53364127Y-81108930D01*
X53850001Y-81594804D01*
X53850000Y-88951956D01*
X53695241Y-89055363D01*
X53495363Y-89255241D01*
X53340000Y-89487759D01*
X53184637Y-89255241D01*
X52984759Y-89055363D01*
X52749727Y-88898320D01*
X52488574Y-88790147D01*
X52211335Y-88735000D01*
X51928665Y-88735000D01*
X51651426Y-88790147D01*
X51390273Y-88898320D01*
X51155241Y-89055363D01*
X50955363Y-89255241D01*
X50800000Y-89487759D01*
X50644637Y-89255241D01*
X50444759Y-89055363D01*
X50209727Y-88898320D01*
X49948574Y-88790147D01*
X49671335Y-88735000D01*
X49388665Y-88735000D01*
X49111426Y-88790147D01*
X48850273Y-88898320D01*
X48615241Y-89055363D01*
X48415363Y-89255241D01*
X48260000Y-89487759D01*
X48125000Y-89285716D01*
X48125000Y-88100131D01*
X49023140Y-87201992D01*
X49066449Y-87166449D01*
X49208284Y-86993623D01*
X49313676Y-86796447D01*
X49378577Y-86582499D01*
X49395000Y-86415752D01*
X49395000Y-86415745D01*
X49400490Y-86360001D01*
X49395000Y-86304257D01*
X49395000Y-83678665D01*
X50635000Y-83678665D01*
X50635000Y-83961335D01*
X50690147Y-84238574D01*
X50798320Y-84499727D01*
X50955363Y-84734759D01*
X51155241Y-84934637D01*
X51390273Y-85091680D01*
X51651426Y-85199853D01*
X51928665Y-85255000D01*
X52211335Y-85255000D01*
X52488574Y-85199853D01*
X52749727Y-85091680D01*
X52984759Y-84934637D01*
X53184637Y-84734759D01*
X53341680Y-84499727D01*
X53449853Y-84238574D01*
X53505000Y-83961335D01*
X53505000Y-83678665D01*
X53449853Y-83401426D01*
X53341680Y-83140273D01*
X53184637Y-82905241D01*
X52984759Y-82705363D01*
X52749727Y-82548320D01*
X52739135Y-82543933D01*
X52925131Y-82432385D01*
X53133519Y-82243414D01*
X53301037Y-82017420D01*
X53421246Y-81763087D01*
X53461904Y-81629039D01*
X53339915Y-81407000D01*
X52197000Y-81407000D01*
X52197000Y-81427000D01*
X51943000Y-81427000D01*
X51943000Y-81407000D01*
X50800085Y-81407000D01*
X50678096Y-81629039D01*
X50718754Y-81763087D01*
X50838963Y-82017420D01*
X51006481Y-82243414D01*
X51214869Y-82432385D01*
X51400865Y-82543933D01*
X51390273Y-82548320D01*
X51155241Y-82705363D01*
X50955363Y-82905241D01*
X50798320Y-83140273D01*
X50690147Y-83401426D01*
X50635000Y-83678665D01*
X49395000Y-83678665D01*
X49395000Y-69715000D01*
X51185716Y-69715000D01*
X51387759Y-69850000D01*
G37*
%TD.AperFunction*%
%TD*%
M02*
