%FSLAX45Y45*%
G04 Gerber Fmt 4.5, Leading zero omitted, Abs format (unit mm)*
G04 Created by KiCad (PCBNEW (6.0.0)) date 2022-03-13 18:30:11*
%MOMM*%
%LPD*%
G01*
G04 APERTURE LIST*
%TA.AperFunction,Profile*%
%ADD10C,0.100000*%
%TD*%
%ADD11C,0.200000*%
%ADD12C,0.320000*%
G04 APERTURE END LIST*
D10*
X10160000Y-16891000D02*
X13144500Y-16891000D01*
X9779000Y-9588500D02*
X9779000Y-9969500D01*
X15494000Y-16891000D02*
X17589500Y-16891000D01*
X9779000Y-16510000D02*
X9779000Y-16446500D01*
X9779000Y-16510000D02*
G75*
G03*
X10160000Y-16891000I381000J0D01*
G01*
X17272000Y-9207500D02*
X13589000Y-9207500D01*
X18351500Y-11430000D02*
X18351500Y-12827000D01*
X17970500Y-16891000D02*
G75*
G03*
X18351500Y-16510000I0J381000D01*
G01*
X9779000Y-16129000D02*
X9779000Y-16446500D01*
X10160000Y-9207500D02*
X10287000Y-9207500D01*
X13589000Y-9207500D02*
X10922000Y-9207500D01*
X17970500Y-9207500D02*
X17272000Y-9207500D01*
X9779000Y-15367000D02*
X9779000Y-16129000D01*
X13144500Y-16891000D02*
X15494000Y-16891000D01*
X10922000Y-9207500D02*
X10287000Y-9207500D01*
X18351500Y-9588500D02*
X18351500Y-11430000D01*
X10160000Y-9207500D02*
G75*
G03*
X9779000Y-9588500I0J-381000D01*
G01*
X18351500Y-9588500D02*
G75*
G03*
X17970500Y-9207500I-381000J0D01*
G01*
X9779000Y-15367000D02*
X9779000Y-9969500D01*
X18351500Y-16510000D02*
X18351500Y-12827000D01*
X17589500Y-16891000D02*
X17970500Y-16891000D01*
D11*
D12*
X10000000Y-9428500D02*
X10320000Y-9748500D01*
X10320000Y-9428500D02*
X10000000Y-9748500D01*
X10000000Y-16350000D02*
X10320000Y-16670000D01*
X10320000Y-16350000D02*
X10000000Y-16670000D01*
X17810500Y-9428500D02*
X18130500Y-9748500D01*
X18130500Y-9428500D02*
X17810500Y-9748500D01*
X17810500Y-16350000D02*
X18130500Y-16670000D01*
X18130500Y-16350000D02*
X17810500Y-16670000D01*
D11*
X10031619Y-17206476D02*
X10031619Y-17006476D01*
X10079238Y-17006476D01*
X10107810Y-17016000D01*
X10126857Y-17035048D01*
X10136381Y-17054095D01*
X10145905Y-17092190D01*
X10145905Y-17120762D01*
X10136381Y-17158857D01*
X10126857Y-17177905D01*
X10107810Y-17196952D01*
X10079238Y-17206476D01*
X10031619Y-17206476D01*
X10231619Y-17206476D02*
X10231619Y-17073143D01*
X10231619Y-17111238D02*
X10241143Y-17092190D01*
X10250667Y-17082667D01*
X10269714Y-17073143D01*
X10288762Y-17073143D01*
X10355429Y-17206476D02*
X10355429Y-17073143D01*
X10355429Y-17006476D02*
X10345905Y-17016000D01*
X10355429Y-17025524D01*
X10364952Y-17016000D01*
X10355429Y-17006476D01*
X10355429Y-17025524D01*
X10479238Y-17206476D02*
X10460190Y-17196952D01*
X10450667Y-17177905D01*
X10450667Y-17006476D01*
X10584000Y-17206476D02*
X10564952Y-17196952D01*
X10555429Y-17177905D01*
X10555429Y-17006476D01*
X10812571Y-17206476D02*
X10812571Y-17006476D01*
X10879238Y-17149333D01*
X10945905Y-17006476D01*
X10945905Y-17206476D01*
X11126857Y-17206476D02*
X11126857Y-17101714D01*
X11117333Y-17082667D01*
X11098286Y-17073143D01*
X11060190Y-17073143D01*
X11041143Y-17082667D01*
X11126857Y-17196952D02*
X11107810Y-17206476D01*
X11060190Y-17206476D01*
X11041143Y-17196952D01*
X11031619Y-17177905D01*
X11031619Y-17158857D01*
X11041143Y-17139810D01*
X11060190Y-17130286D01*
X11107810Y-17130286D01*
X11126857Y-17120762D01*
X11222095Y-17073143D02*
X11222095Y-17273143D01*
X11222095Y-17082667D02*
X11241143Y-17073143D01*
X11279238Y-17073143D01*
X11298286Y-17082667D01*
X11307809Y-17092190D01*
X11317333Y-17111238D01*
X11317333Y-17168381D01*
X11307809Y-17187429D01*
X11298286Y-17196952D01*
X11279238Y-17206476D01*
X11241143Y-17206476D01*
X11222095Y-17196952D01*
X11403048Y-17187429D02*
X11412571Y-17196952D01*
X11403048Y-17206476D01*
X11393524Y-17196952D01*
X11403048Y-17187429D01*
X11403048Y-17206476D01*
X11403048Y-17082667D02*
X11412571Y-17092190D01*
X11403048Y-17101714D01*
X11393524Y-17092190D01*
X11403048Y-17082667D01*
X11403048Y-17101714D01*
X9574000Y-17436000D02*
X9774000Y-17636000D01*
X9774000Y-17436000D02*
X9574000Y-17636000D01*
X10012571Y-17426476D02*
X10136381Y-17426476D01*
X10069714Y-17502667D01*
X10098286Y-17502667D01*
X10117333Y-17512190D01*
X10126857Y-17521714D01*
X10136381Y-17540762D01*
X10136381Y-17588381D01*
X10126857Y-17607429D01*
X10117333Y-17616952D01*
X10098286Y-17626476D01*
X10041143Y-17626476D01*
X10022095Y-17616952D01*
X10012571Y-17607429D01*
X10222095Y-17607429D02*
X10231619Y-17616952D01*
X10222095Y-17626476D01*
X10212571Y-17616952D01*
X10222095Y-17607429D01*
X10222095Y-17626476D01*
X10307810Y-17445524D02*
X10317333Y-17436000D01*
X10336381Y-17426476D01*
X10384000Y-17426476D01*
X10403048Y-17436000D01*
X10412571Y-17445524D01*
X10422095Y-17464571D01*
X10422095Y-17483619D01*
X10412571Y-17512190D01*
X10298286Y-17626476D01*
X10422095Y-17626476D01*
X10545905Y-17426476D02*
X10564952Y-17426476D01*
X10584000Y-17436000D01*
X10593524Y-17445524D01*
X10603048Y-17464571D01*
X10612571Y-17502667D01*
X10612571Y-17550286D01*
X10603048Y-17588381D01*
X10593524Y-17607429D01*
X10584000Y-17616952D01*
X10564952Y-17626476D01*
X10545905Y-17626476D01*
X10526857Y-17616952D01*
X10517333Y-17607429D01*
X10507810Y-17588381D01*
X10498286Y-17550286D01*
X10498286Y-17502667D01*
X10507810Y-17464571D01*
X10517333Y-17445524D01*
X10526857Y-17436000D01*
X10545905Y-17426476D01*
X10736381Y-17426476D02*
X10755429Y-17426476D01*
X10774476Y-17436000D01*
X10784000Y-17445524D01*
X10793524Y-17464571D01*
X10803048Y-17502667D01*
X10803048Y-17550286D01*
X10793524Y-17588381D01*
X10784000Y-17607429D01*
X10774476Y-17616952D01*
X10755429Y-17626476D01*
X10736381Y-17626476D01*
X10717333Y-17616952D01*
X10707810Y-17607429D01*
X10698286Y-17588381D01*
X10688762Y-17550286D01*
X10688762Y-17502667D01*
X10698286Y-17464571D01*
X10707810Y-17445524D01*
X10717333Y-17436000D01*
X10736381Y-17426476D01*
X10888762Y-17626476D02*
X10888762Y-17493143D01*
X10888762Y-17512190D02*
X10898286Y-17502667D01*
X10917333Y-17493143D01*
X10945905Y-17493143D01*
X10964952Y-17502667D01*
X10974476Y-17521714D01*
X10974476Y-17626476D01*
X10974476Y-17521714D02*
X10984000Y-17502667D01*
X11003048Y-17493143D01*
X11031619Y-17493143D01*
X11050667Y-17502667D01*
X11060190Y-17521714D01*
X11060190Y-17626476D01*
X11155429Y-17626476D02*
X11155429Y-17493143D01*
X11155429Y-17512190D02*
X11164952Y-17502667D01*
X11184000Y-17493143D01*
X11212571Y-17493143D01*
X11231619Y-17502667D01*
X11241143Y-17521714D01*
X11241143Y-17626476D01*
X11241143Y-17521714D02*
X11250667Y-17502667D01*
X11269714Y-17493143D01*
X11298286Y-17493143D01*
X11317333Y-17502667D01*
X11326857Y-17521714D01*
X11326857Y-17626476D01*
X11717333Y-17416952D02*
X11545905Y-17674095D01*
X11974476Y-17426476D02*
X11993524Y-17426476D01*
X12012571Y-17436000D01*
X12022095Y-17445524D01*
X12031619Y-17464571D01*
X12041143Y-17502667D01*
X12041143Y-17550286D01*
X12031619Y-17588381D01*
X12022095Y-17607429D01*
X12012571Y-17616952D01*
X11993524Y-17626476D01*
X11974476Y-17626476D01*
X11955428Y-17616952D01*
X11945905Y-17607429D01*
X11936381Y-17588381D01*
X11926857Y-17550286D01*
X11926857Y-17502667D01*
X11936381Y-17464571D01*
X11945905Y-17445524D01*
X11955428Y-17436000D01*
X11974476Y-17426476D01*
X12126857Y-17607429D02*
X12136381Y-17616952D01*
X12126857Y-17626476D01*
X12117333Y-17616952D01*
X12126857Y-17607429D01*
X12126857Y-17626476D01*
X12326857Y-17626476D02*
X12212571Y-17626476D01*
X12269714Y-17626476D02*
X12269714Y-17426476D01*
X12250667Y-17455048D01*
X12231619Y-17474095D01*
X12212571Y-17483619D01*
X12403048Y-17445524D02*
X12412571Y-17436000D01*
X12431619Y-17426476D01*
X12479238Y-17426476D01*
X12498286Y-17436000D01*
X12507809Y-17445524D01*
X12517333Y-17464571D01*
X12517333Y-17483619D01*
X12507809Y-17512190D01*
X12393524Y-17626476D01*
X12517333Y-17626476D01*
X12688762Y-17426476D02*
X12650667Y-17426476D01*
X12631619Y-17436000D01*
X12622095Y-17445524D01*
X12603048Y-17474095D01*
X12593524Y-17512190D01*
X12593524Y-17588381D01*
X12603048Y-17607429D01*
X12612571Y-17616952D01*
X12631619Y-17626476D01*
X12669714Y-17626476D01*
X12688762Y-17616952D01*
X12698286Y-17607429D01*
X12707809Y-17588381D01*
X12707809Y-17540762D01*
X12698286Y-17521714D01*
X12688762Y-17512190D01*
X12669714Y-17502667D01*
X12631619Y-17502667D01*
X12612571Y-17512190D01*
X12603048Y-17521714D01*
X12593524Y-17540762D01*
X12831619Y-17426476D02*
X12850667Y-17426476D01*
X12869714Y-17436000D01*
X12879238Y-17445524D01*
X12888762Y-17464571D01*
X12898286Y-17502667D01*
X12898286Y-17550286D01*
X12888762Y-17588381D01*
X12879238Y-17607429D01*
X12869714Y-17616952D01*
X12850667Y-17626476D01*
X12831619Y-17626476D01*
X12812571Y-17616952D01*
X12803048Y-17607429D01*
X12793524Y-17588381D01*
X12784000Y-17550286D01*
X12784000Y-17502667D01*
X12793524Y-17464571D01*
X12803048Y-17445524D01*
X12812571Y-17436000D01*
X12831619Y-17426476D01*
X12974476Y-17426476D02*
X12974476Y-17464571D01*
X13050667Y-17426476D02*
X13050667Y-17464571D01*
X13345905Y-17702667D02*
X13336381Y-17693143D01*
X13317333Y-17664571D01*
X13307809Y-17645524D01*
X13298286Y-17616952D01*
X13288762Y-17569333D01*
X13288762Y-17531238D01*
X13298286Y-17483619D01*
X13307809Y-17455048D01*
X13317333Y-17436000D01*
X13336381Y-17407429D01*
X13345905Y-17397905D01*
X13507809Y-17493143D02*
X13507809Y-17626476D01*
X13460190Y-17416952D02*
X13412571Y-17559810D01*
X13536381Y-17559810D01*
X13764952Y-17626476D02*
X13764952Y-17426476D01*
X13850667Y-17626476D02*
X13850667Y-17521714D01*
X13841143Y-17502667D01*
X13822095Y-17493143D01*
X13793524Y-17493143D01*
X13774476Y-17502667D01*
X13764952Y-17512190D01*
X13974476Y-17626476D02*
X13955428Y-17616952D01*
X13945905Y-17607429D01*
X13936381Y-17588381D01*
X13936381Y-17531238D01*
X13945905Y-17512190D01*
X13955428Y-17502667D01*
X13974476Y-17493143D01*
X14003048Y-17493143D01*
X14022095Y-17502667D01*
X14031619Y-17512190D01*
X14041143Y-17531238D01*
X14041143Y-17588381D01*
X14031619Y-17607429D01*
X14022095Y-17616952D01*
X14003048Y-17626476D01*
X13974476Y-17626476D01*
X14155428Y-17626476D02*
X14136381Y-17616952D01*
X14126857Y-17597905D01*
X14126857Y-17426476D01*
X14307809Y-17616952D02*
X14288762Y-17626476D01*
X14250667Y-17626476D01*
X14231619Y-17616952D01*
X14222095Y-17597905D01*
X14222095Y-17521714D01*
X14231619Y-17502667D01*
X14250667Y-17493143D01*
X14288762Y-17493143D01*
X14307809Y-17502667D01*
X14317333Y-17521714D01*
X14317333Y-17540762D01*
X14222095Y-17559810D01*
X14393524Y-17616952D02*
X14412571Y-17626476D01*
X14450667Y-17626476D01*
X14469714Y-17616952D01*
X14479238Y-17597905D01*
X14479238Y-17588381D01*
X14469714Y-17569333D01*
X14450667Y-17559810D01*
X14422095Y-17559810D01*
X14403048Y-17550286D01*
X14393524Y-17531238D01*
X14393524Y-17521714D01*
X14403048Y-17502667D01*
X14422095Y-17493143D01*
X14450667Y-17493143D01*
X14469714Y-17502667D01*
X14545905Y-17702667D02*
X14555428Y-17693143D01*
X14574476Y-17664571D01*
X14584000Y-17645524D01*
X14593524Y-17616952D01*
X14603048Y-17569333D01*
X14603048Y-17531238D01*
X14593524Y-17483619D01*
X14584000Y-17455048D01*
X14574476Y-17436000D01*
X14555428Y-17407429D01*
X14545905Y-17397905D01*
X14907809Y-17702667D02*
X14898286Y-17693143D01*
X14879238Y-17664571D01*
X14869714Y-17645524D01*
X14860190Y-17616952D01*
X14850667Y-17569333D01*
X14850667Y-17531238D01*
X14860190Y-17483619D01*
X14869714Y-17455048D01*
X14879238Y-17436000D01*
X14898286Y-17407429D01*
X14907809Y-17397905D01*
X14984000Y-17493143D02*
X14984000Y-17626476D01*
X14984000Y-17512190D02*
X14993524Y-17502667D01*
X15012571Y-17493143D01*
X15041143Y-17493143D01*
X15060190Y-17502667D01*
X15069714Y-17521714D01*
X15069714Y-17626476D01*
X15193524Y-17626476D02*
X15174476Y-17616952D01*
X15164952Y-17607429D01*
X15155428Y-17588381D01*
X15155428Y-17531238D01*
X15164952Y-17512190D01*
X15174476Y-17502667D01*
X15193524Y-17493143D01*
X15222095Y-17493143D01*
X15241143Y-17502667D01*
X15250667Y-17512190D01*
X15260190Y-17531238D01*
X15260190Y-17588381D01*
X15250667Y-17607429D01*
X15241143Y-17616952D01*
X15222095Y-17626476D01*
X15193524Y-17626476D01*
X15317333Y-17493143D02*
X15393524Y-17493143D01*
X15345905Y-17426476D02*
X15345905Y-17597905D01*
X15355428Y-17616952D01*
X15374476Y-17626476D01*
X15393524Y-17626476D01*
X15612571Y-17493143D02*
X15612571Y-17693143D01*
X15612571Y-17502667D02*
X15631619Y-17493143D01*
X15669714Y-17493143D01*
X15688762Y-17502667D01*
X15698286Y-17512190D01*
X15707809Y-17531238D01*
X15707809Y-17588381D01*
X15698286Y-17607429D01*
X15688762Y-17616952D01*
X15669714Y-17626476D01*
X15631619Y-17626476D01*
X15612571Y-17616952D01*
X15822095Y-17626476D02*
X15803048Y-17616952D01*
X15793524Y-17597905D01*
X15793524Y-17426476D01*
X15984000Y-17626476D02*
X15984000Y-17521714D01*
X15974476Y-17502667D01*
X15955428Y-17493143D01*
X15917333Y-17493143D01*
X15898286Y-17502667D01*
X15984000Y-17616952D02*
X15964952Y-17626476D01*
X15917333Y-17626476D01*
X15898286Y-17616952D01*
X15888762Y-17597905D01*
X15888762Y-17578857D01*
X15898286Y-17559810D01*
X15917333Y-17550286D01*
X15964952Y-17550286D01*
X15984000Y-17540762D01*
X16050667Y-17493143D02*
X16126857Y-17493143D01*
X16079238Y-17426476D02*
X16079238Y-17597905D01*
X16088762Y-17616952D01*
X16107809Y-17626476D01*
X16126857Y-17626476D01*
X16269714Y-17616952D02*
X16250667Y-17626476D01*
X16212571Y-17626476D01*
X16193524Y-17616952D01*
X16184000Y-17597905D01*
X16184000Y-17521714D01*
X16193524Y-17502667D01*
X16212571Y-17493143D01*
X16250667Y-17493143D01*
X16269714Y-17502667D01*
X16279238Y-17521714D01*
X16279238Y-17540762D01*
X16184000Y-17559810D01*
X16450667Y-17626476D02*
X16450667Y-17426476D01*
X16450667Y-17616952D02*
X16431619Y-17626476D01*
X16393524Y-17626476D01*
X16374476Y-17616952D01*
X16364952Y-17607429D01*
X16355428Y-17588381D01*
X16355428Y-17531238D01*
X16364952Y-17512190D01*
X16374476Y-17502667D01*
X16393524Y-17493143D01*
X16431619Y-17493143D01*
X16450667Y-17502667D01*
X16526857Y-17702667D02*
X16536381Y-17693143D01*
X16555428Y-17664571D01*
X16564952Y-17645524D01*
X16574476Y-17616952D01*
X16584000Y-17569333D01*
X16584000Y-17531238D01*
X16574476Y-17483619D01*
X16564952Y-17455048D01*
X16555428Y-17436000D01*
X16536381Y-17407429D01*
X16526857Y-17397905D01*
M02*
