%TF.GenerationSoftware,KiCad,Pcbnew,(6.0.0)*%
%TF.CreationDate,2022-03-13T18:30:08-04:00*%
%TF.ProjectId,io_i2c,696f5f69-3263-42e6-9b69-6361645f7063,rev?*%
%TF.SameCoordinates,Original*%
%TF.FileFunction,AssemblyDrawing,Top*%
%FSLAX46Y46*%
G04 Gerber Fmt 4.6, Leading zero omitted, Abs format (unit mm)*
G04 Created by KiCad (PCBNEW (6.0.0)) date 2022-03-13 18:30:08*
%MOMM*%
%LPD*%
G01*
G04 APERTURE LIST*
%ADD10C,0.150000*%
%ADD11C,0.114000*%
%ADD12C,0.060000*%
%ADD13C,0.100000*%
G04 APERTURE END LIST*
D10*
%TO.C,U1*%
X127201884Y-121988891D02*
X127201884Y-122798415D01*
X127249503Y-122893653D01*
X127297122Y-122941272D01*
X127392360Y-122988891D01*
X127582836Y-122988891D01*
X127678074Y-122941272D01*
X127725693Y-122893653D01*
X127773312Y-122798415D01*
X127773312Y-121988891D01*
X128773312Y-122988891D02*
X128201884Y-122988891D01*
X128487598Y-122988891D02*
X128487598Y-121988891D01*
X128392360Y-122131749D01*
X128297122Y-122226987D01*
X128201884Y-122274606D01*
%TO.C,U2*%
X151852380Y-161797904D02*
X152661904Y-161797904D01*
X152757142Y-161750285D01*
X152804761Y-161702666D01*
X152852380Y-161607428D01*
X152852380Y-161416952D01*
X152804761Y-161321714D01*
X152757142Y-161274095D01*
X152661904Y-161226476D01*
X151852380Y-161226476D01*
X151947619Y-160797904D02*
X151900000Y-160750285D01*
X151852380Y-160655047D01*
X151852380Y-160416952D01*
X151900000Y-160321714D01*
X151947619Y-160274095D01*
X152042857Y-160226476D01*
X152138095Y-160226476D01*
X152280952Y-160274095D01*
X152852380Y-160845523D01*
X152852380Y-160226476D01*
%TO.C,J1*%
X124836455Y-121988891D02*
X124836455Y-122703177D01*
X124788836Y-122846034D01*
X124693598Y-122941272D01*
X124550741Y-122988891D01*
X124455503Y-122988891D01*
X125836455Y-122988891D02*
X125265027Y-122988891D01*
X125550741Y-122988891D02*
X125550741Y-121988891D01*
X125455503Y-122131749D01*
X125360265Y-122226987D01*
X125265027Y-122274606D01*
D11*
%TO.C,C1*%
X101617428Y-150494666D02*
X101653619Y-150530857D01*
X101689809Y-150639428D01*
X101689809Y-150711809D01*
X101653619Y-150820380D01*
X101581238Y-150892761D01*
X101508857Y-150928952D01*
X101364095Y-150965142D01*
X101255523Y-150965142D01*
X101110761Y-150928952D01*
X101038380Y-150892761D01*
X100966000Y-150820380D01*
X100929809Y-150711809D01*
X100929809Y-150639428D01*
X100966000Y-150530857D01*
X101002190Y-150494666D01*
X101689809Y-149770857D02*
X101689809Y-150205142D01*
X101689809Y-149988000D02*
X100929809Y-149988000D01*
X101038380Y-150060380D01*
X101110761Y-150132761D01*
X101146952Y-150205142D01*
%TO.C,C2*%
X145221333Y-97045428D02*
X145185142Y-97081619D01*
X145076571Y-97117809D01*
X145004190Y-97117809D01*
X144895619Y-97081619D01*
X144823238Y-97009238D01*
X144787047Y-96936857D01*
X144750857Y-96792095D01*
X144750857Y-96683523D01*
X144787047Y-96538761D01*
X144823238Y-96466380D01*
X144895619Y-96394000D01*
X145004190Y-96357809D01*
X145076571Y-96357809D01*
X145185142Y-96394000D01*
X145221333Y-96430190D01*
X145510857Y-96430190D02*
X145547047Y-96394000D01*
X145619428Y-96357809D01*
X145800380Y-96357809D01*
X145872761Y-96394000D01*
X145908952Y-96430190D01*
X145945142Y-96502571D01*
X145945142Y-96574952D01*
X145908952Y-96683523D01*
X145474666Y-97117809D01*
X145945142Y-97117809D01*
D10*
%TO.C,U4*%
X113005380Y-151119904D02*
X113814904Y-151119904D01*
X113910142Y-151072285D01*
X113957761Y-151024666D01*
X114005380Y-150929428D01*
X114005380Y-150738952D01*
X113957761Y-150643714D01*
X113910142Y-150596095D01*
X113814904Y-150548476D01*
X113005380Y-150548476D01*
X113338714Y-149643714D02*
X114005380Y-149643714D01*
X112957761Y-149881809D02*
X113672047Y-150119904D01*
X113672047Y-149500857D01*
%TO.C,U3*%
X126955380Y-162041904D02*
X127764904Y-162041904D01*
X127860142Y-161994285D01*
X127907761Y-161946666D01*
X127955380Y-161851428D01*
X127955380Y-161660952D01*
X127907761Y-161565714D01*
X127860142Y-161518095D01*
X127764904Y-161470476D01*
X126955380Y-161470476D01*
X126955380Y-161089523D02*
X126955380Y-160470476D01*
X127336333Y-160803809D01*
X127336333Y-160660952D01*
X127383952Y-160565714D01*
X127431571Y-160518095D01*
X127526809Y-160470476D01*
X127764904Y-160470476D01*
X127860142Y-160518095D01*
X127907761Y-160565714D01*
X127955380Y-160660952D01*
X127955380Y-160946666D01*
X127907761Y-161041904D01*
X127860142Y-161089523D01*
D11*
%TO.C,C3*%
X139971428Y-161162666D02*
X140007619Y-161198857D01*
X140043809Y-161307428D01*
X140043809Y-161379809D01*
X140007619Y-161488380D01*
X139935238Y-161560761D01*
X139862857Y-161596952D01*
X139718095Y-161633142D01*
X139609523Y-161633142D01*
X139464761Y-161596952D01*
X139392380Y-161560761D01*
X139320000Y-161488380D01*
X139283809Y-161379809D01*
X139283809Y-161307428D01*
X139320000Y-161198857D01*
X139356190Y-161162666D01*
X139283809Y-160909333D02*
X139283809Y-160438857D01*
X139573333Y-160692190D01*
X139573333Y-160583619D01*
X139609523Y-160511238D01*
X139645714Y-160475047D01*
X139718095Y-160438857D01*
X139899047Y-160438857D01*
X139971428Y-160475047D01*
X140007619Y-160511238D01*
X140043809Y-160583619D01*
X140043809Y-160800761D01*
X140007619Y-160873142D01*
X139971428Y-160909333D01*
D10*
%TO.C,Q1*%
X175926761Y-126637619D02*
X175831523Y-126590000D01*
X175736285Y-126494761D01*
X175593428Y-126351904D01*
X175498190Y-126304285D01*
X175402952Y-126304285D01*
X175450571Y-126542380D02*
X175355333Y-126494761D01*
X175260095Y-126399523D01*
X175212476Y-126209047D01*
X175212476Y-125875714D01*
X175260095Y-125685238D01*
X175355333Y-125590000D01*
X175450571Y-125542380D01*
X175641047Y-125542380D01*
X175736285Y-125590000D01*
X175831523Y-125685238D01*
X175879142Y-125875714D01*
X175879142Y-126209047D01*
X175831523Y-126399523D01*
X175736285Y-126494761D01*
X175641047Y-126542380D01*
X175450571Y-126542380D01*
X176831523Y-126542380D02*
X176260095Y-126542380D01*
X176545809Y-126542380D02*
X176545809Y-125542380D01*
X176450571Y-125685238D01*
X176355333Y-125780476D01*
X176260095Y-125828095D01*
%TO.C,A1*%
X164494666Y-113490285D02*
X164494666Y-113014095D01*
X164780380Y-113585523D02*
X163780380Y-113252190D01*
X164780380Y-112918857D01*
X164780380Y-112061714D02*
X164780380Y-112633142D01*
X164780380Y-112347428D02*
X163780380Y-112347428D01*
X163923238Y-112442666D01*
X164018476Y-112537904D01*
X164066095Y-112633142D01*
%TO.C,J2*%
X171680761Y-121670380D02*
X171680761Y-122384666D01*
X171633142Y-122527523D01*
X171537904Y-122622761D01*
X171395047Y-122670380D01*
X171299809Y-122670380D01*
X172585523Y-122003714D02*
X172585523Y-122670380D01*
X172156952Y-122003714D02*
X172156952Y-122527523D01*
X172204571Y-122622761D01*
X172299809Y-122670380D01*
X172442666Y-122670380D01*
X172537904Y-122622761D01*
X172585523Y-122575142D01*
X173061714Y-122670380D02*
X173061714Y-122003714D01*
X173061714Y-122098952D02*
X173109333Y-122051333D01*
X173204571Y-122003714D01*
X173347428Y-122003714D01*
X173442666Y-122051333D01*
X173490285Y-122146571D01*
X173490285Y-122670380D01*
X173490285Y-122146571D02*
X173537904Y-122051333D01*
X173633142Y-122003714D01*
X173776000Y-122003714D01*
X173871238Y-122051333D01*
X173918857Y-122146571D01*
X173918857Y-122670380D01*
X174395047Y-122003714D02*
X174395047Y-123003714D01*
X174395047Y-122051333D02*
X174490285Y-122003714D01*
X174680761Y-122003714D01*
X174776000Y-122051333D01*
X174823619Y-122098952D01*
X174871238Y-122194190D01*
X174871238Y-122479904D01*
X174823619Y-122575142D01*
X174776000Y-122622761D01*
X174680761Y-122670380D01*
X174490285Y-122670380D01*
X174395047Y-122622761D01*
X175680761Y-122622761D02*
X175585523Y-122670380D01*
X175395047Y-122670380D01*
X175299809Y-122622761D01*
X175252190Y-122527523D01*
X175252190Y-122146571D01*
X175299809Y-122051333D01*
X175395047Y-122003714D01*
X175585523Y-122003714D01*
X175680761Y-122051333D01*
X175728380Y-122146571D01*
X175728380Y-122241809D01*
X175252190Y-122337047D01*
X176156952Y-122670380D02*
X176156952Y-122003714D01*
X176156952Y-122194190D02*
X176204571Y-122098952D01*
X176252190Y-122051333D01*
X176347428Y-122003714D01*
X176442666Y-122003714D01*
X177871238Y-122146571D02*
X178014095Y-122194190D01*
X178061714Y-122241809D01*
X178109333Y-122337047D01*
X178109333Y-122479904D01*
X178061714Y-122575142D01*
X178014095Y-122622761D01*
X177918857Y-122670380D01*
X177537904Y-122670380D01*
X177537904Y-121670380D01*
X177871238Y-121670380D01*
X177966476Y-121718000D01*
X178014095Y-121765619D01*
X178061714Y-121860857D01*
X178061714Y-121956095D01*
X178014095Y-122051333D01*
X177966476Y-122098952D01*
X177871238Y-122146571D01*
X177537904Y-122146571D01*
X178680761Y-122670380D02*
X178585523Y-122622761D01*
X178537904Y-122527523D01*
X178537904Y-121670380D01*
X179204571Y-122670380D02*
X179109333Y-122622761D01*
X179061714Y-122575142D01*
X179014095Y-122479904D01*
X179014095Y-122194190D01*
X179061714Y-122098952D01*
X179109333Y-122051333D01*
X179204571Y-122003714D01*
X179347428Y-122003714D01*
X179442666Y-122051333D01*
X179490285Y-122098952D01*
X179537904Y-122194190D01*
X179537904Y-122479904D01*
X179490285Y-122575142D01*
X179442666Y-122622761D01*
X179347428Y-122670380D01*
X179204571Y-122670380D01*
X180395047Y-122622761D02*
X180299809Y-122670380D01*
X180109333Y-122670380D01*
X180014095Y-122622761D01*
X179966476Y-122575142D01*
X179918857Y-122479904D01*
X179918857Y-122194190D01*
X179966476Y-122098952D01*
X180014095Y-122051333D01*
X180109333Y-122003714D01*
X180299809Y-122003714D01*
X180395047Y-122051333D01*
X180823619Y-122670380D02*
X180823619Y-121670380D01*
X180918857Y-122289428D02*
X181204571Y-122670380D01*
X181204571Y-122003714D02*
X180823619Y-122384666D01*
X175728380Y-116411333D02*
X176442666Y-116411333D01*
X176585523Y-116458952D01*
X176680761Y-116554190D01*
X176728380Y-116697047D01*
X176728380Y-116792285D01*
X175823619Y-115982761D02*
X175776000Y-115935142D01*
X175728380Y-115839904D01*
X175728380Y-115601809D01*
X175776000Y-115506571D01*
X175823619Y-115458952D01*
X175918857Y-115411333D01*
X176014095Y-115411333D01*
X176156952Y-115458952D01*
X176728380Y-116030380D01*
X176728380Y-115411333D01*
%TO.C,D7*%
X128650751Y-144979171D02*
X128650751Y-145550599D01*
X128650751Y-145264885D02*
X127650751Y-145264885D01*
X127793609Y-145360123D01*
X127888847Y-145455361D01*
X127936466Y-145550599D01*
X128650751Y-144550599D02*
X127650751Y-144550599D01*
X128650751Y-143979171D01*
X127650751Y-143979171D01*
X127984085Y-143074409D02*
X128650751Y-143074409D01*
X127603132Y-143312504D02*
X128317418Y-143550599D01*
X128317418Y-142931552D01*
X128650751Y-142026790D02*
X128650751Y-142598218D01*
X128650751Y-142312504D02*
X127650751Y-142312504D01*
X127793609Y-142407742D01*
X127888847Y-142502980D01*
X127936466Y-142598218D01*
X127984085Y-141169647D02*
X128650751Y-141169647D01*
X127603132Y-141407742D02*
X128317418Y-141645837D01*
X128317418Y-141026790D01*
X128079323Y-140502980D02*
X128031704Y-140598218D01*
X127984085Y-140645837D01*
X127888847Y-140693456D01*
X127841228Y-140693456D01*
X127745990Y-140645837D01*
X127698371Y-140598218D01*
X127650751Y-140502980D01*
X127650751Y-140312504D01*
X127698371Y-140217266D01*
X127745990Y-140169647D01*
X127841228Y-140122028D01*
X127888847Y-140122028D01*
X127984085Y-140169647D01*
X128031704Y-140217266D01*
X128079323Y-140312504D01*
X128079323Y-140502980D01*
X128126942Y-140598218D01*
X128174561Y-140645837D01*
X128269799Y-140693456D01*
X128460275Y-140693456D01*
X128555513Y-140645837D01*
X128603132Y-140598218D01*
X128650751Y-140502980D01*
X128650751Y-140312504D01*
X128603132Y-140217266D01*
X128555513Y-140169647D01*
X128460275Y-140122028D01*
X128269799Y-140122028D01*
X128174561Y-140169647D01*
X128126942Y-140217266D01*
X128079323Y-140312504D01*
X125149666Y-140004409D02*
X125149666Y-139528218D01*
X125435380Y-140099647D02*
X124435380Y-139766314D01*
X125435380Y-139432980D01*
X123109009Y-143574409D02*
X122109009Y-143574409D01*
X122109009Y-143336314D01*
X122156629Y-143193456D01*
X122251867Y-143098218D01*
X122347105Y-143050599D01*
X122537581Y-143002980D01*
X122680438Y-143002980D01*
X122870914Y-143050599D01*
X122966152Y-143098218D01*
X123061390Y-143193456D01*
X123109009Y-143336314D01*
X123109009Y-143574409D01*
X122109009Y-142669647D02*
X122109009Y-142002980D01*
X123109009Y-142431552D01*
%TO.C,R1*%
X172072380Y-106621666D02*
X171596190Y-106955000D01*
X172072380Y-107193095D02*
X171072380Y-107193095D01*
X171072380Y-106812142D01*
X171120000Y-106716904D01*
X171167619Y-106669285D01*
X171262857Y-106621666D01*
X171405714Y-106621666D01*
X171500952Y-106669285D01*
X171548571Y-106716904D01*
X171596190Y-106812142D01*
X171596190Y-107193095D01*
X172072380Y-105669285D02*
X172072380Y-106240714D01*
X172072380Y-105955000D02*
X171072380Y-105955000D01*
X171215238Y-106050238D01*
X171310476Y-106145476D01*
X171358095Y-106240714D01*
%TO.C,REF\u002A\u002A*%
X92480952Y-100537380D02*
X92480952Y-99537380D01*
X92814285Y-100251666D01*
X93147619Y-99537380D01*
X93147619Y-100537380D01*
X93766666Y-100537380D02*
X93671428Y-100489761D01*
X93623809Y-100442142D01*
X93576190Y-100346904D01*
X93576190Y-100061190D01*
X93623809Y-99965952D01*
X93671428Y-99918333D01*
X93766666Y-99870714D01*
X93909523Y-99870714D01*
X94004761Y-99918333D01*
X94052380Y-99965952D01*
X94099999Y-100061190D01*
X94099999Y-100346904D01*
X94052380Y-100442142D01*
X94004761Y-100489761D01*
X93909523Y-100537380D01*
X93766666Y-100537380D01*
X94957142Y-99870714D02*
X94957142Y-100537380D01*
X94528571Y-99870714D02*
X94528571Y-100394523D01*
X94576190Y-100489761D01*
X94671428Y-100537380D01*
X94814285Y-100537380D01*
X94909523Y-100489761D01*
X94957142Y-100442142D01*
X95433333Y-99870714D02*
X95433333Y-100537380D01*
X95433333Y-99965952D02*
X95480952Y-99918333D01*
X95576190Y-99870714D01*
X95719047Y-99870714D01*
X95814285Y-99918333D01*
X95861904Y-100013571D01*
X95861904Y-100537380D01*
X96195238Y-99870714D02*
X96576190Y-99870714D01*
X96338095Y-99537380D02*
X96338095Y-100394523D01*
X96385714Y-100489761D01*
X96480952Y-100537380D01*
X96576190Y-100537380D01*
X96909523Y-100537380D02*
X96909523Y-99870714D01*
X96909523Y-99537380D02*
X96861904Y-99585000D01*
X96909523Y-99632619D01*
X96957142Y-99585000D01*
X96909523Y-99537380D01*
X96909523Y-99632619D01*
X97385714Y-99870714D02*
X97385714Y-100537380D01*
X97385714Y-99965952D02*
X97433333Y-99918333D01*
X97528571Y-99870714D01*
X97671428Y-99870714D01*
X97766666Y-99918333D01*
X97814285Y-100013571D01*
X97814285Y-100537380D01*
X98719047Y-99870714D02*
X98719047Y-100680238D01*
X98671428Y-100775476D01*
X98623809Y-100823095D01*
X98528571Y-100870714D01*
X98385714Y-100870714D01*
X98290476Y-100823095D01*
X98719047Y-100489761D02*
X98623809Y-100537380D01*
X98433333Y-100537380D01*
X98338095Y-100489761D01*
X98290476Y-100442142D01*
X98242857Y-100346904D01*
X98242857Y-100061190D01*
X98290476Y-99965952D01*
X98338095Y-99918333D01*
X98433333Y-99870714D01*
X98623809Y-99870714D01*
X98719047Y-99918333D01*
X99195238Y-100537380D02*
X99195238Y-99537380D01*
X99195238Y-100013571D02*
X99766666Y-100013571D01*
X99766666Y-100537380D02*
X99766666Y-99537380D01*
X100385714Y-100537380D02*
X100290476Y-100489761D01*
X100242857Y-100442142D01*
X100195238Y-100346904D01*
X100195238Y-100061190D01*
X100242857Y-99965952D01*
X100290476Y-99918333D01*
X100385714Y-99870714D01*
X100528571Y-99870714D01*
X100623809Y-99918333D01*
X100671428Y-99965952D01*
X100719047Y-100061190D01*
X100719047Y-100346904D01*
X100671428Y-100442142D01*
X100623809Y-100489761D01*
X100528571Y-100537380D01*
X100385714Y-100537380D01*
X101290476Y-100537380D02*
X101195238Y-100489761D01*
X101147619Y-100394523D01*
X101147619Y-99537380D01*
X102052380Y-100489761D02*
X101957142Y-100537380D01*
X101766666Y-100537380D01*
X101671428Y-100489761D01*
X101623809Y-100394523D01*
X101623809Y-100013571D01*
X101671428Y-99918333D01*
X101766666Y-99870714D01*
X101957142Y-99870714D01*
X102052380Y-99918333D01*
X102099999Y-100013571D01*
X102099999Y-100108809D01*
X101623809Y-100204047D01*
X102290476Y-100632619D02*
X103052380Y-100632619D01*
X103195238Y-99537380D02*
X103814285Y-99537380D01*
X103480952Y-99918333D01*
X103623809Y-99918333D01*
X103719047Y-99965952D01*
X103766666Y-100013571D01*
X103814285Y-100108809D01*
X103814285Y-100346904D01*
X103766666Y-100442142D01*
X103719047Y-100489761D01*
X103623809Y-100537380D01*
X103338095Y-100537380D01*
X103242857Y-100489761D01*
X103195238Y-100442142D01*
X104242857Y-100442142D02*
X104290476Y-100489761D01*
X104242857Y-100537380D01*
X104195238Y-100489761D01*
X104242857Y-100442142D01*
X104242857Y-100537380D01*
X104671428Y-99632619D02*
X104719047Y-99585000D01*
X104814285Y-99537380D01*
X105052380Y-99537380D01*
X105147619Y-99585000D01*
X105195238Y-99632619D01*
X105242857Y-99727857D01*
X105242857Y-99823095D01*
X105195238Y-99965952D01*
X104623809Y-100537380D01*
X105242857Y-100537380D01*
X105671428Y-100537380D02*
X105671428Y-99870714D01*
X105671428Y-99965952D02*
X105719047Y-99918333D01*
X105814285Y-99870714D01*
X105957142Y-99870714D01*
X106052380Y-99918333D01*
X106099999Y-100013571D01*
X106099999Y-100537380D01*
X106099999Y-100013571D02*
X106147619Y-99918333D01*
X106242857Y-99870714D01*
X106385714Y-99870714D01*
X106480952Y-99918333D01*
X106528571Y-100013571D01*
X106528571Y-100537380D01*
X107004761Y-100537380D02*
X107004761Y-99870714D01*
X107004761Y-99965952D02*
X107052380Y-99918333D01*
X107147619Y-99870714D01*
X107290476Y-99870714D01*
X107385714Y-99918333D01*
X107433333Y-100013571D01*
X107433333Y-100537380D01*
X107433333Y-100013571D02*
X107480952Y-99918333D01*
X107576190Y-99870714D01*
X107719047Y-99870714D01*
X107814285Y-99918333D01*
X107861904Y-100013571D01*
X107861904Y-100537380D01*
X108099999Y-100632619D02*
X108861904Y-100632619D01*
X109099999Y-100537380D02*
X109099999Y-99537380D01*
X109433333Y-100251666D01*
X109766666Y-99537380D01*
X109766666Y-100537380D01*
X110147619Y-99537380D02*
X110766666Y-99537380D01*
X110433333Y-99918333D01*
X110576190Y-99918333D01*
X110671428Y-99965952D01*
X110719047Y-100013571D01*
X110766666Y-100108809D01*
X110766666Y-100346904D01*
X110719047Y-100442142D01*
X110671428Y-100489761D01*
X110576190Y-100537380D01*
X110290476Y-100537380D01*
X110195238Y-100489761D01*
X110147619Y-100442142D01*
X100566666Y-96337380D02*
X100233333Y-95861190D01*
X99995238Y-96337380D02*
X99995238Y-95337380D01*
X100376190Y-95337380D01*
X100471428Y-95385000D01*
X100519047Y-95432619D01*
X100566666Y-95527857D01*
X100566666Y-95670714D01*
X100519047Y-95765952D01*
X100471428Y-95813571D01*
X100376190Y-95861190D01*
X99995238Y-95861190D01*
X100995238Y-95813571D02*
X101328571Y-95813571D01*
X101471428Y-96337380D02*
X100995238Y-96337380D01*
X100995238Y-95337380D01*
X101471428Y-95337380D01*
X102233333Y-95813571D02*
X101900000Y-95813571D01*
X101900000Y-96337380D02*
X101900000Y-95337380D01*
X102376190Y-95337380D01*
X102900000Y-95337380D02*
X102900000Y-95575476D01*
X102661904Y-95480238D02*
X102900000Y-95575476D01*
X103138095Y-95480238D01*
X102757142Y-95765952D02*
X102900000Y-95575476D01*
X103042857Y-95765952D01*
X103661904Y-95337380D02*
X103661904Y-95575476D01*
X103423809Y-95480238D02*
X103661904Y-95575476D01*
X103900000Y-95480238D01*
X103519047Y-95765952D02*
X103661904Y-95575476D01*
X103804761Y-95765952D01*
%TO.C,D3*%
X115950751Y-144979171D02*
X115950751Y-145550599D01*
X115950751Y-145264885D02*
X114950751Y-145264885D01*
X115093609Y-145360123D01*
X115188847Y-145455361D01*
X115236466Y-145550599D01*
X115950751Y-144550599D02*
X114950751Y-144550599D01*
X115950751Y-143979171D01*
X114950751Y-143979171D01*
X115284085Y-143074409D02*
X115950751Y-143074409D01*
X114903132Y-143312504D02*
X115617418Y-143550599D01*
X115617418Y-142931552D01*
X115950751Y-142026790D02*
X115950751Y-142598218D01*
X115950751Y-142312504D02*
X114950751Y-142312504D01*
X115093609Y-142407742D01*
X115188847Y-142502980D01*
X115236466Y-142598218D01*
X115284085Y-141169647D02*
X115950751Y-141169647D01*
X114903132Y-141407742D02*
X115617418Y-141645837D01*
X115617418Y-141026790D01*
X115379323Y-140502980D02*
X115331704Y-140598218D01*
X115284085Y-140645837D01*
X115188847Y-140693456D01*
X115141228Y-140693456D01*
X115045990Y-140645837D01*
X114998371Y-140598218D01*
X114950751Y-140502980D01*
X114950751Y-140312504D01*
X114998371Y-140217266D01*
X115045990Y-140169647D01*
X115141228Y-140122028D01*
X115188847Y-140122028D01*
X115284085Y-140169647D01*
X115331704Y-140217266D01*
X115379323Y-140312504D01*
X115379323Y-140502980D01*
X115426942Y-140598218D01*
X115474561Y-140645837D01*
X115569799Y-140693456D01*
X115760275Y-140693456D01*
X115855513Y-140645837D01*
X115903132Y-140598218D01*
X115950751Y-140502980D01*
X115950751Y-140312504D01*
X115903132Y-140217266D01*
X115855513Y-140169647D01*
X115760275Y-140122028D01*
X115569799Y-140122028D01*
X115474561Y-140169647D01*
X115426942Y-140217266D01*
X115379323Y-140312504D01*
X110409009Y-143574409D02*
X109409009Y-143574409D01*
X109409009Y-143336314D01*
X109456629Y-143193456D01*
X109551867Y-143098218D01*
X109647105Y-143050599D01*
X109837581Y-143002980D01*
X109980438Y-143002980D01*
X110170914Y-143050599D01*
X110266152Y-143098218D01*
X110361390Y-143193456D01*
X110409009Y-143336314D01*
X110409009Y-143574409D01*
X109409009Y-142669647D02*
X109409009Y-142050599D01*
X109789962Y-142383933D01*
X109789962Y-142241075D01*
X109837581Y-142145837D01*
X109885200Y-142098218D01*
X109980438Y-142050599D01*
X110218533Y-142050599D01*
X110313771Y-142098218D01*
X110361390Y-142145837D01*
X110409009Y-142241075D01*
X110409009Y-142526790D01*
X110361390Y-142622028D01*
X110313771Y-142669647D01*
X112449666Y-140004409D02*
X112449666Y-139528218D01*
X112735380Y-140099647D02*
X111735380Y-139766314D01*
X112735380Y-139432980D01*
%TO.C,J3*%
X133072761Y-153674380D02*
X133072761Y-154388666D01*
X133025142Y-154531523D01*
X132929904Y-154626761D01*
X132787047Y-154674380D01*
X132691809Y-154674380D01*
X133977523Y-154007714D02*
X133977523Y-154674380D01*
X133548952Y-154007714D02*
X133548952Y-154531523D01*
X133596571Y-154626761D01*
X133691809Y-154674380D01*
X133834666Y-154674380D01*
X133929904Y-154626761D01*
X133977523Y-154579142D01*
X134453714Y-154674380D02*
X134453714Y-154007714D01*
X134453714Y-154102952D02*
X134501333Y-154055333D01*
X134596571Y-154007714D01*
X134739428Y-154007714D01*
X134834666Y-154055333D01*
X134882285Y-154150571D01*
X134882285Y-154674380D01*
X134882285Y-154150571D02*
X134929904Y-154055333D01*
X135025142Y-154007714D01*
X135168000Y-154007714D01*
X135263238Y-154055333D01*
X135310857Y-154150571D01*
X135310857Y-154674380D01*
X135787047Y-154007714D02*
X135787047Y-155007714D01*
X135787047Y-154055333D02*
X135882285Y-154007714D01*
X136072761Y-154007714D01*
X136168000Y-154055333D01*
X136215619Y-154102952D01*
X136263238Y-154198190D01*
X136263238Y-154483904D01*
X136215619Y-154579142D01*
X136168000Y-154626761D01*
X136072761Y-154674380D01*
X135882285Y-154674380D01*
X135787047Y-154626761D01*
X137072761Y-154626761D02*
X136977523Y-154674380D01*
X136787047Y-154674380D01*
X136691809Y-154626761D01*
X136644190Y-154531523D01*
X136644190Y-154150571D01*
X136691809Y-154055333D01*
X136787047Y-154007714D01*
X136977523Y-154007714D01*
X137072761Y-154055333D01*
X137120380Y-154150571D01*
X137120380Y-154245809D01*
X136644190Y-154341047D01*
X137548952Y-154674380D02*
X137548952Y-154007714D01*
X137548952Y-154198190D02*
X137596571Y-154102952D01*
X137644190Y-154055333D01*
X137739428Y-154007714D01*
X137834666Y-154007714D01*
X139263238Y-154150571D02*
X139406095Y-154198190D01*
X139453714Y-154245809D01*
X139501333Y-154341047D01*
X139501333Y-154483904D01*
X139453714Y-154579142D01*
X139406095Y-154626761D01*
X139310857Y-154674380D01*
X138929904Y-154674380D01*
X138929904Y-153674380D01*
X139263238Y-153674380D01*
X139358476Y-153722000D01*
X139406095Y-153769619D01*
X139453714Y-153864857D01*
X139453714Y-153960095D01*
X139406095Y-154055333D01*
X139358476Y-154102952D01*
X139263238Y-154150571D01*
X138929904Y-154150571D01*
X140072761Y-154674380D02*
X139977523Y-154626761D01*
X139929904Y-154531523D01*
X139929904Y-153674380D01*
X140596571Y-154674380D02*
X140501333Y-154626761D01*
X140453714Y-154579142D01*
X140406095Y-154483904D01*
X140406095Y-154198190D01*
X140453714Y-154102952D01*
X140501333Y-154055333D01*
X140596571Y-154007714D01*
X140739428Y-154007714D01*
X140834666Y-154055333D01*
X140882285Y-154102952D01*
X140929904Y-154198190D01*
X140929904Y-154483904D01*
X140882285Y-154579142D01*
X140834666Y-154626761D01*
X140739428Y-154674380D01*
X140596571Y-154674380D01*
X141787047Y-154626761D02*
X141691809Y-154674380D01*
X141501333Y-154674380D01*
X141406095Y-154626761D01*
X141358476Y-154579142D01*
X141310857Y-154483904D01*
X141310857Y-154198190D01*
X141358476Y-154102952D01*
X141406095Y-154055333D01*
X141501333Y-154007714D01*
X141691809Y-154007714D01*
X141787047Y-154055333D01*
X142215619Y-154674380D02*
X142215619Y-153674380D01*
X142310857Y-154293428D02*
X142596571Y-154674380D01*
X142596571Y-154007714D02*
X142215619Y-154388666D01*
X137120380Y-149685333D02*
X137834666Y-149685333D01*
X137977523Y-149732952D01*
X138072761Y-149828190D01*
X138120380Y-149971047D01*
X138120380Y-150066285D01*
X137120380Y-149304380D02*
X137120380Y-148685333D01*
X137501333Y-149018666D01*
X137501333Y-148875809D01*
X137548952Y-148780571D01*
X137596571Y-148732952D01*
X137691809Y-148685333D01*
X137929904Y-148685333D01*
X138025142Y-148732952D01*
X138072761Y-148780571D01*
X138120380Y-148875809D01*
X138120380Y-149161523D01*
X138072761Y-149256761D01*
X138025142Y-149304380D01*
D11*
%TO.C,C5*%
X164863428Y-161162666D02*
X164899619Y-161198857D01*
X164935809Y-161307428D01*
X164935809Y-161379809D01*
X164899619Y-161488380D01*
X164827238Y-161560761D01*
X164754857Y-161596952D01*
X164610095Y-161633142D01*
X164501523Y-161633142D01*
X164356761Y-161596952D01*
X164284380Y-161560761D01*
X164212000Y-161488380D01*
X164175809Y-161379809D01*
X164175809Y-161307428D01*
X164212000Y-161198857D01*
X164248190Y-161162666D01*
X164175809Y-160475047D02*
X164175809Y-160836952D01*
X164537714Y-160873142D01*
X164501523Y-160836952D01*
X164465333Y-160764571D01*
X164465333Y-160583619D01*
X164501523Y-160511238D01*
X164537714Y-160475047D01*
X164610095Y-160438857D01*
X164791047Y-160438857D01*
X164863428Y-160475047D01*
X164899619Y-160511238D01*
X164935809Y-160583619D01*
X164935809Y-160764571D01*
X164899619Y-160836952D01*
X164863428Y-160873142D01*
D10*
%TO.C,R3*%
X128806380Y-102499666D02*
X128330190Y-102833000D01*
X128806380Y-103071095D02*
X127806380Y-103071095D01*
X127806380Y-102690142D01*
X127854000Y-102594904D01*
X127901619Y-102547285D01*
X127996857Y-102499666D01*
X128139714Y-102499666D01*
X128234952Y-102547285D01*
X128282571Y-102594904D01*
X128330190Y-102690142D01*
X128330190Y-103071095D01*
X127806380Y-102166333D02*
X127806380Y-101547285D01*
X128187333Y-101880619D01*
X128187333Y-101737761D01*
X128234952Y-101642523D01*
X128282571Y-101594904D01*
X128377809Y-101547285D01*
X128615904Y-101547285D01*
X128711142Y-101594904D01*
X128758761Y-101642523D01*
X128806380Y-101737761D01*
X128806380Y-102023476D01*
X128758761Y-102118714D01*
X128711142Y-102166333D01*
%TO.C,REF\u002A\u002A*%
X170585952Y-100537380D02*
X170585952Y-99537380D01*
X170919285Y-100251666D01*
X171252619Y-99537380D01*
X171252619Y-100537380D01*
X171871666Y-100537380D02*
X171776428Y-100489761D01*
X171728809Y-100442142D01*
X171681190Y-100346904D01*
X171681190Y-100061190D01*
X171728809Y-99965952D01*
X171776428Y-99918333D01*
X171871666Y-99870714D01*
X172014523Y-99870714D01*
X172109761Y-99918333D01*
X172157380Y-99965952D01*
X172205000Y-100061190D01*
X172205000Y-100346904D01*
X172157380Y-100442142D01*
X172109761Y-100489761D01*
X172014523Y-100537380D01*
X171871666Y-100537380D01*
X173062142Y-99870714D02*
X173062142Y-100537380D01*
X172633571Y-99870714D02*
X172633571Y-100394523D01*
X172681190Y-100489761D01*
X172776428Y-100537380D01*
X172919285Y-100537380D01*
X173014523Y-100489761D01*
X173062142Y-100442142D01*
X173538333Y-99870714D02*
X173538333Y-100537380D01*
X173538333Y-99965952D02*
X173585952Y-99918333D01*
X173681190Y-99870714D01*
X173824047Y-99870714D01*
X173919285Y-99918333D01*
X173966904Y-100013571D01*
X173966904Y-100537380D01*
X174300238Y-99870714D02*
X174681190Y-99870714D01*
X174443095Y-99537380D02*
X174443095Y-100394523D01*
X174490714Y-100489761D01*
X174585952Y-100537380D01*
X174681190Y-100537380D01*
X175014523Y-100537380D02*
X175014523Y-99870714D01*
X175014523Y-99537380D02*
X174966904Y-99585000D01*
X175014523Y-99632619D01*
X175062142Y-99585000D01*
X175014523Y-99537380D01*
X175014523Y-99632619D01*
X175490714Y-99870714D02*
X175490714Y-100537380D01*
X175490714Y-99965952D02*
X175538333Y-99918333D01*
X175633571Y-99870714D01*
X175776428Y-99870714D01*
X175871666Y-99918333D01*
X175919285Y-100013571D01*
X175919285Y-100537380D01*
X176824047Y-99870714D02*
X176824047Y-100680238D01*
X176776428Y-100775476D01*
X176728809Y-100823095D01*
X176633571Y-100870714D01*
X176490714Y-100870714D01*
X176395476Y-100823095D01*
X176824047Y-100489761D02*
X176728809Y-100537380D01*
X176538333Y-100537380D01*
X176443095Y-100489761D01*
X176395476Y-100442142D01*
X176347857Y-100346904D01*
X176347857Y-100061190D01*
X176395476Y-99965952D01*
X176443095Y-99918333D01*
X176538333Y-99870714D01*
X176728809Y-99870714D01*
X176824047Y-99918333D01*
X177300238Y-100537380D02*
X177300238Y-99537380D01*
X177300238Y-100013571D02*
X177871666Y-100013571D01*
X177871666Y-100537380D02*
X177871666Y-99537380D01*
X178490714Y-100537380D02*
X178395476Y-100489761D01*
X178347857Y-100442142D01*
X178300238Y-100346904D01*
X178300238Y-100061190D01*
X178347857Y-99965952D01*
X178395476Y-99918333D01*
X178490714Y-99870714D01*
X178633571Y-99870714D01*
X178728809Y-99918333D01*
X178776428Y-99965952D01*
X178824047Y-100061190D01*
X178824047Y-100346904D01*
X178776428Y-100442142D01*
X178728809Y-100489761D01*
X178633571Y-100537380D01*
X178490714Y-100537380D01*
X179395476Y-100537380D02*
X179300238Y-100489761D01*
X179252619Y-100394523D01*
X179252619Y-99537380D01*
X180157380Y-100489761D02*
X180062142Y-100537380D01*
X179871666Y-100537380D01*
X179776428Y-100489761D01*
X179728809Y-100394523D01*
X179728809Y-100013571D01*
X179776428Y-99918333D01*
X179871666Y-99870714D01*
X180062142Y-99870714D01*
X180157380Y-99918333D01*
X180205000Y-100013571D01*
X180205000Y-100108809D01*
X179728809Y-100204047D01*
X180395476Y-100632619D02*
X181157380Y-100632619D01*
X181300238Y-99537380D02*
X181919285Y-99537380D01*
X181585952Y-99918333D01*
X181728809Y-99918333D01*
X181824047Y-99965952D01*
X181871666Y-100013571D01*
X181919285Y-100108809D01*
X181919285Y-100346904D01*
X181871666Y-100442142D01*
X181824047Y-100489761D01*
X181728809Y-100537380D01*
X181443095Y-100537380D01*
X181347857Y-100489761D01*
X181300238Y-100442142D01*
X182347857Y-100442142D02*
X182395476Y-100489761D01*
X182347857Y-100537380D01*
X182300238Y-100489761D01*
X182347857Y-100442142D01*
X182347857Y-100537380D01*
X182776428Y-99632619D02*
X182824047Y-99585000D01*
X182919285Y-99537380D01*
X183157380Y-99537380D01*
X183252619Y-99585000D01*
X183300238Y-99632619D01*
X183347857Y-99727857D01*
X183347857Y-99823095D01*
X183300238Y-99965952D01*
X182728809Y-100537380D01*
X183347857Y-100537380D01*
X183776428Y-100537380D02*
X183776428Y-99870714D01*
X183776428Y-99965952D02*
X183824047Y-99918333D01*
X183919285Y-99870714D01*
X184062142Y-99870714D01*
X184157380Y-99918333D01*
X184205000Y-100013571D01*
X184205000Y-100537380D01*
X184205000Y-100013571D02*
X184252619Y-99918333D01*
X184347857Y-99870714D01*
X184490714Y-99870714D01*
X184585952Y-99918333D01*
X184633571Y-100013571D01*
X184633571Y-100537380D01*
X185109761Y-100537380D02*
X185109761Y-99870714D01*
X185109761Y-99965952D02*
X185157380Y-99918333D01*
X185252619Y-99870714D01*
X185395476Y-99870714D01*
X185490714Y-99918333D01*
X185538333Y-100013571D01*
X185538333Y-100537380D01*
X185538333Y-100013571D02*
X185585952Y-99918333D01*
X185681190Y-99870714D01*
X185824047Y-99870714D01*
X185919285Y-99918333D01*
X185966904Y-100013571D01*
X185966904Y-100537380D01*
X186205000Y-100632619D02*
X186966904Y-100632619D01*
X187205000Y-100537380D02*
X187205000Y-99537380D01*
X187538333Y-100251666D01*
X187871666Y-99537380D01*
X187871666Y-100537380D01*
X188252619Y-99537380D02*
X188871666Y-99537380D01*
X188538333Y-99918333D01*
X188681190Y-99918333D01*
X188776428Y-99965952D01*
X188824047Y-100013571D01*
X188871666Y-100108809D01*
X188871666Y-100346904D01*
X188824047Y-100442142D01*
X188776428Y-100489761D01*
X188681190Y-100537380D01*
X188395476Y-100537380D01*
X188300238Y-100489761D01*
X188252619Y-100442142D01*
X178671666Y-96337380D02*
X178338333Y-95861190D01*
X178100238Y-96337380D02*
X178100238Y-95337380D01*
X178481190Y-95337380D01*
X178576428Y-95385000D01*
X178624047Y-95432619D01*
X178671666Y-95527857D01*
X178671666Y-95670714D01*
X178624047Y-95765952D01*
X178576428Y-95813571D01*
X178481190Y-95861190D01*
X178100238Y-95861190D01*
X179100238Y-95813571D02*
X179433571Y-95813571D01*
X179576428Y-96337380D02*
X179100238Y-96337380D01*
X179100238Y-95337380D01*
X179576428Y-95337380D01*
X180338333Y-95813571D02*
X180005000Y-95813571D01*
X180005000Y-96337380D02*
X180005000Y-95337380D01*
X180481190Y-95337380D01*
X181005000Y-95337380D02*
X181005000Y-95575476D01*
X180766904Y-95480238D02*
X181005000Y-95575476D01*
X181243095Y-95480238D01*
X180862142Y-95765952D02*
X181005000Y-95575476D01*
X181147857Y-95765952D01*
X181766904Y-95337380D02*
X181766904Y-95575476D01*
X181528809Y-95480238D02*
X181766904Y-95575476D01*
X182005000Y-95480238D01*
X181624047Y-95765952D02*
X181766904Y-95575476D01*
X181909761Y-95765952D01*
%TO.C,U6*%
X146256884Y-116151891D02*
X146256884Y-116961415D01*
X146304503Y-117056653D01*
X146352122Y-117104272D01*
X146447360Y-117151891D01*
X146637836Y-117151891D01*
X146733074Y-117104272D01*
X146780693Y-117056653D01*
X146828312Y-116961415D01*
X146828312Y-116151891D01*
X147733074Y-116151891D02*
X147542598Y-116151891D01*
X147447360Y-116199511D01*
X147399741Y-116247130D01*
X147304503Y-116389987D01*
X147256884Y-116580463D01*
X147256884Y-116961415D01*
X147304503Y-117056653D01*
X147352122Y-117104272D01*
X147447360Y-117151891D01*
X147637836Y-117151891D01*
X147733074Y-117104272D01*
X147780693Y-117056653D01*
X147828312Y-116961415D01*
X147828312Y-116723320D01*
X147780693Y-116628082D01*
X147733074Y-116580463D01*
X147637836Y-116532844D01*
X147447360Y-116532844D01*
X147352122Y-116580463D01*
X147304503Y-116628082D01*
X147256884Y-116723320D01*
%TO.C,R4*%
X175376333Y-134140380D02*
X175043000Y-133664190D01*
X174804904Y-134140380D02*
X174804904Y-133140380D01*
X175185857Y-133140380D01*
X175281095Y-133188000D01*
X175328714Y-133235619D01*
X175376333Y-133330857D01*
X175376333Y-133473714D01*
X175328714Y-133568952D01*
X175281095Y-133616571D01*
X175185857Y-133664190D01*
X174804904Y-133664190D01*
X176233476Y-133473714D02*
X176233476Y-134140380D01*
X175995380Y-133092761D02*
X175757285Y-133807047D01*
X176376333Y-133807047D01*
%TO.C,D2*%
X113410751Y-144979171D02*
X113410751Y-145550599D01*
X113410751Y-145264885D02*
X112410751Y-145264885D01*
X112553609Y-145360123D01*
X112648847Y-145455361D01*
X112696466Y-145550599D01*
X113410751Y-144550599D02*
X112410751Y-144550599D01*
X113410751Y-143979171D01*
X112410751Y-143979171D01*
X112744085Y-143074409D02*
X113410751Y-143074409D01*
X112363132Y-143312504D02*
X113077418Y-143550599D01*
X113077418Y-142931552D01*
X113410751Y-142026790D02*
X113410751Y-142598218D01*
X113410751Y-142312504D02*
X112410751Y-142312504D01*
X112553609Y-142407742D01*
X112648847Y-142502980D01*
X112696466Y-142598218D01*
X112744085Y-141169647D02*
X113410751Y-141169647D01*
X112363132Y-141407742D02*
X113077418Y-141645837D01*
X113077418Y-141026790D01*
X112839323Y-140502980D02*
X112791704Y-140598218D01*
X112744085Y-140645837D01*
X112648847Y-140693456D01*
X112601228Y-140693456D01*
X112505990Y-140645837D01*
X112458371Y-140598218D01*
X112410751Y-140502980D01*
X112410751Y-140312504D01*
X112458371Y-140217266D01*
X112505990Y-140169647D01*
X112601228Y-140122028D01*
X112648847Y-140122028D01*
X112744085Y-140169647D01*
X112791704Y-140217266D01*
X112839323Y-140312504D01*
X112839323Y-140502980D01*
X112886942Y-140598218D01*
X112934561Y-140645837D01*
X113029799Y-140693456D01*
X113220275Y-140693456D01*
X113315513Y-140645837D01*
X113363132Y-140598218D01*
X113410751Y-140502980D01*
X113410751Y-140312504D01*
X113363132Y-140217266D01*
X113315513Y-140169647D01*
X113220275Y-140122028D01*
X113029799Y-140122028D01*
X112934561Y-140169647D01*
X112886942Y-140217266D01*
X112839323Y-140312504D01*
X107869009Y-143574409D02*
X106869009Y-143574409D01*
X106869009Y-143336314D01*
X106916629Y-143193456D01*
X107011867Y-143098218D01*
X107107105Y-143050599D01*
X107297581Y-143002980D01*
X107440438Y-143002980D01*
X107630914Y-143050599D01*
X107726152Y-143098218D01*
X107821390Y-143193456D01*
X107869009Y-143336314D01*
X107869009Y-143574409D01*
X106964248Y-142622028D02*
X106916629Y-142574409D01*
X106869009Y-142479171D01*
X106869009Y-142241075D01*
X106916629Y-142145837D01*
X106964248Y-142098218D01*
X107059486Y-142050599D01*
X107154724Y-142050599D01*
X107297581Y-142098218D01*
X107869009Y-142669647D01*
X107869009Y-142050599D01*
X109909666Y-140004409D02*
X109909666Y-139528218D01*
X110195380Y-140099647D02*
X109195380Y-139766314D01*
X110195380Y-139432980D01*
D12*
%TO.C,C6*%
X132267333Y-167681257D02*
X132248285Y-167700304D01*
X132191142Y-167719352D01*
X132153047Y-167719352D01*
X132095904Y-167700304D01*
X132057809Y-167662209D01*
X132038761Y-167624114D01*
X132019714Y-167547923D01*
X132019714Y-167490780D01*
X132038761Y-167414590D01*
X132057809Y-167376495D01*
X132095904Y-167338400D01*
X132153047Y-167319352D01*
X132191142Y-167319352D01*
X132248285Y-167338400D01*
X132267333Y-167357447D01*
X132610190Y-167319352D02*
X132534000Y-167319352D01*
X132495904Y-167338400D01*
X132476857Y-167357447D01*
X132438761Y-167414590D01*
X132419714Y-167490780D01*
X132419714Y-167643161D01*
X132438761Y-167681257D01*
X132457809Y-167700304D01*
X132495904Y-167719352D01*
X132572095Y-167719352D01*
X132610190Y-167700304D01*
X132629238Y-167681257D01*
X132648285Y-167643161D01*
X132648285Y-167547923D01*
X132629238Y-167509828D01*
X132610190Y-167490780D01*
X132572095Y-167471733D01*
X132495904Y-167471733D01*
X132457809Y-167490780D01*
X132438761Y-167509828D01*
X132419714Y-167547923D01*
D10*
%TO.C,R5*%
X136766380Y-104589666D02*
X136290190Y-104923000D01*
X136766380Y-105161095D02*
X135766380Y-105161095D01*
X135766380Y-104780142D01*
X135814000Y-104684904D01*
X135861619Y-104637285D01*
X135956857Y-104589666D01*
X136099714Y-104589666D01*
X136194952Y-104637285D01*
X136242571Y-104684904D01*
X136290190Y-104780142D01*
X136290190Y-105161095D01*
X135766380Y-103684904D02*
X135766380Y-104161095D01*
X136242571Y-104208714D01*
X136194952Y-104161095D01*
X136147333Y-104065857D01*
X136147333Y-103827761D01*
X136194952Y-103732523D01*
X136242571Y-103684904D01*
X136337809Y-103637285D01*
X136575904Y-103637285D01*
X136671142Y-103684904D01*
X136718761Y-103732523D01*
X136766380Y-103827761D01*
X136766380Y-104065857D01*
X136718761Y-104161095D01*
X136671142Y-104208714D01*
%TO.C,J4*%
X109387169Y-122874844D02*
X110101455Y-122874844D01*
X110244312Y-122922463D01*
X110339550Y-123017701D01*
X110387169Y-123160558D01*
X110387169Y-123255796D01*
X109720503Y-121970082D02*
X110387169Y-121970082D01*
X109339550Y-122208177D02*
X110053836Y-122446272D01*
X110053836Y-121827225D01*
%TO.C,D9*%
X139728015Y-101766623D02*
X139728015Y-102338051D01*
X139728015Y-102052337D02*
X138728015Y-102052337D01*
X138870873Y-102147575D01*
X138966111Y-102242813D01*
X139013730Y-102338051D01*
X139728015Y-101338051D02*
X138728015Y-101338051D01*
X139728015Y-100766623D01*
X138728015Y-100766623D01*
X139061349Y-99861861D02*
X139728015Y-99861861D01*
X138680396Y-100099956D02*
X139394682Y-100338051D01*
X139394682Y-99719004D01*
X138728015Y-99147575D02*
X138728015Y-99052337D01*
X138775635Y-98957099D01*
X138823254Y-98909480D01*
X138918492Y-98861861D01*
X139108968Y-98814242D01*
X139347063Y-98814242D01*
X139537539Y-98861861D01*
X139632777Y-98909480D01*
X139680396Y-98957099D01*
X139728015Y-99052337D01*
X139728015Y-99147575D01*
X139680396Y-99242813D01*
X139632777Y-99290432D01*
X139537539Y-99338051D01*
X139347063Y-99385670D01*
X139108968Y-99385670D01*
X138918492Y-99338051D01*
X138823254Y-99290432D01*
X138775635Y-99242813D01*
X138728015Y-99147575D01*
X138728015Y-98195194D02*
X138728015Y-98099956D01*
X138775635Y-98004718D01*
X138823254Y-97957099D01*
X138918492Y-97909480D01*
X139108968Y-97861861D01*
X139347063Y-97861861D01*
X139537539Y-97909480D01*
X139632777Y-97957099D01*
X139680396Y-98004718D01*
X139728015Y-98099956D01*
X139728015Y-98195194D01*
X139680396Y-98290432D01*
X139632777Y-98338051D01*
X139537539Y-98385670D01*
X139347063Y-98433289D01*
X139108968Y-98433289D01*
X138918492Y-98385670D01*
X138823254Y-98338051D01*
X138775635Y-98290432D01*
X138728015Y-98195194D01*
X139061349Y-97004718D02*
X139728015Y-97004718D01*
X138680396Y-97242813D02*
X139394682Y-97480908D01*
X139394682Y-96861861D01*
X133337745Y-100361861D02*
X132337745Y-100361861D01*
X132337745Y-100123766D01*
X132385365Y-99980908D01*
X132480603Y-99885670D01*
X132575841Y-99838051D01*
X132766317Y-99790432D01*
X132909174Y-99790432D01*
X133099650Y-99838051D01*
X133194888Y-99885670D01*
X133290126Y-99980908D01*
X133337745Y-100123766D01*
X133337745Y-100361861D01*
X133337745Y-99314242D02*
X133337745Y-99123766D01*
X133290126Y-99028527D01*
X133242507Y-98980908D01*
X133099650Y-98885670D01*
X132909174Y-98838051D01*
X132528222Y-98838051D01*
X132432984Y-98885670D01*
X132385365Y-98933289D01*
X132337745Y-99028527D01*
X132337745Y-99219004D01*
X132385365Y-99314242D01*
X132432984Y-99361861D01*
X132528222Y-99409480D01*
X132766317Y-99409480D01*
X132861555Y-99361861D01*
X132909174Y-99314242D01*
X132956793Y-99219004D01*
X132956793Y-99028527D01*
X132909174Y-98933289D01*
X132861555Y-98885670D01*
X132766317Y-98838051D01*
X135802666Y-96491861D02*
X135802666Y-96015670D01*
X136088380Y-96587099D02*
X135088380Y-96253766D01*
X136088380Y-95920432D01*
%TO.C,D1*%
X110870751Y-144979171D02*
X110870751Y-145550599D01*
X110870751Y-145264885D02*
X109870751Y-145264885D01*
X110013609Y-145360123D01*
X110108847Y-145455361D01*
X110156466Y-145550599D01*
X110870751Y-144550599D02*
X109870751Y-144550599D01*
X110870751Y-143979171D01*
X109870751Y-143979171D01*
X110204085Y-143074409D02*
X110870751Y-143074409D01*
X109823132Y-143312504D02*
X110537418Y-143550599D01*
X110537418Y-142931552D01*
X110870751Y-142026790D02*
X110870751Y-142598218D01*
X110870751Y-142312504D02*
X109870751Y-142312504D01*
X110013609Y-142407742D01*
X110108847Y-142502980D01*
X110156466Y-142598218D01*
X110204085Y-141169647D02*
X110870751Y-141169647D01*
X109823132Y-141407742D02*
X110537418Y-141645837D01*
X110537418Y-141026790D01*
X110299323Y-140502980D02*
X110251704Y-140598218D01*
X110204085Y-140645837D01*
X110108847Y-140693456D01*
X110061228Y-140693456D01*
X109965990Y-140645837D01*
X109918371Y-140598218D01*
X109870751Y-140502980D01*
X109870751Y-140312504D01*
X109918371Y-140217266D01*
X109965990Y-140169647D01*
X110061228Y-140122028D01*
X110108847Y-140122028D01*
X110204085Y-140169647D01*
X110251704Y-140217266D01*
X110299323Y-140312504D01*
X110299323Y-140502980D01*
X110346942Y-140598218D01*
X110394561Y-140645837D01*
X110489799Y-140693456D01*
X110680275Y-140693456D01*
X110775513Y-140645837D01*
X110823132Y-140598218D01*
X110870751Y-140502980D01*
X110870751Y-140312504D01*
X110823132Y-140217266D01*
X110775513Y-140169647D01*
X110680275Y-140122028D01*
X110489799Y-140122028D01*
X110394561Y-140169647D01*
X110346942Y-140217266D01*
X110299323Y-140312504D01*
X107369666Y-140004409D02*
X107369666Y-139528218D01*
X107655380Y-140099647D02*
X106655380Y-139766314D01*
X107655380Y-139432980D01*
X105329009Y-143574409D02*
X104329009Y-143574409D01*
X104329009Y-143336314D01*
X104376629Y-143193456D01*
X104471867Y-143098218D01*
X104567105Y-143050599D01*
X104757581Y-143002980D01*
X104900438Y-143002980D01*
X105090914Y-143050599D01*
X105186152Y-143098218D01*
X105281390Y-143193456D01*
X105329009Y-143336314D01*
X105329009Y-143574409D01*
X105329009Y-142050599D02*
X105329009Y-142622028D01*
X105329009Y-142336314D02*
X104329009Y-142336314D01*
X104471867Y-142431552D01*
X104567105Y-142526790D01*
X104614724Y-142622028D01*
%TO.C,REF\u002A\u002A*%
X92480952Y-169752380D02*
X92480952Y-168752380D01*
X92814285Y-169466666D01*
X93147619Y-168752380D01*
X93147619Y-169752380D01*
X93766666Y-169752380D02*
X93671428Y-169704761D01*
X93623809Y-169657142D01*
X93576190Y-169561904D01*
X93576190Y-169276190D01*
X93623809Y-169180952D01*
X93671428Y-169133333D01*
X93766666Y-169085714D01*
X93909523Y-169085714D01*
X94004761Y-169133333D01*
X94052380Y-169180952D01*
X94099999Y-169276190D01*
X94099999Y-169561904D01*
X94052380Y-169657142D01*
X94004761Y-169704761D01*
X93909523Y-169752380D01*
X93766666Y-169752380D01*
X94957142Y-169085714D02*
X94957142Y-169752380D01*
X94528571Y-169085714D02*
X94528571Y-169609523D01*
X94576190Y-169704761D01*
X94671428Y-169752380D01*
X94814285Y-169752380D01*
X94909523Y-169704761D01*
X94957142Y-169657142D01*
X95433333Y-169085714D02*
X95433333Y-169752380D01*
X95433333Y-169180952D02*
X95480952Y-169133333D01*
X95576190Y-169085714D01*
X95719047Y-169085714D01*
X95814285Y-169133333D01*
X95861904Y-169228571D01*
X95861904Y-169752380D01*
X96195238Y-169085714D02*
X96576190Y-169085714D01*
X96338095Y-168752380D02*
X96338095Y-169609523D01*
X96385714Y-169704761D01*
X96480952Y-169752380D01*
X96576190Y-169752380D01*
X96909523Y-169752380D02*
X96909523Y-169085714D01*
X96909523Y-168752380D02*
X96861904Y-168800000D01*
X96909523Y-168847619D01*
X96957142Y-168800000D01*
X96909523Y-168752380D01*
X96909523Y-168847619D01*
X97385714Y-169085714D02*
X97385714Y-169752380D01*
X97385714Y-169180952D02*
X97433333Y-169133333D01*
X97528571Y-169085714D01*
X97671428Y-169085714D01*
X97766666Y-169133333D01*
X97814285Y-169228571D01*
X97814285Y-169752380D01*
X98719047Y-169085714D02*
X98719047Y-169895238D01*
X98671428Y-169990476D01*
X98623809Y-170038095D01*
X98528571Y-170085714D01*
X98385714Y-170085714D01*
X98290476Y-170038095D01*
X98719047Y-169704761D02*
X98623809Y-169752380D01*
X98433333Y-169752380D01*
X98338095Y-169704761D01*
X98290476Y-169657142D01*
X98242857Y-169561904D01*
X98242857Y-169276190D01*
X98290476Y-169180952D01*
X98338095Y-169133333D01*
X98433333Y-169085714D01*
X98623809Y-169085714D01*
X98719047Y-169133333D01*
X99195238Y-169752380D02*
X99195238Y-168752380D01*
X99195238Y-169228571D02*
X99766666Y-169228571D01*
X99766666Y-169752380D02*
X99766666Y-168752380D01*
X100385714Y-169752380D02*
X100290476Y-169704761D01*
X100242857Y-169657142D01*
X100195238Y-169561904D01*
X100195238Y-169276190D01*
X100242857Y-169180952D01*
X100290476Y-169133333D01*
X100385714Y-169085714D01*
X100528571Y-169085714D01*
X100623809Y-169133333D01*
X100671428Y-169180952D01*
X100719047Y-169276190D01*
X100719047Y-169561904D01*
X100671428Y-169657142D01*
X100623809Y-169704761D01*
X100528571Y-169752380D01*
X100385714Y-169752380D01*
X101290476Y-169752380D02*
X101195238Y-169704761D01*
X101147619Y-169609523D01*
X101147619Y-168752380D01*
X102052380Y-169704761D02*
X101957142Y-169752380D01*
X101766666Y-169752380D01*
X101671428Y-169704761D01*
X101623809Y-169609523D01*
X101623809Y-169228571D01*
X101671428Y-169133333D01*
X101766666Y-169085714D01*
X101957142Y-169085714D01*
X102052380Y-169133333D01*
X102099999Y-169228571D01*
X102099999Y-169323809D01*
X101623809Y-169419047D01*
X102290476Y-169847619D02*
X103052380Y-169847619D01*
X103195238Y-168752380D02*
X103814285Y-168752380D01*
X103480952Y-169133333D01*
X103623809Y-169133333D01*
X103719047Y-169180952D01*
X103766666Y-169228571D01*
X103814285Y-169323809D01*
X103814285Y-169561904D01*
X103766666Y-169657142D01*
X103719047Y-169704761D01*
X103623809Y-169752380D01*
X103338095Y-169752380D01*
X103242857Y-169704761D01*
X103195238Y-169657142D01*
X104242857Y-169657142D02*
X104290476Y-169704761D01*
X104242857Y-169752380D01*
X104195238Y-169704761D01*
X104242857Y-169657142D01*
X104242857Y-169752380D01*
X104671428Y-168847619D02*
X104719047Y-168800000D01*
X104814285Y-168752380D01*
X105052380Y-168752380D01*
X105147619Y-168800000D01*
X105195238Y-168847619D01*
X105242857Y-168942857D01*
X105242857Y-169038095D01*
X105195238Y-169180952D01*
X104623809Y-169752380D01*
X105242857Y-169752380D01*
X105671428Y-169752380D02*
X105671428Y-169085714D01*
X105671428Y-169180952D02*
X105719047Y-169133333D01*
X105814285Y-169085714D01*
X105957142Y-169085714D01*
X106052380Y-169133333D01*
X106099999Y-169228571D01*
X106099999Y-169752380D01*
X106099999Y-169228571D02*
X106147619Y-169133333D01*
X106242857Y-169085714D01*
X106385714Y-169085714D01*
X106480952Y-169133333D01*
X106528571Y-169228571D01*
X106528571Y-169752380D01*
X107004761Y-169752380D02*
X107004761Y-169085714D01*
X107004761Y-169180952D02*
X107052380Y-169133333D01*
X107147619Y-169085714D01*
X107290476Y-169085714D01*
X107385714Y-169133333D01*
X107433333Y-169228571D01*
X107433333Y-169752380D01*
X107433333Y-169228571D02*
X107480952Y-169133333D01*
X107576190Y-169085714D01*
X107719047Y-169085714D01*
X107814285Y-169133333D01*
X107861904Y-169228571D01*
X107861904Y-169752380D01*
X108099999Y-169847619D02*
X108861904Y-169847619D01*
X109099999Y-169752380D02*
X109099999Y-168752380D01*
X109433333Y-169466666D01*
X109766666Y-168752380D01*
X109766666Y-169752380D01*
X110147619Y-168752380D02*
X110766666Y-168752380D01*
X110433333Y-169133333D01*
X110576190Y-169133333D01*
X110671428Y-169180952D01*
X110719047Y-169228571D01*
X110766666Y-169323809D01*
X110766666Y-169561904D01*
X110719047Y-169657142D01*
X110671428Y-169704761D01*
X110576190Y-169752380D01*
X110290476Y-169752380D01*
X110195238Y-169704761D01*
X110147619Y-169657142D01*
X100566666Y-165552380D02*
X100233333Y-165076190D01*
X99995238Y-165552380D02*
X99995238Y-164552380D01*
X100376190Y-164552380D01*
X100471428Y-164600000D01*
X100519047Y-164647619D01*
X100566666Y-164742857D01*
X100566666Y-164885714D01*
X100519047Y-164980952D01*
X100471428Y-165028571D01*
X100376190Y-165076190D01*
X99995238Y-165076190D01*
X100995238Y-165028571D02*
X101328571Y-165028571D01*
X101471428Y-165552380D02*
X100995238Y-165552380D01*
X100995238Y-164552380D01*
X101471428Y-164552380D01*
X102233333Y-165028571D02*
X101900000Y-165028571D01*
X101900000Y-165552380D02*
X101900000Y-164552380D01*
X102376190Y-164552380D01*
X102900000Y-164552380D02*
X102900000Y-164790476D01*
X102661904Y-164695238D02*
X102900000Y-164790476D01*
X103138095Y-164695238D01*
X102757142Y-164980952D02*
X102900000Y-164790476D01*
X103042857Y-164980952D01*
X103661904Y-164552380D02*
X103661904Y-164790476D01*
X103423809Y-164695238D02*
X103661904Y-164790476D01*
X103900000Y-164695238D01*
X103519047Y-164980952D02*
X103661904Y-164790476D01*
X103804761Y-164980952D01*
%TO.C,R2*%
X145062380Y-140628666D02*
X144586190Y-140962000D01*
X145062380Y-141200095D02*
X144062380Y-141200095D01*
X144062380Y-140819142D01*
X144110000Y-140723904D01*
X144157619Y-140676285D01*
X144252857Y-140628666D01*
X144395714Y-140628666D01*
X144490952Y-140676285D01*
X144538571Y-140723904D01*
X144586190Y-140819142D01*
X144586190Y-141200095D01*
X144157619Y-140247714D02*
X144110000Y-140200095D01*
X144062380Y-140104857D01*
X144062380Y-139866761D01*
X144110000Y-139771523D01*
X144157619Y-139723904D01*
X144252857Y-139676285D01*
X144348095Y-139676285D01*
X144490952Y-139723904D01*
X145062380Y-140295333D01*
X145062380Y-139676285D01*
%TO.C,REF\u002A\u002A*%
X170585952Y-169752380D02*
X170585952Y-168752380D01*
X170919285Y-169466666D01*
X171252619Y-168752380D01*
X171252619Y-169752380D01*
X171871666Y-169752380D02*
X171776428Y-169704761D01*
X171728809Y-169657142D01*
X171681190Y-169561904D01*
X171681190Y-169276190D01*
X171728809Y-169180952D01*
X171776428Y-169133333D01*
X171871666Y-169085714D01*
X172014523Y-169085714D01*
X172109761Y-169133333D01*
X172157380Y-169180952D01*
X172205000Y-169276190D01*
X172205000Y-169561904D01*
X172157380Y-169657142D01*
X172109761Y-169704761D01*
X172014523Y-169752380D01*
X171871666Y-169752380D01*
X173062142Y-169085714D02*
X173062142Y-169752380D01*
X172633571Y-169085714D02*
X172633571Y-169609523D01*
X172681190Y-169704761D01*
X172776428Y-169752380D01*
X172919285Y-169752380D01*
X173014523Y-169704761D01*
X173062142Y-169657142D01*
X173538333Y-169085714D02*
X173538333Y-169752380D01*
X173538333Y-169180952D02*
X173585952Y-169133333D01*
X173681190Y-169085714D01*
X173824047Y-169085714D01*
X173919285Y-169133333D01*
X173966904Y-169228571D01*
X173966904Y-169752380D01*
X174300238Y-169085714D02*
X174681190Y-169085714D01*
X174443095Y-168752380D02*
X174443095Y-169609523D01*
X174490714Y-169704761D01*
X174585952Y-169752380D01*
X174681190Y-169752380D01*
X175014523Y-169752380D02*
X175014523Y-169085714D01*
X175014523Y-168752380D02*
X174966904Y-168800000D01*
X175014523Y-168847619D01*
X175062142Y-168800000D01*
X175014523Y-168752380D01*
X175014523Y-168847619D01*
X175490714Y-169085714D02*
X175490714Y-169752380D01*
X175490714Y-169180952D02*
X175538333Y-169133333D01*
X175633571Y-169085714D01*
X175776428Y-169085714D01*
X175871666Y-169133333D01*
X175919285Y-169228571D01*
X175919285Y-169752380D01*
X176824047Y-169085714D02*
X176824047Y-169895238D01*
X176776428Y-169990476D01*
X176728809Y-170038095D01*
X176633571Y-170085714D01*
X176490714Y-170085714D01*
X176395476Y-170038095D01*
X176824047Y-169704761D02*
X176728809Y-169752380D01*
X176538333Y-169752380D01*
X176443095Y-169704761D01*
X176395476Y-169657142D01*
X176347857Y-169561904D01*
X176347857Y-169276190D01*
X176395476Y-169180952D01*
X176443095Y-169133333D01*
X176538333Y-169085714D01*
X176728809Y-169085714D01*
X176824047Y-169133333D01*
X177300238Y-169752380D02*
X177300238Y-168752380D01*
X177300238Y-169228571D02*
X177871666Y-169228571D01*
X177871666Y-169752380D02*
X177871666Y-168752380D01*
X178490714Y-169752380D02*
X178395476Y-169704761D01*
X178347857Y-169657142D01*
X178300238Y-169561904D01*
X178300238Y-169276190D01*
X178347857Y-169180952D01*
X178395476Y-169133333D01*
X178490714Y-169085714D01*
X178633571Y-169085714D01*
X178728809Y-169133333D01*
X178776428Y-169180952D01*
X178824047Y-169276190D01*
X178824047Y-169561904D01*
X178776428Y-169657142D01*
X178728809Y-169704761D01*
X178633571Y-169752380D01*
X178490714Y-169752380D01*
X179395476Y-169752380D02*
X179300238Y-169704761D01*
X179252619Y-169609523D01*
X179252619Y-168752380D01*
X180157380Y-169704761D02*
X180062142Y-169752380D01*
X179871666Y-169752380D01*
X179776428Y-169704761D01*
X179728809Y-169609523D01*
X179728809Y-169228571D01*
X179776428Y-169133333D01*
X179871666Y-169085714D01*
X180062142Y-169085714D01*
X180157380Y-169133333D01*
X180205000Y-169228571D01*
X180205000Y-169323809D01*
X179728809Y-169419047D01*
X180395476Y-169847619D02*
X181157380Y-169847619D01*
X181300238Y-168752380D02*
X181919285Y-168752380D01*
X181585952Y-169133333D01*
X181728809Y-169133333D01*
X181824047Y-169180952D01*
X181871666Y-169228571D01*
X181919285Y-169323809D01*
X181919285Y-169561904D01*
X181871666Y-169657142D01*
X181824047Y-169704761D01*
X181728809Y-169752380D01*
X181443095Y-169752380D01*
X181347857Y-169704761D01*
X181300238Y-169657142D01*
X182347857Y-169657142D02*
X182395476Y-169704761D01*
X182347857Y-169752380D01*
X182300238Y-169704761D01*
X182347857Y-169657142D01*
X182347857Y-169752380D01*
X182776428Y-168847619D02*
X182824047Y-168800000D01*
X182919285Y-168752380D01*
X183157380Y-168752380D01*
X183252619Y-168800000D01*
X183300238Y-168847619D01*
X183347857Y-168942857D01*
X183347857Y-169038095D01*
X183300238Y-169180952D01*
X182728809Y-169752380D01*
X183347857Y-169752380D01*
X183776428Y-169752380D02*
X183776428Y-169085714D01*
X183776428Y-169180952D02*
X183824047Y-169133333D01*
X183919285Y-169085714D01*
X184062142Y-169085714D01*
X184157380Y-169133333D01*
X184205000Y-169228571D01*
X184205000Y-169752380D01*
X184205000Y-169228571D02*
X184252619Y-169133333D01*
X184347857Y-169085714D01*
X184490714Y-169085714D01*
X184585952Y-169133333D01*
X184633571Y-169228571D01*
X184633571Y-169752380D01*
X185109761Y-169752380D02*
X185109761Y-169085714D01*
X185109761Y-169180952D02*
X185157380Y-169133333D01*
X185252619Y-169085714D01*
X185395476Y-169085714D01*
X185490714Y-169133333D01*
X185538333Y-169228571D01*
X185538333Y-169752380D01*
X185538333Y-169228571D02*
X185585952Y-169133333D01*
X185681190Y-169085714D01*
X185824047Y-169085714D01*
X185919285Y-169133333D01*
X185966904Y-169228571D01*
X185966904Y-169752380D01*
X186205000Y-169847619D02*
X186966904Y-169847619D01*
X187205000Y-169752380D02*
X187205000Y-168752380D01*
X187538333Y-169466666D01*
X187871666Y-168752380D01*
X187871666Y-169752380D01*
X188252619Y-168752380D02*
X188871666Y-168752380D01*
X188538333Y-169133333D01*
X188681190Y-169133333D01*
X188776428Y-169180952D01*
X188824047Y-169228571D01*
X188871666Y-169323809D01*
X188871666Y-169561904D01*
X188824047Y-169657142D01*
X188776428Y-169704761D01*
X188681190Y-169752380D01*
X188395476Y-169752380D01*
X188300238Y-169704761D01*
X188252619Y-169657142D01*
X178671666Y-165552380D02*
X178338333Y-165076190D01*
X178100238Y-165552380D02*
X178100238Y-164552380D01*
X178481190Y-164552380D01*
X178576428Y-164600000D01*
X178624047Y-164647619D01*
X178671666Y-164742857D01*
X178671666Y-164885714D01*
X178624047Y-164980952D01*
X178576428Y-165028571D01*
X178481190Y-165076190D01*
X178100238Y-165076190D01*
X179100238Y-165028571D02*
X179433571Y-165028571D01*
X179576428Y-165552380D02*
X179100238Y-165552380D01*
X179100238Y-164552380D01*
X179576428Y-164552380D01*
X180338333Y-165028571D02*
X180005000Y-165028571D01*
X180005000Y-165552380D02*
X180005000Y-164552380D01*
X180481190Y-164552380D01*
X181005000Y-164552380D02*
X181005000Y-164790476D01*
X180766904Y-164695238D02*
X181005000Y-164790476D01*
X181243095Y-164695238D01*
X180862142Y-164980952D02*
X181005000Y-164790476D01*
X181147857Y-164980952D01*
X181766904Y-164552380D02*
X181766904Y-164790476D01*
X181528809Y-164695238D02*
X181766904Y-164790476D01*
X182005000Y-164695238D01*
X181624047Y-164980952D02*
X181766904Y-164790476D01*
X181909761Y-164980952D01*
%TO.C,U5*%
X151847380Y-150103904D02*
X152656904Y-150103904D01*
X152752142Y-150056285D01*
X152799761Y-150008666D01*
X152847380Y-149913428D01*
X152847380Y-149722952D01*
X152799761Y-149627714D01*
X152752142Y-149580095D01*
X152656904Y-149532476D01*
X151847380Y-149532476D01*
X151847380Y-148580095D02*
X151847380Y-149056285D01*
X152323571Y-149103904D01*
X152275952Y-149056285D01*
X152228333Y-148961047D01*
X152228333Y-148722952D01*
X152275952Y-148627714D01*
X152323571Y-148580095D01*
X152418809Y-148532476D01*
X152656904Y-148532476D01*
X152752142Y-148580095D01*
X152799761Y-148627714D01*
X152847380Y-148722952D01*
X152847380Y-148961047D01*
X152799761Y-149056285D01*
X152752142Y-149103904D01*
%TO.C,D6*%
X126110751Y-144979171D02*
X126110751Y-145550599D01*
X126110751Y-145264885D02*
X125110751Y-145264885D01*
X125253609Y-145360123D01*
X125348847Y-145455361D01*
X125396466Y-145550599D01*
X126110751Y-144550599D02*
X125110751Y-144550599D01*
X126110751Y-143979171D01*
X125110751Y-143979171D01*
X125444085Y-143074409D02*
X126110751Y-143074409D01*
X125063132Y-143312504D02*
X125777418Y-143550599D01*
X125777418Y-142931552D01*
X126110751Y-142026790D02*
X126110751Y-142598218D01*
X126110751Y-142312504D02*
X125110751Y-142312504D01*
X125253609Y-142407742D01*
X125348847Y-142502980D01*
X125396466Y-142598218D01*
X125444085Y-141169647D02*
X126110751Y-141169647D01*
X125063132Y-141407742D02*
X125777418Y-141645837D01*
X125777418Y-141026790D01*
X125539323Y-140502980D02*
X125491704Y-140598218D01*
X125444085Y-140645837D01*
X125348847Y-140693456D01*
X125301228Y-140693456D01*
X125205990Y-140645837D01*
X125158371Y-140598218D01*
X125110751Y-140502980D01*
X125110751Y-140312504D01*
X125158371Y-140217266D01*
X125205990Y-140169647D01*
X125301228Y-140122028D01*
X125348847Y-140122028D01*
X125444085Y-140169647D01*
X125491704Y-140217266D01*
X125539323Y-140312504D01*
X125539323Y-140502980D01*
X125586942Y-140598218D01*
X125634561Y-140645837D01*
X125729799Y-140693456D01*
X125920275Y-140693456D01*
X126015513Y-140645837D01*
X126063132Y-140598218D01*
X126110751Y-140502980D01*
X126110751Y-140312504D01*
X126063132Y-140217266D01*
X126015513Y-140169647D01*
X125920275Y-140122028D01*
X125729799Y-140122028D01*
X125634561Y-140169647D01*
X125586942Y-140217266D01*
X125539323Y-140312504D01*
X120569009Y-143574409D02*
X119569009Y-143574409D01*
X119569009Y-143336314D01*
X119616629Y-143193456D01*
X119711867Y-143098218D01*
X119807105Y-143050599D01*
X119997581Y-143002980D01*
X120140438Y-143002980D01*
X120330914Y-143050599D01*
X120426152Y-143098218D01*
X120521390Y-143193456D01*
X120569009Y-143336314D01*
X120569009Y-143574409D01*
X119569009Y-142145837D02*
X119569009Y-142336314D01*
X119616629Y-142431552D01*
X119664248Y-142479171D01*
X119807105Y-142574409D01*
X119997581Y-142622028D01*
X120378533Y-142622028D01*
X120473771Y-142574409D01*
X120521390Y-142526790D01*
X120569009Y-142431552D01*
X120569009Y-142241075D01*
X120521390Y-142145837D01*
X120473771Y-142098218D01*
X120378533Y-142050599D01*
X120140438Y-142050599D01*
X120045200Y-142098218D01*
X119997581Y-142145837D01*
X119949962Y-142241075D01*
X119949962Y-142431552D01*
X119997581Y-142526790D01*
X120045200Y-142574409D01*
X120140438Y-142622028D01*
X122609666Y-140004409D02*
X122609666Y-139528218D01*
X122895380Y-140099647D02*
X121895380Y-139766314D01*
X122895380Y-139432980D01*
D11*
%TO.C,C4*%
X164609428Y-149478666D02*
X164645619Y-149514857D01*
X164681809Y-149623428D01*
X164681809Y-149695809D01*
X164645619Y-149804380D01*
X164573238Y-149876761D01*
X164500857Y-149912952D01*
X164356095Y-149949142D01*
X164247523Y-149949142D01*
X164102761Y-149912952D01*
X164030380Y-149876761D01*
X163958000Y-149804380D01*
X163921809Y-149695809D01*
X163921809Y-149623428D01*
X163958000Y-149514857D01*
X163994190Y-149478666D01*
X164175142Y-148827238D02*
X164681809Y-148827238D01*
X163885619Y-149008190D02*
X164428476Y-149189142D01*
X164428476Y-148718666D01*
D10*
%TO.C,D8*%
X127368745Y-104195091D02*
X127368745Y-104766519D01*
X127368745Y-104480805D02*
X126368745Y-104480805D01*
X126511603Y-104576043D01*
X126606841Y-104671281D01*
X126654460Y-104766519D01*
X127368745Y-103766519D02*
X126368745Y-103766519D01*
X127368745Y-103195091D01*
X126368745Y-103195091D01*
X126702079Y-102290329D02*
X127368745Y-102290329D01*
X126321126Y-102528424D02*
X127035412Y-102766519D01*
X127035412Y-102147472D01*
X126368745Y-101576043D02*
X126368745Y-101480805D01*
X126416365Y-101385567D01*
X126463984Y-101337948D01*
X126559222Y-101290329D01*
X126749698Y-101242710D01*
X126987793Y-101242710D01*
X127178269Y-101290329D01*
X127273507Y-101337948D01*
X127321126Y-101385567D01*
X127368745Y-101480805D01*
X127368745Y-101576043D01*
X127321126Y-101671281D01*
X127273507Y-101718900D01*
X127178269Y-101766519D01*
X126987793Y-101814138D01*
X126749698Y-101814138D01*
X126559222Y-101766519D01*
X126463984Y-101718900D01*
X126416365Y-101671281D01*
X126368745Y-101576043D01*
X126368745Y-100623662D02*
X126368745Y-100528424D01*
X126416365Y-100433186D01*
X126463984Y-100385567D01*
X126559222Y-100337948D01*
X126749698Y-100290329D01*
X126987793Y-100290329D01*
X127178269Y-100337948D01*
X127273507Y-100385567D01*
X127321126Y-100433186D01*
X127368745Y-100528424D01*
X127368745Y-100623662D01*
X127321126Y-100718900D01*
X127273507Y-100766519D01*
X127178269Y-100814138D01*
X126987793Y-100861757D01*
X126749698Y-100861757D01*
X126559222Y-100814138D01*
X126463984Y-100766519D01*
X126416365Y-100718900D01*
X126368745Y-100623662D01*
X126702079Y-99433186D02*
X127368745Y-99433186D01*
X126321126Y-99671281D02*
X127035412Y-99909376D01*
X127035412Y-99290329D01*
X133759015Y-102790329D02*
X132759015Y-102790329D01*
X132759015Y-102552234D01*
X132806635Y-102409376D01*
X132901873Y-102314138D01*
X132997111Y-102266519D01*
X133187587Y-102218900D01*
X133330444Y-102218900D01*
X133520920Y-102266519D01*
X133616158Y-102314138D01*
X133711396Y-102409376D01*
X133759015Y-102552234D01*
X133759015Y-102790329D01*
X133187587Y-101647472D02*
X133139968Y-101742710D01*
X133092349Y-101790329D01*
X132997111Y-101837948D01*
X132949492Y-101837948D01*
X132854254Y-101790329D01*
X132806635Y-101742710D01*
X132759015Y-101647472D01*
X132759015Y-101456995D01*
X132806635Y-101361757D01*
X132854254Y-101314138D01*
X132949492Y-101266519D01*
X132997111Y-101266519D01*
X133092349Y-101314138D01*
X133139968Y-101361757D01*
X133187587Y-101456995D01*
X133187587Y-101647472D01*
X133235206Y-101742710D01*
X133282825Y-101790329D01*
X133378063Y-101837948D01*
X133568539Y-101837948D01*
X133663777Y-101790329D01*
X133711396Y-101742710D01*
X133759015Y-101647472D01*
X133759015Y-101456995D01*
X133711396Y-101361757D01*
X133663777Y-101314138D01*
X133568539Y-101266519D01*
X133378063Y-101266519D01*
X133282825Y-101314138D01*
X133235206Y-101361757D01*
X133187587Y-101456995D01*
X130722666Y-105660329D02*
X130722666Y-105184138D01*
X131008380Y-105755567D02*
X130008380Y-105422234D01*
X131008380Y-105088900D01*
%TO.C,D4*%
X118490751Y-144979171D02*
X118490751Y-145550599D01*
X118490751Y-145264885D02*
X117490751Y-145264885D01*
X117633609Y-145360123D01*
X117728847Y-145455361D01*
X117776466Y-145550599D01*
X118490751Y-144550599D02*
X117490751Y-144550599D01*
X118490751Y-143979171D01*
X117490751Y-143979171D01*
X117824085Y-143074409D02*
X118490751Y-143074409D01*
X117443132Y-143312504D02*
X118157418Y-143550599D01*
X118157418Y-142931552D01*
X118490751Y-142026790D02*
X118490751Y-142598218D01*
X118490751Y-142312504D02*
X117490751Y-142312504D01*
X117633609Y-142407742D01*
X117728847Y-142502980D01*
X117776466Y-142598218D01*
X117824085Y-141169647D02*
X118490751Y-141169647D01*
X117443132Y-141407742D02*
X118157418Y-141645837D01*
X118157418Y-141026790D01*
X117919323Y-140502980D02*
X117871704Y-140598218D01*
X117824085Y-140645837D01*
X117728847Y-140693456D01*
X117681228Y-140693456D01*
X117585990Y-140645837D01*
X117538371Y-140598218D01*
X117490751Y-140502980D01*
X117490751Y-140312504D01*
X117538371Y-140217266D01*
X117585990Y-140169647D01*
X117681228Y-140122028D01*
X117728847Y-140122028D01*
X117824085Y-140169647D01*
X117871704Y-140217266D01*
X117919323Y-140312504D01*
X117919323Y-140502980D01*
X117966942Y-140598218D01*
X118014561Y-140645837D01*
X118109799Y-140693456D01*
X118300275Y-140693456D01*
X118395513Y-140645837D01*
X118443132Y-140598218D01*
X118490751Y-140502980D01*
X118490751Y-140312504D01*
X118443132Y-140217266D01*
X118395513Y-140169647D01*
X118300275Y-140122028D01*
X118109799Y-140122028D01*
X118014561Y-140169647D01*
X117966942Y-140217266D01*
X117919323Y-140312504D01*
X114989666Y-140004409D02*
X114989666Y-139528218D01*
X115275380Y-140099647D02*
X114275380Y-139766314D01*
X115275380Y-139432980D01*
X112949009Y-143574409D02*
X111949009Y-143574409D01*
X111949009Y-143336314D01*
X111996629Y-143193456D01*
X112091867Y-143098218D01*
X112187105Y-143050599D01*
X112377581Y-143002980D01*
X112520438Y-143002980D01*
X112710914Y-143050599D01*
X112806152Y-143098218D01*
X112901390Y-143193456D01*
X112949009Y-143336314D01*
X112949009Y-143574409D01*
X112282343Y-142145837D02*
X112949009Y-142145837D01*
X111901390Y-142383933D02*
X112615676Y-142622028D01*
X112615676Y-142002980D01*
%TO.C,D5*%
X123570751Y-144979171D02*
X123570751Y-145550599D01*
X123570751Y-145264885D02*
X122570751Y-145264885D01*
X122713609Y-145360123D01*
X122808847Y-145455361D01*
X122856466Y-145550599D01*
X123570751Y-144550599D02*
X122570751Y-144550599D01*
X123570751Y-143979171D01*
X122570751Y-143979171D01*
X122904085Y-143074409D02*
X123570751Y-143074409D01*
X122523132Y-143312504D02*
X123237418Y-143550599D01*
X123237418Y-142931552D01*
X123570751Y-142026790D02*
X123570751Y-142598218D01*
X123570751Y-142312504D02*
X122570751Y-142312504D01*
X122713609Y-142407742D01*
X122808847Y-142502980D01*
X122856466Y-142598218D01*
X122904085Y-141169647D02*
X123570751Y-141169647D01*
X122523132Y-141407742D02*
X123237418Y-141645837D01*
X123237418Y-141026790D01*
X122999323Y-140502980D02*
X122951704Y-140598218D01*
X122904085Y-140645837D01*
X122808847Y-140693456D01*
X122761228Y-140693456D01*
X122665990Y-140645837D01*
X122618371Y-140598218D01*
X122570751Y-140502980D01*
X122570751Y-140312504D01*
X122618371Y-140217266D01*
X122665990Y-140169647D01*
X122761228Y-140122028D01*
X122808847Y-140122028D01*
X122904085Y-140169647D01*
X122951704Y-140217266D01*
X122999323Y-140312504D01*
X122999323Y-140502980D01*
X123046942Y-140598218D01*
X123094561Y-140645837D01*
X123189799Y-140693456D01*
X123380275Y-140693456D01*
X123475513Y-140645837D01*
X123523132Y-140598218D01*
X123570751Y-140502980D01*
X123570751Y-140312504D01*
X123523132Y-140217266D01*
X123475513Y-140169647D01*
X123380275Y-140122028D01*
X123189799Y-140122028D01*
X123094561Y-140169647D01*
X123046942Y-140217266D01*
X122999323Y-140312504D01*
X120069666Y-140004409D02*
X120069666Y-139528218D01*
X120355380Y-140099647D02*
X119355380Y-139766314D01*
X120355380Y-139432980D01*
X118029009Y-143574409D02*
X117029009Y-143574409D01*
X117029009Y-143336314D01*
X117076629Y-143193456D01*
X117171867Y-143098218D01*
X117267105Y-143050599D01*
X117457581Y-143002980D01*
X117600438Y-143002980D01*
X117790914Y-143050599D01*
X117886152Y-143098218D01*
X117981390Y-143193456D01*
X118029009Y-143336314D01*
X118029009Y-143574409D01*
X117029009Y-142098218D02*
X117029009Y-142574409D01*
X117505200Y-142622028D01*
X117457581Y-142574409D01*
X117409962Y-142479171D01*
X117409962Y-142241075D01*
X117457581Y-142145837D01*
X117505200Y-142098218D01*
X117600438Y-142050599D01*
X117838533Y-142050599D01*
X117933771Y-142098218D01*
X117981390Y-142145837D01*
X118029009Y-142241075D01*
X118029009Y-142479171D01*
X117981390Y-142574409D01*
X117933771Y-142622028D01*
D13*
%TO.C,U1*%
X136853789Y-107236511D02*
X119073789Y-107236511D01*
X120598789Y-137776511D02*
X120598789Y-108296511D01*
X135328789Y-107296511D02*
X135328789Y-137776511D01*
X136853789Y-137836511D02*
X136853789Y-107236511D01*
X121598789Y-107296511D02*
X135328789Y-107296511D01*
X135328789Y-137776511D02*
X120598789Y-137776511D01*
X119073789Y-137836511D02*
X136853789Y-137836511D01*
X120598789Y-108296511D02*
X121598789Y-107296511D01*
X119073789Y-107236511D02*
X119073789Y-137836511D01*
%TO.C,U2*%
X161290000Y-164211000D02*
X144510000Y-164211000D01*
X143510000Y-157861000D02*
X161290000Y-157861000D01*
X161290000Y-157861000D02*
X161290000Y-164211000D01*
X144510000Y-164211000D02*
X143510000Y-163211000D01*
X143510000Y-163211000D02*
X143510000Y-157861000D01*
%TO.C,J1*%
X132534789Y-107296511D02*
X132534789Y-137776511D01*
X132534789Y-137776511D02*
X117804789Y-137776511D01*
X117804789Y-108296511D02*
X118804789Y-107296511D01*
X116279789Y-107236511D02*
X116279789Y-137836511D01*
X134059789Y-137836511D02*
X134059789Y-107236511D01*
X116279789Y-137836511D02*
X134059789Y-137836511D01*
X117804789Y-137776511D02*
X117804789Y-108296511D01*
X134059789Y-107236511D02*
X116279789Y-107236511D01*
X118804789Y-107296511D02*
X132534789Y-107296511D01*
%TO.C,C1*%
X101346000Y-146618000D02*
X101346000Y-148468000D01*
X100046000Y-152268000D02*
X102646000Y-152268000D01*
X100046000Y-148468000D02*
X100046000Y-152268000D01*
X101346000Y-154118000D02*
X101346000Y-152268000D01*
X102646000Y-152268000D02*
X102646000Y-148468000D01*
X102646000Y-148468000D02*
X100046000Y-148468000D01*
%TO.C,C2*%
X143448000Y-95474000D02*
X143448000Y-98074000D01*
X147248000Y-98074000D02*
X147248000Y-95474000D01*
X141598000Y-96774000D02*
X143448000Y-96774000D01*
X147248000Y-95474000D02*
X143448000Y-95474000D01*
X149098000Y-96774000D02*
X147248000Y-96774000D01*
X143448000Y-98074000D02*
X147248000Y-98074000D01*
%TO.C,U4*%
X103393000Y-147183000D02*
X123713000Y-147183000D01*
X104393000Y-153533000D02*
X103393000Y-152533000D01*
X123713000Y-147183000D02*
X123713000Y-153533000D01*
X123713000Y-153533000D02*
X104393000Y-153533000D01*
X103393000Y-152533000D02*
X103393000Y-147183000D01*
%TO.C,U3*%
X118613000Y-158105000D02*
X136393000Y-158105000D01*
X118613000Y-163455000D02*
X118613000Y-158105000D01*
X136393000Y-158105000D02*
X136393000Y-164455000D01*
X136393000Y-164455000D02*
X119613000Y-164455000D01*
X119613000Y-164455000D02*
X118613000Y-163455000D01*
%TO.C,C3*%
X138400000Y-159136000D02*
X138400000Y-162936000D01*
X141000000Y-159136000D02*
X138400000Y-159136000D01*
X141000000Y-162936000D02*
X141000000Y-159136000D01*
X139700000Y-157286000D02*
X139700000Y-159136000D01*
X138400000Y-162936000D02*
X141000000Y-162936000D01*
X139700000Y-164786000D02*
X139700000Y-162936000D01*
%TO.C,Q1*%
X174252000Y-127840000D02*
X177752000Y-127840000D01*
X176022000Y-123610000D02*
G75*
G03*
X174268375Y-127843625I0J-2480000D01*
G01*
X177775625Y-127843625D02*
G75*
G03*
X176022000Y-123610000I-1753625J1753625D01*
G01*
%TO.C,A1*%
X154168000Y-135636000D02*
X154168000Y-92456000D01*
X171948000Y-134366000D02*
X170678000Y-135636000D01*
X159248000Y-89916000D02*
X166868000Y-89916000D01*
X159248000Y-100076000D02*
X159248000Y-89916000D01*
X171948000Y-92456000D02*
X171948000Y-134366000D01*
X154168000Y-92456000D02*
X171948000Y-92456000D01*
X166868000Y-89916000D02*
X166868000Y-100076000D01*
X166868000Y-100076000D02*
X159248000Y-100076000D01*
X170678000Y-135636000D02*
X154168000Y-135636000D01*
%TO.C,J2*%
X178816000Y-110998000D02*
X178816000Y-121158000D01*
X173736000Y-121158000D02*
X173736000Y-112268000D01*
X178816000Y-121158000D02*
X173736000Y-121158000D01*
X175006000Y-110998000D02*
X178816000Y-110998000D01*
X173736000Y-112268000D02*
X175006000Y-110998000D01*
%TO.C,D7*%
X124983000Y-144106314D02*
X124983000Y-141566314D01*
X125983000Y-144106314D02*
G75*
G03*
X125983000Y-144106314I-1000000J0D01*
G01*
%TO.C,R1*%
X173990000Y-107725000D02*
X173990000Y-105185000D01*
X175240000Y-107725000D02*
G75*
G03*
X175240000Y-107725000I-1250000J0D01*
G01*
%TO.C,D3*%
X112283000Y-144106314D02*
X112283000Y-141566314D01*
X113283000Y-144106314D02*
G75*
G03*
X113283000Y-144106314I-1000000J0D01*
G01*
%TO.C,J3*%
X135128000Y-153162000D02*
X135128000Y-146812000D01*
X135128000Y-146812000D02*
X136398000Y-145542000D01*
X136398000Y-145542000D02*
X140208000Y-145542000D01*
X140208000Y-145542000D02*
X140208000Y-153162000D01*
X140208000Y-153162000D02*
X135128000Y-153162000D01*
%TO.C,C5*%
X163292000Y-159136000D02*
X163292000Y-162936000D01*
X165892000Y-159136000D02*
X163292000Y-159136000D01*
X165892000Y-162936000D02*
X165892000Y-159136000D01*
X164592000Y-157286000D02*
X164592000Y-159136000D01*
X164592000Y-164786000D02*
X164592000Y-162936000D01*
X163292000Y-162936000D02*
X165892000Y-162936000D01*
%TO.C,R3*%
X125984000Y-101063000D02*
X125984000Y-103603000D01*
X127234000Y-101063000D02*
G75*
G03*
X127234000Y-101063000I-1250000J0D01*
G01*
%TO.C,U6*%
X143843789Y-98919511D02*
X150193789Y-98919511D01*
X150193789Y-133479511D02*
X149193789Y-134479511D01*
X143843789Y-134479511D02*
X143843789Y-98919511D01*
X149193789Y-134479511D02*
X143843789Y-134479511D01*
X150193789Y-98919511D02*
X150193789Y-133479511D01*
%TO.C,R4*%
X176813000Y-131318000D02*
X174273000Y-131318000D01*
X178063000Y-131318000D02*
G75*
G03*
X178063000Y-131318000I-1250000J0D01*
G01*
%TO.C,D2*%
X109743000Y-144106314D02*
X109743000Y-141566314D01*
X110743000Y-144106314D02*
G75*
G03*
X110743000Y-144106314I-1000000J0D01*
G01*
%TO.C,C6*%
X131534000Y-167138400D02*
X133134000Y-167138400D01*
X131534000Y-167938400D02*
X131534000Y-167138400D01*
X133134000Y-167138400D02*
X133134000Y-167938400D01*
X133134000Y-167938400D02*
X131534000Y-167938400D01*
%TO.C,R5*%
X138684000Y-105693000D02*
X138684000Y-103153000D01*
X139934000Y-105693000D02*
G75*
G03*
X139934000Y-105693000I-1250000J0D01*
G01*
%TO.C,J4*%
X112474789Y-107301511D02*
X112474789Y-137781511D01*
X112474789Y-137781511D02*
X107394789Y-137781511D01*
X107394789Y-108571511D02*
X108664789Y-107301511D01*
X108664789Y-107301511D02*
X112474789Y-107301511D01*
X107394789Y-137781511D02*
X107394789Y-108571511D01*
%TO.C,D9*%
X135636000Y-100893766D02*
X135636000Y-98353766D01*
X136986000Y-100893766D02*
G75*
G03*
X136986000Y-100893766I-1350000J0D01*
G01*
%TO.C,D1*%
X107203000Y-144106314D02*
X107203000Y-141566314D01*
X108203000Y-144106314D02*
G75*
G03*
X108203000Y-144106314I-1000000J0D01*
G01*
%TO.C,R2*%
X142240000Y-139192000D02*
X142240000Y-141732000D01*
X143490000Y-139192000D02*
G75*
G03*
X143490000Y-139192000I-1250000J0D01*
G01*
%TO.C,U5*%
X143505000Y-151517000D02*
X143505000Y-146167000D01*
X144505000Y-152517000D02*
X143505000Y-151517000D01*
X161285000Y-146167000D02*
X161285000Y-152517000D01*
X161285000Y-152517000D02*
X144505000Y-152517000D01*
X143505000Y-146167000D02*
X161285000Y-146167000D01*
%TO.C,D6*%
X122443000Y-144106314D02*
X122443000Y-141566314D01*
X123443000Y-144106314D02*
G75*
G03*
X123443000Y-144106314I-1000000J0D01*
G01*
%TO.C,C4*%
X165638000Y-147452000D02*
X163038000Y-147452000D01*
X164338000Y-153102000D02*
X164338000Y-151252000D01*
X163038000Y-151252000D02*
X165638000Y-151252000D01*
X164338000Y-145602000D02*
X164338000Y-147452000D01*
X163038000Y-147452000D02*
X163038000Y-151252000D01*
X165638000Y-151252000D02*
X165638000Y-147452000D01*
%TO.C,D8*%
X130556000Y-100782234D02*
X130556000Y-103322234D01*
X131906000Y-100782234D02*
G75*
G03*
X131906000Y-100782234I-1350000J0D01*
G01*
%TO.C,D4*%
X114823000Y-144106314D02*
X114823000Y-141566314D01*
X115823000Y-144106314D02*
G75*
G03*
X115823000Y-144106314I-1000000J0D01*
G01*
%TO.C,D5*%
X119903000Y-144106314D02*
X119903000Y-141566314D01*
X120903000Y-144106314D02*
G75*
G03*
X120903000Y-144106314I-1000000J0D01*
G01*
%TD*%
M02*
