%TF.GenerationSoftware,KiCad,Pcbnew,(6.0.0)*%
%TF.CreationDate,2022-03-13T18:30:08-04:00*%
%TF.ProjectId,io_i2c,696f5f69-3263-42e6-9b69-6361645f7063,rev?*%
%TF.SameCoordinates,Original*%
%TF.FileFunction,Legend,Top*%
%TF.FilePolarity,Positive*%
%FSLAX46Y46*%
G04 Gerber Fmt 4.6, Leading zero omitted, Abs format (unit mm)*
G04 Created by KiCad (PCBNEW (6.0.0)) date 2022-03-13 18:30:08*
%MOMM*%
%LPD*%
G01*
G04 APERTURE LIST*
G04 Aperture macros list*
%AMRoundRect*
0 Rectangle with rounded corners*
0 $1 Rounding radius*
0 $2 $3 $4 $5 $6 $7 $8 $9 X,Y pos of 4 corners*
0 Add a 4 corners polygon primitive as box body*
4,1,4,$2,$3,$4,$5,$6,$7,$8,$9,$2,$3,0*
0 Add four circle primitives for the rounded corners*
1,1,$1+$1,$2,$3*
1,1,$1+$1,$4,$5*
1,1,$1+$1,$6,$7*
1,1,$1+$1,$8,$9*
0 Add four rect primitives between the rounded corners*
20,1,$1+$1,$2,$3,$4,$5,0*
20,1,$1+$1,$4,$5,$6,$7,0*
20,1,$1+$1,$6,$7,$8,$9,0*
20,1,$1+$1,$8,$9,$2,$3,0*%
G04 Aperture macros list end*
%ADD10C,0.150000*%
%ADD11C,0.120000*%
%ADD12R,1.600000X1.600000*%
%ADD13O,1.600000X1.600000*%
%ADD14C,1.600000*%
%ADD15R,1.050000X1.500000*%
%ADD16O,1.050000X1.500000*%
%ADD17R,1.700000X1.700000*%
%ADD18O,1.700000X1.700000*%
%ADD19C,3.200000*%
%ADD20RoundRect,0.225000X-0.225000X-0.250000X0.225000X-0.250000X0.225000X0.250000X-0.225000X0.250000X0*%
%ADD21R,2.200000X2.200000*%
%ADD22O,2.200000X2.200000*%
G04 APERTURE END LIST*
D10*
X140970000Y-142875000D02*
X129540000Y-142875000D01*
X129540000Y-142875000D02*
X129540000Y-154305000D01*
X129540000Y-154305000D02*
X140970000Y-154305000D01*
X140970000Y-154305000D02*
X140970000Y-142875000D01*
X172720000Y-109855000D02*
X182880000Y-109855000D01*
X182880000Y-109855000D02*
X182880000Y-121920000D01*
X182880000Y-121920000D02*
X172720000Y-121920000D01*
X172720000Y-121920000D02*
X172720000Y-109855000D01*
X179054285Y-112672761D02*
X179197142Y-112720380D01*
X179435238Y-112720380D01*
X179530476Y-112672761D01*
X179578095Y-112625142D01*
X179625714Y-112529904D01*
X179625714Y-112434666D01*
X179578095Y-112339428D01*
X179530476Y-112291809D01*
X179435238Y-112244190D01*
X179244761Y-112196571D01*
X179149523Y-112148952D01*
X179101904Y-112101333D01*
X179054285Y-112006095D01*
X179054285Y-111910857D01*
X179101904Y-111815619D01*
X179149523Y-111768000D01*
X179244761Y-111720380D01*
X179482857Y-111720380D01*
X179625714Y-111768000D01*
X180625714Y-112625142D02*
X180578095Y-112672761D01*
X180435238Y-112720380D01*
X180340000Y-112720380D01*
X180197142Y-112672761D01*
X180101904Y-112577523D01*
X180054285Y-112482285D01*
X180006666Y-112291809D01*
X180006666Y-112148952D01*
X180054285Y-111958476D01*
X180101904Y-111863238D01*
X180197142Y-111768000D01*
X180340000Y-111720380D01*
X180435238Y-111720380D01*
X180578095Y-111768000D01*
X180625714Y-111815619D01*
X181054285Y-112720380D02*
X181054285Y-111720380D01*
X181625714Y-112720380D02*
X181197142Y-112148952D01*
X181625714Y-111720380D02*
X181054285Y-112291809D01*
X179157523Y-115514380D02*
X179157523Y-114514380D01*
X179395619Y-114514380D01*
X179538476Y-114562000D01*
X179633714Y-114657238D01*
X179681333Y-114752476D01*
X179728952Y-114942952D01*
X179728952Y-115085809D01*
X179681333Y-115276285D01*
X179633714Y-115371523D01*
X179538476Y-115466761D01*
X179395619Y-115514380D01*
X179157523Y-115514380D01*
X180348000Y-114514380D02*
X180538476Y-114514380D01*
X180633714Y-114562000D01*
X180728952Y-114657238D01*
X180776571Y-114847714D01*
X180776571Y-115181047D01*
X180728952Y-115371523D01*
X180633714Y-115466761D01*
X180538476Y-115514380D01*
X180348000Y-115514380D01*
X180252761Y-115466761D01*
X180157523Y-115371523D01*
X180109904Y-115181047D01*
X180109904Y-114847714D01*
X180157523Y-114657238D01*
X180252761Y-114562000D01*
X180348000Y-114514380D01*
X181205142Y-114514380D02*
X181205142Y-115323904D01*
X181252761Y-115419142D01*
X181300380Y-115466761D01*
X181395619Y-115514380D01*
X181586095Y-115514380D01*
X181681333Y-115466761D01*
X181728952Y-115419142D01*
X181776571Y-115323904D01*
X181776571Y-114514380D01*
X182109904Y-114514380D02*
X182681333Y-114514380D01*
X182395619Y-115514380D02*
X182395619Y-114514380D01*
X179832095Y-119388000D02*
X179736857Y-119340380D01*
X179594000Y-119340380D01*
X179451142Y-119388000D01*
X179355904Y-119483238D01*
X179308285Y-119578476D01*
X179260666Y-119768952D01*
X179260666Y-119911809D01*
X179308285Y-120102285D01*
X179355904Y-120197523D01*
X179451142Y-120292761D01*
X179594000Y-120340380D01*
X179689238Y-120340380D01*
X179832095Y-120292761D01*
X179879714Y-120245142D01*
X179879714Y-119911809D01*
X179689238Y-119911809D01*
X180308285Y-120340380D02*
X180308285Y-119340380D01*
X180879714Y-120340380D01*
X180879714Y-119340380D01*
X181355904Y-120340380D02*
X181355904Y-119340380D01*
X181594000Y-119340380D01*
X181736857Y-119388000D01*
X181832095Y-119483238D01*
X181879714Y-119578476D01*
X181927333Y-119768952D01*
X181927333Y-119911809D01*
X181879714Y-120102285D01*
X181832095Y-120197523D01*
X181736857Y-120292761D01*
X181594000Y-120340380D01*
X181355904Y-120340380D01*
X106651190Y-95854476D02*
X106651190Y-94604476D01*
X106948809Y-94604476D01*
X107127380Y-94664000D01*
X107246428Y-94783047D01*
X107305952Y-94902095D01*
X107365476Y-95140190D01*
X107365476Y-95318761D01*
X107305952Y-95556857D01*
X107246428Y-95675904D01*
X107127380Y-95794952D01*
X106948809Y-95854476D01*
X106651190Y-95854476D01*
X108377380Y-95794952D02*
X108258333Y-95854476D01*
X108020238Y-95854476D01*
X107901190Y-95794952D01*
X107841666Y-95675904D01*
X107841666Y-95199714D01*
X107901190Y-95080666D01*
X108020238Y-95021142D01*
X108258333Y-95021142D01*
X108377380Y-95080666D01*
X108436904Y-95199714D01*
X108436904Y-95318761D01*
X107841666Y-95437809D01*
X108972619Y-95854476D02*
X108972619Y-95021142D01*
X108972619Y-95140190D02*
X109032142Y-95080666D01*
X109151190Y-95021142D01*
X109329761Y-95021142D01*
X109448809Y-95080666D01*
X109508333Y-95199714D01*
X109508333Y-95854476D01*
X109508333Y-95199714D02*
X109567857Y-95080666D01*
X109686904Y-95021142D01*
X109865476Y-95021142D01*
X109984523Y-95080666D01*
X110044047Y-95199714D01*
X110044047Y-95854476D01*
X110817857Y-95854476D02*
X110698809Y-95794952D01*
X110639285Y-95735428D01*
X110579761Y-95616380D01*
X110579761Y-95259238D01*
X110639285Y-95140190D01*
X110698809Y-95080666D01*
X110817857Y-95021142D01*
X110996428Y-95021142D01*
X111115476Y-95080666D01*
X111175000Y-95140190D01*
X111234523Y-95259238D01*
X111234523Y-95616380D01*
X111175000Y-95735428D01*
X111115476Y-95794952D01*
X110996428Y-95854476D01*
X110817857Y-95854476D01*
X111770238Y-95021142D02*
X111770238Y-95854476D01*
X111770238Y-95140190D02*
X111829761Y-95080666D01*
X111948809Y-95021142D01*
X112127380Y-95021142D01*
X112246428Y-95080666D01*
X112305952Y-95199714D01*
X112305952Y-95854476D01*
X113853571Y-95854476D02*
X113853571Y-94604476D01*
X114151190Y-94604476D01*
X114329761Y-94664000D01*
X114448809Y-94783047D01*
X114508333Y-94902095D01*
X114567857Y-95140190D01*
X114567857Y-95318761D01*
X114508333Y-95556857D01*
X114448809Y-95675904D01*
X114329761Y-95794952D01*
X114151190Y-95854476D01*
X113853571Y-95854476D01*
X115579761Y-95794952D02*
X115460714Y-95854476D01*
X115222619Y-95854476D01*
X115103571Y-95794952D01*
X115044047Y-95675904D01*
X115044047Y-95199714D01*
X115103571Y-95080666D01*
X115222619Y-95021142D01*
X115460714Y-95021142D01*
X115579761Y-95080666D01*
X115639285Y-95199714D01*
X115639285Y-95318761D01*
X115044047Y-95437809D01*
X116175000Y-95854476D02*
X116175000Y-94604476D01*
X116175000Y-95080666D02*
X116294047Y-95021142D01*
X116532142Y-95021142D01*
X116651190Y-95080666D01*
X116710714Y-95140190D01*
X116770238Y-95259238D01*
X116770238Y-95616380D01*
X116710714Y-95735428D01*
X116651190Y-95794952D01*
X116532142Y-95854476D01*
X116294047Y-95854476D01*
X116175000Y-95794952D01*
X117841666Y-95021142D02*
X117841666Y-95854476D01*
X117305952Y-95021142D02*
X117305952Y-95675904D01*
X117365476Y-95794952D01*
X117484523Y-95854476D01*
X117663095Y-95854476D01*
X117782142Y-95794952D01*
X117841666Y-95735428D01*
X118972619Y-95021142D02*
X118972619Y-96033047D01*
X118913095Y-96152095D01*
X118853571Y-96211619D01*
X118734523Y-96271142D01*
X118555952Y-96271142D01*
X118436904Y-96211619D01*
X118972619Y-95794952D02*
X118853571Y-95854476D01*
X118615476Y-95854476D01*
X118496428Y-95794952D01*
X118436904Y-95735428D01*
X118377380Y-95616380D01*
X118377380Y-95259238D01*
X118436904Y-95140190D01*
X118496428Y-95080666D01*
X118615476Y-95021142D01*
X118853571Y-95021142D01*
X118972619Y-95080666D01*
X120103571Y-95021142D02*
X120103571Y-96033047D01*
X120044047Y-96152095D01*
X119984523Y-96211619D01*
X119865476Y-96271142D01*
X119686904Y-96271142D01*
X119567857Y-96211619D01*
X120103571Y-95794952D02*
X119984523Y-95854476D01*
X119746428Y-95854476D01*
X119627380Y-95794952D01*
X119567857Y-95735428D01*
X119508333Y-95616380D01*
X119508333Y-95259238D01*
X119567857Y-95140190D01*
X119627380Y-95080666D01*
X119746428Y-95021142D01*
X119984523Y-95021142D01*
X120103571Y-95080666D01*
X121175000Y-95794952D02*
X121055952Y-95854476D01*
X120817857Y-95854476D01*
X120698809Y-95794952D01*
X120639285Y-95675904D01*
X120639285Y-95199714D01*
X120698809Y-95080666D01*
X120817857Y-95021142D01*
X121055952Y-95021142D01*
X121175000Y-95080666D01*
X121234523Y-95199714D01*
X121234523Y-95318761D01*
X120639285Y-95437809D01*
X121770238Y-95854476D02*
X121770238Y-95021142D01*
X121770238Y-95259238D02*
X121829761Y-95140190D01*
X121889285Y-95080666D01*
X122008333Y-95021142D01*
X122127380Y-95021142D01*
X112276190Y-97866976D02*
X111859523Y-97271738D01*
X111561904Y-97866976D02*
X111561904Y-96616976D01*
X112038095Y-96616976D01*
X112157142Y-96676500D01*
X112216666Y-96736023D01*
X112276190Y-96855071D01*
X112276190Y-97033642D01*
X112216666Y-97152690D01*
X112157142Y-97212214D01*
X112038095Y-97271738D01*
X111561904Y-97271738D01*
X113288095Y-97807452D02*
X113169047Y-97866976D01*
X112930952Y-97866976D01*
X112811904Y-97807452D01*
X112752380Y-97688404D01*
X112752380Y-97212214D01*
X112811904Y-97093166D01*
X112930952Y-97033642D01*
X113169047Y-97033642D01*
X113288095Y-97093166D01*
X113347619Y-97212214D01*
X113347619Y-97331261D01*
X112752380Y-97450309D01*
X113764285Y-97033642D02*
X114061904Y-97866976D01*
X114359523Y-97033642D01*
X114835714Y-97747928D02*
X114895238Y-97807452D01*
X114835714Y-97866976D01*
X114776190Y-97807452D01*
X114835714Y-97747928D01*
X114835714Y-97866976D01*
X117097619Y-97747928D02*
X117038095Y-97807452D01*
X116859523Y-97866976D01*
X116740476Y-97866976D01*
X116561904Y-97807452D01*
X116442857Y-97688404D01*
X116383333Y-97569357D01*
X116323809Y-97331261D01*
X116323809Y-97152690D01*
X116383333Y-96914595D01*
X116442857Y-96795547D01*
X116561904Y-96676500D01*
X116740476Y-96616976D01*
X116859523Y-96616976D01*
X117038095Y-96676500D01*
X117097619Y-96736023D01*
X108050000Y-99879476D02*
X108050000Y-98629476D01*
X108764285Y-99879476D02*
X108228571Y-99165190D01*
X108764285Y-98629476D02*
X108050000Y-99343761D01*
X109300000Y-99046142D02*
X109300000Y-99879476D01*
X109300000Y-99165190D02*
X109359523Y-99105666D01*
X109478571Y-99046142D01*
X109657142Y-99046142D01*
X109776190Y-99105666D01*
X109835714Y-99224714D01*
X109835714Y-99879476D01*
X110966666Y-99879476D02*
X110966666Y-99224714D01*
X110907142Y-99105666D01*
X110788095Y-99046142D01*
X110550000Y-99046142D01*
X110430952Y-99105666D01*
X110966666Y-99819952D02*
X110847619Y-99879476D01*
X110550000Y-99879476D01*
X110430952Y-99819952D01*
X110371428Y-99700904D01*
X110371428Y-99581857D01*
X110430952Y-99462809D01*
X110550000Y-99403285D01*
X110847619Y-99403285D01*
X110966666Y-99343761D01*
X111561904Y-99879476D02*
X111561904Y-99046142D01*
X111561904Y-99284238D02*
X111621428Y-99165190D01*
X111680952Y-99105666D01*
X111800000Y-99046142D01*
X111919047Y-99046142D01*
X112157142Y-99046142D02*
X112633333Y-99046142D01*
X112335714Y-99879476D02*
X112335714Y-98808047D01*
X112395238Y-98689000D01*
X112514285Y-98629476D01*
X112633333Y-98629476D01*
X113050000Y-99879476D02*
X113050000Y-99046142D01*
X113050000Y-98629476D02*
X112990476Y-98689000D01*
X113050000Y-98748523D01*
X113109523Y-98689000D01*
X113050000Y-98629476D01*
X113050000Y-98748523D01*
X114180952Y-99879476D02*
X114180952Y-99224714D01*
X114121428Y-99105666D01*
X114002380Y-99046142D01*
X113764285Y-99046142D01*
X113645238Y-99105666D01*
X114180952Y-99819952D02*
X114061904Y-99879476D01*
X113764285Y-99879476D01*
X113645238Y-99819952D01*
X113585714Y-99700904D01*
X113585714Y-99581857D01*
X113645238Y-99462809D01*
X113764285Y-99403285D01*
X114061904Y-99403285D01*
X114180952Y-99343761D01*
X114776190Y-99046142D02*
X114776190Y-99879476D01*
X114776190Y-99165190D02*
X114835714Y-99105666D01*
X114954761Y-99046142D01*
X115133333Y-99046142D01*
X115252380Y-99105666D01*
X115311904Y-99224714D01*
X115311904Y-99879476D01*
X117454761Y-99879476D02*
X116859523Y-99879476D01*
X116859523Y-98629476D01*
X118407142Y-99879476D02*
X118407142Y-99224714D01*
X118347619Y-99105666D01*
X118228571Y-99046142D01*
X117990476Y-99046142D01*
X117871428Y-99105666D01*
X118407142Y-99819952D02*
X118288095Y-99879476D01*
X117990476Y-99879476D01*
X117871428Y-99819952D01*
X117811904Y-99700904D01*
X117811904Y-99581857D01*
X117871428Y-99462809D01*
X117990476Y-99403285D01*
X118288095Y-99403285D01*
X118407142Y-99343761D01*
X119002380Y-99879476D02*
X119002380Y-98629476D01*
X119002380Y-99105666D02*
X119121428Y-99046142D01*
X119359523Y-99046142D01*
X119478571Y-99105666D01*
X119538095Y-99165190D01*
X119597619Y-99284238D01*
X119597619Y-99641380D01*
X119538095Y-99760428D01*
X119478571Y-99819952D01*
X119359523Y-99879476D01*
X119121428Y-99879476D01*
X119002380Y-99819952D01*
X120073809Y-99819952D02*
X120192857Y-99879476D01*
X120430952Y-99879476D01*
X120550000Y-99819952D01*
X120609523Y-99700904D01*
X120609523Y-99641380D01*
X120550000Y-99522333D01*
X120430952Y-99462809D01*
X120252380Y-99462809D01*
X120133333Y-99403285D01*
X120073809Y-99284238D01*
X120073809Y-99224714D01*
X120133333Y-99105666D01*
X120252380Y-99046142D01*
X120430952Y-99046142D01*
X120550000Y-99105666D01*
X107425000Y-101237214D02*
X107008333Y-101237214D01*
X107008333Y-101891976D02*
X107008333Y-100641976D01*
X107603571Y-100641976D01*
X108079761Y-101891976D02*
X108079761Y-101058642D01*
X108079761Y-101296738D02*
X108139285Y-101177690D01*
X108198809Y-101118166D01*
X108317857Y-101058642D01*
X108436904Y-101058642D01*
X109389285Y-101891976D02*
X109389285Y-101237214D01*
X109329761Y-101118166D01*
X109210714Y-101058642D01*
X108972619Y-101058642D01*
X108853571Y-101118166D01*
X109389285Y-101832452D02*
X109270238Y-101891976D01*
X108972619Y-101891976D01*
X108853571Y-101832452D01*
X108794047Y-101713404D01*
X108794047Y-101594357D01*
X108853571Y-101475309D01*
X108972619Y-101415785D01*
X109270238Y-101415785D01*
X109389285Y-101356261D01*
X109984523Y-101058642D02*
X109984523Y-101891976D01*
X109984523Y-101177690D02*
X110044047Y-101118166D01*
X110163095Y-101058642D01*
X110341666Y-101058642D01*
X110460714Y-101118166D01*
X110520238Y-101237214D01*
X110520238Y-101891976D01*
X111115476Y-101891976D02*
X111115476Y-100641976D01*
X111234523Y-101415785D02*
X111591666Y-101891976D01*
X111591666Y-101058642D02*
X111115476Y-101534833D01*
X113079761Y-101891976D02*
X113079761Y-100641976D01*
X113555952Y-100641976D01*
X113675000Y-100701500D01*
X113734523Y-100761023D01*
X113794047Y-100880071D01*
X113794047Y-101058642D01*
X113734523Y-101177690D01*
X113675000Y-101237214D01*
X113555952Y-101296738D01*
X113079761Y-101296738D01*
X114865476Y-101891976D02*
X114865476Y-101237214D01*
X114805952Y-101118166D01*
X114686904Y-101058642D01*
X114448809Y-101058642D01*
X114329761Y-101118166D01*
X114865476Y-101832452D02*
X114746428Y-101891976D01*
X114448809Y-101891976D01*
X114329761Y-101832452D01*
X114270238Y-101713404D01*
X114270238Y-101594357D01*
X114329761Y-101475309D01*
X114448809Y-101415785D01*
X114746428Y-101415785D01*
X114865476Y-101356261D01*
X115639285Y-101891976D02*
X115520238Y-101832452D01*
X115460714Y-101713404D01*
X115460714Y-100641976D01*
X116651190Y-101891976D02*
X116651190Y-101237214D01*
X116591666Y-101118166D01*
X116472619Y-101058642D01*
X116234523Y-101058642D01*
X116115476Y-101118166D01*
X116651190Y-101832452D02*
X116532142Y-101891976D01*
X116234523Y-101891976D01*
X116115476Y-101832452D01*
X116055952Y-101713404D01*
X116055952Y-101594357D01*
X116115476Y-101475309D01*
X116234523Y-101415785D01*
X116532142Y-101415785D01*
X116651190Y-101356261D01*
X117127380Y-101058642D02*
X117782142Y-101058642D01*
X117127380Y-101891976D01*
X117782142Y-101891976D01*
X118139285Y-101058642D02*
X118794047Y-101058642D01*
X118139285Y-101891976D01*
X118794047Y-101891976D01*
X119448809Y-101891976D02*
X119329761Y-101832452D01*
X119270238Y-101772928D01*
X119210714Y-101653880D01*
X119210714Y-101296738D01*
X119270238Y-101177690D01*
X119329761Y-101118166D01*
X119448809Y-101058642D01*
X119627380Y-101058642D01*
X119746428Y-101118166D01*
X119805952Y-101177690D01*
X119865476Y-101296738D01*
X119865476Y-101653880D01*
X119805952Y-101772928D01*
X119746428Y-101832452D01*
X119627380Y-101891976D01*
X119448809Y-101891976D01*
X120579761Y-101891976D02*
X120460714Y-101832452D01*
X120401190Y-101713404D01*
X120401190Y-100641976D01*
X121234523Y-101891976D02*
X121115476Y-101832452D01*
X121055952Y-101772928D01*
X120996428Y-101653880D01*
X120996428Y-101296738D01*
X121055952Y-101177690D01*
X121115476Y-101118166D01*
X121234523Y-101058642D01*
X121413095Y-101058642D01*
X121532142Y-101118166D01*
X121591666Y-101177690D01*
X121651190Y-101296738D01*
X121651190Y-101653880D01*
X121591666Y-101772928D01*
X121532142Y-101832452D01*
X121413095Y-101891976D01*
X121234523Y-101891976D01*
X109657142Y-103249714D02*
X110073809Y-103249714D01*
X110252380Y-103904476D02*
X109657142Y-103904476D01*
X109657142Y-102654476D01*
X110252380Y-102654476D01*
X110669047Y-103071142D02*
X110966666Y-103904476D01*
X111264285Y-103071142D01*
X112276190Y-103904476D02*
X112276190Y-103249714D01*
X112216666Y-103130666D01*
X112097619Y-103071142D01*
X111859523Y-103071142D01*
X111740476Y-103130666D01*
X112276190Y-103844952D02*
X112157142Y-103904476D01*
X111859523Y-103904476D01*
X111740476Y-103844952D01*
X111680952Y-103725904D01*
X111680952Y-103606857D01*
X111740476Y-103487809D01*
X111859523Y-103428285D01*
X112157142Y-103428285D01*
X112276190Y-103368761D01*
X112871428Y-103071142D02*
X112871428Y-103904476D01*
X112871428Y-103190190D02*
X112930952Y-103130666D01*
X113050000Y-103071142D01*
X113228571Y-103071142D01*
X113347619Y-103130666D01*
X113407142Y-103249714D01*
X113407142Y-103904476D01*
X114895238Y-103547333D02*
X115490476Y-103547333D01*
X114776190Y-103904476D02*
X115192857Y-102654476D01*
X115609523Y-103904476D01*
X116204761Y-103904476D02*
X116085714Y-103844952D01*
X116026190Y-103725904D01*
X116026190Y-102654476D01*
X116859523Y-103904476D02*
X116740476Y-103844952D01*
X116680952Y-103725904D01*
X116680952Y-102654476D01*
X117811904Y-103844952D02*
X117692857Y-103904476D01*
X117454761Y-103904476D01*
X117335714Y-103844952D01*
X117276190Y-103725904D01*
X117276190Y-103249714D01*
X117335714Y-103130666D01*
X117454761Y-103071142D01*
X117692857Y-103071142D01*
X117811904Y-103130666D01*
X117871428Y-103249714D01*
X117871428Y-103368761D01*
X117276190Y-103487809D01*
X118407142Y-103071142D02*
X118407142Y-103904476D01*
X118407142Y-103190190D02*
X118466666Y-103130666D01*
X118585714Y-103071142D01*
X118764285Y-103071142D01*
X118883333Y-103130666D01*
X118942857Y-103249714D01*
X118942857Y-103904476D01*
X179125714Y-117752761D02*
X179268571Y-117800380D01*
X179506666Y-117800380D01*
X179601904Y-117752761D01*
X179649523Y-117705142D01*
X179697142Y-117609904D01*
X179697142Y-117514666D01*
X179649523Y-117419428D01*
X179601904Y-117371809D01*
X179506666Y-117324190D01*
X179316190Y-117276571D01*
X179220952Y-117228952D01*
X179173333Y-117181333D01*
X179125714Y-117086095D01*
X179125714Y-116990857D01*
X179173333Y-116895619D01*
X179220952Y-116848000D01*
X179316190Y-116800380D01*
X179554285Y-116800380D01*
X179697142Y-116848000D01*
X180125714Y-117800380D02*
X180125714Y-116800380D01*
X180363809Y-116800380D01*
X180506666Y-116848000D01*
X180601904Y-116943238D01*
X180649523Y-117038476D01*
X180697142Y-117228952D01*
X180697142Y-117371809D01*
X180649523Y-117562285D01*
X180601904Y-117657523D01*
X180506666Y-117752761D01*
X180363809Y-117800380D01*
X180125714Y-117800380D01*
X181078095Y-117514666D02*
X181554285Y-117514666D01*
X180982857Y-117800380D02*
X181316190Y-116800380D01*
X181649523Y-117800380D01*
X134517142Y-167092380D02*
X134755238Y-168092380D01*
X134945714Y-167378095D01*
X135136190Y-168092380D01*
X135374285Y-167092380D01*
X136326666Y-168092380D02*
X135993333Y-167616190D01*
X135755238Y-168092380D02*
X135755238Y-167092380D01*
X136136190Y-167092380D01*
X136231428Y-167140000D01*
X136279047Y-167187619D01*
X136326666Y-167282857D01*
X136326666Y-167425714D01*
X136279047Y-167520952D01*
X136231428Y-167568571D01*
X136136190Y-167616190D01*
X135755238Y-167616190D01*
X137945714Y-168044761D02*
X137850476Y-168092380D01*
X137660000Y-168092380D01*
X137564761Y-168044761D01*
X137517142Y-167997142D01*
X137469523Y-167901904D01*
X137469523Y-167616190D01*
X137517142Y-167520952D01*
X137564761Y-167473333D01*
X137660000Y-167425714D01*
X137850476Y-167425714D01*
X137945714Y-167473333D01*
X138802857Y-168092380D02*
X138802857Y-167568571D01*
X138755238Y-167473333D01*
X138660000Y-167425714D01*
X138469523Y-167425714D01*
X138374285Y-167473333D01*
X138802857Y-168044761D02*
X138707619Y-168092380D01*
X138469523Y-168092380D01*
X138374285Y-168044761D01*
X138326666Y-167949523D01*
X138326666Y-167854285D01*
X138374285Y-167759047D01*
X138469523Y-167711428D01*
X138707619Y-167711428D01*
X138802857Y-167663809D01*
X139279047Y-167425714D02*
X139279047Y-168425714D01*
X139279047Y-167473333D02*
X139374285Y-167425714D01*
X139564761Y-167425714D01*
X139660000Y-167473333D01*
X139707619Y-167520952D01*
X139755238Y-167616190D01*
X139755238Y-167901904D01*
X139707619Y-167997142D01*
X139660000Y-168044761D01*
X139564761Y-168092380D01*
X139374285Y-168092380D01*
X139279047Y-168044761D01*
X136255142Y-144883142D02*
X136207523Y-144930761D01*
X136064666Y-144978380D01*
X135969428Y-144978380D01*
X135826571Y-144930761D01*
X135731333Y-144835523D01*
X135683714Y-144740285D01*
X135636095Y-144549809D01*
X135636095Y-144406952D01*
X135683714Y-144216476D01*
X135731333Y-144121238D01*
X135826571Y-144026000D01*
X135969428Y-143978380D01*
X136064666Y-143978380D01*
X136207523Y-144026000D01*
X136255142Y-144073619D01*
X136683714Y-144454571D02*
X137017047Y-144454571D01*
X137159904Y-144978380D02*
X136683714Y-144978380D01*
X136683714Y-143978380D01*
X137159904Y-143978380D01*
X130222857Y-152344380D02*
X130222857Y-151344380D01*
X130699047Y-151677714D02*
X130699047Y-152344380D01*
X130699047Y-151772952D02*
X130746666Y-151725333D01*
X130841904Y-151677714D01*
X130984761Y-151677714D01*
X131080000Y-151725333D01*
X131127619Y-151820571D01*
X131127619Y-152344380D01*
X131508571Y-151677714D02*
X131746666Y-152344380D01*
X131984761Y-151677714D01*
X132746666Y-152296761D02*
X132651428Y-152344380D01*
X132460952Y-152344380D01*
X132365714Y-152296761D01*
X132318095Y-152201523D01*
X132318095Y-151820571D01*
X132365714Y-151725333D01*
X132460952Y-151677714D01*
X132651428Y-151677714D01*
X132746666Y-151725333D01*
X132794285Y-151820571D01*
X132794285Y-151915809D01*
X132318095Y-152011047D01*
X133222857Y-152344380D02*
X133222857Y-151677714D01*
X133222857Y-151868190D02*
X133270476Y-151772952D01*
X133318095Y-151725333D01*
X133413333Y-151677714D01*
X133508571Y-151677714D01*
X133699047Y-151677714D02*
X134080000Y-151677714D01*
X133841904Y-151344380D02*
X133841904Y-152201523D01*
X133889523Y-152296761D01*
X133984761Y-152344380D01*
X134080000Y-152344380D01*
X178685714Y-148295476D02*
X179352380Y-148295476D01*
X178685714Y-148724047D02*
X179209523Y-148724047D01*
X179304761Y-148676428D01*
X179352380Y-148581190D01*
X179352380Y-148438333D01*
X179304761Y-148343095D01*
X179257142Y-148295476D01*
X178685714Y-147819285D02*
X179352380Y-147819285D01*
X178780952Y-147819285D02*
X178733333Y-147771666D01*
X178685714Y-147676428D01*
X178685714Y-147533571D01*
X178733333Y-147438333D01*
X178828571Y-147390714D01*
X179352380Y-147390714D01*
X179352380Y-146914523D02*
X178352380Y-146914523D01*
X179352380Y-146485952D02*
X178828571Y-146485952D01*
X178733333Y-146533571D01*
X178685714Y-146628809D01*
X178685714Y-146771666D01*
X178733333Y-146866904D01*
X178780952Y-146914523D01*
X179352380Y-145866904D02*
X179304761Y-145962142D01*
X179257142Y-146009761D01*
X179161904Y-146057380D01*
X178876190Y-146057380D01*
X178780952Y-146009761D01*
X178733333Y-145962142D01*
X178685714Y-145866904D01*
X178685714Y-145724047D01*
X178733333Y-145628809D01*
X178780952Y-145581190D01*
X178876190Y-145533571D01*
X179161904Y-145533571D01*
X179257142Y-145581190D01*
X179304761Y-145628809D01*
X179352380Y-145724047D01*
X179352380Y-145866904D01*
X179352380Y-144962142D02*
X179304761Y-145057380D01*
X179257142Y-145105000D01*
X179161904Y-145152619D01*
X178876190Y-145152619D01*
X178780952Y-145105000D01*
X178733333Y-145057380D01*
X178685714Y-144962142D01*
X178685714Y-144819285D01*
X178733333Y-144724047D01*
X178780952Y-144676428D01*
X178876190Y-144628809D01*
X179161904Y-144628809D01*
X179257142Y-144676428D01*
X179304761Y-144724047D01*
X179352380Y-144819285D01*
X179352380Y-144962142D01*
X179352380Y-144200238D02*
X178352380Y-144200238D01*
X178971428Y-144105000D02*
X179352380Y-143819285D01*
X178685714Y-143819285D02*
X179066666Y-144200238D01*
X178685714Y-142771666D02*
X178685714Y-142390714D01*
X179352380Y-142628809D02*
X178495238Y-142628809D01*
X178400000Y-142581190D01*
X178352380Y-142485952D01*
X178352380Y-142390714D01*
X179352380Y-142057380D02*
X178685714Y-142057380D01*
X178876190Y-142057380D02*
X178780952Y-142009761D01*
X178733333Y-141962142D01*
X178685714Y-141866904D01*
X178685714Y-141771666D01*
X179352380Y-141295476D02*
X179304761Y-141390714D01*
X179257142Y-141438333D01*
X179161904Y-141485952D01*
X178876190Y-141485952D01*
X178780952Y-141438333D01*
X178733333Y-141390714D01*
X178685714Y-141295476D01*
X178685714Y-141152619D01*
X178733333Y-141057380D01*
X178780952Y-141009761D01*
X178876190Y-140962142D01*
X179161904Y-140962142D01*
X179257142Y-141009761D01*
X179304761Y-141057380D01*
X179352380Y-141152619D01*
X179352380Y-141295476D01*
X179352380Y-140533571D02*
X178685714Y-140533571D01*
X178780952Y-140533571D02*
X178733333Y-140485952D01*
X178685714Y-140390714D01*
X178685714Y-140247857D01*
X178733333Y-140152619D01*
X178828571Y-140105000D01*
X179352380Y-140105000D01*
X178828571Y-140105000D02*
X178733333Y-140057380D01*
X178685714Y-139962142D01*
X178685714Y-139819285D01*
X178733333Y-139724047D01*
X178828571Y-139676428D01*
X179352380Y-139676428D01*
X178685714Y-138581190D02*
X178685714Y-138200238D01*
X178352380Y-138438333D02*
X179209523Y-138438333D01*
X179304761Y-138390714D01*
X179352380Y-138295476D01*
X179352380Y-138200238D01*
X179352380Y-137438333D02*
X178828571Y-137438333D01*
X178733333Y-137485952D01*
X178685714Y-137581190D01*
X178685714Y-137771666D01*
X178733333Y-137866904D01*
X179304761Y-137438333D02*
X179352380Y-137533571D01*
X179352380Y-137771666D01*
X179304761Y-137866904D01*
X179209523Y-137914523D01*
X179114285Y-137914523D01*
X179019047Y-137866904D01*
X178971428Y-137771666D01*
X178971428Y-137533571D01*
X178923809Y-137438333D01*
X179352380Y-136962142D02*
X178685714Y-136962142D01*
X178876190Y-136962142D02*
X178780952Y-136914523D01*
X178733333Y-136866904D01*
X178685714Y-136771666D01*
X178685714Y-136676428D01*
X178685714Y-135914523D02*
X179495238Y-135914523D01*
X179590476Y-135962142D01*
X179638095Y-136009761D01*
X179685714Y-136105000D01*
X179685714Y-136247857D01*
X179638095Y-136343095D01*
X179304761Y-135914523D02*
X179352380Y-136009761D01*
X179352380Y-136200238D01*
X179304761Y-136295476D01*
X179257142Y-136343095D01*
X179161904Y-136390714D01*
X178876190Y-136390714D01*
X178780952Y-136343095D01*
X178733333Y-136295476D01*
X178685714Y-136200238D01*
X178685714Y-136009761D01*
X178733333Y-135914523D01*
X179304761Y-135057380D02*
X179352380Y-135152619D01*
X179352380Y-135343095D01*
X179304761Y-135438333D01*
X179209523Y-135485952D01*
X178828571Y-135485952D01*
X178733333Y-135438333D01*
X178685714Y-135343095D01*
X178685714Y-135152619D01*
X178733333Y-135057380D01*
X178828571Y-135009761D01*
X178923809Y-135009761D01*
X179019047Y-135485952D01*
X178685714Y-134724047D02*
X178685714Y-134343095D01*
X178352380Y-134581190D02*
X179209523Y-134581190D01*
X179304761Y-134533571D01*
X179352380Y-134438333D01*
X179352380Y-134343095D01*
X180962380Y-157724047D02*
X180438571Y-157724047D01*
X180343333Y-157771666D01*
X180295714Y-157866904D01*
X180295714Y-158057380D01*
X180343333Y-158152619D01*
X180914761Y-157724047D02*
X180962380Y-157819285D01*
X180962380Y-158057380D01*
X180914761Y-158152619D01*
X180819523Y-158200238D01*
X180724285Y-158200238D01*
X180629047Y-158152619D01*
X180581428Y-158057380D01*
X180581428Y-157819285D01*
X180533809Y-157724047D01*
X180295714Y-157247857D02*
X180962380Y-157247857D01*
X180390952Y-157247857D02*
X180343333Y-157200238D01*
X180295714Y-157105000D01*
X180295714Y-156962142D01*
X180343333Y-156866904D01*
X180438571Y-156819285D01*
X180962380Y-156819285D01*
X180962380Y-155914523D02*
X179962380Y-155914523D01*
X180914761Y-155914523D02*
X180962380Y-156009761D01*
X180962380Y-156200238D01*
X180914761Y-156295476D01*
X180867142Y-156343095D01*
X180771904Y-156390714D01*
X180486190Y-156390714D01*
X180390952Y-156343095D01*
X180343333Y-156295476D01*
X180295714Y-156200238D01*
X180295714Y-156009761D01*
X180343333Y-155914523D01*
X180295714Y-154247857D02*
X180962380Y-154247857D01*
X180295714Y-154676428D02*
X180819523Y-154676428D01*
X180914761Y-154628809D01*
X180962380Y-154533571D01*
X180962380Y-154390714D01*
X180914761Y-154295476D01*
X180867142Y-154247857D01*
X180295714Y-153771666D02*
X180962380Y-153771666D01*
X180390952Y-153771666D02*
X180343333Y-153724047D01*
X180295714Y-153628809D01*
X180295714Y-153485952D01*
X180343333Y-153390714D01*
X180438571Y-153343095D01*
X180962380Y-153343095D01*
X180962380Y-152866904D02*
X179962380Y-152866904D01*
X180962380Y-152438333D02*
X180438571Y-152438333D01*
X180343333Y-152485952D01*
X180295714Y-152581190D01*
X180295714Y-152724047D01*
X180343333Y-152819285D01*
X180390952Y-152866904D01*
X180962380Y-151819285D02*
X180914761Y-151914523D01*
X180867142Y-151962142D01*
X180771904Y-152009761D01*
X180486190Y-152009761D01*
X180390952Y-151962142D01*
X180343333Y-151914523D01*
X180295714Y-151819285D01*
X180295714Y-151676428D01*
X180343333Y-151581190D01*
X180390952Y-151533571D01*
X180486190Y-151485952D01*
X180771904Y-151485952D01*
X180867142Y-151533571D01*
X180914761Y-151581190D01*
X180962380Y-151676428D01*
X180962380Y-151819285D01*
X180962380Y-150914523D02*
X180914761Y-151009761D01*
X180867142Y-151057380D01*
X180771904Y-151105000D01*
X180486190Y-151105000D01*
X180390952Y-151057380D01*
X180343333Y-151009761D01*
X180295714Y-150914523D01*
X180295714Y-150771666D01*
X180343333Y-150676428D01*
X180390952Y-150628809D01*
X180486190Y-150581190D01*
X180771904Y-150581190D01*
X180867142Y-150628809D01*
X180914761Y-150676428D01*
X180962380Y-150771666D01*
X180962380Y-150914523D01*
X180962380Y-150152619D02*
X179962380Y-150152619D01*
X180581428Y-150057380D02*
X180962380Y-149771666D01*
X180295714Y-149771666D02*
X180676666Y-150152619D01*
X180962380Y-148581190D02*
X180295714Y-148581190D01*
X179962380Y-148581190D02*
X180010000Y-148628809D01*
X180057619Y-148581190D01*
X180010000Y-148533571D01*
X179962380Y-148581190D01*
X180057619Y-148581190D01*
X180057619Y-148152619D02*
X180010000Y-148105000D01*
X179962380Y-148009761D01*
X179962380Y-147771666D01*
X180010000Y-147676428D01*
X180057619Y-147628809D01*
X180152857Y-147581190D01*
X180248095Y-147581190D01*
X180390952Y-147628809D01*
X180962380Y-148200238D01*
X180962380Y-147581190D01*
X180914761Y-146724047D02*
X180962380Y-146819285D01*
X180962380Y-147009761D01*
X180914761Y-147105000D01*
X180867142Y-147152619D01*
X180771904Y-147200238D01*
X180486190Y-147200238D01*
X180390952Y-147152619D01*
X180343333Y-147105000D01*
X180295714Y-147009761D01*
X180295714Y-146819285D01*
X180343333Y-146724047D01*
X180295714Y-145533571D02*
X181152857Y-145533571D01*
X181248095Y-145581190D01*
X181295714Y-145676428D01*
X181295714Y-145724047D01*
X179962380Y-145533571D02*
X180010000Y-145581190D01*
X180057619Y-145533571D01*
X180010000Y-145485952D01*
X179962380Y-145533571D01*
X180057619Y-145533571D01*
X180295714Y-144628809D02*
X180962380Y-144628809D01*
X180295714Y-145057380D02*
X180819523Y-145057380D01*
X180914761Y-145009761D01*
X180962380Y-144914523D01*
X180962380Y-144771666D01*
X180914761Y-144676428D01*
X180867142Y-144628809D01*
X180962380Y-144152619D02*
X180295714Y-144152619D01*
X180390952Y-144152619D02*
X180343333Y-144105000D01*
X180295714Y-144009761D01*
X180295714Y-143866904D01*
X180343333Y-143771666D01*
X180438571Y-143724047D01*
X180962380Y-143724047D01*
X180438571Y-143724047D02*
X180343333Y-143676428D01*
X180295714Y-143581190D01*
X180295714Y-143438333D01*
X180343333Y-143343095D01*
X180438571Y-143295476D01*
X180962380Y-143295476D01*
X180295714Y-142819285D02*
X181295714Y-142819285D01*
X180343333Y-142819285D02*
X180295714Y-142724047D01*
X180295714Y-142533571D01*
X180343333Y-142438333D01*
X180390952Y-142390714D01*
X180486190Y-142343095D01*
X180771904Y-142343095D01*
X180867142Y-142390714D01*
X180914761Y-142438333D01*
X180962380Y-142533571D01*
X180962380Y-142724047D01*
X180914761Y-142819285D01*
X180914761Y-141533571D02*
X180962380Y-141628809D01*
X180962380Y-141819285D01*
X180914761Y-141914523D01*
X180819523Y-141962142D01*
X180438571Y-141962142D01*
X180343333Y-141914523D01*
X180295714Y-141819285D01*
X180295714Y-141628809D01*
X180343333Y-141533571D01*
X180438571Y-141485952D01*
X180533809Y-141485952D01*
X180629047Y-141962142D01*
X180962380Y-141057380D02*
X180295714Y-141057380D01*
X180486190Y-141057380D02*
X180390952Y-141009761D01*
X180343333Y-140962142D01*
X180295714Y-140866904D01*
X180295714Y-140771666D01*
X180914761Y-140485952D02*
X180962380Y-140390714D01*
X180962380Y-140200238D01*
X180914761Y-140105000D01*
X180819523Y-140057380D01*
X180771904Y-140057380D01*
X180676666Y-140105000D01*
X180629047Y-140200238D01*
X180629047Y-140343095D01*
X180581428Y-140438333D01*
X180486190Y-140485952D01*
X180438571Y-140485952D01*
X180343333Y-140438333D01*
X180295714Y-140343095D01*
X180295714Y-140200238D01*
X180343333Y-140105000D01*
X180295714Y-138962142D02*
X180962380Y-138771666D01*
X180486190Y-138581190D01*
X180962380Y-138390714D01*
X180295714Y-138200238D01*
X180962380Y-137819285D02*
X179962380Y-137819285D01*
X180962380Y-137390714D02*
X180438571Y-137390714D01*
X180343333Y-137438333D01*
X180295714Y-137533571D01*
X180295714Y-137676428D01*
X180343333Y-137771666D01*
X180390952Y-137819285D01*
X180914761Y-136533571D02*
X180962380Y-136628809D01*
X180962380Y-136819285D01*
X180914761Y-136914523D01*
X180819523Y-136962142D01*
X180438571Y-136962142D01*
X180343333Y-136914523D01*
X180295714Y-136819285D01*
X180295714Y-136628809D01*
X180343333Y-136533571D01*
X180438571Y-136485952D01*
X180533809Y-136485952D01*
X180629047Y-136962142D01*
X180295714Y-136057380D02*
X180962380Y-136057380D01*
X180390952Y-136057380D02*
X180343333Y-136009761D01*
X180295714Y-135914523D01*
X180295714Y-135771666D01*
X180343333Y-135676428D01*
X180438571Y-135628809D01*
X180962380Y-135628809D01*
X180295714Y-134390714D02*
X181295714Y-134390714D01*
X180343333Y-134390714D02*
X180295714Y-134295476D01*
X180295714Y-134105000D01*
X180343333Y-134009761D01*
X180390952Y-133962142D01*
X180486190Y-133914523D01*
X180771904Y-133914523D01*
X180867142Y-133962142D01*
X180914761Y-134009761D01*
X180962380Y-134105000D01*
X180962380Y-134295476D01*
X180914761Y-134390714D01*
X180962380Y-133485952D02*
X180295714Y-133485952D01*
X180486190Y-133485952D02*
X180390952Y-133438333D01*
X180343333Y-133390714D01*
X180295714Y-133295476D01*
X180295714Y-133200238D01*
X180962380Y-132724047D02*
X180914761Y-132819285D01*
X180867142Y-132866904D01*
X180771904Y-132914523D01*
X180486190Y-132914523D01*
X180390952Y-132866904D01*
X180343333Y-132819285D01*
X180295714Y-132724047D01*
X180295714Y-132581190D01*
X180343333Y-132485952D01*
X180390952Y-132438333D01*
X180486190Y-132390714D01*
X180771904Y-132390714D01*
X180867142Y-132438333D01*
X180914761Y-132485952D01*
X180962380Y-132581190D01*
X180962380Y-132724047D01*
X180295714Y-131533571D02*
X181105238Y-131533571D01*
X181200476Y-131581190D01*
X181248095Y-131628809D01*
X181295714Y-131724047D01*
X181295714Y-131866904D01*
X181248095Y-131962142D01*
X180914761Y-131533571D02*
X180962380Y-131628809D01*
X180962380Y-131819285D01*
X180914761Y-131914523D01*
X180867142Y-131962142D01*
X180771904Y-132009761D01*
X180486190Y-132009761D01*
X180390952Y-131962142D01*
X180343333Y-131914523D01*
X180295714Y-131819285D01*
X180295714Y-131628809D01*
X180343333Y-131533571D01*
X180962380Y-131057380D02*
X180295714Y-131057380D01*
X180486190Y-131057380D02*
X180390952Y-131009761D01*
X180343333Y-130962142D01*
X180295714Y-130866904D01*
X180295714Y-130771666D01*
X180962380Y-130009761D02*
X180438571Y-130009761D01*
X180343333Y-130057380D01*
X180295714Y-130152619D01*
X180295714Y-130343095D01*
X180343333Y-130438333D01*
X180914761Y-130009761D02*
X180962380Y-130105000D01*
X180962380Y-130343095D01*
X180914761Y-130438333D01*
X180819523Y-130485952D01*
X180724285Y-130485952D01*
X180629047Y-130438333D01*
X180581428Y-130343095D01*
X180581428Y-130105000D01*
X180533809Y-130009761D01*
X180962380Y-129533571D02*
X180295714Y-129533571D01*
X180390952Y-129533571D02*
X180343333Y-129485952D01*
X180295714Y-129390714D01*
X180295714Y-129247857D01*
X180343333Y-129152619D01*
X180438571Y-129105000D01*
X180962380Y-129105000D01*
X180438571Y-129105000D02*
X180343333Y-129057380D01*
X180295714Y-128962142D01*
X180295714Y-128819285D01*
X180343333Y-128724047D01*
X180438571Y-128676428D01*
X180962380Y-128676428D01*
X180962380Y-128200238D02*
X180295714Y-128200238D01*
X180390952Y-128200238D02*
X180343333Y-128152619D01*
X180295714Y-128057380D01*
X180295714Y-127914523D01*
X180343333Y-127819285D01*
X180438571Y-127771666D01*
X180962380Y-127771666D01*
X180438571Y-127771666D02*
X180343333Y-127724047D01*
X180295714Y-127628809D01*
X180295714Y-127485952D01*
X180343333Y-127390714D01*
X180438571Y-127343095D01*
X180962380Y-127343095D01*
X180962380Y-126866904D02*
X180295714Y-126866904D01*
X179962380Y-126866904D02*
X180010000Y-126914523D01*
X180057619Y-126866904D01*
X180010000Y-126819285D01*
X179962380Y-126866904D01*
X180057619Y-126866904D01*
X180295714Y-126390714D02*
X180962380Y-126390714D01*
X180390952Y-126390714D02*
X180343333Y-126343095D01*
X180295714Y-126247857D01*
X180295714Y-126105000D01*
X180343333Y-126009761D01*
X180438571Y-125962142D01*
X180962380Y-125962142D01*
X180295714Y-125057380D02*
X181105238Y-125057380D01*
X181200476Y-125105000D01*
X181248095Y-125152619D01*
X181295714Y-125247857D01*
X181295714Y-125390714D01*
X181248095Y-125485952D01*
X180914761Y-125057380D02*
X180962380Y-125152619D01*
X180962380Y-125343095D01*
X180914761Y-125438333D01*
X180867142Y-125485952D01*
X180771904Y-125533571D01*
X180486190Y-125533571D01*
X180390952Y-125485952D01*
X180343333Y-125438333D01*
X180295714Y-125343095D01*
X180295714Y-125152619D01*
X180343333Y-125057380D01*
X138390380Y-143978380D02*
X138580857Y-143978380D01*
X138676095Y-144026000D01*
X138771333Y-144121238D01*
X138818952Y-144311714D01*
X138818952Y-144645047D01*
X138771333Y-144835523D01*
X138676095Y-144930761D01*
X138580857Y-144978380D01*
X138390380Y-144978380D01*
X138295142Y-144930761D01*
X138199904Y-144835523D01*
X138152285Y-144645047D01*
X138152285Y-144311714D01*
X138199904Y-144121238D01*
X138295142Y-144026000D01*
X138390380Y-143978380D01*
X139247523Y-144454571D02*
X139580857Y-144454571D01*
X139723714Y-144978380D02*
X139247523Y-144978380D01*
X139247523Y-143978380D01*
X139723714Y-143978380D01*
X100750714Y-135214047D02*
X101417380Y-135214047D01*
X100750714Y-135642619D02*
X101274523Y-135642619D01*
X101369761Y-135595000D01*
X101417380Y-135499761D01*
X101417380Y-135356904D01*
X101369761Y-135261666D01*
X101322142Y-135214047D01*
X101369761Y-134785476D02*
X101417380Y-134690238D01*
X101417380Y-134499761D01*
X101369761Y-134404523D01*
X101274523Y-134356904D01*
X101226904Y-134356904D01*
X101131666Y-134404523D01*
X101084047Y-134499761D01*
X101084047Y-134642619D01*
X101036428Y-134737857D01*
X100941190Y-134785476D01*
X100893571Y-134785476D01*
X100798333Y-134737857D01*
X100750714Y-134642619D01*
X100750714Y-134499761D01*
X100798333Y-134404523D01*
X101369761Y-133547380D02*
X101417380Y-133642619D01*
X101417380Y-133833095D01*
X101369761Y-133928333D01*
X101274523Y-133975952D01*
X100893571Y-133975952D01*
X100798333Y-133928333D01*
X100750714Y-133833095D01*
X100750714Y-133642619D01*
X100798333Y-133547380D01*
X100893571Y-133499761D01*
X100988809Y-133499761D01*
X101084047Y-133975952D01*
X100512619Y-132356904D02*
X100465000Y-132309285D01*
X100417380Y-132214047D01*
X100417380Y-131975952D01*
X100465000Y-131880714D01*
X100512619Y-131833095D01*
X100607857Y-131785476D01*
X100703095Y-131785476D01*
X100845952Y-131833095D01*
X101417380Y-132404523D01*
X101417380Y-131785476D01*
X100845952Y-131214047D02*
X100798333Y-131309285D01*
X100750714Y-131356904D01*
X100655476Y-131404523D01*
X100607857Y-131404523D01*
X100512619Y-131356904D01*
X100465000Y-131309285D01*
X100417380Y-131214047D01*
X100417380Y-131023571D01*
X100465000Y-130928333D01*
X100512619Y-130880714D01*
X100607857Y-130833095D01*
X100655476Y-130833095D01*
X100750714Y-130880714D01*
X100798333Y-130928333D01*
X100845952Y-131023571D01*
X100845952Y-131214047D01*
X100893571Y-131309285D01*
X100941190Y-131356904D01*
X101036428Y-131404523D01*
X101226904Y-131404523D01*
X101322142Y-131356904D01*
X101369761Y-131309285D01*
X101417380Y-131214047D01*
X101417380Y-131023571D01*
X101369761Y-130928333D01*
X101322142Y-130880714D01*
X101226904Y-130833095D01*
X101036428Y-130833095D01*
X100941190Y-130880714D01*
X100893571Y-130928333D01*
X100845952Y-131023571D01*
X101322142Y-129833095D02*
X101369761Y-129880714D01*
X101417380Y-130023571D01*
X101417380Y-130118809D01*
X101369761Y-130261666D01*
X101274523Y-130356904D01*
X101179285Y-130404523D01*
X100988809Y-130452142D01*
X100845952Y-130452142D01*
X100655476Y-130404523D01*
X100560238Y-130356904D01*
X100465000Y-130261666D01*
X100417380Y-130118809D01*
X100417380Y-130023571D01*
X100465000Y-129880714D01*
X100512619Y-129833095D01*
X101417380Y-128880714D02*
X101417380Y-129452142D01*
X101417380Y-129166428D02*
X100417380Y-129166428D01*
X100560238Y-129261666D01*
X100655476Y-129356904D01*
X100703095Y-129452142D01*
X100417380Y-128023571D02*
X100417380Y-128214047D01*
X100465000Y-128309285D01*
X100512619Y-128356904D01*
X100655476Y-128452142D01*
X100845952Y-128499761D01*
X101226904Y-128499761D01*
X101322142Y-128452142D01*
X101369761Y-128404523D01*
X101417380Y-128309285D01*
X101417380Y-128118809D01*
X101369761Y-128023571D01*
X101322142Y-127975952D01*
X101226904Y-127928333D01*
X100988809Y-127928333D01*
X100893571Y-127975952D01*
X100845952Y-128023571D01*
X100798333Y-128118809D01*
X100798333Y-128309285D01*
X100845952Y-128404523D01*
X100893571Y-128452142D01*
X100988809Y-128499761D01*
X100750714Y-126880714D02*
X100750714Y-126499761D01*
X101417380Y-126737857D02*
X100560238Y-126737857D01*
X100465000Y-126690238D01*
X100417380Y-126595000D01*
X100417380Y-126499761D01*
X101417380Y-126023571D02*
X101369761Y-126118809D01*
X101322142Y-126166428D01*
X101226904Y-126214047D01*
X100941190Y-126214047D01*
X100845952Y-126166428D01*
X100798333Y-126118809D01*
X100750714Y-126023571D01*
X100750714Y-125880714D01*
X100798333Y-125785476D01*
X100845952Y-125737857D01*
X100941190Y-125690238D01*
X101226904Y-125690238D01*
X101322142Y-125737857D01*
X101369761Y-125785476D01*
X101417380Y-125880714D01*
X101417380Y-126023571D01*
X101417380Y-125261666D02*
X100750714Y-125261666D01*
X100941190Y-125261666D02*
X100845952Y-125214047D01*
X100798333Y-125166428D01*
X100750714Y-125071190D01*
X100750714Y-124975952D01*
X100750714Y-123880714D02*
X101750714Y-123880714D01*
X100798333Y-123880714D02*
X100750714Y-123785476D01*
X100750714Y-123595000D01*
X100798333Y-123499761D01*
X100845952Y-123452142D01*
X100941190Y-123404523D01*
X101226904Y-123404523D01*
X101322142Y-123452142D01*
X101369761Y-123499761D01*
X101417380Y-123595000D01*
X101417380Y-123785476D01*
X101369761Y-123880714D01*
X101417380Y-122975952D02*
X100750714Y-122975952D01*
X100941190Y-122975952D02*
X100845952Y-122928333D01*
X100798333Y-122880714D01*
X100750714Y-122785476D01*
X100750714Y-122690238D01*
X101417380Y-122214047D02*
X101369761Y-122309285D01*
X101322142Y-122356904D01*
X101226904Y-122404523D01*
X100941190Y-122404523D01*
X100845952Y-122356904D01*
X100798333Y-122309285D01*
X100750714Y-122214047D01*
X100750714Y-122071190D01*
X100798333Y-121975952D01*
X100845952Y-121928333D01*
X100941190Y-121880714D01*
X101226904Y-121880714D01*
X101322142Y-121928333D01*
X101369761Y-121975952D01*
X101417380Y-122071190D01*
X101417380Y-122214047D01*
X100750714Y-121023571D02*
X101560238Y-121023571D01*
X101655476Y-121071190D01*
X101703095Y-121118809D01*
X101750714Y-121214047D01*
X101750714Y-121356904D01*
X101703095Y-121452142D01*
X101369761Y-121023571D02*
X101417380Y-121118809D01*
X101417380Y-121309285D01*
X101369761Y-121404523D01*
X101322142Y-121452142D01*
X101226904Y-121499761D01*
X100941190Y-121499761D01*
X100845952Y-121452142D01*
X100798333Y-121404523D01*
X100750714Y-121309285D01*
X100750714Y-121118809D01*
X100798333Y-121023571D01*
X101417380Y-120547380D02*
X100750714Y-120547380D01*
X100941190Y-120547380D02*
X100845952Y-120499761D01*
X100798333Y-120452142D01*
X100750714Y-120356904D01*
X100750714Y-120261666D01*
X101417380Y-119499761D02*
X100893571Y-119499761D01*
X100798333Y-119547380D01*
X100750714Y-119642619D01*
X100750714Y-119833095D01*
X100798333Y-119928333D01*
X101369761Y-119499761D02*
X101417380Y-119595000D01*
X101417380Y-119833095D01*
X101369761Y-119928333D01*
X101274523Y-119975952D01*
X101179285Y-119975952D01*
X101084047Y-119928333D01*
X101036428Y-119833095D01*
X101036428Y-119595000D01*
X100988809Y-119499761D01*
X101417380Y-119023571D02*
X100750714Y-119023571D01*
X100845952Y-119023571D02*
X100798333Y-118975952D01*
X100750714Y-118880714D01*
X100750714Y-118737857D01*
X100798333Y-118642619D01*
X100893571Y-118595000D01*
X101417380Y-118595000D01*
X100893571Y-118595000D02*
X100798333Y-118547380D01*
X100750714Y-118452142D01*
X100750714Y-118309285D01*
X100798333Y-118214047D01*
X100893571Y-118166428D01*
X101417380Y-118166428D01*
X101417380Y-117690238D02*
X100750714Y-117690238D01*
X100845952Y-117690238D02*
X100798333Y-117642619D01*
X100750714Y-117547380D01*
X100750714Y-117404523D01*
X100798333Y-117309285D01*
X100893571Y-117261666D01*
X101417380Y-117261666D01*
X100893571Y-117261666D02*
X100798333Y-117214047D01*
X100750714Y-117118809D01*
X100750714Y-116975952D01*
X100798333Y-116880714D01*
X100893571Y-116833095D01*
X101417380Y-116833095D01*
X101417380Y-116356904D02*
X100750714Y-116356904D01*
X100417380Y-116356904D02*
X100465000Y-116404523D01*
X100512619Y-116356904D01*
X100465000Y-116309285D01*
X100417380Y-116356904D01*
X100512619Y-116356904D01*
X100750714Y-115880714D02*
X101417380Y-115880714D01*
X100845952Y-115880714D02*
X100798333Y-115833095D01*
X100750714Y-115737857D01*
X100750714Y-115595000D01*
X100798333Y-115499761D01*
X100893571Y-115452142D01*
X101417380Y-115452142D01*
X100750714Y-114547380D02*
X101560238Y-114547380D01*
X101655476Y-114595000D01*
X101703095Y-114642619D01*
X101750714Y-114737857D01*
X101750714Y-114880714D01*
X101703095Y-114975952D01*
X101369761Y-114547380D02*
X101417380Y-114642619D01*
X101417380Y-114833095D01*
X101369761Y-114928333D01*
X101322142Y-114975952D01*
X101226904Y-115023571D01*
X100941190Y-115023571D01*
X100845952Y-114975952D01*
X100798333Y-114928333D01*
X100750714Y-114833095D01*
X100750714Y-114642619D01*
X100798333Y-114547380D01*
X130619714Y-147518380D02*
X130619714Y-146518380D01*
X131191142Y-147518380D01*
X131191142Y-146518380D01*
X131810190Y-147518380D02*
X131714952Y-147470761D01*
X131667333Y-147423142D01*
X131619714Y-147327904D01*
X131619714Y-147042190D01*
X131667333Y-146946952D01*
X131714952Y-146899333D01*
X131810190Y-146851714D01*
X131953047Y-146851714D01*
X132048285Y-146899333D01*
X132095904Y-146946952D01*
X132143523Y-147042190D01*
X132143523Y-147327904D01*
X132095904Y-147423142D01*
X132048285Y-147470761D01*
X131953047Y-147518380D01*
X131810190Y-147518380D01*
X132572095Y-147518380D02*
X132572095Y-146851714D01*
X132572095Y-147042190D02*
X132619714Y-146946952D01*
X132667333Y-146899333D01*
X132762571Y-146851714D01*
X132857809Y-146851714D01*
X133191142Y-147518380D02*
X133191142Y-146851714D01*
X133191142Y-146946952D02*
X133238761Y-146899333D01*
X133334000Y-146851714D01*
X133476857Y-146851714D01*
X133572095Y-146899333D01*
X133619714Y-146994571D01*
X133619714Y-147518380D01*
X133619714Y-146994571D02*
X133667333Y-146899333D01*
X133762571Y-146851714D01*
X133905428Y-146851714D01*
X134000666Y-146899333D01*
X134048285Y-146994571D01*
X134048285Y-147518380D01*
%TO.C,U1*%
X126249503Y-138384130D02*
X126297122Y-138336511D01*
X126392360Y-138288891D01*
X126630455Y-138288891D01*
X126725693Y-138336511D01*
X126773312Y-138384130D01*
X126820931Y-138479368D01*
X126820931Y-138574606D01*
X126773312Y-138717463D01*
X126201884Y-139288891D01*
X126820931Y-139288891D01*
X127154265Y-138288891D02*
X127820931Y-138288891D01*
X127392360Y-139288891D01*
X128725693Y-139288891D02*
X128154265Y-139288891D01*
X128439979Y-139288891D02*
X128439979Y-138288891D01*
X128344741Y-138431749D01*
X128249503Y-138526987D01*
X128154265Y-138574606D01*
X129582836Y-138288891D02*
X129392360Y-138288891D01*
X129297122Y-138336511D01*
X129249503Y-138384130D01*
X129154265Y-138526987D01*
X129106646Y-138717463D01*
X129106646Y-139098415D01*
X129154265Y-139193653D01*
X129201884Y-139241272D01*
X129297122Y-139288891D01*
X129487598Y-139288891D01*
X129582836Y-139241272D01*
X129630455Y-139193653D01*
X129678074Y-139098415D01*
X129678074Y-138860320D01*
X129630455Y-138765082D01*
X129582836Y-138717463D01*
X129487598Y-138669844D01*
X129297122Y-138669844D01*
X129201884Y-138717463D01*
X129154265Y-138765082D01*
X129106646Y-138860320D01*
%TO.C,U2*%
X161802380Y-164202666D02*
X161802380Y-163536000D01*
X162802380Y-163964571D01*
X162135714Y-162726476D02*
X162802380Y-162726476D01*
X161754761Y-162964571D02*
X162469047Y-163202666D01*
X162469047Y-162583619D01*
X162802380Y-162202666D02*
X161802380Y-162202666D01*
X162278571Y-162202666D02*
X162278571Y-161631238D01*
X162802380Y-161631238D02*
X161802380Y-161631238D01*
X162707142Y-160583619D02*
X162754761Y-160631238D01*
X162802380Y-160774095D01*
X162802380Y-160869333D01*
X162754761Y-161012190D01*
X162659523Y-161107428D01*
X162564285Y-161155047D01*
X162373809Y-161202666D01*
X162230952Y-161202666D01*
X162040476Y-161155047D01*
X161945238Y-161107428D01*
X161850000Y-161012190D01*
X161802380Y-160869333D01*
X161802380Y-160774095D01*
X161850000Y-160631238D01*
X161897619Y-160583619D01*
X161802380Y-160297904D02*
X161802380Y-159726476D01*
X162802380Y-160012190D02*
X161802380Y-160012190D01*
X161802380Y-159488380D02*
X161802380Y-158821714D01*
X162802380Y-159250285D01*
X162135714Y-158012190D02*
X162802380Y-158012190D01*
X161754761Y-158250285D02*
X162469047Y-158488380D01*
X162469047Y-157869333D01*
%TO.C,C1*%
X101703142Y-150534666D02*
X101750761Y-150582285D01*
X101798380Y-150725142D01*
X101798380Y-150820380D01*
X101750761Y-150963238D01*
X101655523Y-151058476D01*
X101560285Y-151106095D01*
X101369809Y-151153714D01*
X101226952Y-151153714D01*
X101036476Y-151106095D01*
X100941238Y-151058476D01*
X100846000Y-150963238D01*
X100798380Y-150820380D01*
X100798380Y-150725142D01*
X100846000Y-150582285D01*
X100893619Y-150534666D01*
X101798380Y-149582285D02*
X101798380Y-150153714D01*
X101798380Y-149868000D02*
X100798380Y-149868000D01*
X100941238Y-149963238D01*
X101036476Y-150058476D01*
X101084095Y-150153714D01*
X98378380Y-152010857D02*
X98378380Y-151915619D01*
X98426000Y-151820380D01*
X98473619Y-151772761D01*
X98568857Y-151725142D01*
X98759333Y-151677523D01*
X98997428Y-151677523D01*
X99187904Y-151725142D01*
X99283142Y-151772761D01*
X99330761Y-151820380D01*
X99378380Y-151915619D01*
X99378380Y-152010857D01*
X99330761Y-152106095D01*
X99283142Y-152153714D01*
X99187904Y-152201333D01*
X98997428Y-152248952D01*
X98759333Y-152248952D01*
X98568857Y-152201333D01*
X98473619Y-152153714D01*
X98426000Y-152106095D01*
X98378380Y-152010857D01*
X99283142Y-151248952D02*
X99330761Y-151201333D01*
X99378380Y-151248952D01*
X99330761Y-151296571D01*
X99283142Y-151248952D01*
X99378380Y-151248952D01*
X99378380Y-150248952D02*
X99378380Y-150820380D01*
X99378380Y-150534666D02*
X98378380Y-150534666D01*
X98521238Y-150629904D01*
X98616476Y-150725142D01*
X98664095Y-150820380D01*
X98711714Y-149391809D02*
X99378380Y-149391809D01*
X98711714Y-149820380D02*
X99235523Y-149820380D01*
X99330761Y-149772761D01*
X99378380Y-149677523D01*
X99378380Y-149534666D01*
X99330761Y-149439428D01*
X99283142Y-149391809D01*
X98854571Y-148582285D02*
X98854571Y-148915619D01*
X99378380Y-148915619D02*
X98378380Y-148915619D01*
X98378380Y-148439428D01*
%TO.C,C2*%
X145181333Y-97131142D02*
X145133714Y-97178761D01*
X144990857Y-97226380D01*
X144895619Y-97226380D01*
X144752761Y-97178761D01*
X144657523Y-97083523D01*
X144609904Y-96988285D01*
X144562285Y-96797809D01*
X144562285Y-96654952D01*
X144609904Y-96464476D01*
X144657523Y-96369238D01*
X144752761Y-96274000D01*
X144895619Y-96226380D01*
X144990857Y-96226380D01*
X145133714Y-96274000D01*
X145181333Y-96321619D01*
X145562285Y-96321619D02*
X145609904Y-96274000D01*
X145705142Y-96226380D01*
X145943238Y-96226380D01*
X146038476Y-96274000D01*
X146086095Y-96321619D01*
X146133714Y-96416857D01*
X146133714Y-96512095D01*
X146086095Y-96654952D01*
X145514666Y-97226380D01*
X146133714Y-97226380D01*
X143705142Y-93806380D02*
X143800380Y-93806380D01*
X143895619Y-93854000D01*
X143943238Y-93901619D01*
X143990857Y-93996857D01*
X144038476Y-94187333D01*
X144038476Y-94425428D01*
X143990857Y-94615904D01*
X143943238Y-94711142D01*
X143895619Y-94758761D01*
X143800380Y-94806380D01*
X143705142Y-94806380D01*
X143609904Y-94758761D01*
X143562285Y-94711142D01*
X143514666Y-94615904D01*
X143467047Y-94425428D01*
X143467047Y-94187333D01*
X143514666Y-93996857D01*
X143562285Y-93901619D01*
X143609904Y-93854000D01*
X143705142Y-93806380D01*
X144467047Y-94711142D02*
X144514666Y-94758761D01*
X144467047Y-94806380D01*
X144419428Y-94758761D01*
X144467047Y-94711142D01*
X144467047Y-94806380D01*
X145467047Y-94806380D02*
X144895619Y-94806380D01*
X145181333Y-94806380D02*
X145181333Y-93806380D01*
X145086095Y-93949238D01*
X144990857Y-94044476D01*
X144895619Y-94092095D01*
X146324190Y-94139714D02*
X146324190Y-94806380D01*
X145895619Y-94139714D02*
X145895619Y-94663523D01*
X145943238Y-94758761D01*
X146038476Y-94806380D01*
X146181333Y-94806380D01*
X146276571Y-94758761D01*
X146324190Y-94711142D01*
X147133714Y-94282571D02*
X146800380Y-94282571D01*
X146800380Y-94806380D02*
X146800380Y-93806380D01*
X147276571Y-93806380D01*
%TO.C,U4*%
X124225380Y-154000857D02*
X124225380Y-153334190D01*
X125225380Y-153762761D01*
X124558714Y-152524666D02*
X125225380Y-152524666D01*
X124177761Y-152762761D02*
X124892047Y-153000857D01*
X124892047Y-152381809D01*
X125225380Y-152000857D02*
X124225380Y-152000857D01*
X124701571Y-152000857D02*
X124701571Y-151429428D01*
X125225380Y-151429428D02*
X124225380Y-151429428D01*
X125130142Y-150381809D02*
X125177761Y-150429428D01*
X125225380Y-150572285D01*
X125225380Y-150667523D01*
X125177761Y-150810380D01*
X125082523Y-150905619D01*
X124987285Y-150953238D01*
X124796809Y-151000857D01*
X124653952Y-151000857D01*
X124463476Y-150953238D01*
X124368238Y-150905619D01*
X124273000Y-150810380D01*
X124225380Y-150667523D01*
X124225380Y-150572285D01*
X124273000Y-150429428D01*
X124320619Y-150381809D01*
X124225380Y-150096095D02*
X124225380Y-149524666D01*
X125225380Y-149810380D02*
X124225380Y-149810380D01*
X125225380Y-148667523D02*
X125225380Y-149238952D01*
X125225380Y-148953238D02*
X124225380Y-148953238D01*
X124368238Y-149048476D01*
X124463476Y-149143714D01*
X124511095Y-149238952D01*
X124225380Y-148334190D02*
X124225380Y-147715142D01*
X124606333Y-148048476D01*
X124606333Y-147905619D01*
X124653952Y-147810380D01*
X124701571Y-147762761D01*
X124796809Y-147715142D01*
X125034904Y-147715142D01*
X125130142Y-147762761D01*
X125177761Y-147810380D01*
X125225380Y-147905619D01*
X125225380Y-148191333D01*
X125177761Y-148286571D01*
X125130142Y-148334190D01*
X124653952Y-147143714D02*
X124606333Y-147238952D01*
X124558714Y-147286571D01*
X124463476Y-147334190D01*
X124415857Y-147334190D01*
X124320619Y-147286571D01*
X124273000Y-147238952D01*
X124225380Y-147143714D01*
X124225380Y-146953238D01*
X124273000Y-146858000D01*
X124320619Y-146810380D01*
X124415857Y-146762761D01*
X124463476Y-146762761D01*
X124558714Y-146810380D01*
X124606333Y-146858000D01*
X124653952Y-146953238D01*
X124653952Y-147143714D01*
X124701571Y-147238952D01*
X124749190Y-147286571D01*
X124844428Y-147334190D01*
X125034904Y-147334190D01*
X125130142Y-147286571D01*
X125177761Y-147238952D01*
X125225380Y-147143714D01*
X125225380Y-146953238D01*
X125177761Y-146858000D01*
X125130142Y-146810380D01*
X125034904Y-146762761D01*
X124844428Y-146762761D01*
X124749190Y-146810380D01*
X124701571Y-146858000D01*
X124653952Y-146953238D01*
%TO.C,U3*%
X136905380Y-164922857D02*
X136905380Y-164256190D01*
X137905380Y-164684761D01*
X137238714Y-163446666D02*
X137905380Y-163446666D01*
X136857761Y-163684761D02*
X137572047Y-163922857D01*
X137572047Y-163303809D01*
X137905380Y-162922857D02*
X136905380Y-162922857D01*
X137381571Y-162922857D02*
X137381571Y-162351428D01*
X137905380Y-162351428D02*
X136905380Y-162351428D01*
X137810142Y-161303809D02*
X137857761Y-161351428D01*
X137905380Y-161494285D01*
X137905380Y-161589523D01*
X137857761Y-161732380D01*
X137762523Y-161827619D01*
X137667285Y-161875238D01*
X137476809Y-161922857D01*
X137333952Y-161922857D01*
X137143476Y-161875238D01*
X137048238Y-161827619D01*
X136953000Y-161732380D01*
X136905380Y-161589523D01*
X136905380Y-161494285D01*
X136953000Y-161351428D01*
X137000619Y-161303809D01*
X136905380Y-161018095D02*
X136905380Y-160446666D01*
X137905380Y-160732380D02*
X136905380Y-160732380D01*
X137905380Y-159589523D02*
X137905380Y-160160952D01*
X137905380Y-159875238D02*
X136905380Y-159875238D01*
X137048238Y-159970476D01*
X137143476Y-160065714D01*
X137191095Y-160160952D01*
X137000619Y-159208571D02*
X136953000Y-159160952D01*
X136905380Y-159065714D01*
X136905380Y-158827619D01*
X136953000Y-158732380D01*
X137000619Y-158684761D01*
X137095857Y-158637142D01*
X137191095Y-158637142D01*
X137333952Y-158684761D01*
X137905380Y-159256190D01*
X137905380Y-158637142D01*
X136905380Y-157732380D02*
X136905380Y-158208571D01*
X137381571Y-158256190D01*
X137333952Y-158208571D01*
X137286333Y-158113333D01*
X137286333Y-157875238D01*
X137333952Y-157780000D01*
X137381571Y-157732380D01*
X137476809Y-157684761D01*
X137714904Y-157684761D01*
X137810142Y-157732380D01*
X137857761Y-157780000D01*
X137905380Y-157875238D01*
X137905380Y-158113333D01*
X137857761Y-158208571D01*
X137810142Y-158256190D01*
%TO.C,C3*%
X140057142Y-161202666D02*
X140104761Y-161250285D01*
X140152380Y-161393142D01*
X140152380Y-161488380D01*
X140104761Y-161631238D01*
X140009523Y-161726476D01*
X139914285Y-161774095D01*
X139723809Y-161821714D01*
X139580952Y-161821714D01*
X139390476Y-161774095D01*
X139295238Y-161726476D01*
X139200000Y-161631238D01*
X139152380Y-161488380D01*
X139152380Y-161393142D01*
X139200000Y-161250285D01*
X139247619Y-161202666D01*
X139152380Y-160869333D02*
X139152380Y-160250285D01*
X139533333Y-160583619D01*
X139533333Y-160440761D01*
X139580952Y-160345523D01*
X139628571Y-160297904D01*
X139723809Y-160250285D01*
X139961904Y-160250285D01*
X140057142Y-160297904D01*
X140104761Y-160345523D01*
X140152380Y-160440761D01*
X140152380Y-160726476D01*
X140104761Y-160821714D01*
X140057142Y-160869333D01*
X141438380Y-165726857D02*
X141438380Y-165631619D01*
X141486000Y-165536380D01*
X141533619Y-165488761D01*
X141628857Y-165441142D01*
X141819333Y-165393523D01*
X142057428Y-165393523D01*
X142247904Y-165441142D01*
X142343142Y-165488761D01*
X142390761Y-165536380D01*
X142438380Y-165631619D01*
X142438380Y-165726857D01*
X142390761Y-165822095D01*
X142343142Y-165869714D01*
X142247904Y-165917333D01*
X142057428Y-165964952D01*
X141819333Y-165964952D01*
X141628857Y-165917333D01*
X141533619Y-165869714D01*
X141486000Y-165822095D01*
X141438380Y-165726857D01*
X142343142Y-164964952D02*
X142390761Y-164917333D01*
X142438380Y-164964952D01*
X142390761Y-165012571D01*
X142343142Y-164964952D01*
X142438380Y-164964952D01*
X142438380Y-163964952D02*
X142438380Y-164536380D01*
X142438380Y-164250666D02*
X141438380Y-164250666D01*
X141581238Y-164345904D01*
X141676476Y-164441142D01*
X141724095Y-164536380D01*
X141771714Y-163107809D02*
X142438380Y-163107809D01*
X141771714Y-163536380D02*
X142295523Y-163536380D01*
X142390761Y-163488761D01*
X142438380Y-163393523D01*
X142438380Y-163250666D01*
X142390761Y-163155428D01*
X142343142Y-163107809D01*
X141914571Y-162298285D02*
X141914571Y-162631619D01*
X142438380Y-162631619D02*
X141438380Y-162631619D01*
X141438380Y-162155428D01*
%TO.C,Q1*%
X173307714Y-128427619D02*
X173355333Y-128380000D01*
X173450571Y-128332380D01*
X173688666Y-128332380D01*
X173783904Y-128380000D01*
X173831523Y-128427619D01*
X173879142Y-128522857D01*
X173879142Y-128618095D01*
X173831523Y-128760952D01*
X173260095Y-129332380D01*
X173879142Y-129332380D01*
X174307714Y-129332380D02*
X174307714Y-128332380D01*
X174879142Y-129332380D01*
X174879142Y-128332380D01*
X175260095Y-128332380D02*
X175926761Y-128332380D01*
X175498190Y-129332380D01*
X176498190Y-128332380D02*
X176593428Y-128332380D01*
X176688666Y-128380000D01*
X176736285Y-128427619D01*
X176783904Y-128522857D01*
X176831523Y-128713333D01*
X176831523Y-128951428D01*
X176783904Y-129141904D01*
X176736285Y-129237142D01*
X176688666Y-129284761D01*
X176593428Y-129332380D01*
X176498190Y-129332380D01*
X176402952Y-129284761D01*
X176355333Y-129237142D01*
X176307714Y-129141904D01*
X176260095Y-128951428D01*
X176260095Y-128713333D01*
X176307714Y-128522857D01*
X176355333Y-128427619D01*
X176402952Y-128380000D01*
X176498190Y-128332380D01*
X177450571Y-128332380D02*
X177545809Y-128332380D01*
X177641047Y-128380000D01*
X177688666Y-128427619D01*
X177736285Y-128522857D01*
X177783904Y-128713333D01*
X177783904Y-128951428D01*
X177736285Y-129141904D01*
X177688666Y-129237142D01*
X177641047Y-129284761D01*
X177545809Y-129332380D01*
X177450571Y-129332380D01*
X177355333Y-129284761D01*
X177307714Y-129237142D01*
X177260095Y-129141904D01*
X177212476Y-128951428D01*
X177212476Y-128713333D01*
X177260095Y-128522857D01*
X177307714Y-128427619D01*
X177355333Y-128380000D01*
X177450571Y-128332380D01*
X178402952Y-128332380D02*
X178498190Y-128332380D01*
X178593428Y-128380000D01*
X178641047Y-128427619D01*
X178688666Y-128522857D01*
X178736285Y-128713333D01*
X178736285Y-128951428D01*
X178688666Y-129141904D01*
X178641047Y-129237142D01*
X178593428Y-129284761D01*
X178498190Y-129332380D01*
X178402952Y-129332380D01*
X178307714Y-129284761D01*
X178260095Y-129237142D01*
X178212476Y-129141904D01*
X178164857Y-128951428D01*
X178164857Y-128713333D01*
X178212476Y-128522857D01*
X178260095Y-128427619D01*
X178307714Y-128380000D01*
X178402952Y-128332380D01*
%TO.C,A1*%
X155049904Y-137072666D02*
X155526095Y-137072666D01*
X154954666Y-137358380D02*
X155288000Y-136358380D01*
X155621333Y-137358380D01*
X155954666Y-137358380D02*
X155954666Y-136691714D01*
X155954666Y-136882190D02*
X156002285Y-136786952D01*
X156049904Y-136739333D01*
X156145142Y-136691714D01*
X156240380Y-136691714D01*
X157002285Y-137358380D02*
X157002285Y-136358380D01*
X157002285Y-137310761D02*
X156907047Y-137358380D01*
X156716571Y-137358380D01*
X156621333Y-137310761D01*
X156573714Y-137263142D01*
X156526095Y-137167904D01*
X156526095Y-136882190D01*
X156573714Y-136786952D01*
X156621333Y-136739333D01*
X156716571Y-136691714D01*
X156907047Y-136691714D01*
X157002285Y-136739333D01*
X157907047Y-136691714D02*
X157907047Y-137358380D01*
X157478476Y-136691714D02*
X157478476Y-137215523D01*
X157526095Y-137310761D01*
X157621333Y-137358380D01*
X157764190Y-137358380D01*
X157859428Y-137310761D01*
X157907047Y-137263142D01*
X158383238Y-137358380D02*
X158383238Y-136691714D01*
X158383238Y-136358380D02*
X158335619Y-136406000D01*
X158383238Y-136453619D01*
X158430857Y-136406000D01*
X158383238Y-136358380D01*
X158383238Y-136453619D01*
X158859428Y-136691714D02*
X158859428Y-137358380D01*
X158859428Y-136786952D02*
X158907047Y-136739333D01*
X159002285Y-136691714D01*
X159145142Y-136691714D01*
X159240380Y-136739333D01*
X159288000Y-136834571D01*
X159288000Y-137358380D01*
X159907047Y-137358380D02*
X159811809Y-137310761D01*
X159764190Y-137263142D01*
X159716571Y-137167904D01*
X159716571Y-136882190D01*
X159764190Y-136786952D01*
X159811809Y-136739333D01*
X159907047Y-136691714D01*
X160049904Y-136691714D01*
X160145142Y-136739333D01*
X160192761Y-136786952D01*
X160240380Y-136882190D01*
X160240380Y-137167904D01*
X160192761Y-137263142D01*
X160145142Y-137310761D01*
X160049904Y-137358380D01*
X159907047Y-137358380D01*
X160430857Y-137453619D02*
X161192761Y-137453619D01*
X161430857Y-137358380D02*
X161430857Y-136358380D01*
X162002285Y-137358380D01*
X162002285Y-136358380D01*
X162907047Y-137358380D02*
X162907047Y-136834571D01*
X162859428Y-136739333D01*
X162764190Y-136691714D01*
X162573714Y-136691714D01*
X162478476Y-136739333D01*
X162907047Y-137310761D02*
X162811809Y-137358380D01*
X162573714Y-137358380D01*
X162478476Y-137310761D01*
X162430857Y-137215523D01*
X162430857Y-137120285D01*
X162478476Y-137025047D01*
X162573714Y-136977428D01*
X162811809Y-136977428D01*
X162907047Y-136929809D01*
X163383238Y-136691714D02*
X163383238Y-137358380D01*
X163383238Y-136786952D02*
X163430857Y-136739333D01*
X163526095Y-136691714D01*
X163668952Y-136691714D01*
X163764190Y-136739333D01*
X163811809Y-136834571D01*
X163811809Y-137358380D01*
X164430857Y-137358380D02*
X164335619Y-137310761D01*
X164288000Y-137263142D01*
X164240380Y-137167904D01*
X164240380Y-136882190D01*
X164288000Y-136786952D01*
X164335619Y-136739333D01*
X164430857Y-136691714D01*
X164573714Y-136691714D01*
X164668952Y-136739333D01*
X164716571Y-136786952D01*
X164764190Y-136882190D01*
X164764190Y-137167904D01*
X164716571Y-137263142D01*
X164668952Y-137310761D01*
X164573714Y-137358380D01*
X164430857Y-137358380D01*
X164954666Y-137453619D02*
X165716571Y-137453619D01*
X165859428Y-136691714D02*
X166097523Y-137358380D01*
X166335619Y-136691714D01*
X166621333Y-136358380D02*
X167240380Y-136358380D01*
X166907047Y-136739333D01*
X167049904Y-136739333D01*
X167145142Y-136786952D01*
X167192761Y-136834571D01*
X167240380Y-136929809D01*
X167240380Y-137167904D01*
X167192761Y-137263142D01*
X167145142Y-137310761D01*
X167049904Y-137358380D01*
X166764190Y-137358380D01*
X166668952Y-137310761D01*
X166621333Y-137263142D01*
X167668952Y-137263142D02*
X167716571Y-137310761D01*
X167668952Y-137358380D01*
X167621333Y-137310761D01*
X167668952Y-137263142D01*
X167668952Y-137358380D01*
X168049904Y-137358380D02*
X168573714Y-136691714D01*
X168049904Y-136691714D02*
X168573714Y-137358380D01*
%TO.C,D7*%
X125149666Y-140004409D02*
X125149666Y-139528218D01*
X125435380Y-140099647D02*
X124435380Y-139766314D01*
X125435380Y-139432980D01*
%TO.C,R1*%
X175807714Y-106904571D02*
X176474380Y-106904571D01*
X175426761Y-107142666D02*
X176141047Y-107380761D01*
X176141047Y-106761714D01*
X176379142Y-106380761D02*
X176426761Y-106333142D01*
X176474380Y-106380761D01*
X176426761Y-106428380D01*
X176379142Y-106380761D01*
X176474380Y-106380761D01*
X175474380Y-105999809D02*
X175474380Y-105333142D01*
X176474380Y-105761714D01*
X176474380Y-104952190D02*
X175474380Y-104952190D01*
X176093428Y-104856952D02*
X176474380Y-104571238D01*
X175807714Y-104571238D02*
X176188666Y-104952190D01*
%TO.C,D3*%
X112449666Y-140004409D02*
X112449666Y-139528218D01*
X112735380Y-140099647D02*
X111735380Y-139766314D01*
X112735380Y-139432980D01*
%TO.C,C5*%
X165031142Y-161384666D02*
X165078761Y-161432285D01*
X165126380Y-161575142D01*
X165126380Y-161670380D01*
X165078761Y-161813238D01*
X164983523Y-161908476D01*
X164888285Y-161956095D01*
X164697809Y-162003714D01*
X164554952Y-162003714D01*
X164364476Y-161956095D01*
X164269238Y-161908476D01*
X164174000Y-161813238D01*
X164126380Y-161670380D01*
X164126380Y-161575142D01*
X164174000Y-161432285D01*
X164221619Y-161384666D01*
X164126380Y-160479904D02*
X164126380Y-160956095D01*
X164602571Y-161003714D01*
X164554952Y-160956095D01*
X164507333Y-160860857D01*
X164507333Y-160622761D01*
X164554952Y-160527523D01*
X164602571Y-160479904D01*
X164697809Y-160432285D01*
X164935904Y-160432285D01*
X165031142Y-160479904D01*
X165078761Y-160527523D01*
X165126380Y-160622761D01*
X165126380Y-160860857D01*
X165078761Y-160956095D01*
X165031142Y-161003714D01*
X166330380Y-162678857D02*
X166330380Y-162583619D01*
X166378000Y-162488380D01*
X166425619Y-162440761D01*
X166520857Y-162393142D01*
X166711333Y-162345523D01*
X166949428Y-162345523D01*
X167139904Y-162393142D01*
X167235142Y-162440761D01*
X167282761Y-162488380D01*
X167330380Y-162583619D01*
X167330380Y-162678857D01*
X167282761Y-162774095D01*
X167235142Y-162821714D01*
X167139904Y-162869333D01*
X166949428Y-162916952D01*
X166711333Y-162916952D01*
X166520857Y-162869333D01*
X166425619Y-162821714D01*
X166378000Y-162774095D01*
X166330380Y-162678857D01*
X167235142Y-161916952D02*
X167282761Y-161869333D01*
X167330380Y-161916952D01*
X167282761Y-161964571D01*
X167235142Y-161916952D01*
X167330380Y-161916952D01*
X167330380Y-160916952D02*
X167330380Y-161488380D01*
X167330380Y-161202666D02*
X166330380Y-161202666D01*
X166473238Y-161297904D01*
X166568476Y-161393142D01*
X166616095Y-161488380D01*
X166663714Y-160059809D02*
X167330380Y-160059809D01*
X166663714Y-160488380D02*
X167187523Y-160488380D01*
X167282761Y-160440761D01*
X167330380Y-160345523D01*
X167330380Y-160202666D01*
X167282761Y-160107428D01*
X167235142Y-160059809D01*
X166806571Y-159250285D02*
X166806571Y-159583619D01*
X167330380Y-159583619D02*
X166330380Y-159583619D01*
X166330380Y-159107428D01*
%TO.C,R3*%
X124066380Y-102452047D02*
X124066380Y-103023476D01*
X124066380Y-102737761D02*
X123066380Y-102737761D01*
X123209238Y-102833000D01*
X123304476Y-102928238D01*
X123352095Y-103023476D01*
X124066380Y-102023476D02*
X123066380Y-102023476D01*
X123685428Y-101928238D02*
X124066380Y-101642523D01*
X123399714Y-101642523D02*
X123780666Y-102023476D01*
%TO.C,U6*%
X140542142Y-136342380D02*
X140542142Y-135342380D01*
X140875476Y-136056666D01*
X141208809Y-135342380D01*
X141208809Y-136342380D01*
X142256428Y-136247142D02*
X142208809Y-136294761D01*
X142065952Y-136342380D01*
X141970714Y-136342380D01*
X141827857Y-136294761D01*
X141732619Y-136199523D01*
X141685000Y-136104285D01*
X141637380Y-135913809D01*
X141637380Y-135770952D01*
X141685000Y-135580476D01*
X141732619Y-135485238D01*
X141827857Y-135390000D01*
X141970714Y-135342380D01*
X142065952Y-135342380D01*
X142208809Y-135390000D01*
X142256428Y-135437619D01*
X142685000Y-136342380D02*
X142685000Y-135342380D01*
X143065952Y-135342380D01*
X143161190Y-135390000D01*
X143208809Y-135437619D01*
X143256428Y-135532857D01*
X143256428Y-135675714D01*
X143208809Y-135770952D01*
X143161190Y-135818571D01*
X143065952Y-135866190D01*
X142685000Y-135866190D01*
X143637380Y-135437619D02*
X143685000Y-135390000D01*
X143780238Y-135342380D01*
X144018333Y-135342380D01*
X144113571Y-135390000D01*
X144161190Y-135437619D01*
X144208809Y-135532857D01*
X144208809Y-135628095D01*
X144161190Y-135770952D01*
X143589761Y-136342380D01*
X144208809Y-136342380D01*
X144542142Y-135342380D02*
X145161190Y-135342380D01*
X144827857Y-135723333D01*
X144970714Y-135723333D01*
X145065952Y-135770952D01*
X145113571Y-135818571D01*
X145161190Y-135913809D01*
X145161190Y-136151904D01*
X145113571Y-136247142D01*
X145065952Y-136294761D01*
X144970714Y-136342380D01*
X144685000Y-136342380D01*
X144589761Y-136294761D01*
X144542142Y-136247142D01*
X145780238Y-135342380D02*
X145875476Y-135342380D01*
X145970714Y-135390000D01*
X146018333Y-135437619D01*
X146065952Y-135532857D01*
X146113571Y-135723333D01*
X146113571Y-135961428D01*
X146065952Y-136151904D01*
X146018333Y-136247142D01*
X145970714Y-136294761D01*
X145875476Y-136342380D01*
X145780238Y-136342380D01*
X145685000Y-136294761D01*
X145637380Y-136247142D01*
X145589761Y-136151904D01*
X145542142Y-135961428D01*
X145542142Y-135723333D01*
X145589761Y-135532857D01*
X145637380Y-135437619D01*
X145685000Y-135390000D01*
X145780238Y-135342380D01*
X147065952Y-136342380D02*
X146494523Y-136342380D01*
X146780238Y-136342380D02*
X146780238Y-135342380D01*
X146685000Y-135485238D01*
X146589761Y-135580476D01*
X146494523Y-135628095D01*
X147637380Y-135770952D02*
X147542142Y-135723333D01*
X147494523Y-135675714D01*
X147446904Y-135580476D01*
X147446904Y-135532857D01*
X147494523Y-135437619D01*
X147542142Y-135390000D01*
X147637380Y-135342380D01*
X147827857Y-135342380D01*
X147923095Y-135390000D01*
X147970714Y-135437619D01*
X148018333Y-135532857D01*
X148018333Y-135580476D01*
X147970714Y-135675714D01*
X147923095Y-135723333D01*
X147827857Y-135770952D01*
X147637380Y-135770952D01*
X147542142Y-135818571D01*
X147494523Y-135866190D01*
X147446904Y-135961428D01*
X147446904Y-136151904D01*
X147494523Y-136247142D01*
X147542142Y-136294761D01*
X147637380Y-136342380D01*
X147827857Y-136342380D01*
X147923095Y-136294761D01*
X147970714Y-136247142D01*
X148018333Y-136151904D01*
X148018333Y-135961428D01*
X147970714Y-135866190D01*
X147923095Y-135818571D01*
X147827857Y-135770952D01*
X148446904Y-135961428D02*
X149208809Y-135961428D01*
X149685000Y-135818571D02*
X150018333Y-135818571D01*
X150161190Y-136342380D02*
X149685000Y-136342380D01*
X149685000Y-135342380D01*
X150161190Y-135342380D01*
X150351666Y-136437619D02*
X151113571Y-136437619D01*
X151304047Y-136294761D02*
X151446904Y-136342380D01*
X151685000Y-136342380D01*
X151780238Y-136294761D01*
X151827857Y-136247142D01*
X151875476Y-136151904D01*
X151875476Y-136056666D01*
X151827857Y-135961428D01*
X151780238Y-135913809D01*
X151685000Y-135866190D01*
X151494523Y-135818571D01*
X151399285Y-135770952D01*
X151351666Y-135723333D01*
X151304047Y-135628095D01*
X151304047Y-135532857D01*
X151351666Y-135437619D01*
X151399285Y-135390000D01*
X151494523Y-135342380D01*
X151732619Y-135342380D01*
X151875476Y-135390000D01*
X152304047Y-136342380D02*
X152304047Y-135342380D01*
X152685000Y-135342380D01*
X152780238Y-135390000D01*
X152827857Y-135437619D01*
X152875476Y-135532857D01*
X152875476Y-135675714D01*
X152827857Y-135770952D01*
X152780238Y-135818571D01*
X152685000Y-135866190D01*
X152304047Y-135866190D01*
%TO.C,R4*%
X174410761Y-133548380D02*
X173839333Y-133548380D01*
X174125047Y-133548380D02*
X174125047Y-132548380D01*
X174029809Y-132691238D01*
X173934571Y-132786476D01*
X173839333Y-132834095D01*
X175029809Y-132548380D02*
X175125047Y-132548380D01*
X175220285Y-132596000D01*
X175267904Y-132643619D01*
X175315523Y-132738857D01*
X175363142Y-132929333D01*
X175363142Y-133167428D01*
X175315523Y-133357904D01*
X175267904Y-133453142D01*
X175220285Y-133500761D01*
X175125047Y-133548380D01*
X175029809Y-133548380D01*
X174934571Y-133500761D01*
X174886952Y-133453142D01*
X174839333Y-133357904D01*
X174791714Y-133167428D01*
X174791714Y-132929333D01*
X174839333Y-132738857D01*
X174886952Y-132643619D01*
X174934571Y-132596000D01*
X175029809Y-132548380D01*
X175791714Y-133548380D02*
X175791714Y-132548380D01*
X175886952Y-133167428D02*
X176172666Y-133548380D01*
X176172666Y-132881714D02*
X175791714Y-133262666D01*
%TO.C,D2*%
X109909666Y-140004409D02*
X109909666Y-139528218D01*
X110195380Y-140099647D02*
X109195380Y-139766314D01*
X110195380Y-139432980D01*
%TO.C,C6*%
X126373142Y-166736780D02*
X126468380Y-166736780D01*
X126563619Y-166784400D01*
X126611238Y-166832019D01*
X126658857Y-166927257D01*
X126706476Y-167117733D01*
X126706476Y-167355828D01*
X126658857Y-167546304D01*
X126611238Y-167641542D01*
X126563619Y-167689161D01*
X126468380Y-167736780D01*
X126373142Y-167736780D01*
X126277904Y-167689161D01*
X126230285Y-167641542D01*
X126182666Y-167546304D01*
X126135047Y-167355828D01*
X126135047Y-167117733D01*
X126182666Y-166927257D01*
X126230285Y-166832019D01*
X126277904Y-166784400D01*
X126373142Y-166736780D01*
X127135047Y-167641542D02*
X127182666Y-167689161D01*
X127135047Y-167736780D01*
X127087428Y-167689161D01*
X127135047Y-167641542D01*
X127135047Y-167736780D01*
X128135047Y-167736780D02*
X127563619Y-167736780D01*
X127849333Y-167736780D02*
X127849333Y-166736780D01*
X127754095Y-166879638D01*
X127658857Y-166974876D01*
X127563619Y-167022495D01*
X128992190Y-167070114D02*
X128992190Y-167736780D01*
X128563619Y-167070114D02*
X128563619Y-167593923D01*
X128611238Y-167689161D01*
X128706476Y-167736780D01*
X128849333Y-167736780D01*
X128944571Y-167689161D01*
X128992190Y-167641542D01*
X129801714Y-167212971D02*
X129468380Y-167212971D01*
X129468380Y-167736780D02*
X129468380Y-166736780D01*
X129944571Y-166736780D01*
%TO.C,R5*%
X141506380Y-105018238D02*
X141506380Y-105589666D01*
X141506380Y-105303952D02*
X140506380Y-105303952D01*
X140649238Y-105399190D01*
X140744476Y-105494428D01*
X140792095Y-105589666D01*
X140506380Y-104399190D02*
X140506380Y-104303952D01*
X140554000Y-104208714D01*
X140601619Y-104161095D01*
X140696857Y-104113476D01*
X140887333Y-104065857D01*
X141125428Y-104065857D01*
X141315904Y-104113476D01*
X141411142Y-104161095D01*
X141458761Y-104208714D01*
X141506380Y-104303952D01*
X141506380Y-104399190D01*
X141458761Y-104494428D01*
X141411142Y-104542047D01*
X141315904Y-104589666D01*
X141125428Y-104637285D01*
X140887333Y-104637285D01*
X140696857Y-104589666D01*
X140601619Y-104542047D01*
X140554000Y-104494428D01*
X140506380Y-104399190D01*
X141506380Y-103637285D02*
X140506380Y-103637285D01*
X141125428Y-103542047D02*
X141506380Y-103256333D01*
X140839714Y-103256333D02*
X141220666Y-103637285D01*
%TO.C,J4*%
X104862380Y-137174476D02*
X104862380Y-136603047D01*
X105862380Y-136888761D02*
X104862380Y-136888761D01*
X105862380Y-135841142D02*
X105338571Y-135841142D01*
X105243333Y-135888761D01*
X105195714Y-135984000D01*
X105195714Y-136174476D01*
X105243333Y-136269714D01*
X105814761Y-135841142D02*
X105862380Y-135936380D01*
X105862380Y-136174476D01*
X105814761Y-136269714D01*
X105719523Y-136317333D01*
X105624285Y-136317333D01*
X105529047Y-136269714D01*
X105481428Y-136174476D01*
X105481428Y-135936380D01*
X105433809Y-135841142D01*
X105862380Y-135364952D02*
X105195714Y-135364952D01*
X105386190Y-135364952D02*
X105290952Y-135317333D01*
X105243333Y-135269714D01*
X105195714Y-135174476D01*
X105195714Y-135079238D01*
X105195714Y-134317333D02*
X106005238Y-134317333D01*
X106100476Y-134364952D01*
X106148095Y-134412571D01*
X106195714Y-134507809D01*
X106195714Y-134650666D01*
X106148095Y-134745904D01*
X105814761Y-134317333D02*
X105862380Y-134412571D01*
X105862380Y-134603047D01*
X105814761Y-134698285D01*
X105767142Y-134745904D01*
X105671904Y-134793523D01*
X105386190Y-134793523D01*
X105290952Y-134745904D01*
X105243333Y-134698285D01*
X105195714Y-134603047D01*
X105195714Y-134412571D01*
X105243333Y-134317333D01*
X105814761Y-133460190D02*
X105862380Y-133555428D01*
X105862380Y-133745904D01*
X105814761Y-133841142D01*
X105719523Y-133888761D01*
X105338571Y-133888761D01*
X105243333Y-133841142D01*
X105195714Y-133745904D01*
X105195714Y-133555428D01*
X105243333Y-133460190D01*
X105338571Y-133412571D01*
X105433809Y-133412571D01*
X105529047Y-133888761D01*
X105195714Y-133126857D02*
X105195714Y-132745904D01*
X104862380Y-132984000D02*
X105719523Y-132984000D01*
X105814761Y-132936380D01*
X105862380Y-132841142D01*
X105862380Y-132745904D01*
X105862380Y-131650666D02*
X104862380Y-131650666D01*
X105195714Y-131174476D02*
X105862380Y-131174476D01*
X105290952Y-131174476D02*
X105243333Y-131126857D01*
X105195714Y-131031619D01*
X105195714Y-130888761D01*
X105243333Y-130793523D01*
X105338571Y-130745904D01*
X105862380Y-130745904D01*
X105195714Y-130412571D02*
X105195714Y-130031619D01*
X104862380Y-130269714D02*
X105719523Y-130269714D01*
X105814761Y-130222095D01*
X105862380Y-130126857D01*
X105862380Y-130031619D01*
X105814761Y-129317333D02*
X105862380Y-129412571D01*
X105862380Y-129603047D01*
X105814761Y-129698285D01*
X105719523Y-129745904D01*
X105338571Y-129745904D01*
X105243333Y-129698285D01*
X105195714Y-129603047D01*
X105195714Y-129412571D01*
X105243333Y-129317333D01*
X105338571Y-129269714D01*
X105433809Y-129269714D01*
X105529047Y-129745904D01*
X105862380Y-128841142D02*
X105195714Y-128841142D01*
X105386190Y-128841142D02*
X105290952Y-128793523D01*
X105243333Y-128745904D01*
X105195714Y-128650666D01*
X105195714Y-128555428D01*
X105195714Y-128364952D02*
X105195714Y-127984000D01*
X105862380Y-128222095D02*
X105005238Y-128222095D01*
X104910000Y-128174476D01*
X104862380Y-128079238D01*
X104862380Y-127984000D01*
X105862380Y-127222095D02*
X105338571Y-127222095D01*
X105243333Y-127269714D01*
X105195714Y-127364952D01*
X105195714Y-127555428D01*
X105243333Y-127650666D01*
X105814761Y-127222095D02*
X105862380Y-127317333D01*
X105862380Y-127555428D01*
X105814761Y-127650666D01*
X105719523Y-127698285D01*
X105624285Y-127698285D01*
X105529047Y-127650666D01*
X105481428Y-127555428D01*
X105481428Y-127317333D01*
X105433809Y-127222095D01*
X105814761Y-126317333D02*
X105862380Y-126412571D01*
X105862380Y-126603047D01*
X105814761Y-126698285D01*
X105767142Y-126745904D01*
X105671904Y-126793523D01*
X105386190Y-126793523D01*
X105290952Y-126745904D01*
X105243333Y-126698285D01*
X105195714Y-126603047D01*
X105195714Y-126412571D01*
X105243333Y-126317333D01*
X105814761Y-125507809D02*
X105862380Y-125603047D01*
X105862380Y-125793523D01*
X105814761Y-125888761D01*
X105719523Y-125936380D01*
X105338571Y-125936380D01*
X105243333Y-125888761D01*
X105195714Y-125793523D01*
X105195714Y-125603047D01*
X105243333Y-125507809D01*
X105338571Y-125460190D01*
X105433809Y-125460190D01*
X105529047Y-125936380D01*
X105814761Y-124984000D02*
X105862380Y-124984000D01*
X105957619Y-125031619D01*
X106005238Y-125079238D01*
X104957619Y-123841142D02*
X104910000Y-123793523D01*
X104862380Y-123698285D01*
X104862380Y-123460190D01*
X104910000Y-123364952D01*
X104957619Y-123317333D01*
X105052857Y-123269714D01*
X105148095Y-123269714D01*
X105290952Y-123317333D01*
X105862380Y-123888761D01*
X105862380Y-123269714D01*
X104862380Y-122936380D02*
X104862380Y-122269714D01*
X105862380Y-122698285D01*
X105862380Y-121364952D02*
X105862380Y-121936380D01*
X105862380Y-121650666D02*
X104862380Y-121650666D01*
X105005238Y-121745904D01*
X105100476Y-121841142D01*
X105148095Y-121936380D01*
X104862380Y-120507809D02*
X104862380Y-120698285D01*
X104910000Y-120793523D01*
X104957619Y-120841142D01*
X105100476Y-120936380D01*
X105290952Y-120984000D01*
X105671904Y-120984000D01*
X105767142Y-120936380D01*
X105814761Y-120888761D01*
X105862380Y-120793523D01*
X105862380Y-120603047D01*
X105814761Y-120507809D01*
X105767142Y-120460190D01*
X105671904Y-120412571D01*
X105433809Y-120412571D01*
X105338571Y-120460190D01*
X105290952Y-120507809D01*
X105243333Y-120603047D01*
X105243333Y-120793523D01*
X105290952Y-120888761D01*
X105338571Y-120936380D01*
X105433809Y-120984000D01*
X105862380Y-119222095D02*
X104862380Y-119222095D01*
X104862380Y-118841142D01*
X104910000Y-118745904D01*
X104957619Y-118698285D01*
X105052857Y-118650666D01*
X105195714Y-118650666D01*
X105290952Y-118698285D01*
X105338571Y-118745904D01*
X105386190Y-118841142D01*
X105386190Y-119222095D01*
X105862380Y-118222095D02*
X105195714Y-118222095D01*
X104862380Y-118222095D02*
X104910000Y-118269714D01*
X104957619Y-118222095D01*
X104910000Y-118174476D01*
X104862380Y-118222095D01*
X104957619Y-118222095D01*
X105195714Y-117745904D02*
X105862380Y-117745904D01*
X105290952Y-117745904D02*
X105243333Y-117698285D01*
X105195714Y-117603047D01*
X105195714Y-117460190D01*
X105243333Y-117364952D01*
X105338571Y-117317333D01*
X105862380Y-117317333D01*
X105862380Y-116698285D02*
X105814761Y-116793523D01*
X105767142Y-116841142D01*
X105671904Y-116888761D01*
X105386190Y-116888761D01*
X105290952Y-116841142D01*
X105243333Y-116793523D01*
X105195714Y-116698285D01*
X105195714Y-116555428D01*
X105243333Y-116460190D01*
X105290952Y-116412571D01*
X105386190Y-116364952D01*
X105671904Y-116364952D01*
X105767142Y-116412571D01*
X105814761Y-116460190D01*
X105862380Y-116555428D01*
X105862380Y-116698285D01*
X105195714Y-115507809D02*
X105862380Y-115507809D01*
X105195714Y-115936380D02*
X105719523Y-115936380D01*
X105814761Y-115888761D01*
X105862380Y-115793523D01*
X105862380Y-115650666D01*
X105814761Y-115555428D01*
X105767142Y-115507809D01*
X105195714Y-115174476D02*
X105195714Y-114793523D01*
X104862380Y-115031619D02*
X105719523Y-115031619D01*
X105814761Y-114984000D01*
X105862380Y-114888761D01*
X105862380Y-114793523D01*
%TO.C,D9*%
X134488180Y-97232695D02*
X133488180Y-97232695D01*
X133488180Y-96994600D01*
X133535800Y-96851742D01*
X133631038Y-96756504D01*
X133726276Y-96708885D01*
X133916752Y-96661266D01*
X134059609Y-96661266D01*
X134250085Y-96708885D01*
X134345323Y-96756504D01*
X134440561Y-96851742D01*
X134488180Y-96994600D01*
X134488180Y-97232695D01*
X134488180Y-96185076D02*
X134488180Y-95994600D01*
X134440561Y-95899361D01*
X134392942Y-95851742D01*
X134250085Y-95756504D01*
X134059609Y-95708885D01*
X133678657Y-95708885D01*
X133583419Y-95756504D01*
X133535800Y-95804123D01*
X133488180Y-95899361D01*
X133488180Y-96089838D01*
X133535800Y-96185076D01*
X133583419Y-96232695D01*
X133678657Y-96280314D01*
X133916752Y-96280314D01*
X134011990Y-96232695D01*
X134059609Y-96185076D01*
X134107228Y-96089838D01*
X134107228Y-95899361D01*
X134059609Y-95804123D01*
X134011990Y-95756504D01*
X133916752Y-95708885D01*
X135802666Y-96491861D02*
X135802666Y-96015670D01*
X136088380Y-96587099D02*
X135088380Y-96253766D01*
X136088380Y-95920432D01*
%TO.C,D1*%
X107369666Y-140004409D02*
X107369666Y-139528218D01*
X107655380Y-140099647D02*
X106655380Y-139766314D01*
X107655380Y-139432980D01*
%TO.C,R2*%
X140322380Y-140581047D02*
X140322380Y-141152476D01*
X140322380Y-140866761D02*
X139322380Y-140866761D01*
X139465238Y-140962000D01*
X139560476Y-141057238D01*
X139608095Y-141152476D01*
X140322380Y-140152476D02*
X139322380Y-140152476D01*
X139941428Y-140057238D02*
X140322380Y-139771523D01*
X139655714Y-139771523D02*
X140036666Y-140152476D01*
%TO.C,U5*%
X161555180Y-151969457D02*
X161555180Y-151302790D01*
X162555180Y-151731361D01*
X161888514Y-150493266D02*
X162555180Y-150493266D01*
X161507561Y-150731361D02*
X162221847Y-150969457D01*
X162221847Y-150350409D01*
X162555180Y-149493266D02*
X162555180Y-149969457D01*
X161555180Y-149969457D01*
X162507561Y-149207552D02*
X162555180Y-149064695D01*
X162555180Y-148826600D01*
X162507561Y-148731361D01*
X162459942Y-148683742D01*
X162364704Y-148636123D01*
X162269466Y-148636123D01*
X162174228Y-148683742D01*
X162126609Y-148731361D01*
X162078990Y-148826600D01*
X162031371Y-149017076D01*
X161983752Y-149112314D01*
X161936133Y-149159933D01*
X161840895Y-149207552D01*
X161745657Y-149207552D01*
X161650419Y-149159933D01*
X161602800Y-149112314D01*
X161555180Y-149017076D01*
X161555180Y-148778980D01*
X161602800Y-148636123D01*
X161555180Y-148017076D02*
X161555180Y-147921838D01*
X161602800Y-147826600D01*
X161650419Y-147778980D01*
X161745657Y-147731361D01*
X161936133Y-147683742D01*
X162174228Y-147683742D01*
X162364704Y-147731361D01*
X162459942Y-147778980D01*
X162507561Y-147826600D01*
X162555180Y-147921838D01*
X162555180Y-148017076D01*
X162507561Y-148112314D01*
X162459942Y-148159933D01*
X162364704Y-148207552D01*
X162174228Y-148255171D01*
X161936133Y-148255171D01*
X161745657Y-148207552D01*
X161650419Y-148159933D01*
X161602800Y-148112314D01*
X161555180Y-148017076D01*
X161888514Y-146826600D02*
X162555180Y-146826600D01*
X161507561Y-147064695D02*
X162221847Y-147302790D01*
X162221847Y-146683742D01*
%TO.C,D6*%
X122609666Y-140004409D02*
X122609666Y-139528218D01*
X122895380Y-140099647D02*
X121895380Y-139766314D01*
X122895380Y-139432980D01*
%TO.C,C4*%
X164695142Y-149518666D02*
X164742761Y-149566285D01*
X164790380Y-149709142D01*
X164790380Y-149804380D01*
X164742761Y-149947238D01*
X164647523Y-150042476D01*
X164552285Y-150090095D01*
X164361809Y-150137714D01*
X164218952Y-150137714D01*
X164028476Y-150090095D01*
X163933238Y-150042476D01*
X163838000Y-149947238D01*
X163790380Y-149804380D01*
X163790380Y-149709142D01*
X163838000Y-149566285D01*
X163885619Y-149518666D01*
X164123714Y-148661523D02*
X164790380Y-148661523D01*
X163742761Y-148899619D02*
X164457047Y-149137714D01*
X164457047Y-148518666D01*
X166330380Y-150994857D02*
X166330380Y-150899619D01*
X166378000Y-150804380D01*
X166425619Y-150756761D01*
X166520857Y-150709142D01*
X166711333Y-150661523D01*
X166949428Y-150661523D01*
X167139904Y-150709142D01*
X167235142Y-150756761D01*
X167282761Y-150804380D01*
X167330380Y-150899619D01*
X167330380Y-150994857D01*
X167282761Y-151090095D01*
X167235142Y-151137714D01*
X167139904Y-151185333D01*
X166949428Y-151232952D01*
X166711333Y-151232952D01*
X166520857Y-151185333D01*
X166425619Y-151137714D01*
X166378000Y-151090095D01*
X166330380Y-150994857D01*
X167235142Y-150232952D02*
X167282761Y-150185333D01*
X167330380Y-150232952D01*
X167282761Y-150280571D01*
X167235142Y-150232952D01*
X167330380Y-150232952D01*
X167330380Y-149232952D02*
X167330380Y-149804380D01*
X167330380Y-149518666D02*
X166330380Y-149518666D01*
X166473238Y-149613904D01*
X166568476Y-149709142D01*
X166616095Y-149804380D01*
X166663714Y-148375809D02*
X167330380Y-148375809D01*
X166663714Y-148804380D02*
X167187523Y-148804380D01*
X167282761Y-148756761D01*
X167330380Y-148661523D01*
X167330380Y-148518666D01*
X167282761Y-148423428D01*
X167235142Y-148375809D01*
X166806571Y-147566285D02*
X166806571Y-147899619D01*
X167330380Y-147899619D02*
X166330380Y-147899619D01*
X166330380Y-147423428D01*
%TO.C,D8*%
X132786380Y-105843295D02*
X131786380Y-105843295D01*
X131786380Y-105605200D01*
X131834000Y-105462342D01*
X131929238Y-105367104D01*
X132024476Y-105319485D01*
X132214952Y-105271866D01*
X132357809Y-105271866D01*
X132548285Y-105319485D01*
X132643523Y-105367104D01*
X132738761Y-105462342D01*
X132786380Y-105605200D01*
X132786380Y-105843295D01*
X132214952Y-104700438D02*
X132167333Y-104795676D01*
X132119714Y-104843295D01*
X132024476Y-104890914D01*
X131976857Y-104890914D01*
X131881619Y-104843295D01*
X131834000Y-104795676D01*
X131786380Y-104700438D01*
X131786380Y-104509961D01*
X131834000Y-104414723D01*
X131881619Y-104367104D01*
X131976857Y-104319485D01*
X132024476Y-104319485D01*
X132119714Y-104367104D01*
X132167333Y-104414723D01*
X132214952Y-104509961D01*
X132214952Y-104700438D01*
X132262571Y-104795676D01*
X132310190Y-104843295D01*
X132405428Y-104890914D01*
X132595904Y-104890914D01*
X132691142Y-104843295D01*
X132738761Y-104795676D01*
X132786380Y-104700438D01*
X132786380Y-104509961D01*
X132738761Y-104414723D01*
X132691142Y-104367104D01*
X132595904Y-104319485D01*
X132405428Y-104319485D01*
X132310190Y-104367104D01*
X132262571Y-104414723D01*
X132214952Y-104509961D01*
X130722666Y-105660329D02*
X130722666Y-105184138D01*
X131008380Y-105755567D02*
X130008380Y-105422234D01*
X131008380Y-105088900D01*
%TO.C,D4*%
X114989666Y-140004409D02*
X114989666Y-139528218D01*
X115275380Y-140099647D02*
X114275380Y-139766314D01*
X115275380Y-139432980D01*
%TO.C,D5*%
X120069666Y-140004409D02*
X120069666Y-139528218D01*
X120355380Y-140099647D02*
X119355380Y-139766314D01*
X120355380Y-139432980D01*
D11*
%TO.C,U1*%
X136913789Y-137896511D02*
X136913789Y-107176511D01*
X119013789Y-107176511D02*
X119013789Y-137896511D01*
X126963789Y-107236511D02*
X121503789Y-107236511D01*
X121503789Y-137836511D02*
X134423789Y-137836511D01*
X119013789Y-137896511D02*
X136913789Y-137896511D01*
X121503789Y-107236511D02*
X121503789Y-137836511D01*
X134423789Y-137836511D02*
X134423789Y-107236511D01*
X134423789Y-107236511D02*
X128963789Y-107236511D01*
X136913789Y-107176511D02*
X119013789Y-107176511D01*
X126963789Y-107236511D02*
G75*
G03*
X128963789Y-107236511I1000000J0D01*
G01*
%TO.C,U2*%
X161350000Y-163686000D02*
X161350000Y-158386000D01*
X143450000Y-163686000D02*
X161350000Y-163686000D01*
X143450000Y-158386000D02*
X143450000Y-160036000D01*
X143450000Y-162036000D02*
X143450000Y-163686000D01*
X161350000Y-158386000D02*
X143450000Y-158386000D01*
X143450000Y-162036000D02*
G75*
G03*
X143450000Y-160036000I0J1000000D01*
G01*
%TO.C,C1*%
X99926000Y-148348000D02*
X99926000Y-152388000D01*
X101346000Y-153078000D02*
X101346000Y-152388000D01*
X99926000Y-152388000D02*
X102766000Y-152388000D01*
X102766000Y-148348000D02*
X99926000Y-148348000D01*
X101346000Y-147658000D02*
X101346000Y-148348000D01*
X102766000Y-152388000D02*
X102766000Y-148348000D01*
%TO.C,C2*%
X148058000Y-96774000D02*
X147368000Y-96774000D01*
X143328000Y-95354000D02*
X143328000Y-98194000D01*
X147368000Y-95354000D02*
X143328000Y-95354000D01*
X143328000Y-98194000D02*
X147368000Y-98194000D01*
X142638000Y-96774000D02*
X143328000Y-96774000D01*
X147368000Y-98194000D02*
X147368000Y-95354000D01*
%TO.C,U4*%
X103333000Y-153008000D02*
X123773000Y-153008000D01*
X123773000Y-153008000D02*
X123773000Y-147708000D01*
X103333000Y-151358000D02*
X103333000Y-153008000D01*
X123773000Y-147708000D02*
X103333000Y-147708000D01*
X103333000Y-147708000D02*
X103333000Y-149358000D01*
X103333000Y-151358000D02*
G75*
G03*
X103333000Y-149358000I0J1000000D01*
G01*
%TO.C,U3*%
X118553000Y-158630000D02*
X118553000Y-160280000D01*
X136453000Y-158630000D02*
X118553000Y-158630000D01*
X118553000Y-162280000D02*
X118553000Y-163930000D01*
X118553000Y-163930000D02*
X136453000Y-163930000D01*
X136453000Y-163930000D02*
X136453000Y-158630000D01*
X118553000Y-162280000D02*
G75*
G03*
X118553000Y-160280000I0J1000000D01*
G01*
%TO.C,C3*%
X139700000Y-163746000D02*
X139700000Y-163056000D01*
X141120000Y-163056000D02*
X141120000Y-159016000D01*
X141120000Y-159016000D02*
X138280000Y-159016000D01*
X138280000Y-159016000D02*
X138280000Y-163056000D01*
X139700000Y-158326000D02*
X139700000Y-159016000D01*
X138280000Y-163056000D02*
X141120000Y-163056000D01*
%TO.C,Q1*%
X174222000Y-127940000D02*
X177822000Y-127940000D01*
X177860478Y-127928478D02*
G75*
G03*
X176022000Y-123490000I-1838478J1838478D01*
G01*
X176022000Y-123489999D02*
G75*
G03*
X174183522Y-127928478I0J-2600001D01*
G01*
%TO.C,A1*%
X172078000Y-135766000D02*
X172078000Y-133096000D01*
X169408000Y-130556000D02*
X169408000Y-133096000D01*
X154038000Y-135766000D02*
X172078000Y-135766000D01*
X156708000Y-133096000D02*
X156708000Y-94996000D01*
X169408000Y-94996000D02*
X172078000Y-94996000D01*
X169408000Y-133096000D02*
X172078000Y-133096000D01*
X169408000Y-130556000D02*
X169408000Y-94996000D01*
X154038000Y-92326000D02*
X154038000Y-135766000D01*
X169408000Y-130556000D02*
X172078000Y-130556000D01*
X172078000Y-130556000D02*
X172078000Y-92326000D01*
X156708000Y-133096000D02*
X154038000Y-133096000D01*
X172078000Y-92326000D02*
X154038000Y-92326000D01*
X156708000Y-94996000D02*
X154038000Y-94996000D01*
%TO.C,J2*%
X173676000Y-113538000D02*
X173676000Y-121218000D01*
X176276000Y-110938000D02*
X178876000Y-110938000D01*
X173676000Y-110938000D02*
X175006000Y-110938000D01*
X173676000Y-112268000D02*
X173676000Y-110938000D01*
X176276000Y-113538000D02*
X176276000Y-110938000D01*
X173676000Y-113538000D02*
X176276000Y-113538000D01*
X178876000Y-110938000D02*
X178876000Y-121218000D01*
X173676000Y-121218000D02*
X178876000Y-121218000D01*
%TO.C,D7*%
X124983000Y-142779943D02*
X124983000Y-142666314D01*
X126309371Y-144106314D02*
G75*
G03*
X126309371Y-144106314I-1326371J0D01*
G01*
%TO.C,R1*%
X173990000Y-106355000D02*
X173990000Y-106285000D01*
X175360000Y-107725000D02*
G75*
G03*
X175360000Y-107725000I-1370000J0D01*
G01*
%TO.C,D3*%
X112283000Y-142779943D02*
X112283000Y-142666314D01*
X113609371Y-144106314D02*
G75*
G03*
X113609371Y-144106314I-1326371J0D01*
G01*
%TO.C,J3*%
X135068000Y-146812000D02*
X135068000Y-145482000D01*
X135068000Y-153222000D02*
X140268000Y-153222000D01*
X135068000Y-148082000D02*
X137668000Y-148082000D01*
X137668000Y-148082000D02*
X137668000Y-145482000D01*
X140268000Y-145482000D02*
X140268000Y-153222000D01*
X137668000Y-145482000D02*
X140268000Y-145482000D01*
X135068000Y-145482000D02*
X136398000Y-145482000D01*
X135068000Y-148082000D02*
X135068000Y-153222000D01*
%TO.C,C5*%
X164592000Y-163746000D02*
X164592000Y-163056000D01*
X163172000Y-159016000D02*
X163172000Y-163056000D01*
X166012000Y-163056000D02*
X166012000Y-159016000D01*
X166012000Y-159016000D02*
X163172000Y-159016000D01*
X164592000Y-158326000D02*
X164592000Y-159016000D01*
X163172000Y-163056000D02*
X166012000Y-163056000D01*
%TO.C,R3*%
X125984000Y-102433000D02*
X125984000Y-102503000D01*
X127354000Y-101063000D02*
G75*
G03*
X127354000Y-101063000I-1370000J0D01*
G01*
%TO.C,U6*%
X144368789Y-134539511D02*
X146018789Y-134539511D01*
X149668789Y-98859511D02*
X144368789Y-98859511D01*
X148018789Y-134539511D02*
X149668789Y-134539511D01*
X149668789Y-134539511D02*
X149668789Y-98859511D01*
X144368789Y-98859511D02*
X144368789Y-134539511D01*
X148018789Y-134539511D02*
G75*
G03*
X146018789Y-134539511I-1000000J0D01*
G01*
%TO.C,R4*%
X175443000Y-131318000D02*
X175373000Y-131318000D01*
X178183000Y-131318000D02*
G75*
G03*
X178183000Y-131318000I-1370000J0D01*
G01*
%TO.C,D2*%
X109743000Y-142779943D02*
X109743000Y-142666314D01*
X111069371Y-144106314D02*
G75*
G03*
X111069371Y-144106314I-1326371J0D01*
G01*
%TO.C,C6*%
X132193420Y-167028400D02*
X132474580Y-167028400D01*
X132193420Y-168048400D02*
X132474580Y-168048400D01*
%TO.C,R5*%
X138684000Y-104323000D02*
X138684000Y-104253000D01*
X140054000Y-105693000D02*
G75*
G03*
X140054000Y-105693000I-1370000J0D01*
G01*
%TO.C,J4*%
X107334789Y-109841511D02*
X109934789Y-109841511D01*
X109934789Y-109841511D02*
X109934789Y-107241511D01*
X112534789Y-107241511D02*
X112534789Y-137841511D01*
X109934789Y-107241511D02*
X112534789Y-107241511D01*
X107334789Y-107241511D02*
X108664789Y-107241511D01*
X107334789Y-137841511D02*
X112534789Y-137841511D01*
X107334789Y-108571511D02*
X107334789Y-107241511D01*
X107334789Y-109841511D02*
X107334789Y-137841511D01*
%TO.C,D9*%
X134536000Y-99582613D02*
G75*
G03*
X136803366Y-99642215I1100000J-1311153D01*
G01*
%TO.C,D1*%
X107203000Y-142779943D02*
X107203000Y-142666314D01*
X108529371Y-144106314D02*
G75*
G03*
X108529371Y-144106314I-1326371J0D01*
G01*
%TO.C,R2*%
X142240000Y-140562000D02*
X142240000Y-140632000D01*
X143610000Y-139192000D02*
G75*
G03*
X143610000Y-139192000I-1370000J0D01*
G01*
%TO.C,U5*%
X161345000Y-146692000D02*
X143445000Y-146692000D01*
X143445000Y-151992000D02*
X161345000Y-151992000D01*
X161345000Y-151992000D02*
X161345000Y-146692000D01*
X143445000Y-150342000D02*
X143445000Y-151992000D01*
X143445000Y-146692000D02*
X143445000Y-148342000D01*
X143445000Y-150342000D02*
G75*
G03*
X143445000Y-148342000I0J1000000D01*
G01*
%TO.C,D6*%
X122443000Y-142779943D02*
X122443000Y-142666314D01*
X123769371Y-144106314D02*
G75*
G03*
X123769371Y-144106314I-1326371J0D01*
G01*
%TO.C,C4*%
X165758000Y-147332000D02*
X162918000Y-147332000D01*
X162918000Y-147332000D02*
X162918000Y-151372000D01*
X164338000Y-146642000D02*
X164338000Y-147332000D01*
X164338000Y-152062000D02*
X164338000Y-151372000D01*
X162918000Y-151372000D02*
X165758000Y-151372000D01*
X165758000Y-151372000D02*
X165758000Y-147332000D01*
%TO.C,D8*%
X131656000Y-102093387D02*
G75*
G03*
X129388634Y-102033785I-1100000J1311153D01*
G01*
%TO.C,D4*%
X114823000Y-142779943D02*
X114823000Y-142666314D01*
X116149371Y-144106314D02*
G75*
G03*
X116149371Y-144106314I-1326371J0D01*
G01*
%TO.C,D5*%
X119903000Y-142779943D02*
X119903000Y-142666314D01*
X121229371Y-144106314D02*
G75*
G03*
X121229371Y-144106314I-1326371J0D01*
G01*
%TD*%
%LPC*%
D12*
%TO.C,U1*%
X120343789Y-108566511D03*
D13*
X120343789Y-111106511D03*
X120343789Y-113646511D03*
X120343789Y-116186511D03*
X120343789Y-118726511D03*
X120343789Y-121266511D03*
X120343789Y-123806511D03*
X120343789Y-126346511D03*
X120343789Y-128886511D03*
X120343789Y-131426511D03*
X120343789Y-133966511D03*
X120343789Y-136506511D03*
X135583789Y-136506511D03*
X135583789Y-133966511D03*
X135583789Y-131426511D03*
X135583789Y-128886511D03*
X135583789Y-126346511D03*
X135583789Y-123806511D03*
X135583789Y-121266511D03*
X135583789Y-118726511D03*
X135583789Y-116186511D03*
X135583789Y-113646511D03*
X135583789Y-111106511D03*
X135583789Y-108566511D03*
%TD*%
D12*
%TO.C,U2*%
X144780000Y-164846000D03*
D13*
X147320000Y-164846000D03*
X149860000Y-164846000D03*
X152400000Y-164846000D03*
X154940000Y-164846000D03*
X157480000Y-164846000D03*
X160020000Y-164846000D03*
X160020000Y-157226000D03*
X157480000Y-157226000D03*
X154940000Y-157226000D03*
X152400000Y-157226000D03*
X149860000Y-157226000D03*
X147320000Y-157226000D03*
X144780000Y-157226000D03*
%TD*%
D12*
%TO.C,J1*%
X117549789Y-108566511D03*
D13*
X117549789Y-111106511D03*
X117549789Y-113646511D03*
X117549789Y-116186511D03*
X117549789Y-118726511D03*
X117549789Y-121266511D03*
X117549789Y-123806511D03*
X117549789Y-126346511D03*
X117549789Y-128886511D03*
X117549789Y-131426511D03*
X117549789Y-133966511D03*
X117549789Y-136506511D03*
X132789789Y-136506511D03*
X132789789Y-133966511D03*
X132789789Y-131426511D03*
X132789789Y-128886511D03*
X132789789Y-126346511D03*
X132789789Y-123806511D03*
X132789789Y-121266511D03*
X132789789Y-118726511D03*
X132789789Y-116186511D03*
X132789789Y-113646511D03*
X132789789Y-111106511D03*
X132789789Y-108566511D03*
%TD*%
D14*
%TO.C,C1*%
X101346000Y-146618000D03*
D13*
X101346000Y-154118000D03*
%TD*%
D14*
%TO.C,C2*%
X149098000Y-96774000D03*
D13*
X141598000Y-96774000D03*
%TD*%
D12*
%TO.C,U4*%
X104663000Y-154168000D03*
D13*
X107203000Y-154168000D03*
X109743000Y-154168000D03*
X112283000Y-154168000D03*
X114823000Y-154168000D03*
X117363000Y-154168000D03*
X119903000Y-154168000D03*
X122443000Y-154168000D03*
X122443000Y-146548000D03*
X119903000Y-146548000D03*
X117363000Y-146548000D03*
X114823000Y-146548000D03*
X112283000Y-146548000D03*
X109743000Y-146548000D03*
X107203000Y-146548000D03*
X104663000Y-146548000D03*
%TD*%
D12*
%TO.C,U3*%
X119883000Y-165090000D03*
D13*
X122423000Y-165090000D03*
X124963000Y-165090000D03*
X127503000Y-165090000D03*
X130043000Y-165090000D03*
X132583000Y-165090000D03*
X135123000Y-165090000D03*
X135123000Y-157470000D03*
X132583000Y-157470000D03*
X130043000Y-157470000D03*
X127503000Y-157470000D03*
X124963000Y-157470000D03*
X122423000Y-157470000D03*
X119883000Y-157470000D03*
%TD*%
D14*
%TO.C,C3*%
X139700000Y-157286000D03*
D13*
X139700000Y-164786000D03*
%TD*%
D15*
%TO.C,Q1*%
X174752000Y-126090000D03*
D16*
X176022000Y-126090000D03*
X177292000Y-126090000D03*
%TD*%
D12*
%TO.C,A1*%
X170678000Y-131826000D03*
D13*
X170678000Y-129286000D03*
X170678000Y-126746000D03*
X170678000Y-124206000D03*
X170678000Y-121666000D03*
X170678000Y-119126000D03*
X170678000Y-116586000D03*
X170678000Y-114046000D03*
X170678000Y-111506000D03*
X170678000Y-108966000D03*
X170678000Y-106426000D03*
X170678000Y-103886000D03*
X170678000Y-101346000D03*
X170678000Y-98806000D03*
X170678000Y-96266000D03*
X155438000Y-96266000D03*
X155438000Y-98806000D03*
X155438000Y-101346000D03*
X155438000Y-103886000D03*
X155438000Y-106426000D03*
X155438000Y-108966000D03*
X155438000Y-111506000D03*
X155438000Y-114046000D03*
X155438000Y-116586000D03*
X155438000Y-119126000D03*
X155438000Y-121666000D03*
X155438000Y-124206000D03*
X155438000Y-126746000D03*
X155438000Y-129286000D03*
X155438000Y-131826000D03*
%TD*%
D17*
%TO.C,J2*%
X175006000Y-112268000D03*
D18*
X177546000Y-112268000D03*
X175006000Y-114808000D03*
X177546000Y-114808000D03*
X175006000Y-117348000D03*
X177546000Y-117348000D03*
X175006000Y-119888000D03*
X177546000Y-119888000D03*
%TD*%
D12*
%TO.C,D7*%
X124983000Y-144106314D03*
D13*
X124983000Y-141566314D03*
%TD*%
D14*
%TO.C,R1*%
X173990000Y-107725000D03*
D13*
X173990000Y-105185000D03*
%TD*%
D19*
%TO.C,REF\u002A\u002A*%
X101600000Y-95885000D03*
%TD*%
D12*
%TO.C,D3*%
X112283000Y-144106314D03*
D13*
X112283000Y-141566314D03*
%TD*%
D17*
%TO.C,J3*%
X136398000Y-146812000D03*
D18*
X138938000Y-146812000D03*
X136398000Y-149352000D03*
X138938000Y-149352000D03*
X136398000Y-151892000D03*
X138938000Y-151892000D03*
%TD*%
D14*
%TO.C,C5*%
X164592000Y-157286000D03*
D13*
X164592000Y-164786000D03*
%TD*%
D14*
%TO.C,R3*%
X125984000Y-101063000D03*
D13*
X125984000Y-103603000D03*
%TD*%
D19*
%TO.C,REF\u002A\u002A*%
X179705000Y-95885000D03*
%TD*%
D12*
%TO.C,U6*%
X150828789Y-133209511D03*
D13*
X150828789Y-130669511D03*
X150828789Y-128129511D03*
X150828789Y-125589511D03*
X150828789Y-123049511D03*
X150828789Y-120509511D03*
X150828789Y-117969511D03*
X150828789Y-115429511D03*
X150828789Y-112889511D03*
X150828789Y-110349511D03*
X150828789Y-107809511D03*
X150828789Y-105269511D03*
X150828789Y-102729511D03*
X150828789Y-100189511D03*
X143208789Y-100189511D03*
X143208789Y-102729511D03*
X143208789Y-105269511D03*
X143208789Y-107809511D03*
X143208789Y-110349511D03*
X143208789Y-112889511D03*
X143208789Y-115429511D03*
X143208789Y-117969511D03*
X143208789Y-120509511D03*
X143208789Y-123049511D03*
X143208789Y-125589511D03*
X143208789Y-128129511D03*
X143208789Y-130669511D03*
X143208789Y-133209511D03*
%TD*%
D14*
%TO.C,R4*%
X176813000Y-131318000D03*
D13*
X174273000Y-131318000D03*
%TD*%
D12*
%TO.C,D2*%
X109743000Y-144106314D03*
D13*
X109743000Y-141566314D03*
%TD*%
D20*
%TO.C,C6*%
X131559000Y-167538400D03*
X133109000Y-167538400D03*
%TD*%
D14*
%TO.C,R5*%
X138684000Y-105693000D03*
D13*
X138684000Y-103153000D03*
%TD*%
D17*
%TO.C,J4*%
X108664789Y-108571511D03*
D18*
X111204789Y-108571511D03*
X108664789Y-111111511D03*
X111204789Y-111111511D03*
X108664789Y-113651511D03*
X111204789Y-113651511D03*
X108664789Y-116191511D03*
X111204789Y-116191511D03*
X108664789Y-118731511D03*
X111204789Y-118731511D03*
X108664789Y-121271511D03*
X111204789Y-121271511D03*
X108664789Y-123811511D03*
X111204789Y-123811511D03*
X108664789Y-126351511D03*
X111204789Y-126351511D03*
X108664789Y-128891511D03*
X111204789Y-128891511D03*
X108664789Y-131431511D03*
X111204789Y-131431511D03*
X108664789Y-133971511D03*
X111204789Y-133971511D03*
X108664789Y-136511511D03*
X111204789Y-136511511D03*
%TD*%
D21*
%TO.C,D9*%
X135636000Y-100893766D03*
D22*
X135636000Y-98353766D03*
%TD*%
D12*
%TO.C,D1*%
X107203000Y-144106314D03*
D13*
X107203000Y-141566314D03*
%TD*%
D19*
%TO.C,REF\u002A\u002A*%
X101600000Y-165100000D03*
%TD*%
D14*
%TO.C,R2*%
X142240000Y-139192000D03*
D13*
X142240000Y-141732000D03*
%TD*%
D19*
%TO.C,REF\u002A\u002A*%
X179705000Y-165100000D03*
%TD*%
D12*
%TO.C,U5*%
X144775000Y-153152000D03*
D13*
X147315000Y-153152000D03*
X149855000Y-153152000D03*
X152395000Y-153152000D03*
X154935000Y-153152000D03*
X157475000Y-153152000D03*
X160015000Y-153152000D03*
X160015000Y-145532000D03*
X157475000Y-145532000D03*
X154935000Y-145532000D03*
X152395000Y-145532000D03*
X149855000Y-145532000D03*
X147315000Y-145532000D03*
X144775000Y-145532000D03*
%TD*%
D12*
%TO.C,D6*%
X122443000Y-144106314D03*
D13*
X122443000Y-141566314D03*
%TD*%
D14*
%TO.C,C4*%
X164338000Y-145602000D03*
D13*
X164338000Y-153102000D03*
%TD*%
D21*
%TO.C,D8*%
X130556000Y-100782234D03*
D22*
X130556000Y-103322234D03*
%TD*%
D12*
%TO.C,D4*%
X114823000Y-144106314D03*
D13*
X114823000Y-141566314D03*
%TD*%
D12*
%TO.C,D5*%
X119903000Y-144106314D03*
D13*
X119903000Y-141566314D03*
%TD*%
M02*
