G04 #@! TF.GenerationSoftware,KiCad,Pcbnew,(6.0.0)*
G04 #@! TF.CreationDate,2022-11-09T00:12:50-05:00*
G04 #@! TF.ProjectId,chip select multiplexer,63686970-2073-4656-9c65-6374206d756c,rev?*
G04 #@! TF.SameCoordinates,Original*
G04 #@! TF.FileFunction,Copper,L2,Bot*
G04 #@! TF.FilePolarity,Positive*
%FSLAX46Y46*%
G04 Gerber Fmt 4.6, Leading zero omitted, Abs format (unit mm)*
G04 Created by KiCad (PCBNEW (6.0.0)) date 2022-11-09 00:12:50*
%MOMM*%
%LPD*%
G01*
G04 APERTURE LIST*
G04 #@! TA.AperFunction,ComponentPad*
%ADD10R,1.700000X1.700000*%
G04 #@! TD*
G04 #@! TA.AperFunction,ComponentPad*
%ADD11O,1.700000X1.700000*%
G04 #@! TD*
G04 #@! TA.AperFunction,ComponentPad*
%ADD12R,1.600000X1.600000*%
G04 #@! TD*
G04 #@! TA.AperFunction,ComponentPad*
%ADD13O,1.600000X1.600000*%
G04 #@! TD*
G04 #@! TA.AperFunction,ComponentPad*
%ADD14C,1.600000*%
G04 #@! TD*
G04 #@! TA.AperFunction,Conductor*
%ADD15C,0.400000*%
G04 #@! TD*
G04 #@! TA.AperFunction,Conductor*
%ADD16C,0.250000*%
G04 #@! TD*
G04 APERTURE END LIST*
D10*
X127000000Y-81280000D03*
D11*
X127000000Y-83820000D03*
X127000000Y-86360000D03*
X127000000Y-88900000D03*
X127000000Y-91440000D03*
D10*
X132080000Y-81280000D03*
D11*
X132080000Y-83820000D03*
X132080000Y-86360000D03*
D10*
X129540000Y-93980000D03*
D11*
X129540000Y-91440000D03*
X129540000Y-88900000D03*
X129540000Y-86360000D03*
X129540000Y-83820000D03*
X129540000Y-81280000D03*
D10*
X132080000Y-93980000D03*
D12*
X137160000Y-81280000D03*
D13*
X137160000Y-83820000D03*
X137160000Y-86360000D03*
X137160000Y-88900000D03*
X137160000Y-91440000D03*
X137160000Y-93980000D03*
X137160000Y-96520000D03*
X137160000Y-99060000D03*
X144780000Y-99060000D03*
X144780000Y-96520000D03*
X144780000Y-93980000D03*
X144780000Y-91440000D03*
X144780000Y-88900000D03*
X144780000Y-86360000D03*
X144780000Y-83820000D03*
X144780000Y-81280000D03*
D14*
X144780000Y-76200000D03*
D13*
X137280000Y-76200000D03*
D10*
X132080000Y-76200000D03*
D11*
X129540000Y-76200000D03*
D10*
X149860000Y-81280000D03*
D11*
X149860000Y-83820000D03*
X149860000Y-86360000D03*
X149860000Y-88900000D03*
X149860000Y-91440000D03*
X149860000Y-93980000D03*
X149860000Y-96520000D03*
X149860000Y-99060000D03*
D15*
X132080000Y-76200000D02*
X132080000Y-81280000D01*
D16*
X132080000Y-93980000D02*
X132080000Y-81280000D01*
D15*
X144780000Y-76200000D02*
X144780000Y-81280000D01*
G04 #@! TA.AperFunction,Conductor*
G36*
X150084057Y-70613500D02*
G01*
X150098858Y-70615805D01*
X150098861Y-70615805D01*
X150107730Y-70617186D01*
X150126411Y-70614743D01*
X150149342Y-70613852D01*
X150452557Y-70629743D01*
X150465665Y-70631120D01*
X150705285Y-70669072D01*
X150794002Y-70683123D01*
X150806902Y-70685865D01*
X151128000Y-70771903D01*
X151140536Y-70775977D01*
X151413358Y-70880703D01*
X151450876Y-70895105D01*
X151462924Y-70900469D01*
X151759120Y-71051388D01*
X151770536Y-71057979D01*
X152049334Y-71239033D01*
X152059996Y-71246779D01*
X152318344Y-71455984D01*
X152328145Y-71464810D01*
X152563190Y-71699855D01*
X152572015Y-71709655D01*
X152714787Y-71885964D01*
X152781221Y-71968004D01*
X152788967Y-71978666D01*
X152970018Y-72257459D01*
X152976612Y-72268880D01*
X153127531Y-72565076D01*
X153132895Y-72577124D01*
X153252021Y-72887456D01*
X153256097Y-72900000D01*
X153342135Y-73221098D01*
X153344877Y-73233998D01*
X153385760Y-73492124D01*
X153396879Y-73562329D01*
X153398257Y-73575443D01*
X153408823Y-73777049D01*
X153413764Y-73871330D01*
X153412436Y-73897312D01*
X153412195Y-73898856D01*
X153412195Y-73898860D01*
X153410814Y-73907730D01*
X153411978Y-73916632D01*
X153411978Y-73916635D01*
X153414936Y-73939251D01*
X153416000Y-73955589D01*
X153416000Y-104598672D01*
X153414500Y-104618056D01*
X153410814Y-104641730D01*
X153413257Y-104660410D01*
X153414148Y-104683343D01*
X153398257Y-104986554D01*
X153396880Y-104999665D01*
X153383656Y-105083159D01*
X153344877Y-105328002D01*
X153342135Y-105340902D01*
X153256097Y-105662000D01*
X153252021Y-105674544D01*
X153132895Y-105984876D01*
X153127531Y-105996924D01*
X152976612Y-106293120D01*
X152970021Y-106304536D01*
X152788967Y-106583334D01*
X152781224Y-106593992D01*
X152572016Y-106852344D01*
X152563190Y-106862145D01*
X152328145Y-107097190D01*
X152318344Y-107106016D01*
X152059996Y-107315221D01*
X152049334Y-107322967D01*
X151770536Y-107504021D01*
X151759120Y-107510612D01*
X151462924Y-107661531D01*
X151450875Y-107666895D01*
X151140536Y-107786023D01*
X151128000Y-107790097D01*
X150806902Y-107876135D01*
X150794002Y-107878877D01*
X150705285Y-107892928D01*
X150465665Y-107930880D01*
X150452557Y-107932257D01*
X150156666Y-107947764D01*
X150130688Y-107946436D01*
X150129144Y-107946195D01*
X150129140Y-107946195D01*
X150120270Y-107944814D01*
X150111368Y-107945978D01*
X150111365Y-107945978D01*
X150088749Y-107948936D01*
X150072411Y-107950000D01*
X122985328Y-107950000D01*
X122965943Y-107948500D01*
X122951142Y-107946195D01*
X122951139Y-107946195D01*
X122942270Y-107944814D01*
X122923589Y-107947257D01*
X122900658Y-107948148D01*
X122597443Y-107932257D01*
X122584335Y-107930880D01*
X122344715Y-107892928D01*
X122255998Y-107878877D01*
X122243098Y-107876135D01*
X121922000Y-107790097D01*
X121909464Y-107786023D01*
X121599125Y-107666895D01*
X121587076Y-107661531D01*
X121290880Y-107510612D01*
X121279464Y-107504021D01*
X121000666Y-107322967D01*
X120990004Y-107315221D01*
X120731656Y-107106016D01*
X120721855Y-107097190D01*
X120486810Y-106862145D01*
X120477984Y-106852344D01*
X120268776Y-106593992D01*
X120261033Y-106583334D01*
X120079979Y-106304536D01*
X120073388Y-106293120D01*
X119922469Y-105996924D01*
X119917105Y-105984876D01*
X119797979Y-105674544D01*
X119793903Y-105662000D01*
X119707865Y-105340902D01*
X119705123Y-105328002D01*
X119666344Y-105083159D01*
X119653120Y-104999665D01*
X119651743Y-104986554D01*
X119641887Y-104798488D01*
X119640955Y-104780703D01*
X120826743Y-104780703D01*
X120864268Y-105065734D01*
X120940129Y-105343036D01*
X120941813Y-105346984D01*
X120982460Y-105442278D01*
X121052923Y-105607476D01*
X121200561Y-105854161D01*
X121380313Y-106078528D01*
X121588851Y-106276423D01*
X121822317Y-106444186D01*
X121826112Y-106446195D01*
X121826113Y-106446196D01*
X121847869Y-106457715D01*
X122076392Y-106578712D01*
X122346373Y-106677511D01*
X122627264Y-106738755D01*
X122655841Y-106741004D01*
X122850282Y-106756307D01*
X122850291Y-106756307D01*
X122852739Y-106756500D01*
X123008271Y-106756500D01*
X123010407Y-106756354D01*
X123010418Y-106756354D01*
X123218548Y-106742165D01*
X123218554Y-106742164D01*
X123222825Y-106741873D01*
X123227020Y-106741004D01*
X123227022Y-106741004D01*
X123363584Y-106712723D01*
X123504342Y-106683574D01*
X123775343Y-106587607D01*
X124030812Y-106455750D01*
X124034313Y-106453289D01*
X124034317Y-106453287D01*
X124148418Y-106373095D01*
X124266023Y-106290441D01*
X124476622Y-106094740D01*
X124658713Y-105872268D01*
X124808927Y-105627142D01*
X124924483Y-105363898D01*
X125003244Y-105087406D01*
X125043751Y-104802784D01*
X125043845Y-104784951D01*
X125043867Y-104780703D01*
X148004743Y-104780703D01*
X148042268Y-105065734D01*
X148118129Y-105343036D01*
X148119813Y-105346984D01*
X148160460Y-105442278D01*
X148230923Y-105607476D01*
X148378561Y-105854161D01*
X148558313Y-106078528D01*
X148766851Y-106276423D01*
X149000317Y-106444186D01*
X149004112Y-106446195D01*
X149004113Y-106446196D01*
X149025869Y-106457715D01*
X149254392Y-106578712D01*
X149524373Y-106677511D01*
X149805264Y-106738755D01*
X149833841Y-106741004D01*
X150028282Y-106756307D01*
X150028291Y-106756307D01*
X150030739Y-106756500D01*
X150186271Y-106756500D01*
X150188407Y-106756354D01*
X150188418Y-106756354D01*
X150396548Y-106742165D01*
X150396554Y-106742164D01*
X150400825Y-106741873D01*
X150405020Y-106741004D01*
X150405022Y-106741004D01*
X150541584Y-106712723D01*
X150682342Y-106683574D01*
X150953343Y-106587607D01*
X151208812Y-106455750D01*
X151212313Y-106453289D01*
X151212317Y-106453287D01*
X151326418Y-106373095D01*
X151444023Y-106290441D01*
X151654622Y-106094740D01*
X151836713Y-105872268D01*
X151986927Y-105627142D01*
X152102483Y-105363898D01*
X152181244Y-105087406D01*
X152221751Y-104802784D01*
X152221845Y-104784951D01*
X152223235Y-104519583D01*
X152223235Y-104519576D01*
X152223257Y-104515297D01*
X152185732Y-104230266D01*
X152109871Y-103952964D01*
X151997077Y-103688524D01*
X151849439Y-103441839D01*
X151669687Y-103217472D01*
X151461149Y-103019577D01*
X151227683Y-102851814D01*
X151205843Y-102840250D01*
X151182654Y-102827972D01*
X150973608Y-102717288D01*
X150703627Y-102618489D01*
X150422736Y-102557245D01*
X150391685Y-102554801D01*
X150199718Y-102539693D01*
X150199709Y-102539693D01*
X150197261Y-102539500D01*
X150041729Y-102539500D01*
X150039593Y-102539646D01*
X150039582Y-102539646D01*
X149831452Y-102553835D01*
X149831446Y-102553836D01*
X149827175Y-102554127D01*
X149822980Y-102554996D01*
X149822978Y-102554996D01*
X149686417Y-102583276D01*
X149545658Y-102612426D01*
X149274657Y-102708393D01*
X149019188Y-102840250D01*
X149015687Y-102842711D01*
X149015683Y-102842713D01*
X149005594Y-102849804D01*
X148783977Y-103005559D01*
X148573378Y-103201260D01*
X148391287Y-103423732D01*
X148241073Y-103668858D01*
X148125517Y-103932102D01*
X148046756Y-104208594D01*
X148006249Y-104493216D01*
X148006227Y-104497505D01*
X148006226Y-104497512D01*
X148004765Y-104776417D01*
X148004743Y-104780703D01*
X125043867Y-104780703D01*
X125045235Y-104519583D01*
X125045235Y-104519576D01*
X125045257Y-104515297D01*
X125007732Y-104230266D01*
X124931871Y-103952964D01*
X124819077Y-103688524D01*
X124671439Y-103441839D01*
X124491687Y-103217472D01*
X124283149Y-103019577D01*
X124049683Y-102851814D01*
X124027843Y-102840250D01*
X124004654Y-102827972D01*
X123795608Y-102717288D01*
X123525627Y-102618489D01*
X123244736Y-102557245D01*
X123213685Y-102554801D01*
X123021718Y-102539693D01*
X123021709Y-102539693D01*
X123019261Y-102539500D01*
X122863729Y-102539500D01*
X122861593Y-102539646D01*
X122861582Y-102539646D01*
X122653452Y-102553835D01*
X122653446Y-102553836D01*
X122649175Y-102554127D01*
X122644980Y-102554996D01*
X122644978Y-102554996D01*
X122508417Y-102583276D01*
X122367658Y-102612426D01*
X122096657Y-102708393D01*
X121841188Y-102840250D01*
X121837687Y-102842711D01*
X121837683Y-102842713D01*
X121827594Y-102849804D01*
X121605977Y-103005559D01*
X121395378Y-103201260D01*
X121213287Y-103423732D01*
X121063073Y-103668858D01*
X120947517Y-103932102D01*
X120868756Y-104208594D01*
X120828249Y-104493216D01*
X120828227Y-104497505D01*
X120828226Y-104497512D01*
X120826765Y-104776417D01*
X120826743Y-104780703D01*
X119640955Y-104780703D01*
X119636236Y-104690666D01*
X119637564Y-104664688D01*
X119637805Y-104663144D01*
X119637805Y-104663140D01*
X119639186Y-104654270D01*
X119637547Y-104641730D01*
X119635064Y-104622749D01*
X119634000Y-104606411D01*
X119634000Y-99326522D01*
X135877273Y-99326522D01*
X135924764Y-99503761D01*
X135928510Y-99514053D01*
X136020586Y-99711511D01*
X136026069Y-99721007D01*
X136151028Y-99899467D01*
X136158084Y-99907875D01*
X136312125Y-100061916D01*
X136320533Y-100068972D01*
X136498993Y-100193931D01*
X136508489Y-100199414D01*
X136705947Y-100291490D01*
X136716239Y-100295236D01*
X136888503Y-100341394D01*
X136902599Y-100341058D01*
X136906000Y-100333116D01*
X136906000Y-100327967D01*
X137414000Y-100327967D01*
X137417973Y-100341498D01*
X137426522Y-100342727D01*
X137603761Y-100295236D01*
X137614053Y-100291490D01*
X137811511Y-100199414D01*
X137821007Y-100193931D01*
X137999467Y-100068972D01*
X138007875Y-100061916D01*
X138161916Y-99907875D01*
X138168972Y-99899467D01*
X138293931Y-99721007D01*
X138299414Y-99711511D01*
X138391490Y-99514053D01*
X138395236Y-99503761D01*
X138441394Y-99331497D01*
X138441058Y-99317401D01*
X138433116Y-99314000D01*
X137432115Y-99314000D01*
X137416876Y-99318475D01*
X137415671Y-99319865D01*
X137414000Y-99327548D01*
X137414000Y-100327967D01*
X136906000Y-100327967D01*
X136906000Y-99332115D01*
X136901525Y-99316876D01*
X136900135Y-99315671D01*
X136892452Y-99314000D01*
X135892033Y-99314000D01*
X135878502Y-99317973D01*
X135877273Y-99326522D01*
X119634000Y-99326522D01*
X119634000Y-99060000D01*
X143466502Y-99060000D01*
X143486457Y-99288087D01*
X143487881Y-99293400D01*
X143487881Y-99293402D01*
X143535851Y-99472425D01*
X143545716Y-99509243D01*
X143548039Y-99514224D01*
X143548039Y-99514225D01*
X143640151Y-99711762D01*
X143640154Y-99711767D01*
X143642477Y-99716749D01*
X143645634Y-99721257D01*
X143749078Y-99868990D01*
X143773802Y-99904300D01*
X143935700Y-100066198D01*
X143940208Y-100069355D01*
X143940211Y-100069357D01*
X143980445Y-100097529D01*
X144123251Y-100197523D01*
X144128233Y-100199846D01*
X144128238Y-100199849D01*
X144324765Y-100291490D01*
X144330757Y-100294284D01*
X144336065Y-100295706D01*
X144336067Y-100295707D01*
X144546598Y-100352119D01*
X144546600Y-100352119D01*
X144551913Y-100353543D01*
X144780000Y-100373498D01*
X145008087Y-100353543D01*
X145013400Y-100352119D01*
X145013402Y-100352119D01*
X145223933Y-100295707D01*
X145223935Y-100295706D01*
X145229243Y-100294284D01*
X145235235Y-100291490D01*
X145431762Y-100199849D01*
X145431767Y-100199846D01*
X145436749Y-100197523D01*
X145579555Y-100097529D01*
X145619789Y-100069357D01*
X145619792Y-100069355D01*
X145624300Y-100066198D01*
X145786198Y-99904300D01*
X145810923Y-99868990D01*
X145914366Y-99721257D01*
X145917523Y-99716749D01*
X145919846Y-99711767D01*
X145919849Y-99711762D01*
X146011961Y-99514225D01*
X146011961Y-99514224D01*
X146014284Y-99509243D01*
X146024150Y-99472425D01*
X146072119Y-99293402D01*
X146072119Y-99293400D01*
X146073543Y-99288087D01*
X146093498Y-99060000D01*
X146090584Y-99026695D01*
X148497251Y-99026695D01*
X148497548Y-99031848D01*
X148497548Y-99031851D01*
X148503011Y-99126590D01*
X148510110Y-99249715D01*
X148511247Y-99254761D01*
X148511248Y-99254767D01*
X148528680Y-99332115D01*
X148559222Y-99467639D01*
X148643266Y-99674616D01*
X148759987Y-99865088D01*
X148906250Y-100033938D01*
X149078126Y-100176632D01*
X149271000Y-100289338D01*
X149275825Y-100291180D01*
X149275826Y-100291181D01*
X149348612Y-100318975D01*
X149479692Y-100369030D01*
X149484760Y-100370061D01*
X149484763Y-100370062D01*
X149592017Y-100391883D01*
X149698597Y-100413567D01*
X149703772Y-100413757D01*
X149703774Y-100413757D01*
X149916673Y-100421564D01*
X149916677Y-100421564D01*
X149921837Y-100421753D01*
X149926957Y-100421097D01*
X149926959Y-100421097D01*
X150138288Y-100394025D01*
X150138289Y-100394025D01*
X150143416Y-100393368D01*
X150209646Y-100373498D01*
X150352429Y-100330661D01*
X150352434Y-100330659D01*
X150357384Y-100329174D01*
X150557994Y-100230896D01*
X150739860Y-100101173D01*
X150771788Y-100069357D01*
X150894435Y-99947137D01*
X150898096Y-99943489D01*
X150929498Y-99899789D01*
X151025435Y-99766277D01*
X151028453Y-99762077D01*
X151048628Y-99721257D01*
X151125136Y-99566453D01*
X151125137Y-99566451D01*
X151127430Y-99561811D01*
X151192370Y-99348069D01*
X151221529Y-99126590D01*
X151223156Y-99060000D01*
X151204852Y-98837361D01*
X151150431Y-98620702D01*
X151061354Y-98415840D01*
X150940014Y-98228277D01*
X150789670Y-98063051D01*
X150785619Y-98059852D01*
X150785615Y-98059848D01*
X150618414Y-97927800D01*
X150618410Y-97927798D01*
X150614359Y-97924598D01*
X150573053Y-97901796D01*
X150523084Y-97851364D01*
X150508312Y-97781921D01*
X150533428Y-97715516D01*
X150560780Y-97688909D01*
X150609207Y-97654366D01*
X150739860Y-97561173D01*
X150771788Y-97529357D01*
X150894435Y-97407137D01*
X150898096Y-97403489D01*
X150929498Y-97359789D01*
X151025435Y-97226277D01*
X151028453Y-97222077D01*
X151048628Y-97181257D01*
X151125136Y-97026453D01*
X151125137Y-97026451D01*
X151127430Y-97021811D01*
X151192370Y-96808069D01*
X151221529Y-96586590D01*
X151223156Y-96520000D01*
X151204852Y-96297361D01*
X151150431Y-96080702D01*
X151061354Y-95875840D01*
X150940014Y-95688277D01*
X150789670Y-95523051D01*
X150785619Y-95519852D01*
X150785615Y-95519848D01*
X150618414Y-95387800D01*
X150618410Y-95387798D01*
X150614359Y-95384598D01*
X150573053Y-95361796D01*
X150523084Y-95311364D01*
X150508312Y-95241921D01*
X150533428Y-95175516D01*
X150560780Y-95148909D01*
X150609207Y-95114366D01*
X150739860Y-95021173D01*
X150771788Y-94989357D01*
X150883400Y-94878134D01*
X150898096Y-94863489D01*
X150929498Y-94819789D01*
X151025435Y-94686277D01*
X151028453Y-94682077D01*
X151048628Y-94641257D01*
X151125136Y-94486453D01*
X151125137Y-94486451D01*
X151127430Y-94481811D01*
X151192370Y-94268069D01*
X151221529Y-94046590D01*
X151223156Y-93980000D01*
X151204852Y-93757361D01*
X151150431Y-93540702D01*
X151061354Y-93335840D01*
X150940014Y-93148277D01*
X150789670Y-92983051D01*
X150785619Y-92979852D01*
X150785615Y-92979848D01*
X150618414Y-92847800D01*
X150618410Y-92847798D01*
X150614359Y-92844598D01*
X150573053Y-92821796D01*
X150523084Y-92771364D01*
X150508312Y-92701921D01*
X150533428Y-92635516D01*
X150560780Y-92608909D01*
X150624271Y-92563621D01*
X150739860Y-92481173D01*
X150771788Y-92449357D01*
X150894435Y-92327137D01*
X150898096Y-92323489D01*
X150929498Y-92279789D01*
X151025435Y-92146277D01*
X151028453Y-92142077D01*
X151041995Y-92114678D01*
X151125136Y-91946453D01*
X151125137Y-91946451D01*
X151127430Y-91941811D01*
X151192370Y-91728069D01*
X151221529Y-91506590D01*
X151223156Y-91440000D01*
X151204852Y-91217361D01*
X151150431Y-91000702D01*
X151061354Y-90795840D01*
X150940014Y-90608277D01*
X150789670Y-90443051D01*
X150785619Y-90439852D01*
X150785615Y-90439848D01*
X150618414Y-90307800D01*
X150618410Y-90307798D01*
X150614359Y-90304598D01*
X150573053Y-90281796D01*
X150523084Y-90231364D01*
X150508312Y-90161921D01*
X150533428Y-90095516D01*
X150560780Y-90068909D01*
X150609207Y-90034366D01*
X150739860Y-89941173D01*
X150771788Y-89909357D01*
X150894435Y-89787137D01*
X150898096Y-89783489D01*
X150929498Y-89739789D01*
X151025435Y-89606277D01*
X151028453Y-89602077D01*
X151041995Y-89574678D01*
X151125136Y-89406453D01*
X151125137Y-89406451D01*
X151127430Y-89401811D01*
X151192370Y-89188069D01*
X151221529Y-88966590D01*
X151223156Y-88900000D01*
X151204852Y-88677361D01*
X151150431Y-88460702D01*
X151061354Y-88255840D01*
X150940014Y-88068277D01*
X150789670Y-87903051D01*
X150785619Y-87899852D01*
X150785615Y-87899848D01*
X150618414Y-87767800D01*
X150618410Y-87767798D01*
X150614359Y-87764598D01*
X150573053Y-87741796D01*
X150523084Y-87691364D01*
X150508312Y-87621921D01*
X150533428Y-87555516D01*
X150560780Y-87528909D01*
X150609207Y-87494366D01*
X150739860Y-87401173D01*
X150771788Y-87369357D01*
X150894435Y-87247137D01*
X150898096Y-87243489D01*
X150929498Y-87199789D01*
X151025435Y-87066277D01*
X151028453Y-87062077D01*
X151041995Y-87034678D01*
X151125136Y-86866453D01*
X151125137Y-86866451D01*
X151127430Y-86861811D01*
X151192370Y-86648069D01*
X151221529Y-86426590D01*
X151223156Y-86360000D01*
X151204852Y-86137361D01*
X151150431Y-85920702D01*
X151061354Y-85715840D01*
X150940014Y-85528277D01*
X150789670Y-85363051D01*
X150785619Y-85359852D01*
X150785615Y-85359848D01*
X150618414Y-85227800D01*
X150618410Y-85227798D01*
X150614359Y-85224598D01*
X150573053Y-85201796D01*
X150523084Y-85151364D01*
X150508312Y-85081921D01*
X150533428Y-85015516D01*
X150560780Y-84988909D01*
X150609207Y-84954366D01*
X150739860Y-84861173D01*
X150771788Y-84829357D01*
X150894435Y-84707137D01*
X150898096Y-84703489D01*
X150929498Y-84659789D01*
X151025435Y-84526277D01*
X151028453Y-84522077D01*
X151041995Y-84494678D01*
X151125136Y-84326453D01*
X151125137Y-84326451D01*
X151127430Y-84321811D01*
X151192370Y-84108069D01*
X151221529Y-83886590D01*
X151223156Y-83820000D01*
X151204852Y-83597361D01*
X151150431Y-83380702D01*
X151061354Y-83175840D01*
X150940014Y-82988277D01*
X150920405Y-82966727D01*
X150792798Y-82826488D01*
X150761746Y-82762642D01*
X150770141Y-82692143D01*
X150815317Y-82637375D01*
X150841761Y-82623706D01*
X150948297Y-82583767D01*
X150956705Y-82580615D01*
X151073261Y-82493261D01*
X151160615Y-82376705D01*
X151211745Y-82240316D01*
X151218500Y-82178134D01*
X151218500Y-80381866D01*
X151211745Y-80319684D01*
X151160615Y-80183295D01*
X151073261Y-80066739D01*
X150956705Y-79979385D01*
X150820316Y-79928255D01*
X150758134Y-79921500D01*
X148961866Y-79921500D01*
X148899684Y-79928255D01*
X148763295Y-79979385D01*
X148646739Y-80066739D01*
X148559385Y-80183295D01*
X148508255Y-80319684D01*
X148501500Y-80381866D01*
X148501500Y-82178134D01*
X148508255Y-82240316D01*
X148559385Y-82376705D01*
X148646739Y-82493261D01*
X148763295Y-82580615D01*
X148771704Y-82583767D01*
X148771705Y-82583768D01*
X148880451Y-82624535D01*
X148937216Y-82667176D01*
X148961916Y-82733738D01*
X148946709Y-82803087D01*
X148927316Y-82829568D01*
X148800629Y-82962138D01*
X148797720Y-82966403D01*
X148797714Y-82966411D01*
X148788300Y-82980211D01*
X148674743Y-83146680D01*
X148580688Y-83349305D01*
X148520989Y-83564570D01*
X148497251Y-83786695D01*
X148497548Y-83791848D01*
X148497548Y-83791851D01*
X148503011Y-83886590D01*
X148510110Y-84009715D01*
X148511247Y-84014761D01*
X148511248Y-84014767D01*
X148525493Y-84077973D01*
X148559222Y-84227639D01*
X148643266Y-84434616D01*
X148694019Y-84517438D01*
X148757291Y-84620688D01*
X148759987Y-84625088D01*
X148906250Y-84793938D01*
X149078126Y-84936632D01*
X149145163Y-84975805D01*
X149151445Y-84979476D01*
X149200169Y-85031114D01*
X149213240Y-85100897D01*
X149186509Y-85166669D01*
X149146055Y-85200027D01*
X149133607Y-85206507D01*
X149129474Y-85209610D01*
X149129471Y-85209612D01*
X149108132Y-85225634D01*
X148954965Y-85340635D01*
X148800629Y-85502138D01*
X148797720Y-85506403D01*
X148797714Y-85506411D01*
X148788300Y-85520211D01*
X148674743Y-85686680D01*
X148580688Y-85889305D01*
X148520989Y-86104570D01*
X148497251Y-86326695D01*
X148497548Y-86331848D01*
X148497548Y-86331851D01*
X148503011Y-86426590D01*
X148510110Y-86549715D01*
X148511247Y-86554761D01*
X148511248Y-86554767D01*
X148525493Y-86617973D01*
X148559222Y-86767639D01*
X148643266Y-86974616D01*
X148694019Y-87057438D01*
X148757291Y-87160688D01*
X148759987Y-87165088D01*
X148906250Y-87333938D01*
X149078126Y-87476632D01*
X149145163Y-87515805D01*
X149151445Y-87519476D01*
X149200169Y-87571114D01*
X149213240Y-87640897D01*
X149186509Y-87706669D01*
X149146055Y-87740027D01*
X149133607Y-87746507D01*
X149129474Y-87749610D01*
X149129471Y-87749612D01*
X149108132Y-87765634D01*
X148954965Y-87880635D01*
X148800629Y-88042138D01*
X148797715Y-88046410D01*
X148797714Y-88046411D01*
X148788300Y-88060211D01*
X148674743Y-88226680D01*
X148580688Y-88429305D01*
X148520989Y-88644570D01*
X148497251Y-88866695D01*
X148497548Y-88871848D01*
X148497548Y-88871851D01*
X148503011Y-88966590D01*
X148510110Y-89089715D01*
X148511247Y-89094761D01*
X148511248Y-89094767D01*
X148525493Y-89157973D01*
X148559222Y-89307639D01*
X148643266Y-89514616D01*
X148645965Y-89519020D01*
X148757291Y-89700688D01*
X148759987Y-89705088D01*
X148906250Y-89873938D01*
X149078126Y-90016632D01*
X149145163Y-90055805D01*
X149151445Y-90059476D01*
X149200169Y-90111114D01*
X149213240Y-90180897D01*
X149186509Y-90246669D01*
X149146055Y-90280027D01*
X149133607Y-90286507D01*
X149129474Y-90289610D01*
X149129471Y-90289612D01*
X149108132Y-90305634D01*
X148954965Y-90420635D01*
X148800629Y-90582138D01*
X148797715Y-90586410D01*
X148797714Y-90586411D01*
X148788300Y-90600211D01*
X148674743Y-90766680D01*
X148580688Y-90969305D01*
X148520989Y-91184570D01*
X148497251Y-91406695D01*
X148497548Y-91411848D01*
X148497548Y-91411851D01*
X148503011Y-91506590D01*
X148510110Y-91629715D01*
X148511247Y-91634761D01*
X148511248Y-91634767D01*
X148525493Y-91697973D01*
X148559222Y-91847639D01*
X148643266Y-92054616D01*
X148645965Y-92059020D01*
X148757291Y-92240688D01*
X148759987Y-92245088D01*
X148906250Y-92413938D01*
X149078126Y-92556632D01*
X149139196Y-92592318D01*
X149151445Y-92599476D01*
X149200169Y-92651114D01*
X149213240Y-92720897D01*
X149186509Y-92786669D01*
X149146055Y-92820027D01*
X149133607Y-92826507D01*
X149129474Y-92829610D01*
X149129471Y-92829612D01*
X148959100Y-92957530D01*
X148954965Y-92960635D01*
X148800629Y-93122138D01*
X148797715Y-93126410D01*
X148797714Y-93126411D01*
X148788300Y-93140211D01*
X148674743Y-93306680D01*
X148580688Y-93509305D01*
X148520989Y-93724570D01*
X148497251Y-93946695D01*
X148497548Y-93951848D01*
X148497548Y-93951851D01*
X148503011Y-94046590D01*
X148510110Y-94169715D01*
X148511247Y-94174761D01*
X148511248Y-94174767D01*
X148519955Y-94213402D01*
X148559222Y-94387639D01*
X148643266Y-94594616D01*
X148759987Y-94785088D01*
X148906250Y-94953938D01*
X149078126Y-95096632D01*
X149145163Y-95135805D01*
X149151445Y-95139476D01*
X149200169Y-95191114D01*
X149213240Y-95260897D01*
X149186509Y-95326669D01*
X149146055Y-95360027D01*
X149133607Y-95366507D01*
X149129474Y-95369610D01*
X149129471Y-95369612D01*
X149108132Y-95385634D01*
X148954965Y-95500635D01*
X148800629Y-95662138D01*
X148797715Y-95666410D01*
X148797714Y-95666411D01*
X148788300Y-95680211D01*
X148674743Y-95846680D01*
X148580688Y-96049305D01*
X148520989Y-96264570D01*
X148497251Y-96486695D01*
X148497548Y-96491848D01*
X148497548Y-96491851D01*
X148503011Y-96586590D01*
X148510110Y-96709715D01*
X148511247Y-96714761D01*
X148511248Y-96714767D01*
X148519955Y-96753402D01*
X148559222Y-96927639D01*
X148643266Y-97134616D01*
X148759987Y-97325088D01*
X148906250Y-97493938D01*
X149078126Y-97636632D01*
X149145163Y-97675805D01*
X149151445Y-97679476D01*
X149200169Y-97731114D01*
X149213240Y-97800897D01*
X149186509Y-97866669D01*
X149146055Y-97900027D01*
X149133607Y-97906507D01*
X149129474Y-97909610D01*
X149129471Y-97909612D01*
X149105247Y-97927800D01*
X148954965Y-98040635D01*
X148800629Y-98202138D01*
X148797715Y-98206410D01*
X148797714Y-98206411D01*
X148788300Y-98220211D01*
X148674743Y-98386680D01*
X148580688Y-98589305D01*
X148520989Y-98804570D01*
X148497251Y-99026695D01*
X146090584Y-99026695D01*
X146073543Y-98831913D01*
X146066600Y-98806000D01*
X146015707Y-98616067D01*
X146015706Y-98616065D01*
X146014284Y-98610757D01*
X146002092Y-98584610D01*
X145919849Y-98408238D01*
X145919846Y-98408233D01*
X145917523Y-98403251D01*
X145844098Y-98298389D01*
X145789357Y-98220211D01*
X145789355Y-98220208D01*
X145786198Y-98215700D01*
X145624300Y-98053802D01*
X145619792Y-98050645D01*
X145619789Y-98050643D01*
X145541611Y-97995902D01*
X145436749Y-97922477D01*
X145431767Y-97920154D01*
X145431762Y-97920151D01*
X145397543Y-97904195D01*
X145344258Y-97857278D01*
X145324797Y-97789001D01*
X145345339Y-97721041D01*
X145397543Y-97675805D01*
X145431762Y-97659849D01*
X145431767Y-97659846D01*
X145436749Y-97657523D01*
X145579555Y-97557529D01*
X145619789Y-97529357D01*
X145619792Y-97529355D01*
X145624300Y-97526198D01*
X145786198Y-97364300D01*
X145810923Y-97328990D01*
X145914366Y-97181257D01*
X145917523Y-97176749D01*
X145919846Y-97171767D01*
X145919849Y-97171762D01*
X146011961Y-96974225D01*
X146011961Y-96974224D01*
X146014284Y-96969243D01*
X146024150Y-96932425D01*
X146072119Y-96753402D01*
X146072119Y-96753400D01*
X146073543Y-96748087D01*
X146093498Y-96520000D01*
X146073543Y-96291913D01*
X146067593Y-96269707D01*
X146015707Y-96076067D01*
X146015706Y-96076065D01*
X146014284Y-96070757D01*
X146002092Y-96044610D01*
X145919849Y-95868238D01*
X145919846Y-95868233D01*
X145917523Y-95863251D01*
X145844098Y-95758389D01*
X145789357Y-95680211D01*
X145789355Y-95680208D01*
X145786198Y-95675700D01*
X145624300Y-95513802D01*
X145619792Y-95510645D01*
X145619789Y-95510643D01*
X145541611Y-95455902D01*
X145436749Y-95382477D01*
X145431767Y-95380154D01*
X145431762Y-95380151D01*
X145397543Y-95364195D01*
X145344258Y-95317278D01*
X145324797Y-95249001D01*
X145345339Y-95181041D01*
X145397543Y-95135805D01*
X145431762Y-95119849D01*
X145431767Y-95119846D01*
X145436749Y-95117523D01*
X145579555Y-95017529D01*
X145619789Y-94989357D01*
X145619792Y-94989355D01*
X145624300Y-94986198D01*
X145786198Y-94824300D01*
X145810923Y-94788990D01*
X145914366Y-94641257D01*
X145917523Y-94636749D01*
X145919846Y-94631767D01*
X145919849Y-94631762D01*
X146011961Y-94434225D01*
X146011961Y-94434224D01*
X146014284Y-94429243D01*
X146024150Y-94392425D01*
X146072119Y-94213402D01*
X146072119Y-94213400D01*
X146073543Y-94208087D01*
X146093498Y-93980000D01*
X146073543Y-93751913D01*
X146067593Y-93729707D01*
X146015707Y-93536067D01*
X146015706Y-93536065D01*
X146014284Y-93530757D01*
X146002092Y-93504610D01*
X145919849Y-93328238D01*
X145919846Y-93328233D01*
X145917523Y-93323251D01*
X145844098Y-93218389D01*
X145789357Y-93140211D01*
X145789355Y-93140208D01*
X145786198Y-93135700D01*
X145624300Y-92973802D01*
X145619792Y-92970645D01*
X145619789Y-92970643D01*
X145484780Y-92876109D01*
X145436749Y-92842477D01*
X145431767Y-92840154D01*
X145431762Y-92840151D01*
X145397543Y-92824195D01*
X145344258Y-92777278D01*
X145324797Y-92709001D01*
X145345339Y-92641041D01*
X145397543Y-92595805D01*
X145431762Y-92579849D01*
X145431767Y-92579846D01*
X145436749Y-92577523D01*
X145570069Y-92484171D01*
X145619789Y-92449357D01*
X145619792Y-92449355D01*
X145624300Y-92446198D01*
X145786198Y-92284300D01*
X145810923Y-92248990D01*
X145885784Y-92142077D01*
X145917523Y-92096749D01*
X145919846Y-92091767D01*
X145919849Y-92091762D01*
X146011961Y-91894225D01*
X146011961Y-91894224D01*
X146014284Y-91889243D01*
X146024150Y-91852425D01*
X146072119Y-91673402D01*
X146072119Y-91673400D01*
X146073543Y-91668087D01*
X146093498Y-91440000D01*
X146073543Y-91211913D01*
X146066600Y-91186000D01*
X146015707Y-90996067D01*
X146015706Y-90996065D01*
X146014284Y-90990757D01*
X146002092Y-90964610D01*
X145919849Y-90788238D01*
X145919846Y-90788233D01*
X145917523Y-90783251D01*
X145798260Y-90612926D01*
X145789357Y-90600211D01*
X145789355Y-90600208D01*
X145786198Y-90595700D01*
X145624300Y-90433802D01*
X145619792Y-90430645D01*
X145619789Y-90430643D01*
X145541611Y-90375902D01*
X145436749Y-90302477D01*
X145431767Y-90300154D01*
X145431762Y-90300151D01*
X145397543Y-90284195D01*
X145344258Y-90237278D01*
X145324797Y-90169001D01*
X145345339Y-90101041D01*
X145397543Y-90055805D01*
X145431762Y-90039849D01*
X145431767Y-90039846D01*
X145436749Y-90037523D01*
X145570069Y-89944171D01*
X145619789Y-89909357D01*
X145619792Y-89909355D01*
X145624300Y-89906198D01*
X145786198Y-89744300D01*
X145810923Y-89708990D01*
X145885784Y-89602077D01*
X145917523Y-89556749D01*
X145919846Y-89551767D01*
X145919849Y-89551762D01*
X146011961Y-89354225D01*
X146011961Y-89354224D01*
X146014284Y-89349243D01*
X146024150Y-89312425D01*
X146072119Y-89133402D01*
X146072119Y-89133400D01*
X146073543Y-89128087D01*
X146093498Y-88900000D01*
X146073543Y-88671913D01*
X146066600Y-88646000D01*
X146015707Y-88456067D01*
X146015706Y-88456065D01*
X146014284Y-88450757D01*
X146002092Y-88424610D01*
X145919849Y-88248238D01*
X145919846Y-88248233D01*
X145917523Y-88243251D01*
X145798260Y-88072926D01*
X145789357Y-88060211D01*
X145789355Y-88060208D01*
X145786198Y-88055700D01*
X145624300Y-87893802D01*
X145619792Y-87890645D01*
X145619789Y-87890643D01*
X145541611Y-87835902D01*
X145436749Y-87762477D01*
X145431767Y-87760154D01*
X145431762Y-87760151D01*
X145397543Y-87744195D01*
X145344258Y-87697278D01*
X145324797Y-87629001D01*
X145345339Y-87561041D01*
X145397543Y-87515805D01*
X145431762Y-87499849D01*
X145431767Y-87499846D01*
X145436749Y-87497523D01*
X145570069Y-87404171D01*
X145619789Y-87369357D01*
X145619792Y-87369355D01*
X145624300Y-87366198D01*
X145786198Y-87204300D01*
X145810923Y-87168990D01*
X145885784Y-87062077D01*
X145917523Y-87016749D01*
X145919846Y-87011767D01*
X145919849Y-87011762D01*
X146011961Y-86814225D01*
X146011961Y-86814224D01*
X146014284Y-86809243D01*
X146024150Y-86772425D01*
X146072119Y-86593402D01*
X146072119Y-86593400D01*
X146073543Y-86588087D01*
X146093498Y-86360000D01*
X146073543Y-86131913D01*
X146066600Y-86106000D01*
X146015707Y-85916067D01*
X146015706Y-85916065D01*
X146014284Y-85910757D01*
X146002092Y-85884610D01*
X145919849Y-85708238D01*
X145919846Y-85708233D01*
X145917523Y-85703251D01*
X145798260Y-85532926D01*
X145789357Y-85520211D01*
X145789355Y-85520208D01*
X145786198Y-85515700D01*
X145624300Y-85353802D01*
X145619792Y-85350645D01*
X145619789Y-85350643D01*
X145541611Y-85295902D01*
X145436749Y-85222477D01*
X145431767Y-85220154D01*
X145431762Y-85220151D01*
X145397543Y-85204195D01*
X145344258Y-85157278D01*
X145324797Y-85089001D01*
X145345339Y-85021041D01*
X145397543Y-84975805D01*
X145431762Y-84959849D01*
X145431767Y-84959846D01*
X145436749Y-84957523D01*
X145570069Y-84864171D01*
X145619789Y-84829357D01*
X145619792Y-84829355D01*
X145624300Y-84826198D01*
X145786198Y-84664300D01*
X145810923Y-84628990D01*
X145885784Y-84522077D01*
X145917523Y-84476749D01*
X145919846Y-84471767D01*
X145919849Y-84471762D01*
X146011961Y-84274225D01*
X146011961Y-84274224D01*
X146014284Y-84269243D01*
X146024150Y-84232425D01*
X146072119Y-84053402D01*
X146072119Y-84053400D01*
X146073543Y-84048087D01*
X146093498Y-83820000D01*
X146073543Y-83591913D01*
X146066600Y-83566000D01*
X146015707Y-83376067D01*
X146015706Y-83376065D01*
X146014284Y-83370757D01*
X146002092Y-83344610D01*
X145919849Y-83168238D01*
X145919846Y-83168233D01*
X145917523Y-83163251D01*
X145798260Y-82992926D01*
X145789357Y-82980211D01*
X145789355Y-82980208D01*
X145786198Y-82975700D01*
X145624300Y-82813802D01*
X145619792Y-82810645D01*
X145619789Y-82810643D01*
X145541611Y-82755902D01*
X145436749Y-82682477D01*
X145431767Y-82680154D01*
X145431762Y-82680151D01*
X145397543Y-82664195D01*
X145344258Y-82617278D01*
X145324797Y-82549001D01*
X145345339Y-82481041D01*
X145397543Y-82435805D01*
X145431762Y-82419849D01*
X145431767Y-82419846D01*
X145436749Y-82417523D01*
X145579555Y-82317529D01*
X145619789Y-82289357D01*
X145619792Y-82289355D01*
X145624300Y-82286198D01*
X145786198Y-82124300D01*
X145917523Y-81936749D01*
X145919846Y-81931767D01*
X145919849Y-81931762D01*
X146011961Y-81734225D01*
X146011961Y-81734224D01*
X146014284Y-81729243D01*
X146062970Y-81547548D01*
X146072119Y-81513402D01*
X146072119Y-81513400D01*
X146073543Y-81508087D01*
X146093498Y-81280000D01*
X146073543Y-81051913D01*
X146066600Y-81026000D01*
X146015707Y-80836067D01*
X146015706Y-80836065D01*
X146014284Y-80830757D01*
X146004281Y-80809305D01*
X145919849Y-80628238D01*
X145919846Y-80628233D01*
X145917523Y-80623251D01*
X145786198Y-80435700D01*
X145624300Y-80273802D01*
X145619792Y-80270645D01*
X145619789Y-80270643D01*
X145542229Y-80216335D01*
X145497901Y-80160878D01*
X145488500Y-80113122D01*
X145488500Y-77366878D01*
X145508502Y-77298757D01*
X145542229Y-77263665D01*
X145619789Y-77209357D01*
X145619792Y-77209355D01*
X145624300Y-77206198D01*
X145786198Y-77044300D01*
X145917523Y-76856749D01*
X145919846Y-76851767D01*
X145919849Y-76851762D01*
X146011961Y-76654225D01*
X146011961Y-76654224D01*
X146014284Y-76649243D01*
X146062858Y-76467966D01*
X146072119Y-76433402D01*
X146072119Y-76433400D01*
X146073543Y-76428087D01*
X146093498Y-76200000D01*
X146073543Y-75971913D01*
X146065829Y-75943124D01*
X146015707Y-75756067D01*
X146015706Y-75756065D01*
X146014284Y-75750757D01*
X146000758Y-75721750D01*
X145919849Y-75548238D01*
X145919846Y-75548233D01*
X145917523Y-75543251D01*
X145844098Y-75438389D01*
X145789357Y-75360211D01*
X145789355Y-75360208D01*
X145786198Y-75355700D01*
X145624300Y-75193802D01*
X145619792Y-75190645D01*
X145619789Y-75190643D01*
X145519130Y-75120161D01*
X145436749Y-75062477D01*
X145431767Y-75060154D01*
X145431762Y-75060151D01*
X145234225Y-74968039D01*
X145234224Y-74968039D01*
X145229243Y-74965716D01*
X145223935Y-74964294D01*
X145223933Y-74964293D01*
X145013402Y-74907881D01*
X145013400Y-74907881D01*
X145008087Y-74906457D01*
X144780000Y-74886502D01*
X144551913Y-74906457D01*
X144546600Y-74907881D01*
X144546598Y-74907881D01*
X144336067Y-74964293D01*
X144336065Y-74964294D01*
X144330757Y-74965716D01*
X144325776Y-74968039D01*
X144325775Y-74968039D01*
X144128238Y-75060151D01*
X144128233Y-75060154D01*
X144123251Y-75062477D01*
X144040870Y-75120161D01*
X143940211Y-75190643D01*
X143940208Y-75190645D01*
X143935700Y-75193802D01*
X143773802Y-75355700D01*
X143770645Y-75360208D01*
X143770643Y-75360211D01*
X143715902Y-75438389D01*
X143642477Y-75543251D01*
X143640154Y-75548233D01*
X143640151Y-75548238D01*
X143559242Y-75721750D01*
X143545716Y-75750757D01*
X143544294Y-75756065D01*
X143544293Y-75756067D01*
X143494171Y-75943124D01*
X143486457Y-75971913D01*
X143466502Y-76200000D01*
X143486457Y-76428087D01*
X143487881Y-76433400D01*
X143487881Y-76433402D01*
X143497143Y-76467966D01*
X143545716Y-76649243D01*
X143548039Y-76654224D01*
X143548039Y-76654225D01*
X143640151Y-76851762D01*
X143640154Y-76851767D01*
X143642477Y-76856749D01*
X143773802Y-77044300D01*
X143935700Y-77206198D01*
X143940208Y-77209355D01*
X143940211Y-77209357D01*
X144017771Y-77263665D01*
X144062099Y-77319122D01*
X144071500Y-77366878D01*
X144071500Y-80113122D01*
X144051498Y-80181243D01*
X144017771Y-80216335D01*
X143940211Y-80270643D01*
X143940208Y-80270645D01*
X143935700Y-80273802D01*
X143773802Y-80435700D01*
X143642477Y-80623251D01*
X143640154Y-80628233D01*
X143640151Y-80628238D01*
X143555719Y-80809305D01*
X143545716Y-80830757D01*
X143544294Y-80836065D01*
X143544293Y-80836067D01*
X143493400Y-81026000D01*
X143486457Y-81051913D01*
X143466502Y-81280000D01*
X143486457Y-81508087D01*
X143487881Y-81513400D01*
X143487881Y-81513402D01*
X143497031Y-81547548D01*
X143545716Y-81729243D01*
X143548039Y-81734224D01*
X143548039Y-81734225D01*
X143640151Y-81931762D01*
X143640154Y-81931767D01*
X143642477Y-81936749D01*
X143773802Y-82124300D01*
X143935700Y-82286198D01*
X143940208Y-82289355D01*
X143940211Y-82289357D01*
X143980445Y-82317529D01*
X144123251Y-82417523D01*
X144128233Y-82419846D01*
X144128238Y-82419849D01*
X144162457Y-82435805D01*
X144215742Y-82482722D01*
X144235203Y-82550999D01*
X144214661Y-82618959D01*
X144162457Y-82664195D01*
X144128238Y-82680151D01*
X144128233Y-82680154D01*
X144123251Y-82682477D01*
X144018389Y-82755902D01*
X143940211Y-82810643D01*
X143940208Y-82810645D01*
X143935700Y-82813802D01*
X143773802Y-82975700D01*
X143770645Y-82980208D01*
X143770643Y-82980211D01*
X143761740Y-82992926D01*
X143642477Y-83163251D01*
X143640154Y-83168233D01*
X143640151Y-83168238D01*
X143557908Y-83344610D01*
X143545716Y-83370757D01*
X143544294Y-83376065D01*
X143544293Y-83376067D01*
X143493400Y-83566000D01*
X143486457Y-83591913D01*
X143466502Y-83820000D01*
X143486457Y-84048087D01*
X143487881Y-84053400D01*
X143487881Y-84053402D01*
X143535851Y-84232425D01*
X143545716Y-84269243D01*
X143548039Y-84274224D01*
X143548039Y-84274225D01*
X143640151Y-84471762D01*
X143640154Y-84471767D01*
X143642477Y-84476749D01*
X143674216Y-84522077D01*
X143749078Y-84628990D01*
X143773802Y-84664300D01*
X143935700Y-84826198D01*
X143940208Y-84829355D01*
X143940211Y-84829357D01*
X143989931Y-84864171D01*
X144123251Y-84957523D01*
X144128233Y-84959846D01*
X144128238Y-84959849D01*
X144162457Y-84975805D01*
X144215742Y-85022722D01*
X144235203Y-85090999D01*
X144214661Y-85158959D01*
X144162457Y-85204195D01*
X144128238Y-85220151D01*
X144128233Y-85220154D01*
X144123251Y-85222477D01*
X144018389Y-85295902D01*
X143940211Y-85350643D01*
X143940208Y-85350645D01*
X143935700Y-85353802D01*
X143773802Y-85515700D01*
X143770645Y-85520208D01*
X143770643Y-85520211D01*
X143761740Y-85532926D01*
X143642477Y-85703251D01*
X143640154Y-85708233D01*
X143640151Y-85708238D01*
X143557908Y-85884610D01*
X143545716Y-85910757D01*
X143544294Y-85916065D01*
X143544293Y-85916067D01*
X143493400Y-86106000D01*
X143486457Y-86131913D01*
X143466502Y-86360000D01*
X143486457Y-86588087D01*
X143487881Y-86593400D01*
X143487881Y-86593402D01*
X143535851Y-86772425D01*
X143545716Y-86809243D01*
X143548039Y-86814224D01*
X143548039Y-86814225D01*
X143640151Y-87011762D01*
X143640154Y-87011767D01*
X143642477Y-87016749D01*
X143674216Y-87062077D01*
X143749078Y-87168990D01*
X143773802Y-87204300D01*
X143935700Y-87366198D01*
X143940208Y-87369355D01*
X143940211Y-87369357D01*
X143989931Y-87404171D01*
X144123251Y-87497523D01*
X144128233Y-87499846D01*
X144128238Y-87499849D01*
X144162457Y-87515805D01*
X144215742Y-87562722D01*
X144235203Y-87630999D01*
X144214661Y-87698959D01*
X144162457Y-87744195D01*
X144128238Y-87760151D01*
X144128233Y-87760154D01*
X144123251Y-87762477D01*
X144018389Y-87835902D01*
X143940211Y-87890643D01*
X143940208Y-87890645D01*
X143935700Y-87893802D01*
X143773802Y-88055700D01*
X143770645Y-88060208D01*
X143770643Y-88060211D01*
X143761740Y-88072926D01*
X143642477Y-88243251D01*
X143640154Y-88248233D01*
X143640151Y-88248238D01*
X143557908Y-88424610D01*
X143545716Y-88450757D01*
X143544294Y-88456065D01*
X143544293Y-88456067D01*
X143493400Y-88646000D01*
X143486457Y-88671913D01*
X143466502Y-88900000D01*
X143486457Y-89128087D01*
X143487881Y-89133400D01*
X143487881Y-89133402D01*
X143535851Y-89312425D01*
X143545716Y-89349243D01*
X143548039Y-89354224D01*
X143548039Y-89354225D01*
X143640151Y-89551762D01*
X143640154Y-89551767D01*
X143642477Y-89556749D01*
X143674216Y-89602077D01*
X143749078Y-89708990D01*
X143773802Y-89744300D01*
X143935700Y-89906198D01*
X143940208Y-89909355D01*
X143940211Y-89909357D01*
X143989931Y-89944171D01*
X144123251Y-90037523D01*
X144128233Y-90039846D01*
X144128238Y-90039849D01*
X144162457Y-90055805D01*
X144215742Y-90102722D01*
X144235203Y-90170999D01*
X144214661Y-90238959D01*
X144162457Y-90284195D01*
X144128238Y-90300151D01*
X144128233Y-90300154D01*
X144123251Y-90302477D01*
X144018389Y-90375902D01*
X143940211Y-90430643D01*
X143940208Y-90430645D01*
X143935700Y-90433802D01*
X143773802Y-90595700D01*
X143770645Y-90600208D01*
X143770643Y-90600211D01*
X143761740Y-90612926D01*
X143642477Y-90783251D01*
X143640154Y-90788233D01*
X143640151Y-90788238D01*
X143557908Y-90964610D01*
X143545716Y-90990757D01*
X143544294Y-90996065D01*
X143544293Y-90996067D01*
X143493400Y-91186000D01*
X143486457Y-91211913D01*
X143466502Y-91440000D01*
X143486457Y-91668087D01*
X143487881Y-91673400D01*
X143487881Y-91673402D01*
X143535851Y-91852425D01*
X143545716Y-91889243D01*
X143548039Y-91894224D01*
X143548039Y-91894225D01*
X143640151Y-92091762D01*
X143640154Y-92091767D01*
X143642477Y-92096749D01*
X143674216Y-92142077D01*
X143749078Y-92248990D01*
X143773802Y-92284300D01*
X143935700Y-92446198D01*
X143940208Y-92449355D01*
X143940211Y-92449357D01*
X143989931Y-92484171D01*
X144123251Y-92577523D01*
X144128233Y-92579846D01*
X144128238Y-92579849D01*
X144162457Y-92595805D01*
X144215742Y-92642722D01*
X144235203Y-92710999D01*
X144214661Y-92778959D01*
X144162457Y-92824195D01*
X144128238Y-92840151D01*
X144128233Y-92840154D01*
X144123251Y-92842477D01*
X144075220Y-92876109D01*
X143940211Y-92970643D01*
X143940208Y-92970645D01*
X143935700Y-92973802D01*
X143773802Y-93135700D01*
X143770645Y-93140208D01*
X143770643Y-93140211D01*
X143715902Y-93218389D01*
X143642477Y-93323251D01*
X143640154Y-93328233D01*
X143640151Y-93328238D01*
X143557908Y-93504610D01*
X143545716Y-93530757D01*
X143544294Y-93536065D01*
X143544293Y-93536067D01*
X143492407Y-93729707D01*
X143486457Y-93751913D01*
X143466502Y-93980000D01*
X143486457Y-94208087D01*
X143487881Y-94213400D01*
X143487881Y-94213402D01*
X143535851Y-94392425D01*
X143545716Y-94429243D01*
X143548039Y-94434224D01*
X143548039Y-94434225D01*
X143640151Y-94631762D01*
X143640154Y-94631767D01*
X143642477Y-94636749D01*
X143645634Y-94641257D01*
X143749078Y-94788990D01*
X143773802Y-94824300D01*
X143935700Y-94986198D01*
X143940208Y-94989355D01*
X143940211Y-94989357D01*
X143980445Y-95017529D01*
X144123251Y-95117523D01*
X144128233Y-95119846D01*
X144128238Y-95119849D01*
X144162457Y-95135805D01*
X144215742Y-95182722D01*
X144235203Y-95250999D01*
X144214661Y-95318959D01*
X144162457Y-95364195D01*
X144128238Y-95380151D01*
X144128233Y-95380154D01*
X144123251Y-95382477D01*
X144018389Y-95455902D01*
X143940211Y-95510643D01*
X143940208Y-95510645D01*
X143935700Y-95513802D01*
X143773802Y-95675700D01*
X143770645Y-95680208D01*
X143770643Y-95680211D01*
X143715902Y-95758389D01*
X143642477Y-95863251D01*
X143640154Y-95868233D01*
X143640151Y-95868238D01*
X143557908Y-96044610D01*
X143545716Y-96070757D01*
X143544294Y-96076065D01*
X143544293Y-96076067D01*
X143492407Y-96269707D01*
X143486457Y-96291913D01*
X143466502Y-96520000D01*
X143486457Y-96748087D01*
X143487881Y-96753400D01*
X143487881Y-96753402D01*
X143535851Y-96932425D01*
X143545716Y-96969243D01*
X143548039Y-96974224D01*
X143548039Y-96974225D01*
X143640151Y-97171762D01*
X143640154Y-97171767D01*
X143642477Y-97176749D01*
X143645634Y-97181257D01*
X143749078Y-97328990D01*
X143773802Y-97364300D01*
X143935700Y-97526198D01*
X143940208Y-97529355D01*
X143940211Y-97529357D01*
X143980445Y-97557529D01*
X144123251Y-97657523D01*
X144128233Y-97659846D01*
X144128238Y-97659849D01*
X144162457Y-97675805D01*
X144215742Y-97722722D01*
X144235203Y-97790999D01*
X144214661Y-97858959D01*
X144162457Y-97904195D01*
X144128238Y-97920151D01*
X144128233Y-97920154D01*
X144123251Y-97922477D01*
X144018389Y-97995902D01*
X143940211Y-98050643D01*
X143940208Y-98050645D01*
X143935700Y-98053802D01*
X143773802Y-98215700D01*
X143770645Y-98220208D01*
X143770643Y-98220211D01*
X143715902Y-98298389D01*
X143642477Y-98403251D01*
X143640154Y-98408233D01*
X143640151Y-98408238D01*
X143557908Y-98584610D01*
X143545716Y-98610757D01*
X143544294Y-98616065D01*
X143544293Y-98616067D01*
X143493400Y-98806000D01*
X143486457Y-98831913D01*
X143466502Y-99060000D01*
X119634000Y-99060000D01*
X119634000Y-96520000D01*
X135846502Y-96520000D01*
X135866457Y-96748087D01*
X135867881Y-96753400D01*
X135867881Y-96753402D01*
X135915851Y-96932425D01*
X135925716Y-96969243D01*
X135928039Y-96974224D01*
X135928039Y-96974225D01*
X136020151Y-97171762D01*
X136020154Y-97171767D01*
X136022477Y-97176749D01*
X136025634Y-97181257D01*
X136129078Y-97328990D01*
X136153802Y-97364300D01*
X136315700Y-97526198D01*
X136320208Y-97529355D01*
X136320211Y-97529357D01*
X136360445Y-97557529D01*
X136503251Y-97657523D01*
X136508233Y-97659846D01*
X136508238Y-97659849D01*
X136543049Y-97676081D01*
X136596334Y-97722998D01*
X136615795Y-97791275D01*
X136595253Y-97859235D01*
X136543049Y-97904471D01*
X136508489Y-97920586D01*
X136498993Y-97926069D01*
X136320533Y-98051028D01*
X136312125Y-98058084D01*
X136158084Y-98212125D01*
X136151028Y-98220533D01*
X136026069Y-98398993D01*
X136020586Y-98408489D01*
X135928510Y-98605947D01*
X135924764Y-98616239D01*
X135878606Y-98788503D01*
X135878942Y-98802599D01*
X135886884Y-98806000D01*
X138427967Y-98806000D01*
X138441498Y-98802027D01*
X138442727Y-98793478D01*
X138395236Y-98616239D01*
X138391490Y-98605947D01*
X138299414Y-98408489D01*
X138293931Y-98398993D01*
X138168972Y-98220533D01*
X138161916Y-98212125D01*
X138007875Y-98058084D01*
X137999467Y-98051028D01*
X137821007Y-97926069D01*
X137811511Y-97920586D01*
X137776951Y-97904471D01*
X137723666Y-97857554D01*
X137704205Y-97789277D01*
X137724747Y-97721317D01*
X137776951Y-97676081D01*
X137811762Y-97659849D01*
X137811767Y-97659846D01*
X137816749Y-97657523D01*
X137959555Y-97557529D01*
X137999789Y-97529357D01*
X137999792Y-97529355D01*
X138004300Y-97526198D01*
X138166198Y-97364300D01*
X138190923Y-97328990D01*
X138294366Y-97181257D01*
X138297523Y-97176749D01*
X138299846Y-97171767D01*
X138299849Y-97171762D01*
X138391961Y-96974225D01*
X138391961Y-96974224D01*
X138394284Y-96969243D01*
X138404150Y-96932425D01*
X138452119Y-96753402D01*
X138452119Y-96753400D01*
X138453543Y-96748087D01*
X138473498Y-96520000D01*
X138453543Y-96291913D01*
X138447593Y-96269707D01*
X138395707Y-96076067D01*
X138395706Y-96076065D01*
X138394284Y-96070757D01*
X138382092Y-96044610D01*
X138299849Y-95868238D01*
X138299846Y-95868233D01*
X138297523Y-95863251D01*
X138224098Y-95758389D01*
X138169357Y-95680211D01*
X138169355Y-95680208D01*
X138166198Y-95675700D01*
X138004300Y-95513802D01*
X137999792Y-95510645D01*
X137999789Y-95510643D01*
X137921611Y-95455902D01*
X137816749Y-95382477D01*
X137811767Y-95380154D01*
X137811762Y-95380151D01*
X137777543Y-95364195D01*
X137724258Y-95317278D01*
X137704797Y-95249001D01*
X137725339Y-95181041D01*
X137777543Y-95135805D01*
X137811762Y-95119849D01*
X137811767Y-95119846D01*
X137816749Y-95117523D01*
X137959555Y-95017529D01*
X137999789Y-94989357D01*
X137999792Y-94989355D01*
X138004300Y-94986198D01*
X138166198Y-94824300D01*
X138190923Y-94788990D01*
X138294366Y-94641257D01*
X138297523Y-94636749D01*
X138299846Y-94631767D01*
X138299849Y-94631762D01*
X138391961Y-94434225D01*
X138391961Y-94434224D01*
X138394284Y-94429243D01*
X138404150Y-94392425D01*
X138452119Y-94213402D01*
X138452119Y-94213400D01*
X138453543Y-94208087D01*
X138473498Y-93980000D01*
X138453543Y-93751913D01*
X138447593Y-93729707D01*
X138395707Y-93536067D01*
X138395706Y-93536065D01*
X138394284Y-93530757D01*
X138382092Y-93504610D01*
X138299849Y-93328238D01*
X138299846Y-93328233D01*
X138297523Y-93323251D01*
X138224098Y-93218389D01*
X138169357Y-93140211D01*
X138169355Y-93140208D01*
X138166198Y-93135700D01*
X138004300Y-92973802D01*
X137999792Y-92970645D01*
X137999789Y-92970643D01*
X137864780Y-92876109D01*
X137816749Y-92842477D01*
X137811767Y-92840154D01*
X137811762Y-92840151D01*
X137777543Y-92824195D01*
X137724258Y-92777278D01*
X137704797Y-92709001D01*
X137725339Y-92641041D01*
X137777543Y-92595805D01*
X137811762Y-92579849D01*
X137811767Y-92579846D01*
X137816749Y-92577523D01*
X137950069Y-92484171D01*
X137999789Y-92449357D01*
X137999792Y-92449355D01*
X138004300Y-92446198D01*
X138166198Y-92284300D01*
X138190923Y-92248990D01*
X138265784Y-92142077D01*
X138297523Y-92096749D01*
X138299846Y-92091767D01*
X138299849Y-92091762D01*
X138391961Y-91894225D01*
X138391961Y-91894224D01*
X138394284Y-91889243D01*
X138404150Y-91852425D01*
X138452119Y-91673402D01*
X138452119Y-91673400D01*
X138453543Y-91668087D01*
X138473498Y-91440000D01*
X138453543Y-91211913D01*
X138446600Y-91186000D01*
X138395707Y-90996067D01*
X138395706Y-90996065D01*
X138394284Y-90990757D01*
X138382092Y-90964610D01*
X138299849Y-90788238D01*
X138299846Y-90788233D01*
X138297523Y-90783251D01*
X138178260Y-90612926D01*
X138169357Y-90600211D01*
X138169355Y-90600208D01*
X138166198Y-90595700D01*
X138004300Y-90433802D01*
X137999792Y-90430645D01*
X137999789Y-90430643D01*
X137921611Y-90375902D01*
X137816749Y-90302477D01*
X137811767Y-90300154D01*
X137811762Y-90300151D01*
X137777543Y-90284195D01*
X137724258Y-90237278D01*
X137704797Y-90169001D01*
X137725339Y-90101041D01*
X137777543Y-90055805D01*
X137811762Y-90039849D01*
X137811767Y-90039846D01*
X137816749Y-90037523D01*
X137950069Y-89944171D01*
X137999789Y-89909357D01*
X137999792Y-89909355D01*
X138004300Y-89906198D01*
X138166198Y-89744300D01*
X138190923Y-89708990D01*
X138265784Y-89602077D01*
X138297523Y-89556749D01*
X138299846Y-89551767D01*
X138299849Y-89551762D01*
X138391961Y-89354225D01*
X138391961Y-89354224D01*
X138394284Y-89349243D01*
X138404150Y-89312425D01*
X138452119Y-89133402D01*
X138452119Y-89133400D01*
X138453543Y-89128087D01*
X138473498Y-88900000D01*
X138453543Y-88671913D01*
X138446600Y-88646000D01*
X138395707Y-88456067D01*
X138395706Y-88456065D01*
X138394284Y-88450757D01*
X138382092Y-88424610D01*
X138299849Y-88248238D01*
X138299846Y-88248233D01*
X138297523Y-88243251D01*
X138178260Y-88072926D01*
X138169357Y-88060211D01*
X138169355Y-88060208D01*
X138166198Y-88055700D01*
X138004300Y-87893802D01*
X137999792Y-87890645D01*
X137999789Y-87890643D01*
X137921611Y-87835902D01*
X137816749Y-87762477D01*
X137811767Y-87760154D01*
X137811762Y-87760151D01*
X137777543Y-87744195D01*
X137724258Y-87697278D01*
X137704797Y-87629001D01*
X137725339Y-87561041D01*
X137777543Y-87515805D01*
X137811762Y-87499849D01*
X137811767Y-87499846D01*
X137816749Y-87497523D01*
X137950069Y-87404171D01*
X137999789Y-87369357D01*
X137999792Y-87369355D01*
X138004300Y-87366198D01*
X138166198Y-87204300D01*
X138190923Y-87168990D01*
X138265784Y-87062077D01*
X138297523Y-87016749D01*
X138299846Y-87011767D01*
X138299849Y-87011762D01*
X138391961Y-86814225D01*
X138391961Y-86814224D01*
X138394284Y-86809243D01*
X138404150Y-86772425D01*
X138452119Y-86593402D01*
X138452119Y-86593400D01*
X138453543Y-86588087D01*
X138473498Y-86360000D01*
X138453543Y-86131913D01*
X138446600Y-86106000D01*
X138395707Y-85916067D01*
X138395706Y-85916065D01*
X138394284Y-85910757D01*
X138382092Y-85884610D01*
X138299849Y-85708238D01*
X138299846Y-85708233D01*
X138297523Y-85703251D01*
X138178260Y-85532926D01*
X138169357Y-85520211D01*
X138169355Y-85520208D01*
X138166198Y-85515700D01*
X138004300Y-85353802D01*
X137999792Y-85350645D01*
X137999789Y-85350643D01*
X137921611Y-85295902D01*
X137816749Y-85222477D01*
X137811767Y-85220154D01*
X137811762Y-85220151D01*
X137777543Y-85204195D01*
X137724258Y-85157278D01*
X137704797Y-85089001D01*
X137725339Y-85021041D01*
X137777543Y-84975805D01*
X137811762Y-84959849D01*
X137811767Y-84959846D01*
X137816749Y-84957523D01*
X137950069Y-84864171D01*
X137999789Y-84829357D01*
X137999792Y-84829355D01*
X138004300Y-84826198D01*
X138166198Y-84664300D01*
X138190923Y-84628990D01*
X138265784Y-84522077D01*
X138297523Y-84476749D01*
X138299846Y-84471767D01*
X138299849Y-84471762D01*
X138391961Y-84274225D01*
X138391961Y-84274224D01*
X138394284Y-84269243D01*
X138404150Y-84232425D01*
X138452119Y-84053402D01*
X138452119Y-84053400D01*
X138453543Y-84048087D01*
X138473498Y-83820000D01*
X138453543Y-83591913D01*
X138446600Y-83566000D01*
X138395707Y-83376067D01*
X138395706Y-83376065D01*
X138394284Y-83370757D01*
X138382092Y-83344610D01*
X138299849Y-83168238D01*
X138299846Y-83168233D01*
X138297523Y-83163251D01*
X138178260Y-82992926D01*
X138169357Y-82980211D01*
X138169355Y-82980208D01*
X138166198Y-82975700D01*
X138004300Y-82813802D01*
X137999789Y-82810643D01*
X137995576Y-82807108D01*
X137996527Y-82805974D01*
X137956529Y-82755929D01*
X137949224Y-82685310D01*
X137981258Y-82621951D01*
X138042462Y-82585970D01*
X138059517Y-82582918D01*
X138070316Y-82581745D01*
X138206705Y-82530615D01*
X138323261Y-82443261D01*
X138410615Y-82326705D01*
X138461745Y-82190316D01*
X138468500Y-82128134D01*
X138468500Y-80431866D01*
X138461745Y-80369684D01*
X138410615Y-80233295D01*
X138323261Y-80116739D01*
X138206705Y-80029385D01*
X138070316Y-79978255D01*
X138008134Y-79971500D01*
X136311866Y-79971500D01*
X136249684Y-79978255D01*
X136113295Y-80029385D01*
X135996739Y-80116739D01*
X135909385Y-80233295D01*
X135858255Y-80369684D01*
X135851500Y-80431866D01*
X135851500Y-82128134D01*
X135858255Y-82190316D01*
X135909385Y-82326705D01*
X135996739Y-82443261D01*
X136113295Y-82530615D01*
X136249684Y-82581745D01*
X136260474Y-82582917D01*
X136262606Y-82583803D01*
X136265222Y-82584425D01*
X136265121Y-82584848D01*
X136326035Y-82610155D01*
X136366463Y-82668517D01*
X136368922Y-82739471D01*
X136332629Y-82800490D01*
X136323969Y-82807489D01*
X136320207Y-82810646D01*
X136315700Y-82813802D01*
X136153802Y-82975700D01*
X136150645Y-82980208D01*
X136150643Y-82980211D01*
X136141740Y-82992926D01*
X136022477Y-83163251D01*
X136020154Y-83168233D01*
X136020151Y-83168238D01*
X135937908Y-83344610D01*
X135925716Y-83370757D01*
X135924294Y-83376065D01*
X135924293Y-83376067D01*
X135873400Y-83566000D01*
X135866457Y-83591913D01*
X135846502Y-83820000D01*
X135866457Y-84048087D01*
X135867881Y-84053400D01*
X135867881Y-84053402D01*
X135915851Y-84232425D01*
X135925716Y-84269243D01*
X135928039Y-84274224D01*
X135928039Y-84274225D01*
X136020151Y-84471762D01*
X136020154Y-84471767D01*
X136022477Y-84476749D01*
X136054216Y-84522077D01*
X136129078Y-84628990D01*
X136153802Y-84664300D01*
X136315700Y-84826198D01*
X136320208Y-84829355D01*
X136320211Y-84829357D01*
X136369931Y-84864171D01*
X136503251Y-84957523D01*
X136508233Y-84959846D01*
X136508238Y-84959849D01*
X136542457Y-84975805D01*
X136595742Y-85022722D01*
X136615203Y-85090999D01*
X136594661Y-85158959D01*
X136542457Y-85204195D01*
X136508238Y-85220151D01*
X136508233Y-85220154D01*
X136503251Y-85222477D01*
X136398389Y-85295902D01*
X136320211Y-85350643D01*
X136320208Y-85350645D01*
X136315700Y-85353802D01*
X136153802Y-85515700D01*
X136150645Y-85520208D01*
X136150643Y-85520211D01*
X136141740Y-85532926D01*
X136022477Y-85703251D01*
X136020154Y-85708233D01*
X136020151Y-85708238D01*
X135937908Y-85884610D01*
X135925716Y-85910757D01*
X135924294Y-85916065D01*
X135924293Y-85916067D01*
X135873400Y-86106000D01*
X135866457Y-86131913D01*
X135846502Y-86360000D01*
X135866457Y-86588087D01*
X135867881Y-86593400D01*
X135867881Y-86593402D01*
X135915851Y-86772425D01*
X135925716Y-86809243D01*
X135928039Y-86814224D01*
X135928039Y-86814225D01*
X136020151Y-87011762D01*
X136020154Y-87011767D01*
X136022477Y-87016749D01*
X136054216Y-87062077D01*
X136129078Y-87168990D01*
X136153802Y-87204300D01*
X136315700Y-87366198D01*
X136320208Y-87369355D01*
X136320211Y-87369357D01*
X136369931Y-87404171D01*
X136503251Y-87497523D01*
X136508233Y-87499846D01*
X136508238Y-87499849D01*
X136542457Y-87515805D01*
X136595742Y-87562722D01*
X136615203Y-87630999D01*
X136594661Y-87698959D01*
X136542457Y-87744195D01*
X136508238Y-87760151D01*
X136508233Y-87760154D01*
X136503251Y-87762477D01*
X136398389Y-87835902D01*
X136320211Y-87890643D01*
X136320208Y-87890645D01*
X136315700Y-87893802D01*
X136153802Y-88055700D01*
X136150645Y-88060208D01*
X136150643Y-88060211D01*
X136141740Y-88072926D01*
X136022477Y-88243251D01*
X136020154Y-88248233D01*
X136020151Y-88248238D01*
X135937908Y-88424610D01*
X135925716Y-88450757D01*
X135924294Y-88456065D01*
X135924293Y-88456067D01*
X135873400Y-88646000D01*
X135866457Y-88671913D01*
X135846502Y-88900000D01*
X135866457Y-89128087D01*
X135867881Y-89133400D01*
X135867881Y-89133402D01*
X135915851Y-89312425D01*
X135925716Y-89349243D01*
X135928039Y-89354224D01*
X135928039Y-89354225D01*
X136020151Y-89551762D01*
X136020154Y-89551767D01*
X136022477Y-89556749D01*
X136054216Y-89602077D01*
X136129078Y-89708990D01*
X136153802Y-89744300D01*
X136315700Y-89906198D01*
X136320208Y-89909355D01*
X136320211Y-89909357D01*
X136369931Y-89944171D01*
X136503251Y-90037523D01*
X136508233Y-90039846D01*
X136508238Y-90039849D01*
X136542457Y-90055805D01*
X136595742Y-90102722D01*
X136615203Y-90170999D01*
X136594661Y-90238959D01*
X136542457Y-90284195D01*
X136508238Y-90300151D01*
X136508233Y-90300154D01*
X136503251Y-90302477D01*
X136398389Y-90375902D01*
X136320211Y-90430643D01*
X136320208Y-90430645D01*
X136315700Y-90433802D01*
X136153802Y-90595700D01*
X136150645Y-90600208D01*
X136150643Y-90600211D01*
X136141740Y-90612926D01*
X136022477Y-90783251D01*
X136020154Y-90788233D01*
X136020151Y-90788238D01*
X135937908Y-90964610D01*
X135925716Y-90990757D01*
X135924294Y-90996065D01*
X135924293Y-90996067D01*
X135873400Y-91186000D01*
X135866457Y-91211913D01*
X135846502Y-91440000D01*
X135866457Y-91668087D01*
X135867881Y-91673400D01*
X135867881Y-91673402D01*
X135915851Y-91852425D01*
X135925716Y-91889243D01*
X135928039Y-91894224D01*
X135928039Y-91894225D01*
X136020151Y-92091762D01*
X136020154Y-92091767D01*
X136022477Y-92096749D01*
X136054216Y-92142077D01*
X136129078Y-92248990D01*
X136153802Y-92284300D01*
X136315700Y-92446198D01*
X136320208Y-92449355D01*
X136320211Y-92449357D01*
X136369931Y-92484171D01*
X136503251Y-92577523D01*
X136508233Y-92579846D01*
X136508238Y-92579849D01*
X136542457Y-92595805D01*
X136595742Y-92642722D01*
X136615203Y-92710999D01*
X136594661Y-92778959D01*
X136542457Y-92824195D01*
X136508238Y-92840151D01*
X136508233Y-92840154D01*
X136503251Y-92842477D01*
X136455220Y-92876109D01*
X136320211Y-92970643D01*
X136320208Y-92970645D01*
X136315700Y-92973802D01*
X136153802Y-93135700D01*
X136150645Y-93140208D01*
X136150643Y-93140211D01*
X136095902Y-93218389D01*
X136022477Y-93323251D01*
X136020154Y-93328233D01*
X136020151Y-93328238D01*
X135937908Y-93504610D01*
X135925716Y-93530757D01*
X135924294Y-93536065D01*
X135924293Y-93536067D01*
X135872407Y-93729707D01*
X135866457Y-93751913D01*
X135846502Y-93980000D01*
X135866457Y-94208087D01*
X135867881Y-94213400D01*
X135867881Y-94213402D01*
X135915851Y-94392425D01*
X135925716Y-94429243D01*
X135928039Y-94434224D01*
X135928039Y-94434225D01*
X136020151Y-94631762D01*
X136020154Y-94631767D01*
X136022477Y-94636749D01*
X136025634Y-94641257D01*
X136129078Y-94788990D01*
X136153802Y-94824300D01*
X136315700Y-94986198D01*
X136320208Y-94989355D01*
X136320211Y-94989357D01*
X136360445Y-95017529D01*
X136503251Y-95117523D01*
X136508233Y-95119846D01*
X136508238Y-95119849D01*
X136542457Y-95135805D01*
X136595742Y-95182722D01*
X136615203Y-95250999D01*
X136594661Y-95318959D01*
X136542457Y-95364195D01*
X136508238Y-95380151D01*
X136508233Y-95380154D01*
X136503251Y-95382477D01*
X136398389Y-95455902D01*
X136320211Y-95510643D01*
X136320208Y-95510645D01*
X136315700Y-95513802D01*
X136153802Y-95675700D01*
X136150645Y-95680208D01*
X136150643Y-95680211D01*
X136095902Y-95758389D01*
X136022477Y-95863251D01*
X136020154Y-95868233D01*
X136020151Y-95868238D01*
X135937908Y-96044610D01*
X135925716Y-96070757D01*
X135924294Y-96076065D01*
X135924293Y-96076067D01*
X135872407Y-96269707D01*
X135866457Y-96291913D01*
X135846502Y-96520000D01*
X119634000Y-96520000D01*
X119634000Y-91707966D01*
X125668257Y-91707966D01*
X125698565Y-91842446D01*
X125701645Y-91852275D01*
X125781770Y-92049603D01*
X125786413Y-92058794D01*
X125897694Y-92240388D01*
X125903777Y-92248699D01*
X126043213Y-92409667D01*
X126050580Y-92416883D01*
X126214434Y-92552916D01*
X126222881Y-92558831D01*
X126406756Y-92666279D01*
X126416042Y-92670729D01*
X126615001Y-92746703D01*
X126624899Y-92749579D01*
X126728250Y-92770606D01*
X126742299Y-92769410D01*
X126746000Y-92759065D01*
X126746000Y-92758517D01*
X127254000Y-92758517D01*
X127258064Y-92772359D01*
X127271478Y-92774393D01*
X127278184Y-92773534D01*
X127288262Y-92771392D01*
X127492255Y-92710191D01*
X127501842Y-92706433D01*
X127693095Y-92612739D01*
X127701945Y-92607464D01*
X127875328Y-92483792D01*
X127883200Y-92477139D01*
X128034052Y-92326812D01*
X128040730Y-92318965D01*
X128168022Y-92141819D01*
X128169279Y-92142722D01*
X128216373Y-92099362D01*
X128286311Y-92087145D01*
X128351751Y-92114678D01*
X128379579Y-92146511D01*
X128439987Y-92245088D01*
X128586250Y-92413938D01*
X128590230Y-92417242D01*
X128594981Y-92421187D01*
X128634616Y-92480090D01*
X128636113Y-92551071D01*
X128598997Y-92611593D01*
X128558725Y-92636112D01*
X128478255Y-92666279D01*
X128443295Y-92679385D01*
X128326739Y-92766739D01*
X128239385Y-92883295D01*
X128188255Y-93019684D01*
X128181500Y-93081866D01*
X128181500Y-94878134D01*
X128188255Y-94940316D01*
X128239385Y-95076705D01*
X128326739Y-95193261D01*
X128443295Y-95280615D01*
X128579684Y-95331745D01*
X128641866Y-95338500D01*
X130438134Y-95338500D01*
X130500316Y-95331745D01*
X130636705Y-95280615D01*
X130734436Y-95207370D01*
X130800941Y-95182522D01*
X130870324Y-95197575D01*
X130885562Y-95207368D01*
X130983295Y-95280615D01*
X131119684Y-95331745D01*
X131181866Y-95338500D01*
X132978134Y-95338500D01*
X133040316Y-95331745D01*
X133176705Y-95280615D01*
X133293261Y-95193261D01*
X133380615Y-95076705D01*
X133431745Y-94940316D01*
X133438500Y-94878134D01*
X133438500Y-93081866D01*
X133431745Y-93019684D01*
X133380615Y-92883295D01*
X133293261Y-92766739D01*
X133176705Y-92679385D01*
X133040316Y-92628255D01*
X132978134Y-92621500D01*
X132839500Y-92621500D01*
X132771379Y-92601498D01*
X132724886Y-92547842D01*
X132713500Y-92495500D01*
X132713500Y-87640427D01*
X132733502Y-87572306D01*
X132774618Y-87532550D01*
X132777994Y-87530896D01*
X132959860Y-87401173D01*
X132991788Y-87369357D01*
X133114435Y-87247137D01*
X133118096Y-87243489D01*
X133149498Y-87199789D01*
X133245435Y-87066277D01*
X133248453Y-87062077D01*
X133261995Y-87034678D01*
X133345136Y-86866453D01*
X133345137Y-86866451D01*
X133347430Y-86861811D01*
X133412370Y-86648069D01*
X133441529Y-86426590D01*
X133443156Y-86360000D01*
X133424852Y-86137361D01*
X133370431Y-85920702D01*
X133281354Y-85715840D01*
X133160014Y-85528277D01*
X133009670Y-85363051D01*
X133005619Y-85359852D01*
X133005615Y-85359848D01*
X132838414Y-85227800D01*
X132838410Y-85227798D01*
X132834359Y-85224598D01*
X132793053Y-85201796D01*
X132743084Y-85151364D01*
X132728312Y-85081921D01*
X132753428Y-85015516D01*
X132780780Y-84988909D01*
X132829207Y-84954366D01*
X132959860Y-84861173D01*
X132991788Y-84829357D01*
X133114435Y-84707137D01*
X133118096Y-84703489D01*
X133149498Y-84659789D01*
X133245435Y-84526277D01*
X133248453Y-84522077D01*
X133261995Y-84494678D01*
X133345136Y-84326453D01*
X133345137Y-84326451D01*
X133347430Y-84321811D01*
X133412370Y-84108069D01*
X133441529Y-83886590D01*
X133443156Y-83820000D01*
X133424852Y-83597361D01*
X133370431Y-83380702D01*
X133281354Y-83175840D01*
X133160014Y-82988277D01*
X133140405Y-82966727D01*
X133012798Y-82826488D01*
X132981746Y-82762642D01*
X132990141Y-82692143D01*
X133035317Y-82637375D01*
X133061761Y-82623706D01*
X133168297Y-82583767D01*
X133176705Y-82580615D01*
X133293261Y-82493261D01*
X133380615Y-82376705D01*
X133431745Y-82240316D01*
X133438500Y-82178134D01*
X133438500Y-80381866D01*
X133431745Y-80319684D01*
X133380615Y-80183295D01*
X133293261Y-80066739D01*
X133176705Y-79979385D01*
X133040316Y-79928255D01*
X132978134Y-79921500D01*
X132914500Y-79921500D01*
X132846379Y-79901498D01*
X132799886Y-79847842D01*
X132788500Y-79795500D01*
X132788500Y-77684500D01*
X132808502Y-77616379D01*
X132862158Y-77569886D01*
X132914500Y-77558500D01*
X132978134Y-77558500D01*
X133040316Y-77551745D01*
X133176705Y-77500615D01*
X133293261Y-77413261D01*
X133380615Y-77296705D01*
X133431745Y-77160316D01*
X133438500Y-77098134D01*
X133438500Y-76466522D01*
X135997273Y-76466522D01*
X136044764Y-76643761D01*
X136048510Y-76654053D01*
X136140586Y-76851511D01*
X136146069Y-76861007D01*
X136271028Y-77039467D01*
X136278084Y-77047875D01*
X136432125Y-77201916D01*
X136440533Y-77208972D01*
X136618993Y-77333931D01*
X136628489Y-77339414D01*
X136825947Y-77431490D01*
X136836239Y-77435236D01*
X137008503Y-77481394D01*
X137022599Y-77481058D01*
X137026000Y-77473116D01*
X137026000Y-77467967D01*
X137534000Y-77467967D01*
X137537973Y-77481498D01*
X137546522Y-77482727D01*
X137723761Y-77435236D01*
X137734053Y-77431490D01*
X137931511Y-77339414D01*
X137941007Y-77333931D01*
X138119467Y-77208972D01*
X138127875Y-77201916D01*
X138281916Y-77047875D01*
X138288972Y-77039467D01*
X138413931Y-76861007D01*
X138419414Y-76851511D01*
X138511490Y-76654053D01*
X138515236Y-76643761D01*
X138561394Y-76471497D01*
X138561058Y-76457401D01*
X138553116Y-76454000D01*
X137552115Y-76454000D01*
X137536876Y-76458475D01*
X137535671Y-76459865D01*
X137534000Y-76467548D01*
X137534000Y-77467967D01*
X137026000Y-77467967D01*
X137026000Y-76472115D01*
X137021525Y-76456876D01*
X137020135Y-76455671D01*
X137012452Y-76454000D01*
X136012033Y-76454000D01*
X135998502Y-76457973D01*
X135997273Y-76466522D01*
X133438500Y-76466522D01*
X133438500Y-75928503D01*
X135998606Y-75928503D01*
X135998942Y-75942599D01*
X136006884Y-75946000D01*
X137007885Y-75946000D01*
X137023124Y-75941525D01*
X137024329Y-75940135D01*
X137026000Y-75932452D01*
X137026000Y-75927885D01*
X137534000Y-75927885D01*
X137538475Y-75943124D01*
X137539865Y-75944329D01*
X137547548Y-75946000D01*
X138547967Y-75946000D01*
X138561498Y-75942027D01*
X138562727Y-75933478D01*
X138515236Y-75756239D01*
X138511490Y-75745947D01*
X138419414Y-75548489D01*
X138413931Y-75538993D01*
X138288972Y-75360533D01*
X138281916Y-75352125D01*
X138127875Y-75198084D01*
X138119467Y-75191028D01*
X137941007Y-75066069D01*
X137931511Y-75060586D01*
X137734053Y-74968510D01*
X137723761Y-74964764D01*
X137551497Y-74918606D01*
X137537401Y-74918942D01*
X137534000Y-74926884D01*
X137534000Y-75927885D01*
X137026000Y-75927885D01*
X137026000Y-74932033D01*
X137022027Y-74918502D01*
X137013478Y-74917273D01*
X136836239Y-74964764D01*
X136825947Y-74968510D01*
X136628489Y-75060586D01*
X136618993Y-75066069D01*
X136440533Y-75191028D01*
X136432125Y-75198084D01*
X136278084Y-75352125D01*
X136271028Y-75360533D01*
X136146069Y-75538993D01*
X136140586Y-75548489D01*
X136048510Y-75745947D01*
X136044764Y-75756239D01*
X135998606Y-75928503D01*
X133438500Y-75928503D01*
X133438500Y-75301866D01*
X133431745Y-75239684D01*
X133380615Y-75103295D01*
X133293261Y-74986739D01*
X133176705Y-74899385D01*
X133040316Y-74848255D01*
X132978134Y-74841500D01*
X131181866Y-74841500D01*
X131119684Y-74848255D01*
X130983295Y-74899385D01*
X130866739Y-74986739D01*
X130779385Y-75103295D01*
X130776233Y-75111703D01*
X130776232Y-75111705D01*
X130734722Y-75222433D01*
X130692081Y-75279198D01*
X130625519Y-75303898D01*
X130556170Y-75288691D01*
X130523546Y-75263004D01*
X130472799Y-75207234D01*
X130465273Y-75200215D01*
X130298139Y-75068222D01*
X130289552Y-75062517D01*
X130103117Y-74959599D01*
X130093705Y-74955369D01*
X129892959Y-74884280D01*
X129882988Y-74881646D01*
X129811837Y-74868972D01*
X129798540Y-74870432D01*
X129794000Y-74884989D01*
X129794000Y-77518517D01*
X129798064Y-77532359D01*
X129811478Y-77534393D01*
X129818184Y-77533534D01*
X129828262Y-77531392D01*
X130032255Y-77470191D01*
X130041842Y-77466433D01*
X130233095Y-77372739D01*
X130241945Y-77367464D01*
X130415328Y-77243792D01*
X130423193Y-77237145D01*
X130527897Y-77132805D01*
X130590268Y-77098889D01*
X130661075Y-77104077D01*
X130717837Y-77146723D01*
X130734819Y-77177826D01*
X130779385Y-77296705D01*
X130866739Y-77413261D01*
X130983295Y-77500615D01*
X131119684Y-77551745D01*
X131181866Y-77558500D01*
X131245500Y-77558500D01*
X131313621Y-77578502D01*
X131360114Y-77632158D01*
X131371500Y-77684500D01*
X131371500Y-79795500D01*
X131351498Y-79863621D01*
X131297842Y-79910114D01*
X131245500Y-79921500D01*
X131181866Y-79921500D01*
X131119684Y-79928255D01*
X130983295Y-79979385D01*
X130866739Y-80066739D01*
X130779385Y-80183295D01*
X130776233Y-80191703D01*
X130734919Y-80301907D01*
X130692277Y-80358671D01*
X130625716Y-80383371D01*
X130556367Y-80368163D01*
X130523743Y-80342476D01*
X130473151Y-80286875D01*
X130473142Y-80286866D01*
X130469670Y-80283051D01*
X130465619Y-80279852D01*
X130465615Y-80279848D01*
X130298414Y-80147800D01*
X130298410Y-80147798D01*
X130294359Y-80144598D01*
X130098789Y-80036638D01*
X130093920Y-80034914D01*
X130093916Y-80034912D01*
X129893087Y-79963795D01*
X129893083Y-79963794D01*
X129888212Y-79962069D01*
X129883119Y-79961162D01*
X129883116Y-79961161D01*
X129673373Y-79923800D01*
X129673367Y-79923799D01*
X129668284Y-79922894D01*
X129594452Y-79921992D01*
X129450081Y-79920228D01*
X129450079Y-79920228D01*
X129444911Y-79920165D01*
X129224091Y-79953955D01*
X129011756Y-80023357D01*
X128813607Y-80126507D01*
X128809474Y-80129610D01*
X128809471Y-80129612D01*
X128660180Y-80241703D01*
X128634965Y-80260635D01*
X128631393Y-80264373D01*
X128553898Y-80345466D01*
X128492374Y-80380895D01*
X128421462Y-80377438D01*
X128363676Y-80336192D01*
X128344823Y-80302644D01*
X128303324Y-80191946D01*
X128294786Y-80176351D01*
X128218285Y-80074276D01*
X128205724Y-80061715D01*
X128103649Y-79985214D01*
X128088054Y-79976676D01*
X127967606Y-79931522D01*
X127952351Y-79927895D01*
X127901486Y-79922369D01*
X127894672Y-79922000D01*
X127272115Y-79922000D01*
X127256876Y-79926475D01*
X127255671Y-79927865D01*
X127254000Y-79935548D01*
X127254000Y-92758517D01*
X126746000Y-92758517D01*
X126746000Y-91712115D01*
X126741525Y-91696876D01*
X126740135Y-91695671D01*
X126732452Y-91694000D01*
X125683225Y-91694000D01*
X125669694Y-91697973D01*
X125668257Y-91707966D01*
X119634000Y-91707966D01*
X119634000Y-91174183D01*
X125664389Y-91174183D01*
X125665912Y-91182607D01*
X125678292Y-91186000D01*
X126727885Y-91186000D01*
X126743124Y-91181525D01*
X126744329Y-91180135D01*
X126746000Y-91172452D01*
X126746000Y-89172115D01*
X126741525Y-89156876D01*
X126740135Y-89155671D01*
X126732452Y-89154000D01*
X125683225Y-89154000D01*
X125669694Y-89157973D01*
X125668257Y-89167966D01*
X125698565Y-89302446D01*
X125701645Y-89312275D01*
X125781770Y-89509603D01*
X125786413Y-89518794D01*
X125897694Y-89700388D01*
X125903777Y-89708699D01*
X126043213Y-89869667D01*
X126050580Y-89876883D01*
X126214434Y-90012916D01*
X126222881Y-90018831D01*
X126292479Y-90059501D01*
X126341203Y-90111140D01*
X126354274Y-90180923D01*
X126327543Y-90246694D01*
X126287087Y-90280053D01*
X126278462Y-90284542D01*
X126269738Y-90290036D01*
X126099433Y-90417905D01*
X126091726Y-90424748D01*
X125944590Y-90578717D01*
X125938104Y-90586727D01*
X125818098Y-90762649D01*
X125813000Y-90771623D01*
X125723338Y-90964783D01*
X125719775Y-90974470D01*
X125664389Y-91174183D01*
X119634000Y-91174183D01*
X119634000Y-88634183D01*
X125664389Y-88634183D01*
X125665912Y-88642607D01*
X125678292Y-88646000D01*
X126727885Y-88646000D01*
X126743124Y-88641525D01*
X126744329Y-88640135D01*
X126746000Y-88632452D01*
X126746000Y-86632115D01*
X126741525Y-86616876D01*
X126740135Y-86615671D01*
X126732452Y-86614000D01*
X125683225Y-86614000D01*
X125669694Y-86617973D01*
X125668257Y-86627966D01*
X125698565Y-86762446D01*
X125701645Y-86772275D01*
X125781770Y-86969603D01*
X125786413Y-86978794D01*
X125897694Y-87160388D01*
X125903777Y-87168699D01*
X126043213Y-87329667D01*
X126050580Y-87336883D01*
X126214434Y-87472916D01*
X126222881Y-87478831D01*
X126292479Y-87519501D01*
X126341203Y-87571140D01*
X126354274Y-87640923D01*
X126327543Y-87706694D01*
X126287087Y-87740053D01*
X126278462Y-87744542D01*
X126269738Y-87750036D01*
X126099433Y-87877905D01*
X126091726Y-87884748D01*
X125944590Y-88038717D01*
X125938104Y-88046727D01*
X125818098Y-88222649D01*
X125813000Y-88231623D01*
X125723338Y-88424783D01*
X125719775Y-88434470D01*
X125664389Y-88634183D01*
X119634000Y-88634183D01*
X119634000Y-86094183D01*
X125664389Y-86094183D01*
X125665912Y-86102607D01*
X125678292Y-86106000D01*
X126727885Y-86106000D01*
X126743124Y-86101525D01*
X126744329Y-86100135D01*
X126746000Y-86092452D01*
X126746000Y-84092115D01*
X126741525Y-84076876D01*
X126740135Y-84075671D01*
X126732452Y-84074000D01*
X125683225Y-84074000D01*
X125669694Y-84077973D01*
X125668257Y-84087966D01*
X125698565Y-84222446D01*
X125701645Y-84232275D01*
X125781770Y-84429603D01*
X125786413Y-84438794D01*
X125897694Y-84620388D01*
X125903777Y-84628699D01*
X126043213Y-84789667D01*
X126050580Y-84796883D01*
X126214434Y-84932916D01*
X126222881Y-84938831D01*
X126292479Y-84979501D01*
X126341203Y-85031140D01*
X126354274Y-85100923D01*
X126327543Y-85166694D01*
X126287087Y-85200053D01*
X126278462Y-85204542D01*
X126269738Y-85210036D01*
X126099433Y-85337905D01*
X126091726Y-85344748D01*
X125944590Y-85498717D01*
X125938104Y-85506727D01*
X125818098Y-85682649D01*
X125813000Y-85691623D01*
X125723338Y-85884783D01*
X125719775Y-85894470D01*
X125664389Y-86094183D01*
X119634000Y-86094183D01*
X119634000Y-82174669D01*
X125642001Y-82174669D01*
X125642371Y-82181490D01*
X125647895Y-82232352D01*
X125651521Y-82247604D01*
X125696676Y-82368054D01*
X125705214Y-82383649D01*
X125781715Y-82485724D01*
X125794276Y-82498285D01*
X125896351Y-82574786D01*
X125911946Y-82583324D01*
X126021337Y-82624333D01*
X126078101Y-82666975D01*
X126102801Y-82733536D01*
X126087594Y-82802885D01*
X126068201Y-82829366D01*
X125944590Y-82958717D01*
X125938104Y-82966727D01*
X125818098Y-83142649D01*
X125813000Y-83151623D01*
X125723338Y-83344783D01*
X125719775Y-83354470D01*
X125664389Y-83554183D01*
X125665912Y-83562607D01*
X125678292Y-83566000D01*
X126727885Y-83566000D01*
X126743124Y-83561525D01*
X126744329Y-83560135D01*
X126746000Y-83552452D01*
X126746000Y-81552115D01*
X126741525Y-81536876D01*
X126740135Y-81535671D01*
X126732452Y-81534000D01*
X125660116Y-81534000D01*
X125644877Y-81538475D01*
X125643672Y-81539865D01*
X125642001Y-81547548D01*
X125642001Y-82174669D01*
X119634000Y-82174669D01*
X119634000Y-81007885D01*
X125642000Y-81007885D01*
X125646475Y-81023124D01*
X125647865Y-81024329D01*
X125655548Y-81026000D01*
X126727885Y-81026000D01*
X126743124Y-81021525D01*
X126744329Y-81020135D01*
X126746000Y-81012452D01*
X126746000Y-79940116D01*
X126741525Y-79924877D01*
X126740135Y-79923672D01*
X126732452Y-79922001D01*
X126105331Y-79922001D01*
X126098510Y-79922371D01*
X126047648Y-79927895D01*
X126032396Y-79931521D01*
X125911946Y-79976676D01*
X125896351Y-79985214D01*
X125794276Y-80061715D01*
X125781715Y-80074276D01*
X125705214Y-80176351D01*
X125696676Y-80191946D01*
X125651522Y-80312394D01*
X125647895Y-80327649D01*
X125642369Y-80378514D01*
X125642000Y-80385328D01*
X125642000Y-81007885D01*
X119634000Y-81007885D01*
X119634000Y-76467966D01*
X128208257Y-76467966D01*
X128238565Y-76602446D01*
X128241645Y-76612275D01*
X128321770Y-76809603D01*
X128326413Y-76818794D01*
X128437694Y-77000388D01*
X128443777Y-77008699D01*
X128583213Y-77169667D01*
X128590580Y-77176883D01*
X128754434Y-77312916D01*
X128762881Y-77318831D01*
X128946756Y-77426279D01*
X128956042Y-77430729D01*
X129155001Y-77506703D01*
X129164899Y-77509579D01*
X129268250Y-77530606D01*
X129282299Y-77529410D01*
X129286000Y-77519065D01*
X129286000Y-76472115D01*
X129281525Y-76456876D01*
X129280135Y-76455671D01*
X129272452Y-76454000D01*
X128223225Y-76454000D01*
X128209694Y-76457973D01*
X128208257Y-76467966D01*
X119634000Y-76467966D01*
X119634000Y-74046703D01*
X120826743Y-74046703D01*
X120864268Y-74331734D01*
X120940129Y-74609036D01*
X120941813Y-74612984D01*
X121050490Y-74867771D01*
X121052923Y-74873476D01*
X121071653Y-74904771D01*
X121168188Y-75066069D01*
X121200561Y-75120161D01*
X121380313Y-75344528D01*
X121397179Y-75360533D01*
X121585237Y-75538993D01*
X121588851Y-75542423D01*
X121822317Y-75710186D01*
X121826112Y-75712195D01*
X121826113Y-75712196D01*
X121847869Y-75723715D01*
X122076392Y-75844712D01*
X122100699Y-75853607D01*
X122342318Y-75942027D01*
X122346373Y-75943511D01*
X122627264Y-76004755D01*
X122655841Y-76007004D01*
X122850282Y-76022307D01*
X122850291Y-76022307D01*
X122852739Y-76022500D01*
X123008271Y-76022500D01*
X123010407Y-76022354D01*
X123010418Y-76022354D01*
X123218548Y-76008165D01*
X123218554Y-76008164D01*
X123222825Y-76007873D01*
X123227020Y-76007004D01*
X123227022Y-76007004D01*
X123396470Y-75971913D01*
X123504342Y-75949574D01*
X123547805Y-75934183D01*
X128204389Y-75934183D01*
X128205912Y-75942607D01*
X128218292Y-75946000D01*
X129267885Y-75946000D01*
X129283124Y-75941525D01*
X129284329Y-75940135D01*
X129286000Y-75932452D01*
X129286000Y-74883102D01*
X129282082Y-74869758D01*
X129267806Y-74867771D01*
X129229324Y-74873660D01*
X129219288Y-74876051D01*
X129016868Y-74942212D01*
X129007359Y-74946209D01*
X128818463Y-75044542D01*
X128809738Y-75050036D01*
X128639433Y-75177905D01*
X128631726Y-75184748D01*
X128484590Y-75338717D01*
X128478104Y-75346727D01*
X128358098Y-75522649D01*
X128353000Y-75531623D01*
X128263338Y-75724783D01*
X128259775Y-75734470D01*
X128204389Y-75934183D01*
X123547805Y-75934183D01*
X123775343Y-75853607D01*
X124030812Y-75721750D01*
X124034313Y-75719289D01*
X124034317Y-75719287D01*
X124148418Y-75639095D01*
X124266023Y-75556441D01*
X124476622Y-75360740D01*
X124658713Y-75138268D01*
X124808927Y-74893142D01*
X124811632Y-74886981D01*
X124922757Y-74633830D01*
X124924483Y-74629898D01*
X125003244Y-74353406D01*
X125043751Y-74068784D01*
X125043845Y-74050951D01*
X125043867Y-74046703D01*
X148004743Y-74046703D01*
X148042268Y-74331734D01*
X148118129Y-74609036D01*
X148119813Y-74612984D01*
X148228490Y-74867771D01*
X148230923Y-74873476D01*
X148249653Y-74904771D01*
X148346188Y-75066069D01*
X148378561Y-75120161D01*
X148558313Y-75344528D01*
X148575179Y-75360533D01*
X148763237Y-75538993D01*
X148766851Y-75542423D01*
X149000317Y-75710186D01*
X149004112Y-75712195D01*
X149004113Y-75712196D01*
X149025869Y-75723715D01*
X149254392Y-75844712D01*
X149278699Y-75853607D01*
X149520318Y-75942027D01*
X149524373Y-75943511D01*
X149805264Y-76004755D01*
X149833841Y-76007004D01*
X150028282Y-76022307D01*
X150028291Y-76022307D01*
X150030739Y-76022500D01*
X150186271Y-76022500D01*
X150188407Y-76022354D01*
X150188418Y-76022354D01*
X150396548Y-76008165D01*
X150396554Y-76008164D01*
X150400825Y-76007873D01*
X150405020Y-76007004D01*
X150405022Y-76007004D01*
X150574470Y-75971913D01*
X150682342Y-75949574D01*
X150953343Y-75853607D01*
X151208812Y-75721750D01*
X151212313Y-75719289D01*
X151212317Y-75719287D01*
X151326418Y-75639095D01*
X151444023Y-75556441D01*
X151654622Y-75360740D01*
X151836713Y-75138268D01*
X151986927Y-74893142D01*
X151989632Y-74886981D01*
X152100757Y-74633830D01*
X152102483Y-74629898D01*
X152181244Y-74353406D01*
X152221751Y-74068784D01*
X152221845Y-74050951D01*
X152223235Y-73785583D01*
X152223235Y-73785576D01*
X152223257Y-73781297D01*
X152185732Y-73496266D01*
X152109871Y-73218964D01*
X152099295Y-73194170D01*
X151998763Y-72958476D01*
X151998761Y-72958472D01*
X151997077Y-72954524D01*
X151849439Y-72707839D01*
X151669687Y-72483472D01*
X151461149Y-72285577D01*
X151227683Y-72117814D01*
X151205843Y-72106250D01*
X151182654Y-72093972D01*
X150973608Y-71983288D01*
X150703627Y-71884489D01*
X150422736Y-71823245D01*
X150391685Y-71820801D01*
X150199718Y-71805693D01*
X150199709Y-71805693D01*
X150197261Y-71805500D01*
X150041729Y-71805500D01*
X150039593Y-71805646D01*
X150039582Y-71805646D01*
X149831452Y-71819835D01*
X149831446Y-71819836D01*
X149827175Y-71820127D01*
X149822980Y-71820996D01*
X149822978Y-71820996D01*
X149686417Y-71849276D01*
X149545658Y-71878426D01*
X149274657Y-71974393D01*
X149019188Y-72106250D01*
X149015687Y-72108711D01*
X149015683Y-72108713D01*
X149005594Y-72115804D01*
X148783977Y-72271559D01*
X148573378Y-72467260D01*
X148391287Y-72689732D01*
X148241073Y-72934858D01*
X148125517Y-73198102D01*
X148046756Y-73474594D01*
X148006249Y-73759216D01*
X148006227Y-73763505D01*
X148006226Y-73763512D01*
X148004765Y-74042417D01*
X148004743Y-74046703D01*
X125043867Y-74046703D01*
X125045235Y-73785583D01*
X125045235Y-73785576D01*
X125045257Y-73781297D01*
X125007732Y-73496266D01*
X124931871Y-73218964D01*
X124921295Y-73194170D01*
X124820763Y-72958476D01*
X124820761Y-72958472D01*
X124819077Y-72954524D01*
X124671439Y-72707839D01*
X124491687Y-72483472D01*
X124283149Y-72285577D01*
X124049683Y-72117814D01*
X124027843Y-72106250D01*
X124004654Y-72093972D01*
X123795608Y-71983288D01*
X123525627Y-71884489D01*
X123244736Y-71823245D01*
X123213685Y-71820801D01*
X123021718Y-71805693D01*
X123021709Y-71805693D01*
X123019261Y-71805500D01*
X122863729Y-71805500D01*
X122861593Y-71805646D01*
X122861582Y-71805646D01*
X122653452Y-71819835D01*
X122653446Y-71819836D01*
X122649175Y-71820127D01*
X122644980Y-71820996D01*
X122644978Y-71820996D01*
X122508417Y-71849276D01*
X122367658Y-71878426D01*
X122096657Y-71974393D01*
X121841188Y-72106250D01*
X121837687Y-72108711D01*
X121837683Y-72108713D01*
X121827594Y-72115804D01*
X121605977Y-72271559D01*
X121395378Y-72467260D01*
X121213287Y-72689732D01*
X121063073Y-72934858D01*
X120947517Y-73198102D01*
X120868756Y-73474594D01*
X120828249Y-73759216D01*
X120828227Y-73763505D01*
X120828226Y-73763512D01*
X120826765Y-74042417D01*
X120826743Y-74046703D01*
X119634000Y-74046703D01*
X119634000Y-73963328D01*
X119635500Y-73943943D01*
X119637805Y-73929142D01*
X119637805Y-73929139D01*
X119639186Y-73920270D01*
X119636743Y-73901589D01*
X119635852Y-73878657D01*
X119651743Y-73575446D01*
X119653121Y-73562329D01*
X119664241Y-73492124D01*
X119705123Y-73233998D01*
X119707865Y-73221098D01*
X119793903Y-72900000D01*
X119797979Y-72887456D01*
X119917105Y-72577124D01*
X119922469Y-72565076D01*
X120073388Y-72268880D01*
X120079982Y-72257459D01*
X120261033Y-71978666D01*
X120268779Y-71968004D01*
X120335214Y-71885964D01*
X120477985Y-71709655D01*
X120486810Y-71699855D01*
X120721855Y-71464810D01*
X120731656Y-71455984D01*
X120990004Y-71246779D01*
X121000666Y-71239033D01*
X121279464Y-71057979D01*
X121290880Y-71051388D01*
X121587076Y-70900469D01*
X121599124Y-70895105D01*
X121636642Y-70880703D01*
X121909464Y-70775977D01*
X121922000Y-70771903D01*
X122243098Y-70685865D01*
X122255998Y-70683123D01*
X122344715Y-70669072D01*
X122584335Y-70631120D01*
X122597443Y-70629743D01*
X122893334Y-70614236D01*
X122919312Y-70615564D01*
X122920856Y-70615805D01*
X122920860Y-70615805D01*
X122929730Y-70617186D01*
X122938632Y-70616022D01*
X122938635Y-70616022D01*
X122961251Y-70613064D01*
X122977589Y-70612000D01*
X150064672Y-70612000D01*
X150084057Y-70613500D01*
G37*
G04 #@! TD.AperFunction*
M02*
