G04 #@! TF.GenerationSoftware,KiCad,Pcbnew,(6.0.0)*
G04 #@! TF.CreationDate,2022-11-09T00:12:50-05:00*
G04 #@! TF.ProjectId,chip select multiplexer,63686970-2073-4656-9c65-6374206d756c,rev?*
G04 #@! TF.SameCoordinates,Original*
G04 #@! TF.FileFunction,Soldermask,Bot*
G04 #@! TF.FilePolarity,Negative*
%FSLAX46Y46*%
G04 Gerber Fmt 4.6, Leading zero omitted, Abs format (unit mm)*
G04 Created by KiCad (PCBNEW (6.0.0)) date 2022-11-09 00:12:50*
%MOMM*%
%LPD*%
G01*
G04 APERTURE LIST*
%ADD10R,1.700000X1.700000*%
%ADD11O,1.700000X1.700000*%
%ADD12C,3.200000*%
%ADD13R,1.600000X1.600000*%
%ADD14O,1.600000X1.600000*%
%ADD15C,1.600000*%
G04 APERTURE END LIST*
D10*
X127000000Y-81280000D03*
D11*
X127000000Y-83820000D03*
X127000000Y-86360000D03*
X127000000Y-88900000D03*
X127000000Y-91440000D03*
D10*
X132080000Y-81280000D03*
D11*
X132080000Y-83820000D03*
X132080000Y-86360000D03*
D12*
X150114000Y-73914000D03*
D10*
X129540000Y-93980000D03*
D11*
X129540000Y-91440000D03*
X129540000Y-88900000D03*
X129540000Y-86360000D03*
X129540000Y-83820000D03*
X129540000Y-81280000D03*
D10*
X132080000Y-93980000D03*
D13*
X137160000Y-81280000D03*
D14*
X137160000Y-83820000D03*
X137160000Y-86360000D03*
X137160000Y-88900000D03*
X137160000Y-91440000D03*
X137160000Y-93980000D03*
X137160000Y-96520000D03*
X137160000Y-99060000D03*
X144780000Y-99060000D03*
X144780000Y-96520000D03*
X144780000Y-93980000D03*
X144780000Y-91440000D03*
X144780000Y-88900000D03*
X144780000Y-86360000D03*
X144780000Y-83820000D03*
X144780000Y-81280000D03*
D15*
X144780000Y-76200000D03*
D14*
X137280000Y-76200000D03*
D12*
X122936000Y-73914000D03*
D10*
X132080000Y-76200000D03*
D11*
X129540000Y-76200000D03*
D10*
X149860000Y-81280000D03*
D11*
X149860000Y-83820000D03*
X149860000Y-86360000D03*
X149860000Y-88900000D03*
X149860000Y-91440000D03*
X149860000Y-93980000D03*
X149860000Y-96520000D03*
X149860000Y-99060000D03*
D12*
X122936000Y-104648000D03*
X150114000Y-104648000D03*
M02*
