G04 #@! TF.GenerationSoftware,KiCad,Pcbnew,(6.0.0)*
G04 #@! TF.CreationDate,2022-11-09T00:12:50-05:00*
G04 #@! TF.ProjectId,chip select multiplexer,63686970-2073-4656-9c65-6374206d756c,rev?*
G04 #@! TF.SameCoordinates,Original*
G04 #@! TF.FileFunction,Legend,Bot*
G04 #@! TF.FilePolarity,Positive*
%FSLAX46Y46*%
G04 Gerber Fmt 4.6, Leading zero omitted, Abs format (unit mm)*
G04 Created by KiCad (PCBNEW (6.0.0)) date 2022-11-09 00:12:50*
%MOMM*%
%LPD*%
G01*
G04 APERTURE LIST*
%ADD10C,0.150000*%
%ADD11R,1.700000X1.700000*%
%ADD12O,1.700000X1.700000*%
%ADD13C,3.200000*%
%ADD14R,1.600000X1.600000*%
%ADD15O,1.600000X1.600000*%
%ADD16C,1.600000*%
G04 APERTURE END LIST*
D10*
X144018000Y-82550000D02*
X145796000Y-82550000D01*
X141986000Y-92456000D02*
X144272000Y-92710000D01*
X145796000Y-90170000D02*
X148590000Y-91440000D01*
X143256000Y-80010000D02*
X146304000Y-80010000D01*
X143764000Y-82804000D02*
X144018000Y-82550000D01*
X141986000Y-95758000D02*
X143764000Y-97790000D01*
X145796000Y-92710000D02*
X148590000Y-93980000D01*
X141986000Y-87122000D02*
X144018000Y-85090000D01*
X141986000Y-90678000D02*
X144272000Y-90170000D01*
X141986000Y-88900000D02*
X144018000Y-87630000D01*
X145796000Y-85090000D02*
X148590000Y-86360000D01*
X141732000Y-93980000D02*
X144018000Y-95504000D01*
X143764000Y-97790000D02*
X145796000Y-97790000D01*
X144272000Y-90170000D02*
X145796000Y-90170000D01*
X146304000Y-80010000D02*
X148336000Y-81026000D01*
X144018000Y-85090000D02*
X145796000Y-85090000D01*
X141986000Y-84074000D02*
X143256000Y-80010000D01*
X145796000Y-97790000D02*
X148590000Y-99060000D01*
X145796000Y-95504000D02*
X148590000Y-96520000D01*
X145796000Y-87376000D02*
X148336000Y-88646000D01*
X144018000Y-87630000D02*
X145796000Y-87376000D01*
X141986000Y-85598000D02*
X143764000Y-82804000D01*
X144018000Y-95504000D02*
X145796000Y-95504000D01*
X144272000Y-92710000D02*
X145796000Y-92710000D01*
X145796000Y-82550000D02*
X148844000Y-83820000D01*
X141462000Y-83733380D02*
X141366761Y-83733380D01*
X141271523Y-83781000D01*
X141223904Y-83828619D01*
X141176285Y-83923857D01*
X141128666Y-84114333D01*
X141128666Y-84352428D01*
X141176285Y-84542904D01*
X141223904Y-84638142D01*
X141271523Y-84685761D01*
X141366761Y-84733380D01*
X141462000Y-84733380D01*
X141557238Y-84685761D01*
X141604857Y-84638142D01*
X141652476Y-84542904D01*
X141700095Y-84352428D01*
X141700095Y-84114333D01*
X141652476Y-83923857D01*
X141604857Y-83828619D01*
X141557238Y-83781000D01*
X141462000Y-83733380D01*
X140509619Y-83733380D02*
X140414380Y-83733380D01*
X140319142Y-83781000D01*
X140271523Y-83828619D01*
X140223904Y-83923857D01*
X140176285Y-84114333D01*
X140176285Y-84352428D01*
X140223904Y-84542904D01*
X140271523Y-84638142D01*
X140319142Y-84685761D01*
X140414380Y-84733380D01*
X140509619Y-84733380D01*
X140604857Y-84685761D01*
X140652476Y-84638142D01*
X140700095Y-84542904D01*
X140747714Y-84352428D01*
X140747714Y-84114333D01*
X140700095Y-83923857D01*
X140652476Y-83828619D01*
X140604857Y-83781000D01*
X140509619Y-83733380D01*
X139557238Y-83733380D02*
X139462000Y-83733380D01*
X139366761Y-83781000D01*
X139319142Y-83828619D01*
X139271523Y-83923857D01*
X139223904Y-84114333D01*
X139223904Y-84352428D01*
X139271523Y-84542904D01*
X139319142Y-84638142D01*
X139366761Y-84685761D01*
X139462000Y-84733380D01*
X139557238Y-84733380D01*
X139652476Y-84685761D01*
X139700095Y-84638142D01*
X139747714Y-84542904D01*
X139795333Y-84352428D01*
X139795333Y-84114333D01*
X139747714Y-83923857D01*
X139700095Y-83828619D01*
X139652476Y-83781000D01*
X139557238Y-83733380D01*
X141462000Y-85343380D02*
X141366761Y-85343380D01*
X141271523Y-85391000D01*
X141223904Y-85438619D01*
X141176285Y-85533857D01*
X141128666Y-85724333D01*
X141128666Y-85962428D01*
X141176285Y-86152904D01*
X141223904Y-86248142D01*
X141271523Y-86295761D01*
X141366761Y-86343380D01*
X141462000Y-86343380D01*
X141557238Y-86295761D01*
X141604857Y-86248142D01*
X141652476Y-86152904D01*
X141700095Y-85962428D01*
X141700095Y-85724333D01*
X141652476Y-85533857D01*
X141604857Y-85438619D01*
X141557238Y-85391000D01*
X141462000Y-85343380D01*
X140509619Y-85343380D02*
X140414380Y-85343380D01*
X140319142Y-85391000D01*
X140271523Y-85438619D01*
X140223904Y-85533857D01*
X140176285Y-85724333D01*
X140176285Y-85962428D01*
X140223904Y-86152904D01*
X140271523Y-86248142D01*
X140319142Y-86295761D01*
X140414380Y-86343380D01*
X140509619Y-86343380D01*
X140604857Y-86295761D01*
X140652476Y-86248142D01*
X140700095Y-86152904D01*
X140747714Y-85962428D01*
X140747714Y-85724333D01*
X140700095Y-85533857D01*
X140652476Y-85438619D01*
X140604857Y-85391000D01*
X140509619Y-85343380D01*
X139223904Y-86343380D02*
X139795333Y-86343380D01*
X139509619Y-86343380D02*
X139509619Y-85343380D01*
X139604857Y-85486238D01*
X139700095Y-85581476D01*
X139795333Y-85629095D01*
X141462000Y-86953380D02*
X141366761Y-86953380D01*
X141271523Y-87001000D01*
X141223904Y-87048619D01*
X141176285Y-87143857D01*
X141128666Y-87334333D01*
X141128666Y-87572428D01*
X141176285Y-87762904D01*
X141223904Y-87858142D01*
X141271523Y-87905761D01*
X141366761Y-87953380D01*
X141462000Y-87953380D01*
X141557238Y-87905761D01*
X141604857Y-87858142D01*
X141652476Y-87762904D01*
X141700095Y-87572428D01*
X141700095Y-87334333D01*
X141652476Y-87143857D01*
X141604857Y-87048619D01*
X141557238Y-87001000D01*
X141462000Y-86953380D01*
X140176285Y-87953380D02*
X140747714Y-87953380D01*
X140462000Y-87953380D02*
X140462000Y-86953380D01*
X140557238Y-87096238D01*
X140652476Y-87191476D01*
X140747714Y-87239095D01*
X139557238Y-86953380D02*
X139462000Y-86953380D01*
X139366761Y-87001000D01*
X139319142Y-87048619D01*
X139271523Y-87143857D01*
X139223904Y-87334333D01*
X139223904Y-87572428D01*
X139271523Y-87762904D01*
X139319142Y-87858142D01*
X139366761Y-87905761D01*
X139462000Y-87953380D01*
X139557238Y-87953380D01*
X139652476Y-87905761D01*
X139700095Y-87858142D01*
X139747714Y-87762904D01*
X139795333Y-87572428D01*
X139795333Y-87334333D01*
X139747714Y-87143857D01*
X139700095Y-87048619D01*
X139652476Y-87001000D01*
X139557238Y-86953380D01*
X141462000Y-88563380D02*
X141366761Y-88563380D01*
X141271523Y-88611000D01*
X141223904Y-88658619D01*
X141176285Y-88753857D01*
X141128666Y-88944333D01*
X141128666Y-89182428D01*
X141176285Y-89372904D01*
X141223904Y-89468142D01*
X141271523Y-89515761D01*
X141366761Y-89563380D01*
X141462000Y-89563380D01*
X141557238Y-89515761D01*
X141604857Y-89468142D01*
X141652476Y-89372904D01*
X141700095Y-89182428D01*
X141700095Y-88944333D01*
X141652476Y-88753857D01*
X141604857Y-88658619D01*
X141557238Y-88611000D01*
X141462000Y-88563380D01*
X140176285Y-89563380D02*
X140747714Y-89563380D01*
X140462000Y-89563380D02*
X140462000Y-88563380D01*
X140557238Y-88706238D01*
X140652476Y-88801476D01*
X140747714Y-88849095D01*
X139223904Y-89563380D02*
X139795333Y-89563380D01*
X139509619Y-89563380D02*
X139509619Y-88563380D01*
X139604857Y-88706238D01*
X139700095Y-88801476D01*
X139795333Y-88849095D01*
X141128666Y-91173380D02*
X141700095Y-91173380D01*
X141414380Y-91173380D02*
X141414380Y-90173380D01*
X141509619Y-90316238D01*
X141604857Y-90411476D01*
X141700095Y-90459095D01*
X140509619Y-90173380D02*
X140414380Y-90173380D01*
X140319142Y-90221000D01*
X140271523Y-90268619D01*
X140223904Y-90363857D01*
X140176285Y-90554333D01*
X140176285Y-90792428D01*
X140223904Y-90982904D01*
X140271523Y-91078142D01*
X140319142Y-91125761D01*
X140414380Y-91173380D01*
X140509619Y-91173380D01*
X140604857Y-91125761D01*
X140652476Y-91078142D01*
X140700095Y-90982904D01*
X140747714Y-90792428D01*
X140747714Y-90554333D01*
X140700095Y-90363857D01*
X140652476Y-90268619D01*
X140604857Y-90221000D01*
X140509619Y-90173380D01*
X139557238Y-90173380D02*
X139462000Y-90173380D01*
X139366761Y-90221000D01*
X139319142Y-90268619D01*
X139271523Y-90363857D01*
X139223904Y-90554333D01*
X139223904Y-90792428D01*
X139271523Y-90982904D01*
X139319142Y-91078142D01*
X139366761Y-91125761D01*
X139462000Y-91173380D01*
X139557238Y-91173380D01*
X139652476Y-91125761D01*
X139700095Y-91078142D01*
X139747714Y-90982904D01*
X139795333Y-90792428D01*
X139795333Y-90554333D01*
X139747714Y-90363857D01*
X139700095Y-90268619D01*
X139652476Y-90221000D01*
X139557238Y-90173380D01*
X141128666Y-92783380D02*
X141700095Y-92783380D01*
X141414380Y-92783380D02*
X141414380Y-91783380D01*
X141509619Y-91926238D01*
X141604857Y-92021476D01*
X141700095Y-92069095D01*
X140509619Y-91783380D02*
X140414380Y-91783380D01*
X140319142Y-91831000D01*
X140271523Y-91878619D01*
X140223904Y-91973857D01*
X140176285Y-92164333D01*
X140176285Y-92402428D01*
X140223904Y-92592904D01*
X140271523Y-92688142D01*
X140319142Y-92735761D01*
X140414380Y-92783380D01*
X140509619Y-92783380D01*
X140604857Y-92735761D01*
X140652476Y-92688142D01*
X140700095Y-92592904D01*
X140747714Y-92402428D01*
X140747714Y-92164333D01*
X140700095Y-91973857D01*
X140652476Y-91878619D01*
X140604857Y-91831000D01*
X140509619Y-91783380D01*
X139223904Y-92783380D02*
X139795333Y-92783380D01*
X139509619Y-92783380D02*
X139509619Y-91783380D01*
X139604857Y-91926238D01*
X139700095Y-92021476D01*
X139795333Y-92069095D01*
X141128666Y-94393380D02*
X141700095Y-94393380D01*
X141414380Y-94393380D02*
X141414380Y-93393380D01*
X141509619Y-93536238D01*
X141604857Y-93631476D01*
X141700095Y-93679095D01*
X140176285Y-94393380D02*
X140747714Y-94393380D01*
X140462000Y-94393380D02*
X140462000Y-93393380D01*
X140557238Y-93536238D01*
X140652476Y-93631476D01*
X140747714Y-93679095D01*
X139557238Y-93393380D02*
X139462000Y-93393380D01*
X139366761Y-93441000D01*
X139319142Y-93488619D01*
X139271523Y-93583857D01*
X139223904Y-93774333D01*
X139223904Y-94012428D01*
X139271523Y-94202904D01*
X139319142Y-94298142D01*
X139366761Y-94345761D01*
X139462000Y-94393380D01*
X139557238Y-94393380D01*
X139652476Y-94345761D01*
X139700095Y-94298142D01*
X139747714Y-94202904D01*
X139795333Y-94012428D01*
X139795333Y-93774333D01*
X139747714Y-93583857D01*
X139700095Y-93488619D01*
X139652476Y-93441000D01*
X139557238Y-93393380D01*
X141128666Y-96003380D02*
X141700095Y-96003380D01*
X141414380Y-96003380D02*
X141414380Y-95003380D01*
X141509619Y-95146238D01*
X141604857Y-95241476D01*
X141700095Y-95289095D01*
X140176285Y-96003380D02*
X140747714Y-96003380D01*
X140462000Y-96003380D02*
X140462000Y-95003380D01*
X140557238Y-95146238D01*
X140652476Y-95241476D01*
X140747714Y-95289095D01*
X139223904Y-96003380D02*
X139795333Y-96003380D01*
X139509619Y-96003380D02*
X139509619Y-95003380D01*
X139604857Y-95146238D01*
X139700095Y-95241476D01*
X139795333Y-95289095D01*
X145763142Y-72842380D02*
X145763142Y-72318571D01*
X145810761Y-72223333D01*
X145906000Y-72175714D01*
X146096476Y-72175714D01*
X146191714Y-72223333D01*
X145763142Y-72794761D02*
X145858380Y-72842380D01*
X146096476Y-72842380D01*
X146191714Y-72794761D01*
X146239333Y-72699523D01*
X146239333Y-72604285D01*
X146191714Y-72509047D01*
X146096476Y-72461428D01*
X145858380Y-72461428D01*
X145763142Y-72413809D01*
X145286952Y-72842380D02*
X145286952Y-71842380D01*
X145286952Y-72223333D02*
X145191714Y-72175714D01*
X145001238Y-72175714D01*
X144906000Y-72223333D01*
X144858380Y-72270952D01*
X144810761Y-72366190D01*
X144810761Y-72651904D01*
X144858380Y-72747142D01*
X144906000Y-72794761D01*
X145001238Y-72842380D01*
X145191714Y-72842380D01*
X145286952Y-72794761D01*
X144477428Y-72175714D02*
X143953619Y-72175714D01*
X144477428Y-72842380D01*
X143953619Y-72842380D01*
X143572666Y-72842380D02*
X143572666Y-72175714D01*
X143572666Y-72270952D02*
X143525047Y-72223333D01*
X143429809Y-72175714D01*
X143286952Y-72175714D01*
X143191714Y-72223333D01*
X143144095Y-72318571D01*
X143144095Y-72842380D01*
X143144095Y-72318571D02*
X143096476Y-72223333D01*
X143001238Y-72175714D01*
X142858380Y-72175714D01*
X142763142Y-72223333D01*
X142715523Y-72318571D01*
X142715523Y-72842380D01*
X141810761Y-72842380D02*
X141810761Y-72318571D01*
X141858380Y-72223333D01*
X141953619Y-72175714D01*
X142144095Y-72175714D01*
X142239333Y-72223333D01*
X141810761Y-72794761D02*
X141906000Y-72842380D01*
X142144095Y-72842380D01*
X142239333Y-72794761D01*
X142286952Y-72699523D01*
X142286952Y-72604285D01*
X142239333Y-72509047D01*
X142144095Y-72461428D01*
X141906000Y-72461428D01*
X141810761Y-72413809D01*
X141334571Y-72175714D02*
X141334571Y-72842380D01*
X141334571Y-72270952D02*
X141286952Y-72223333D01*
X141191714Y-72175714D01*
X141048857Y-72175714D01*
X140953619Y-72223333D01*
X140906000Y-72318571D01*
X140906000Y-72842380D01*
X140477428Y-71937619D02*
X140429809Y-71890000D01*
X140334571Y-71842380D01*
X140096476Y-71842380D01*
X140001238Y-71890000D01*
X139953619Y-71937619D01*
X139906000Y-72032857D01*
X139906000Y-72128095D01*
X139953619Y-72270952D01*
X140525047Y-72842380D01*
X139906000Y-72842380D01*
X139477428Y-72842380D02*
X139477428Y-71842380D01*
X139382190Y-72461428D02*
X139096476Y-72842380D01*
X139096476Y-72175714D02*
X139477428Y-72556666D01*
X138667904Y-72747142D02*
X138620285Y-72794761D01*
X138667904Y-72842380D01*
X138715523Y-72794761D01*
X138667904Y-72747142D01*
X138667904Y-72842380D01*
X138286952Y-72175714D02*
X138096476Y-72842380D01*
X137906000Y-72366190D01*
X137715523Y-72842380D01*
X137525047Y-72175714D01*
X137001238Y-72842380D02*
X137096476Y-72794761D01*
X137144095Y-72747142D01*
X137191714Y-72651904D01*
X137191714Y-72366190D01*
X137144095Y-72270952D01*
X137096476Y-72223333D01*
X137001238Y-72175714D01*
X136858380Y-72175714D01*
X136763142Y-72223333D01*
X136715523Y-72270952D01*
X136667904Y-72366190D01*
X136667904Y-72651904D01*
X136715523Y-72747142D01*
X136763142Y-72794761D01*
X136858380Y-72842380D01*
X137001238Y-72842380D01*
X136239333Y-72842380D02*
X136239333Y-72175714D01*
X136239333Y-72366190D02*
X136191714Y-72270952D01*
X136144095Y-72223333D01*
X136048857Y-72175714D01*
X135953619Y-72175714D01*
X135191714Y-72842380D02*
X135191714Y-71842380D01*
X135191714Y-72794761D02*
X135286952Y-72842380D01*
X135477428Y-72842380D01*
X135572666Y-72794761D01*
X135620285Y-72747142D01*
X135667904Y-72651904D01*
X135667904Y-72366190D01*
X135620285Y-72270952D01*
X135572666Y-72223333D01*
X135477428Y-72175714D01*
X135286952Y-72175714D01*
X135191714Y-72223333D01*
X134715523Y-72175714D02*
X134715523Y-73175714D01*
X134715523Y-72223333D02*
X134620285Y-72175714D01*
X134429809Y-72175714D01*
X134334571Y-72223333D01*
X134286952Y-72270952D01*
X134239333Y-72366190D01*
X134239333Y-72651904D01*
X134286952Y-72747142D01*
X134334571Y-72794761D01*
X134429809Y-72842380D01*
X134620285Y-72842380D01*
X134715523Y-72794761D01*
X133810761Y-72842380D02*
X133810761Y-72175714D01*
X133810761Y-72366190D02*
X133763142Y-72270952D01*
X133715523Y-72223333D01*
X133620285Y-72175714D01*
X133525047Y-72175714D01*
X132810761Y-72794761D02*
X132906000Y-72842380D01*
X133096476Y-72842380D01*
X133191714Y-72794761D01*
X133239333Y-72699523D01*
X133239333Y-72318571D01*
X133191714Y-72223333D01*
X133096476Y-72175714D01*
X132906000Y-72175714D01*
X132810761Y-72223333D01*
X132763142Y-72318571D01*
X132763142Y-72413809D01*
X133239333Y-72509047D01*
X132382190Y-72794761D02*
X132286952Y-72842380D01*
X132096476Y-72842380D01*
X132001238Y-72794761D01*
X131953619Y-72699523D01*
X131953619Y-72651904D01*
X132001238Y-72556666D01*
X132096476Y-72509047D01*
X132239333Y-72509047D01*
X132334571Y-72461428D01*
X132382190Y-72366190D01*
X132382190Y-72318571D01*
X132334571Y-72223333D01*
X132239333Y-72175714D01*
X132096476Y-72175714D01*
X132001238Y-72223333D01*
X131572666Y-72794761D02*
X131477428Y-72842380D01*
X131286952Y-72842380D01*
X131191714Y-72794761D01*
X131144095Y-72699523D01*
X131144095Y-72651904D01*
X131191714Y-72556666D01*
X131286952Y-72509047D01*
X131429809Y-72509047D01*
X131525047Y-72461428D01*
X131572666Y-72366190D01*
X131572666Y-72318571D01*
X131525047Y-72223333D01*
X131429809Y-72175714D01*
X131286952Y-72175714D01*
X131191714Y-72223333D01*
X130715523Y-72747142D02*
X130667904Y-72794761D01*
X130715523Y-72842380D01*
X130763142Y-72794761D01*
X130715523Y-72747142D01*
X130715523Y-72842380D01*
X129810761Y-72794761D02*
X129906000Y-72842380D01*
X130096476Y-72842380D01*
X130191714Y-72794761D01*
X130239333Y-72747142D01*
X130286952Y-72651904D01*
X130286952Y-72366190D01*
X130239333Y-72270952D01*
X130191714Y-72223333D01*
X130096476Y-72175714D01*
X129906000Y-72175714D01*
X129810761Y-72223333D01*
X129239333Y-72842380D02*
X129334571Y-72794761D01*
X129382190Y-72747142D01*
X129429809Y-72651904D01*
X129429809Y-72366190D01*
X129382190Y-72270952D01*
X129334571Y-72223333D01*
X129239333Y-72175714D01*
X129096476Y-72175714D01*
X129001238Y-72223333D01*
X128953619Y-72270952D01*
X128906000Y-72366190D01*
X128906000Y-72651904D01*
X128953619Y-72747142D01*
X129001238Y-72794761D01*
X129096476Y-72842380D01*
X129239333Y-72842380D01*
X128477428Y-72842380D02*
X128477428Y-72175714D01*
X128477428Y-72270952D02*
X128429809Y-72223333D01*
X128334571Y-72175714D01*
X128191714Y-72175714D01*
X128096476Y-72223333D01*
X128048857Y-72318571D01*
X128048857Y-72842380D01*
X128048857Y-72318571D02*
X128001238Y-72223333D01*
X127906000Y-72175714D01*
X127763142Y-72175714D01*
X127667904Y-72223333D01*
X127620285Y-72318571D01*
X127620285Y-72842380D01*
X144652000Y-105406714D02*
X144652000Y-106263857D01*
X144699619Y-106359095D01*
X144794857Y-106406714D01*
X144842476Y-106406714D01*
X144652000Y-105073380D02*
X144699619Y-105121000D01*
X144652000Y-105168619D01*
X144604380Y-105121000D01*
X144652000Y-105073380D01*
X144652000Y-105168619D01*
X143747238Y-105406714D02*
X143747238Y-106073380D01*
X144175809Y-105406714D02*
X144175809Y-105930523D01*
X144128190Y-106025761D01*
X144032952Y-106073380D01*
X143890095Y-106073380D01*
X143794857Y-106025761D01*
X143747238Y-105978142D01*
X143271047Y-106073380D02*
X143271047Y-105406714D01*
X143271047Y-105501952D02*
X143223428Y-105454333D01*
X143128190Y-105406714D01*
X142985333Y-105406714D01*
X142890095Y-105454333D01*
X142842476Y-105549571D01*
X142842476Y-106073380D01*
X142842476Y-105549571D02*
X142794857Y-105454333D01*
X142699619Y-105406714D01*
X142556761Y-105406714D01*
X142461523Y-105454333D01*
X142413904Y-105549571D01*
X142413904Y-106073380D01*
X141937714Y-105406714D02*
X141937714Y-106406714D01*
X141937714Y-105454333D02*
X141842476Y-105406714D01*
X141652000Y-105406714D01*
X141556761Y-105454333D01*
X141509142Y-105501952D01*
X141461523Y-105597190D01*
X141461523Y-105882904D01*
X141509142Y-105978142D01*
X141556761Y-106025761D01*
X141652000Y-106073380D01*
X141842476Y-106073380D01*
X141937714Y-106025761D01*
X140652000Y-106025761D02*
X140747238Y-106073380D01*
X140937714Y-106073380D01*
X141032952Y-106025761D01*
X141080571Y-105930523D01*
X141080571Y-105549571D01*
X141032952Y-105454333D01*
X140937714Y-105406714D01*
X140747238Y-105406714D01*
X140652000Y-105454333D01*
X140604380Y-105549571D01*
X140604380Y-105644809D01*
X141080571Y-105740047D01*
X140175809Y-106073380D02*
X140175809Y-105406714D01*
X140175809Y-105597190D02*
X140128190Y-105501952D01*
X140080571Y-105454333D01*
X139985333Y-105406714D01*
X139890095Y-105406714D01*
X138366285Y-105406714D02*
X138366285Y-106073380D01*
X138794857Y-105406714D02*
X138794857Y-105930523D01*
X138747238Y-106025761D01*
X138652000Y-106073380D01*
X138509142Y-106073380D01*
X138413904Y-106025761D01*
X138366285Y-105978142D01*
X137890095Y-105406714D02*
X137890095Y-106073380D01*
X137890095Y-105501952D02*
X137842476Y-105454333D01*
X137747238Y-105406714D01*
X137604380Y-105406714D01*
X137509142Y-105454333D01*
X137461523Y-105549571D01*
X137461523Y-106073380D01*
X136556761Y-105406714D02*
X136556761Y-106073380D01*
X136985333Y-105406714D02*
X136985333Y-105930523D01*
X136937714Y-106025761D01*
X136842476Y-106073380D01*
X136699619Y-106073380D01*
X136604380Y-106025761D01*
X136556761Y-105978142D01*
X136128190Y-106025761D02*
X136032952Y-106073380D01*
X135842476Y-106073380D01*
X135747238Y-106025761D01*
X135699619Y-105930523D01*
X135699619Y-105882904D01*
X135747238Y-105787666D01*
X135842476Y-105740047D01*
X135985333Y-105740047D01*
X136080571Y-105692428D01*
X136128190Y-105597190D01*
X136128190Y-105549571D01*
X136080571Y-105454333D01*
X135985333Y-105406714D01*
X135842476Y-105406714D01*
X135747238Y-105454333D01*
X134890095Y-106025761D02*
X134985333Y-106073380D01*
X135175809Y-106073380D01*
X135271047Y-106025761D01*
X135318666Y-105930523D01*
X135318666Y-105549571D01*
X135271047Y-105454333D01*
X135175809Y-105406714D01*
X134985333Y-105406714D01*
X134890095Y-105454333D01*
X134842476Y-105549571D01*
X134842476Y-105644809D01*
X135318666Y-105740047D01*
X133985333Y-106073380D02*
X133985333Y-105073380D01*
X133985333Y-106025761D02*
X134080571Y-106073380D01*
X134271047Y-106073380D01*
X134366285Y-106025761D01*
X134413904Y-105978142D01*
X134461523Y-105882904D01*
X134461523Y-105597190D01*
X134413904Y-105501952D01*
X134366285Y-105454333D01*
X134271047Y-105406714D01*
X134080571Y-105406714D01*
X133985333Y-105454333D01*
X132747238Y-106073380D02*
X132747238Y-105406714D01*
X132747238Y-105073380D02*
X132794857Y-105121000D01*
X132747238Y-105168619D01*
X132699619Y-105121000D01*
X132747238Y-105073380D01*
X132747238Y-105168619D01*
X132271047Y-105406714D02*
X132271047Y-106073380D01*
X132271047Y-105501952D02*
X132223428Y-105454333D01*
X132128190Y-105406714D01*
X131985333Y-105406714D01*
X131890095Y-105454333D01*
X131842476Y-105549571D01*
X131842476Y-106073380D01*
X131366285Y-105406714D02*
X131366285Y-106406714D01*
X131366285Y-105454333D02*
X131271047Y-105406714D01*
X131080571Y-105406714D01*
X130985333Y-105454333D01*
X130937714Y-105501952D01*
X130890095Y-105597190D01*
X130890095Y-105882904D01*
X130937714Y-105978142D01*
X130985333Y-106025761D01*
X131080571Y-106073380D01*
X131271047Y-106073380D01*
X131366285Y-106025761D01*
X130032952Y-105406714D02*
X130032952Y-106073380D01*
X130461523Y-105406714D02*
X130461523Y-105930523D01*
X130413904Y-106025761D01*
X130318666Y-106073380D01*
X130175809Y-106073380D01*
X130080571Y-106025761D01*
X130032952Y-105978142D01*
X129699619Y-105406714D02*
X129318666Y-105406714D01*
X129556761Y-105073380D02*
X129556761Y-105930523D01*
X129509142Y-106025761D01*
X129413904Y-106073380D01*
X129318666Y-106073380D01*
X129032952Y-106025761D02*
X128937714Y-106073380D01*
X128747238Y-106073380D01*
X128652000Y-106025761D01*
X128604380Y-105930523D01*
X128604380Y-105882904D01*
X128652000Y-105787666D01*
X128747238Y-105740047D01*
X128890095Y-105740047D01*
X128985333Y-105692428D01*
X129032952Y-105597190D01*
X129032952Y-105549571D01*
X128985333Y-105454333D01*
X128890095Y-105406714D01*
X128747238Y-105406714D01*
X128652000Y-105454333D01*
X149437714Y-107016714D02*
X149056761Y-107016714D01*
X149294857Y-106683380D02*
X149294857Y-107540523D01*
X149247238Y-107635761D01*
X149152000Y-107683380D01*
X149056761Y-107683380D01*
X148580571Y-107683380D02*
X148675809Y-107635761D01*
X148723428Y-107588142D01*
X148771047Y-107492904D01*
X148771047Y-107207190D01*
X148723428Y-107111952D01*
X148675809Y-107064333D01*
X148580571Y-107016714D01*
X148437714Y-107016714D01*
X148342476Y-107064333D01*
X148294857Y-107111952D01*
X148247238Y-107207190D01*
X148247238Y-107492904D01*
X148294857Y-107588142D01*
X148342476Y-107635761D01*
X148437714Y-107683380D01*
X148580571Y-107683380D01*
X146628190Y-107683380D02*
X146628190Y-107159571D01*
X146675809Y-107064333D01*
X146771047Y-107016714D01*
X146961523Y-107016714D01*
X147056761Y-107064333D01*
X146628190Y-107635761D02*
X146723428Y-107683380D01*
X146961523Y-107683380D01*
X147056761Y-107635761D01*
X147104380Y-107540523D01*
X147104380Y-107445285D01*
X147056761Y-107350047D01*
X146961523Y-107302428D01*
X146723428Y-107302428D01*
X146628190Y-107254809D01*
X145723428Y-107683380D02*
X145723428Y-106683380D01*
X145723428Y-107635761D02*
X145818666Y-107683380D01*
X146009142Y-107683380D01*
X146104380Y-107635761D01*
X146152000Y-107588142D01*
X146199619Y-107492904D01*
X146199619Y-107207190D01*
X146152000Y-107111952D01*
X146104380Y-107064333D01*
X146009142Y-107016714D01*
X145818666Y-107016714D01*
X145723428Y-107064333D01*
X145247238Y-107016714D02*
X145247238Y-107873857D01*
X145294857Y-107969095D01*
X145390095Y-108016714D01*
X145437714Y-108016714D01*
X145247238Y-106683380D02*
X145294857Y-106731000D01*
X145247238Y-106778619D01*
X145199619Y-106731000D01*
X145247238Y-106683380D01*
X145247238Y-106778619D01*
X144342476Y-107683380D02*
X144342476Y-107159571D01*
X144390095Y-107064333D01*
X144485333Y-107016714D01*
X144675809Y-107016714D01*
X144771047Y-107064333D01*
X144342476Y-107635761D02*
X144437714Y-107683380D01*
X144675809Y-107683380D01*
X144771047Y-107635761D01*
X144818666Y-107540523D01*
X144818666Y-107445285D01*
X144771047Y-107350047D01*
X144675809Y-107302428D01*
X144437714Y-107302428D01*
X144342476Y-107254809D01*
X143437714Y-107635761D02*
X143532952Y-107683380D01*
X143723428Y-107683380D01*
X143818666Y-107635761D01*
X143866285Y-107588142D01*
X143913904Y-107492904D01*
X143913904Y-107207190D01*
X143866285Y-107111952D01*
X143818666Y-107064333D01*
X143723428Y-107016714D01*
X143532952Y-107016714D01*
X143437714Y-107064333D01*
X142628190Y-107635761D02*
X142723428Y-107683380D01*
X142913904Y-107683380D01*
X143009142Y-107635761D01*
X143056761Y-107540523D01*
X143056761Y-107159571D01*
X143009142Y-107064333D01*
X142913904Y-107016714D01*
X142723428Y-107016714D01*
X142628190Y-107064333D01*
X142580571Y-107159571D01*
X142580571Y-107254809D01*
X143056761Y-107350047D01*
X142152000Y-107016714D02*
X142152000Y-107683380D01*
X142152000Y-107111952D02*
X142104380Y-107064333D01*
X142009142Y-107016714D01*
X141866285Y-107016714D01*
X141771047Y-107064333D01*
X141723428Y-107159571D01*
X141723428Y-107683380D01*
X141390095Y-107016714D02*
X141009142Y-107016714D01*
X141247238Y-106683380D02*
X141247238Y-107540523D01*
X141199619Y-107635761D01*
X141104380Y-107683380D01*
X141009142Y-107683380D01*
X139913904Y-107016714D02*
X139913904Y-108016714D01*
X139913904Y-107064333D02*
X139818666Y-107016714D01*
X139628190Y-107016714D01*
X139532952Y-107064333D01*
X139485333Y-107111952D01*
X139437714Y-107207190D01*
X139437714Y-107492904D01*
X139485333Y-107588142D01*
X139532952Y-107635761D01*
X139628190Y-107683380D01*
X139818666Y-107683380D01*
X139913904Y-107635761D01*
X138866285Y-107683380D02*
X138961523Y-107635761D01*
X139009142Y-107588142D01*
X139056761Y-107492904D01*
X139056761Y-107207190D01*
X139009142Y-107111952D01*
X138961523Y-107064333D01*
X138866285Y-107016714D01*
X138723428Y-107016714D01*
X138628190Y-107064333D01*
X138580571Y-107111952D01*
X138532952Y-107207190D01*
X138532952Y-107492904D01*
X138580571Y-107588142D01*
X138628190Y-107635761D01*
X138723428Y-107683380D01*
X138866285Y-107683380D01*
X138199619Y-107016714D02*
X138009142Y-107683380D01*
X137818666Y-107207190D01*
X137628190Y-107683380D01*
X137437714Y-107016714D01*
X136675809Y-107635761D02*
X136771047Y-107683380D01*
X136961523Y-107683380D01*
X137056761Y-107635761D01*
X137104380Y-107540523D01*
X137104380Y-107159571D01*
X137056761Y-107064333D01*
X136961523Y-107016714D01*
X136771047Y-107016714D01*
X136675809Y-107064333D01*
X136628190Y-107159571D01*
X136628190Y-107254809D01*
X137104380Y-107350047D01*
X136199619Y-107683380D02*
X136199619Y-107016714D01*
X136199619Y-107207190D02*
X136152000Y-107111952D01*
X136104380Y-107064333D01*
X136009142Y-107016714D01*
X135913904Y-107016714D01*
X134675809Y-107683380D02*
X134771047Y-107635761D01*
X134818666Y-107588142D01*
X134866285Y-107492904D01*
X134866285Y-107207190D01*
X134818666Y-107111952D01*
X134771047Y-107064333D01*
X134675809Y-107016714D01*
X134532952Y-107016714D01*
X134437714Y-107064333D01*
X134390095Y-107111952D01*
X134342476Y-107207190D01*
X134342476Y-107492904D01*
X134390095Y-107588142D01*
X134437714Y-107635761D01*
X134532952Y-107683380D01*
X134675809Y-107683380D01*
X133913904Y-107683380D02*
X133913904Y-107016714D01*
X133913904Y-107207190D02*
X133866285Y-107111952D01*
X133818666Y-107064333D01*
X133723428Y-107016714D01*
X133628190Y-107016714D01*
X132104380Y-107016714D02*
X132104380Y-107826238D01*
X132152000Y-107921476D01*
X132199619Y-107969095D01*
X132294857Y-108016714D01*
X132437714Y-108016714D01*
X132532952Y-107969095D01*
X132104380Y-107635761D02*
X132199619Y-107683380D01*
X132390095Y-107683380D01*
X132485333Y-107635761D01*
X132532952Y-107588142D01*
X132580571Y-107492904D01*
X132580571Y-107207190D01*
X132532952Y-107111952D01*
X132485333Y-107064333D01*
X132390095Y-107016714D01*
X132199619Y-107016714D01*
X132104380Y-107064333D01*
X131628190Y-107683380D02*
X131628190Y-107016714D01*
X131628190Y-107207190D02*
X131580571Y-107111952D01*
X131532952Y-107064333D01*
X131437714Y-107016714D01*
X131342476Y-107016714D01*
X130866285Y-107683380D02*
X130961523Y-107635761D01*
X131009142Y-107588142D01*
X131056761Y-107492904D01*
X131056761Y-107207190D01*
X131009142Y-107111952D01*
X130961523Y-107064333D01*
X130866285Y-107016714D01*
X130723428Y-107016714D01*
X130628190Y-107064333D01*
X130580571Y-107111952D01*
X130532952Y-107207190D01*
X130532952Y-107492904D01*
X130580571Y-107588142D01*
X130628190Y-107635761D01*
X130723428Y-107683380D01*
X130866285Y-107683380D01*
X129675809Y-107016714D02*
X129675809Y-107683380D01*
X130104380Y-107016714D02*
X130104380Y-107540523D01*
X130056761Y-107635761D01*
X129961523Y-107683380D01*
X129818666Y-107683380D01*
X129723428Y-107635761D01*
X129675809Y-107588142D01*
X129199619Y-107016714D02*
X129199619Y-107683380D01*
X129199619Y-107111952D02*
X129152000Y-107064333D01*
X129056761Y-107016714D01*
X128913904Y-107016714D01*
X128818666Y-107064333D01*
X128771047Y-107159571D01*
X128771047Y-107683380D01*
X127866285Y-107683380D02*
X127866285Y-106683380D01*
X127866285Y-107635761D02*
X127961523Y-107683380D01*
X128152000Y-107683380D01*
X128247238Y-107635761D01*
X128294857Y-107588142D01*
X128342476Y-107492904D01*
X128342476Y-107207190D01*
X128294857Y-107111952D01*
X128247238Y-107064333D01*
X128152000Y-107016714D01*
X127961523Y-107016714D01*
X127866285Y-107064333D01*
X126628190Y-107016714D02*
X126628190Y-108016714D01*
X126628190Y-107064333D02*
X126532952Y-107016714D01*
X126342476Y-107016714D01*
X126247238Y-107064333D01*
X126199619Y-107111952D01*
X126152000Y-107207190D01*
X126152000Y-107492904D01*
X126199619Y-107588142D01*
X126247238Y-107635761D01*
X126342476Y-107683380D01*
X126532952Y-107683380D01*
X126628190Y-107635761D01*
X125723428Y-107683380D02*
X125723428Y-107016714D01*
X125723428Y-106683380D02*
X125771047Y-106731000D01*
X125723428Y-106778619D01*
X125675809Y-106731000D01*
X125723428Y-106683380D01*
X125723428Y-106778619D01*
X125247238Y-107016714D02*
X125247238Y-107683380D01*
X125247238Y-107111952D02*
X125199619Y-107064333D01*
X125104380Y-107016714D01*
X124961523Y-107016714D01*
X124866285Y-107064333D01*
X124818666Y-107159571D01*
X124818666Y-107683380D01*
X124390095Y-107635761D02*
X124294857Y-107683380D01*
X124104380Y-107683380D01*
X124009142Y-107635761D01*
X123961523Y-107540523D01*
X123961523Y-107492904D01*
X124009142Y-107397666D01*
X124104380Y-107350047D01*
X124247238Y-107350047D01*
X124342476Y-107302428D01*
X124390095Y-107207190D01*
X124390095Y-107159571D01*
X124342476Y-107064333D01*
X124247238Y-107016714D01*
X124104380Y-107016714D01*
X124009142Y-107064333D01*
X149707523Y-100204380D02*
X149088476Y-100204380D01*
X149421809Y-100585333D01*
X149278952Y-100585333D01*
X149183714Y-100632952D01*
X149136095Y-100680571D01*
X149088476Y-100775809D01*
X149088476Y-101013904D01*
X149136095Y-101109142D01*
X149183714Y-101156761D01*
X149278952Y-101204380D01*
X149564666Y-101204380D01*
X149659904Y-101156761D01*
X149707523Y-101109142D01*
X147898000Y-101204380D02*
X147898000Y-100537714D01*
X147898000Y-100204380D02*
X147945619Y-100252000D01*
X147898000Y-100299619D01*
X147850380Y-100252000D01*
X147898000Y-100204380D01*
X147898000Y-100299619D01*
X147421809Y-100537714D02*
X147421809Y-101204380D01*
X147421809Y-100632952D02*
X147374190Y-100585333D01*
X147278952Y-100537714D01*
X147136095Y-100537714D01*
X147040857Y-100585333D01*
X146993238Y-100680571D01*
X146993238Y-101204380D01*
X146517047Y-100537714D02*
X146517047Y-101537714D01*
X146517047Y-100585333D02*
X146421809Y-100537714D01*
X146231333Y-100537714D01*
X146136095Y-100585333D01*
X146088476Y-100632952D01*
X146040857Y-100728190D01*
X146040857Y-101013904D01*
X146088476Y-101109142D01*
X146136095Y-101156761D01*
X146231333Y-101204380D01*
X146421809Y-101204380D01*
X146517047Y-101156761D01*
X145183714Y-100537714D02*
X145183714Y-101204380D01*
X145612285Y-100537714D02*
X145612285Y-101061523D01*
X145564666Y-101156761D01*
X145469428Y-101204380D01*
X145326571Y-101204380D01*
X145231333Y-101156761D01*
X145183714Y-101109142D01*
X144850380Y-100537714D02*
X144469428Y-100537714D01*
X144707523Y-100204380D02*
X144707523Y-101061523D01*
X144659904Y-101156761D01*
X144564666Y-101204380D01*
X144469428Y-101204380D01*
X144183714Y-101156761D02*
X144088476Y-101204380D01*
X143898000Y-101204380D01*
X143802761Y-101156761D01*
X143755142Y-101061523D01*
X143755142Y-101013904D01*
X143802761Y-100918666D01*
X143898000Y-100871047D01*
X144040857Y-100871047D01*
X144136095Y-100823428D01*
X144183714Y-100728190D01*
X144183714Y-100680571D01*
X144136095Y-100585333D01*
X144040857Y-100537714D01*
X143898000Y-100537714D01*
X143802761Y-100585333D01*
X142136095Y-101156761D02*
X142231333Y-101204380D01*
X142421809Y-101204380D01*
X142517047Y-101156761D01*
X142564666Y-101109142D01*
X142612285Y-101013904D01*
X142612285Y-100728190D01*
X142564666Y-100632952D01*
X142517047Y-100585333D01*
X142421809Y-100537714D01*
X142231333Y-100537714D01*
X142136095Y-100585333D01*
X141278952Y-101204380D02*
X141278952Y-100680571D01*
X141326571Y-100585333D01*
X141421809Y-100537714D01*
X141612285Y-100537714D01*
X141707523Y-100585333D01*
X141278952Y-101156761D02*
X141374190Y-101204380D01*
X141612285Y-101204380D01*
X141707523Y-101156761D01*
X141755142Y-101061523D01*
X141755142Y-100966285D01*
X141707523Y-100871047D01*
X141612285Y-100823428D01*
X141374190Y-100823428D01*
X141278952Y-100775809D01*
X140802761Y-100537714D02*
X140802761Y-101204380D01*
X140802761Y-100632952D02*
X140755142Y-100585333D01*
X140659904Y-100537714D01*
X140517047Y-100537714D01*
X140421809Y-100585333D01*
X140374190Y-100680571D01*
X140374190Y-101204380D01*
X139136095Y-101204380D02*
X139136095Y-100204380D01*
X139136095Y-100585333D02*
X139040857Y-100537714D01*
X138850380Y-100537714D01*
X138755142Y-100585333D01*
X138707523Y-100632952D01*
X138659904Y-100728190D01*
X138659904Y-101013904D01*
X138707523Y-101109142D01*
X138755142Y-101156761D01*
X138850380Y-101204380D01*
X139040857Y-101204380D01*
X139136095Y-101156761D01*
X137850380Y-101156761D02*
X137945619Y-101204380D01*
X138136095Y-101204380D01*
X138231333Y-101156761D01*
X138278952Y-101061523D01*
X138278952Y-100680571D01*
X138231333Y-100585333D01*
X138136095Y-100537714D01*
X137945619Y-100537714D01*
X137850380Y-100585333D01*
X137802761Y-100680571D01*
X137802761Y-100775809D01*
X138278952Y-100871047D01*
X136183714Y-101204380D02*
X136183714Y-100680571D01*
X136231333Y-100585333D01*
X136326571Y-100537714D01*
X136517047Y-100537714D01*
X136612285Y-100585333D01*
X136183714Y-101156761D02*
X136278952Y-101204380D01*
X136517047Y-101204380D01*
X136612285Y-101156761D01*
X136659904Y-101061523D01*
X136659904Y-100966285D01*
X136612285Y-100871047D01*
X136517047Y-100823428D01*
X136278952Y-100823428D01*
X136183714Y-100775809D01*
X135278952Y-101156761D02*
X135374190Y-101204380D01*
X135564666Y-101204380D01*
X135659904Y-101156761D01*
X135707523Y-101109142D01*
X135755142Y-101013904D01*
X135755142Y-100728190D01*
X135707523Y-100632952D01*
X135659904Y-100585333D01*
X135564666Y-100537714D01*
X135374190Y-100537714D01*
X135278952Y-100585333D01*
X134993238Y-100537714D02*
X134612285Y-100537714D01*
X134850380Y-100204380D02*
X134850380Y-101061523D01*
X134802761Y-101156761D01*
X134707523Y-101204380D01*
X134612285Y-101204380D01*
X134278952Y-101204380D02*
X134278952Y-100537714D01*
X134278952Y-100204380D02*
X134326571Y-100252000D01*
X134278952Y-100299619D01*
X134231333Y-100252000D01*
X134278952Y-100204380D01*
X134278952Y-100299619D01*
X133898000Y-100537714D02*
X133659904Y-101204380D01*
X133421809Y-100537714D01*
X132659904Y-101156761D02*
X132755142Y-101204380D01*
X132945619Y-101204380D01*
X133040857Y-101156761D01*
X133088476Y-101061523D01*
X133088476Y-100680571D01*
X133040857Y-100585333D01*
X132945619Y-100537714D01*
X132755142Y-100537714D01*
X132659904Y-100585333D01*
X132612285Y-100680571D01*
X132612285Y-100775809D01*
X133088476Y-100871047D01*
X131421809Y-101204380D02*
X131421809Y-100204380D01*
X130993238Y-101204380D02*
X130993238Y-100680571D01*
X131040857Y-100585333D01*
X131136095Y-100537714D01*
X131278952Y-100537714D01*
X131374190Y-100585333D01*
X131421809Y-100632952D01*
X130517047Y-101204380D02*
X130517047Y-100537714D01*
X130517047Y-100204380D02*
X130564666Y-100252000D01*
X130517047Y-100299619D01*
X130469428Y-100252000D01*
X130517047Y-100204380D01*
X130517047Y-100299619D01*
X129612285Y-100537714D02*
X129612285Y-101347238D01*
X129659904Y-101442476D01*
X129707523Y-101490095D01*
X129802761Y-101537714D01*
X129945619Y-101537714D01*
X130040857Y-101490095D01*
X129612285Y-101156761D02*
X129707523Y-101204380D01*
X129898000Y-101204380D01*
X129993238Y-101156761D01*
X130040857Y-101109142D01*
X130088476Y-101013904D01*
X130088476Y-100728190D01*
X130040857Y-100632952D01*
X129993238Y-100585333D01*
X129898000Y-100537714D01*
X129707523Y-100537714D01*
X129612285Y-100585333D01*
X129136095Y-101204380D02*
X129136095Y-100204380D01*
X128707523Y-101204380D02*
X128707523Y-100680571D01*
X128755142Y-100585333D01*
X128850380Y-100537714D01*
X128993238Y-100537714D01*
X129088476Y-100585333D01*
X129136095Y-100632952D01*
X127326571Y-101204380D02*
X127421809Y-101156761D01*
X127469428Y-101109142D01*
X127517047Y-101013904D01*
X127517047Y-100728190D01*
X127469428Y-100632952D01*
X127421809Y-100585333D01*
X127326571Y-100537714D01*
X127183714Y-100537714D01*
X127088476Y-100585333D01*
X127040857Y-100632952D01*
X126993238Y-100728190D01*
X126993238Y-101013904D01*
X127040857Y-101109142D01*
X127088476Y-101156761D01*
X127183714Y-101204380D01*
X127326571Y-101204380D01*
X126564666Y-101204380D02*
X126564666Y-100537714D01*
X126564666Y-100728190D02*
X126517047Y-100632952D01*
X126469428Y-100585333D01*
X126374190Y-100537714D01*
X126278952Y-100537714D01*
X125040857Y-101204380D02*
X125136095Y-101156761D01*
X125183714Y-101061523D01*
X125183714Y-100204380D01*
X124517047Y-101204380D02*
X124612285Y-101156761D01*
X124659904Y-101109142D01*
X124707523Y-101013904D01*
X124707523Y-100728190D01*
X124659904Y-100632952D01*
X124612285Y-100585333D01*
X124517047Y-100537714D01*
X124374190Y-100537714D01*
X124278952Y-100585333D01*
X124231333Y-100632952D01*
X124183714Y-100728190D01*
X124183714Y-101013904D01*
X124231333Y-101109142D01*
X124278952Y-101156761D01*
X124374190Y-101204380D01*
X124517047Y-101204380D01*
X123850380Y-100537714D02*
X123659904Y-101204380D01*
X123469428Y-100728190D01*
X123278952Y-101204380D01*
X123088476Y-100537714D01*
X146826571Y-102814380D02*
X146921809Y-102766761D01*
X146969428Y-102719142D01*
X147017047Y-102623904D01*
X147017047Y-102338190D01*
X146969428Y-102242952D01*
X146921809Y-102195333D01*
X146826571Y-102147714D01*
X146683714Y-102147714D01*
X146588476Y-102195333D01*
X146540857Y-102242952D01*
X146493238Y-102338190D01*
X146493238Y-102623904D01*
X146540857Y-102719142D01*
X146588476Y-102766761D01*
X146683714Y-102814380D01*
X146826571Y-102814380D01*
X146064666Y-102147714D02*
X146064666Y-102814380D01*
X146064666Y-102242952D02*
X146017047Y-102195333D01*
X145921809Y-102147714D01*
X145778952Y-102147714D01*
X145683714Y-102195333D01*
X145636095Y-102290571D01*
X145636095Y-102814380D01*
X144778952Y-102766761D02*
X144874190Y-102814380D01*
X145064666Y-102814380D01*
X145159904Y-102766761D01*
X145207523Y-102671523D01*
X145207523Y-102290571D01*
X145159904Y-102195333D01*
X145064666Y-102147714D01*
X144874190Y-102147714D01*
X144778952Y-102195333D01*
X144731333Y-102290571D01*
X144731333Y-102385809D01*
X145207523Y-102481047D01*
X143112285Y-102766761D02*
X143207523Y-102814380D01*
X143398000Y-102814380D01*
X143493238Y-102766761D01*
X143540857Y-102719142D01*
X143588476Y-102623904D01*
X143588476Y-102338190D01*
X143540857Y-102242952D01*
X143493238Y-102195333D01*
X143398000Y-102147714D01*
X143207523Y-102147714D01*
X143112285Y-102195333D01*
X142255142Y-102814380D02*
X142255142Y-102290571D01*
X142302761Y-102195333D01*
X142398000Y-102147714D01*
X142588476Y-102147714D01*
X142683714Y-102195333D01*
X142255142Y-102766761D02*
X142350380Y-102814380D01*
X142588476Y-102814380D01*
X142683714Y-102766761D01*
X142731333Y-102671523D01*
X142731333Y-102576285D01*
X142683714Y-102481047D01*
X142588476Y-102433428D01*
X142350380Y-102433428D01*
X142255142Y-102385809D01*
X141778952Y-102147714D02*
X141778952Y-102814380D01*
X141778952Y-102242952D02*
X141731333Y-102195333D01*
X141636095Y-102147714D01*
X141493238Y-102147714D01*
X141398000Y-102195333D01*
X141350380Y-102290571D01*
X141350380Y-102814380D01*
X139969428Y-102814380D02*
X140064666Y-102766761D01*
X140112285Y-102719142D01*
X140159904Y-102623904D01*
X140159904Y-102338190D01*
X140112285Y-102242952D01*
X140064666Y-102195333D01*
X139969428Y-102147714D01*
X139826571Y-102147714D01*
X139731333Y-102195333D01*
X139683714Y-102242952D01*
X139636095Y-102338190D01*
X139636095Y-102623904D01*
X139683714Y-102719142D01*
X139731333Y-102766761D01*
X139826571Y-102814380D01*
X139969428Y-102814380D01*
X139207523Y-102147714D02*
X139207523Y-102814380D01*
X139207523Y-102242952D02*
X139159904Y-102195333D01*
X139064666Y-102147714D01*
X138921809Y-102147714D01*
X138826571Y-102195333D01*
X138778952Y-102290571D01*
X138778952Y-102814380D01*
X138159904Y-102814380D02*
X138255142Y-102766761D01*
X138302761Y-102671523D01*
X138302761Y-101814380D01*
X137874190Y-102147714D02*
X137636095Y-102814380D01*
X137398000Y-102147714D02*
X137636095Y-102814380D01*
X137731333Y-103052476D01*
X137778952Y-103100095D01*
X137874190Y-103147714D01*
X136255142Y-102814380D02*
X136255142Y-101814380D01*
X136255142Y-102195333D02*
X136159904Y-102147714D01*
X135969428Y-102147714D01*
X135874190Y-102195333D01*
X135826571Y-102242952D01*
X135778952Y-102338190D01*
X135778952Y-102623904D01*
X135826571Y-102719142D01*
X135874190Y-102766761D01*
X135969428Y-102814380D01*
X136159904Y-102814380D01*
X136255142Y-102766761D01*
X134969428Y-102766761D02*
X135064666Y-102814380D01*
X135255142Y-102814380D01*
X135350380Y-102766761D01*
X135398000Y-102671523D01*
X135398000Y-102290571D01*
X135350380Y-102195333D01*
X135255142Y-102147714D01*
X135064666Y-102147714D01*
X134969428Y-102195333D01*
X134921809Y-102290571D01*
X134921809Y-102385809D01*
X135398000Y-102481047D01*
X133302761Y-102814380D02*
X133302761Y-102290571D01*
X133350380Y-102195333D01*
X133445619Y-102147714D01*
X133636095Y-102147714D01*
X133731333Y-102195333D01*
X133302761Y-102766761D02*
X133398000Y-102814380D01*
X133636095Y-102814380D01*
X133731333Y-102766761D01*
X133778952Y-102671523D01*
X133778952Y-102576285D01*
X133731333Y-102481047D01*
X133636095Y-102433428D01*
X133398000Y-102433428D01*
X133302761Y-102385809D01*
X132398000Y-102766761D02*
X132493238Y-102814380D01*
X132683714Y-102814380D01*
X132778952Y-102766761D01*
X132826571Y-102719142D01*
X132874190Y-102623904D01*
X132874190Y-102338190D01*
X132826571Y-102242952D01*
X132778952Y-102195333D01*
X132683714Y-102147714D01*
X132493238Y-102147714D01*
X132398000Y-102195333D01*
X132112285Y-102147714D02*
X131731333Y-102147714D01*
X131969428Y-101814380D02*
X131969428Y-102671523D01*
X131921809Y-102766761D01*
X131826571Y-102814380D01*
X131731333Y-102814380D01*
X131398000Y-102814380D02*
X131398000Y-102147714D01*
X131398000Y-101814380D02*
X131445619Y-101862000D01*
X131398000Y-101909619D01*
X131350380Y-101862000D01*
X131398000Y-101814380D01*
X131398000Y-101909619D01*
X131017047Y-102147714D02*
X130778952Y-102814380D01*
X130540857Y-102147714D01*
X129778952Y-102766761D02*
X129874190Y-102814380D01*
X130064666Y-102814380D01*
X130159904Y-102766761D01*
X130207523Y-102671523D01*
X130207523Y-102290571D01*
X130159904Y-102195333D01*
X130064666Y-102147714D01*
X129874190Y-102147714D01*
X129778952Y-102195333D01*
X129731333Y-102290571D01*
X129731333Y-102385809D01*
X130207523Y-102481047D01*
X128540857Y-102814380D02*
X128540857Y-101814380D01*
X128112285Y-102814380D02*
X128112285Y-102290571D01*
X128159904Y-102195333D01*
X128255142Y-102147714D01*
X128398000Y-102147714D01*
X128493238Y-102195333D01*
X128540857Y-102242952D01*
X127636095Y-102814380D02*
X127636095Y-102147714D01*
X127636095Y-101814380D02*
X127683714Y-101862000D01*
X127636095Y-101909619D01*
X127588476Y-101862000D01*
X127636095Y-101814380D01*
X127636095Y-101909619D01*
X126731333Y-102147714D02*
X126731333Y-102957238D01*
X126778952Y-103052476D01*
X126826571Y-103100095D01*
X126921809Y-103147714D01*
X127064666Y-103147714D01*
X127159904Y-103100095D01*
X126731333Y-102766761D02*
X126826571Y-102814380D01*
X127017047Y-102814380D01*
X127112285Y-102766761D01*
X127159904Y-102719142D01*
X127207523Y-102623904D01*
X127207523Y-102338190D01*
X127159904Y-102242952D01*
X127112285Y-102195333D01*
X127017047Y-102147714D01*
X126826571Y-102147714D01*
X126731333Y-102195333D01*
X126255142Y-102814380D02*
X126255142Y-101814380D01*
X125826571Y-102814380D02*
X125826571Y-102290571D01*
X125874190Y-102195333D01*
X125969428Y-102147714D01*
X126112285Y-102147714D01*
X126207523Y-102195333D01*
X126255142Y-102242952D01*
X145802761Y-103519619D02*
X145755142Y-103472000D01*
X145659904Y-103424380D01*
X145421809Y-103424380D01*
X145326571Y-103472000D01*
X145278952Y-103519619D01*
X145231333Y-103614857D01*
X145231333Y-103710095D01*
X145278952Y-103852952D01*
X145850380Y-104424380D01*
X145231333Y-104424380D01*
X143612285Y-104376761D02*
X143707523Y-104424380D01*
X143898000Y-104424380D01*
X143993238Y-104376761D01*
X144040857Y-104329142D01*
X144088476Y-104233904D01*
X144088476Y-103948190D01*
X144040857Y-103852952D01*
X143993238Y-103805333D01*
X143898000Y-103757714D01*
X143707523Y-103757714D01*
X143612285Y-103805333D01*
X142755142Y-104424380D02*
X142755142Y-103900571D01*
X142802761Y-103805333D01*
X142898000Y-103757714D01*
X143088476Y-103757714D01*
X143183714Y-103805333D01*
X142755142Y-104376761D02*
X142850380Y-104424380D01*
X143088476Y-104424380D01*
X143183714Y-104376761D01*
X143231333Y-104281523D01*
X143231333Y-104186285D01*
X143183714Y-104091047D01*
X143088476Y-104043428D01*
X142850380Y-104043428D01*
X142755142Y-103995809D01*
X142278952Y-103757714D02*
X142278952Y-104424380D01*
X142278952Y-103852952D02*
X142231333Y-103805333D01*
X142136095Y-103757714D01*
X141993238Y-103757714D01*
X141898000Y-103805333D01*
X141850380Y-103900571D01*
X141850380Y-104424380D01*
X140469428Y-104424380D02*
X140564666Y-104376761D01*
X140612285Y-104329142D01*
X140659904Y-104233904D01*
X140659904Y-103948190D01*
X140612285Y-103852952D01*
X140564666Y-103805333D01*
X140469428Y-103757714D01*
X140326571Y-103757714D01*
X140231333Y-103805333D01*
X140183714Y-103852952D01*
X140136095Y-103948190D01*
X140136095Y-104233904D01*
X140183714Y-104329142D01*
X140231333Y-104376761D01*
X140326571Y-104424380D01*
X140469428Y-104424380D01*
X139707523Y-103757714D02*
X139707523Y-104424380D01*
X139707523Y-103852952D02*
X139659904Y-103805333D01*
X139564666Y-103757714D01*
X139421809Y-103757714D01*
X139326571Y-103805333D01*
X139278952Y-103900571D01*
X139278952Y-104424380D01*
X138659904Y-104424380D02*
X138755142Y-104376761D01*
X138802761Y-104281523D01*
X138802761Y-103424380D01*
X138374190Y-103757714D02*
X138136095Y-104424380D01*
X137898000Y-103757714D02*
X138136095Y-104424380D01*
X138231333Y-104662476D01*
X138278952Y-104710095D01*
X138374190Y-104757714D01*
X136755142Y-104424380D02*
X136755142Y-103424380D01*
X136755142Y-103805333D02*
X136659904Y-103757714D01*
X136469428Y-103757714D01*
X136374190Y-103805333D01*
X136326571Y-103852952D01*
X136278952Y-103948190D01*
X136278952Y-104233904D01*
X136326571Y-104329142D01*
X136374190Y-104376761D01*
X136469428Y-104424380D01*
X136659904Y-104424380D01*
X136755142Y-104376761D01*
X135469428Y-104376761D02*
X135564666Y-104424380D01*
X135755142Y-104424380D01*
X135850380Y-104376761D01*
X135898000Y-104281523D01*
X135898000Y-103900571D01*
X135850380Y-103805333D01*
X135755142Y-103757714D01*
X135564666Y-103757714D01*
X135469428Y-103805333D01*
X135421809Y-103900571D01*
X135421809Y-103995809D01*
X135898000Y-104091047D01*
X133802761Y-104424380D02*
X133802761Y-103900571D01*
X133850380Y-103805333D01*
X133945619Y-103757714D01*
X134136095Y-103757714D01*
X134231333Y-103805333D01*
X133802761Y-104376761D02*
X133898000Y-104424380D01*
X134136095Y-104424380D01*
X134231333Y-104376761D01*
X134278952Y-104281523D01*
X134278952Y-104186285D01*
X134231333Y-104091047D01*
X134136095Y-104043428D01*
X133898000Y-104043428D01*
X133802761Y-103995809D01*
X132898000Y-104376761D02*
X132993238Y-104424380D01*
X133183714Y-104424380D01*
X133278952Y-104376761D01*
X133326571Y-104329142D01*
X133374190Y-104233904D01*
X133374190Y-103948190D01*
X133326571Y-103852952D01*
X133278952Y-103805333D01*
X133183714Y-103757714D01*
X132993238Y-103757714D01*
X132898000Y-103805333D01*
X132612285Y-103757714D02*
X132231333Y-103757714D01*
X132469428Y-103424380D02*
X132469428Y-104281523D01*
X132421809Y-104376761D01*
X132326571Y-104424380D01*
X132231333Y-104424380D01*
X131898000Y-104424380D02*
X131898000Y-103757714D01*
X131898000Y-103424380D02*
X131945619Y-103472000D01*
X131898000Y-103519619D01*
X131850380Y-103472000D01*
X131898000Y-103424380D01*
X131898000Y-103519619D01*
X131517047Y-103757714D02*
X131278952Y-104424380D01*
X131040857Y-103757714D01*
X130278952Y-104376761D02*
X130374190Y-104424380D01*
X130564666Y-104424380D01*
X130659904Y-104376761D01*
X130707523Y-104281523D01*
X130707523Y-103900571D01*
X130659904Y-103805333D01*
X130564666Y-103757714D01*
X130374190Y-103757714D01*
X130278952Y-103805333D01*
X130231333Y-103900571D01*
X130231333Y-103995809D01*
X130707523Y-104091047D01*
X128898000Y-104424380D02*
X128993238Y-104376761D01*
X129040857Y-104281523D01*
X129040857Y-103424380D01*
X128374190Y-104424380D02*
X128469428Y-104376761D01*
X128517047Y-104329142D01*
X128564666Y-104233904D01*
X128564666Y-103948190D01*
X128517047Y-103852952D01*
X128469428Y-103805333D01*
X128374190Y-103757714D01*
X128231333Y-103757714D01*
X128136095Y-103805333D01*
X128088476Y-103852952D01*
X128040857Y-103948190D01*
X128040857Y-104233904D01*
X128088476Y-104329142D01*
X128136095Y-104376761D01*
X128231333Y-104424380D01*
X128374190Y-104424380D01*
X127707523Y-103757714D02*
X127517047Y-104424380D01*
X127326571Y-103948190D01*
X127136095Y-104424380D01*
X126945619Y-103757714D01*
X144073142Y-78684380D02*
X144073142Y-78160571D01*
X144120761Y-78065333D01*
X144216000Y-78017714D01*
X144406476Y-78017714D01*
X144501714Y-78065333D01*
X144073142Y-78636761D02*
X144168380Y-78684380D01*
X144406476Y-78684380D01*
X144501714Y-78636761D01*
X144549333Y-78541523D01*
X144549333Y-78446285D01*
X144501714Y-78351047D01*
X144406476Y-78303428D01*
X144168380Y-78303428D01*
X144073142Y-78255809D01*
X143406476Y-77684380D02*
X143311238Y-77684380D01*
X143216000Y-77732000D01*
X143168380Y-77779619D01*
X143120761Y-77874857D01*
X143073142Y-78065333D01*
X143073142Y-78303428D01*
X143120761Y-78493904D01*
X143168380Y-78589142D01*
X143216000Y-78636761D01*
X143311238Y-78684380D01*
X143406476Y-78684380D01*
X143501714Y-78636761D01*
X143549333Y-78589142D01*
X143596952Y-78493904D01*
X143644571Y-78303428D01*
X143644571Y-78065333D01*
X143596952Y-77874857D01*
X143549333Y-77779619D01*
X143501714Y-77732000D01*
X143406476Y-77684380D01*
X142596952Y-78636761D02*
X142596952Y-78684380D01*
X142644571Y-78779619D01*
X142692190Y-78827238D01*
X140977904Y-78684380D02*
X140977904Y-78160571D01*
X141025523Y-78065333D01*
X141120761Y-78017714D01*
X141311238Y-78017714D01*
X141406476Y-78065333D01*
X140977904Y-78636761D02*
X141073142Y-78684380D01*
X141311238Y-78684380D01*
X141406476Y-78636761D01*
X141454095Y-78541523D01*
X141454095Y-78446285D01*
X141406476Y-78351047D01*
X141311238Y-78303428D01*
X141073142Y-78303428D01*
X140977904Y-78255809D01*
X139977904Y-78684380D02*
X140549333Y-78684380D01*
X140263619Y-78684380D02*
X140263619Y-77684380D01*
X140358857Y-77827238D01*
X140454095Y-77922476D01*
X140549333Y-77970095D01*
X139501714Y-78636761D02*
X139501714Y-78684380D01*
X139549333Y-78779619D01*
X139596952Y-78827238D01*
X137882666Y-78684380D02*
X137882666Y-78160571D01*
X137930285Y-78065333D01*
X138025523Y-78017714D01*
X138216000Y-78017714D01*
X138311238Y-78065333D01*
X137882666Y-78636761D02*
X137977904Y-78684380D01*
X138216000Y-78684380D01*
X138311238Y-78636761D01*
X138358857Y-78541523D01*
X138358857Y-78446285D01*
X138311238Y-78351047D01*
X138216000Y-78303428D01*
X137977904Y-78303428D01*
X137882666Y-78255809D01*
X137454095Y-77779619D02*
X137406476Y-77732000D01*
X137311238Y-77684380D01*
X137073142Y-77684380D01*
X136977904Y-77732000D01*
X136930285Y-77779619D01*
X136882666Y-77874857D01*
X136882666Y-77970095D01*
X136930285Y-78112952D01*
X137501714Y-78684380D01*
X136882666Y-78684380D01*
G36*
X123262080Y-82250859D02*
G01*
X123262399Y-82359477D01*
X123249785Y-82463408D01*
X123224796Y-82561020D01*
X123187991Y-82650683D01*
X123139929Y-82730762D01*
X123081169Y-82799628D01*
X123012268Y-82855647D01*
X123005495Y-82860074D01*
X122936598Y-82898187D01*
X122863017Y-82928088D01*
X122792052Y-82946755D01*
X122770559Y-82949331D01*
X122733299Y-82951520D01*
X122688899Y-82952519D01*
X122642936Y-82952126D01*
X122623075Y-82951533D01*
X122576504Y-82948992D01*
X122539324Y-82944480D01*
X122505664Y-82937109D01*
X122469651Y-82925994D01*
X122465035Y-82924405D01*
X122377265Y-82884702D01*
X122297979Y-82830289D01*
X122228504Y-82762246D01*
X122170164Y-82681656D01*
X122140112Y-82631979D01*
X122177791Y-82598542D01*
X122202981Y-82578277D01*
X122225626Y-82567219D01*
X122244147Y-82569128D01*
X122261806Y-82583417D01*
X122280582Y-82602027D01*
X122316548Y-82632290D01*
X122358253Y-82663265D01*
X122399971Y-82690771D01*
X122435977Y-82710626D01*
X122444758Y-82714676D01*
X122466668Y-82723626D01*
X122487726Y-82729375D01*
X122512486Y-82732620D01*
X122545498Y-82734056D01*
X122591315Y-82734380D01*
X122633034Y-82734233D01*
X122665698Y-82733181D01*
X122690174Y-82730312D01*
X122711222Y-82724715D01*
X122733604Y-82715478D01*
X122762080Y-82701690D01*
X122798383Y-82681049D01*
X122858803Y-82632123D01*
X122908083Y-82571660D01*
X122944999Y-82501712D01*
X122968327Y-82424333D01*
X122976842Y-82341575D01*
X122977147Y-82304681D01*
X122178914Y-82304681D01*
X122164645Y-82282905D01*
X122159364Y-82271497D01*
X122152124Y-82240590D01*
X122147367Y-82199038D01*
X122145225Y-82150999D01*
X122145834Y-82100630D01*
X122149327Y-82052089D01*
X122152518Y-82031236D01*
X122409443Y-82031236D01*
X122410771Y-82060768D01*
X122420602Y-82098702D01*
X122440810Y-82124391D01*
X122472383Y-82139536D01*
X122486613Y-82141656D01*
X122517057Y-82143846D01*
X122560191Y-82145695D01*
X122613517Y-82147122D01*
X122674539Y-82148044D01*
X122740760Y-82148378D01*
X122977477Y-82148427D01*
X122973038Y-82128895D01*
X122971227Y-82120802D01*
X122965720Y-82095636D01*
X122959389Y-82066233D01*
X122951859Y-82036827D01*
X122923522Y-81966999D01*
X122883287Y-81904330D01*
X122833433Y-81851970D01*
X122776236Y-81813067D01*
X122758922Y-81805245D01*
X122707614Y-81791451D01*
X122652236Y-81787305D01*
X122598870Y-81792932D01*
X122553598Y-81808458D01*
X122533218Y-81820184D01*
X122481868Y-81861575D01*
X122443079Y-81912158D01*
X122418417Y-81969517D01*
X122409443Y-82031236D01*
X122152518Y-82031236D01*
X122155838Y-82009534D01*
X122165140Y-81972304D01*
X122197034Y-81889253D01*
X122241696Y-81814467D01*
X122297535Y-81750327D01*
X122362964Y-81699214D01*
X122365833Y-81697419D01*
X122425995Y-81664449D01*
X122485820Y-81641862D01*
X122550920Y-81628002D01*
X122626906Y-81621209D01*
X122666920Y-81619736D01*
X122703102Y-81619961D01*
X122733721Y-81622919D01*
X122765112Y-81629276D01*
X122803607Y-81639691D01*
X122833918Y-81649108D01*
X122921009Y-81685972D01*
X122999373Y-81735793D01*
X123072635Y-81800742D01*
X123091297Y-81820349D01*
X123151085Y-81894627D01*
X123196521Y-81973170D01*
X123229370Y-82059491D01*
X123249436Y-82148427D01*
X123251395Y-82157108D01*
X123262080Y-82250859D01*
G37*
G36*
X121220621Y-82158442D02*
G01*
X121232959Y-82170783D01*
X121313702Y-82251950D01*
X121381882Y-82321258D01*
X121437550Y-82378761D01*
X121480758Y-82424513D01*
X121511557Y-82458569D01*
X121529999Y-82480983D01*
X121536135Y-82491809D01*
X121538097Y-82509149D01*
X121544663Y-82540955D01*
X121554726Y-82581114D01*
X121567121Y-82625289D01*
X121580686Y-82669143D01*
X121594255Y-82708338D01*
X121598980Y-82720711D01*
X121634134Y-82800100D01*
X121677095Y-82880605D01*
X121723258Y-82953471D01*
X121727526Y-82959602D01*
X121744968Y-82985212D01*
X121757214Y-83004113D01*
X121761836Y-83012582D01*
X121759613Y-83013016D01*
X121743060Y-83013825D01*
X121711863Y-83014563D01*
X121667817Y-83015211D01*
X121612722Y-83015748D01*
X121548375Y-83016156D01*
X121476573Y-83016415D01*
X121399116Y-83016506D01*
X121036397Y-83016506D01*
X121013844Y-82957911D01*
X121004083Y-82931666D01*
X120988946Y-82888770D01*
X120973457Y-82842966D01*
X120959764Y-82800643D01*
X120950017Y-82768188D01*
X120948464Y-82766413D01*
X120933741Y-82761262D01*
X120906589Y-82756436D01*
X120870638Y-82752648D01*
X120846596Y-82750622D01*
X120797631Y-82745928D01*
X120744157Y-82740273D01*
X120694098Y-82734475D01*
X120668247Y-82731369D01*
X120610336Y-82724705D01*
X120550688Y-82718149D01*
X120498780Y-82712757D01*
X120468273Y-82709654D01*
X120427232Y-82705266D01*
X120392970Y-82701364D01*
X120370739Y-82698529D01*
X120338186Y-82693791D01*
X120338186Y-81906891D01*
X120370739Y-81902152D01*
X120385133Y-81900265D01*
X120416482Y-81896603D01*
X120456115Y-81892287D01*
X120498780Y-81887900D01*
X120528031Y-81884922D01*
X120584945Y-81878902D01*
X120644732Y-81872358D01*
X120698438Y-81866261D01*
X120736230Y-81861885D01*
X120782859Y-81856542D01*
X120824032Y-81851882D01*
X120853857Y-81848576D01*
X120905106Y-81843016D01*
X121220621Y-82158442D01*
G37*
G36*
X121458102Y-80491230D02*
G01*
X121475267Y-80505073D01*
X121520919Y-80541870D01*
X121563166Y-80575896D01*
X121599483Y-80605119D01*
X121627342Y-80627504D01*
X121644217Y-80641018D01*
X121653154Y-80648197D01*
X121681888Y-80671779D01*
X121707153Y-80693123D01*
X121735793Y-80717895D01*
X121735793Y-81627038D01*
X121698012Y-81685904D01*
X121658476Y-81751571D01*
X121624901Y-81818207D01*
X121594471Y-81892343D01*
X121583580Y-81923113D01*
X121569619Y-81967092D01*
X121556725Y-82012170D01*
X121546066Y-82053975D01*
X121538813Y-82088138D01*
X121536135Y-82110288D01*
X121535242Y-82123365D01*
X121530866Y-82143376D01*
X121527482Y-82150224D01*
X121519959Y-82157108D01*
X121518326Y-82156003D01*
X121506348Y-82145202D01*
X121484007Y-82123931D01*
X121452619Y-82093478D01*
X121413504Y-82055133D01*
X121367977Y-82010185D01*
X121317357Y-81959923D01*
X121262962Y-81905637D01*
X121011603Y-81654166D01*
X121023190Y-81621341D01*
X121030259Y-81603804D01*
X121043983Y-81573103D01*
X121061689Y-81535476D01*
X121081272Y-81495481D01*
X121127766Y-81402447D01*
X121073697Y-81334917D01*
X121059678Y-81317426D01*
X121036004Y-81287974D01*
X121016795Y-81264179D01*
X121005237Y-81249995D01*
X120996944Y-81239821D01*
X120979405Y-81218128D01*
X120955143Y-81188029D01*
X120926115Y-81151962D01*
X120894277Y-81112363D01*
X120861587Y-81071668D01*
X120830001Y-81032313D01*
X120801477Y-80996735D01*
X120777971Y-80967371D01*
X120761441Y-80946655D01*
X120753843Y-80937026D01*
X120753919Y-80935709D01*
X120762099Y-80923875D01*
X120781774Y-80900993D01*
X120812202Y-80867850D01*
X120852641Y-80825228D01*
X120902350Y-80773914D01*
X120960588Y-80714691D01*
X121026614Y-80648344D01*
X121306283Y-80368774D01*
X121458102Y-80491230D01*
G37*
G36*
X123393454Y-83213310D02*
G01*
X123395890Y-83219565D01*
X123397877Y-83234265D01*
X123399452Y-83258686D01*
X123400654Y-83294100D01*
X123401522Y-83341781D01*
X123402094Y-83403002D01*
X123402409Y-83479036D01*
X123402505Y-83571158D01*
X123402505Y-83935858D01*
X123365612Y-83952151D01*
X123355363Y-83956367D01*
X123327058Y-83967008D01*
X123289716Y-83980363D01*
X123248113Y-83994787D01*
X123207026Y-84008632D01*
X123171232Y-84020254D01*
X123145507Y-84028004D01*
X123143736Y-84029545D01*
X123138583Y-84044247D01*
X123133756Y-84071393D01*
X123129966Y-84107362D01*
X123127940Y-84131404D01*
X123123246Y-84180369D01*
X123117592Y-84233843D01*
X123111793Y-84283902D01*
X123108687Y-84309753D01*
X123102023Y-84367664D01*
X123095468Y-84427312D01*
X123090075Y-84479220D01*
X123086973Y-84509727D01*
X123082585Y-84550768D01*
X123078682Y-84585030D01*
X123075848Y-84607261D01*
X123071109Y-84639814D01*
X122284209Y-84639814D01*
X122279471Y-84607261D01*
X122277583Y-84592867D01*
X122273922Y-84561518D01*
X122269606Y-84521885D01*
X122265218Y-84479220D01*
X122262244Y-84449977D01*
X122256236Y-84393060D01*
X122249715Y-84333271D01*
X122243646Y-84279562D01*
X122239228Y-84241338D01*
X122233982Y-84195812D01*
X122229435Y-84156214D01*
X122226239Y-84128204D01*
X122220892Y-84081016D01*
X122540380Y-83761441D01*
X122563120Y-83738728D01*
X122623745Y-83678520D01*
X122680523Y-83622618D01*
X122732260Y-83572168D01*
X122777760Y-83528318D01*
X122815826Y-83492216D01*
X122845264Y-83465008D01*
X122864876Y-83447842D01*
X122873468Y-83441865D01*
X122874689Y-83441837D01*
X122894927Y-83438782D01*
X122926881Y-83431502D01*
X122966241Y-83421177D01*
X123008697Y-83408990D01*
X123049939Y-83396119D01*
X123085657Y-83383745D01*
X123104564Y-83376426D01*
X123181561Y-83341821D01*
X123259057Y-83300323D01*
X123328204Y-83256574D01*
X123330689Y-83254838D01*
X123357679Y-83236119D01*
X123379508Y-83221189D01*
X123391654Y-83213143D01*
X123393454Y-83213310D01*
G37*
G36*
X124329469Y-81612388D02*
G01*
X124333685Y-81622637D01*
X124344326Y-81650942D01*
X124357682Y-81688284D01*
X124372105Y-81729887D01*
X124385951Y-81770974D01*
X124397572Y-81806768D01*
X124405323Y-81832493D01*
X124406864Y-81834264D01*
X124421565Y-81839417D01*
X124448711Y-81844244D01*
X124484680Y-81848034D01*
X124508723Y-81850060D01*
X124557688Y-81854754D01*
X124611162Y-81860408D01*
X124661220Y-81866207D01*
X124687071Y-81869313D01*
X124744982Y-81875977D01*
X124804631Y-81882532D01*
X124856538Y-81887925D01*
X124887046Y-81891027D01*
X124928086Y-81895415D01*
X124962349Y-81899318D01*
X124984580Y-81902152D01*
X125017133Y-81906891D01*
X125017133Y-82693791D01*
X124984580Y-82698529D01*
X124970184Y-82700419D01*
X124938835Y-82704088D01*
X124899203Y-82708417D01*
X124856538Y-82712820D01*
X124828284Y-82715678D01*
X124793136Y-82719340D01*
X124755221Y-82723427D01*
X124711643Y-82728261D01*
X124659508Y-82734164D01*
X124595921Y-82741458D01*
X124517987Y-82750464D01*
X124496226Y-82752805D01*
X124474627Y-82754782D01*
X124471841Y-82753666D01*
X124457515Y-82742807D01*
X124433126Y-82721534D01*
X124400086Y-82691246D01*
X124359804Y-82653343D01*
X124313693Y-82609225D01*
X124263162Y-82560292D01*
X124209623Y-82507943D01*
X124154487Y-82453578D01*
X124099164Y-82398597D01*
X124045066Y-82344400D01*
X123993604Y-82292385D01*
X123946187Y-82243954D01*
X123904228Y-82200505D01*
X123869138Y-82163439D01*
X123842326Y-82134154D01*
X123825204Y-82114052D01*
X123819184Y-82104532D01*
X123819156Y-82103311D01*
X123816100Y-82083073D01*
X123808820Y-82051119D01*
X123798496Y-82011759D01*
X123786308Y-81969303D01*
X123773437Y-81928061D01*
X123761064Y-81892343D01*
X123753745Y-81873436D01*
X123719139Y-81796439D01*
X123677642Y-81718943D01*
X123633892Y-81649796D01*
X123632157Y-81647311D01*
X123613437Y-81620321D01*
X123598507Y-81598492D01*
X123590462Y-81586346D01*
X123590629Y-81584546D01*
X123596883Y-81582110D01*
X123611584Y-81580123D01*
X123636004Y-81578548D01*
X123671418Y-81577346D01*
X123719099Y-81576478D01*
X123780320Y-81575906D01*
X123856355Y-81575591D01*
X123948477Y-81575495D01*
X124313176Y-81575495D01*
X124329469Y-81612388D01*
G37*
G36*
X123075848Y-79993420D02*
G01*
X123077735Y-80007815D01*
X123081397Y-80039163D01*
X123085713Y-80078796D01*
X123090100Y-80121462D01*
X123093075Y-80150705D01*
X123099082Y-80207621D01*
X123105604Y-80267411D01*
X123111673Y-80321120D01*
X123116132Y-80359732D01*
X123121246Y-80404232D01*
X123125603Y-80442377D01*
X123128581Y-80468722D01*
X123133431Y-80512154D01*
X122810056Y-80834359D01*
X122486682Y-81156563D01*
X122421576Y-81171648D01*
X122401007Y-81176608D01*
X122268294Y-81218275D01*
X122142690Y-81274675D01*
X122026600Y-81344755D01*
X122007730Y-81357776D01*
X121981208Y-81375881D01*
X121962565Y-81388347D01*
X121954983Y-81393030D01*
X121954736Y-81390690D01*
X121954290Y-81373930D01*
X121953883Y-81342546D01*
X121953527Y-81298329D01*
X121953230Y-81243074D01*
X121953006Y-81178574D01*
X121952863Y-81106622D01*
X121952813Y-81029011D01*
X121952813Y-80664824D01*
X121989706Y-80648531D01*
X121999956Y-80644315D01*
X122028261Y-80633674D01*
X122065603Y-80620318D01*
X122107206Y-80605895D01*
X122148292Y-80592049D01*
X122184087Y-80580428D01*
X122209812Y-80572677D01*
X122211582Y-80571136D01*
X122216736Y-80556435D01*
X122221562Y-80529289D01*
X122225352Y-80493320D01*
X122227378Y-80469277D01*
X122232072Y-80420312D01*
X122237727Y-80366838D01*
X122243525Y-80316780D01*
X122246631Y-80290929D01*
X122253295Y-80233018D01*
X122259851Y-80173369D01*
X122265243Y-80121462D01*
X122268346Y-80090954D01*
X122272734Y-80049914D01*
X122276636Y-80015651D01*
X122279471Y-79993420D01*
X122284209Y-79960867D01*
X123071109Y-79960867D01*
X123075848Y-79993420D01*
G37*
G36*
X122056115Y-83275601D02*
G01*
X122100967Y-83302905D01*
X122224822Y-83365530D01*
X122352007Y-83411751D01*
X122481321Y-83441102D01*
X122508489Y-83445860D01*
X122530713Y-83450624D01*
X122540731Y-83453957D01*
X122539598Y-83455976D01*
X122528703Y-83468503D01*
X122507370Y-83491304D01*
X122476854Y-83523090D01*
X122438405Y-83562568D01*
X122393278Y-83608451D01*
X122342723Y-83659448D01*
X122287993Y-83714269D01*
X122031249Y-83970575D01*
X121981180Y-83948591D01*
X121971399Y-83944220D01*
X121936420Y-83927928D01*
X121895486Y-83908184D01*
X121855556Y-83888326D01*
X121780000Y-83850045D01*
X121712353Y-83904208D01*
X121694752Y-83918318D01*
X121665288Y-83942016D01*
X121641492Y-83961249D01*
X121627314Y-83972832D01*
X121623769Y-83975745D01*
X121606906Y-83989456D01*
X121579694Y-84011486D01*
X121544347Y-84040046D01*
X121503078Y-84073347D01*
X121458102Y-84109599D01*
X121306283Y-84231908D01*
X121026614Y-83952337D01*
X121004947Y-83930643D01*
X120941303Y-83866463D01*
X120885680Y-83809655D01*
X120838821Y-83761004D01*
X120801466Y-83721294D01*
X120774357Y-83691309D01*
X120758236Y-83671835D01*
X120753843Y-83663656D01*
X120759254Y-83656794D01*
X120774117Y-83638160D01*
X120796304Y-83610434D01*
X120823879Y-83576025D01*
X120854907Y-83537344D01*
X120887453Y-83496801D01*
X120919582Y-83456806D01*
X120949360Y-83419769D01*
X120974852Y-83388100D01*
X120994123Y-83364210D01*
X121005237Y-83350508D01*
X121017833Y-83334910D01*
X121037039Y-83310886D01*
X121058691Y-83283643D01*
X121097755Y-83234347D01*
X121543949Y-83233937D01*
X121990142Y-83233526D01*
X122056115Y-83275601D01*
G37*
G36*
X124608063Y-80927602D02*
G01*
X124589626Y-80953494D01*
X124588815Y-80954627D01*
X124573473Y-80975078D01*
X124551856Y-81002827D01*
X124528373Y-81032208D01*
X124523147Y-81038662D01*
X124499298Y-81068214D01*
X124468936Y-81105937D01*
X124435419Y-81147657D01*
X124402105Y-81189199D01*
X124387172Y-81207803D01*
X124358617Y-81243155D01*
X124334276Y-81273006D01*
X124316351Y-81294665D01*
X124307043Y-81305438D01*
X124296403Y-81318040D01*
X124282010Y-81337991D01*
X124268588Y-81358475D01*
X123347877Y-81358475D01*
X123303575Y-81329083D01*
X123258961Y-81301761D01*
X123202849Y-81271198D01*
X123145103Y-81242823D01*
X123093360Y-81220578D01*
X123073235Y-81213316D01*
X123029298Y-81199387D01*
X122978721Y-81185030D01*
X122927266Y-81171772D01*
X122880693Y-81161141D01*
X122844765Y-81154664D01*
X122831017Y-81152453D01*
X122811284Y-81147601D01*
X122803531Y-81143038D01*
X122804975Y-81140953D01*
X122816467Y-81128216D01*
X122838368Y-81105185D01*
X122869397Y-81073168D01*
X122908277Y-81033474D01*
X122953729Y-80987411D01*
X123004475Y-80936287D01*
X123059235Y-80881411D01*
X123314938Y-80625817D01*
X123382594Y-80654898D01*
X123383006Y-80655075D01*
X123425376Y-80674224D01*
X123471437Y-80696444D01*
X123511290Y-80716960D01*
X123572330Y-80749942D01*
X123611119Y-80719454D01*
X123626750Y-80707099D01*
X123650623Y-80687992D01*
X123667340Y-80674318D01*
X123670391Y-80671766D01*
X123693611Y-80652657D01*
X123726926Y-80625561D01*
X123767397Y-80592837D01*
X123812085Y-80556845D01*
X123858053Y-80519943D01*
X123902363Y-80484493D01*
X123942076Y-80452852D01*
X123974255Y-80427380D01*
X123995961Y-80410436D01*
X124049225Y-80369540D01*
X124608063Y-80927602D01*
G37*
G36*
X123836776Y-82436216D02*
G01*
X123849313Y-82447474D01*
X123872164Y-82469163D01*
X123904015Y-82499999D01*
X123943555Y-82538702D01*
X123989469Y-82583987D01*
X124040446Y-82634573D01*
X124095171Y-82689178D01*
X124349347Y-82943463D01*
X124326636Y-82995176D01*
X124322254Y-83004989D01*
X124305644Y-83040696D01*
X124285639Y-83082217D01*
X124265645Y-83122444D01*
X124227363Y-83198000D01*
X124281527Y-83265647D01*
X124295637Y-83283248D01*
X124319334Y-83312712D01*
X124338567Y-83336508D01*
X124350150Y-83350686D01*
X124353064Y-83354231D01*
X124366774Y-83371094D01*
X124388804Y-83398306D01*
X124417364Y-83433653D01*
X124450665Y-83474922D01*
X124486918Y-83519898D01*
X124609226Y-83671717D01*
X124329656Y-83951386D01*
X124307962Y-83973053D01*
X124243782Y-84036697D01*
X124186974Y-84092320D01*
X124138322Y-84139179D01*
X124098612Y-84176534D01*
X124068628Y-84203643D01*
X124049153Y-84219764D01*
X124040974Y-84224157D01*
X124039461Y-84222981D01*
X124026471Y-84212657D01*
X124002755Y-84193690D01*
X123970452Y-84167793D01*
X123931697Y-84136679D01*
X123888630Y-84102060D01*
X123879407Y-84094643D01*
X123834576Y-84058607D01*
X123792683Y-84024961D01*
X123756375Y-83995827D01*
X123728299Y-83973331D01*
X123711102Y-83959595D01*
X123702196Y-83952459D01*
X123673448Y-83928902D01*
X123648166Y-83907558D01*
X123619525Y-83882787D01*
X123619525Y-82973644D01*
X123657810Y-82914462D01*
X123699745Y-82843138D01*
X123753769Y-82725660D01*
X123795410Y-82599415D01*
X123823542Y-82467446D01*
X123824586Y-82461466D01*
X123829665Y-82442527D01*
X123834823Y-82434893D01*
X123836776Y-82436216D01*
G37*
%LPC*%
D11*
X127000000Y-81280000D03*
D12*
X127000000Y-83820000D03*
X127000000Y-86360000D03*
X127000000Y-88900000D03*
X127000000Y-91440000D03*
D11*
X132080000Y-81280000D03*
D12*
X132080000Y-83820000D03*
X132080000Y-86360000D03*
D13*
X150114000Y-73914000D03*
D11*
X129540000Y-93980000D03*
D12*
X129540000Y-91440000D03*
X129540000Y-88900000D03*
X129540000Y-86360000D03*
X129540000Y-83820000D03*
X129540000Y-81280000D03*
D11*
X132080000Y-93980000D03*
D14*
X137160000Y-81280000D03*
D15*
X137160000Y-83820000D03*
X137160000Y-86360000D03*
X137160000Y-88900000D03*
X137160000Y-91440000D03*
X137160000Y-93980000D03*
X137160000Y-96520000D03*
X137160000Y-99060000D03*
X144780000Y-99060000D03*
X144780000Y-96520000D03*
X144780000Y-93980000D03*
X144780000Y-91440000D03*
X144780000Y-88900000D03*
X144780000Y-86360000D03*
X144780000Y-83820000D03*
X144780000Y-81280000D03*
D16*
X144780000Y-76200000D03*
D15*
X137280000Y-76200000D03*
D13*
X122936000Y-73914000D03*
D11*
X132080000Y-76200000D03*
D12*
X129540000Y-76200000D03*
D11*
X149860000Y-81280000D03*
D12*
X149860000Y-83820000D03*
X149860000Y-86360000D03*
X149860000Y-88900000D03*
X149860000Y-91440000D03*
X149860000Y-93980000D03*
X149860000Y-96520000D03*
X149860000Y-99060000D03*
D13*
X122936000Y-104648000D03*
X150114000Y-104648000D03*
M02*
