%FSLAX45Y45*%
G04 Gerber Fmt 4.5, Leading zero omitted, Abs format (unit mm)*
G04 Created by KiCad (PCBNEW (6.0.0)) date 2022-11-09 00:12:58*
%MOMM*%
%LPD*%
G01*
G04 APERTURE LIST*
%TA.AperFunction,Profile*%
%ADD10C,0.100000*%
%TD*%
%ADD11C,0.200000*%
%ADD12C,0.320000*%
G04 APERTURE END LIST*
D10*
X15011400Y-10845800D02*
G75*
G03*
X15392400Y-10464800I0J381000D01*
G01*
X11912600Y-10464800D02*
G75*
G03*
X12293600Y-10845800I381000J0D01*
G01*
X12395200Y-10845800D02*
X12293600Y-10845800D01*
X11912600Y-10464800D02*
X11912600Y-7543800D01*
X12293600Y-7010400D02*
G75*
G03*
X11912600Y-7391400I0J-381000D01*
G01*
X15011400Y-10845800D02*
X12395200Y-10845800D01*
X15392400Y-8509000D02*
X15392400Y-9880600D01*
X15392400Y-7391400D02*
X15392400Y-8509000D01*
X15392400Y-9880600D02*
X15392400Y-10464800D01*
X12293600Y-7010400D02*
X15011400Y-7010400D01*
X11912600Y-7543800D02*
X11912600Y-7391400D01*
X15392400Y-7391400D02*
G75*
G03*
X15011400Y-7010400I-381000J0D01*
G01*
D11*
D12*
X12133600Y-7231400D02*
X12453600Y-7551400D01*
X12453600Y-7231400D02*
X12133600Y-7551400D01*
X12133600Y-10304800D02*
X12453600Y-10624800D01*
X12453600Y-10304800D02*
X12133600Y-10624800D01*
X14851400Y-7231400D02*
X15171400Y-7551400D01*
X15171400Y-7231400D02*
X14851400Y-7551400D01*
X14851400Y-10304800D02*
X15171400Y-10624800D01*
X15171400Y-10304800D02*
X14851400Y-10624800D01*
D11*
X12165219Y-11161276D02*
X12165219Y-10961276D01*
X12212838Y-10961276D01*
X12241409Y-10970800D01*
X12260457Y-10989848D01*
X12269981Y-11008895D01*
X12279505Y-11046990D01*
X12279505Y-11075562D01*
X12269981Y-11113657D01*
X12260457Y-11132705D01*
X12241409Y-11151752D01*
X12212838Y-11161276D01*
X12165219Y-11161276D01*
X12365219Y-11161276D02*
X12365219Y-11027943D01*
X12365219Y-11066038D02*
X12374743Y-11046990D01*
X12384267Y-11037467D01*
X12403314Y-11027943D01*
X12422362Y-11027943D01*
X12489028Y-11161276D02*
X12489028Y-11027943D01*
X12489028Y-10961276D02*
X12479505Y-10970800D01*
X12489028Y-10980324D01*
X12498552Y-10970800D01*
X12489028Y-10961276D01*
X12489028Y-10980324D01*
X12612838Y-11161276D02*
X12593790Y-11151752D01*
X12584267Y-11132705D01*
X12584267Y-10961276D01*
X12717600Y-11161276D02*
X12698552Y-11151752D01*
X12689028Y-11132705D01*
X12689028Y-10961276D01*
X12946171Y-11161276D02*
X12946171Y-10961276D01*
X13012838Y-11104133D01*
X13079505Y-10961276D01*
X13079505Y-11161276D01*
X13260457Y-11161276D02*
X13260457Y-11056514D01*
X13250933Y-11037467D01*
X13231886Y-11027943D01*
X13193790Y-11027943D01*
X13174743Y-11037467D01*
X13260457Y-11151752D02*
X13241409Y-11161276D01*
X13193790Y-11161276D01*
X13174743Y-11151752D01*
X13165219Y-11132705D01*
X13165219Y-11113657D01*
X13174743Y-11094610D01*
X13193790Y-11085086D01*
X13241409Y-11085086D01*
X13260457Y-11075562D01*
X13355695Y-11027943D02*
X13355695Y-11227943D01*
X13355695Y-11037467D02*
X13374743Y-11027943D01*
X13412838Y-11027943D01*
X13431886Y-11037467D01*
X13441409Y-11046990D01*
X13450933Y-11066038D01*
X13450933Y-11123181D01*
X13441409Y-11142229D01*
X13431886Y-11151752D01*
X13412838Y-11161276D01*
X13374743Y-11161276D01*
X13355695Y-11151752D01*
X13536648Y-11142229D02*
X13546171Y-11151752D01*
X13536648Y-11161276D01*
X13527124Y-11151752D01*
X13536648Y-11142229D01*
X13536648Y-11161276D01*
X13536648Y-11037467D02*
X13546171Y-11046990D01*
X13536648Y-11056514D01*
X13527124Y-11046990D01*
X13536648Y-11037467D01*
X13536648Y-11056514D01*
X11707600Y-11390800D02*
X11907600Y-11590800D01*
X11907600Y-11390800D02*
X11707600Y-11590800D01*
X12146171Y-11381276D02*
X12269981Y-11381276D01*
X12203314Y-11457467D01*
X12231886Y-11457467D01*
X12250933Y-11466990D01*
X12260457Y-11476514D01*
X12269981Y-11495562D01*
X12269981Y-11543181D01*
X12260457Y-11562228D01*
X12250933Y-11571752D01*
X12231886Y-11581276D01*
X12174743Y-11581276D01*
X12155695Y-11571752D01*
X12146171Y-11562228D01*
X12355695Y-11562228D02*
X12365219Y-11571752D01*
X12355695Y-11581276D01*
X12346171Y-11571752D01*
X12355695Y-11562228D01*
X12355695Y-11581276D01*
X12441409Y-11400324D02*
X12450933Y-11390800D01*
X12469981Y-11381276D01*
X12517600Y-11381276D01*
X12536648Y-11390800D01*
X12546171Y-11400324D01*
X12555695Y-11419371D01*
X12555695Y-11438419D01*
X12546171Y-11466990D01*
X12431886Y-11581276D01*
X12555695Y-11581276D01*
X12679505Y-11381276D02*
X12698552Y-11381276D01*
X12717600Y-11390800D01*
X12727124Y-11400324D01*
X12736648Y-11419371D01*
X12746171Y-11457467D01*
X12746171Y-11505086D01*
X12736648Y-11543181D01*
X12727124Y-11562228D01*
X12717600Y-11571752D01*
X12698552Y-11581276D01*
X12679505Y-11581276D01*
X12660457Y-11571752D01*
X12650933Y-11562228D01*
X12641409Y-11543181D01*
X12631886Y-11505086D01*
X12631886Y-11457467D01*
X12641409Y-11419371D01*
X12650933Y-11400324D01*
X12660457Y-11390800D01*
X12679505Y-11381276D01*
X12869981Y-11381276D02*
X12889028Y-11381276D01*
X12908076Y-11390800D01*
X12917600Y-11400324D01*
X12927124Y-11419371D01*
X12936648Y-11457467D01*
X12936648Y-11505086D01*
X12927124Y-11543181D01*
X12917600Y-11562228D01*
X12908076Y-11571752D01*
X12889028Y-11581276D01*
X12869981Y-11581276D01*
X12850933Y-11571752D01*
X12841409Y-11562228D01*
X12831886Y-11543181D01*
X12822362Y-11505086D01*
X12822362Y-11457467D01*
X12831886Y-11419371D01*
X12841409Y-11400324D01*
X12850933Y-11390800D01*
X12869981Y-11381276D01*
X13022362Y-11581276D02*
X13022362Y-11447943D01*
X13022362Y-11466990D02*
X13031886Y-11457467D01*
X13050933Y-11447943D01*
X13079505Y-11447943D01*
X13098552Y-11457467D01*
X13108076Y-11476514D01*
X13108076Y-11581276D01*
X13108076Y-11476514D02*
X13117600Y-11457467D01*
X13136648Y-11447943D01*
X13165219Y-11447943D01*
X13184267Y-11457467D01*
X13193790Y-11476514D01*
X13193790Y-11581276D01*
X13289028Y-11581276D02*
X13289028Y-11447943D01*
X13289028Y-11466990D02*
X13298552Y-11457467D01*
X13317600Y-11447943D01*
X13346171Y-11447943D01*
X13365219Y-11457467D01*
X13374743Y-11476514D01*
X13374743Y-11581276D01*
X13374743Y-11476514D02*
X13384267Y-11457467D01*
X13403314Y-11447943D01*
X13431886Y-11447943D01*
X13450933Y-11457467D01*
X13460457Y-11476514D01*
X13460457Y-11581276D01*
X13850933Y-11371752D02*
X13679505Y-11628895D01*
X14108076Y-11381276D02*
X14127124Y-11381276D01*
X14146171Y-11390800D01*
X14155695Y-11400324D01*
X14165219Y-11419371D01*
X14174743Y-11457467D01*
X14174743Y-11505086D01*
X14165219Y-11543181D01*
X14155695Y-11562228D01*
X14146171Y-11571752D01*
X14127124Y-11581276D01*
X14108076Y-11581276D01*
X14089028Y-11571752D01*
X14079505Y-11562228D01*
X14069981Y-11543181D01*
X14060457Y-11505086D01*
X14060457Y-11457467D01*
X14069981Y-11419371D01*
X14079505Y-11400324D01*
X14089028Y-11390800D01*
X14108076Y-11381276D01*
X14260457Y-11562228D02*
X14269981Y-11571752D01*
X14260457Y-11581276D01*
X14250933Y-11571752D01*
X14260457Y-11562228D01*
X14260457Y-11581276D01*
X14460457Y-11581276D02*
X14346171Y-11581276D01*
X14403314Y-11581276D02*
X14403314Y-11381276D01*
X14384267Y-11409848D01*
X14365219Y-11428895D01*
X14346171Y-11438419D01*
X14536648Y-11400324D02*
X14546171Y-11390800D01*
X14565219Y-11381276D01*
X14612838Y-11381276D01*
X14631886Y-11390800D01*
X14641409Y-11400324D01*
X14650933Y-11419371D01*
X14650933Y-11438419D01*
X14641409Y-11466990D01*
X14527124Y-11581276D01*
X14650933Y-11581276D01*
X14822362Y-11381276D02*
X14784267Y-11381276D01*
X14765219Y-11390800D01*
X14755695Y-11400324D01*
X14736648Y-11428895D01*
X14727124Y-11466990D01*
X14727124Y-11543181D01*
X14736648Y-11562228D01*
X14746171Y-11571752D01*
X14765219Y-11581276D01*
X14803314Y-11581276D01*
X14822362Y-11571752D01*
X14831886Y-11562228D01*
X14841409Y-11543181D01*
X14841409Y-11495562D01*
X14831886Y-11476514D01*
X14822362Y-11466990D01*
X14803314Y-11457467D01*
X14765219Y-11457467D01*
X14746171Y-11466990D01*
X14736648Y-11476514D01*
X14727124Y-11495562D01*
X14965219Y-11381276D02*
X14984267Y-11381276D01*
X15003314Y-11390800D01*
X15012838Y-11400324D01*
X15022362Y-11419371D01*
X15031886Y-11457467D01*
X15031886Y-11505086D01*
X15022362Y-11543181D01*
X15012838Y-11562228D01*
X15003314Y-11571752D01*
X14984267Y-11581276D01*
X14965219Y-11581276D01*
X14946171Y-11571752D01*
X14936648Y-11562228D01*
X14927124Y-11543181D01*
X14917600Y-11505086D01*
X14917600Y-11457467D01*
X14927124Y-11419371D01*
X14936648Y-11400324D01*
X14946171Y-11390800D01*
X14965219Y-11381276D01*
X15108076Y-11381276D02*
X15108076Y-11419371D01*
X15184267Y-11381276D02*
X15184267Y-11419371D01*
X15479505Y-11657467D02*
X15469981Y-11647943D01*
X15450933Y-11619371D01*
X15441409Y-11600324D01*
X15431886Y-11571752D01*
X15422362Y-11524133D01*
X15422362Y-11486038D01*
X15431886Y-11438419D01*
X15441409Y-11409848D01*
X15450933Y-11390800D01*
X15469981Y-11362228D01*
X15479505Y-11352705D01*
X15641409Y-11447943D02*
X15641409Y-11581276D01*
X15593790Y-11371752D02*
X15546171Y-11514609D01*
X15669981Y-11514609D01*
X15898552Y-11581276D02*
X15898552Y-11381276D01*
X15984267Y-11581276D02*
X15984267Y-11476514D01*
X15974743Y-11457467D01*
X15955695Y-11447943D01*
X15927124Y-11447943D01*
X15908076Y-11457467D01*
X15898552Y-11466990D01*
X16108076Y-11581276D02*
X16089028Y-11571752D01*
X16079505Y-11562228D01*
X16069981Y-11543181D01*
X16069981Y-11486038D01*
X16079505Y-11466990D01*
X16089028Y-11457467D01*
X16108076Y-11447943D01*
X16136648Y-11447943D01*
X16155695Y-11457467D01*
X16165219Y-11466990D01*
X16174743Y-11486038D01*
X16174743Y-11543181D01*
X16165219Y-11562228D01*
X16155695Y-11571752D01*
X16136648Y-11581276D01*
X16108076Y-11581276D01*
X16289028Y-11581276D02*
X16269981Y-11571752D01*
X16260457Y-11552705D01*
X16260457Y-11381276D01*
X16441409Y-11571752D02*
X16422362Y-11581276D01*
X16384267Y-11581276D01*
X16365219Y-11571752D01*
X16355695Y-11552705D01*
X16355695Y-11476514D01*
X16365219Y-11457467D01*
X16384267Y-11447943D01*
X16422362Y-11447943D01*
X16441409Y-11457467D01*
X16450933Y-11476514D01*
X16450933Y-11495562D01*
X16355695Y-11514609D01*
X16527124Y-11571752D02*
X16546171Y-11581276D01*
X16584267Y-11581276D01*
X16603314Y-11571752D01*
X16612838Y-11552705D01*
X16612838Y-11543181D01*
X16603314Y-11524133D01*
X16584267Y-11514609D01*
X16555695Y-11514609D01*
X16536648Y-11505086D01*
X16527124Y-11486038D01*
X16527124Y-11476514D01*
X16536648Y-11457467D01*
X16555695Y-11447943D01*
X16584267Y-11447943D01*
X16603314Y-11457467D01*
X16679505Y-11657467D02*
X16689028Y-11647943D01*
X16708076Y-11619371D01*
X16717600Y-11600324D01*
X16727124Y-11571752D01*
X16736648Y-11524133D01*
X16736648Y-11486038D01*
X16727124Y-11438419D01*
X16717600Y-11409848D01*
X16708076Y-11390800D01*
X16689028Y-11362228D01*
X16679505Y-11352705D01*
X17041410Y-11657467D02*
X17031886Y-11647943D01*
X17012838Y-11619371D01*
X17003314Y-11600324D01*
X16993790Y-11571752D01*
X16984267Y-11524133D01*
X16984267Y-11486038D01*
X16993790Y-11438419D01*
X17003314Y-11409848D01*
X17012838Y-11390800D01*
X17031886Y-11362228D01*
X17041410Y-11352705D01*
X17117600Y-11447943D02*
X17117600Y-11581276D01*
X17117600Y-11466990D02*
X17127124Y-11457467D01*
X17146171Y-11447943D01*
X17174743Y-11447943D01*
X17193790Y-11457467D01*
X17203314Y-11476514D01*
X17203314Y-11581276D01*
X17327124Y-11581276D02*
X17308076Y-11571752D01*
X17298552Y-11562228D01*
X17289029Y-11543181D01*
X17289029Y-11486038D01*
X17298552Y-11466990D01*
X17308076Y-11457467D01*
X17327124Y-11447943D01*
X17355695Y-11447943D01*
X17374743Y-11457467D01*
X17384267Y-11466990D01*
X17393790Y-11486038D01*
X17393790Y-11543181D01*
X17384267Y-11562228D01*
X17374743Y-11571752D01*
X17355695Y-11581276D01*
X17327124Y-11581276D01*
X17450933Y-11447943D02*
X17527124Y-11447943D01*
X17479505Y-11381276D02*
X17479505Y-11552705D01*
X17489029Y-11571752D01*
X17508076Y-11581276D01*
X17527124Y-11581276D01*
X17746171Y-11447943D02*
X17746171Y-11647943D01*
X17746171Y-11457467D02*
X17765219Y-11447943D01*
X17803314Y-11447943D01*
X17822362Y-11457467D01*
X17831886Y-11466990D01*
X17841410Y-11486038D01*
X17841410Y-11543181D01*
X17831886Y-11562228D01*
X17822362Y-11571752D01*
X17803314Y-11581276D01*
X17765219Y-11581276D01*
X17746171Y-11571752D01*
X17955695Y-11581276D02*
X17936648Y-11571752D01*
X17927124Y-11552705D01*
X17927124Y-11381276D01*
X18117600Y-11581276D02*
X18117600Y-11476514D01*
X18108076Y-11457467D01*
X18089029Y-11447943D01*
X18050933Y-11447943D01*
X18031886Y-11457467D01*
X18117600Y-11571752D02*
X18098552Y-11581276D01*
X18050933Y-11581276D01*
X18031886Y-11571752D01*
X18022362Y-11552705D01*
X18022362Y-11533657D01*
X18031886Y-11514609D01*
X18050933Y-11505086D01*
X18098552Y-11505086D01*
X18117600Y-11495562D01*
X18184267Y-11447943D02*
X18260457Y-11447943D01*
X18212838Y-11381276D02*
X18212838Y-11552705D01*
X18222362Y-11571752D01*
X18241410Y-11581276D01*
X18260457Y-11581276D01*
X18403314Y-11571752D02*
X18384267Y-11581276D01*
X18346171Y-11581276D01*
X18327124Y-11571752D01*
X18317600Y-11552705D01*
X18317600Y-11476514D01*
X18327124Y-11457467D01*
X18346171Y-11447943D01*
X18384267Y-11447943D01*
X18403314Y-11457467D01*
X18412838Y-11476514D01*
X18412838Y-11495562D01*
X18317600Y-11514609D01*
X18584267Y-11581276D02*
X18584267Y-11381276D01*
X18584267Y-11571752D02*
X18565219Y-11581276D01*
X18527124Y-11581276D01*
X18508076Y-11571752D01*
X18498552Y-11562228D01*
X18489029Y-11543181D01*
X18489029Y-11486038D01*
X18498552Y-11466990D01*
X18508076Y-11457467D01*
X18527124Y-11447943D01*
X18565219Y-11447943D01*
X18584267Y-11457467D01*
X18660457Y-11657467D02*
X18669981Y-11647943D01*
X18689029Y-11619371D01*
X18698552Y-11600324D01*
X18708076Y-11571752D01*
X18717600Y-11524133D01*
X18717600Y-11486038D01*
X18708076Y-11438419D01*
X18698552Y-11409848D01*
X18689029Y-11390800D01*
X18669981Y-11362228D01*
X18660457Y-11352705D01*
M02*
