G04 #@! TF.GenerationSoftware,KiCad,Pcbnew,(6.0.0)*
G04 #@! TF.CreationDate,2022-11-09T00:09:39-05:00*
G04 #@! TF.ProjectId,io_i2c,696f5f69-3263-42e6-9b69-6361645f7063,rev?*
G04 #@! TF.SameCoordinates,Original*
G04 #@! TF.FileFunction,Legend,Bot*
G04 #@! TF.FilePolarity,Positive*
%FSLAX46Y46*%
G04 Gerber Fmt 4.6, Leading zero omitted, Abs format (unit mm)*
G04 Created by KiCad (PCBNEW (6.0.0)) date 2022-11-09 00:09:39*
%MOMM*%
%LPD*%
G01*
G04 APERTURE LIST*
%ADD10C,0.150000*%
%ADD11C,0.120000*%
%ADD12C,1.600000*%
%ADD13O,1.600000X1.600000*%
%ADD14R,1.600000X1.600000*%
%ADD15C,3.200000*%
%ADD16R,1.700000X1.700000*%
%ADD17R,2.200000X2.200000*%
%ADD18O,2.200000X2.200000*%
%ADD19O,1.700000X1.700000*%
%ADD20R,1.500000X1.500000*%
%ADD21C,1.500000*%
G04 APERTURE END LIST*
D10*
X157271333Y-159980380D02*
X157271333Y-160694666D01*
X157318952Y-160837523D01*
X157414190Y-160932761D01*
X157557047Y-160980380D01*
X157652285Y-160980380D01*
X156366571Y-160313714D02*
X156366571Y-160980380D01*
X156795142Y-160313714D02*
X156795142Y-160837523D01*
X156747523Y-160932761D01*
X156652285Y-160980380D01*
X156509428Y-160980380D01*
X156414190Y-160932761D01*
X156366571Y-160885142D01*
X155890380Y-160980380D02*
X155890380Y-160313714D01*
X155890380Y-160408952D02*
X155842761Y-160361333D01*
X155747523Y-160313714D01*
X155604666Y-160313714D01*
X155509428Y-160361333D01*
X155461809Y-160456571D01*
X155461809Y-160980380D01*
X155461809Y-160456571D02*
X155414190Y-160361333D01*
X155318952Y-160313714D01*
X155176095Y-160313714D01*
X155080857Y-160361333D01*
X155033238Y-160456571D01*
X155033238Y-160980380D01*
X154557047Y-160313714D02*
X154557047Y-161313714D01*
X154557047Y-160361333D02*
X154461809Y-160313714D01*
X154271333Y-160313714D01*
X154176095Y-160361333D01*
X154128476Y-160408952D01*
X154080857Y-160504190D01*
X154080857Y-160789904D01*
X154128476Y-160885142D01*
X154176095Y-160932761D01*
X154271333Y-160980380D01*
X154461809Y-160980380D01*
X154557047Y-160932761D01*
X153271333Y-160932761D02*
X153366571Y-160980380D01*
X153557047Y-160980380D01*
X153652285Y-160932761D01*
X153699904Y-160837523D01*
X153699904Y-160456571D01*
X153652285Y-160361333D01*
X153557047Y-160313714D01*
X153366571Y-160313714D01*
X153271333Y-160361333D01*
X153223714Y-160456571D01*
X153223714Y-160551809D01*
X153699904Y-160647047D01*
X152795142Y-160980380D02*
X152795142Y-160313714D01*
X152795142Y-160504190D02*
X152747523Y-160408952D01*
X152699904Y-160361333D01*
X152604666Y-160313714D01*
X152509428Y-160313714D01*
X150985619Y-160980380D02*
X150985619Y-160456571D01*
X151033238Y-160361333D01*
X151128476Y-160313714D01*
X151318952Y-160313714D01*
X151414190Y-160361333D01*
X150985619Y-160932761D02*
X151080857Y-160980380D01*
X151318952Y-160980380D01*
X151414190Y-160932761D01*
X151461809Y-160837523D01*
X151461809Y-160742285D01*
X151414190Y-160647047D01*
X151318952Y-160599428D01*
X151080857Y-160599428D01*
X150985619Y-160551809D01*
X150080857Y-160932761D02*
X150176095Y-160980380D01*
X150366571Y-160980380D01*
X150461809Y-160932761D01*
X150509428Y-160885142D01*
X150557047Y-160789904D01*
X150557047Y-160504190D01*
X150509428Y-160408952D01*
X150461809Y-160361333D01*
X150366571Y-160313714D01*
X150176095Y-160313714D01*
X150080857Y-160361333D01*
X149652285Y-160980380D02*
X149652285Y-160313714D01*
X149652285Y-160504190D02*
X149604666Y-160408952D01*
X149557047Y-160361333D01*
X149461809Y-160313714D01*
X149366571Y-160313714D01*
X148890380Y-160980380D02*
X148985619Y-160932761D01*
X149033238Y-160885142D01*
X149080857Y-160789904D01*
X149080857Y-160504190D01*
X149033238Y-160408952D01*
X148985619Y-160361333D01*
X148890380Y-160313714D01*
X148747523Y-160313714D01*
X148652285Y-160361333D01*
X148604666Y-160408952D01*
X148557047Y-160504190D01*
X148557047Y-160789904D01*
X148604666Y-160885142D01*
X148652285Y-160932761D01*
X148747523Y-160980380D01*
X148890380Y-160980380D01*
X148176095Y-160932761D02*
X148080857Y-160980380D01*
X147890380Y-160980380D01*
X147795142Y-160932761D01*
X147747523Y-160837523D01*
X147747523Y-160789904D01*
X147795142Y-160694666D01*
X147890380Y-160647047D01*
X148033238Y-160647047D01*
X148128476Y-160599428D01*
X148176095Y-160504190D01*
X148176095Y-160456571D01*
X148128476Y-160361333D01*
X148033238Y-160313714D01*
X147890380Y-160313714D01*
X147795142Y-160361333D01*
X147366571Y-160932761D02*
X147271333Y-160980380D01*
X147080857Y-160980380D01*
X146985619Y-160932761D01*
X146938000Y-160837523D01*
X146938000Y-160789904D01*
X146985619Y-160694666D01*
X147080857Y-160647047D01*
X147223714Y-160647047D01*
X147318952Y-160599428D01*
X147366571Y-160504190D01*
X147366571Y-160456571D01*
X147318952Y-160361333D01*
X147223714Y-160313714D01*
X147080857Y-160313714D01*
X146985619Y-160361333D01*
X145318952Y-160980380D02*
X145318952Y-160456571D01*
X145366571Y-160361333D01*
X145461809Y-160313714D01*
X145652285Y-160313714D01*
X145747523Y-160361333D01*
X145318952Y-160932761D02*
X145414190Y-160980380D01*
X145652285Y-160980380D01*
X145747523Y-160932761D01*
X145795142Y-160837523D01*
X145795142Y-160742285D01*
X145747523Y-160647047D01*
X145652285Y-160599428D01*
X145414190Y-160599428D01*
X145318952Y-160551809D01*
X144699904Y-160980380D02*
X144795142Y-160932761D01*
X144842761Y-160837523D01*
X144842761Y-159980380D01*
X144176095Y-160980380D02*
X144271333Y-160932761D01*
X144318952Y-160837523D01*
X144318952Y-159980380D01*
X142747523Y-159980380D02*
X142747523Y-160694666D01*
X142795142Y-160837523D01*
X142890380Y-160932761D01*
X143033238Y-160980380D01*
X143128476Y-160980380D01*
X142318952Y-160075619D02*
X142271333Y-160028000D01*
X142176095Y-159980380D01*
X141938000Y-159980380D01*
X141842761Y-160028000D01*
X141795142Y-160075619D01*
X141747523Y-160170857D01*
X141747523Y-160266095D01*
X141795142Y-160408952D01*
X142366571Y-160980380D01*
X141747523Y-160980380D01*
X140557047Y-160313714D02*
X140557047Y-161313714D01*
X140557047Y-160361333D02*
X140461809Y-160313714D01*
X140271333Y-160313714D01*
X140176095Y-160361333D01*
X140128476Y-160408952D01*
X140080857Y-160504190D01*
X140080857Y-160789904D01*
X140128476Y-160885142D01*
X140176095Y-160932761D01*
X140271333Y-160980380D01*
X140461809Y-160980380D01*
X140557047Y-160932761D01*
X139223714Y-160980380D02*
X139223714Y-160456571D01*
X139271333Y-160361333D01*
X139366571Y-160313714D01*
X139557047Y-160313714D01*
X139652285Y-160361333D01*
X139223714Y-160932761D02*
X139318952Y-160980380D01*
X139557047Y-160980380D01*
X139652285Y-160932761D01*
X139699904Y-160837523D01*
X139699904Y-160742285D01*
X139652285Y-160647047D01*
X139557047Y-160599428D01*
X139318952Y-160599428D01*
X139223714Y-160551809D01*
X138318952Y-160980380D02*
X138318952Y-159980380D01*
X138318952Y-160932761D02*
X138414190Y-160980380D01*
X138604666Y-160980380D01*
X138699904Y-160932761D01*
X138747523Y-160885142D01*
X138795142Y-160789904D01*
X138795142Y-160504190D01*
X138747523Y-160408952D01*
X138699904Y-160361333D01*
X138604666Y-160313714D01*
X138414190Y-160313714D01*
X138318952Y-160361333D01*
X137890380Y-160932761D02*
X137795142Y-160980380D01*
X137604666Y-160980380D01*
X137509428Y-160932761D01*
X137461809Y-160837523D01*
X137461809Y-160789904D01*
X137509428Y-160694666D01*
X137604666Y-160647047D01*
X137747523Y-160647047D01*
X137842761Y-160599428D01*
X137890380Y-160504190D01*
X137890380Y-160456571D01*
X137842761Y-160361333D01*
X137747523Y-160313714D01*
X137604666Y-160313714D01*
X137509428Y-160361333D01*
X136414190Y-160313714D02*
X136033238Y-160313714D01*
X136271333Y-160980380D02*
X136271333Y-160123238D01*
X136223714Y-160028000D01*
X136128476Y-159980380D01*
X136033238Y-159980380D01*
X135557047Y-160980380D02*
X135652285Y-160932761D01*
X135699904Y-160885142D01*
X135747523Y-160789904D01*
X135747523Y-160504190D01*
X135699904Y-160408952D01*
X135652285Y-160361333D01*
X135557047Y-160313714D01*
X135414190Y-160313714D01*
X135318952Y-160361333D01*
X135271333Y-160408952D01*
X135223714Y-160504190D01*
X135223714Y-160789904D01*
X135271333Y-160885142D01*
X135318952Y-160932761D01*
X135414190Y-160980380D01*
X135557047Y-160980380D01*
X134795142Y-160980380D02*
X134795142Y-160313714D01*
X134795142Y-160504190D02*
X134747523Y-160408952D01*
X134699904Y-160361333D01*
X134604666Y-160313714D01*
X134509428Y-160313714D01*
X132842761Y-160980380D02*
X133176095Y-160504190D01*
X133414190Y-160980380D02*
X133414190Y-159980380D01*
X133033238Y-159980380D01*
X132938000Y-160028000D01*
X132890380Y-160075619D01*
X132842761Y-160170857D01*
X132842761Y-160313714D01*
X132890380Y-160408952D01*
X132938000Y-160456571D01*
X133033238Y-160504190D01*
X133414190Y-160504190D01*
X132223714Y-159980380D02*
X132033238Y-159980380D01*
X131938000Y-160028000D01*
X131842761Y-160123238D01*
X131795142Y-160313714D01*
X131795142Y-160647047D01*
X131842761Y-160837523D01*
X131938000Y-160932761D01*
X132033238Y-160980380D01*
X132223714Y-160980380D01*
X132318952Y-160932761D01*
X132414190Y-160837523D01*
X132461809Y-160647047D01*
X132461809Y-160313714D01*
X132414190Y-160123238D01*
X132318952Y-160028000D01*
X132223714Y-159980380D01*
X131366571Y-160980380D02*
X131366571Y-159980380D01*
X131033238Y-160694666D01*
X130699904Y-159980380D01*
X130699904Y-160980380D01*
X130223714Y-160599428D02*
X129461809Y-160599428D01*
X128985619Y-160980380D02*
X128985619Y-160313714D01*
X128985619Y-160408952D02*
X128938000Y-160361333D01*
X128842761Y-160313714D01*
X128699904Y-160313714D01*
X128604666Y-160361333D01*
X128557047Y-160456571D01*
X128557047Y-160980380D01*
X128557047Y-160456571D02*
X128509428Y-160361333D01*
X128414190Y-160313714D01*
X128271333Y-160313714D01*
X128176095Y-160361333D01*
X128128476Y-160456571D01*
X128128476Y-160980380D01*
X127223714Y-160980380D02*
X127223714Y-160456571D01*
X127271333Y-160361333D01*
X127366571Y-160313714D01*
X127557047Y-160313714D01*
X127652285Y-160361333D01*
X127223714Y-160932761D02*
X127318952Y-160980380D01*
X127557047Y-160980380D01*
X127652285Y-160932761D01*
X127699904Y-160837523D01*
X127699904Y-160742285D01*
X127652285Y-160647047D01*
X127557047Y-160599428D01*
X127318952Y-160599428D01*
X127223714Y-160551809D01*
X126747523Y-160313714D02*
X126747523Y-161313714D01*
X126747523Y-160361333D02*
X126652285Y-160313714D01*
X126461809Y-160313714D01*
X126366571Y-160361333D01*
X126318952Y-160408952D01*
X126271333Y-160504190D01*
X126271333Y-160789904D01*
X126318952Y-160885142D01*
X126366571Y-160932761D01*
X126461809Y-160980380D01*
X126652285Y-160980380D01*
X126747523Y-160932761D01*
X125842761Y-160313714D02*
X125842761Y-161313714D01*
X125842761Y-160361333D02*
X125747523Y-160313714D01*
X125557047Y-160313714D01*
X125461809Y-160361333D01*
X125414190Y-160408952D01*
X125366571Y-160504190D01*
X125366571Y-160789904D01*
X125414190Y-160885142D01*
X125461809Y-160932761D01*
X125557047Y-160980380D01*
X125747523Y-160980380D01*
X125842761Y-160932761D01*
X124557047Y-160932761D02*
X124652285Y-160980380D01*
X124842761Y-160980380D01*
X124938000Y-160932761D01*
X124985619Y-160837523D01*
X124985619Y-160456571D01*
X124938000Y-160361333D01*
X124842761Y-160313714D01*
X124652285Y-160313714D01*
X124557047Y-160361333D01*
X124509428Y-160456571D01*
X124509428Y-160551809D01*
X124985619Y-160647047D01*
X123652285Y-160980380D02*
X123652285Y-159980380D01*
X123652285Y-160932761D02*
X123747523Y-160980380D01*
X123938000Y-160980380D01*
X124033238Y-160932761D01*
X124080857Y-160885142D01*
X124128476Y-160789904D01*
X124128476Y-160504190D01*
X124080857Y-160408952D01*
X124033238Y-160361333D01*
X123938000Y-160313714D01*
X123747523Y-160313714D01*
X123652285Y-160361333D01*
X122414190Y-160980380D02*
X122414190Y-159980380D01*
X121223714Y-159932761D02*
X122080857Y-161218476D01*
X120699904Y-159980380D02*
X120509428Y-159980380D01*
X120414190Y-160028000D01*
X120318952Y-160123238D01*
X120271333Y-160313714D01*
X120271333Y-160647047D01*
X120318952Y-160837523D01*
X120414190Y-160932761D01*
X120509428Y-160980380D01*
X120699904Y-160980380D01*
X120795142Y-160932761D01*
X120890380Y-160837523D01*
X120938000Y-160647047D01*
X120938000Y-160313714D01*
X120890380Y-160123238D01*
X120795142Y-160028000D01*
X120699904Y-159980380D01*
X86709285Y-102560380D02*
X87280714Y-102560380D01*
X86995000Y-102560380D02*
X86995000Y-101560380D01*
X87090238Y-101703238D01*
X87185476Y-101798476D01*
X87280714Y-101846095D01*
X140450857Y-148788380D02*
X140450857Y-147788380D01*
X140117523Y-148502666D01*
X139784190Y-147788380D01*
X139784190Y-148788380D01*
X139308000Y-148788380D02*
X139308000Y-148121714D01*
X139308000Y-147788380D02*
X139355619Y-147836000D01*
X139308000Y-147883619D01*
X139260380Y-147836000D01*
X139308000Y-147788380D01*
X139308000Y-147883619D01*
X138831809Y-148121714D02*
X138831809Y-148788380D01*
X138831809Y-148216952D02*
X138784190Y-148169333D01*
X138688952Y-148121714D01*
X138546095Y-148121714D01*
X138450857Y-148169333D01*
X138403238Y-148264571D01*
X138403238Y-148788380D01*
X137927047Y-148788380D02*
X137927047Y-148121714D01*
X137927047Y-147788380D02*
X137974666Y-147836000D01*
X137927047Y-147883619D01*
X137879428Y-147836000D01*
X137927047Y-147788380D01*
X137927047Y-147883619D01*
X137450857Y-148788380D02*
X137450857Y-148121714D01*
X137450857Y-148216952D02*
X137403238Y-148169333D01*
X137308000Y-148121714D01*
X137165142Y-148121714D01*
X137069904Y-148169333D01*
X137022285Y-148264571D01*
X137022285Y-148788380D01*
X137022285Y-148264571D02*
X136974666Y-148169333D01*
X136879428Y-148121714D01*
X136736571Y-148121714D01*
X136641333Y-148169333D01*
X136593714Y-148264571D01*
X136593714Y-148788380D01*
X135688952Y-148788380D02*
X135688952Y-148264571D01*
X135736571Y-148169333D01*
X135831809Y-148121714D01*
X136022285Y-148121714D01*
X136117523Y-148169333D01*
X135688952Y-148740761D02*
X135784190Y-148788380D01*
X136022285Y-148788380D01*
X136117523Y-148740761D01*
X136165142Y-148645523D01*
X136165142Y-148550285D01*
X136117523Y-148455047D01*
X136022285Y-148407428D01*
X135784190Y-148407428D01*
X135688952Y-148359809D01*
X135069904Y-148788380D02*
X135165142Y-148740761D01*
X135212761Y-148645523D01*
X135212761Y-147788380D01*
X133927047Y-148788380D02*
X133927047Y-148121714D01*
X133927047Y-147788380D02*
X133974666Y-147836000D01*
X133927047Y-147883619D01*
X133879428Y-147836000D01*
X133927047Y-147788380D01*
X133927047Y-147883619D01*
X133450857Y-148121714D02*
X133450857Y-148788380D01*
X133450857Y-148216952D02*
X133403238Y-148169333D01*
X133308000Y-148121714D01*
X133165142Y-148121714D01*
X133069904Y-148169333D01*
X133022285Y-148264571D01*
X133022285Y-148788380D01*
X132688952Y-148121714D02*
X132308000Y-148121714D01*
X132546095Y-147788380D02*
X132546095Y-148645523D01*
X132498476Y-148740761D01*
X132403238Y-148788380D01*
X132308000Y-148788380D01*
X131593714Y-148740761D02*
X131688952Y-148788380D01*
X131879428Y-148788380D01*
X131974666Y-148740761D01*
X132022285Y-148645523D01*
X132022285Y-148264571D01*
X131974666Y-148169333D01*
X131879428Y-148121714D01*
X131688952Y-148121714D01*
X131593714Y-148169333D01*
X131546095Y-148264571D01*
X131546095Y-148359809D01*
X132022285Y-148455047D01*
X131117523Y-148788380D02*
X131117523Y-148121714D01*
X131117523Y-148312190D02*
X131069904Y-148216952D01*
X131022285Y-148169333D01*
X130927047Y-148121714D01*
X130831809Y-148121714D01*
X130641333Y-148121714D02*
X130260380Y-148121714D01*
X130498476Y-148788380D02*
X130498476Y-147931238D01*
X130450857Y-147836000D01*
X130355619Y-147788380D01*
X130260380Y-147788380D01*
X129498476Y-148788380D02*
X129498476Y-148264571D01*
X129546095Y-148169333D01*
X129641333Y-148121714D01*
X129831809Y-148121714D01*
X129927047Y-148169333D01*
X129498476Y-148740761D02*
X129593714Y-148788380D01*
X129831809Y-148788380D01*
X129927047Y-148740761D01*
X129974666Y-148645523D01*
X129974666Y-148550285D01*
X129927047Y-148455047D01*
X129831809Y-148407428D01*
X129593714Y-148407428D01*
X129498476Y-148359809D01*
X128593714Y-148740761D02*
X128688952Y-148788380D01*
X128879428Y-148788380D01*
X128974666Y-148740761D01*
X129022285Y-148693142D01*
X129069904Y-148597904D01*
X129069904Y-148312190D01*
X129022285Y-148216952D01*
X128974666Y-148169333D01*
X128879428Y-148121714D01*
X128688952Y-148121714D01*
X128593714Y-148169333D01*
X127784190Y-148740761D02*
X127879428Y-148788380D01*
X128069904Y-148788380D01*
X128165142Y-148740761D01*
X128212761Y-148645523D01*
X128212761Y-148264571D01*
X128165142Y-148169333D01*
X128069904Y-148121714D01*
X127879428Y-148121714D01*
X127784190Y-148169333D01*
X127736571Y-148264571D01*
X127736571Y-148359809D01*
X128212761Y-148455047D01*
X126546095Y-148788380D02*
X126546095Y-148121714D01*
X126546095Y-147788380D02*
X126593714Y-147836000D01*
X126546095Y-147883619D01*
X126498476Y-147836000D01*
X126546095Y-147788380D01*
X126546095Y-147883619D01*
X126117523Y-148740761D02*
X126022285Y-148788380D01*
X125831809Y-148788380D01*
X125736571Y-148740761D01*
X125688952Y-148645523D01*
X125688952Y-148597904D01*
X125736571Y-148502666D01*
X125831809Y-148455047D01*
X125974666Y-148455047D01*
X126069904Y-148407428D01*
X126117523Y-148312190D01*
X126117523Y-148264571D01*
X126069904Y-148169333D01*
X125974666Y-148121714D01*
X125831809Y-148121714D01*
X125736571Y-148169333D01*
X124641333Y-148121714D02*
X124260380Y-148121714D01*
X124498476Y-147788380D02*
X124498476Y-148645523D01*
X124450857Y-148740761D01*
X124355619Y-148788380D01*
X124260380Y-148788380D01*
X123927047Y-148788380D02*
X123927047Y-147788380D01*
X123498476Y-148788380D02*
X123498476Y-148264571D01*
X123546095Y-148169333D01*
X123641333Y-148121714D01*
X123784190Y-148121714D01*
X123879428Y-148169333D01*
X123927047Y-148216952D01*
X122641333Y-148740761D02*
X122736571Y-148788380D01*
X122927047Y-148788380D01*
X123022285Y-148740761D01*
X123069904Y-148645523D01*
X123069904Y-148264571D01*
X123022285Y-148169333D01*
X122927047Y-148121714D01*
X122736571Y-148121714D01*
X122641333Y-148169333D01*
X122593714Y-148264571D01*
X122593714Y-148359809D01*
X123069904Y-148455047D01*
X120974666Y-148788380D02*
X120974666Y-148264571D01*
X121022285Y-148169333D01*
X121117523Y-148121714D01*
X121307999Y-148121714D01*
X121403238Y-148169333D01*
X120974666Y-148740761D02*
X121069904Y-148788380D01*
X121307999Y-148788380D01*
X121403238Y-148740761D01*
X121450857Y-148645523D01*
X121450857Y-148550285D01*
X121403238Y-148455047D01*
X121307999Y-148407428D01*
X121069904Y-148407428D01*
X120974666Y-148359809D01*
X120498476Y-148788380D02*
X120498476Y-148121714D01*
X120498476Y-148312190D02*
X120450857Y-148216952D01*
X120403238Y-148169333D01*
X120307999Y-148121714D01*
X120212761Y-148121714D01*
X119450857Y-148788380D02*
X119450857Y-147788380D01*
X119450857Y-148740761D02*
X119546095Y-148788380D01*
X119736571Y-148788380D01*
X119831809Y-148740761D01*
X119879428Y-148693142D01*
X119927047Y-148597904D01*
X119927047Y-148312190D01*
X119879428Y-148216952D01*
X119831809Y-148169333D01*
X119736571Y-148121714D01*
X119546095Y-148121714D01*
X119450857Y-148169333D01*
X118546095Y-148121714D02*
X118546095Y-148788380D01*
X118974666Y-148121714D02*
X118974666Y-148645523D01*
X118927047Y-148740761D01*
X118831809Y-148788380D01*
X118688952Y-148788380D01*
X118593714Y-148740761D01*
X118546095Y-148693142D01*
X118069904Y-148788380D02*
X118069904Y-148121714D01*
X118069904Y-147788380D02*
X118117523Y-147836000D01*
X118069904Y-147883619D01*
X118022285Y-147836000D01*
X118069904Y-147788380D01*
X118069904Y-147883619D01*
X117593714Y-148121714D02*
X117593714Y-148788380D01*
X117593714Y-148216952D02*
X117546095Y-148169333D01*
X117450857Y-148121714D01*
X117308000Y-148121714D01*
X117212761Y-148169333D01*
X117165142Y-148264571D01*
X117165142Y-148788380D01*
X116546095Y-148788380D02*
X116641333Y-148740761D01*
X116688952Y-148693142D01*
X116736571Y-148597904D01*
X116736571Y-148312190D01*
X116688952Y-148216952D01*
X116641333Y-148169333D01*
X116546095Y-148121714D01*
X116403238Y-148121714D01*
X116308000Y-148169333D01*
X116260380Y-148216952D01*
X116212761Y-148312190D01*
X116212761Y-148597904D01*
X116260380Y-148693142D01*
X116308000Y-148740761D01*
X116403238Y-148788380D01*
X116546095Y-148788380D01*
X115736571Y-148740761D02*
X115736571Y-148788380D01*
X115784190Y-148883619D01*
X115831809Y-148931238D01*
X113879428Y-148883619D02*
X113974666Y-148836000D01*
X114069904Y-148740761D01*
X114212761Y-148597904D01*
X114308000Y-148550285D01*
X114403238Y-148550285D01*
X114355619Y-148788380D02*
X114450857Y-148740761D01*
X114546095Y-148645523D01*
X114593714Y-148455047D01*
X114593714Y-148121714D01*
X114546095Y-147931238D01*
X114450857Y-147836000D01*
X114355619Y-147788380D01*
X114165142Y-147788380D01*
X114069904Y-147836000D01*
X113974666Y-147931238D01*
X113927047Y-148121714D01*
X113927047Y-148455047D01*
X113974666Y-148645523D01*
X114069904Y-148740761D01*
X114165142Y-148788380D01*
X114355619Y-148788380D01*
X112974666Y-148788380D02*
X113546095Y-148788380D01*
X113260380Y-148788380D02*
X113260380Y-147788380D01*
X113355619Y-147931238D01*
X113450857Y-148026476D01*
X113546095Y-148074095D01*
X112498476Y-148740761D02*
X112498476Y-148788380D01*
X112546095Y-148883619D01*
X112593714Y-148931238D01*
X110736571Y-148788380D02*
X111069904Y-148312190D01*
X111308000Y-148788380D02*
X111308000Y-147788380D01*
X110927047Y-147788380D01*
X110831809Y-147836000D01*
X110784190Y-147883619D01*
X110736571Y-147978857D01*
X110736571Y-148121714D01*
X110784190Y-148216952D01*
X110831809Y-148264571D01*
X110927047Y-148312190D01*
X111308000Y-148312190D01*
X109784190Y-148788380D02*
X110355619Y-148788380D01*
X110069904Y-148788380D02*
X110069904Y-147788380D01*
X110165142Y-147931238D01*
X110260380Y-148026476D01*
X110355619Y-148074095D01*
X109308000Y-148740761D02*
X109308000Y-148788380D01*
X109355619Y-148883619D01*
X109403238Y-148931238D01*
X107688952Y-148788380D02*
X107688952Y-148264571D01*
X107736571Y-148169333D01*
X107831809Y-148121714D01*
X108022285Y-148121714D01*
X108117523Y-148169333D01*
X107688952Y-148740761D02*
X107784190Y-148788380D01*
X108022285Y-148788380D01*
X108117523Y-148740761D01*
X108165142Y-148645523D01*
X108165142Y-148550285D01*
X108117523Y-148455047D01*
X108022285Y-148407428D01*
X107784190Y-148407428D01*
X107688952Y-148359809D01*
X107212761Y-148121714D02*
X107212761Y-148788380D01*
X107212761Y-148216952D02*
X107165142Y-148169333D01*
X107069904Y-148121714D01*
X106927047Y-148121714D01*
X106831809Y-148169333D01*
X106784190Y-148264571D01*
X106784190Y-148788380D01*
X105879428Y-148788380D02*
X105879428Y-147788380D01*
X105879428Y-148740761D02*
X105974666Y-148788380D01*
X106165142Y-148788380D01*
X106260380Y-148740761D01*
X106308000Y-148693142D01*
X106355619Y-148597904D01*
X106355619Y-148312190D01*
X106308000Y-148216952D01*
X106260380Y-148169333D01*
X106165142Y-148121714D01*
X105974666Y-148121714D01*
X105879428Y-148169333D01*
X104069904Y-148788380D02*
X104403238Y-148312190D01*
X104641333Y-148788380D02*
X104641333Y-147788380D01*
X104260380Y-147788380D01*
X104165142Y-147836000D01*
X104117523Y-147883619D01*
X104069904Y-147978857D01*
X104069904Y-148121714D01*
X104117523Y-148216952D01*
X104165142Y-148264571D01*
X104260380Y-148312190D01*
X104641333Y-148312190D01*
X103212761Y-148121714D02*
X103212761Y-148788380D01*
X103450857Y-147740761D02*
X103688952Y-148455047D01*
X103069904Y-148455047D01*
X101498476Y-148740761D02*
X101593714Y-148788380D01*
X101784190Y-148788380D01*
X101879428Y-148740761D01*
X101927047Y-148693142D01*
X101974666Y-148597904D01*
X101974666Y-148312190D01*
X101927047Y-148216952D01*
X101879428Y-148169333D01*
X101784190Y-148121714D01*
X101593714Y-148121714D01*
X101498476Y-148169333D01*
X100927047Y-148788380D02*
X101022285Y-148740761D01*
X101069904Y-148693142D01*
X101117523Y-148597904D01*
X101117523Y-148312190D01*
X101069904Y-148216952D01*
X101022285Y-148169333D01*
X100927047Y-148121714D01*
X100784190Y-148121714D01*
X100688952Y-148169333D01*
X100641333Y-148216952D01*
X100593714Y-148312190D01*
X100593714Y-148597904D01*
X100641333Y-148693142D01*
X100688952Y-148740761D01*
X100784190Y-148788380D01*
X100927047Y-148788380D01*
X100165142Y-148121714D02*
X100165142Y-148788380D01*
X100165142Y-148216952D02*
X100117523Y-148169333D01*
X100022285Y-148121714D01*
X99879428Y-148121714D01*
X99784190Y-148169333D01*
X99736571Y-148264571D01*
X99736571Y-148788380D01*
X99260380Y-148121714D02*
X99260380Y-148788380D01*
X99260380Y-148216952D02*
X99212761Y-148169333D01*
X99117523Y-148121714D01*
X98974666Y-148121714D01*
X98879428Y-148169333D01*
X98831809Y-148264571D01*
X98831809Y-148788380D01*
X97974666Y-148740761D02*
X98069904Y-148788380D01*
X98260380Y-148788380D01*
X98355619Y-148740761D01*
X98403238Y-148645523D01*
X98403238Y-148264571D01*
X98355619Y-148169333D01*
X98260380Y-148121714D01*
X98069904Y-148121714D01*
X97974666Y-148169333D01*
X97927047Y-148264571D01*
X97927047Y-148359809D01*
X98403238Y-148455047D01*
X97069904Y-148740761D02*
X97165142Y-148788380D01*
X97355619Y-148788380D01*
X97450857Y-148740761D01*
X97498476Y-148693142D01*
X97546095Y-148597904D01*
X97546095Y-148312190D01*
X97498476Y-148216952D01*
X97450857Y-148169333D01*
X97355619Y-148121714D01*
X97165142Y-148121714D01*
X97069904Y-148169333D01*
X96784190Y-148121714D02*
X96403238Y-148121714D01*
X96641333Y-147788380D02*
X96641333Y-148645523D01*
X96593714Y-148740761D01*
X96498476Y-148788380D01*
X96403238Y-148788380D01*
X95688952Y-148740761D02*
X95784190Y-148788380D01*
X95974666Y-148788380D01*
X96069904Y-148740761D01*
X96117523Y-148645523D01*
X96117523Y-148264571D01*
X96069904Y-148169333D01*
X95974666Y-148121714D01*
X95784190Y-148121714D01*
X95688952Y-148169333D01*
X95641333Y-148264571D01*
X95641333Y-148359809D01*
X96117523Y-148455047D01*
X94784190Y-148788380D02*
X94784190Y-147788380D01*
X94784190Y-148740761D02*
X94879428Y-148788380D01*
X95069904Y-148788380D01*
X95165142Y-148740761D01*
X95212761Y-148693142D01*
X95260380Y-148597904D01*
X95260380Y-148312190D01*
X95212761Y-148216952D01*
X95165142Y-148169333D01*
X95069904Y-148121714D01*
X94879428Y-148121714D01*
X94784190Y-148169333D01*
X93403238Y-148788380D02*
X93498476Y-148740761D01*
X93546095Y-148693142D01*
X93593714Y-148597904D01*
X93593714Y-148312190D01*
X93546095Y-148216952D01*
X93498476Y-148169333D01*
X93403238Y-148121714D01*
X93260380Y-148121714D01*
X93165142Y-148169333D01*
X93117523Y-148216952D01*
X93069904Y-148312190D01*
X93069904Y-148597904D01*
X93117523Y-148693142D01*
X93165142Y-148740761D01*
X93260380Y-148788380D01*
X93403238Y-148788380D01*
X92212761Y-148121714D02*
X92212761Y-148788380D01*
X92641333Y-148121714D02*
X92641333Y-148645523D01*
X92593714Y-148740761D01*
X92498476Y-148788380D01*
X92355619Y-148788380D01*
X92260380Y-148740761D01*
X92212761Y-148693142D01*
X91879428Y-148121714D02*
X91498476Y-148121714D01*
X91736571Y-147788380D02*
X91736571Y-148645523D01*
X91688952Y-148740761D01*
X91593714Y-148788380D01*
X91498476Y-148788380D01*
X90117523Y-147788380D02*
X90117523Y-148502666D01*
X90165142Y-148645523D01*
X90260380Y-148740761D01*
X90403238Y-148788380D01*
X90498476Y-148788380D01*
X89688952Y-147883619D02*
X89641333Y-147836000D01*
X89546095Y-147788380D01*
X89308000Y-147788380D01*
X89212761Y-147836000D01*
X89165142Y-147883619D01*
X89117523Y-147978857D01*
X89117523Y-148074095D01*
X89165142Y-148216952D01*
X89736571Y-148788380D01*
X89117523Y-148788380D01*
X116020571Y-137288380D02*
X116020571Y-138097904D01*
X115972952Y-138193142D01*
X115925333Y-138240761D01*
X115830095Y-138288380D01*
X115639619Y-138288380D01*
X115544380Y-138240761D01*
X115496761Y-138193142D01*
X115449142Y-138097904D01*
X115449142Y-137288380D01*
X114544380Y-137288380D02*
X114734857Y-137288380D01*
X114830095Y-137336000D01*
X114877714Y-137383619D01*
X114972952Y-137526476D01*
X115020571Y-137716952D01*
X115020571Y-138097904D01*
X114972952Y-138193142D01*
X114925333Y-138240761D01*
X114830095Y-138288380D01*
X114639619Y-138288380D01*
X114544380Y-138240761D01*
X114496761Y-138193142D01*
X114449142Y-138097904D01*
X114449142Y-137859809D01*
X114496761Y-137764571D01*
X114544380Y-137716952D01*
X114639619Y-137669333D01*
X114830095Y-137669333D01*
X114925333Y-137716952D01*
X114972952Y-137764571D01*
X115020571Y-137859809D01*
X113972952Y-138240761D02*
X113972952Y-138288380D01*
X114020571Y-138383619D01*
X114068190Y-138431238D01*
X112211047Y-138288380D02*
X112544380Y-137812190D01*
X112782476Y-138288380D02*
X112782476Y-137288380D01*
X112401523Y-137288380D01*
X112306285Y-137336000D01*
X112258666Y-137383619D01*
X112211047Y-137478857D01*
X112211047Y-137621714D01*
X112258666Y-137716952D01*
X112306285Y-137764571D01*
X112401523Y-137812190D01*
X112782476Y-137812190D01*
X111306285Y-137288380D02*
X111782476Y-137288380D01*
X111830095Y-137764571D01*
X111782476Y-137716952D01*
X111687238Y-137669333D01*
X111449142Y-137669333D01*
X111353904Y-137716952D01*
X111306285Y-137764571D01*
X111258666Y-137859809D01*
X111258666Y-138097904D01*
X111306285Y-138193142D01*
X111353904Y-138240761D01*
X111449142Y-138288380D01*
X111687238Y-138288380D01*
X111782476Y-138240761D01*
X111830095Y-138193142D01*
X110782476Y-138240761D02*
X110782476Y-138288380D01*
X110830095Y-138383619D01*
X110877714Y-138431238D01*
X109020571Y-138193142D02*
X109068190Y-138240761D01*
X109211047Y-138288380D01*
X109306285Y-138288380D01*
X109449142Y-138240761D01*
X109544380Y-138145523D01*
X109592000Y-138050285D01*
X109639619Y-137859809D01*
X109639619Y-137716952D01*
X109592000Y-137526476D01*
X109544380Y-137431238D01*
X109449142Y-137336000D01*
X109306285Y-137288380D01*
X109211047Y-137288380D01*
X109068190Y-137336000D01*
X109020571Y-137383619D01*
X108163428Y-137621714D02*
X108163428Y-138288380D01*
X108401523Y-137240761D02*
X108639619Y-137955047D01*
X108020571Y-137955047D01*
X107592000Y-138240761D02*
X107592000Y-138288380D01*
X107639619Y-138383619D01*
X107687238Y-138431238D01*
X105972952Y-138288380D02*
X105972952Y-137764571D01*
X106020571Y-137669333D01*
X106115809Y-137621714D01*
X106306285Y-137621714D01*
X106401523Y-137669333D01*
X105972952Y-138240761D02*
X106068190Y-138288380D01*
X106306285Y-138288380D01*
X106401523Y-138240761D01*
X106449142Y-138145523D01*
X106449142Y-138050285D01*
X106401523Y-137955047D01*
X106306285Y-137907428D01*
X106068190Y-137907428D01*
X105972952Y-137859809D01*
X105496761Y-137621714D02*
X105496761Y-138288380D01*
X105496761Y-137716952D02*
X105449142Y-137669333D01*
X105353904Y-137621714D01*
X105211047Y-137621714D01*
X105115809Y-137669333D01*
X105068190Y-137764571D01*
X105068190Y-138288380D01*
X104163428Y-138288380D02*
X104163428Y-137288380D01*
X104163428Y-138240761D02*
X104258666Y-138288380D01*
X104449142Y-138288380D01*
X104544380Y-138240761D01*
X104592000Y-138193142D01*
X104639619Y-138097904D01*
X104639619Y-137812190D01*
X104592000Y-137716952D01*
X104544380Y-137669333D01*
X104449142Y-137621714D01*
X104258666Y-137621714D01*
X104163428Y-137669333D01*
X103068190Y-137621714D02*
X102687238Y-137621714D01*
X102925333Y-138288380D02*
X102925333Y-137431238D01*
X102877714Y-137336000D01*
X102782476Y-137288380D01*
X102687238Y-137288380D01*
X102353904Y-138288380D02*
X102353904Y-137621714D01*
X102353904Y-137288380D02*
X102401523Y-137336000D01*
X102353904Y-137383619D01*
X102306285Y-137336000D01*
X102353904Y-137288380D01*
X102353904Y-137383619D01*
X102020571Y-137621714D02*
X101639619Y-137621714D01*
X101877714Y-137288380D02*
X101877714Y-138145523D01*
X101830095Y-138240761D01*
X101734857Y-138288380D01*
X101639619Y-138288380D01*
X101449142Y-137621714D02*
X101068190Y-137621714D01*
X101306285Y-137288380D02*
X101306285Y-138145523D01*
X101258666Y-138240761D01*
X101163428Y-138288380D01*
X101068190Y-138288380D01*
X100734857Y-138288380D02*
X100734857Y-137621714D01*
X100734857Y-137288380D02*
X100782476Y-137336000D01*
X100734857Y-137383619D01*
X100687238Y-137336000D01*
X100734857Y-137288380D01*
X100734857Y-137383619D01*
X100258666Y-137621714D02*
X100258666Y-138288380D01*
X100258666Y-137716952D02*
X100211047Y-137669333D01*
X100115809Y-137621714D01*
X99972952Y-137621714D01*
X99877714Y-137669333D01*
X99830095Y-137764571D01*
X99830095Y-138288380D01*
X98925333Y-137621714D02*
X98925333Y-138431238D01*
X98972952Y-138526476D01*
X99020571Y-138574095D01*
X99115809Y-138621714D01*
X99258666Y-138621714D01*
X99353904Y-138574095D01*
X98925333Y-138240761D02*
X99020571Y-138288380D01*
X99211047Y-138288380D01*
X99306285Y-138240761D01*
X99353904Y-138193142D01*
X99401523Y-138097904D01*
X99401523Y-137812190D01*
X99353904Y-137716952D01*
X99306285Y-137669333D01*
X99211047Y-137621714D01*
X99020571Y-137621714D01*
X98925333Y-137669333D01*
X97687238Y-137288380D02*
X97687238Y-138097904D01*
X97639619Y-138193142D01*
X97592000Y-138240761D01*
X97496761Y-138288380D01*
X97306285Y-138288380D01*
X97211047Y-138240761D01*
X97163428Y-138193142D01*
X97115809Y-138097904D01*
X97115809Y-137288380D01*
X96115809Y-138288380D02*
X96687238Y-138288380D01*
X96401523Y-138288380D02*
X96401523Y-137288380D01*
X96496761Y-137431238D01*
X96592000Y-137526476D01*
X96687238Y-137574095D01*
X95020571Y-137621714D02*
X94830095Y-138288380D01*
X94639619Y-137812190D01*
X94449142Y-138288380D01*
X94258666Y-137621714D01*
X93877714Y-138288380D02*
X93877714Y-137621714D01*
X93877714Y-137288380D02*
X93925333Y-137336000D01*
X93877714Y-137383619D01*
X93830095Y-137336000D01*
X93877714Y-137288380D01*
X93877714Y-137383619D01*
X93544380Y-137621714D02*
X93163428Y-137621714D01*
X93401523Y-137288380D02*
X93401523Y-138145523D01*
X93353904Y-138240761D01*
X93258666Y-138288380D01*
X93163428Y-138288380D01*
X92830095Y-138288380D02*
X92830095Y-137288380D01*
X92401523Y-138288380D02*
X92401523Y-137764571D01*
X92449142Y-137669333D01*
X92544380Y-137621714D01*
X92687238Y-137621714D01*
X92782476Y-137669333D01*
X92830095Y-137716952D01*
X90734857Y-138288380D02*
X90734857Y-137764571D01*
X90782476Y-137669333D01*
X90877714Y-137621714D01*
X91068190Y-137621714D01*
X91163428Y-137669333D01*
X90734857Y-138240761D02*
X90830095Y-138288380D01*
X91068190Y-138288380D01*
X91163428Y-138240761D01*
X91211047Y-138145523D01*
X91211047Y-138050285D01*
X91163428Y-137955047D01*
X91068190Y-137907428D01*
X90830095Y-137907428D01*
X90734857Y-137859809D01*
X89544380Y-137383619D02*
X89496761Y-137336000D01*
X89401523Y-137288380D01*
X89163428Y-137288380D01*
X89068190Y-137336000D01*
X89020571Y-137383619D01*
X88972952Y-137478857D01*
X88972952Y-137574095D01*
X89020571Y-137716952D01*
X89592000Y-138288380D01*
X88972952Y-138288380D01*
X88401523Y-137716952D02*
X88496761Y-137669333D01*
X88544380Y-137621714D01*
X88592000Y-137526476D01*
X88592000Y-137478857D01*
X88544380Y-137383619D01*
X88496761Y-137336000D01*
X88401523Y-137288380D01*
X88211047Y-137288380D01*
X88115809Y-137336000D01*
X88068190Y-137383619D01*
X88020571Y-137478857D01*
X88020571Y-137526476D01*
X88068190Y-137621714D01*
X88115809Y-137669333D01*
X88211047Y-137716952D01*
X88401523Y-137716952D01*
X88496761Y-137764571D01*
X88544380Y-137812190D01*
X88592000Y-137907428D01*
X88592000Y-138097904D01*
X88544380Y-138193142D01*
X88496761Y-138240761D01*
X88401523Y-138288380D01*
X88211047Y-138288380D01*
X88115809Y-138240761D01*
X88068190Y-138193142D01*
X88020571Y-138097904D01*
X88020571Y-137907428D01*
X88068190Y-137812190D01*
X88115809Y-137764571D01*
X88211047Y-137716952D01*
X87068190Y-138288380D02*
X87639619Y-138288380D01*
X87353904Y-138288380D02*
X87353904Y-137288380D01*
X87449142Y-137431238D01*
X87544380Y-137526476D01*
X87639619Y-137574095D01*
X86211047Y-137288380D02*
X86401523Y-137288380D01*
X86496761Y-137336000D01*
X86544380Y-137383619D01*
X86639619Y-137526476D01*
X86687238Y-137716952D01*
X86687238Y-138097904D01*
X86639619Y-138193142D01*
X86592000Y-138240761D01*
X86496761Y-138288380D01*
X86306285Y-138288380D01*
X86211047Y-138240761D01*
X86163428Y-138193142D01*
X86115809Y-138097904D01*
X86115809Y-137859809D01*
X86163428Y-137764571D01*
X86211047Y-137716952D01*
X86306285Y-137669333D01*
X86496761Y-137669333D01*
X86592000Y-137716952D01*
X86639619Y-137764571D01*
X86687238Y-137859809D01*
X112782476Y-139850761D02*
X112877714Y-139898380D01*
X113068190Y-139898380D01*
X113163428Y-139850761D01*
X113211047Y-139755523D01*
X113211047Y-139374571D01*
X113163428Y-139279333D01*
X113068190Y-139231714D01*
X112877714Y-139231714D01*
X112782476Y-139279333D01*
X112734857Y-139374571D01*
X112734857Y-139469809D01*
X113211047Y-139565047D01*
X112306285Y-139231714D02*
X112306285Y-139898380D01*
X112306285Y-139326952D02*
X112258666Y-139279333D01*
X112163428Y-139231714D01*
X112020571Y-139231714D01*
X111925333Y-139279333D01*
X111877714Y-139374571D01*
X111877714Y-139898380D01*
X110972952Y-139898380D02*
X110972952Y-139374571D01*
X111020571Y-139279333D01*
X111115809Y-139231714D01*
X111306285Y-139231714D01*
X111401523Y-139279333D01*
X110972952Y-139850761D02*
X111068190Y-139898380D01*
X111306285Y-139898380D01*
X111401523Y-139850761D01*
X111449142Y-139755523D01*
X111449142Y-139660285D01*
X111401523Y-139565047D01*
X111306285Y-139517428D01*
X111068190Y-139517428D01*
X110972952Y-139469809D01*
X110496761Y-139898380D02*
X110496761Y-138898380D01*
X110496761Y-139279333D02*
X110401523Y-139231714D01*
X110211047Y-139231714D01*
X110115809Y-139279333D01*
X110068190Y-139326952D01*
X110020571Y-139422190D01*
X110020571Y-139707904D01*
X110068190Y-139803142D01*
X110115809Y-139850761D01*
X110211047Y-139898380D01*
X110401523Y-139898380D01*
X110496761Y-139850761D01*
X109449142Y-139898380D02*
X109544380Y-139850761D01*
X109592000Y-139755523D01*
X109592000Y-138898380D01*
X108687238Y-139850761D02*
X108782476Y-139898380D01*
X108972952Y-139898380D01*
X109068190Y-139850761D01*
X109115809Y-139755523D01*
X109115809Y-139374571D01*
X109068190Y-139279333D01*
X108972952Y-139231714D01*
X108782476Y-139231714D01*
X108687238Y-139279333D01*
X108639619Y-139374571D01*
X108639619Y-139469809D01*
X109115809Y-139565047D01*
X108258666Y-139850761D02*
X108163428Y-139898380D01*
X107972952Y-139898380D01*
X107877714Y-139850761D01*
X107830095Y-139755523D01*
X107830095Y-139707904D01*
X107877714Y-139612666D01*
X107972952Y-139565047D01*
X108115809Y-139565047D01*
X108211047Y-139517428D01*
X108258666Y-139422190D01*
X108258666Y-139374571D01*
X108211047Y-139279333D01*
X108115809Y-139231714D01*
X107972952Y-139231714D01*
X107877714Y-139279333D01*
X106496761Y-139898380D02*
X106592000Y-139850761D01*
X106639619Y-139803142D01*
X106687238Y-139707904D01*
X106687238Y-139422190D01*
X106639619Y-139326952D01*
X106592000Y-139279333D01*
X106496761Y-139231714D01*
X106353904Y-139231714D01*
X106258666Y-139279333D01*
X106211047Y-139326952D01*
X106163428Y-139422190D01*
X106163428Y-139707904D01*
X106211047Y-139803142D01*
X106258666Y-139850761D01*
X106353904Y-139898380D01*
X106496761Y-139898380D01*
X105734857Y-139231714D02*
X105734857Y-139898380D01*
X105734857Y-139326952D02*
X105687238Y-139279333D01*
X105592000Y-139231714D01*
X105449142Y-139231714D01*
X105353904Y-139279333D01*
X105306285Y-139374571D01*
X105306285Y-139898380D01*
X104830095Y-139898380D02*
X104830095Y-138898380D01*
X104830095Y-139279333D02*
X104734857Y-139231714D01*
X104544380Y-139231714D01*
X104449142Y-139279333D01*
X104401523Y-139326952D01*
X104353904Y-139422190D01*
X104353904Y-139707904D01*
X104401523Y-139803142D01*
X104449142Y-139850761D01*
X104544380Y-139898380D01*
X104734857Y-139898380D01*
X104830095Y-139850761D01*
X103782476Y-139898380D02*
X103877714Y-139850761D01*
X103925333Y-139803142D01*
X103972952Y-139707904D01*
X103972952Y-139422190D01*
X103925333Y-139326952D01*
X103877714Y-139279333D01*
X103782476Y-139231714D01*
X103639619Y-139231714D01*
X103544380Y-139279333D01*
X103496761Y-139326952D01*
X103449142Y-139422190D01*
X103449142Y-139707904D01*
X103496761Y-139803142D01*
X103544380Y-139850761D01*
X103639619Y-139898380D01*
X103782476Y-139898380D01*
X102592000Y-139898380D02*
X102592000Y-139374571D01*
X102639619Y-139279333D01*
X102734857Y-139231714D01*
X102925333Y-139231714D01*
X103020571Y-139279333D01*
X102592000Y-139850761D02*
X102687238Y-139898380D01*
X102925333Y-139898380D01*
X103020571Y-139850761D01*
X103068190Y-139755523D01*
X103068190Y-139660285D01*
X103020571Y-139565047D01*
X102925333Y-139517428D01*
X102687238Y-139517428D01*
X102592000Y-139469809D01*
X102115809Y-139898380D02*
X102115809Y-139231714D01*
X102115809Y-139422190D02*
X102068190Y-139326952D01*
X102020571Y-139279333D01*
X101925333Y-139231714D01*
X101830095Y-139231714D01*
X101068190Y-139898380D02*
X101068190Y-138898380D01*
X101068190Y-139850761D02*
X101163428Y-139898380D01*
X101353904Y-139898380D01*
X101449142Y-139850761D01*
X101496761Y-139803142D01*
X101544380Y-139707904D01*
X101544380Y-139422190D01*
X101496761Y-139326952D01*
X101449142Y-139279333D01*
X101353904Y-139231714D01*
X101163428Y-139231714D01*
X101068190Y-139279333D01*
X99830095Y-139898380D02*
X99830095Y-139231714D01*
X99830095Y-139422190D02*
X99782476Y-139326952D01*
X99734857Y-139279333D01*
X99639619Y-139231714D01*
X99544380Y-139231714D01*
X98830095Y-139850761D02*
X98925333Y-139898380D01*
X99115809Y-139898380D01*
X99211047Y-139850761D01*
X99258666Y-139755523D01*
X99258666Y-139374571D01*
X99211047Y-139279333D01*
X99115809Y-139231714D01*
X98925333Y-139231714D01*
X98830095Y-139279333D01*
X98782476Y-139374571D01*
X98782476Y-139469809D01*
X99258666Y-139565047D01*
X98353904Y-139231714D02*
X98353904Y-140231714D01*
X98353904Y-139279333D02*
X98258666Y-139231714D01*
X98068190Y-139231714D01*
X97972952Y-139279333D01*
X97925333Y-139326952D01*
X97877714Y-139422190D01*
X97877714Y-139707904D01*
X97925333Y-139803142D01*
X97972952Y-139850761D01*
X98068190Y-139898380D01*
X98258666Y-139898380D01*
X98353904Y-139850761D01*
X97449142Y-139898380D02*
X97449142Y-139231714D01*
X97449142Y-139422190D02*
X97401523Y-139326952D01*
X97353904Y-139279333D01*
X97258666Y-139231714D01*
X97163428Y-139231714D01*
X96687238Y-139898380D02*
X96782476Y-139850761D01*
X96830095Y-139803142D01*
X96877714Y-139707904D01*
X96877714Y-139422190D01*
X96830095Y-139326952D01*
X96782476Y-139279333D01*
X96687238Y-139231714D01*
X96544380Y-139231714D01*
X96449142Y-139279333D01*
X96401523Y-139326952D01*
X96353904Y-139422190D01*
X96353904Y-139707904D01*
X96401523Y-139803142D01*
X96449142Y-139850761D01*
X96544380Y-139898380D01*
X96687238Y-139898380D01*
X95496761Y-139231714D02*
X95496761Y-140041238D01*
X95544380Y-140136476D01*
X95592000Y-140184095D01*
X95687238Y-140231714D01*
X95830095Y-140231714D01*
X95925333Y-140184095D01*
X95496761Y-139850761D02*
X95592000Y-139898380D01*
X95782476Y-139898380D01*
X95877714Y-139850761D01*
X95925333Y-139803142D01*
X95972952Y-139707904D01*
X95972952Y-139422190D01*
X95925333Y-139326952D01*
X95877714Y-139279333D01*
X95782476Y-139231714D01*
X95592000Y-139231714D01*
X95496761Y-139279333D01*
X95020571Y-139898380D02*
X95020571Y-139231714D01*
X95020571Y-139422190D02*
X94972952Y-139326952D01*
X94925333Y-139279333D01*
X94830095Y-139231714D01*
X94734857Y-139231714D01*
X93972952Y-139898380D02*
X93972952Y-139374571D01*
X94020571Y-139279333D01*
X94115809Y-139231714D01*
X94306285Y-139231714D01*
X94401523Y-139279333D01*
X93972952Y-139850761D02*
X94068190Y-139898380D01*
X94306285Y-139898380D01*
X94401523Y-139850761D01*
X94449142Y-139755523D01*
X94449142Y-139660285D01*
X94401523Y-139565047D01*
X94306285Y-139517428D01*
X94068190Y-139517428D01*
X93972952Y-139469809D01*
X93496761Y-139898380D02*
X93496761Y-139231714D01*
X93496761Y-139326952D02*
X93449142Y-139279333D01*
X93353904Y-139231714D01*
X93211047Y-139231714D01*
X93115809Y-139279333D01*
X93068190Y-139374571D01*
X93068190Y-139898380D01*
X93068190Y-139374571D02*
X93020571Y-139279333D01*
X92925333Y-139231714D01*
X92782476Y-139231714D01*
X92687238Y-139279333D01*
X92639619Y-139374571D01*
X92639619Y-139898380D01*
X92163428Y-139898380D02*
X92163428Y-139231714D01*
X92163428Y-139326952D02*
X92115809Y-139279333D01*
X92020571Y-139231714D01*
X91877714Y-139231714D01*
X91782476Y-139279333D01*
X91734857Y-139374571D01*
X91734857Y-139898380D01*
X91734857Y-139374571D02*
X91687238Y-139279333D01*
X91592000Y-139231714D01*
X91449142Y-139231714D01*
X91353904Y-139279333D01*
X91306285Y-139374571D01*
X91306285Y-139898380D01*
X90830095Y-139898380D02*
X90830095Y-139231714D01*
X90830095Y-138898380D02*
X90877714Y-138946000D01*
X90830095Y-138993619D01*
X90782476Y-138946000D01*
X90830095Y-138898380D01*
X90830095Y-138993619D01*
X90353904Y-139231714D02*
X90353904Y-139898380D01*
X90353904Y-139326952D02*
X90306285Y-139279333D01*
X90211047Y-139231714D01*
X90068190Y-139231714D01*
X89972952Y-139279333D01*
X89925333Y-139374571D01*
X89925333Y-139898380D01*
X89020571Y-139231714D02*
X89020571Y-140041238D01*
X89068190Y-140136476D01*
X89115809Y-140184095D01*
X89211047Y-140231714D01*
X89353904Y-140231714D01*
X89449142Y-140184095D01*
X89020571Y-139850761D02*
X89115809Y-139898380D01*
X89306285Y-139898380D01*
X89401523Y-139850761D01*
X89449142Y-139803142D01*
X89496761Y-139707904D01*
X89496761Y-139422190D01*
X89449142Y-139326952D01*
X89401523Y-139279333D01*
X89306285Y-139231714D01*
X89115809Y-139231714D01*
X89020571Y-139279333D01*
X107187238Y-141508380D02*
X107282476Y-141460761D01*
X107330095Y-141413142D01*
X107377714Y-141317904D01*
X107377714Y-141032190D01*
X107330095Y-140936952D01*
X107282476Y-140889333D01*
X107187238Y-140841714D01*
X107044380Y-140841714D01*
X106949142Y-140889333D01*
X106901523Y-140936952D01*
X106853904Y-141032190D01*
X106853904Y-141317904D01*
X106901523Y-141413142D01*
X106949142Y-141460761D01*
X107044380Y-141508380D01*
X107187238Y-141508380D01*
X106568190Y-140841714D02*
X106187238Y-140841714D01*
X106425333Y-141508380D02*
X106425333Y-140651238D01*
X106377714Y-140556000D01*
X106282476Y-140508380D01*
X106187238Y-140508380D01*
X105234857Y-140841714D02*
X104853904Y-140841714D01*
X105092000Y-140508380D02*
X105092000Y-141365523D01*
X105044380Y-141460761D01*
X104949142Y-141508380D01*
X104853904Y-141508380D01*
X104520571Y-141508380D02*
X104520571Y-140508380D01*
X104092000Y-141508380D02*
X104092000Y-140984571D01*
X104139619Y-140889333D01*
X104234857Y-140841714D01*
X104377714Y-140841714D01*
X104472952Y-140889333D01*
X104520571Y-140936952D01*
X103234857Y-141460761D02*
X103330095Y-141508380D01*
X103520571Y-141508380D01*
X103615809Y-141460761D01*
X103663428Y-141365523D01*
X103663428Y-140984571D01*
X103615809Y-140889333D01*
X103520571Y-140841714D01*
X103330095Y-140841714D01*
X103234857Y-140889333D01*
X103187238Y-140984571D01*
X103187238Y-141079809D01*
X103663428Y-141175047D01*
X102139619Y-140841714D02*
X101758666Y-140841714D01*
X101996761Y-141508380D02*
X101996761Y-140651238D01*
X101949142Y-140556000D01*
X101853904Y-140508380D01*
X101758666Y-140508380D01*
X101282476Y-141508380D02*
X101377714Y-141460761D01*
X101425333Y-141365523D01*
X101425333Y-140508380D01*
X100472952Y-141508380D02*
X100472952Y-140984571D01*
X100520571Y-140889333D01*
X100615809Y-140841714D01*
X100806285Y-140841714D01*
X100901523Y-140889333D01*
X100472952Y-141460761D02*
X100568190Y-141508380D01*
X100806285Y-141508380D01*
X100901523Y-141460761D01*
X100949142Y-141365523D01*
X100949142Y-141270285D01*
X100901523Y-141175047D01*
X100806285Y-141127428D01*
X100568190Y-141127428D01*
X100472952Y-141079809D01*
X100044380Y-141460761D02*
X99949142Y-141508380D01*
X99758666Y-141508380D01*
X99663428Y-141460761D01*
X99615809Y-141365523D01*
X99615809Y-141317904D01*
X99663428Y-141222666D01*
X99758666Y-141175047D01*
X99901523Y-141175047D01*
X99996761Y-141127428D01*
X100044380Y-141032190D01*
X100044380Y-140984571D01*
X99996761Y-140889333D01*
X99901523Y-140841714D01*
X99758666Y-140841714D01*
X99663428Y-140889333D01*
X99187238Y-141508380D02*
X99187238Y-140508380D01*
X98758666Y-141508380D02*
X98758666Y-140984571D01*
X98806285Y-140889333D01*
X98901523Y-140841714D01*
X99044380Y-140841714D01*
X99139619Y-140889333D01*
X99187238Y-140936952D01*
X97092000Y-141460761D02*
X97187238Y-141508380D01*
X97377714Y-141508380D01*
X97472952Y-141460761D01*
X97520571Y-141413142D01*
X97568190Y-141317904D01*
X97568190Y-141032190D01*
X97520571Y-140936952D01*
X97472952Y-140889333D01*
X97377714Y-140841714D01*
X97187238Y-140841714D01*
X97092000Y-140889333D01*
X96663428Y-141508380D02*
X96663428Y-140508380D01*
X96234857Y-141508380D02*
X96234857Y-140984571D01*
X96282476Y-140889333D01*
X96377714Y-140841714D01*
X96520571Y-140841714D01*
X96615809Y-140889333D01*
X96663428Y-140936952D01*
X95758666Y-141508380D02*
X95758666Y-140841714D01*
X95758666Y-140508380D02*
X95806285Y-140556000D01*
X95758666Y-140603619D01*
X95711047Y-140556000D01*
X95758666Y-140508380D01*
X95758666Y-140603619D01*
X95282476Y-140841714D02*
X95282476Y-141841714D01*
X95282476Y-140889333D02*
X95187238Y-140841714D01*
X94996761Y-140841714D01*
X94901523Y-140889333D01*
X94853904Y-140936952D01*
X94806285Y-141032190D01*
X94806285Y-141317904D01*
X94853904Y-141413142D01*
X94901523Y-141460761D01*
X94996761Y-141508380D01*
X95187238Y-141508380D01*
X95282476Y-141460761D01*
X152367142Y-139136380D02*
X152367142Y-138612571D01*
X152414761Y-138517333D01*
X152510000Y-138469714D01*
X152700476Y-138469714D01*
X152795714Y-138517333D01*
X152367142Y-139088761D02*
X152462380Y-139136380D01*
X152700476Y-139136380D01*
X152795714Y-139088761D01*
X152843333Y-138993523D01*
X152843333Y-138898285D01*
X152795714Y-138803047D01*
X152700476Y-138755428D01*
X152462380Y-138755428D01*
X152367142Y-138707809D01*
X151890952Y-139136380D02*
X151890952Y-138136380D01*
X151890952Y-138517333D02*
X151795714Y-138469714D01*
X151605238Y-138469714D01*
X151510000Y-138517333D01*
X151462380Y-138564952D01*
X151414761Y-138660190D01*
X151414761Y-138945904D01*
X151462380Y-139041142D01*
X151510000Y-139088761D01*
X151605238Y-139136380D01*
X151795714Y-139136380D01*
X151890952Y-139088761D01*
X151081428Y-138469714D02*
X150557619Y-138469714D01*
X151081428Y-139136380D01*
X150557619Y-139136380D01*
X150176666Y-139136380D02*
X150176666Y-138469714D01*
X150176666Y-138564952D02*
X150129047Y-138517333D01*
X150033809Y-138469714D01*
X149890952Y-138469714D01*
X149795714Y-138517333D01*
X149748095Y-138612571D01*
X149748095Y-139136380D01*
X149748095Y-138612571D02*
X149700476Y-138517333D01*
X149605238Y-138469714D01*
X149462380Y-138469714D01*
X149367142Y-138517333D01*
X149319523Y-138612571D01*
X149319523Y-139136380D01*
X148414761Y-139136380D02*
X148414761Y-138612571D01*
X148462380Y-138517333D01*
X148557619Y-138469714D01*
X148748095Y-138469714D01*
X148843333Y-138517333D01*
X148414761Y-139088761D02*
X148510000Y-139136380D01*
X148748095Y-139136380D01*
X148843333Y-139088761D01*
X148890952Y-138993523D01*
X148890952Y-138898285D01*
X148843333Y-138803047D01*
X148748095Y-138755428D01*
X148510000Y-138755428D01*
X148414761Y-138707809D01*
X147938571Y-138469714D02*
X147938571Y-139136380D01*
X147938571Y-138564952D02*
X147890952Y-138517333D01*
X147795714Y-138469714D01*
X147652857Y-138469714D01*
X147557619Y-138517333D01*
X147510000Y-138612571D01*
X147510000Y-139136380D01*
X147081428Y-138231619D02*
X147033809Y-138184000D01*
X146938571Y-138136380D01*
X146700476Y-138136380D01*
X146605238Y-138184000D01*
X146557619Y-138231619D01*
X146510000Y-138326857D01*
X146510000Y-138422095D01*
X146557619Y-138564952D01*
X147129047Y-139136380D01*
X146510000Y-139136380D01*
X146081428Y-139136380D02*
X146081428Y-138136380D01*
X145986190Y-138755428D02*
X145700476Y-139136380D01*
X145700476Y-138469714D02*
X146081428Y-138850666D01*
X145271904Y-139041142D02*
X145224285Y-139088761D01*
X145271904Y-139136380D01*
X145319523Y-139088761D01*
X145271904Y-139041142D01*
X145271904Y-139136380D01*
X144890952Y-138469714D02*
X144700476Y-139136380D01*
X144510000Y-138660190D01*
X144319523Y-139136380D01*
X144129047Y-138469714D01*
X143605238Y-139136380D02*
X143700476Y-139088761D01*
X143748095Y-139041142D01*
X143795714Y-138945904D01*
X143795714Y-138660190D01*
X143748095Y-138564952D01*
X143700476Y-138517333D01*
X143605238Y-138469714D01*
X143462380Y-138469714D01*
X143367142Y-138517333D01*
X143319523Y-138564952D01*
X143271904Y-138660190D01*
X143271904Y-138945904D01*
X143319523Y-139041142D01*
X143367142Y-139088761D01*
X143462380Y-139136380D01*
X143605238Y-139136380D01*
X142843333Y-139136380D02*
X142843333Y-138469714D01*
X142843333Y-138660190D02*
X142795714Y-138564952D01*
X142748095Y-138517333D01*
X142652857Y-138469714D01*
X142557619Y-138469714D01*
X141795714Y-139136380D02*
X141795714Y-138136380D01*
X141795714Y-139088761D02*
X141890952Y-139136380D01*
X142081428Y-139136380D01*
X142176666Y-139088761D01*
X142224285Y-139041142D01*
X142271904Y-138945904D01*
X142271904Y-138660190D01*
X142224285Y-138564952D01*
X142176666Y-138517333D01*
X142081428Y-138469714D01*
X141890952Y-138469714D01*
X141795714Y-138517333D01*
X141319523Y-138469714D02*
X141319523Y-139469714D01*
X141319523Y-138517333D02*
X141224285Y-138469714D01*
X141033809Y-138469714D01*
X140938571Y-138517333D01*
X140890952Y-138564952D01*
X140843333Y-138660190D01*
X140843333Y-138945904D01*
X140890952Y-139041142D01*
X140938571Y-139088761D01*
X141033809Y-139136380D01*
X141224285Y-139136380D01*
X141319523Y-139088761D01*
X140414761Y-139136380D02*
X140414761Y-138469714D01*
X140414761Y-138660190D02*
X140367142Y-138564952D01*
X140319523Y-138517333D01*
X140224285Y-138469714D01*
X140129047Y-138469714D01*
X139414761Y-139088761D02*
X139510000Y-139136380D01*
X139700476Y-139136380D01*
X139795714Y-139088761D01*
X139843333Y-138993523D01*
X139843333Y-138612571D01*
X139795714Y-138517333D01*
X139700476Y-138469714D01*
X139510000Y-138469714D01*
X139414761Y-138517333D01*
X139367142Y-138612571D01*
X139367142Y-138707809D01*
X139843333Y-138803047D01*
X138986190Y-139088761D02*
X138890952Y-139136380D01*
X138700476Y-139136380D01*
X138605238Y-139088761D01*
X138557619Y-138993523D01*
X138557619Y-138945904D01*
X138605238Y-138850666D01*
X138700476Y-138803047D01*
X138843333Y-138803047D01*
X138938571Y-138755428D01*
X138986190Y-138660190D01*
X138986190Y-138612571D01*
X138938571Y-138517333D01*
X138843333Y-138469714D01*
X138700476Y-138469714D01*
X138605238Y-138517333D01*
X138176666Y-139088761D02*
X138081428Y-139136380D01*
X137890952Y-139136380D01*
X137795714Y-139088761D01*
X137748095Y-138993523D01*
X137748095Y-138945904D01*
X137795714Y-138850666D01*
X137890952Y-138803047D01*
X138033809Y-138803047D01*
X138129047Y-138755428D01*
X138176666Y-138660190D01*
X138176666Y-138612571D01*
X138129047Y-138517333D01*
X138033809Y-138469714D01*
X137890952Y-138469714D01*
X137795714Y-138517333D01*
X137319523Y-139041142D02*
X137271904Y-139088761D01*
X137319523Y-139136380D01*
X137367142Y-139088761D01*
X137319523Y-139041142D01*
X137319523Y-139136380D01*
X136414761Y-139088761D02*
X136510000Y-139136380D01*
X136700476Y-139136380D01*
X136795714Y-139088761D01*
X136843333Y-139041142D01*
X136890952Y-138945904D01*
X136890952Y-138660190D01*
X136843333Y-138564952D01*
X136795714Y-138517333D01*
X136700476Y-138469714D01*
X136510000Y-138469714D01*
X136414761Y-138517333D01*
X135843333Y-139136380D02*
X135938571Y-139088761D01*
X135986190Y-139041142D01*
X136033809Y-138945904D01*
X136033809Y-138660190D01*
X135986190Y-138564952D01*
X135938571Y-138517333D01*
X135843333Y-138469714D01*
X135700476Y-138469714D01*
X135605238Y-138517333D01*
X135557619Y-138564952D01*
X135510000Y-138660190D01*
X135510000Y-138945904D01*
X135557619Y-139041142D01*
X135605238Y-139088761D01*
X135700476Y-139136380D01*
X135843333Y-139136380D01*
X135081428Y-139136380D02*
X135081428Y-138469714D01*
X135081428Y-138564952D02*
X135033809Y-138517333D01*
X134938571Y-138469714D01*
X134795714Y-138469714D01*
X134700476Y-138517333D01*
X134652857Y-138612571D01*
X134652857Y-139136380D01*
X134652857Y-138612571D02*
X134605238Y-138517333D01*
X134510000Y-138469714D01*
X134367142Y-138469714D01*
X134271904Y-138517333D01*
X134224285Y-138612571D01*
X134224285Y-139136380D01*
X111694857Y-134564380D02*
X111694857Y-133564380D01*
X111456761Y-133564380D01*
X111313904Y-133612000D01*
X111218666Y-133707238D01*
X111171047Y-133802476D01*
X111123428Y-133992952D01*
X111123428Y-134135809D01*
X111171047Y-134326285D01*
X111218666Y-134421523D01*
X111313904Y-134516761D01*
X111456761Y-134564380D01*
X111694857Y-134564380D01*
X110694857Y-134564380D02*
X110694857Y-133897714D01*
X110694857Y-133564380D02*
X110742476Y-133612000D01*
X110694857Y-133659619D01*
X110647238Y-133612000D01*
X110694857Y-133564380D01*
X110694857Y-133659619D01*
X110266285Y-134516761D02*
X110171047Y-134564380D01*
X109980571Y-134564380D01*
X109885333Y-134516761D01*
X109837714Y-134421523D01*
X109837714Y-134373904D01*
X109885333Y-134278666D01*
X109980571Y-134231047D01*
X110123428Y-134231047D01*
X110218666Y-134183428D01*
X110266285Y-134088190D01*
X110266285Y-134040571D01*
X110218666Y-133945333D01*
X110123428Y-133897714D01*
X109980571Y-133897714D01*
X109885333Y-133945333D01*
X108980571Y-134516761D02*
X109075809Y-134564380D01*
X109266285Y-134564380D01*
X109361523Y-134516761D01*
X109409142Y-134469142D01*
X109456761Y-134373904D01*
X109456761Y-134088190D01*
X109409142Y-133992952D01*
X109361523Y-133945333D01*
X109266285Y-133897714D01*
X109075809Y-133897714D01*
X108980571Y-133945333D01*
X108409142Y-134564380D02*
X108504380Y-134516761D01*
X108551999Y-134469142D01*
X108599619Y-134373904D01*
X108599619Y-134088190D01*
X108551999Y-133992952D01*
X108504380Y-133945333D01*
X108409142Y-133897714D01*
X108266285Y-133897714D01*
X108171047Y-133945333D01*
X108123428Y-133992952D01*
X108075809Y-134088190D01*
X108075809Y-134373904D01*
X108123428Y-134469142D01*
X108171047Y-134516761D01*
X108266285Y-134564380D01*
X108409142Y-134564380D01*
X107647238Y-133897714D02*
X107647238Y-134564380D01*
X107647238Y-133992952D02*
X107599619Y-133945333D01*
X107504380Y-133897714D01*
X107361523Y-133897714D01*
X107266285Y-133945333D01*
X107218666Y-134040571D01*
X107218666Y-134564380D01*
X106742476Y-133897714D02*
X106742476Y-134564380D01*
X106742476Y-133992952D02*
X106694857Y-133945333D01*
X106599619Y-133897714D01*
X106456761Y-133897714D01*
X106361523Y-133945333D01*
X106313904Y-134040571D01*
X106313904Y-134564380D01*
X105456761Y-134516761D02*
X105552000Y-134564380D01*
X105742476Y-134564380D01*
X105837714Y-134516761D01*
X105885333Y-134421523D01*
X105885333Y-134040571D01*
X105837714Y-133945333D01*
X105742476Y-133897714D01*
X105552000Y-133897714D01*
X105456761Y-133945333D01*
X105409142Y-134040571D01*
X105409142Y-134135809D01*
X105885333Y-134231047D01*
X104552000Y-134516761D02*
X104647238Y-134564380D01*
X104837714Y-134564380D01*
X104932952Y-134516761D01*
X104980571Y-134469142D01*
X105028190Y-134373904D01*
X105028190Y-134088190D01*
X104980571Y-133992952D01*
X104932952Y-133945333D01*
X104837714Y-133897714D01*
X104647238Y-133897714D01*
X104552000Y-133945333D01*
X104266285Y-133897714D02*
X103885333Y-133897714D01*
X104123428Y-133564380D02*
X104123428Y-134421523D01*
X104075809Y-134516761D01*
X103980571Y-134564380D01*
X103885333Y-134564380D01*
X102932952Y-133897714D02*
X102552000Y-133897714D01*
X102790095Y-133564380D02*
X102790095Y-134421523D01*
X102742476Y-134516761D01*
X102647238Y-134564380D01*
X102552000Y-134564380D01*
X101790095Y-134564380D02*
X101790095Y-134040571D01*
X101837714Y-133945333D01*
X101932952Y-133897714D01*
X102123428Y-133897714D01*
X102218666Y-133945333D01*
X101790095Y-134516761D02*
X101885333Y-134564380D01*
X102123428Y-134564380D01*
X102218666Y-134516761D01*
X102266285Y-134421523D01*
X102266285Y-134326285D01*
X102218666Y-134231047D01*
X102123428Y-134183428D01*
X101885333Y-134183428D01*
X101790095Y-134135809D01*
X101313904Y-134564380D02*
X101313904Y-133897714D01*
X101313904Y-134088190D02*
X101266285Y-133992952D01*
X101218666Y-133945333D01*
X101123428Y-133897714D01*
X101028190Y-133897714D01*
X100266285Y-133897714D02*
X100266285Y-134707238D01*
X100313904Y-134802476D01*
X100361523Y-134850095D01*
X100456761Y-134897714D01*
X100599619Y-134897714D01*
X100694857Y-134850095D01*
X100266285Y-134516761D02*
X100361523Y-134564380D01*
X100552000Y-134564380D01*
X100647238Y-134516761D01*
X100694857Y-134469142D01*
X100742476Y-134373904D01*
X100742476Y-134088190D01*
X100694857Y-133992952D01*
X100647238Y-133945333D01*
X100552000Y-133897714D01*
X100361523Y-133897714D01*
X100266285Y-133945333D01*
X99409142Y-134516761D02*
X99504380Y-134564380D01*
X99694857Y-134564380D01*
X99790095Y-134516761D01*
X99837714Y-134421523D01*
X99837714Y-134040571D01*
X99790095Y-133945333D01*
X99694857Y-133897714D01*
X99504380Y-133897714D01*
X99409142Y-133945333D01*
X99361523Y-134040571D01*
X99361523Y-134135809D01*
X99837714Y-134231047D01*
X99075809Y-133897714D02*
X98694857Y-133897714D01*
X98932952Y-133564380D02*
X98932952Y-134421523D01*
X98885333Y-134516761D01*
X98790095Y-134564380D01*
X98694857Y-134564380D01*
X97742476Y-133897714D02*
X97361523Y-133897714D01*
X97599619Y-134564380D02*
X97599619Y-133707238D01*
X97552000Y-133612000D01*
X97456761Y-133564380D01*
X97361523Y-133564380D01*
X96885333Y-134564380D02*
X96980571Y-134516761D01*
X97028190Y-134469142D01*
X97075809Y-134373904D01*
X97075809Y-134088190D01*
X97028190Y-133992952D01*
X96980571Y-133945333D01*
X96885333Y-133897714D01*
X96742476Y-133897714D01*
X96647238Y-133945333D01*
X96599619Y-133992952D01*
X96552000Y-134088190D01*
X96552000Y-134373904D01*
X96599619Y-134469142D01*
X96647238Y-134516761D01*
X96742476Y-134564380D01*
X96885333Y-134564380D01*
X96123428Y-134564380D02*
X96123428Y-133897714D01*
X96123428Y-134088190D02*
X96075809Y-133992952D01*
X96028190Y-133945333D01*
X95932952Y-133897714D01*
X95837714Y-133897714D01*
X94742476Y-133897714D02*
X94742476Y-134897714D01*
X94742476Y-133945333D02*
X94647238Y-133897714D01*
X94456761Y-133897714D01*
X94361523Y-133945333D01*
X94313904Y-133992952D01*
X94266285Y-134088190D01*
X94266285Y-134373904D01*
X94313904Y-134469142D01*
X94361523Y-134516761D01*
X94456761Y-134564380D01*
X94647238Y-134564380D01*
X94742476Y-134516761D01*
X93837714Y-134564380D02*
X93837714Y-133897714D01*
X93837714Y-134088190D02*
X93790095Y-133992952D01*
X93742476Y-133945333D01*
X93647238Y-133897714D01*
X93552000Y-133897714D01*
X93075809Y-134564380D02*
X93171047Y-134516761D01*
X93218666Y-134469142D01*
X93266285Y-134373904D01*
X93266285Y-134088190D01*
X93218666Y-133992952D01*
X93171047Y-133945333D01*
X93075809Y-133897714D01*
X92932952Y-133897714D01*
X92837714Y-133945333D01*
X92790095Y-133992952D01*
X92742476Y-134088190D01*
X92742476Y-134373904D01*
X92790095Y-134469142D01*
X92837714Y-134516761D01*
X92932952Y-134564380D01*
X93075809Y-134564380D01*
X91885333Y-133897714D02*
X91885333Y-134707238D01*
X91932952Y-134802476D01*
X91980571Y-134850095D01*
X92075809Y-134897714D01*
X92218666Y-134897714D01*
X92313904Y-134850095D01*
X91885333Y-134516761D02*
X91980571Y-134564380D01*
X92171047Y-134564380D01*
X92266285Y-134516761D01*
X92313904Y-134469142D01*
X92361523Y-134373904D01*
X92361523Y-134088190D01*
X92313904Y-133992952D01*
X92266285Y-133945333D01*
X92171047Y-133897714D01*
X91980571Y-133897714D01*
X91885333Y-133945333D01*
X91409142Y-134564380D02*
X91409142Y-133897714D01*
X91409142Y-134088190D02*
X91361523Y-133992952D01*
X91313904Y-133945333D01*
X91218666Y-133897714D01*
X91123428Y-133897714D01*
X90361523Y-134564380D02*
X90361523Y-134040571D01*
X90409142Y-133945333D01*
X90504380Y-133897714D01*
X90694857Y-133897714D01*
X90790095Y-133945333D01*
X90361523Y-134516761D02*
X90456761Y-134564380D01*
X90694857Y-134564380D01*
X90790095Y-134516761D01*
X90837714Y-134421523D01*
X90837714Y-134326285D01*
X90790095Y-134231047D01*
X90694857Y-134183428D01*
X90456761Y-134183428D01*
X90361523Y-134135809D01*
X89885333Y-134564380D02*
X89885333Y-133897714D01*
X89885333Y-133992952D02*
X89837714Y-133945333D01*
X89742476Y-133897714D01*
X89599619Y-133897714D01*
X89504380Y-133945333D01*
X89456761Y-134040571D01*
X89456761Y-134564380D01*
X89456761Y-134040571D02*
X89409142Y-133945333D01*
X89313904Y-133897714D01*
X89171047Y-133897714D01*
X89075809Y-133945333D01*
X89028190Y-134040571D01*
X89028190Y-134564380D01*
X88552000Y-134564380D02*
X88552000Y-133897714D01*
X88552000Y-133992952D02*
X88504380Y-133945333D01*
X88409142Y-133897714D01*
X88266285Y-133897714D01*
X88171047Y-133945333D01*
X88123428Y-134040571D01*
X88123428Y-134564380D01*
X88123428Y-134040571D02*
X88075809Y-133945333D01*
X87980571Y-133897714D01*
X87837714Y-133897714D01*
X87742476Y-133945333D01*
X87694857Y-134040571D01*
X87694857Y-134564380D01*
X87218666Y-134564380D02*
X87218666Y-133897714D01*
X87218666Y-133564380D02*
X87266285Y-133612000D01*
X87218666Y-133659619D01*
X87171047Y-133612000D01*
X87218666Y-133564380D01*
X87218666Y-133659619D01*
X86742476Y-133897714D02*
X86742476Y-134564380D01*
X86742476Y-133992952D02*
X86694857Y-133945333D01*
X86599619Y-133897714D01*
X86456761Y-133897714D01*
X86361523Y-133945333D01*
X86313904Y-134040571D01*
X86313904Y-134564380D01*
X85409142Y-133897714D02*
X85409142Y-134707238D01*
X85456761Y-134802476D01*
X85504380Y-134850095D01*
X85599619Y-134897714D01*
X85742476Y-134897714D01*
X85837714Y-134850095D01*
X85409142Y-134516761D02*
X85504380Y-134564380D01*
X85694857Y-134564380D01*
X85790095Y-134516761D01*
X85837714Y-134469142D01*
X85885333Y-134373904D01*
X85885333Y-134088190D01*
X85837714Y-133992952D01*
X85790095Y-133945333D01*
X85694857Y-133897714D01*
X85504380Y-133897714D01*
X85409142Y-133945333D01*
X93519523Y-99230380D02*
X93519523Y-99944666D01*
X93567142Y-100087523D01*
X93662380Y-100182761D01*
X93805238Y-100230380D01*
X93900476Y-100230380D01*
X92519523Y-100230380D02*
X93090952Y-100230380D01*
X92805238Y-100230380D02*
X92805238Y-99230380D01*
X92900476Y-99373238D01*
X92995714Y-99468476D01*
X93090952Y-99516095D01*
X91662380Y-99230380D02*
X91852857Y-99230380D01*
X91948095Y-99278000D01*
X91995714Y-99325619D01*
X92090952Y-99468476D01*
X92138571Y-99658952D01*
X92138571Y-100039904D01*
X92090952Y-100135142D01*
X92043333Y-100182761D01*
X91948095Y-100230380D01*
X91757619Y-100230380D01*
X91662380Y-100182761D01*
X91614761Y-100135142D01*
X91567142Y-100039904D01*
X91567142Y-99801809D01*
X91614761Y-99706571D01*
X91662380Y-99658952D01*
X91757619Y-99611333D01*
X91948095Y-99611333D01*
X92043333Y-99658952D01*
X92090952Y-99706571D01*
X92138571Y-99801809D01*
D11*
X103234000Y-100778000D02*
X97774000Y-100778000D01*
X90314000Y-100778000D02*
X90314000Y-131378000D01*
X105724000Y-131438000D02*
X105724000Y-100718000D01*
X103234000Y-131378000D02*
X103234000Y-100778000D01*
X90314000Y-131378000D02*
X103234000Y-131378000D01*
X87824000Y-100718000D02*
X87824000Y-131438000D01*
X95774000Y-100778000D02*
X90314000Y-100778000D01*
X87824000Y-131438000D02*
X105724000Y-131438000D01*
X105724000Y-100718000D02*
X87824000Y-100718000D01*
X95774000Y-100778000D02*
G75*
G03*
X97774000Y-100778000I1000000J0D01*
G01*
G36*
X157364776Y-138824216D02*
G01*
X157377313Y-138835474D01*
X157400164Y-138857163D01*
X157432015Y-138887999D01*
X157471555Y-138926702D01*
X157517469Y-138971987D01*
X157568446Y-139022573D01*
X157623171Y-139077178D01*
X157877347Y-139331463D01*
X157854636Y-139383176D01*
X157850254Y-139392989D01*
X157833644Y-139428696D01*
X157813639Y-139470217D01*
X157793645Y-139510444D01*
X157755363Y-139586000D01*
X157809527Y-139653647D01*
X157823637Y-139671248D01*
X157847334Y-139700712D01*
X157866567Y-139724508D01*
X157878150Y-139738686D01*
X157881064Y-139742231D01*
X157894774Y-139759094D01*
X157916804Y-139786306D01*
X157945364Y-139821653D01*
X157978665Y-139862922D01*
X158014918Y-139907898D01*
X158137226Y-140059717D01*
X157857656Y-140339386D01*
X157835962Y-140361053D01*
X157771782Y-140424697D01*
X157714974Y-140480320D01*
X157666322Y-140527179D01*
X157626612Y-140564534D01*
X157596628Y-140591643D01*
X157577153Y-140607764D01*
X157568974Y-140612157D01*
X157567461Y-140610981D01*
X157554471Y-140600657D01*
X157530755Y-140581690D01*
X157498452Y-140555793D01*
X157459697Y-140524679D01*
X157416630Y-140490060D01*
X157407407Y-140482643D01*
X157362576Y-140446607D01*
X157320683Y-140412961D01*
X157284375Y-140383827D01*
X157256299Y-140361331D01*
X157239102Y-140347595D01*
X157230196Y-140340459D01*
X157201448Y-140316902D01*
X157176166Y-140295558D01*
X157147525Y-140270787D01*
X157147525Y-139361644D01*
X157185810Y-139302462D01*
X157227745Y-139231138D01*
X157281769Y-139113660D01*
X157323410Y-138987415D01*
X157351542Y-138855446D01*
X157352586Y-138849466D01*
X157357665Y-138830527D01*
X157362823Y-138822893D01*
X157364776Y-138824216D01*
G37*
G36*
X157857469Y-138000388D02*
G01*
X157861685Y-138010637D01*
X157872326Y-138038942D01*
X157885682Y-138076284D01*
X157900105Y-138117887D01*
X157913951Y-138158974D01*
X157925572Y-138194768D01*
X157933323Y-138220493D01*
X157934864Y-138222264D01*
X157949565Y-138227417D01*
X157976711Y-138232244D01*
X158012680Y-138236034D01*
X158036723Y-138238060D01*
X158085688Y-138242754D01*
X158139162Y-138248408D01*
X158189220Y-138254207D01*
X158215071Y-138257313D01*
X158272982Y-138263977D01*
X158332631Y-138270532D01*
X158384538Y-138275925D01*
X158415046Y-138279027D01*
X158456086Y-138283415D01*
X158490349Y-138287318D01*
X158512580Y-138290152D01*
X158545133Y-138294891D01*
X158545133Y-139081791D01*
X158512580Y-139086529D01*
X158498184Y-139088419D01*
X158466835Y-139092088D01*
X158427203Y-139096417D01*
X158384538Y-139100820D01*
X158356284Y-139103678D01*
X158321136Y-139107340D01*
X158283221Y-139111427D01*
X158239643Y-139116261D01*
X158187508Y-139122164D01*
X158123921Y-139129458D01*
X158045987Y-139138464D01*
X158024226Y-139140805D01*
X158002627Y-139142782D01*
X157999841Y-139141666D01*
X157985515Y-139130807D01*
X157961126Y-139109534D01*
X157928086Y-139079246D01*
X157887804Y-139041343D01*
X157841693Y-138997225D01*
X157791162Y-138948292D01*
X157737623Y-138895943D01*
X157682487Y-138841578D01*
X157627164Y-138786597D01*
X157573066Y-138732400D01*
X157521604Y-138680385D01*
X157474187Y-138631954D01*
X157432228Y-138588505D01*
X157397138Y-138551439D01*
X157370326Y-138522154D01*
X157353204Y-138502052D01*
X157347184Y-138492532D01*
X157347156Y-138491311D01*
X157344100Y-138471073D01*
X157336820Y-138439119D01*
X157326496Y-138399759D01*
X157314308Y-138357303D01*
X157301437Y-138316061D01*
X157289064Y-138280343D01*
X157281745Y-138261436D01*
X157247139Y-138184439D01*
X157205642Y-138106943D01*
X157161892Y-138037796D01*
X157160157Y-138035311D01*
X157141437Y-138008321D01*
X157126507Y-137986492D01*
X157118462Y-137974346D01*
X157118629Y-137972546D01*
X157124883Y-137970110D01*
X157139584Y-137968123D01*
X157164004Y-137966548D01*
X157199418Y-137965346D01*
X157247099Y-137964478D01*
X157308320Y-137963906D01*
X157384355Y-137963591D01*
X157476477Y-137963495D01*
X157841176Y-137963495D01*
X157857469Y-138000388D01*
G37*
G36*
X156603848Y-136381420D02*
G01*
X156605735Y-136395815D01*
X156609397Y-136427163D01*
X156613713Y-136466796D01*
X156618100Y-136509462D01*
X156621075Y-136538705D01*
X156627082Y-136595621D01*
X156633604Y-136655411D01*
X156639673Y-136709120D01*
X156644132Y-136747732D01*
X156649246Y-136792232D01*
X156653603Y-136830377D01*
X156656581Y-136856722D01*
X156661431Y-136900154D01*
X156338056Y-137222359D01*
X156014682Y-137544563D01*
X155949576Y-137559648D01*
X155929007Y-137564608D01*
X155796294Y-137606275D01*
X155670690Y-137662675D01*
X155554600Y-137732755D01*
X155535730Y-137745776D01*
X155509208Y-137763881D01*
X155490565Y-137776347D01*
X155482983Y-137781030D01*
X155482736Y-137778690D01*
X155482290Y-137761930D01*
X155481883Y-137730546D01*
X155481527Y-137686329D01*
X155481230Y-137631074D01*
X155481006Y-137566574D01*
X155480863Y-137494622D01*
X155480813Y-137417011D01*
X155480813Y-137052824D01*
X155517706Y-137036531D01*
X155527956Y-137032315D01*
X155556261Y-137021674D01*
X155593603Y-137008318D01*
X155635206Y-136993895D01*
X155676292Y-136980049D01*
X155712087Y-136968428D01*
X155737812Y-136960677D01*
X155739582Y-136959136D01*
X155744736Y-136944435D01*
X155749562Y-136917289D01*
X155753352Y-136881320D01*
X155755378Y-136857277D01*
X155760072Y-136808312D01*
X155765727Y-136754838D01*
X155771525Y-136704780D01*
X155774631Y-136678929D01*
X155781295Y-136621018D01*
X155787851Y-136561369D01*
X155793243Y-136509462D01*
X155796346Y-136478954D01*
X155800734Y-136437914D01*
X155804636Y-136403651D01*
X155807471Y-136381420D01*
X155812209Y-136348867D01*
X156599109Y-136348867D01*
X156603848Y-136381420D01*
G37*
G36*
X154986102Y-136879230D02*
G01*
X155003267Y-136893073D01*
X155048919Y-136929870D01*
X155091166Y-136963896D01*
X155127483Y-136993119D01*
X155155342Y-137015504D01*
X155172217Y-137029018D01*
X155181154Y-137036197D01*
X155209888Y-137059779D01*
X155235153Y-137081123D01*
X155263793Y-137105895D01*
X155263793Y-138015038D01*
X155226012Y-138073904D01*
X155186476Y-138139571D01*
X155152901Y-138206207D01*
X155122471Y-138280343D01*
X155111580Y-138311113D01*
X155097619Y-138355092D01*
X155084725Y-138400170D01*
X155074066Y-138441975D01*
X155066813Y-138476138D01*
X155064135Y-138498288D01*
X155063242Y-138511365D01*
X155058866Y-138531376D01*
X155055482Y-138538224D01*
X155047959Y-138545108D01*
X155046326Y-138544003D01*
X155034348Y-138533202D01*
X155012007Y-138511931D01*
X154980619Y-138481478D01*
X154941504Y-138443133D01*
X154895977Y-138398185D01*
X154845357Y-138347923D01*
X154790962Y-138293637D01*
X154539603Y-138042166D01*
X154551190Y-138009341D01*
X154558259Y-137991804D01*
X154571983Y-137961103D01*
X154589689Y-137923476D01*
X154609272Y-137883481D01*
X154655766Y-137790447D01*
X154601697Y-137722917D01*
X154587678Y-137705426D01*
X154564004Y-137675974D01*
X154544795Y-137652179D01*
X154533237Y-137637995D01*
X154524944Y-137627821D01*
X154507405Y-137606128D01*
X154483143Y-137576029D01*
X154454115Y-137539962D01*
X154422277Y-137500363D01*
X154389587Y-137459668D01*
X154358001Y-137420313D01*
X154329477Y-137384735D01*
X154305971Y-137355371D01*
X154289441Y-137334655D01*
X154281843Y-137325026D01*
X154281919Y-137323709D01*
X154290099Y-137311875D01*
X154309774Y-137288993D01*
X154340202Y-137255850D01*
X154380641Y-137213228D01*
X154430350Y-137161914D01*
X154488588Y-137102691D01*
X154554614Y-137036344D01*
X154834283Y-136756774D01*
X154986102Y-136879230D01*
G37*
G36*
X155584115Y-139663601D02*
G01*
X155628967Y-139690905D01*
X155752822Y-139753530D01*
X155880007Y-139799751D01*
X156009321Y-139829102D01*
X156036489Y-139833860D01*
X156058713Y-139838624D01*
X156068731Y-139841957D01*
X156067598Y-139843976D01*
X156056703Y-139856503D01*
X156035370Y-139879304D01*
X156004854Y-139911090D01*
X155966405Y-139950568D01*
X155921278Y-139996451D01*
X155870723Y-140047448D01*
X155815993Y-140102269D01*
X155559249Y-140358575D01*
X155509180Y-140336591D01*
X155499399Y-140332220D01*
X155464420Y-140315928D01*
X155423486Y-140296184D01*
X155383556Y-140276326D01*
X155308000Y-140238045D01*
X155240353Y-140292208D01*
X155222752Y-140306318D01*
X155193288Y-140330016D01*
X155169492Y-140349249D01*
X155155314Y-140360832D01*
X155151769Y-140363745D01*
X155134906Y-140377456D01*
X155107694Y-140399486D01*
X155072347Y-140428046D01*
X155031078Y-140461347D01*
X154986102Y-140497599D01*
X154834283Y-140619908D01*
X154554614Y-140340337D01*
X154532947Y-140318643D01*
X154469303Y-140254463D01*
X154413680Y-140197655D01*
X154366821Y-140149004D01*
X154329466Y-140109294D01*
X154302357Y-140079309D01*
X154286236Y-140059835D01*
X154281843Y-140051656D01*
X154287254Y-140044794D01*
X154302117Y-140026160D01*
X154324304Y-139998434D01*
X154351879Y-139964025D01*
X154382907Y-139925344D01*
X154415453Y-139884801D01*
X154447582Y-139844806D01*
X154477360Y-139807769D01*
X154502852Y-139776100D01*
X154522123Y-139752210D01*
X154533237Y-139738508D01*
X154545833Y-139722910D01*
X154565039Y-139698886D01*
X154586691Y-139671643D01*
X154625755Y-139622347D01*
X155071949Y-139621937D01*
X155518142Y-139621526D01*
X155584115Y-139663601D01*
G37*
G36*
X156790080Y-138638859D02*
G01*
X156790399Y-138747477D01*
X156777785Y-138851408D01*
X156752796Y-138949020D01*
X156715991Y-139038683D01*
X156667929Y-139118762D01*
X156609169Y-139187628D01*
X156540268Y-139243647D01*
X156533495Y-139248074D01*
X156464598Y-139286187D01*
X156391017Y-139316088D01*
X156320052Y-139334755D01*
X156298559Y-139337331D01*
X156261299Y-139339520D01*
X156216899Y-139340519D01*
X156170936Y-139340126D01*
X156151075Y-139339533D01*
X156104504Y-139336992D01*
X156067324Y-139332480D01*
X156033664Y-139325109D01*
X155997651Y-139313994D01*
X155993035Y-139312405D01*
X155905265Y-139272702D01*
X155825979Y-139218289D01*
X155756504Y-139150246D01*
X155698164Y-139069656D01*
X155668112Y-139019979D01*
X155705791Y-138986542D01*
X155730981Y-138966277D01*
X155753626Y-138955219D01*
X155772147Y-138957128D01*
X155789806Y-138971417D01*
X155808582Y-138990027D01*
X155844548Y-139020290D01*
X155886253Y-139051265D01*
X155927971Y-139078771D01*
X155963977Y-139098626D01*
X155972758Y-139102676D01*
X155994668Y-139111626D01*
X156015726Y-139117375D01*
X156040486Y-139120620D01*
X156073498Y-139122056D01*
X156119315Y-139122380D01*
X156161034Y-139122233D01*
X156193698Y-139121181D01*
X156218174Y-139118312D01*
X156239222Y-139112715D01*
X156261604Y-139103478D01*
X156290080Y-139089690D01*
X156326383Y-139069049D01*
X156386803Y-139020123D01*
X156436083Y-138959660D01*
X156472999Y-138889712D01*
X156496327Y-138812333D01*
X156504842Y-138729575D01*
X156505147Y-138692681D01*
X155706914Y-138692681D01*
X155692645Y-138670905D01*
X155687364Y-138659497D01*
X155680124Y-138628590D01*
X155675367Y-138587038D01*
X155673225Y-138538999D01*
X155673834Y-138488630D01*
X155677327Y-138440089D01*
X155680518Y-138419236D01*
X155937443Y-138419236D01*
X155938771Y-138448768D01*
X155948602Y-138486702D01*
X155968810Y-138512391D01*
X156000383Y-138527536D01*
X156014613Y-138529656D01*
X156045057Y-138531846D01*
X156088191Y-138533695D01*
X156141517Y-138535122D01*
X156202539Y-138536044D01*
X156268760Y-138536378D01*
X156505477Y-138536427D01*
X156501038Y-138516895D01*
X156499227Y-138508802D01*
X156493720Y-138483636D01*
X156487389Y-138454233D01*
X156479859Y-138424827D01*
X156451522Y-138354999D01*
X156411287Y-138292330D01*
X156361433Y-138239970D01*
X156304236Y-138201067D01*
X156286922Y-138193245D01*
X156235614Y-138179451D01*
X156180236Y-138175305D01*
X156126870Y-138180932D01*
X156081598Y-138196458D01*
X156061218Y-138208184D01*
X156009868Y-138249575D01*
X155971079Y-138300158D01*
X155946417Y-138357517D01*
X155937443Y-138419236D01*
X155680518Y-138419236D01*
X155683838Y-138397534D01*
X155693140Y-138360304D01*
X155725034Y-138277253D01*
X155769696Y-138202467D01*
X155825535Y-138138327D01*
X155890964Y-138087214D01*
X155893833Y-138085419D01*
X155953995Y-138052449D01*
X156013820Y-138029862D01*
X156078920Y-138016002D01*
X156154906Y-138009209D01*
X156194920Y-138007736D01*
X156231102Y-138007961D01*
X156261721Y-138010919D01*
X156293112Y-138017276D01*
X156331607Y-138027691D01*
X156361918Y-138037108D01*
X156449009Y-138073972D01*
X156527373Y-138123793D01*
X156600635Y-138188742D01*
X156619297Y-138208349D01*
X156679085Y-138282627D01*
X156724521Y-138361170D01*
X156757370Y-138447491D01*
X156777436Y-138536427D01*
X156779395Y-138545108D01*
X156790080Y-138638859D01*
G37*
G36*
X158136063Y-137315602D02*
G01*
X158117626Y-137341494D01*
X158116815Y-137342627D01*
X158101473Y-137363078D01*
X158079856Y-137390827D01*
X158056373Y-137420208D01*
X158051147Y-137426662D01*
X158027298Y-137456214D01*
X157996936Y-137493937D01*
X157963419Y-137535657D01*
X157930105Y-137577199D01*
X157915172Y-137595803D01*
X157886617Y-137631155D01*
X157862276Y-137661006D01*
X157844351Y-137682665D01*
X157835043Y-137693438D01*
X157824403Y-137706040D01*
X157810010Y-137725991D01*
X157796588Y-137746475D01*
X156875877Y-137746475D01*
X156831575Y-137717083D01*
X156786961Y-137689761D01*
X156730849Y-137659198D01*
X156673103Y-137630823D01*
X156621360Y-137608578D01*
X156601235Y-137601316D01*
X156557298Y-137587387D01*
X156506721Y-137573030D01*
X156455266Y-137559772D01*
X156408693Y-137549141D01*
X156372765Y-137542664D01*
X156359017Y-137540453D01*
X156339284Y-137535601D01*
X156331531Y-137531038D01*
X156332975Y-137528953D01*
X156344467Y-137516216D01*
X156366368Y-137493185D01*
X156397397Y-137461168D01*
X156436277Y-137421474D01*
X156481729Y-137375411D01*
X156532475Y-137324287D01*
X156587235Y-137269411D01*
X156842938Y-137013817D01*
X156910594Y-137042898D01*
X156911006Y-137043075D01*
X156953376Y-137062224D01*
X156999437Y-137084444D01*
X157039290Y-137104960D01*
X157100330Y-137137942D01*
X157139119Y-137107454D01*
X157154750Y-137095099D01*
X157178623Y-137075992D01*
X157195340Y-137062318D01*
X157198391Y-137059766D01*
X157221611Y-137040657D01*
X157254926Y-137013561D01*
X157295397Y-136980837D01*
X157340085Y-136944845D01*
X157386053Y-136907943D01*
X157430363Y-136872493D01*
X157470076Y-136840852D01*
X157502255Y-136815380D01*
X157523961Y-136798436D01*
X157577225Y-136757540D01*
X158136063Y-137315602D01*
G37*
G36*
X156921454Y-139601310D02*
G01*
X156923890Y-139607565D01*
X156925877Y-139622265D01*
X156927452Y-139646686D01*
X156928654Y-139682100D01*
X156929522Y-139729781D01*
X156930094Y-139791002D01*
X156930409Y-139867036D01*
X156930505Y-139959158D01*
X156930505Y-140323858D01*
X156893612Y-140340151D01*
X156883363Y-140344367D01*
X156855058Y-140355008D01*
X156817716Y-140368363D01*
X156776113Y-140382787D01*
X156735026Y-140396632D01*
X156699232Y-140408254D01*
X156673507Y-140416004D01*
X156671736Y-140417545D01*
X156666583Y-140432247D01*
X156661756Y-140459393D01*
X156657966Y-140495362D01*
X156655940Y-140519404D01*
X156651246Y-140568369D01*
X156645592Y-140621843D01*
X156639793Y-140671902D01*
X156636687Y-140697753D01*
X156630023Y-140755664D01*
X156623468Y-140815312D01*
X156618075Y-140867220D01*
X156614973Y-140897727D01*
X156610585Y-140938768D01*
X156606682Y-140973030D01*
X156603848Y-140995261D01*
X156599109Y-141027814D01*
X155812209Y-141027814D01*
X155807471Y-140995261D01*
X155805583Y-140980867D01*
X155801922Y-140949518D01*
X155797606Y-140909885D01*
X155793218Y-140867220D01*
X155790244Y-140837977D01*
X155784236Y-140781060D01*
X155777715Y-140721271D01*
X155771646Y-140667562D01*
X155767228Y-140629338D01*
X155761982Y-140583812D01*
X155757435Y-140544214D01*
X155754239Y-140516204D01*
X155748892Y-140469016D01*
X156068380Y-140149441D01*
X156091120Y-140126728D01*
X156151745Y-140066520D01*
X156208523Y-140010618D01*
X156260260Y-139960168D01*
X156305760Y-139916318D01*
X156343826Y-139880216D01*
X156373264Y-139853008D01*
X156392876Y-139835842D01*
X156401468Y-139829865D01*
X156402689Y-139829837D01*
X156422927Y-139826782D01*
X156454881Y-139819502D01*
X156494241Y-139809177D01*
X156536697Y-139796990D01*
X156577939Y-139784119D01*
X156613657Y-139771745D01*
X156632564Y-139764426D01*
X156709561Y-139729821D01*
X156787057Y-139688323D01*
X156856204Y-139644574D01*
X156858689Y-139642838D01*
X156885679Y-139624119D01*
X156907508Y-139609189D01*
X156919654Y-139601143D01*
X156921454Y-139601310D01*
G37*
G36*
X154748621Y-138546442D02*
G01*
X154760959Y-138558783D01*
X154841702Y-138639950D01*
X154909882Y-138709258D01*
X154965550Y-138766761D01*
X155008758Y-138812513D01*
X155039557Y-138846569D01*
X155057999Y-138868983D01*
X155064135Y-138879809D01*
X155066097Y-138897149D01*
X155072663Y-138928955D01*
X155082726Y-138969114D01*
X155095121Y-139013289D01*
X155108686Y-139057143D01*
X155122255Y-139096338D01*
X155126980Y-139108711D01*
X155162134Y-139188100D01*
X155205095Y-139268605D01*
X155251258Y-139341471D01*
X155255526Y-139347602D01*
X155272968Y-139373212D01*
X155285214Y-139392113D01*
X155289836Y-139400582D01*
X155287613Y-139401016D01*
X155271060Y-139401825D01*
X155239863Y-139402563D01*
X155195817Y-139403211D01*
X155140722Y-139403748D01*
X155076375Y-139404156D01*
X155004573Y-139404415D01*
X154927116Y-139404506D01*
X154564397Y-139404506D01*
X154541844Y-139345911D01*
X154532083Y-139319666D01*
X154516946Y-139276770D01*
X154501457Y-139230966D01*
X154487764Y-139188643D01*
X154478017Y-139156188D01*
X154476464Y-139154413D01*
X154461741Y-139149262D01*
X154434589Y-139144436D01*
X154398638Y-139140648D01*
X154374596Y-139138622D01*
X154325631Y-139133928D01*
X154272157Y-139128273D01*
X154222098Y-139122475D01*
X154196247Y-139119369D01*
X154138336Y-139112705D01*
X154078688Y-139106149D01*
X154026780Y-139100757D01*
X153996273Y-139097654D01*
X153955232Y-139093266D01*
X153920970Y-139089364D01*
X153898739Y-139086529D01*
X153866186Y-139081791D01*
X153866186Y-138294891D01*
X153898739Y-138290152D01*
X153913133Y-138288265D01*
X153944482Y-138284603D01*
X153984115Y-138280287D01*
X154026780Y-138275900D01*
X154056031Y-138272922D01*
X154112945Y-138266902D01*
X154172732Y-138260358D01*
X154226438Y-138254261D01*
X154264230Y-138249885D01*
X154310859Y-138244542D01*
X154352032Y-138239882D01*
X154381857Y-138236576D01*
X154433106Y-138231016D01*
X154748621Y-138546442D01*
G37*
%LPC*%
D12*
X128270000Y-150562000D03*
D13*
X128270000Y-143062000D03*
D14*
X149352000Y-156718000D03*
D13*
X146812000Y-156718000D03*
X144272000Y-156718000D03*
X141732000Y-156718000D03*
X139192000Y-156718000D03*
X136652000Y-156718000D03*
X134112000Y-156718000D03*
X134112000Y-164338000D03*
X136652000Y-164338000D03*
X139192000Y-164338000D03*
X141732000Y-164338000D03*
X144272000Y-164338000D03*
X146812000Y-164338000D03*
X149352000Y-164338000D03*
D15*
X184658000Y-97282000D03*
D14*
X89154000Y-102108000D03*
D13*
X89154000Y-104648000D03*
X89154000Y-107188000D03*
X89154000Y-109728000D03*
X89154000Y-112268000D03*
X89154000Y-114808000D03*
X89154000Y-117348000D03*
X89154000Y-119888000D03*
X89154000Y-122428000D03*
X89154000Y-124968000D03*
X89154000Y-127508000D03*
X89154000Y-130048000D03*
X104394000Y-130048000D03*
X104394000Y-127508000D03*
X104394000Y-124968000D03*
X104394000Y-122428000D03*
X104394000Y-119888000D03*
X104394000Y-117348000D03*
X104394000Y-114808000D03*
X104394000Y-112268000D03*
X104394000Y-109728000D03*
X104394000Y-107188000D03*
X104394000Y-104648000D03*
X104394000Y-102108000D03*
D16*
X93980000Y-163576000D03*
D12*
X128270000Y-164278000D03*
D13*
X128270000Y-156778000D03*
D14*
X123957000Y-156728000D03*
D13*
X121417000Y-156728000D03*
X118877000Y-156728000D03*
X116337000Y-156728000D03*
X113797000Y-156728000D03*
X111257000Y-156728000D03*
X108717000Y-156728000D03*
X108717000Y-164348000D03*
X111257000Y-164348000D03*
X113797000Y-164348000D03*
X116337000Y-164348000D03*
X118877000Y-164348000D03*
X121417000Y-164348000D03*
X123957000Y-164348000D03*
D17*
X105664000Y-98806000D03*
D18*
X103124000Y-98806000D03*
D12*
X155448000Y-132588000D03*
D13*
X152908000Y-132588000D03*
D17*
X160274000Y-98044000D03*
D18*
X162814000Y-98044000D03*
D16*
X164074000Y-145537000D03*
D19*
X164074000Y-148077000D03*
X161534000Y-145537000D03*
X161534000Y-148077000D03*
X158994000Y-145537000D03*
X158994000Y-148077000D03*
X156454000Y-145537000D03*
X156454000Y-148077000D03*
D12*
X150876000Y-98866000D03*
D13*
X150876000Y-106366000D03*
D12*
X154149000Y-153416000D03*
D13*
X156689000Y-153416000D03*
D14*
X112014000Y-102108000D03*
D13*
X112014000Y-104648000D03*
X112014000Y-107188000D03*
X112014000Y-109728000D03*
X112014000Y-112268000D03*
X112014000Y-114808000D03*
X112014000Y-117348000D03*
X112014000Y-119888000D03*
X112014000Y-122428000D03*
X112014000Y-124968000D03*
X112014000Y-127508000D03*
X112014000Y-130048000D03*
X127254000Y-130048000D03*
X127254000Y-127508000D03*
X127254000Y-124968000D03*
X127254000Y-122428000D03*
X127254000Y-119888000D03*
X127254000Y-117348000D03*
X127254000Y-114808000D03*
X127254000Y-112268000D03*
X127254000Y-109728000D03*
X127254000Y-107188000D03*
X127254000Y-104648000D03*
X127254000Y-102108000D03*
D14*
X139954000Y-102108000D03*
D13*
X139954000Y-104648000D03*
X139954000Y-107188000D03*
X139954000Y-109728000D03*
X139954000Y-112268000D03*
X139954000Y-114808000D03*
X139954000Y-117348000D03*
X139954000Y-119888000D03*
X139954000Y-122428000D03*
X139954000Y-124968000D03*
X139954000Y-127508000D03*
X139954000Y-130048000D03*
X139954000Y-132588000D03*
X139954000Y-135128000D03*
X147574000Y-135128000D03*
X147574000Y-132588000D03*
X147574000Y-130048000D03*
X147574000Y-127508000D03*
X147574000Y-124968000D03*
X147574000Y-122428000D03*
X147574000Y-119888000D03*
X147574000Y-117348000D03*
X147574000Y-114808000D03*
X147574000Y-112268000D03*
X147574000Y-109728000D03*
X147574000Y-107188000D03*
X147574000Y-104648000D03*
X147574000Y-102108000D03*
D16*
X157734000Y-105918000D03*
D14*
X149352000Y-143012000D03*
D13*
X146812000Y-143012000D03*
X144272000Y-143012000D03*
X141732000Y-143012000D03*
X139192000Y-143012000D03*
X136652000Y-143012000D03*
X134112000Y-143012000D03*
X131572000Y-143012000D03*
X131572000Y-150632000D03*
X134112000Y-150632000D03*
X136652000Y-150632000D03*
X139192000Y-150632000D03*
X141732000Y-150632000D03*
X144272000Y-150632000D03*
X146812000Y-150632000D03*
X149352000Y-150632000D03*
D15*
X88138000Y-97282000D03*
D16*
X94234000Y-102108000D03*
D19*
X96774000Y-102108000D03*
X94234000Y-104648000D03*
X96774000Y-104648000D03*
X94234000Y-107188000D03*
X96774000Y-107188000D03*
X94234000Y-109728000D03*
X96774000Y-109728000D03*
X94234000Y-112268000D03*
X96774000Y-112268000D03*
X94234000Y-114808000D03*
X96774000Y-114808000D03*
X94234000Y-117348000D03*
X96774000Y-117348000D03*
X94234000Y-119888000D03*
X96774000Y-119888000D03*
X94234000Y-122428000D03*
X96774000Y-122428000D03*
X94234000Y-124968000D03*
X96774000Y-124968000D03*
X94234000Y-127508000D03*
X96774000Y-127508000D03*
X94234000Y-130048000D03*
X96774000Y-130048000D03*
D14*
X123957000Y-143012000D03*
D13*
X121417000Y-143012000D03*
X118877000Y-143012000D03*
X116337000Y-143012000D03*
X113797000Y-143012000D03*
X111257000Y-143012000D03*
X108717000Y-143012000D03*
X108717000Y-150632000D03*
X111257000Y-150632000D03*
X113797000Y-150632000D03*
X116337000Y-150632000D03*
X118877000Y-150632000D03*
X121417000Y-150632000D03*
X123957000Y-150632000D03*
D20*
X164084000Y-152646000D03*
D21*
X161544000Y-155186000D03*
X159004000Y-152646000D03*
D16*
X133350000Y-103886000D03*
D15*
X88138000Y-165100000D03*
D12*
X186436000Y-150562000D03*
D13*
X186436000Y-143062000D03*
D14*
X180848000Y-137160000D03*
D13*
X180848000Y-134620000D03*
X180848000Y-132080000D03*
X180848000Y-129540000D03*
X180848000Y-127000000D03*
X180848000Y-124460000D03*
X180848000Y-121920000D03*
X180848000Y-119380000D03*
X180848000Y-116840000D03*
X180848000Y-114300000D03*
X180848000Y-111760000D03*
X180848000Y-109220000D03*
X180848000Y-106680000D03*
X180848000Y-104140000D03*
X180848000Y-101600000D03*
X165608000Y-101600000D03*
X165608000Y-104140000D03*
X165608000Y-106680000D03*
X165608000Y-109220000D03*
X165608000Y-111760000D03*
X165608000Y-114300000D03*
X165608000Y-116840000D03*
X165608000Y-119380000D03*
X165608000Y-121920000D03*
X165608000Y-124460000D03*
X165608000Y-127000000D03*
X165608000Y-129540000D03*
X165608000Y-132080000D03*
X165608000Y-134620000D03*
X165608000Y-137160000D03*
D12*
X160020000Y-133829000D03*
D13*
X160020000Y-136369000D03*
D16*
X96266000Y-98806000D03*
X133350000Y-98806000D03*
D14*
X183139000Y-143012000D03*
D13*
X180599000Y-143012000D03*
X178059000Y-143012000D03*
X175519000Y-143012000D03*
X172979000Y-143012000D03*
X170439000Y-143012000D03*
X167899000Y-143012000D03*
X167899000Y-150632000D03*
X170439000Y-150632000D03*
X172979000Y-150632000D03*
X175519000Y-150632000D03*
X178059000Y-150632000D03*
X180599000Y-150632000D03*
X183139000Y-150632000D03*
D14*
X104887000Y-143012000D03*
D13*
X102347000Y-143012000D03*
X99807000Y-143012000D03*
X97267000Y-143012000D03*
X94727000Y-143012000D03*
X92187000Y-143012000D03*
X89647000Y-143012000D03*
X89647000Y-150632000D03*
X92187000Y-150632000D03*
X94727000Y-150632000D03*
X97267000Y-150632000D03*
X99807000Y-150632000D03*
X102347000Y-150632000D03*
X104887000Y-150632000D03*
D16*
X168925000Y-161798000D03*
D19*
X171465000Y-161798000D03*
X174005000Y-161798000D03*
D12*
X152649000Y-164268000D03*
D13*
X152649000Y-156768000D03*
D12*
X152654000Y-150562000D03*
D13*
X152654000Y-143062000D03*
D15*
X184658000Y-165100000D03*
D12*
X184404000Y-127029000D03*
D13*
X184404000Y-124489000D03*
D16*
X92202000Y-155702000D03*
X96012000Y-155702000D03*
D12*
X161544000Y-158721000D03*
D13*
X161544000Y-161261000D03*
M02*
