G04 #@! TF.GenerationSoftware,KiCad,Pcbnew,(6.0.0)*
G04 #@! TF.CreationDate,2022-11-09T00:09:39-05:00*
G04 #@! TF.ProjectId,io_i2c,696f5f69-3263-42e6-9b69-6361645f7063,rev?*
G04 #@! TF.SameCoordinates,Original*
G04 #@! TF.FileFunction,Legend,Top*
G04 #@! TF.FilePolarity,Positive*
%FSLAX46Y46*%
G04 Gerber Fmt 4.6, Leading zero omitted, Abs format (unit mm)*
G04 Created by KiCad (PCBNEW (6.0.0)) date 2022-11-09 00:09:39*
%MOMM*%
%LPD*%
G01*
G04 APERTURE LIST*
%ADD10C,0.150000*%
%ADD11C,0.100000*%
%ADD12C,0.120000*%
%ADD13C,1.600000*%
%ADD14O,1.600000X1.600000*%
%ADD15R,1.600000X1.600000*%
%ADD16C,3.200000*%
%ADD17R,1.700000X1.700000*%
%ADD18R,2.200000X2.200000*%
%ADD19O,2.200000X2.200000*%
%ADD20O,1.700000X1.700000*%
%ADD21R,1.500000X1.500000*%
%ADD22C,1.500000*%
G04 APERTURE END LIST*
D10*
X169291000Y-163957000D02*
X170815000Y-163957000D01*
X169291000Y-163957000D02*
X169037000Y-163449000D01*
X94234000Y-156210000D02*
X94234000Y-158496000D01*
X171831000Y-163957000D02*
X173355000Y-163957000D01*
X172593000Y-163957000D02*
X173863000Y-164719000D01*
X171831000Y-163957000D02*
X171577000Y-163449000D01*
X170053000Y-163957000D02*
X168783000Y-164719000D01*
X170815000Y-163957000D02*
X171069000Y-163449000D01*
X173355000Y-163957000D02*
X173609000Y-163449000D01*
D11*
X163790666Y-142168666D02*
X163757333Y-142268666D01*
X163757333Y-142435333D01*
X163790666Y-142502000D01*
X163824000Y-142535333D01*
X163890666Y-142568666D01*
X163957333Y-142568666D01*
X164024000Y-142535333D01*
X164057333Y-142502000D01*
X164090666Y-142435333D01*
X164124000Y-142302000D01*
X164157333Y-142235333D01*
X164190666Y-142202000D01*
X164257333Y-142168666D01*
X164324000Y-142168666D01*
X164390666Y-142202000D01*
X164424000Y-142235333D01*
X164457333Y-142302000D01*
X164457333Y-142468666D01*
X164424000Y-142568666D01*
X163824000Y-143268666D02*
X163790666Y-143235333D01*
X163757333Y-143135333D01*
X163757333Y-143068666D01*
X163790666Y-142968666D01*
X163857333Y-142902000D01*
X163924000Y-142868666D01*
X164057333Y-142835333D01*
X164157333Y-142835333D01*
X164290666Y-142868666D01*
X164357333Y-142902000D01*
X164424000Y-142968666D01*
X164457333Y-143068666D01*
X164457333Y-143135333D01*
X164424000Y-143235333D01*
X164390666Y-143268666D01*
X163757333Y-143902000D02*
X163757333Y-143568666D01*
X164457333Y-143568666D01*
D10*
X93169738Y-159619761D02*
X93074500Y-159667380D01*
X92884023Y-159667380D01*
X92788785Y-159619761D01*
X92741166Y-159572142D01*
X92693547Y-159476904D01*
X92693547Y-159191190D01*
X92741166Y-159095952D01*
X92788785Y-159048333D01*
X92884023Y-159000714D01*
X93074500Y-159000714D01*
X93169738Y-159048333D01*
X94026880Y-159000714D02*
X94026880Y-159667380D01*
X93598309Y-159000714D02*
X93598309Y-159524523D01*
X93645928Y-159619761D01*
X93741166Y-159667380D01*
X93884023Y-159667380D01*
X93979261Y-159619761D01*
X94026880Y-159572142D01*
X94360214Y-159000714D02*
X94741166Y-159000714D01*
X94503071Y-158667380D02*
X94503071Y-159524523D01*
X94550690Y-159619761D01*
X94645928Y-159667380D01*
X94741166Y-159667380D01*
X95836404Y-159667380D02*
X95836404Y-158667380D01*
X96264976Y-159667380D02*
X96264976Y-159143571D01*
X96217357Y-159048333D01*
X96122119Y-159000714D01*
X95979261Y-159000714D01*
X95884023Y-159048333D01*
X95836404Y-159095952D01*
X97122119Y-159619761D02*
X97026880Y-159667380D01*
X96836404Y-159667380D01*
X96741166Y-159619761D01*
X96693547Y-159524523D01*
X96693547Y-159143571D01*
X96741166Y-159048333D01*
X96836404Y-159000714D01*
X97026880Y-159000714D01*
X97122119Y-159048333D01*
X97169738Y-159143571D01*
X97169738Y-159238809D01*
X96693547Y-159334047D01*
X97598309Y-159667380D02*
X97598309Y-159000714D01*
X97598309Y-159191190D02*
X97645928Y-159095952D01*
X97693547Y-159048333D01*
X97788785Y-159000714D01*
X97884023Y-159000714D01*
X98598309Y-159619761D02*
X98503071Y-159667380D01*
X98312595Y-159667380D01*
X98217357Y-159619761D01*
X98169738Y-159524523D01*
X98169738Y-159143571D01*
X98217357Y-159048333D01*
X98312595Y-159000714D01*
X98503071Y-159000714D01*
X98598309Y-159048333D01*
X98645928Y-159143571D01*
X98645928Y-159238809D01*
X98169738Y-159334047D01*
X99693547Y-159000714D02*
X100074500Y-159000714D01*
X99836404Y-158667380D02*
X99836404Y-159524523D01*
X99884023Y-159619761D01*
X99979261Y-159667380D01*
X100074500Y-159667380D01*
X100550690Y-159667380D02*
X100455452Y-159619761D01*
X100407833Y-159572142D01*
X100360214Y-159476904D01*
X100360214Y-159191190D01*
X100407833Y-159095952D01*
X100455452Y-159048333D01*
X100550690Y-159000714D01*
X100693547Y-159000714D01*
X100788785Y-159048333D01*
X100836404Y-159095952D01*
X100884023Y-159191190D01*
X100884023Y-159476904D01*
X100836404Y-159572142D01*
X100788785Y-159619761D01*
X100693547Y-159667380D01*
X100550690Y-159667380D01*
X102074500Y-159667380D02*
X102074500Y-159000714D01*
X102074500Y-158667380D02*
X102026880Y-158715000D01*
X102074500Y-158762619D01*
X102122119Y-158715000D01*
X102074500Y-158667380D01*
X102074500Y-158762619D01*
X102550690Y-159000714D02*
X102550690Y-159667380D01*
X102550690Y-159095952D02*
X102598309Y-159048333D01*
X102693547Y-159000714D01*
X102836404Y-159000714D01*
X102931642Y-159048333D01*
X102979261Y-159143571D01*
X102979261Y-159667380D01*
X103407833Y-159619761D02*
X103503071Y-159667380D01*
X103693547Y-159667380D01*
X103788785Y-159619761D01*
X103836404Y-159524523D01*
X103836404Y-159476904D01*
X103788785Y-159381666D01*
X103693547Y-159334047D01*
X103550690Y-159334047D01*
X103455452Y-159286428D01*
X103407833Y-159191190D01*
X103407833Y-159143571D01*
X103455452Y-159048333D01*
X103550690Y-159000714D01*
X103693547Y-159000714D01*
X103788785Y-159048333D01*
X104645928Y-159619761D02*
X104550690Y-159667380D01*
X104360214Y-159667380D01*
X104264976Y-159619761D01*
X104217357Y-159524523D01*
X104217357Y-159143571D01*
X104264976Y-159048333D01*
X104360214Y-159000714D01*
X104550690Y-159000714D01*
X104645928Y-159048333D01*
X104693547Y-159143571D01*
X104693547Y-159238809D01*
X104217357Y-159334047D01*
X105122119Y-159667380D02*
X105122119Y-159000714D01*
X105122119Y-159191190D02*
X105169738Y-159095952D01*
X105217357Y-159048333D01*
X105312595Y-159000714D01*
X105407833Y-159000714D01*
X105598309Y-159000714D02*
X105979261Y-159000714D01*
X105741166Y-158667380D02*
X105741166Y-159524523D01*
X105788785Y-159619761D01*
X105884023Y-159667380D01*
X105979261Y-159667380D01*
X85836404Y-161277380D02*
X85836404Y-160610714D01*
X85836404Y-160801190D02*
X85884023Y-160705952D01*
X85931642Y-160658333D01*
X86026880Y-160610714D01*
X86122119Y-160610714D01*
X86836404Y-161229761D02*
X86741166Y-161277380D01*
X86550690Y-161277380D01*
X86455452Y-161229761D01*
X86407833Y-161134523D01*
X86407833Y-160753571D01*
X86455452Y-160658333D01*
X86550690Y-160610714D01*
X86741166Y-160610714D01*
X86836404Y-160658333D01*
X86884023Y-160753571D01*
X86884023Y-160848809D01*
X86407833Y-160944047D01*
X87741166Y-161277380D02*
X87741166Y-160753571D01*
X87693547Y-160658333D01*
X87598309Y-160610714D01*
X87407833Y-160610714D01*
X87312595Y-160658333D01*
X87741166Y-161229761D02*
X87645928Y-161277380D01*
X87407833Y-161277380D01*
X87312595Y-161229761D01*
X87264976Y-161134523D01*
X87264976Y-161039285D01*
X87312595Y-160944047D01*
X87407833Y-160896428D01*
X87645928Y-160896428D01*
X87741166Y-160848809D01*
X88645928Y-161277380D02*
X88645928Y-160277380D01*
X88645928Y-161229761D02*
X88550690Y-161277380D01*
X88360214Y-161277380D01*
X88264976Y-161229761D01*
X88217357Y-161182142D01*
X88169738Y-161086904D01*
X88169738Y-160801190D01*
X88217357Y-160705952D01*
X88264976Y-160658333D01*
X88360214Y-160610714D01*
X88550690Y-160610714D01*
X88645928Y-160658333D01*
X90312595Y-160610714D02*
X90312595Y-161420238D01*
X90264976Y-161515476D01*
X90217357Y-161563095D01*
X90122119Y-161610714D01*
X89979261Y-161610714D01*
X89884023Y-161563095D01*
X90312595Y-161229761D02*
X90217357Y-161277380D01*
X90026880Y-161277380D01*
X89931642Y-161229761D01*
X89884023Y-161182142D01*
X89836404Y-161086904D01*
X89836404Y-160801190D01*
X89884023Y-160705952D01*
X89931642Y-160658333D01*
X90026880Y-160610714D01*
X90217357Y-160610714D01*
X90312595Y-160658333D01*
X90931642Y-161277380D02*
X90836404Y-161229761D01*
X90788785Y-161134523D01*
X90788785Y-160277380D01*
X91312595Y-161277380D02*
X91312595Y-160610714D01*
X91312595Y-160277380D02*
X91264976Y-160325000D01*
X91312595Y-160372619D01*
X91360214Y-160325000D01*
X91312595Y-160277380D01*
X91312595Y-160372619D01*
X91645928Y-160610714D02*
X92026880Y-160610714D01*
X91788785Y-160277380D02*
X91788785Y-161134523D01*
X91836404Y-161229761D01*
X91931642Y-161277380D01*
X92026880Y-161277380D01*
X92788785Y-161229761D02*
X92693547Y-161277380D01*
X92503071Y-161277380D01*
X92407833Y-161229761D01*
X92360214Y-161182142D01*
X92312595Y-161086904D01*
X92312595Y-160801190D01*
X92360214Y-160705952D01*
X92407833Y-160658333D01*
X92503071Y-160610714D01*
X92693547Y-160610714D01*
X92788785Y-160658333D01*
X93217357Y-161277380D02*
X93217357Y-160277380D01*
X93645928Y-161277380D02*
X93645928Y-160753571D01*
X93598309Y-160658333D01*
X93503071Y-160610714D01*
X93360214Y-160610714D01*
X93264976Y-160658333D01*
X93217357Y-160705952D01*
X94836404Y-161229761D02*
X94931642Y-161277380D01*
X95122119Y-161277380D01*
X95217357Y-161229761D01*
X95264976Y-161134523D01*
X95264976Y-161086904D01*
X95217357Y-160991666D01*
X95122119Y-160944047D01*
X94979261Y-160944047D01*
X94884023Y-160896428D01*
X94836404Y-160801190D01*
X94836404Y-160753571D01*
X94884023Y-160658333D01*
X94979261Y-160610714D01*
X95122119Y-160610714D01*
X95217357Y-160658333D01*
X95693547Y-160610714D02*
X95693547Y-161277380D01*
X95693547Y-160705952D02*
X95741166Y-160658333D01*
X95836404Y-160610714D01*
X95979261Y-160610714D01*
X96074500Y-160658333D01*
X96122119Y-160753571D01*
X96122119Y-161277380D01*
X97026880Y-160610714D02*
X97026880Y-161277380D01*
X96598309Y-160610714D02*
X96598309Y-161134523D01*
X96645928Y-161229761D01*
X96741166Y-161277380D01*
X96884023Y-161277380D01*
X96979261Y-161229761D01*
X97026880Y-161182142D01*
X97503071Y-161277380D02*
X97503071Y-160277380D01*
X97503071Y-160658333D02*
X97598309Y-160610714D01*
X97788785Y-160610714D01*
X97884023Y-160658333D01*
X97931642Y-160705952D01*
X97979261Y-160801190D01*
X97979261Y-161086904D01*
X97931642Y-161182142D01*
X97884023Y-161229761D01*
X97788785Y-161277380D01*
X97598309Y-161277380D01*
X97503071Y-161229761D01*
X98407833Y-161277380D02*
X98407833Y-160277380D01*
X98407833Y-160658333D02*
X98503071Y-160610714D01*
X98693547Y-160610714D01*
X98788785Y-160658333D01*
X98836404Y-160705952D01*
X98884023Y-160801190D01*
X98884023Y-161086904D01*
X98836404Y-161182142D01*
X98788785Y-161229761D01*
X98693547Y-161277380D01*
X98503071Y-161277380D01*
X98407833Y-161229761D01*
X99693547Y-161229761D02*
X99598309Y-161277380D01*
X99407833Y-161277380D01*
X99312595Y-161229761D01*
X99264976Y-161134523D01*
X99264976Y-160753571D01*
X99312595Y-160658333D01*
X99407833Y-160610714D01*
X99598309Y-160610714D01*
X99693547Y-160658333D01*
X99741166Y-160753571D01*
X99741166Y-160848809D01*
X99264976Y-160944047D01*
X100169738Y-161277380D02*
X100169738Y-160610714D01*
X100169738Y-160801190D02*
X100217357Y-160705952D01*
X100264976Y-160658333D01*
X100360214Y-160610714D01*
X100455452Y-160610714D01*
X101979261Y-161229761D02*
X101884023Y-161277380D01*
X101693547Y-161277380D01*
X101598309Y-161229761D01*
X101550690Y-161182142D01*
X101503071Y-161086904D01*
X101503071Y-160801190D01*
X101550690Y-160705952D01*
X101598309Y-160658333D01*
X101693547Y-160610714D01*
X101884023Y-160610714D01*
X101979261Y-160658333D01*
X102407833Y-161277380D02*
X102407833Y-160610714D01*
X102407833Y-160277380D02*
X102360214Y-160325000D01*
X102407833Y-160372619D01*
X102455452Y-160325000D01*
X102407833Y-160277380D01*
X102407833Y-160372619D01*
X102884023Y-161277380D02*
X102884023Y-160610714D01*
X102884023Y-160801190D02*
X102931642Y-160705952D01*
X102979261Y-160658333D01*
X103074500Y-160610714D01*
X103169738Y-160610714D01*
X103931642Y-161229761D02*
X103836404Y-161277380D01*
X103645928Y-161277380D01*
X103550690Y-161229761D01*
X103503071Y-161182142D01*
X103455452Y-161086904D01*
X103455452Y-160801190D01*
X103503071Y-160705952D01*
X103550690Y-160658333D01*
X103645928Y-160610714D01*
X103836404Y-160610714D01*
X103931642Y-160658333D01*
X104788785Y-160610714D02*
X104788785Y-161277380D01*
X104360214Y-160610714D02*
X104360214Y-161134523D01*
X104407833Y-161229761D01*
X104503071Y-161277380D01*
X104645928Y-161277380D01*
X104741166Y-161229761D01*
X104788785Y-161182142D01*
X105264976Y-161277380D02*
X105264976Y-160610714D01*
X105264976Y-160277380D02*
X105217357Y-160325000D01*
X105264976Y-160372619D01*
X105312595Y-160325000D01*
X105264976Y-160277380D01*
X105264976Y-160372619D01*
X105598309Y-160610714D02*
X105979261Y-160610714D01*
X105741166Y-160277380D02*
X105741166Y-161134523D01*
X105788785Y-161229761D01*
X105884023Y-161277380D01*
X105979261Y-161277380D01*
X93083142Y-165362000D02*
X92987904Y-165314380D01*
X92845047Y-165314380D01*
X92702190Y-165362000D01*
X92606952Y-165457238D01*
X92559333Y-165552476D01*
X92511714Y-165742952D01*
X92511714Y-165885809D01*
X92559333Y-166076285D01*
X92606952Y-166171523D01*
X92702190Y-166266761D01*
X92845047Y-166314380D01*
X92940285Y-166314380D01*
X93083142Y-166266761D01*
X93130761Y-166219142D01*
X93130761Y-165885809D01*
X92940285Y-165885809D01*
X93559333Y-165647714D02*
X93559333Y-166314380D01*
X93559333Y-165742952D02*
X93606952Y-165695333D01*
X93702190Y-165647714D01*
X93845047Y-165647714D01*
X93940285Y-165695333D01*
X93987904Y-165790571D01*
X93987904Y-166314380D01*
X94892666Y-166314380D02*
X94892666Y-165314380D01*
X94892666Y-166266761D02*
X94797428Y-166314380D01*
X94606952Y-166314380D01*
X94511714Y-166266761D01*
X94464095Y-166219142D01*
X94416476Y-166123904D01*
X94416476Y-165838190D01*
X94464095Y-165742952D01*
X94511714Y-165695333D01*
X94606952Y-165647714D01*
X94797428Y-165647714D01*
X94892666Y-165695333D01*
X124944952Y-133376380D02*
X124944952Y-132376380D01*
X125183047Y-132376380D01*
X125325904Y-132424000D01*
X125421142Y-132519238D01*
X125468761Y-132614476D01*
X125516380Y-132804952D01*
X125516380Y-132947809D01*
X125468761Y-133138285D01*
X125421142Y-133233523D01*
X125325904Y-133328761D01*
X125183047Y-133376380D01*
X124944952Y-133376380D01*
X126325904Y-133328761D02*
X126230666Y-133376380D01*
X126040190Y-133376380D01*
X125944952Y-133328761D01*
X125897333Y-133233523D01*
X125897333Y-132852571D01*
X125944952Y-132757333D01*
X126040190Y-132709714D01*
X126230666Y-132709714D01*
X126325904Y-132757333D01*
X126373523Y-132852571D01*
X126373523Y-132947809D01*
X125897333Y-133043047D01*
X126802095Y-133376380D02*
X126802095Y-132709714D01*
X126802095Y-132804952D02*
X126849714Y-132757333D01*
X126944952Y-132709714D01*
X127087809Y-132709714D01*
X127183047Y-132757333D01*
X127230666Y-132852571D01*
X127230666Y-133376380D01*
X127230666Y-132852571D02*
X127278285Y-132757333D01*
X127373523Y-132709714D01*
X127516380Y-132709714D01*
X127611619Y-132757333D01*
X127659238Y-132852571D01*
X127659238Y-133376380D01*
X128278285Y-133376380D02*
X128183047Y-133328761D01*
X128135428Y-133281142D01*
X128087809Y-133185904D01*
X128087809Y-132900190D01*
X128135428Y-132804952D01*
X128183047Y-132757333D01*
X128278285Y-132709714D01*
X128421142Y-132709714D01*
X128516380Y-132757333D01*
X128564000Y-132804952D01*
X128611619Y-132900190D01*
X128611619Y-133185904D01*
X128564000Y-133281142D01*
X128516380Y-133328761D01*
X128421142Y-133376380D01*
X128278285Y-133376380D01*
X129040190Y-132709714D02*
X129040190Y-133376380D01*
X129040190Y-132804952D02*
X129087809Y-132757333D01*
X129183047Y-132709714D01*
X129325904Y-132709714D01*
X129421142Y-132757333D01*
X129468761Y-132852571D01*
X129468761Y-133376380D01*
X130706857Y-133376380D02*
X130706857Y-132376380D01*
X130944952Y-132376380D01*
X131087809Y-132424000D01*
X131183047Y-132519238D01*
X131230666Y-132614476D01*
X131278285Y-132804952D01*
X131278285Y-132947809D01*
X131230666Y-133138285D01*
X131183047Y-133233523D01*
X131087809Y-133328761D01*
X130944952Y-133376380D01*
X130706857Y-133376380D01*
X132087809Y-133328761D02*
X131992571Y-133376380D01*
X131802095Y-133376380D01*
X131706857Y-133328761D01*
X131659238Y-133233523D01*
X131659238Y-132852571D01*
X131706857Y-132757333D01*
X131802095Y-132709714D01*
X131992571Y-132709714D01*
X132087809Y-132757333D01*
X132135428Y-132852571D01*
X132135428Y-132947809D01*
X131659238Y-133043047D01*
X132564000Y-133376380D02*
X132564000Y-132376380D01*
X132564000Y-132757333D02*
X132659238Y-132709714D01*
X132849714Y-132709714D01*
X132944952Y-132757333D01*
X132992571Y-132804952D01*
X133040190Y-132900190D01*
X133040190Y-133185904D01*
X132992571Y-133281142D01*
X132944952Y-133328761D01*
X132849714Y-133376380D01*
X132659238Y-133376380D01*
X132564000Y-133328761D01*
X133897333Y-132709714D02*
X133897333Y-133376380D01*
X133468761Y-132709714D02*
X133468761Y-133233523D01*
X133516380Y-133328761D01*
X133611619Y-133376380D01*
X133754476Y-133376380D01*
X133849714Y-133328761D01*
X133897333Y-133281142D01*
X134802095Y-132709714D02*
X134802095Y-133519238D01*
X134754476Y-133614476D01*
X134706857Y-133662095D01*
X134611619Y-133709714D01*
X134468761Y-133709714D01*
X134373523Y-133662095D01*
X134802095Y-133328761D02*
X134706857Y-133376380D01*
X134516380Y-133376380D01*
X134421142Y-133328761D01*
X134373523Y-133281142D01*
X134325904Y-133185904D01*
X134325904Y-132900190D01*
X134373523Y-132804952D01*
X134421142Y-132757333D01*
X134516380Y-132709714D01*
X134706857Y-132709714D01*
X134802095Y-132757333D01*
X135706857Y-132709714D02*
X135706857Y-133519238D01*
X135659238Y-133614476D01*
X135611619Y-133662095D01*
X135516380Y-133709714D01*
X135373523Y-133709714D01*
X135278285Y-133662095D01*
X135706857Y-133328761D02*
X135611619Y-133376380D01*
X135421142Y-133376380D01*
X135325904Y-133328761D01*
X135278285Y-133281142D01*
X135230666Y-133185904D01*
X135230666Y-132900190D01*
X135278285Y-132804952D01*
X135325904Y-132757333D01*
X135421142Y-132709714D01*
X135611619Y-132709714D01*
X135706857Y-132757333D01*
X136564000Y-133328761D02*
X136468761Y-133376380D01*
X136278285Y-133376380D01*
X136183047Y-133328761D01*
X136135428Y-133233523D01*
X136135428Y-132852571D01*
X136183047Y-132757333D01*
X136278285Y-132709714D01*
X136468761Y-132709714D01*
X136564000Y-132757333D01*
X136611619Y-132852571D01*
X136611619Y-132947809D01*
X136135428Y-133043047D01*
X137040190Y-133376380D02*
X137040190Y-132709714D01*
X137040190Y-132900190D02*
X137087809Y-132804952D01*
X137135428Y-132757333D01*
X137230666Y-132709714D01*
X137325904Y-132709714D01*
X129492571Y-134986380D02*
X129159238Y-134510190D01*
X128921142Y-134986380D02*
X128921142Y-133986380D01*
X129302095Y-133986380D01*
X129397333Y-134034000D01*
X129444952Y-134081619D01*
X129492571Y-134176857D01*
X129492571Y-134319714D01*
X129444952Y-134414952D01*
X129397333Y-134462571D01*
X129302095Y-134510190D01*
X128921142Y-134510190D01*
X130302095Y-134938761D02*
X130206857Y-134986380D01*
X130016380Y-134986380D01*
X129921142Y-134938761D01*
X129873523Y-134843523D01*
X129873523Y-134462571D01*
X129921142Y-134367333D01*
X130016380Y-134319714D01*
X130206857Y-134319714D01*
X130302095Y-134367333D01*
X130349714Y-134462571D01*
X130349714Y-134557809D01*
X129873523Y-134653047D01*
X130683047Y-134319714D02*
X130921142Y-134986380D01*
X131159238Y-134319714D01*
X131540190Y-134891142D02*
X131587809Y-134938761D01*
X131540190Y-134986380D01*
X131492571Y-134938761D01*
X131540190Y-134891142D01*
X131540190Y-134986380D01*
X132778285Y-134462571D02*
X133111619Y-134462571D01*
X133254476Y-134986380D02*
X132778285Y-134986380D01*
X132778285Y-133986380D01*
X133254476Y-133986380D01*
X126064000Y-136596380D02*
X126064000Y-135596380D01*
X126635428Y-136596380D02*
X126206857Y-136024952D01*
X126635428Y-135596380D02*
X126064000Y-136167809D01*
X127064000Y-135929714D02*
X127064000Y-136596380D01*
X127064000Y-136024952D02*
X127111619Y-135977333D01*
X127206857Y-135929714D01*
X127349714Y-135929714D01*
X127444952Y-135977333D01*
X127492571Y-136072571D01*
X127492571Y-136596380D01*
X128397333Y-136596380D02*
X128397333Y-136072571D01*
X128349714Y-135977333D01*
X128254476Y-135929714D01*
X128064000Y-135929714D01*
X127968761Y-135977333D01*
X128397333Y-136548761D02*
X128302095Y-136596380D01*
X128064000Y-136596380D01*
X127968761Y-136548761D01*
X127921142Y-136453523D01*
X127921142Y-136358285D01*
X127968761Y-136263047D01*
X128064000Y-136215428D01*
X128302095Y-136215428D01*
X128397333Y-136167809D01*
X128873523Y-136596380D02*
X128873523Y-135929714D01*
X128873523Y-136120190D02*
X128921142Y-136024952D01*
X128968761Y-135977333D01*
X129064000Y-135929714D01*
X129159238Y-135929714D01*
X129349714Y-135929714D02*
X129730666Y-135929714D01*
X129492571Y-136596380D02*
X129492571Y-135739238D01*
X129540190Y-135644000D01*
X129635428Y-135596380D01*
X129730666Y-135596380D01*
X130064000Y-136596380D02*
X130064000Y-135929714D01*
X130064000Y-135596380D02*
X130016380Y-135644000D01*
X130064000Y-135691619D01*
X130111619Y-135644000D01*
X130064000Y-135596380D01*
X130064000Y-135691619D01*
X130968761Y-136596380D02*
X130968761Y-136072571D01*
X130921142Y-135977333D01*
X130825904Y-135929714D01*
X130635428Y-135929714D01*
X130540190Y-135977333D01*
X130968761Y-136548761D02*
X130873523Y-136596380D01*
X130635428Y-136596380D01*
X130540190Y-136548761D01*
X130492571Y-136453523D01*
X130492571Y-136358285D01*
X130540190Y-136263047D01*
X130635428Y-136215428D01*
X130873523Y-136215428D01*
X130968761Y-136167809D01*
X131444952Y-135929714D02*
X131444952Y-136596380D01*
X131444952Y-136024952D02*
X131492571Y-135977333D01*
X131587809Y-135929714D01*
X131730666Y-135929714D01*
X131825904Y-135977333D01*
X131873523Y-136072571D01*
X131873523Y-136596380D01*
X133587809Y-136596380D02*
X133111619Y-136596380D01*
X133111619Y-135596380D01*
X134349714Y-136596380D02*
X134349714Y-136072571D01*
X134302095Y-135977333D01*
X134206857Y-135929714D01*
X134016380Y-135929714D01*
X133921142Y-135977333D01*
X134349714Y-136548761D02*
X134254476Y-136596380D01*
X134016380Y-136596380D01*
X133921142Y-136548761D01*
X133873523Y-136453523D01*
X133873523Y-136358285D01*
X133921142Y-136263047D01*
X134016380Y-136215428D01*
X134254476Y-136215428D01*
X134349714Y-136167809D01*
X134825904Y-136596380D02*
X134825904Y-135596380D01*
X134825904Y-135977333D02*
X134921142Y-135929714D01*
X135111619Y-135929714D01*
X135206857Y-135977333D01*
X135254476Y-136024952D01*
X135302095Y-136120190D01*
X135302095Y-136405904D01*
X135254476Y-136501142D01*
X135206857Y-136548761D01*
X135111619Y-136596380D01*
X134921142Y-136596380D01*
X134825904Y-136548761D01*
X135683047Y-136548761D02*
X135778285Y-136596380D01*
X135968761Y-136596380D01*
X136064000Y-136548761D01*
X136111619Y-136453523D01*
X136111619Y-136405904D01*
X136064000Y-136310666D01*
X135968761Y-136263047D01*
X135825904Y-136263047D01*
X135730666Y-136215428D01*
X135683047Y-136120190D01*
X135683047Y-136072571D01*
X135730666Y-135977333D01*
X135825904Y-135929714D01*
X135968761Y-135929714D01*
X136064000Y-135977333D01*
X125564000Y-137682571D02*
X125230666Y-137682571D01*
X125230666Y-138206380D02*
X125230666Y-137206380D01*
X125706857Y-137206380D01*
X126087809Y-138206380D02*
X126087809Y-137539714D01*
X126087809Y-137730190D02*
X126135428Y-137634952D01*
X126183047Y-137587333D01*
X126278285Y-137539714D01*
X126373523Y-137539714D01*
X127135428Y-138206380D02*
X127135428Y-137682571D01*
X127087809Y-137587333D01*
X126992571Y-137539714D01*
X126802095Y-137539714D01*
X126706857Y-137587333D01*
X127135428Y-138158761D02*
X127040190Y-138206380D01*
X126802095Y-138206380D01*
X126706857Y-138158761D01*
X126659238Y-138063523D01*
X126659238Y-137968285D01*
X126706857Y-137873047D01*
X126802095Y-137825428D01*
X127040190Y-137825428D01*
X127135428Y-137777809D01*
X127611619Y-137539714D02*
X127611619Y-138206380D01*
X127611619Y-137634952D02*
X127659238Y-137587333D01*
X127754476Y-137539714D01*
X127897333Y-137539714D01*
X127992571Y-137587333D01*
X128040190Y-137682571D01*
X128040190Y-138206380D01*
X128516380Y-138206380D02*
X128516380Y-137206380D01*
X128611619Y-137825428D02*
X128897333Y-138206380D01*
X128897333Y-137539714D02*
X128516380Y-137920666D01*
X130087809Y-138206380D02*
X130087809Y-137206380D01*
X130468761Y-137206380D01*
X130564000Y-137254000D01*
X130611619Y-137301619D01*
X130659238Y-137396857D01*
X130659238Y-137539714D01*
X130611619Y-137634952D01*
X130564000Y-137682571D01*
X130468761Y-137730190D01*
X130087809Y-137730190D01*
X131516380Y-138206380D02*
X131516380Y-137682571D01*
X131468761Y-137587333D01*
X131373523Y-137539714D01*
X131183047Y-137539714D01*
X131087809Y-137587333D01*
X131516380Y-138158761D02*
X131421142Y-138206380D01*
X131183047Y-138206380D01*
X131087809Y-138158761D01*
X131040190Y-138063523D01*
X131040190Y-137968285D01*
X131087809Y-137873047D01*
X131183047Y-137825428D01*
X131421142Y-137825428D01*
X131516380Y-137777809D01*
X132135428Y-138206380D02*
X132040190Y-138158761D01*
X131992571Y-138063523D01*
X131992571Y-137206380D01*
X132944952Y-138206380D02*
X132944952Y-137682571D01*
X132897333Y-137587333D01*
X132802095Y-137539714D01*
X132611619Y-137539714D01*
X132516380Y-137587333D01*
X132944952Y-138158761D02*
X132849714Y-138206380D01*
X132611619Y-138206380D01*
X132516380Y-138158761D01*
X132468761Y-138063523D01*
X132468761Y-137968285D01*
X132516380Y-137873047D01*
X132611619Y-137825428D01*
X132849714Y-137825428D01*
X132944952Y-137777809D01*
X133325904Y-137539714D02*
X133849714Y-137539714D01*
X133325904Y-138206380D01*
X133849714Y-138206380D01*
X134135428Y-137539714D02*
X134659238Y-137539714D01*
X134135428Y-138206380D01*
X134659238Y-138206380D01*
X135183047Y-138206380D02*
X135087809Y-138158761D01*
X135040190Y-138111142D01*
X134992571Y-138015904D01*
X134992571Y-137730190D01*
X135040190Y-137634952D01*
X135087809Y-137587333D01*
X135183047Y-137539714D01*
X135325904Y-137539714D01*
X135421142Y-137587333D01*
X135468761Y-137634952D01*
X135516380Y-137730190D01*
X135516380Y-138015904D01*
X135468761Y-138111142D01*
X135421142Y-138158761D01*
X135325904Y-138206380D01*
X135183047Y-138206380D01*
X136087809Y-138206380D02*
X135992571Y-138158761D01*
X135944952Y-138063523D01*
X135944952Y-137206380D01*
X136611619Y-138206380D02*
X136516380Y-138158761D01*
X136468761Y-138111142D01*
X136421142Y-138015904D01*
X136421142Y-137730190D01*
X136468761Y-137634952D01*
X136516380Y-137587333D01*
X136611619Y-137539714D01*
X136754476Y-137539714D01*
X136849714Y-137587333D01*
X136897333Y-137634952D01*
X136944952Y-137730190D01*
X136944952Y-138015904D01*
X136897333Y-138111142D01*
X136849714Y-138158761D01*
X136754476Y-138206380D01*
X136611619Y-138206380D01*
X127349714Y-139292571D02*
X127683047Y-139292571D01*
X127825904Y-139816380D02*
X127349714Y-139816380D01*
X127349714Y-138816380D01*
X127825904Y-138816380D01*
X128159238Y-139149714D02*
X128397333Y-139816380D01*
X128635428Y-139149714D01*
X129444952Y-139816380D02*
X129444952Y-139292571D01*
X129397333Y-139197333D01*
X129302095Y-139149714D01*
X129111619Y-139149714D01*
X129016380Y-139197333D01*
X129444952Y-139768761D02*
X129349714Y-139816380D01*
X129111619Y-139816380D01*
X129016380Y-139768761D01*
X128968761Y-139673523D01*
X128968761Y-139578285D01*
X129016380Y-139483047D01*
X129111619Y-139435428D01*
X129349714Y-139435428D01*
X129444952Y-139387809D01*
X129921142Y-139149714D02*
X129921142Y-139816380D01*
X129921142Y-139244952D02*
X129968761Y-139197333D01*
X130064000Y-139149714D01*
X130206857Y-139149714D01*
X130302095Y-139197333D01*
X130349714Y-139292571D01*
X130349714Y-139816380D01*
X131540190Y-139530666D02*
X132016380Y-139530666D01*
X131444952Y-139816380D02*
X131778285Y-138816380D01*
X132111619Y-139816380D01*
X132587809Y-139816380D02*
X132492571Y-139768761D01*
X132444952Y-139673523D01*
X132444952Y-138816380D01*
X133111619Y-139816380D02*
X133016380Y-139768761D01*
X132968761Y-139673523D01*
X132968761Y-138816380D01*
X133873523Y-139768761D02*
X133778285Y-139816380D01*
X133587809Y-139816380D01*
X133492571Y-139768761D01*
X133444952Y-139673523D01*
X133444952Y-139292571D01*
X133492571Y-139197333D01*
X133587809Y-139149714D01*
X133778285Y-139149714D01*
X133873523Y-139197333D01*
X133921142Y-139292571D01*
X133921142Y-139387809D01*
X133444952Y-139483047D01*
X134349714Y-139149714D02*
X134349714Y-139816380D01*
X134349714Y-139244952D02*
X134397333Y-139197333D01*
X134492571Y-139149714D01*
X134635428Y-139149714D01*
X134730666Y-139197333D01*
X134778285Y-139292571D01*
X134778285Y-139816380D01*
X120086380Y-105292095D02*
X120134000Y-105339714D01*
X120181619Y-105434952D01*
X120181619Y-105673047D01*
X120134000Y-105768285D01*
X120086380Y-105815904D01*
X119991142Y-105863523D01*
X119895904Y-105863523D01*
X119753047Y-105815904D01*
X119181619Y-105244476D01*
X119181619Y-105863523D01*
X120181619Y-106196857D02*
X120181619Y-106863523D01*
X119181619Y-106434952D01*
X119181619Y-107768285D02*
X119181619Y-107196857D01*
X119181619Y-107482571D02*
X120181619Y-107482571D01*
X120038761Y-107387333D01*
X119943523Y-107292095D01*
X119895904Y-107196857D01*
X120181619Y-108625428D02*
X120181619Y-108434952D01*
X120134000Y-108339714D01*
X120086380Y-108292095D01*
X119943523Y-108196857D01*
X119753047Y-108149238D01*
X119372095Y-108149238D01*
X119276857Y-108196857D01*
X119229238Y-108244476D01*
X119181619Y-108339714D01*
X119181619Y-108530190D01*
X119229238Y-108625428D01*
X119276857Y-108673047D01*
X119372095Y-108720666D01*
X119610190Y-108720666D01*
X119705428Y-108673047D01*
X119753047Y-108625428D01*
X119800666Y-108530190D01*
X119800666Y-108339714D01*
X119753047Y-108244476D01*
X119705428Y-108196857D01*
X119610190Y-108149238D01*
X119181619Y-110054000D02*
X119229238Y-109958761D01*
X119276857Y-109911142D01*
X119372095Y-109863523D01*
X119657809Y-109863523D01*
X119753047Y-109911142D01*
X119800666Y-109958761D01*
X119848285Y-110054000D01*
X119848285Y-110196857D01*
X119800666Y-110292095D01*
X119753047Y-110339714D01*
X119657809Y-110387333D01*
X119372095Y-110387333D01*
X119276857Y-110339714D01*
X119229238Y-110292095D01*
X119181619Y-110196857D01*
X119181619Y-110054000D01*
X119181619Y-110815904D02*
X119848285Y-110815904D01*
X119657809Y-110815904D02*
X119753047Y-110863523D01*
X119800666Y-110911142D01*
X119848285Y-111006380D01*
X119848285Y-111101619D01*
X120086380Y-112149238D02*
X120134000Y-112196857D01*
X120181619Y-112292095D01*
X120181619Y-112530190D01*
X120134000Y-112625428D01*
X120086380Y-112673047D01*
X119991142Y-112720666D01*
X119895904Y-112720666D01*
X119753047Y-112673047D01*
X119181619Y-112101619D01*
X119181619Y-112720666D01*
X119753047Y-113292095D02*
X119800666Y-113196857D01*
X119848285Y-113149238D01*
X119943523Y-113101619D01*
X119991142Y-113101619D01*
X120086380Y-113149238D01*
X120134000Y-113196857D01*
X120181619Y-113292095D01*
X120181619Y-113482571D01*
X120134000Y-113577809D01*
X120086380Y-113625428D01*
X119991142Y-113673047D01*
X119943523Y-113673047D01*
X119848285Y-113625428D01*
X119800666Y-113577809D01*
X119753047Y-113482571D01*
X119753047Y-113292095D01*
X119705428Y-113196857D01*
X119657809Y-113149238D01*
X119562571Y-113101619D01*
X119372095Y-113101619D01*
X119276857Y-113149238D01*
X119229238Y-113196857D01*
X119181619Y-113292095D01*
X119181619Y-113482571D01*
X119229238Y-113577809D01*
X119276857Y-113625428D01*
X119372095Y-113673047D01*
X119562571Y-113673047D01*
X119657809Y-113625428D01*
X119705428Y-113577809D01*
X119753047Y-113482571D01*
X119181619Y-114625428D02*
X119181619Y-114054000D01*
X119181619Y-114339714D02*
X120181619Y-114339714D01*
X120038761Y-114244476D01*
X119943523Y-114149238D01*
X119895904Y-114054000D01*
X120181619Y-115482571D02*
X120181619Y-115292095D01*
X120134000Y-115196857D01*
X120086380Y-115149238D01*
X119943523Y-115054000D01*
X119753047Y-115006380D01*
X119372095Y-115006380D01*
X119276857Y-115054000D01*
X119229238Y-115101619D01*
X119181619Y-115196857D01*
X119181619Y-115387333D01*
X119229238Y-115482571D01*
X119276857Y-115530190D01*
X119372095Y-115577809D01*
X119610190Y-115577809D01*
X119705428Y-115530190D01*
X119753047Y-115482571D01*
X119800666Y-115387333D01*
X119800666Y-115196857D01*
X119753047Y-115101619D01*
X119705428Y-115054000D01*
X119610190Y-115006380D01*
X119848285Y-117196857D02*
X119038761Y-117196857D01*
X118943523Y-117149238D01*
X118895904Y-117101619D01*
X118848285Y-117006380D01*
X118848285Y-116863523D01*
X118895904Y-116768285D01*
X119229238Y-117196857D02*
X119181619Y-117101619D01*
X119181619Y-116911142D01*
X119229238Y-116815904D01*
X119276857Y-116768285D01*
X119372095Y-116720666D01*
X119657809Y-116720666D01*
X119753047Y-116768285D01*
X119800666Y-116815904D01*
X119848285Y-116911142D01*
X119848285Y-117101619D01*
X119800666Y-117196857D01*
X119181619Y-117815904D02*
X119229238Y-117720666D01*
X119276857Y-117673047D01*
X119372095Y-117625428D01*
X119657809Y-117625428D01*
X119753047Y-117673047D01*
X119800666Y-117720666D01*
X119848285Y-117815904D01*
X119848285Y-117958761D01*
X119800666Y-118054000D01*
X119753047Y-118101619D01*
X119657809Y-118149238D01*
X119372095Y-118149238D01*
X119276857Y-118101619D01*
X119229238Y-118054000D01*
X119181619Y-117958761D01*
X119181619Y-117815904D01*
X119229238Y-118958761D02*
X119181619Y-118863523D01*
X119181619Y-118673047D01*
X119229238Y-118577809D01*
X119324476Y-118530190D01*
X119705428Y-118530190D01*
X119800666Y-118577809D01*
X119848285Y-118673047D01*
X119848285Y-118863523D01*
X119800666Y-118958761D01*
X119705428Y-119006380D01*
X119610190Y-119006380D01*
X119514952Y-118530190D01*
X119229238Y-119387333D02*
X119181619Y-119482571D01*
X119181619Y-119673047D01*
X119229238Y-119768285D01*
X119324476Y-119815904D01*
X119372095Y-119815904D01*
X119467333Y-119768285D01*
X119514952Y-119673047D01*
X119514952Y-119530190D01*
X119562571Y-119434952D01*
X119657809Y-119387333D01*
X119705428Y-119387333D01*
X119800666Y-119434952D01*
X119848285Y-119530190D01*
X119848285Y-119673047D01*
X119800666Y-119768285D01*
X119181619Y-121006380D02*
X120181619Y-121006380D01*
X119181619Y-121434952D02*
X119705428Y-121434952D01*
X119800666Y-121387333D01*
X119848285Y-121292095D01*
X119848285Y-121149238D01*
X119800666Y-121054000D01*
X119753047Y-121006380D01*
X119229238Y-122292095D02*
X119181619Y-122196857D01*
X119181619Y-122006380D01*
X119229238Y-121911142D01*
X119324476Y-121863523D01*
X119705428Y-121863523D01*
X119800666Y-121911142D01*
X119848285Y-122006380D01*
X119848285Y-122196857D01*
X119800666Y-122292095D01*
X119705428Y-122339714D01*
X119610190Y-122339714D01*
X119514952Y-121863523D01*
X119181619Y-122768285D02*
X119848285Y-122768285D01*
X119657809Y-122768285D02*
X119753047Y-122815904D01*
X119800666Y-122863523D01*
X119848285Y-122958761D01*
X119848285Y-123054000D01*
X119229238Y-123768285D02*
X119181619Y-123673047D01*
X119181619Y-123482571D01*
X119229238Y-123387333D01*
X119324476Y-123339714D01*
X119705428Y-123339714D01*
X119800666Y-123387333D01*
X119848285Y-123482571D01*
X119848285Y-123673047D01*
X119800666Y-123768285D01*
X119705428Y-123815904D01*
X119610190Y-123815904D01*
X119514952Y-123339714D01*
X129183333Y-95972380D02*
X128707142Y-95972380D01*
X128659523Y-96448571D01*
X128707142Y-96400952D01*
X128802380Y-96353333D01*
X129040476Y-96353333D01*
X129135714Y-96400952D01*
X129183333Y-96448571D01*
X129230952Y-96543809D01*
X129230952Y-96781904D01*
X129183333Y-96877142D01*
X129135714Y-96924761D01*
X129040476Y-96972380D01*
X128802380Y-96972380D01*
X128707142Y-96924761D01*
X128659523Y-96877142D01*
X129564285Y-96305714D02*
X129802380Y-96972380D01*
X130040476Y-96305714D01*
X131754761Y-96877142D02*
X131707142Y-96924761D01*
X131564285Y-96972380D01*
X131469047Y-96972380D01*
X131326190Y-96924761D01*
X131230952Y-96829523D01*
X131183333Y-96734285D01*
X131135714Y-96543809D01*
X131135714Y-96400952D01*
X131183333Y-96210476D01*
X131230952Y-96115238D01*
X131326190Y-96020000D01*
X131469047Y-95972380D01*
X131564285Y-95972380D01*
X131707142Y-96020000D01*
X131754761Y-96067619D01*
X132326190Y-96972380D02*
X132230952Y-96924761D01*
X132183333Y-96877142D01*
X132135714Y-96781904D01*
X132135714Y-96496190D01*
X132183333Y-96400952D01*
X132230952Y-96353333D01*
X132326190Y-96305714D01*
X132469047Y-96305714D01*
X132564285Y-96353333D01*
X132611904Y-96400952D01*
X132659523Y-96496190D01*
X132659523Y-96781904D01*
X132611904Y-96877142D01*
X132564285Y-96924761D01*
X132469047Y-96972380D01*
X132326190Y-96972380D01*
X133088095Y-96972380D02*
X133088095Y-96305714D01*
X133088095Y-96400952D02*
X133135714Y-96353333D01*
X133230952Y-96305714D01*
X133373809Y-96305714D01*
X133469047Y-96353333D01*
X133516666Y-96448571D01*
X133516666Y-96972380D01*
X133516666Y-96448571D02*
X133564285Y-96353333D01*
X133659523Y-96305714D01*
X133802380Y-96305714D01*
X133897619Y-96353333D01*
X133945238Y-96448571D01*
X133945238Y-96972380D01*
X134421428Y-96972380D02*
X134421428Y-95972380D01*
X134421428Y-96353333D02*
X134516666Y-96305714D01*
X134707142Y-96305714D01*
X134802380Y-96353333D01*
X134850000Y-96400952D01*
X134897619Y-96496190D01*
X134897619Y-96781904D01*
X134850000Y-96877142D01*
X134802380Y-96924761D01*
X134707142Y-96972380D01*
X134516666Y-96972380D01*
X134421428Y-96924761D01*
X135326190Y-96972380D02*
X135326190Y-96305714D01*
X135326190Y-95972380D02*
X135278571Y-96020000D01*
X135326190Y-96067619D01*
X135373809Y-96020000D01*
X135326190Y-95972380D01*
X135326190Y-96067619D01*
X135802380Y-96305714D02*
X135802380Y-96972380D01*
X135802380Y-96400952D02*
X135850000Y-96353333D01*
X135945238Y-96305714D01*
X136088095Y-96305714D01*
X136183333Y-96353333D01*
X136230952Y-96448571D01*
X136230952Y-96972380D01*
X137088095Y-96924761D02*
X136992857Y-96972380D01*
X136802380Y-96972380D01*
X136707142Y-96924761D01*
X136659523Y-96829523D01*
X136659523Y-96448571D01*
X136707142Y-96353333D01*
X136802380Y-96305714D01*
X136992857Y-96305714D01*
X137088095Y-96353333D01*
X137135714Y-96448571D01*
X137135714Y-96543809D01*
X136659523Y-96639047D01*
X137992857Y-96972380D02*
X137992857Y-95972380D01*
X137992857Y-96924761D02*
X137897619Y-96972380D01*
X137707142Y-96972380D01*
X137611904Y-96924761D01*
X137564285Y-96877142D01*
X137516666Y-96781904D01*
X137516666Y-96496190D01*
X137564285Y-96400952D01*
X137611904Y-96353333D01*
X137707142Y-96305714D01*
X137897619Y-96305714D01*
X137992857Y-96353333D01*
D11*
X156814000Y-142298000D02*
X156847333Y-142231333D01*
X156847333Y-142131333D01*
X156814000Y-142031333D01*
X156747333Y-141964666D01*
X156680666Y-141931333D01*
X156547333Y-141898000D01*
X156447333Y-141898000D01*
X156314000Y-141931333D01*
X156247333Y-141964666D01*
X156180666Y-142031333D01*
X156147333Y-142131333D01*
X156147333Y-142198000D01*
X156180666Y-142298000D01*
X156214000Y-142331333D01*
X156447333Y-142331333D01*
X156447333Y-142198000D01*
X156614000Y-142631333D02*
X156147333Y-142631333D01*
X156547333Y-142631333D02*
X156580666Y-142664666D01*
X156614000Y-142731333D01*
X156614000Y-142831333D01*
X156580666Y-142898000D01*
X156514000Y-142931333D01*
X156147333Y-142931333D01*
X156147333Y-143564666D02*
X156847333Y-143564666D01*
X156180666Y-143564666D02*
X156147333Y-143498000D01*
X156147333Y-143364666D01*
X156180666Y-143298000D01*
X156214000Y-143264666D01*
X156280666Y-143231333D01*
X156480666Y-143231333D01*
X156547333Y-143264666D01*
X156580666Y-143298000D01*
X156614000Y-143364666D01*
X156614000Y-143498000D01*
X156580666Y-143564666D01*
X173560666Y-165670666D02*
X173560666Y-164970666D01*
X173860666Y-165037333D02*
X173894000Y-165004000D01*
X173960666Y-164970666D01*
X174127333Y-164970666D01*
X174194000Y-165004000D01*
X174227333Y-165037333D01*
X174260666Y-165104000D01*
X174260666Y-165170666D01*
X174227333Y-165270666D01*
X173827333Y-165670666D01*
X174260666Y-165670666D01*
X174960666Y-165604000D02*
X174927333Y-165637333D01*
X174827333Y-165670666D01*
X174760666Y-165670666D01*
X174660666Y-165637333D01*
X174594000Y-165570666D01*
X174560666Y-165504000D01*
X174527333Y-165370666D01*
X174527333Y-165270666D01*
X174560666Y-165137333D01*
X174594000Y-165070666D01*
X174660666Y-165004000D01*
X174760666Y-164970666D01*
X174827333Y-164970666D01*
X174927333Y-165004000D01*
X174960666Y-165037333D01*
D10*
X88361190Y-132949761D02*
X88456428Y-132997380D01*
X88646904Y-132997380D01*
X88742142Y-132949761D01*
X88789761Y-132854523D01*
X88789761Y-132806904D01*
X88742142Y-132711666D01*
X88646904Y-132664047D01*
X88504047Y-132664047D01*
X88408809Y-132616428D01*
X88361190Y-132521190D01*
X88361190Y-132473571D01*
X88408809Y-132378333D01*
X88504047Y-132330714D01*
X88646904Y-132330714D01*
X88742142Y-132378333D01*
X89361190Y-132997380D02*
X89265952Y-132949761D01*
X89218333Y-132902142D01*
X89170714Y-132806904D01*
X89170714Y-132521190D01*
X89218333Y-132425952D01*
X89265952Y-132378333D01*
X89361190Y-132330714D01*
X89504047Y-132330714D01*
X89599285Y-132378333D01*
X89646904Y-132425952D01*
X89694523Y-132521190D01*
X89694523Y-132806904D01*
X89646904Y-132902142D01*
X89599285Y-132949761D01*
X89504047Y-132997380D01*
X89361190Y-132997380D01*
X90551666Y-132949761D02*
X90456428Y-132997380D01*
X90265952Y-132997380D01*
X90170714Y-132949761D01*
X90123095Y-132902142D01*
X90075476Y-132806904D01*
X90075476Y-132521190D01*
X90123095Y-132425952D01*
X90170714Y-132378333D01*
X90265952Y-132330714D01*
X90456428Y-132330714D01*
X90551666Y-132378333D01*
X90980238Y-132997380D02*
X90980238Y-131997380D01*
X91075476Y-132616428D02*
X91361190Y-132997380D01*
X91361190Y-132330714D02*
X90980238Y-132711666D01*
X92170714Y-132949761D02*
X92075476Y-132997380D01*
X91885000Y-132997380D01*
X91789761Y-132949761D01*
X91742142Y-132854523D01*
X91742142Y-132473571D01*
X91789761Y-132378333D01*
X91885000Y-132330714D01*
X92075476Y-132330714D01*
X92170714Y-132378333D01*
X92218333Y-132473571D01*
X92218333Y-132568809D01*
X91742142Y-132664047D01*
X92504047Y-132330714D02*
X92885000Y-132330714D01*
X92646904Y-131997380D02*
X92646904Y-132854523D01*
X92694523Y-132949761D01*
X92789761Y-132997380D01*
X92885000Y-132997380D01*
X93837380Y-132330714D02*
X94218333Y-132330714D01*
X93980238Y-132997380D02*
X93980238Y-132140238D01*
X94027857Y-132045000D01*
X94123095Y-131997380D01*
X94218333Y-131997380D01*
X94694523Y-132997380D02*
X94599285Y-132949761D01*
X94551666Y-132902142D01*
X94504047Y-132806904D01*
X94504047Y-132521190D01*
X94551666Y-132425952D01*
X94599285Y-132378333D01*
X94694523Y-132330714D01*
X94837380Y-132330714D01*
X94932619Y-132378333D01*
X94980238Y-132425952D01*
X95027857Y-132521190D01*
X95027857Y-132806904D01*
X94980238Y-132902142D01*
X94932619Y-132949761D01*
X94837380Y-132997380D01*
X94694523Y-132997380D01*
X95456428Y-132997380D02*
X95456428Y-132330714D01*
X95456428Y-132521190D02*
X95504047Y-132425952D01*
X95551666Y-132378333D01*
X95646904Y-132330714D01*
X95742142Y-132330714D01*
X96789761Y-132949761D02*
X96885000Y-132997380D01*
X97075476Y-132997380D01*
X97170714Y-132949761D01*
X97218333Y-132854523D01*
X97218333Y-132806904D01*
X97170714Y-132711666D01*
X97075476Y-132664047D01*
X96932619Y-132664047D01*
X96837380Y-132616428D01*
X96789761Y-132521190D01*
X96789761Y-132473571D01*
X96837380Y-132378333D01*
X96932619Y-132330714D01*
X97075476Y-132330714D01*
X97170714Y-132378333D01*
X97504047Y-132330714D02*
X97885000Y-132330714D01*
X97646904Y-131997380D02*
X97646904Y-132854523D01*
X97694523Y-132949761D01*
X97789761Y-132997380D01*
X97885000Y-132997380D01*
X98646904Y-132997380D02*
X98646904Y-132473571D01*
X98599285Y-132378333D01*
X98504047Y-132330714D01*
X98313571Y-132330714D01*
X98218333Y-132378333D01*
X98646904Y-132949761D02*
X98551666Y-132997380D01*
X98313571Y-132997380D01*
X98218333Y-132949761D01*
X98170714Y-132854523D01*
X98170714Y-132759285D01*
X98218333Y-132664047D01*
X98313571Y-132616428D01*
X98551666Y-132616428D01*
X98646904Y-132568809D01*
X99551666Y-132949761D02*
X99456428Y-132997380D01*
X99265952Y-132997380D01*
X99170714Y-132949761D01*
X99123095Y-132902142D01*
X99075476Y-132806904D01*
X99075476Y-132521190D01*
X99123095Y-132425952D01*
X99170714Y-132378333D01*
X99265952Y-132330714D01*
X99456428Y-132330714D01*
X99551666Y-132378333D01*
X99980238Y-132997380D02*
X99980238Y-131997380D01*
X100075476Y-132616428D02*
X100361190Y-132997380D01*
X100361190Y-132330714D02*
X99980238Y-132711666D01*
X100789761Y-132997380D02*
X100789761Y-132330714D01*
X100789761Y-131997380D02*
X100742142Y-132045000D01*
X100789761Y-132092619D01*
X100837380Y-132045000D01*
X100789761Y-131997380D01*
X100789761Y-132092619D01*
X101265952Y-132330714D02*
X101265952Y-132997380D01*
X101265952Y-132425952D02*
X101313571Y-132378333D01*
X101408809Y-132330714D01*
X101551666Y-132330714D01*
X101646904Y-132378333D01*
X101694523Y-132473571D01*
X101694523Y-132997380D01*
X102599285Y-132330714D02*
X102599285Y-133140238D01*
X102551666Y-133235476D01*
X102504047Y-133283095D01*
X102408809Y-133330714D01*
X102265952Y-133330714D01*
X102170714Y-133283095D01*
X102599285Y-132949761D02*
X102504047Y-132997380D01*
X102313571Y-132997380D01*
X102218333Y-132949761D01*
X102170714Y-132902142D01*
X102123095Y-132806904D01*
X102123095Y-132521190D01*
X102170714Y-132425952D01*
X102218333Y-132378333D01*
X102313571Y-132330714D01*
X102504047Y-132330714D01*
X102599285Y-132378333D01*
X91408809Y-133940714D02*
X91408809Y-134750238D01*
X91361190Y-134845476D01*
X91313571Y-134893095D01*
X91218333Y-134940714D01*
X91075476Y-134940714D01*
X90980238Y-134893095D01*
X91408809Y-134559761D02*
X91313571Y-134607380D01*
X91123095Y-134607380D01*
X91027857Y-134559761D01*
X90980238Y-134512142D01*
X90932619Y-134416904D01*
X90932619Y-134131190D01*
X90980238Y-134035952D01*
X91027857Y-133988333D01*
X91123095Y-133940714D01*
X91313571Y-133940714D01*
X91408809Y-133988333D01*
X92027857Y-134607380D02*
X91932619Y-134559761D01*
X91885000Y-134512142D01*
X91837380Y-134416904D01*
X91837380Y-134131190D01*
X91885000Y-134035952D01*
X91932619Y-133988333D01*
X92027857Y-133940714D01*
X92170714Y-133940714D01*
X92265952Y-133988333D01*
X92313571Y-134035952D01*
X92361190Y-134131190D01*
X92361190Y-134416904D01*
X92313571Y-134512142D01*
X92265952Y-134559761D01*
X92170714Y-134607380D01*
X92027857Y-134607380D01*
X93170714Y-134559761D02*
X93075476Y-134607380D01*
X92885000Y-134607380D01*
X92789761Y-134559761D01*
X92742142Y-134464523D01*
X92742142Y-134083571D01*
X92789761Y-133988333D01*
X92885000Y-133940714D01*
X93075476Y-133940714D01*
X93170714Y-133988333D01*
X93218333Y-134083571D01*
X93218333Y-134178809D01*
X92742142Y-134274047D01*
X93599285Y-134559761D02*
X93694523Y-134607380D01*
X93885000Y-134607380D01*
X93980238Y-134559761D01*
X94027857Y-134464523D01*
X94027857Y-134416904D01*
X93980238Y-134321666D01*
X93885000Y-134274047D01*
X93742142Y-134274047D01*
X93646904Y-134226428D01*
X93599285Y-134131190D01*
X93599285Y-134083571D01*
X93646904Y-133988333D01*
X93742142Y-133940714D01*
X93885000Y-133940714D01*
X93980238Y-133988333D01*
X95361190Y-134607380D02*
X95265952Y-134559761D01*
X95218333Y-134512142D01*
X95170714Y-134416904D01*
X95170714Y-134131190D01*
X95218333Y-134035952D01*
X95265952Y-133988333D01*
X95361190Y-133940714D01*
X95504047Y-133940714D01*
X95599285Y-133988333D01*
X95646904Y-134035952D01*
X95694523Y-134131190D01*
X95694523Y-134416904D01*
X95646904Y-134512142D01*
X95599285Y-134559761D01*
X95504047Y-134607380D01*
X95361190Y-134607380D01*
X96123095Y-133940714D02*
X96123095Y-134607380D01*
X96123095Y-134035952D02*
X96170714Y-133988333D01*
X96265952Y-133940714D01*
X96408809Y-133940714D01*
X96504047Y-133988333D01*
X96551666Y-134083571D01*
X96551666Y-134607380D01*
X97789761Y-134607380D02*
X97789761Y-133607380D01*
X97789761Y-133988333D02*
X97885000Y-133940714D01*
X98075476Y-133940714D01*
X98170714Y-133988333D01*
X98218333Y-134035952D01*
X98265952Y-134131190D01*
X98265952Y-134416904D01*
X98218333Y-134512142D01*
X98170714Y-134559761D01*
X98075476Y-134607380D01*
X97885000Y-134607380D01*
X97789761Y-134559761D01*
X99123095Y-134607380D02*
X99123095Y-134083571D01*
X99075476Y-133988333D01*
X98980238Y-133940714D01*
X98789761Y-133940714D01*
X98694523Y-133988333D01*
X99123095Y-134559761D02*
X99027857Y-134607380D01*
X98789761Y-134607380D01*
X98694523Y-134559761D01*
X98646904Y-134464523D01*
X98646904Y-134369285D01*
X98694523Y-134274047D01*
X98789761Y-134226428D01*
X99027857Y-134226428D01*
X99123095Y-134178809D01*
X100027857Y-134559761D02*
X99932619Y-134607380D01*
X99742142Y-134607380D01*
X99646904Y-134559761D01*
X99599285Y-134512142D01*
X99551666Y-134416904D01*
X99551666Y-134131190D01*
X99599285Y-134035952D01*
X99646904Y-133988333D01*
X99742142Y-133940714D01*
X99932619Y-133940714D01*
X100027857Y-133988333D01*
X100456428Y-134607380D02*
X100456428Y-133607380D01*
X100551666Y-134226428D02*
X100837380Y-134607380D01*
X100837380Y-133940714D02*
X100456428Y-134321666D01*
X131492857Y-101100000D02*
X131397619Y-101052380D01*
X131254761Y-101052380D01*
X131111904Y-101100000D01*
X131016666Y-101195238D01*
X130969047Y-101290476D01*
X130921428Y-101480952D01*
X130921428Y-101623809D01*
X130969047Y-101814285D01*
X131016666Y-101909523D01*
X131111904Y-102004761D01*
X131254761Y-102052380D01*
X131350000Y-102052380D01*
X131492857Y-102004761D01*
X131540476Y-101957142D01*
X131540476Y-101623809D01*
X131350000Y-101623809D01*
X131969047Y-102052380D02*
X131969047Y-101385714D01*
X131969047Y-101576190D02*
X132016666Y-101480952D01*
X132064285Y-101433333D01*
X132159523Y-101385714D01*
X132254761Y-101385714D01*
X132730952Y-102052380D02*
X132635714Y-102004761D01*
X132588095Y-101957142D01*
X132540476Y-101861904D01*
X132540476Y-101576190D01*
X132588095Y-101480952D01*
X132635714Y-101433333D01*
X132730952Y-101385714D01*
X132873809Y-101385714D01*
X132969047Y-101433333D01*
X133016666Y-101480952D01*
X133064285Y-101576190D01*
X133064285Y-101861904D01*
X133016666Y-101957142D01*
X132969047Y-102004761D01*
X132873809Y-102052380D01*
X132730952Y-102052380D01*
X133921428Y-101385714D02*
X133921428Y-102052380D01*
X133492857Y-101385714D02*
X133492857Y-101909523D01*
X133540476Y-102004761D01*
X133635714Y-102052380D01*
X133778571Y-102052380D01*
X133873809Y-102004761D01*
X133921428Y-101957142D01*
X134397619Y-101385714D02*
X134397619Y-102052380D01*
X134397619Y-101480952D02*
X134445238Y-101433333D01*
X134540476Y-101385714D01*
X134683333Y-101385714D01*
X134778571Y-101433333D01*
X134826190Y-101528571D01*
X134826190Y-102052380D01*
X135730952Y-102052380D02*
X135730952Y-101052380D01*
X135730952Y-102004761D02*
X135635714Y-102052380D01*
X135445238Y-102052380D01*
X135350000Y-102004761D01*
X135302380Y-101957142D01*
X135254761Y-101861904D01*
X135254761Y-101576190D01*
X135302380Y-101480952D01*
X135350000Y-101433333D01*
X135445238Y-101385714D01*
X135635714Y-101385714D01*
X135730952Y-101433333D01*
D11*
X158680666Y-141898000D02*
X158647333Y-141998000D01*
X158647333Y-142164666D01*
X158680666Y-142231333D01*
X158714000Y-142264666D01*
X158780666Y-142298000D01*
X158847333Y-142298000D01*
X158914000Y-142264666D01*
X158947333Y-142231333D01*
X158980666Y-142164666D01*
X159014000Y-142031333D01*
X159047333Y-141964666D01*
X159080666Y-141931333D01*
X159147333Y-141898000D01*
X159214000Y-141898000D01*
X159280666Y-141931333D01*
X159314000Y-141964666D01*
X159347333Y-142031333D01*
X159347333Y-142198000D01*
X159314000Y-142298000D01*
X158647333Y-142598000D02*
X159347333Y-142598000D01*
X159347333Y-142764666D01*
X159314000Y-142864666D01*
X159247333Y-142931333D01*
X159180666Y-142964666D01*
X159047333Y-142998000D01*
X158947333Y-142998000D01*
X158814000Y-142964666D01*
X158747333Y-142931333D01*
X158680666Y-142864666D01*
X158647333Y-142764666D01*
X158647333Y-142598000D01*
X158847333Y-143264666D02*
X158847333Y-143598000D01*
X158647333Y-143198000D02*
X159347333Y-143431333D01*
X158647333Y-143664666D01*
D10*
X160837714Y-119784761D02*
X160980571Y-119832380D01*
X161218666Y-119832380D01*
X161313904Y-119784761D01*
X161361523Y-119737142D01*
X161409142Y-119641904D01*
X161409142Y-119546666D01*
X161361523Y-119451428D01*
X161313904Y-119403809D01*
X161218666Y-119356190D01*
X161028190Y-119308571D01*
X160932952Y-119260952D01*
X160885333Y-119213333D01*
X160837714Y-119118095D01*
X160837714Y-119022857D01*
X160885333Y-118927619D01*
X160932952Y-118880000D01*
X161028190Y-118832380D01*
X161266285Y-118832380D01*
X161409142Y-118880000D01*
X161837714Y-119832380D02*
X161837714Y-118832380D01*
X162075809Y-118832380D01*
X162218666Y-118880000D01*
X162313904Y-118975238D01*
X162361523Y-119070476D01*
X162409142Y-119260952D01*
X162409142Y-119403809D01*
X162361523Y-119594285D01*
X162313904Y-119689523D01*
X162218666Y-119784761D01*
X162075809Y-119832380D01*
X161837714Y-119832380D01*
X162790095Y-119546666D02*
X163266285Y-119546666D01*
X162694857Y-119832380D02*
X163028190Y-118832380D01*
X163361523Y-119832380D01*
X86385523Y-139644380D02*
X86385523Y-138644380D01*
X86814095Y-139644380D02*
X86814095Y-139120571D01*
X86766476Y-139025333D01*
X86671238Y-138977714D01*
X86528380Y-138977714D01*
X86433142Y-139025333D01*
X86385523Y-139072952D01*
X87147428Y-138977714D02*
X87528380Y-138977714D01*
X87290285Y-138644380D02*
X87290285Y-139501523D01*
X87337904Y-139596761D01*
X87433142Y-139644380D01*
X87528380Y-139644380D01*
X87718857Y-138977714D02*
X88099809Y-138977714D01*
X87861714Y-138644380D02*
X87861714Y-139501523D01*
X87909333Y-139596761D01*
X88004571Y-139644380D01*
X88099809Y-139644380D01*
X88433142Y-138977714D02*
X88433142Y-139977714D01*
X88433142Y-139025333D02*
X88528380Y-138977714D01*
X88718857Y-138977714D01*
X88814095Y-139025333D01*
X88861714Y-139072952D01*
X88909333Y-139168190D01*
X88909333Y-139453904D01*
X88861714Y-139549142D01*
X88814095Y-139596761D01*
X88718857Y-139644380D01*
X88528380Y-139644380D01*
X88433142Y-139596761D01*
X89290285Y-139596761D02*
X89385523Y-139644380D01*
X89576000Y-139644380D01*
X89671238Y-139596761D01*
X89718857Y-139501523D01*
X89718857Y-139453904D01*
X89671238Y-139358666D01*
X89576000Y-139311047D01*
X89433142Y-139311047D01*
X89337904Y-139263428D01*
X89290285Y-139168190D01*
X89290285Y-139120571D01*
X89337904Y-139025333D01*
X89433142Y-138977714D01*
X89576000Y-138977714D01*
X89671238Y-139025333D01*
X90147428Y-139549142D02*
X90195047Y-139596761D01*
X90147428Y-139644380D01*
X90099809Y-139596761D01*
X90147428Y-139549142D01*
X90147428Y-139644380D01*
X90147428Y-139025333D02*
X90195047Y-139072952D01*
X90147428Y-139120571D01*
X90099809Y-139072952D01*
X90147428Y-139025333D01*
X90147428Y-139120571D01*
X91337904Y-138596761D02*
X90480761Y-139882476D01*
X92385523Y-138596761D02*
X91528380Y-139882476D01*
X93147428Y-138977714D02*
X93147428Y-139787238D01*
X93099809Y-139882476D01*
X93052190Y-139930095D01*
X92956952Y-139977714D01*
X92814095Y-139977714D01*
X92718857Y-139930095D01*
X93147428Y-139596761D02*
X93052190Y-139644380D01*
X92861714Y-139644380D01*
X92766476Y-139596761D01*
X92718857Y-139549142D01*
X92671238Y-139453904D01*
X92671238Y-139168190D01*
X92718857Y-139072952D01*
X92766476Y-139025333D01*
X92861714Y-138977714D01*
X93052190Y-138977714D01*
X93147428Y-139025333D01*
X93623619Y-139644380D02*
X93623619Y-138977714D01*
X93623619Y-138644380D02*
X93576000Y-138692000D01*
X93623619Y-138739619D01*
X93671238Y-138692000D01*
X93623619Y-138644380D01*
X93623619Y-138739619D01*
X93956952Y-138977714D02*
X94337904Y-138977714D01*
X94099809Y-138644380D02*
X94099809Y-139501523D01*
X94147428Y-139596761D01*
X94242666Y-139644380D01*
X94337904Y-139644380D01*
X94671238Y-139644380D02*
X94671238Y-138644380D01*
X95099809Y-139644380D02*
X95099809Y-139120571D01*
X95052190Y-139025333D01*
X94956952Y-138977714D01*
X94814095Y-138977714D01*
X94718857Y-139025333D01*
X94671238Y-139072952D01*
X96004571Y-138977714D02*
X96004571Y-139644380D01*
X95576000Y-138977714D02*
X95576000Y-139501523D01*
X95623619Y-139596761D01*
X95718857Y-139644380D01*
X95861714Y-139644380D01*
X95956952Y-139596761D01*
X96004571Y-139549142D01*
X96480761Y-139644380D02*
X96480761Y-138644380D01*
X96480761Y-139025333D02*
X96576000Y-138977714D01*
X96766476Y-138977714D01*
X96861714Y-139025333D01*
X96909333Y-139072952D01*
X96956952Y-139168190D01*
X96956952Y-139453904D01*
X96909333Y-139549142D01*
X96861714Y-139596761D01*
X96766476Y-139644380D01*
X96576000Y-139644380D01*
X96480761Y-139596761D01*
X97385523Y-139549142D02*
X97433142Y-139596761D01*
X97385523Y-139644380D01*
X97337904Y-139596761D01*
X97385523Y-139549142D01*
X97385523Y-139644380D01*
X98290285Y-139596761D02*
X98195047Y-139644380D01*
X98004571Y-139644380D01*
X97909333Y-139596761D01*
X97861714Y-139549142D01*
X97814095Y-139453904D01*
X97814095Y-139168190D01*
X97861714Y-139072952D01*
X97909333Y-139025333D01*
X98004571Y-138977714D01*
X98195047Y-138977714D01*
X98290285Y-139025333D01*
X98861714Y-139644380D02*
X98766476Y-139596761D01*
X98718857Y-139549142D01*
X98671238Y-139453904D01*
X98671238Y-139168190D01*
X98718857Y-139072952D01*
X98766476Y-139025333D01*
X98861714Y-138977714D01*
X99004571Y-138977714D01*
X99099809Y-139025333D01*
X99147428Y-139072952D01*
X99195047Y-139168190D01*
X99195047Y-139453904D01*
X99147428Y-139549142D01*
X99099809Y-139596761D01*
X99004571Y-139644380D01*
X98861714Y-139644380D01*
X99623619Y-139644380D02*
X99623619Y-138977714D01*
X99623619Y-139072952D02*
X99671238Y-139025333D01*
X99766476Y-138977714D01*
X99909333Y-138977714D01*
X100004571Y-139025333D01*
X100052190Y-139120571D01*
X100052190Y-139644380D01*
X100052190Y-139120571D02*
X100099809Y-139025333D01*
X100195047Y-138977714D01*
X100337904Y-138977714D01*
X100433142Y-139025333D01*
X100480761Y-139120571D01*
X100480761Y-139644380D01*
X101671238Y-138596761D02*
X100814095Y-139882476D01*
X102004571Y-138977714D02*
X102004571Y-139977714D01*
X102004571Y-139025333D02*
X102099809Y-138977714D01*
X102290285Y-138977714D01*
X102385523Y-139025333D01*
X102433142Y-139072952D01*
X102480761Y-139168190D01*
X102480761Y-139453904D01*
X102433142Y-139549142D01*
X102385523Y-139596761D01*
X102290285Y-139644380D01*
X102099809Y-139644380D01*
X102004571Y-139596761D01*
X103337904Y-139644380D02*
X103337904Y-139120571D01*
X103290285Y-139025333D01*
X103195047Y-138977714D01*
X103004571Y-138977714D01*
X102909333Y-139025333D01*
X103337904Y-139596761D02*
X103242666Y-139644380D01*
X103004571Y-139644380D01*
X102909333Y-139596761D01*
X102861714Y-139501523D01*
X102861714Y-139406285D01*
X102909333Y-139311047D01*
X103004571Y-139263428D01*
X103242666Y-139263428D01*
X103337904Y-139215809D01*
X103956952Y-139644380D02*
X103861714Y-139596761D01*
X103814095Y-139501523D01*
X103814095Y-138644380D01*
X104766476Y-139644380D02*
X104766476Y-139120571D01*
X104718857Y-139025333D01*
X104623619Y-138977714D01*
X104433142Y-138977714D01*
X104337904Y-139025333D01*
X104766476Y-139596761D02*
X104671238Y-139644380D01*
X104433142Y-139644380D01*
X104337904Y-139596761D01*
X104290285Y-139501523D01*
X104290285Y-139406285D01*
X104337904Y-139311047D01*
X104433142Y-139263428D01*
X104671238Y-139263428D01*
X104766476Y-139215809D01*
X105147428Y-138977714D02*
X105671238Y-138977714D01*
X105147428Y-139644380D01*
X105671238Y-139644380D01*
X105956952Y-138977714D02*
X106480761Y-138977714D01*
X105956952Y-139644380D01*
X106480761Y-139644380D01*
X107004571Y-139644380D02*
X106909333Y-139596761D01*
X106861714Y-139549142D01*
X106814095Y-139453904D01*
X106814095Y-139168190D01*
X106861714Y-139072952D01*
X106909333Y-139025333D01*
X107004571Y-138977714D01*
X107147428Y-138977714D01*
X107242666Y-139025333D01*
X107290285Y-139072952D01*
X107337904Y-139168190D01*
X107337904Y-139453904D01*
X107290285Y-139549142D01*
X107242666Y-139596761D01*
X107147428Y-139644380D01*
X107004571Y-139644380D01*
X107909333Y-139644380D02*
X107814095Y-139596761D01*
X107766476Y-139501523D01*
X107766476Y-138644380D01*
X109004571Y-138596761D02*
X108147428Y-139882476D01*
X109766476Y-139644380D02*
X109766476Y-138644380D01*
X109766476Y-139596761D02*
X109671238Y-139644380D01*
X109480761Y-139644380D01*
X109385523Y-139596761D01*
X109337904Y-139549142D01*
X109290285Y-139453904D01*
X109290285Y-139168190D01*
X109337904Y-139072952D01*
X109385523Y-139025333D01*
X109480761Y-138977714D01*
X109671238Y-138977714D01*
X109766476Y-139025333D01*
X110623619Y-139596761D02*
X110528380Y-139644380D01*
X110337904Y-139644380D01*
X110242666Y-139596761D01*
X110195047Y-139501523D01*
X110195047Y-139120571D01*
X110242666Y-139025333D01*
X110337904Y-138977714D01*
X110528380Y-138977714D01*
X110623619Y-139025333D01*
X110671238Y-139120571D01*
X110671238Y-139215809D01*
X110195047Y-139311047D01*
X111099809Y-139644380D02*
X111099809Y-138977714D01*
X111099809Y-139072952D02*
X111147428Y-139025333D01*
X111242666Y-138977714D01*
X111385523Y-138977714D01*
X111480761Y-139025333D01*
X111528380Y-139120571D01*
X111528380Y-139644380D01*
X111528380Y-139120571D02*
X111575999Y-139025333D01*
X111671238Y-138977714D01*
X111814095Y-138977714D01*
X111909333Y-139025333D01*
X111956952Y-139120571D01*
X111956952Y-139644380D01*
X112575999Y-139644380D02*
X112480761Y-139596761D01*
X112433142Y-139549142D01*
X112385523Y-139453904D01*
X112385523Y-139168190D01*
X112433142Y-139072952D01*
X112480761Y-139025333D01*
X112575999Y-138977714D01*
X112718857Y-138977714D01*
X112814095Y-139025333D01*
X112861714Y-139072952D01*
X112909333Y-139168190D01*
X112909333Y-139453904D01*
X112861714Y-139549142D01*
X112814095Y-139596761D01*
X112718857Y-139644380D01*
X112575999Y-139644380D01*
X113337904Y-138977714D02*
X113337904Y-139644380D01*
X113337904Y-139072952D02*
X113385523Y-139025333D01*
X113480761Y-138977714D01*
X113623619Y-138977714D01*
X113718857Y-139025333D01*
X113766476Y-139120571D01*
X113766476Y-139644380D01*
X89671047Y-137866380D02*
X89671047Y-137342571D01*
X89623428Y-137247333D01*
X89528190Y-137199714D01*
X89337714Y-137199714D01*
X89242476Y-137247333D01*
X89671047Y-137818761D02*
X89575809Y-137866380D01*
X89337714Y-137866380D01*
X89242476Y-137818761D01*
X89194857Y-137723523D01*
X89194857Y-137628285D01*
X89242476Y-137533047D01*
X89337714Y-137485428D01*
X89575809Y-137485428D01*
X89671047Y-137437809D01*
X90052000Y-137199714D02*
X90290095Y-137866380D01*
X90528190Y-137199714D01*
X91052000Y-137866380D02*
X90956761Y-137818761D01*
X90909142Y-137771142D01*
X90861523Y-137675904D01*
X90861523Y-137390190D01*
X90909142Y-137294952D01*
X90956761Y-137247333D01*
X91052000Y-137199714D01*
X91194857Y-137199714D01*
X91290095Y-137247333D01*
X91337714Y-137294952D01*
X91385333Y-137390190D01*
X91385333Y-137675904D01*
X91337714Y-137771142D01*
X91290095Y-137818761D01*
X91194857Y-137866380D01*
X91052000Y-137866380D01*
X91813904Y-137866380D02*
X91813904Y-137199714D01*
X91813904Y-136866380D02*
X91766285Y-136914000D01*
X91813904Y-136961619D01*
X91861523Y-136914000D01*
X91813904Y-136866380D01*
X91813904Y-136961619D01*
X92718666Y-137866380D02*
X92718666Y-136866380D01*
X92718666Y-137818761D02*
X92623428Y-137866380D01*
X92432952Y-137866380D01*
X92337714Y-137818761D01*
X92290095Y-137771142D01*
X92242476Y-137675904D01*
X92242476Y-137390190D01*
X92290095Y-137294952D01*
X92337714Y-137247333D01*
X92432952Y-137199714D01*
X92623428Y-137199714D01*
X92718666Y-137247333D01*
X93147238Y-137818761D02*
X93242476Y-137866380D01*
X93432952Y-137866380D01*
X93528190Y-137818761D01*
X93575809Y-137723523D01*
X93575809Y-137675904D01*
X93528190Y-137580666D01*
X93432952Y-137533047D01*
X93290095Y-137533047D01*
X93194857Y-137485428D01*
X93147238Y-137390190D01*
X93147238Y-137342571D01*
X93194857Y-137247333D01*
X93290095Y-137199714D01*
X93432952Y-137199714D01*
X93528190Y-137247333D01*
X94004380Y-137199714D02*
X94004380Y-138199714D01*
X94004380Y-137247333D02*
X94099619Y-137199714D01*
X94290095Y-137199714D01*
X94385333Y-137247333D01*
X94432952Y-137294952D01*
X94480571Y-137390190D01*
X94480571Y-137675904D01*
X94432952Y-137771142D01*
X94385333Y-137818761D01*
X94290095Y-137866380D01*
X94099619Y-137866380D01*
X94004380Y-137818761D01*
X94909142Y-137866380D02*
X94909142Y-137199714D01*
X94909142Y-136866380D02*
X94861523Y-136914000D01*
X94909142Y-136961619D01*
X94956761Y-136914000D01*
X94909142Y-136866380D01*
X94909142Y-136961619D01*
X95385333Y-137866380D02*
X95385333Y-136866380D01*
X95480571Y-137485428D02*
X95766285Y-137866380D01*
X95766285Y-137199714D02*
X95385333Y-137580666D01*
X96575809Y-137818761D02*
X96480571Y-137866380D01*
X96290095Y-137866380D01*
X96194857Y-137818761D01*
X96147238Y-137723523D01*
X96147238Y-137342571D01*
X96194857Y-137247333D01*
X96290095Y-137199714D01*
X96480571Y-137199714D01*
X96575809Y-137247333D01*
X96623428Y-137342571D01*
X96623428Y-137437809D01*
X96147238Y-137533047D01*
X97004380Y-137818761D02*
X97099619Y-137866380D01*
X97290095Y-137866380D01*
X97385333Y-137818761D01*
X97432952Y-137723523D01*
X97432952Y-137675904D01*
X97385333Y-137580666D01*
X97290095Y-137533047D01*
X97147238Y-137533047D01*
X97052000Y-137485428D01*
X97004380Y-137390190D01*
X97004380Y-137342571D01*
X97052000Y-137247333D01*
X97147238Y-137199714D01*
X97290095Y-137199714D01*
X97385333Y-137247333D01*
X97861523Y-137771142D02*
X97909142Y-137818761D01*
X97861523Y-137866380D01*
X97813904Y-137818761D01*
X97861523Y-137771142D01*
X97861523Y-137866380D01*
X98337714Y-137866380D02*
X98337714Y-136866380D01*
X98337714Y-137247333D02*
X98432952Y-137199714D01*
X98623428Y-137199714D01*
X98718666Y-137247333D01*
X98766285Y-137294952D01*
X98813904Y-137390190D01*
X98813904Y-137675904D01*
X98766285Y-137771142D01*
X98718666Y-137818761D01*
X98623428Y-137866380D01*
X98432952Y-137866380D01*
X98337714Y-137818761D01*
X99385333Y-137866380D02*
X99290095Y-137818761D01*
X99242476Y-137723523D01*
X99242476Y-136866380D01*
X99909142Y-137866380D02*
X99813904Y-137818761D01*
X99766285Y-137771142D01*
X99718666Y-137675904D01*
X99718666Y-137390190D01*
X99766285Y-137294952D01*
X99813904Y-137247333D01*
X99909142Y-137199714D01*
X100052000Y-137199714D01*
X100147238Y-137247333D01*
X100194857Y-137294952D01*
X100242476Y-137390190D01*
X100242476Y-137675904D01*
X100194857Y-137771142D01*
X100147238Y-137818761D01*
X100052000Y-137866380D01*
X99909142Y-137866380D01*
X101099619Y-137199714D02*
X101099619Y-138009238D01*
X101052000Y-138104476D01*
X101004380Y-138152095D01*
X100909142Y-138199714D01*
X100766285Y-138199714D01*
X100671047Y-138152095D01*
X101099619Y-137818761D02*
X101004380Y-137866380D01*
X100813904Y-137866380D01*
X100718666Y-137818761D01*
X100671047Y-137771142D01*
X100623428Y-137675904D01*
X100623428Y-137390190D01*
X100671047Y-137294952D01*
X100718666Y-137247333D01*
X100813904Y-137199714D01*
X101004380Y-137199714D01*
X101099619Y-137247333D01*
X101528190Y-137818761D02*
X101623428Y-137866380D01*
X101813904Y-137866380D01*
X101909142Y-137818761D01*
X101956761Y-137723523D01*
X101956761Y-137675904D01*
X101909142Y-137580666D01*
X101813904Y-137533047D01*
X101671047Y-137533047D01*
X101575809Y-137485428D01*
X101528190Y-137390190D01*
X101528190Y-137342571D01*
X101575809Y-137247333D01*
X101671047Y-137199714D01*
X101813904Y-137199714D01*
X101909142Y-137247333D01*
X102385333Y-137199714D02*
X102385333Y-138199714D01*
X102385333Y-137247333D02*
X102480571Y-137199714D01*
X102671047Y-137199714D01*
X102766285Y-137247333D01*
X102813904Y-137294952D01*
X102861523Y-137390190D01*
X102861523Y-137675904D01*
X102813904Y-137771142D01*
X102766285Y-137818761D01*
X102671047Y-137866380D01*
X102480571Y-137866380D01*
X102385333Y-137818761D01*
X103432952Y-137866380D02*
X103337714Y-137818761D01*
X103290095Y-137771142D01*
X103242476Y-137675904D01*
X103242476Y-137390190D01*
X103290095Y-137294952D01*
X103337714Y-137247333D01*
X103432952Y-137199714D01*
X103575809Y-137199714D01*
X103671047Y-137247333D01*
X103718666Y-137294952D01*
X103766285Y-137390190D01*
X103766285Y-137675904D01*
X103718666Y-137771142D01*
X103671047Y-137818761D01*
X103575809Y-137866380D01*
X103432952Y-137866380D01*
X104052000Y-137199714D02*
X104432952Y-137199714D01*
X104194857Y-136866380D02*
X104194857Y-137723523D01*
X104242476Y-137818761D01*
X104337714Y-137866380D01*
X104432952Y-137866380D01*
X104766285Y-137771142D02*
X104813904Y-137818761D01*
X104766285Y-137866380D01*
X104718666Y-137818761D01*
X104766285Y-137771142D01*
X104766285Y-137866380D01*
X105671047Y-137818761D02*
X105575809Y-137866380D01*
X105385333Y-137866380D01*
X105290095Y-137818761D01*
X105242476Y-137771142D01*
X105194857Y-137675904D01*
X105194857Y-137390190D01*
X105242476Y-137294952D01*
X105290095Y-137247333D01*
X105385333Y-137199714D01*
X105575809Y-137199714D01*
X105671047Y-137247333D01*
X106242476Y-137866380D02*
X106147238Y-137818761D01*
X106099619Y-137771142D01*
X106052000Y-137675904D01*
X106052000Y-137390190D01*
X106099619Y-137294952D01*
X106147238Y-137247333D01*
X106242476Y-137199714D01*
X106385333Y-137199714D01*
X106480571Y-137247333D01*
X106528190Y-137294952D01*
X106575809Y-137390190D01*
X106575809Y-137675904D01*
X106528190Y-137771142D01*
X106480571Y-137818761D01*
X106385333Y-137866380D01*
X106242476Y-137866380D01*
X107004380Y-137866380D02*
X107004380Y-137199714D01*
X107004380Y-137294952D02*
X107052000Y-137247333D01*
X107147238Y-137199714D01*
X107290095Y-137199714D01*
X107385333Y-137247333D01*
X107432952Y-137342571D01*
X107432952Y-137866380D01*
X107432952Y-137342571D02*
X107480571Y-137247333D01*
X107575809Y-137199714D01*
X107718666Y-137199714D01*
X107813904Y-137247333D01*
X107861523Y-137342571D01*
X107861523Y-137866380D01*
X146439904Y-167044666D02*
X146916095Y-167044666D01*
X146344666Y-167330380D02*
X146678000Y-166330380D01*
X147011333Y-167330380D01*
X147487523Y-167330380D02*
X147392285Y-167282761D01*
X147344666Y-167187523D01*
X147344666Y-166330380D01*
X148011333Y-167330380D02*
X147916095Y-167282761D01*
X147868476Y-167187523D01*
X147868476Y-166330380D01*
X149582761Y-167282761D02*
X149487523Y-167330380D01*
X149297047Y-167330380D01*
X149201809Y-167282761D01*
X149154190Y-167235142D01*
X149106571Y-167139904D01*
X149106571Y-166854190D01*
X149154190Y-166758952D01*
X149201809Y-166711333D01*
X149297047Y-166663714D01*
X149487523Y-166663714D01*
X149582761Y-166711333D01*
X150439904Y-167330380D02*
X150439904Y-166806571D01*
X150392285Y-166711333D01*
X150297047Y-166663714D01*
X150106571Y-166663714D01*
X150011333Y-166711333D01*
X150439904Y-167282761D02*
X150344666Y-167330380D01*
X150106571Y-167330380D01*
X150011333Y-167282761D01*
X149963714Y-167187523D01*
X149963714Y-167092285D01*
X150011333Y-166997047D01*
X150106571Y-166949428D01*
X150344666Y-166949428D01*
X150439904Y-166901809D01*
X150916095Y-166663714D02*
X150916095Y-167663714D01*
X150916095Y-166711333D02*
X151011333Y-166663714D01*
X151201809Y-166663714D01*
X151297047Y-166711333D01*
X151344666Y-166758952D01*
X151392285Y-166854190D01*
X151392285Y-167139904D01*
X151344666Y-167235142D01*
X151297047Y-167282761D01*
X151201809Y-167330380D01*
X151011333Y-167330380D01*
X150916095Y-167282761D01*
X152249428Y-167330380D02*
X152249428Y-166806571D01*
X152201809Y-166711333D01*
X152106571Y-166663714D01*
X151916095Y-166663714D01*
X151820857Y-166711333D01*
X152249428Y-167282761D02*
X152154190Y-167330380D01*
X151916095Y-167330380D01*
X151820857Y-167282761D01*
X151773238Y-167187523D01*
X151773238Y-167092285D01*
X151820857Y-166997047D01*
X151916095Y-166949428D01*
X152154190Y-166949428D01*
X152249428Y-166901809D01*
X153154190Y-167282761D02*
X153058952Y-167330380D01*
X152868476Y-167330380D01*
X152773238Y-167282761D01*
X152725619Y-167235142D01*
X152678000Y-167139904D01*
X152678000Y-166854190D01*
X152725619Y-166758952D01*
X152773238Y-166711333D01*
X152868476Y-166663714D01*
X153058952Y-166663714D01*
X153154190Y-166711333D01*
X153582761Y-167330380D02*
X153582761Y-166663714D01*
X153582761Y-166330380D02*
X153535142Y-166378000D01*
X153582761Y-166425619D01*
X153630380Y-166378000D01*
X153582761Y-166330380D01*
X153582761Y-166425619D01*
X153916095Y-166663714D02*
X154297047Y-166663714D01*
X154058952Y-166330380D02*
X154058952Y-167187523D01*
X154106571Y-167282761D01*
X154201809Y-167330380D01*
X154297047Y-167330380D01*
X154773238Y-167330380D02*
X154678000Y-167282761D01*
X154630380Y-167235142D01*
X154582761Y-167139904D01*
X154582761Y-166854190D01*
X154630380Y-166758952D01*
X154678000Y-166711333D01*
X154773238Y-166663714D01*
X154916095Y-166663714D01*
X155011333Y-166711333D01*
X155058952Y-166758952D01*
X155106571Y-166854190D01*
X155106571Y-167139904D01*
X155058952Y-167235142D01*
X155011333Y-167282761D01*
X154916095Y-167330380D01*
X154773238Y-167330380D01*
X155535142Y-167330380D02*
X155535142Y-166663714D01*
X155535142Y-166854190D02*
X155582761Y-166758952D01*
X155630380Y-166711333D01*
X155725619Y-166663714D01*
X155820857Y-166663714D01*
X156106571Y-167282761D02*
X156201809Y-167330380D01*
X156392285Y-167330380D01*
X156487523Y-167282761D01*
X156535142Y-167187523D01*
X156535142Y-167139904D01*
X156487523Y-167044666D01*
X156392285Y-166997047D01*
X156249428Y-166997047D01*
X156154190Y-166949428D01*
X156106571Y-166854190D01*
X156106571Y-166806571D01*
X156154190Y-166711333D01*
X156249428Y-166663714D01*
X156392285Y-166663714D01*
X156487523Y-166711333D01*
X158249428Y-167330380D02*
X157678000Y-167330380D01*
X157963714Y-167330380D02*
X157963714Y-166330380D01*
X157868476Y-166473238D01*
X157773238Y-166568476D01*
X157678000Y-166616095D01*
X158868476Y-166330380D02*
X158963714Y-166330380D01*
X159058952Y-166378000D01*
X159106571Y-166425619D01*
X159154190Y-166520857D01*
X159201809Y-166711333D01*
X159201809Y-166949428D01*
X159154190Y-167139904D01*
X159106571Y-167235142D01*
X159058952Y-167282761D01*
X158963714Y-167330380D01*
X158868476Y-167330380D01*
X158773238Y-167282761D01*
X158725619Y-167235142D01*
X158678000Y-167139904D01*
X158630380Y-166949428D01*
X158630380Y-166711333D01*
X158678000Y-166520857D01*
X158725619Y-166425619D01*
X158773238Y-166378000D01*
X158868476Y-166330380D01*
X159820857Y-166330380D02*
X159916095Y-166330380D01*
X160011333Y-166378000D01*
X160058952Y-166425619D01*
X160106571Y-166520857D01*
X160154190Y-166711333D01*
X160154190Y-166949428D01*
X160106571Y-167139904D01*
X160058952Y-167235142D01*
X160011333Y-167282761D01*
X159916095Y-167330380D01*
X159820857Y-167330380D01*
X159725619Y-167282761D01*
X159678000Y-167235142D01*
X159630380Y-167139904D01*
X159582761Y-166949428D01*
X159582761Y-166711333D01*
X159630380Y-166520857D01*
X159678000Y-166425619D01*
X159725619Y-166378000D01*
X159820857Y-166330380D01*
X160582761Y-166663714D02*
X160582761Y-167330380D01*
X160582761Y-166758952D02*
X160630380Y-166711333D01*
X160725619Y-166663714D01*
X160868476Y-166663714D01*
X160963714Y-166711333D01*
X161011333Y-166806571D01*
X161011333Y-167330380D01*
X161820857Y-166806571D02*
X161487523Y-166806571D01*
X161487523Y-167330380D02*
X161487523Y-166330380D01*
X161963714Y-166330380D01*
X98607619Y-105704952D02*
X99083809Y-105371619D01*
X98607619Y-105133523D02*
X99607619Y-105133523D01*
X99607619Y-105514476D01*
X99560000Y-105609714D01*
X99512380Y-105657333D01*
X99417142Y-105704952D01*
X99274285Y-105704952D01*
X99179047Y-105657333D01*
X99131428Y-105609714D01*
X99083809Y-105514476D01*
X99083809Y-105133523D01*
X98607619Y-106133523D02*
X99274285Y-106133523D01*
X99607619Y-106133523D02*
X99560000Y-106085904D01*
X99512380Y-106133523D01*
X99560000Y-106181142D01*
X99607619Y-106133523D01*
X99512380Y-106133523D01*
X98607619Y-106609714D02*
X99607619Y-106609714D01*
X99226666Y-106609714D02*
X99274285Y-106704952D01*
X99274285Y-106895428D01*
X99226666Y-106990666D01*
X99179047Y-107038285D01*
X99083809Y-107085904D01*
X98798095Y-107085904D01*
X98702857Y-107038285D01*
X98655238Y-106990666D01*
X98607619Y-106895428D01*
X98607619Y-106704952D01*
X98655238Y-106609714D01*
X98607619Y-107514476D02*
X99607619Y-107514476D01*
X99226666Y-107514476D02*
X99274285Y-107609714D01*
X99274285Y-107800190D01*
X99226666Y-107895428D01*
X99179047Y-107943047D01*
X99083809Y-107990666D01*
X98798095Y-107990666D01*
X98702857Y-107943047D01*
X98655238Y-107895428D01*
X98607619Y-107800190D01*
X98607619Y-107609714D01*
X98655238Y-107514476D01*
X98607619Y-108562095D02*
X98655238Y-108466857D01*
X98702857Y-108419238D01*
X98798095Y-108371619D01*
X99083809Y-108371619D01*
X99179047Y-108419238D01*
X99226666Y-108466857D01*
X99274285Y-108562095D01*
X99274285Y-108704952D01*
X99226666Y-108800190D01*
X99179047Y-108847809D01*
X99083809Y-108895428D01*
X98798095Y-108895428D01*
X98702857Y-108847809D01*
X98655238Y-108800190D01*
X98607619Y-108704952D01*
X98607619Y-108562095D01*
X99274285Y-109324000D02*
X98607619Y-109324000D01*
X99179047Y-109324000D02*
X99226666Y-109371619D01*
X99274285Y-109466857D01*
X99274285Y-109609714D01*
X99226666Y-109704952D01*
X99131428Y-109752571D01*
X98607619Y-109752571D01*
X99274285Y-110847809D02*
X99274285Y-111228761D01*
X99607619Y-110990666D02*
X98750476Y-110990666D01*
X98655238Y-111038285D01*
X98607619Y-111133523D01*
X98607619Y-111228761D01*
X98607619Y-111704952D02*
X98655238Y-111609714D01*
X98702857Y-111562095D01*
X98798095Y-111514476D01*
X99083809Y-111514476D01*
X99179047Y-111562095D01*
X99226666Y-111609714D01*
X99274285Y-111704952D01*
X99274285Y-111847809D01*
X99226666Y-111943047D01*
X99179047Y-111990666D01*
X99083809Y-112038285D01*
X98798095Y-112038285D01*
X98702857Y-111990666D01*
X98655238Y-111943047D01*
X98607619Y-111847809D01*
X98607619Y-111704952D01*
X98607619Y-113228761D02*
X99607619Y-113228761D01*
X99607619Y-113466857D01*
X99560000Y-113609714D01*
X99464761Y-113704952D01*
X99369523Y-113752571D01*
X99179047Y-113800190D01*
X99036190Y-113800190D01*
X98845714Y-113752571D01*
X98750476Y-113704952D01*
X98655238Y-113609714D01*
X98607619Y-113466857D01*
X98607619Y-113228761D01*
X98607619Y-114228761D02*
X99607619Y-114228761D01*
X98607619Y-114704952D02*
X99607619Y-114704952D01*
X99607619Y-115085904D01*
X99560000Y-115181142D01*
X99512380Y-115228761D01*
X99417142Y-115276380D01*
X99274285Y-115276380D01*
X99179047Y-115228761D01*
X99131428Y-115181142D01*
X99083809Y-115085904D01*
X99083809Y-114704952D01*
X98655238Y-116419238D02*
X98607619Y-116514476D01*
X98607619Y-116704952D01*
X98655238Y-116800190D01*
X98750476Y-116847809D01*
X98798095Y-116847809D01*
X98893333Y-116800190D01*
X98940952Y-116704952D01*
X98940952Y-116562095D01*
X98988571Y-116466857D01*
X99083809Y-116419238D01*
X99131428Y-116419238D01*
X99226666Y-116466857D01*
X99274285Y-116562095D01*
X99274285Y-116704952D01*
X99226666Y-116800190D01*
X98607619Y-117419238D02*
X98655238Y-117324000D01*
X98702857Y-117276380D01*
X98798095Y-117228761D01*
X99083809Y-117228761D01*
X99179047Y-117276380D01*
X99226666Y-117324000D01*
X99274285Y-117419238D01*
X99274285Y-117562095D01*
X99226666Y-117657333D01*
X99179047Y-117704952D01*
X99083809Y-117752571D01*
X98798095Y-117752571D01*
X98702857Y-117704952D01*
X98655238Y-117657333D01*
X98607619Y-117562095D01*
X98607619Y-117419238D01*
X98655238Y-118609714D02*
X98607619Y-118514476D01*
X98607619Y-118324000D01*
X98655238Y-118228761D01*
X98702857Y-118181142D01*
X98798095Y-118133523D01*
X99083809Y-118133523D01*
X99179047Y-118181142D01*
X99226666Y-118228761D01*
X99274285Y-118324000D01*
X99274285Y-118514476D01*
X99226666Y-118609714D01*
X98607619Y-119038285D02*
X99607619Y-119038285D01*
X98988571Y-119133523D02*
X98607619Y-119419238D01*
X99274285Y-119419238D02*
X98893333Y-119038285D01*
X98655238Y-120228761D02*
X98607619Y-120133523D01*
X98607619Y-119943047D01*
X98655238Y-119847809D01*
X98750476Y-119800190D01*
X99131428Y-119800190D01*
X99226666Y-119847809D01*
X99274285Y-119943047D01*
X99274285Y-120133523D01*
X99226666Y-120228761D01*
X99131428Y-120276380D01*
X99036190Y-120276380D01*
X98940952Y-119800190D01*
X99274285Y-120562095D02*
X99274285Y-120943047D01*
X99607619Y-120704952D02*
X98750476Y-120704952D01*
X98655238Y-120752571D01*
X98607619Y-120847809D01*
X98607619Y-120943047D01*
X98607619Y-122181142D02*
X98655238Y-122085904D01*
X98702857Y-122038285D01*
X98798095Y-121990666D01*
X99083809Y-121990666D01*
X99179047Y-122038285D01*
X99226666Y-122085904D01*
X99274285Y-122181142D01*
X99274285Y-122324000D01*
X99226666Y-122419238D01*
X99179047Y-122466857D01*
X99083809Y-122514476D01*
X98798095Y-122514476D01*
X98702857Y-122466857D01*
X98655238Y-122419238D01*
X98607619Y-122324000D01*
X98607619Y-122181142D01*
X99274285Y-122943047D02*
X98607619Y-122943047D01*
X99179047Y-122943047D02*
X99226666Y-122990666D01*
X99274285Y-123085904D01*
X99274285Y-123228761D01*
X99226666Y-123324000D01*
X99131428Y-123371619D01*
X98607619Y-123371619D01*
X99274285Y-124466857D02*
X99274285Y-124847809D01*
X99607619Y-124609714D02*
X98750476Y-124609714D01*
X98655238Y-124657333D01*
X98607619Y-124752571D01*
X98607619Y-124847809D01*
X98607619Y-125323999D02*
X98655238Y-125228761D01*
X98702857Y-125181142D01*
X98798095Y-125133523D01*
X99083809Y-125133523D01*
X99179047Y-125181142D01*
X99226666Y-125228761D01*
X99274285Y-125323999D01*
X99274285Y-125466857D01*
X99226666Y-125562095D01*
X99179047Y-125609714D01*
X99083809Y-125657333D01*
X98798095Y-125657333D01*
X98702857Y-125609714D01*
X98655238Y-125562095D01*
X98607619Y-125466857D01*
X98607619Y-125323999D01*
X99274285Y-126085904D02*
X98274285Y-126085904D01*
X99226666Y-126085904D02*
X99274285Y-126181142D01*
X99274285Y-126371619D01*
X99226666Y-126466857D01*
X99179047Y-126514476D01*
X99083809Y-126562095D01*
X98798095Y-126562095D01*
X98702857Y-126514476D01*
X98655238Y-126466857D01*
X98607619Y-126371619D01*
X98607619Y-126181142D01*
X98655238Y-126085904D01*
D11*
X161227333Y-141310666D02*
X161927333Y-141310666D01*
X161927333Y-141477333D01*
X161894000Y-141577333D01*
X161827333Y-141644000D01*
X161760666Y-141677333D01*
X161627333Y-141710666D01*
X161527333Y-141710666D01*
X161394000Y-141677333D01*
X161327333Y-141644000D01*
X161260666Y-141577333D01*
X161227333Y-141477333D01*
X161227333Y-141310666D01*
X161927333Y-142144000D02*
X161927333Y-142277333D01*
X161894000Y-142344000D01*
X161827333Y-142410666D01*
X161694000Y-142444000D01*
X161460666Y-142444000D01*
X161327333Y-142410666D01*
X161260666Y-142344000D01*
X161227333Y-142277333D01*
X161227333Y-142144000D01*
X161260666Y-142077333D01*
X161327333Y-142010666D01*
X161460666Y-141977333D01*
X161694000Y-141977333D01*
X161827333Y-142010666D01*
X161894000Y-142077333D01*
X161927333Y-142144000D01*
X161927333Y-142744000D02*
X161360666Y-142744000D01*
X161294000Y-142777333D01*
X161260666Y-142810666D01*
X161227333Y-142877333D01*
X161227333Y-143010666D01*
X161260666Y-143077333D01*
X161294000Y-143110666D01*
X161360666Y-143144000D01*
X161927333Y-143144000D01*
X161927333Y-143377333D02*
X161927333Y-143777333D01*
X161227333Y-143577333D02*
X161927333Y-143577333D01*
D10*
X92924666Y-95718380D02*
X92448476Y-95718380D01*
X92400857Y-96194571D01*
X92448476Y-96146952D01*
X92543714Y-96099333D01*
X92781809Y-96099333D01*
X92877047Y-96146952D01*
X92924666Y-96194571D01*
X92972285Y-96289809D01*
X92972285Y-96527904D01*
X92924666Y-96623142D01*
X92877047Y-96670761D01*
X92781809Y-96718380D01*
X92543714Y-96718380D01*
X92448476Y-96670761D01*
X92400857Y-96623142D01*
X93305619Y-96051714D02*
X93543714Y-96718380D01*
X93781809Y-96051714D01*
X94781809Y-95718380D02*
X95353238Y-95718380D01*
X95067523Y-96718380D02*
X95067523Y-95718380D01*
X96115142Y-96718380D02*
X96115142Y-96194571D01*
X96067523Y-96099333D01*
X95972285Y-96051714D01*
X95781809Y-96051714D01*
X95686571Y-96099333D01*
X96115142Y-96670761D02*
X96019904Y-96718380D01*
X95781809Y-96718380D01*
X95686571Y-96670761D01*
X95638952Y-96575523D01*
X95638952Y-96480285D01*
X95686571Y-96385047D01*
X95781809Y-96337428D01*
X96019904Y-96337428D01*
X96115142Y-96289809D01*
X96591333Y-96718380D02*
X96591333Y-96051714D01*
X96591333Y-96242190D02*
X96638952Y-96146952D01*
X96686571Y-96099333D01*
X96781809Y-96051714D01*
X96877047Y-96051714D01*
X97638952Y-96051714D02*
X97638952Y-96861238D01*
X97591333Y-96956476D01*
X97543714Y-97004095D01*
X97448476Y-97051714D01*
X97305619Y-97051714D01*
X97210380Y-97004095D01*
X97638952Y-96670761D02*
X97543714Y-96718380D01*
X97353238Y-96718380D01*
X97258000Y-96670761D01*
X97210380Y-96623142D01*
X97162761Y-96527904D01*
X97162761Y-96242190D01*
X97210380Y-96146952D01*
X97258000Y-96099333D01*
X97353238Y-96051714D01*
X97543714Y-96051714D01*
X97638952Y-96099333D01*
X98496095Y-96670761D02*
X98400857Y-96718380D01*
X98210380Y-96718380D01*
X98115142Y-96670761D01*
X98067523Y-96575523D01*
X98067523Y-96194571D01*
X98115142Y-96099333D01*
X98210380Y-96051714D01*
X98400857Y-96051714D01*
X98496095Y-96099333D01*
X98543714Y-96194571D01*
X98543714Y-96289809D01*
X98067523Y-96385047D01*
X98829428Y-96051714D02*
X99210380Y-96051714D01*
X98972285Y-95718380D02*
X98972285Y-96575523D01*
X99019904Y-96670761D01*
X99115142Y-96718380D01*
X99210380Y-96718380D01*
X160861523Y-122324761D02*
X161004380Y-122372380D01*
X161242476Y-122372380D01*
X161337714Y-122324761D01*
X161385333Y-122277142D01*
X161432952Y-122181904D01*
X161432952Y-122086666D01*
X161385333Y-121991428D01*
X161337714Y-121943809D01*
X161242476Y-121896190D01*
X161052000Y-121848571D01*
X160956761Y-121800952D01*
X160909142Y-121753333D01*
X160861523Y-121658095D01*
X160861523Y-121562857D01*
X160909142Y-121467619D01*
X160956761Y-121420000D01*
X161052000Y-121372380D01*
X161290095Y-121372380D01*
X161432952Y-121420000D01*
X162432952Y-122277142D02*
X162385333Y-122324761D01*
X162242476Y-122372380D01*
X162147238Y-122372380D01*
X162004380Y-122324761D01*
X161909142Y-122229523D01*
X161861523Y-122134285D01*
X161813904Y-121943809D01*
X161813904Y-121800952D01*
X161861523Y-121610476D01*
X161909142Y-121515238D01*
X162004380Y-121420000D01*
X162147238Y-121372380D01*
X162242476Y-121372380D01*
X162385333Y-121420000D01*
X162432952Y-121467619D01*
X163337714Y-122372380D02*
X162861523Y-122372380D01*
X162861523Y-121372380D01*
D11*
X165852000Y-165670666D02*
X165852000Y-164970666D01*
X166118666Y-164970666D01*
X166185333Y-165004000D01*
X166218666Y-165037333D01*
X166252000Y-165104000D01*
X166252000Y-165204000D01*
X166218666Y-165270666D01*
X166185333Y-165304000D01*
X166118666Y-165337333D01*
X165852000Y-165337333D01*
X166652000Y-165670666D02*
X166585333Y-165637333D01*
X166552000Y-165570666D01*
X166552000Y-164970666D01*
X167218666Y-165670666D02*
X167218666Y-165304000D01*
X167185333Y-165237333D01*
X167118666Y-165204000D01*
X166985333Y-165204000D01*
X166918666Y-165237333D01*
X167218666Y-165637333D02*
X167152000Y-165670666D01*
X166985333Y-165670666D01*
X166918666Y-165637333D01*
X166885333Y-165570666D01*
X166885333Y-165504000D01*
X166918666Y-165437333D01*
X166985333Y-165404000D01*
X167152000Y-165404000D01*
X167218666Y-165370666D01*
X167552000Y-165670666D02*
X167552000Y-165204000D01*
X167552000Y-164970666D02*
X167518666Y-165004000D01*
X167552000Y-165037333D01*
X167585333Y-165004000D01*
X167552000Y-164970666D01*
X167552000Y-165037333D01*
X167885333Y-165204000D02*
X167885333Y-165670666D01*
X167885333Y-165270666D02*
X167918666Y-165237333D01*
X167985333Y-165204000D01*
X168085333Y-165204000D01*
X168152000Y-165237333D01*
X168185333Y-165304000D01*
X168185333Y-165670666D01*
X169452000Y-165670666D02*
X169218666Y-165337333D01*
X169052000Y-165670666D02*
X169052000Y-164970666D01*
X169318666Y-164970666D01*
X169385333Y-165004000D01*
X169418666Y-165037333D01*
X169452000Y-165104000D01*
X169452000Y-165204000D01*
X169418666Y-165270666D01*
X169385333Y-165304000D01*
X169318666Y-165337333D01*
X169052000Y-165337333D01*
X169885333Y-164970666D02*
X170018666Y-164970666D01*
X170085333Y-165004000D01*
X170152000Y-165070666D01*
X170185333Y-165204000D01*
X170185333Y-165437333D01*
X170152000Y-165570666D01*
X170085333Y-165637333D01*
X170018666Y-165670666D01*
X169885333Y-165670666D01*
X169818666Y-165637333D01*
X169752000Y-165570666D01*
X169718666Y-165437333D01*
X169718666Y-165204000D01*
X169752000Y-165070666D01*
X169818666Y-165004000D01*
X169885333Y-164970666D01*
X170485333Y-165670666D02*
X170485333Y-164970666D01*
X170718666Y-165470666D01*
X170952000Y-164970666D01*
X170952000Y-165670666D01*
D10*
X154424476Y-102830380D02*
X153948285Y-102830380D01*
X153900666Y-103306571D01*
X153948285Y-103258952D01*
X154043523Y-103211333D01*
X154281619Y-103211333D01*
X154376857Y-103258952D01*
X154424476Y-103306571D01*
X154472095Y-103401809D01*
X154472095Y-103639904D01*
X154424476Y-103735142D01*
X154376857Y-103782761D01*
X154281619Y-103830380D01*
X154043523Y-103830380D01*
X153948285Y-103782761D01*
X153900666Y-103735142D01*
X154805428Y-103163714D02*
X155043523Y-103830380D01*
X155281619Y-103163714D01*
X156376857Y-103544666D02*
X156853047Y-103544666D01*
X156281619Y-103830380D02*
X156614952Y-102830380D01*
X156948285Y-103830380D01*
X157281619Y-103830380D02*
X157281619Y-103163714D01*
X157281619Y-103354190D02*
X157329238Y-103258952D01*
X157376857Y-103211333D01*
X157472095Y-103163714D01*
X157567333Y-103163714D01*
X158329238Y-103830380D02*
X158329238Y-102830380D01*
X158329238Y-103782761D02*
X158234000Y-103830380D01*
X158043523Y-103830380D01*
X157948285Y-103782761D01*
X157900666Y-103735142D01*
X157853047Y-103639904D01*
X157853047Y-103354190D01*
X157900666Y-103258952D01*
X157948285Y-103211333D01*
X158043523Y-103163714D01*
X158234000Y-103163714D01*
X158329238Y-103211333D01*
X159234000Y-103163714D02*
X159234000Y-103830380D01*
X158805428Y-103163714D02*
X158805428Y-103687523D01*
X158853047Y-103782761D01*
X158948285Y-103830380D01*
X159091142Y-103830380D01*
X159186380Y-103782761D01*
X159234000Y-103735142D01*
X159710190Y-103830380D02*
X159710190Y-103163714D01*
X159710190Y-102830380D02*
X159662571Y-102878000D01*
X159710190Y-102925619D01*
X159757809Y-102878000D01*
X159710190Y-102830380D01*
X159710190Y-102925619D01*
X160186380Y-103163714D02*
X160186380Y-103830380D01*
X160186380Y-103258952D02*
X160234000Y-103211333D01*
X160329238Y-103163714D01*
X160472095Y-103163714D01*
X160567333Y-103211333D01*
X160614952Y-103306571D01*
X160614952Y-103830380D01*
X161234000Y-103830380D02*
X161138761Y-103782761D01*
X161091142Y-103735142D01*
X161043523Y-103639904D01*
X161043523Y-103354190D01*
X161091142Y-103258952D01*
X161138761Y-103211333D01*
X161234000Y-103163714D01*
X161376857Y-103163714D01*
X161472095Y-103211333D01*
X161519714Y-103258952D01*
X161567333Y-103354190D01*
X161567333Y-103639904D01*
X161519714Y-103735142D01*
X161472095Y-103782761D01*
X161376857Y-103830380D01*
X161234000Y-103830380D01*
X128103333Y-147169142D02*
X128055714Y-147216761D01*
X127912857Y-147264380D01*
X127817619Y-147264380D01*
X127674761Y-147216761D01*
X127579523Y-147121523D01*
X127531904Y-147026285D01*
X127484285Y-146835809D01*
X127484285Y-146692952D01*
X127531904Y-146502476D01*
X127579523Y-146407238D01*
X127674761Y-146312000D01*
X127817619Y-146264380D01*
X127912857Y-146264380D01*
X128055714Y-146312000D01*
X128103333Y-146359619D01*
X128436666Y-146264380D02*
X129055714Y-146264380D01*
X128722380Y-146645333D01*
X128865238Y-146645333D01*
X128960476Y-146692952D01*
X129008095Y-146740571D01*
X129055714Y-146835809D01*
X129055714Y-147073904D01*
X129008095Y-147169142D01*
X128960476Y-147216761D01*
X128865238Y-147264380D01*
X128579523Y-147264380D01*
X128484285Y-147216761D01*
X128436666Y-147169142D01*
X145796095Y-159980380D02*
X145796095Y-160789904D01*
X145843714Y-160885142D01*
X145891333Y-160932761D01*
X145986571Y-160980380D01*
X146177047Y-160980380D01*
X146272285Y-160932761D01*
X146319904Y-160885142D01*
X146367523Y-160789904D01*
X146367523Y-159980380D01*
X146986571Y-160408952D02*
X146891333Y-160361333D01*
X146843714Y-160313714D01*
X146796095Y-160218476D01*
X146796095Y-160170857D01*
X146843714Y-160075619D01*
X146891333Y-160028000D01*
X146986571Y-159980380D01*
X147177047Y-159980380D01*
X147272285Y-160028000D01*
X147319904Y-160075619D01*
X147367523Y-160170857D01*
X147367523Y-160218476D01*
X147319904Y-160313714D01*
X147272285Y-160361333D01*
X147177047Y-160408952D01*
X146986571Y-160408952D01*
X146891333Y-160456571D01*
X146843714Y-160504190D01*
X146796095Y-160599428D01*
X146796095Y-160789904D01*
X146843714Y-160885142D01*
X146891333Y-160932761D01*
X146986571Y-160980380D01*
X147177047Y-160980380D01*
X147272285Y-160932761D01*
X147319904Y-160885142D01*
X147367523Y-160789904D01*
X147367523Y-160599428D01*
X147319904Y-160504190D01*
X147272285Y-160456571D01*
X147177047Y-160408952D01*
X134517142Y-159980380D02*
X135183809Y-159980380D01*
X134755238Y-160980380D01*
X135993333Y-160313714D02*
X135993333Y-160980380D01*
X135755238Y-159932761D02*
X135517142Y-160647047D01*
X136136190Y-160647047D01*
X136993333Y-160980380D02*
X136517142Y-160980380D01*
X136517142Y-159980380D01*
X137279047Y-160932761D02*
X137421904Y-160980380D01*
X137660000Y-160980380D01*
X137755238Y-160932761D01*
X137802857Y-160885142D01*
X137850476Y-160789904D01*
X137850476Y-160694666D01*
X137802857Y-160599428D01*
X137755238Y-160551809D01*
X137660000Y-160504190D01*
X137469523Y-160456571D01*
X137374285Y-160408952D01*
X137326666Y-160361333D01*
X137279047Y-160266095D01*
X137279047Y-160170857D01*
X137326666Y-160075619D01*
X137374285Y-160028000D01*
X137469523Y-159980380D01*
X137707619Y-159980380D01*
X137850476Y-160028000D01*
X138183809Y-159980380D02*
X138802857Y-159980380D01*
X138469523Y-160361333D01*
X138612380Y-160361333D01*
X138707619Y-160408952D01*
X138755238Y-160456571D01*
X138802857Y-160551809D01*
X138802857Y-160789904D01*
X138755238Y-160885142D01*
X138707619Y-160932761D01*
X138612380Y-160980380D01*
X138326666Y-160980380D01*
X138231428Y-160932761D01*
X138183809Y-160885142D01*
X139421904Y-159980380D02*
X139517142Y-159980380D01*
X139612380Y-160028000D01*
X139660000Y-160075619D01*
X139707619Y-160170857D01*
X139755238Y-160361333D01*
X139755238Y-160599428D01*
X139707619Y-160789904D01*
X139660000Y-160885142D01*
X139612380Y-160932761D01*
X139517142Y-160980380D01*
X139421904Y-160980380D01*
X139326666Y-160932761D01*
X139279047Y-160885142D01*
X139231428Y-160789904D01*
X139183809Y-160599428D01*
X139183809Y-160361333D01*
X139231428Y-160170857D01*
X139279047Y-160075619D01*
X139326666Y-160028000D01*
X139421904Y-159980380D01*
X128103333Y-160885142D02*
X128055714Y-160932761D01*
X127912857Y-160980380D01*
X127817619Y-160980380D01*
X127674761Y-160932761D01*
X127579523Y-160837523D01*
X127531904Y-160742285D01*
X127484285Y-160551809D01*
X127484285Y-160408952D01*
X127531904Y-160218476D01*
X127579523Y-160123238D01*
X127674761Y-160028000D01*
X127817619Y-159980380D01*
X127912857Y-159980380D01*
X128055714Y-160028000D01*
X128103333Y-160075619D01*
X129008095Y-159980380D02*
X128531904Y-159980380D01*
X128484285Y-160456571D01*
X128531904Y-160408952D01*
X128627142Y-160361333D01*
X128865238Y-160361333D01*
X128960476Y-160408952D01*
X129008095Y-160456571D01*
X129055714Y-160551809D01*
X129055714Y-160789904D01*
X129008095Y-160885142D01*
X128960476Y-160932761D01*
X128865238Y-160980380D01*
X128627142Y-160980380D01*
X128531904Y-160932761D01*
X128484285Y-160885142D01*
X121417095Y-159990380D02*
X121417095Y-160799904D01*
X121464714Y-160895142D01*
X121512333Y-160942761D01*
X121607571Y-160990380D01*
X121798047Y-160990380D01*
X121893285Y-160942761D01*
X121940904Y-160895142D01*
X121988523Y-160799904D01*
X121988523Y-159990380D01*
X122369476Y-159990380D02*
X123036142Y-159990380D01*
X122607571Y-160990380D01*
X108868142Y-159990380D02*
X109534809Y-159990380D01*
X109106238Y-160990380D01*
X110344333Y-160323714D02*
X110344333Y-160990380D01*
X110106238Y-159942761D02*
X109868142Y-160657047D01*
X110487190Y-160657047D01*
X111344333Y-160990380D02*
X110868142Y-160990380D01*
X110868142Y-159990380D01*
X111630047Y-160942761D02*
X111772904Y-160990380D01*
X112011000Y-160990380D01*
X112106238Y-160942761D01*
X112153857Y-160895142D01*
X112201476Y-160799904D01*
X112201476Y-160704666D01*
X112153857Y-160609428D01*
X112106238Y-160561809D01*
X112011000Y-160514190D01*
X111820523Y-160466571D01*
X111725285Y-160418952D01*
X111677666Y-160371333D01*
X111630047Y-160276095D01*
X111630047Y-160180857D01*
X111677666Y-160085619D01*
X111725285Y-160038000D01*
X111820523Y-159990380D01*
X112058619Y-159990380D01*
X112201476Y-160038000D01*
X112534809Y-159990380D02*
X113153857Y-159990380D01*
X112820523Y-160371333D01*
X112963380Y-160371333D01*
X113058619Y-160418952D01*
X113106238Y-160466571D01*
X113153857Y-160561809D01*
X113153857Y-160799904D01*
X113106238Y-160895142D01*
X113058619Y-160942761D01*
X112963380Y-160990380D01*
X112677666Y-160990380D01*
X112582428Y-160942761D01*
X112534809Y-160895142D01*
X113772904Y-159990380D02*
X113868142Y-159990380D01*
X113963380Y-160038000D01*
X114011000Y-160085619D01*
X114058619Y-160180857D01*
X114106238Y-160371333D01*
X114106238Y-160609428D01*
X114058619Y-160799904D01*
X114011000Y-160895142D01*
X113963380Y-160942761D01*
X113868142Y-160990380D01*
X113772904Y-160990380D01*
X113677666Y-160942761D01*
X113630047Y-160895142D01*
X113582428Y-160799904D01*
X113534809Y-160609428D01*
X113534809Y-160371333D01*
X113582428Y-160180857D01*
X113630047Y-160085619D01*
X113677666Y-160038000D01*
X113772904Y-159990380D01*
X107211904Y-101417380D02*
X107211904Y-100417380D01*
X107450000Y-100417380D01*
X107592857Y-100465000D01*
X107688095Y-100560238D01*
X107735714Y-100655476D01*
X107783333Y-100845952D01*
X107783333Y-100988809D01*
X107735714Y-101179285D01*
X107688095Y-101274523D01*
X107592857Y-101369761D01*
X107450000Y-101417380D01*
X107211904Y-101417380D01*
X108735714Y-101417380D02*
X108164285Y-101417380D01*
X108450000Y-101417380D02*
X108450000Y-100417380D01*
X108354761Y-100560238D01*
X108259523Y-100655476D01*
X108164285Y-100703095D01*
X102251142Y-96718380D02*
X101679714Y-96718380D01*
X101965428Y-96718380D02*
X101965428Y-95718380D01*
X101870190Y-95861238D01*
X101774952Y-95956476D01*
X101679714Y-96004095D01*
X102679714Y-96718380D02*
X102679714Y-95718380D01*
X103251142Y-96718380D01*
X103251142Y-95718380D01*
X104155904Y-96051714D02*
X104155904Y-96718380D01*
X103917809Y-95670761D02*
X103679714Y-96385047D01*
X104298761Y-96385047D01*
X104870190Y-95718380D02*
X104965428Y-95718380D01*
X105060666Y-95766000D01*
X105108285Y-95813619D01*
X105155904Y-95908857D01*
X105203523Y-96099333D01*
X105203523Y-96337428D01*
X105155904Y-96527904D01*
X105108285Y-96623142D01*
X105060666Y-96670761D01*
X104965428Y-96718380D01*
X104870190Y-96718380D01*
X104774952Y-96670761D01*
X104727333Y-96623142D01*
X104679714Y-96527904D01*
X104632095Y-96337428D01*
X104632095Y-96099333D01*
X104679714Y-95908857D01*
X104727333Y-95813619D01*
X104774952Y-95766000D01*
X104870190Y-95718380D01*
X105822571Y-95718380D02*
X105917809Y-95718380D01*
X106013047Y-95766000D01*
X106060666Y-95813619D01*
X106108285Y-95908857D01*
X106155904Y-96099333D01*
X106155904Y-96337428D01*
X106108285Y-96527904D01*
X106060666Y-96623142D01*
X106013047Y-96670761D01*
X105917809Y-96718380D01*
X105822571Y-96718380D01*
X105727333Y-96670761D01*
X105679714Y-96623142D01*
X105632095Y-96527904D01*
X105584476Y-96337428D01*
X105584476Y-96099333D01*
X105632095Y-95908857D01*
X105679714Y-95813619D01*
X105727333Y-95766000D01*
X105822571Y-95718380D01*
X107013047Y-96051714D02*
X107013047Y-96718380D01*
X106774952Y-95670761D02*
X106536857Y-96385047D01*
X107155904Y-96385047D01*
X100785904Y-98972666D02*
X101262095Y-98972666D01*
X100690666Y-99258380D02*
X101024000Y-98258380D01*
X101357333Y-99258380D01*
X155281333Y-130754380D02*
X154948000Y-130278190D01*
X154709904Y-130754380D02*
X154709904Y-129754380D01*
X155090857Y-129754380D01*
X155186095Y-129802000D01*
X155233714Y-129849619D01*
X155281333Y-129944857D01*
X155281333Y-130087714D01*
X155233714Y-130182952D01*
X155186095Y-130230571D01*
X155090857Y-130278190D01*
X154709904Y-130278190D01*
X156186095Y-129754380D02*
X155709904Y-129754380D01*
X155662285Y-130230571D01*
X155709904Y-130182952D01*
X155805142Y-130135333D01*
X156043238Y-130135333D01*
X156138476Y-130182952D01*
X156186095Y-130230571D01*
X156233714Y-130325809D01*
X156233714Y-130563904D01*
X156186095Y-130659142D01*
X156138476Y-130706761D01*
X156043238Y-130754380D01*
X155805142Y-130754380D01*
X155709904Y-130706761D01*
X155662285Y-130659142D01*
X152312761Y-130754380D02*
X151741333Y-130754380D01*
X152027047Y-130754380D02*
X152027047Y-129754380D01*
X151931809Y-129897238D01*
X151836571Y-129992476D01*
X151741333Y-130040095D01*
X152931809Y-129754380D02*
X153027047Y-129754380D01*
X153122285Y-129802000D01*
X153169904Y-129849619D01*
X153217523Y-129944857D01*
X153265142Y-130135333D01*
X153265142Y-130373428D01*
X153217523Y-130563904D01*
X153169904Y-130659142D01*
X153122285Y-130706761D01*
X153027047Y-130754380D01*
X152931809Y-130754380D01*
X152836571Y-130706761D01*
X152788952Y-130659142D01*
X152741333Y-130563904D01*
X152693714Y-130373428D01*
X152693714Y-130135333D01*
X152741333Y-129944857D01*
X152788952Y-129849619D01*
X152836571Y-129802000D01*
X152931809Y-129754380D01*
X153693714Y-130754380D02*
X153693714Y-129754380D01*
X153788952Y-130373428D02*
X154074666Y-130754380D01*
X154074666Y-130087714D02*
X153693714Y-130468666D01*
X160805904Y-101290380D02*
X160805904Y-100290380D01*
X161044000Y-100290380D01*
X161186857Y-100338000D01*
X161282095Y-100433238D01*
X161329714Y-100528476D01*
X161377333Y-100718952D01*
X161377333Y-100861809D01*
X161329714Y-101052285D01*
X161282095Y-101147523D01*
X161186857Y-101242761D01*
X161044000Y-101290380D01*
X160805904Y-101290380D01*
X161758285Y-100385619D02*
X161805904Y-100338000D01*
X161901142Y-100290380D01*
X162139238Y-100290380D01*
X162234476Y-100338000D01*
X162282095Y-100385619D01*
X162329714Y-100480857D01*
X162329714Y-100576095D01*
X162282095Y-100718952D01*
X161710666Y-101290380D01*
X162329714Y-101290380D01*
X159401142Y-95956380D02*
X158829714Y-95956380D01*
X159115428Y-95956380D02*
X159115428Y-94956380D01*
X159020190Y-95099238D01*
X158924952Y-95194476D01*
X158829714Y-95242095D01*
X159829714Y-95956380D02*
X159829714Y-94956380D01*
X160401142Y-95956380D01*
X160401142Y-94956380D01*
X161305904Y-95289714D02*
X161305904Y-95956380D01*
X161067809Y-94908761D02*
X160829714Y-95623047D01*
X161448761Y-95623047D01*
X162020190Y-94956380D02*
X162115428Y-94956380D01*
X162210666Y-95004000D01*
X162258285Y-95051619D01*
X162305904Y-95146857D01*
X162353523Y-95337333D01*
X162353523Y-95575428D01*
X162305904Y-95765904D01*
X162258285Y-95861142D01*
X162210666Y-95908761D01*
X162115428Y-95956380D01*
X162020190Y-95956380D01*
X161924952Y-95908761D01*
X161877333Y-95861142D01*
X161829714Y-95765904D01*
X161782095Y-95575428D01*
X161782095Y-95337333D01*
X161829714Y-95146857D01*
X161877333Y-95051619D01*
X161924952Y-95004000D01*
X162020190Y-94956380D01*
X162972571Y-94956380D02*
X163067809Y-94956380D01*
X163163047Y-95004000D01*
X163210666Y-95051619D01*
X163258285Y-95146857D01*
X163305904Y-95337333D01*
X163305904Y-95575428D01*
X163258285Y-95765904D01*
X163210666Y-95861142D01*
X163163047Y-95908761D01*
X163067809Y-95956380D01*
X162972571Y-95956380D01*
X162877333Y-95908761D01*
X162829714Y-95861142D01*
X162782095Y-95765904D01*
X162734476Y-95575428D01*
X162734476Y-95337333D01*
X162782095Y-95146857D01*
X162829714Y-95051619D01*
X162877333Y-95004000D01*
X162972571Y-94956380D01*
X164163047Y-95289714D02*
X164163047Y-95956380D01*
X163924952Y-94908761D02*
X163686857Y-95623047D01*
X164305904Y-95623047D01*
X164607904Y-97194666D02*
X165084095Y-97194666D01*
X164512666Y-97480380D02*
X164846000Y-96480380D01*
X165179333Y-97480380D01*
X156384666Y-149820380D02*
X156384666Y-150534666D01*
X156337047Y-150677523D01*
X156241809Y-150772761D01*
X156098952Y-150820380D01*
X156003714Y-150820380D01*
X156813238Y-149915619D02*
X156860857Y-149868000D01*
X156956095Y-149820380D01*
X157194190Y-149820380D01*
X157289428Y-149868000D01*
X157337047Y-149915619D01*
X157384666Y-150010857D01*
X157384666Y-150106095D01*
X157337047Y-150248952D01*
X156765619Y-150820380D01*
X157384666Y-150820380D01*
X150709333Y-102973142D02*
X150661714Y-103020761D01*
X150518857Y-103068380D01*
X150423619Y-103068380D01*
X150280761Y-103020761D01*
X150185523Y-102925523D01*
X150137904Y-102830285D01*
X150090285Y-102639809D01*
X150090285Y-102496952D01*
X150137904Y-102306476D01*
X150185523Y-102211238D01*
X150280761Y-102116000D01*
X150423619Y-102068380D01*
X150518857Y-102068380D01*
X150661714Y-102116000D01*
X150709333Y-102163619D01*
X151566476Y-102401714D02*
X151566476Y-103068380D01*
X151328380Y-102020761D02*
X151090285Y-102735047D01*
X151709333Y-102735047D01*
X154011333Y-155900380D02*
X153678000Y-155424190D01*
X153439904Y-155900380D02*
X153439904Y-154900380D01*
X153820857Y-154900380D01*
X153916095Y-154948000D01*
X153963714Y-154995619D01*
X154011333Y-155090857D01*
X154011333Y-155233714D01*
X153963714Y-155328952D01*
X153916095Y-155376571D01*
X153820857Y-155424190D01*
X153439904Y-155424190D01*
X154963714Y-155900380D02*
X154392285Y-155900380D01*
X154678000Y-155900380D02*
X154678000Y-154900380D01*
X154582761Y-155043238D01*
X154487523Y-155138476D01*
X154392285Y-155186095D01*
X156297428Y-155233714D02*
X156297428Y-155900380D01*
X156059333Y-154852761D02*
X155821238Y-155567047D01*
X156440285Y-155567047D01*
X156821238Y-155805142D02*
X156868857Y-155852761D01*
X156821238Y-155900380D01*
X156773619Y-155852761D01*
X156821238Y-155805142D01*
X156821238Y-155900380D01*
X157202190Y-154900380D02*
X157868857Y-154900380D01*
X157440285Y-155900380D01*
X158249809Y-155900380D02*
X158249809Y-154900380D01*
X158345047Y-155519428D02*
X158630761Y-155900380D01*
X158630761Y-155233714D02*
X158249809Y-155614666D01*
X118872095Y-99230380D02*
X118872095Y-100039904D01*
X118919714Y-100135142D01*
X118967333Y-100182761D01*
X119062571Y-100230380D01*
X119253047Y-100230380D01*
X119348285Y-100182761D01*
X119395904Y-100135142D01*
X119443523Y-100039904D01*
X119443523Y-99230380D01*
X120443523Y-100230380D02*
X119872095Y-100230380D01*
X120157809Y-100230380D02*
X120157809Y-99230380D01*
X120062571Y-99373238D01*
X119967333Y-99468476D01*
X119872095Y-99516095D01*
X143002095Y-99230380D02*
X143002095Y-100039904D01*
X143049714Y-100135142D01*
X143097333Y-100182761D01*
X143192571Y-100230380D01*
X143383047Y-100230380D01*
X143478285Y-100182761D01*
X143525904Y-100135142D01*
X143573523Y-100039904D01*
X143573523Y-99230380D01*
X144478285Y-99230380D02*
X144287809Y-99230380D01*
X144192571Y-99278000D01*
X144144952Y-99325619D01*
X144049714Y-99468476D01*
X144002095Y-99658952D01*
X144002095Y-100039904D01*
X144049714Y-100135142D01*
X144097333Y-100182761D01*
X144192571Y-100230380D01*
X144383047Y-100230380D01*
X144478285Y-100182761D01*
X144525904Y-100135142D01*
X144573523Y-100039904D01*
X144573523Y-99801809D01*
X144525904Y-99706571D01*
X144478285Y-99658952D01*
X144383047Y-99611333D01*
X144192571Y-99611333D01*
X144097333Y-99658952D01*
X144049714Y-99706571D01*
X144002095Y-99801809D01*
X139399142Y-137612380D02*
X139399142Y-136612380D01*
X139732476Y-137326666D01*
X140065809Y-136612380D01*
X140065809Y-137612380D01*
X141113428Y-137517142D02*
X141065809Y-137564761D01*
X140922952Y-137612380D01*
X140827714Y-137612380D01*
X140684857Y-137564761D01*
X140589619Y-137469523D01*
X140542000Y-137374285D01*
X140494380Y-137183809D01*
X140494380Y-137040952D01*
X140542000Y-136850476D01*
X140589619Y-136755238D01*
X140684857Y-136660000D01*
X140827714Y-136612380D01*
X140922952Y-136612380D01*
X141065809Y-136660000D01*
X141113428Y-136707619D01*
X141542000Y-137612380D02*
X141542000Y-136612380D01*
X141922952Y-136612380D01*
X142018190Y-136660000D01*
X142065809Y-136707619D01*
X142113428Y-136802857D01*
X142113428Y-136945714D01*
X142065809Y-137040952D01*
X142018190Y-137088571D01*
X141922952Y-137136190D01*
X141542000Y-137136190D01*
X142494380Y-136707619D02*
X142542000Y-136660000D01*
X142637238Y-136612380D01*
X142875333Y-136612380D01*
X142970571Y-136660000D01*
X143018190Y-136707619D01*
X143065809Y-136802857D01*
X143065809Y-136898095D01*
X143018190Y-137040952D01*
X142446761Y-137612380D01*
X143065809Y-137612380D01*
X143399142Y-136612380D02*
X144018190Y-136612380D01*
X143684857Y-136993333D01*
X143827714Y-136993333D01*
X143922952Y-137040952D01*
X143970571Y-137088571D01*
X144018190Y-137183809D01*
X144018190Y-137421904D01*
X143970571Y-137517142D01*
X143922952Y-137564761D01*
X143827714Y-137612380D01*
X143542000Y-137612380D01*
X143446761Y-137564761D01*
X143399142Y-137517142D01*
X144637238Y-136612380D02*
X144732476Y-136612380D01*
X144827714Y-136660000D01*
X144875333Y-136707619D01*
X144922952Y-136802857D01*
X144970571Y-136993333D01*
X144970571Y-137231428D01*
X144922952Y-137421904D01*
X144875333Y-137517142D01*
X144827714Y-137564761D01*
X144732476Y-137612380D01*
X144637238Y-137612380D01*
X144542000Y-137564761D01*
X144494380Y-137517142D01*
X144446761Y-137421904D01*
X144399142Y-137231428D01*
X144399142Y-136993333D01*
X144446761Y-136802857D01*
X144494380Y-136707619D01*
X144542000Y-136660000D01*
X144637238Y-136612380D01*
X145922952Y-137612380D02*
X145351523Y-137612380D01*
X145637238Y-137612380D02*
X145637238Y-136612380D01*
X145542000Y-136755238D01*
X145446761Y-136850476D01*
X145351523Y-136898095D01*
X146494380Y-137040952D02*
X146399142Y-136993333D01*
X146351523Y-136945714D01*
X146303904Y-136850476D01*
X146303904Y-136802857D01*
X146351523Y-136707619D01*
X146399142Y-136660000D01*
X146494380Y-136612380D01*
X146684857Y-136612380D01*
X146780095Y-136660000D01*
X146827714Y-136707619D01*
X146875333Y-136802857D01*
X146875333Y-136850476D01*
X146827714Y-136945714D01*
X146780095Y-136993333D01*
X146684857Y-137040952D01*
X146494380Y-137040952D01*
X146399142Y-137088571D01*
X146351523Y-137136190D01*
X146303904Y-137231428D01*
X146303904Y-137421904D01*
X146351523Y-137517142D01*
X146399142Y-137564761D01*
X146494380Y-137612380D01*
X146684857Y-137612380D01*
X146780095Y-137564761D01*
X146827714Y-137517142D01*
X146875333Y-137421904D01*
X146875333Y-137231428D01*
X146827714Y-137136190D01*
X146780095Y-137088571D01*
X146684857Y-137040952D01*
X147303904Y-137231428D02*
X148065809Y-137231428D01*
X148542000Y-137088571D02*
X148875333Y-137088571D01*
X149018190Y-137612380D02*
X148542000Y-137612380D01*
X148542000Y-136612380D01*
X149018190Y-136612380D01*
X149208666Y-137707619D02*
X149970571Y-137707619D01*
X150161047Y-137564761D02*
X150303904Y-137612380D01*
X150542000Y-137612380D01*
X150637238Y-137564761D01*
X150684857Y-137517142D01*
X150732476Y-137421904D01*
X150732476Y-137326666D01*
X150684857Y-137231428D01*
X150637238Y-137183809D01*
X150542000Y-137136190D01*
X150351523Y-137088571D01*
X150256285Y-137040952D01*
X150208666Y-136993333D01*
X150161047Y-136898095D01*
X150161047Y-136802857D01*
X150208666Y-136707619D01*
X150256285Y-136660000D01*
X150351523Y-136612380D01*
X150589619Y-136612380D01*
X150732476Y-136660000D01*
X151161047Y-137612380D02*
X151161047Y-136612380D01*
X151542000Y-136612380D01*
X151637238Y-136660000D01*
X151684857Y-136707619D01*
X151732476Y-136802857D01*
X151732476Y-136945714D01*
X151684857Y-137040952D01*
X151637238Y-137088571D01*
X151542000Y-137136190D01*
X151161047Y-137136190D01*
X139715095Y-146274380D02*
X139715095Y-147083904D01*
X139762714Y-147179142D01*
X139810333Y-147226761D01*
X139905571Y-147274380D01*
X140096047Y-147274380D01*
X140191285Y-147226761D01*
X140238904Y-147179142D01*
X140286523Y-147083904D01*
X140286523Y-146274380D01*
X140810333Y-147274380D02*
X141000809Y-147274380D01*
X141096047Y-147226761D01*
X141143666Y-147179142D01*
X141238904Y-147036285D01*
X141286523Y-146845809D01*
X141286523Y-146464857D01*
X141238904Y-146369619D01*
X141191285Y-146322000D01*
X141096047Y-146274380D01*
X140905571Y-146274380D01*
X140810333Y-146322000D01*
X140762714Y-146369619D01*
X140715095Y-146464857D01*
X140715095Y-146702952D01*
X140762714Y-146798190D01*
X140810333Y-146845809D01*
X140905571Y-146893428D01*
X141096047Y-146893428D01*
X141191285Y-146845809D01*
X141238904Y-146798190D01*
X141286523Y-146702952D01*
X132008952Y-146264380D02*
X132675619Y-146264380D01*
X132247047Y-147264380D01*
X133485142Y-146597714D02*
X133485142Y-147264380D01*
X133247047Y-146216761D02*
X133008952Y-146931047D01*
X133628000Y-146931047D01*
X134485142Y-147264380D02*
X134008952Y-147264380D01*
X134008952Y-146264380D01*
X134770857Y-147216761D02*
X134913714Y-147264380D01*
X135151809Y-147264380D01*
X135247047Y-147216761D01*
X135294666Y-147169142D01*
X135342285Y-147073904D01*
X135342285Y-146978666D01*
X135294666Y-146883428D01*
X135247047Y-146835809D01*
X135151809Y-146788190D01*
X134961333Y-146740571D01*
X134866095Y-146692952D01*
X134818476Y-146645333D01*
X134770857Y-146550095D01*
X134770857Y-146454857D01*
X134818476Y-146359619D01*
X134866095Y-146312000D01*
X134961333Y-146264380D01*
X135199428Y-146264380D01*
X135342285Y-146312000D01*
X135723238Y-146359619D02*
X135770857Y-146312000D01*
X135866095Y-146264380D01*
X136104190Y-146264380D01*
X136199428Y-146312000D01*
X136247047Y-146359619D01*
X136294666Y-146454857D01*
X136294666Y-146550095D01*
X136247047Y-146692952D01*
X135675619Y-147264380D01*
X136294666Y-147264380D01*
X137199428Y-146264380D02*
X136723238Y-146264380D01*
X136675619Y-146740571D01*
X136723238Y-146692952D01*
X136818476Y-146645333D01*
X137056571Y-146645333D01*
X137151809Y-146692952D01*
X137199428Y-146740571D01*
X137247047Y-146835809D01*
X137247047Y-147073904D01*
X137199428Y-147169142D01*
X137151809Y-147216761D01*
X137056571Y-147264380D01*
X136818476Y-147264380D01*
X136723238Y-147216761D01*
X136675619Y-147169142D01*
X137580380Y-146264380D02*
X138247047Y-146264380D01*
X137818476Y-147264380D01*
X98980666Y-101814380D02*
X98980666Y-102528666D01*
X98933047Y-102671523D01*
X98837809Y-102766761D01*
X98694952Y-102814380D01*
X98599714Y-102814380D01*
X99885428Y-102147714D02*
X99885428Y-102814380D01*
X99647333Y-101766761D02*
X99409238Y-102481047D01*
X100028285Y-102481047D01*
X120909095Y-146274380D02*
X120909095Y-147083904D01*
X120956714Y-147179142D01*
X121004333Y-147226761D01*
X121099571Y-147274380D01*
X121290047Y-147274380D01*
X121385285Y-147226761D01*
X121432904Y-147179142D01*
X121480523Y-147083904D01*
X121480523Y-146274380D01*
X122432904Y-146274380D02*
X121956714Y-146274380D01*
X121909095Y-146750571D01*
X121956714Y-146702952D01*
X122051952Y-146655333D01*
X122290047Y-146655333D01*
X122385285Y-146702952D01*
X122432904Y-146750571D01*
X122480523Y-146845809D01*
X122480523Y-147083904D01*
X122432904Y-147179142D01*
X122385285Y-147226761D01*
X122290047Y-147274380D01*
X122051952Y-147274380D01*
X121956714Y-147226761D01*
X121909095Y-147179142D01*
X109376142Y-146274380D02*
X110042809Y-146274380D01*
X109614238Y-147274380D01*
X110852333Y-146607714D02*
X110852333Y-147274380D01*
X110614238Y-146226761D02*
X110376142Y-146941047D01*
X110995190Y-146941047D01*
X111852333Y-147274380D02*
X111376142Y-147274380D01*
X111376142Y-146274380D01*
X112138047Y-147226761D02*
X112280904Y-147274380D01*
X112519000Y-147274380D01*
X112614238Y-147226761D01*
X112661857Y-147179142D01*
X112709476Y-147083904D01*
X112709476Y-146988666D01*
X112661857Y-146893428D01*
X112614238Y-146845809D01*
X112519000Y-146798190D01*
X112328523Y-146750571D01*
X112233285Y-146702952D01*
X112185666Y-146655333D01*
X112138047Y-146560095D01*
X112138047Y-146464857D01*
X112185666Y-146369619D01*
X112233285Y-146322000D01*
X112328523Y-146274380D01*
X112566619Y-146274380D01*
X112709476Y-146322000D01*
X113328523Y-146274380D02*
X113423761Y-146274380D01*
X113519000Y-146322000D01*
X113566619Y-146369619D01*
X113614238Y-146464857D01*
X113661857Y-146655333D01*
X113661857Y-146893428D01*
X113614238Y-147083904D01*
X113566619Y-147179142D01*
X113519000Y-147226761D01*
X113423761Y-147274380D01*
X113328523Y-147274380D01*
X113233285Y-147226761D01*
X113185666Y-147179142D01*
X113138047Y-147083904D01*
X113090428Y-146893428D01*
X113090428Y-146655333D01*
X113138047Y-146464857D01*
X113185666Y-146369619D01*
X113233285Y-146322000D01*
X113328523Y-146274380D01*
X114519000Y-146607714D02*
X114519000Y-147274380D01*
X114280904Y-146226761D02*
X114042809Y-146941047D01*
X114661857Y-146941047D01*
X161438761Y-153201619D02*
X161343523Y-153154000D01*
X161248285Y-153058761D01*
X161105428Y-152915904D01*
X161010190Y-152868285D01*
X160914952Y-152868285D01*
X160962571Y-153106380D02*
X160867333Y-153058761D01*
X160772095Y-152963523D01*
X160724476Y-152773047D01*
X160724476Y-152439714D01*
X160772095Y-152249238D01*
X160867333Y-152154000D01*
X160962571Y-152106380D01*
X161153047Y-152106380D01*
X161248285Y-152154000D01*
X161343523Y-152249238D01*
X161391142Y-152439714D01*
X161391142Y-152773047D01*
X161343523Y-152963523D01*
X161248285Y-153058761D01*
X161153047Y-153106380D01*
X160962571Y-153106380D01*
X162343523Y-153106380D02*
X161772095Y-153106380D01*
X162057809Y-153106380D02*
X162057809Y-152106380D01*
X161962571Y-152249238D01*
X161867333Y-152344476D01*
X161772095Y-152392095D01*
D11*
X159644000Y-156401333D02*
X159677333Y-156368000D01*
X159744000Y-156334666D01*
X159910666Y-156334666D01*
X159977333Y-156368000D01*
X160010666Y-156401333D01*
X160044000Y-156468000D01*
X160044000Y-156534666D01*
X160010666Y-156634666D01*
X159610666Y-157034666D01*
X160044000Y-157034666D01*
X160344000Y-157034666D02*
X160344000Y-156334666D01*
X160744000Y-157034666D01*
X160744000Y-156334666D01*
X161010666Y-156334666D02*
X161477333Y-156334666D01*
X161177333Y-157034666D01*
X161877333Y-156334666D02*
X161944000Y-156334666D01*
X162010666Y-156368000D01*
X162044000Y-156401333D01*
X162077333Y-156468000D01*
X162110666Y-156601333D01*
X162110666Y-156768000D01*
X162077333Y-156901333D01*
X162044000Y-156968000D01*
X162010666Y-157001333D01*
X161944000Y-157034666D01*
X161877333Y-157034666D01*
X161810666Y-157001333D01*
X161777333Y-156968000D01*
X161744000Y-156901333D01*
X161710666Y-156768000D01*
X161710666Y-156601333D01*
X161744000Y-156468000D01*
X161777333Y-156401333D01*
X161810666Y-156368000D01*
X161877333Y-156334666D01*
X162544000Y-156334666D02*
X162610666Y-156334666D01*
X162677333Y-156368000D01*
X162710666Y-156401333D01*
X162744000Y-156468000D01*
X162777333Y-156601333D01*
X162777333Y-156768000D01*
X162744000Y-156901333D01*
X162710666Y-156968000D01*
X162677333Y-157001333D01*
X162610666Y-157034666D01*
X162544000Y-157034666D01*
X162477333Y-157001333D01*
X162444000Y-156968000D01*
X162410666Y-156901333D01*
X162377333Y-156768000D01*
X162377333Y-156601333D01*
X162410666Y-156468000D01*
X162444000Y-156401333D01*
X162477333Y-156368000D01*
X162544000Y-156334666D01*
X163210666Y-156334666D02*
X163277333Y-156334666D01*
X163344000Y-156368000D01*
X163377333Y-156401333D01*
X163410666Y-156468000D01*
X163444000Y-156601333D01*
X163444000Y-156768000D01*
X163410666Y-156901333D01*
X163377333Y-156968000D01*
X163344000Y-157001333D01*
X163277333Y-157034666D01*
X163210666Y-157034666D01*
X163144000Y-157001333D01*
X163110666Y-156968000D01*
X163077333Y-156901333D01*
X163044000Y-156768000D01*
X163044000Y-156601333D01*
X163077333Y-156468000D01*
X163110666Y-156401333D01*
X163144000Y-156368000D01*
X163210666Y-156334666D01*
D10*
X186292333Y-147169142D02*
X186244714Y-147216761D01*
X186101857Y-147264380D01*
X186006619Y-147264380D01*
X185863761Y-147216761D01*
X185768523Y-147121523D01*
X185720904Y-147026285D01*
X185673285Y-146835809D01*
X185673285Y-146692952D01*
X185720904Y-146502476D01*
X185768523Y-146407238D01*
X185863761Y-146312000D01*
X186006619Y-146264380D01*
X186101857Y-146264380D01*
X186244714Y-146312000D01*
X186292333Y-146359619D01*
X186673285Y-146359619D02*
X186720904Y-146312000D01*
X186816142Y-146264380D01*
X187054238Y-146264380D01*
X187149476Y-146312000D01*
X187197095Y-146359619D01*
X187244714Y-146454857D01*
X187244714Y-146550095D01*
X187197095Y-146692952D01*
X186625666Y-147264380D01*
X187244714Y-147264380D01*
X171791333Y-111371904D02*
X171791333Y-111848095D01*
X171505619Y-111276666D02*
X172505619Y-111610000D01*
X171505619Y-111943333D01*
X171505619Y-112276666D02*
X172172285Y-112276666D01*
X171981809Y-112276666D02*
X172077047Y-112324285D01*
X172124666Y-112371904D01*
X172172285Y-112467142D01*
X172172285Y-112562380D01*
X171505619Y-113324285D02*
X172505619Y-113324285D01*
X171553238Y-113324285D02*
X171505619Y-113229047D01*
X171505619Y-113038571D01*
X171553238Y-112943333D01*
X171600857Y-112895714D01*
X171696095Y-112848095D01*
X171981809Y-112848095D01*
X172077047Y-112895714D01*
X172124666Y-112943333D01*
X172172285Y-113038571D01*
X172172285Y-113229047D01*
X172124666Y-113324285D01*
X172172285Y-114229047D02*
X171505619Y-114229047D01*
X172172285Y-113800476D02*
X171648476Y-113800476D01*
X171553238Y-113848095D01*
X171505619Y-113943333D01*
X171505619Y-114086190D01*
X171553238Y-114181428D01*
X171600857Y-114229047D01*
X171505619Y-114705238D02*
X172172285Y-114705238D01*
X172505619Y-114705238D02*
X172458000Y-114657619D01*
X172410380Y-114705238D01*
X172458000Y-114752857D01*
X172505619Y-114705238D01*
X172410380Y-114705238D01*
X172172285Y-115181428D02*
X171505619Y-115181428D01*
X172077047Y-115181428D02*
X172124666Y-115229047D01*
X172172285Y-115324285D01*
X172172285Y-115467142D01*
X172124666Y-115562380D01*
X172029428Y-115610000D01*
X171505619Y-115610000D01*
X171505619Y-116229047D02*
X171553238Y-116133809D01*
X171600857Y-116086190D01*
X171696095Y-116038571D01*
X171981809Y-116038571D01*
X172077047Y-116086190D01*
X172124666Y-116133809D01*
X172172285Y-116229047D01*
X172172285Y-116371904D01*
X172124666Y-116467142D01*
X172077047Y-116514761D01*
X171981809Y-116562380D01*
X171696095Y-116562380D01*
X171600857Y-116514761D01*
X171553238Y-116467142D01*
X171505619Y-116371904D01*
X171505619Y-116229047D01*
X171410380Y-116752857D02*
X171410380Y-117514761D01*
X171505619Y-117752857D02*
X172505619Y-117752857D01*
X171505619Y-118324285D01*
X172505619Y-118324285D01*
X171505619Y-119229047D02*
X172029428Y-119229047D01*
X172124666Y-119181428D01*
X172172285Y-119086190D01*
X172172285Y-118895714D01*
X172124666Y-118800476D01*
X171553238Y-119229047D02*
X171505619Y-119133809D01*
X171505619Y-118895714D01*
X171553238Y-118800476D01*
X171648476Y-118752857D01*
X171743714Y-118752857D01*
X171838952Y-118800476D01*
X171886571Y-118895714D01*
X171886571Y-119133809D01*
X171934190Y-119229047D01*
X172172285Y-119705238D02*
X171505619Y-119705238D01*
X172077047Y-119705238D02*
X172124666Y-119752857D01*
X172172285Y-119848095D01*
X172172285Y-119990952D01*
X172124666Y-120086190D01*
X172029428Y-120133809D01*
X171505619Y-120133809D01*
X171505619Y-120752857D02*
X171553238Y-120657619D01*
X171600857Y-120610000D01*
X171696095Y-120562380D01*
X171981809Y-120562380D01*
X172077047Y-120610000D01*
X172124666Y-120657619D01*
X172172285Y-120752857D01*
X172172285Y-120895714D01*
X172124666Y-120990952D01*
X172077047Y-121038571D01*
X171981809Y-121086190D01*
X171696095Y-121086190D01*
X171600857Y-121038571D01*
X171553238Y-120990952D01*
X171505619Y-120895714D01*
X171505619Y-120752857D01*
X171410380Y-121276666D02*
X171410380Y-122038571D01*
X172172285Y-122181428D02*
X171505619Y-122419523D01*
X172172285Y-122657619D01*
X172505619Y-122943333D02*
X172505619Y-123562380D01*
X172124666Y-123229047D01*
X172124666Y-123371904D01*
X172077047Y-123467142D01*
X172029428Y-123514761D01*
X171934190Y-123562380D01*
X171696095Y-123562380D01*
X171600857Y-123514761D01*
X171553238Y-123467142D01*
X171505619Y-123371904D01*
X171505619Y-123086190D01*
X171553238Y-122990952D01*
X171600857Y-122943333D01*
X171600857Y-123990952D02*
X171553238Y-124038571D01*
X171505619Y-123990952D01*
X171553238Y-123943333D01*
X171600857Y-123990952D01*
X171505619Y-123990952D01*
X171505619Y-124371904D02*
X172172285Y-124895714D01*
X172172285Y-124371904D02*
X171505619Y-124895714D01*
X161853619Y-132929333D02*
X162329809Y-132596000D01*
X161853619Y-132357904D02*
X162853619Y-132357904D01*
X162853619Y-132738857D01*
X162806000Y-132834095D01*
X162758380Y-132881714D01*
X162663142Y-132929333D01*
X162520285Y-132929333D01*
X162425047Y-132881714D01*
X162377428Y-132834095D01*
X162329809Y-132738857D01*
X162329809Y-132357904D01*
X162425047Y-133500761D02*
X162472666Y-133405523D01*
X162520285Y-133357904D01*
X162615523Y-133310285D01*
X162663142Y-133310285D01*
X162758380Y-133357904D01*
X162806000Y-133405523D01*
X162853619Y-133500761D01*
X162853619Y-133691238D01*
X162806000Y-133786476D01*
X162758380Y-133834095D01*
X162663142Y-133881714D01*
X162615523Y-133881714D01*
X162520285Y-133834095D01*
X162472666Y-133786476D01*
X162425047Y-133691238D01*
X162425047Y-133500761D01*
X162377428Y-133405523D01*
X162329809Y-133357904D01*
X162234571Y-133310285D01*
X162044095Y-133310285D01*
X161948857Y-133357904D01*
X161901238Y-133405523D01*
X161853619Y-133500761D01*
X161853619Y-133691238D01*
X161901238Y-133786476D01*
X161948857Y-133834095D01*
X162044095Y-133881714D01*
X162234571Y-133881714D01*
X162329809Y-133834095D01*
X162377428Y-133786476D01*
X162425047Y-133691238D01*
X161853619Y-135294761D02*
X161853619Y-134723333D01*
X161853619Y-135009047D02*
X162853619Y-135009047D01*
X162710761Y-134913809D01*
X162615523Y-134818571D01*
X162567904Y-134723333D01*
X162853619Y-135913809D02*
X162853619Y-136009047D01*
X162806000Y-136104285D01*
X162758380Y-136151904D01*
X162663142Y-136199523D01*
X162472666Y-136247142D01*
X162234571Y-136247142D01*
X162044095Y-136199523D01*
X161948857Y-136151904D01*
X161901238Y-136104285D01*
X161853619Y-136009047D01*
X161853619Y-135913809D01*
X161901238Y-135818571D01*
X161948857Y-135770952D01*
X162044095Y-135723333D01*
X162234571Y-135675714D01*
X162472666Y-135675714D01*
X162663142Y-135723333D01*
X162758380Y-135770952D01*
X162806000Y-135818571D01*
X162853619Y-135913809D01*
X161853619Y-136675714D02*
X162853619Y-136675714D01*
X162234571Y-136770952D02*
X161853619Y-137056666D01*
X162520285Y-137056666D02*
X162139333Y-136675714D01*
X180594095Y-146264380D02*
X180594095Y-147073904D01*
X180641714Y-147169142D01*
X180689333Y-147216761D01*
X180784571Y-147264380D01*
X180975047Y-147264380D01*
X181070285Y-147216761D01*
X181117904Y-147169142D01*
X181165523Y-147073904D01*
X181165523Y-146264380D01*
X181594095Y-146359619D02*
X181641714Y-146312000D01*
X181736952Y-146264380D01*
X181975047Y-146264380D01*
X182070285Y-146312000D01*
X182117904Y-146359619D01*
X182165523Y-146454857D01*
X182165523Y-146550095D01*
X182117904Y-146692952D01*
X181546476Y-147264380D01*
X182165523Y-147264380D01*
X170077142Y-146274380D02*
X170743809Y-146274380D01*
X170315238Y-147274380D01*
X171553333Y-146607714D02*
X171553333Y-147274380D01*
X171315238Y-146226761D02*
X171077142Y-146941047D01*
X171696190Y-146941047D01*
X172553333Y-147274380D02*
X172077142Y-147274380D01*
X172077142Y-146274380D01*
X172839047Y-147226761D02*
X172981904Y-147274380D01*
X173220000Y-147274380D01*
X173315238Y-147226761D01*
X173362857Y-147179142D01*
X173410476Y-147083904D01*
X173410476Y-146988666D01*
X173362857Y-146893428D01*
X173315238Y-146845809D01*
X173220000Y-146798190D01*
X173029523Y-146750571D01*
X172934285Y-146702952D01*
X172886666Y-146655333D01*
X172839047Y-146560095D01*
X172839047Y-146464857D01*
X172886666Y-146369619D01*
X172934285Y-146322000D01*
X173029523Y-146274380D01*
X173267619Y-146274380D01*
X173410476Y-146322000D01*
X173743809Y-146274380D02*
X174410476Y-146274380D01*
X173981904Y-147274380D01*
X175220000Y-146607714D02*
X175220000Y-147274380D01*
X174981904Y-146226761D02*
X174743809Y-146941047D01*
X175362857Y-146941047D01*
X101854095Y-146274380D02*
X101854095Y-147083904D01*
X101901714Y-147179142D01*
X101949333Y-147226761D01*
X102044571Y-147274380D01*
X102235047Y-147274380D01*
X102330285Y-147226761D01*
X102377904Y-147179142D01*
X102425523Y-147083904D01*
X102425523Y-146274380D01*
X103330285Y-146607714D02*
X103330285Y-147274380D01*
X103092190Y-146226761D02*
X102854095Y-146941047D01*
X103473142Y-146941047D01*
X90321142Y-146274380D02*
X90987809Y-146274380D01*
X90559238Y-147274380D01*
X91797333Y-146607714D02*
X91797333Y-147274380D01*
X91559238Y-146226761D02*
X91321142Y-146941047D01*
X91940190Y-146941047D01*
X92797333Y-147274380D02*
X92321142Y-147274380D01*
X92321142Y-146274380D01*
X93083047Y-147226761D02*
X93225904Y-147274380D01*
X93464000Y-147274380D01*
X93559238Y-147226761D01*
X93606857Y-147179142D01*
X93654476Y-147083904D01*
X93654476Y-146988666D01*
X93606857Y-146893428D01*
X93559238Y-146845809D01*
X93464000Y-146798190D01*
X93273523Y-146750571D01*
X93178285Y-146702952D01*
X93130666Y-146655333D01*
X93083047Y-146560095D01*
X93083047Y-146464857D01*
X93130666Y-146369619D01*
X93178285Y-146322000D01*
X93273523Y-146274380D01*
X93511619Y-146274380D01*
X93654476Y-146322000D01*
X94273523Y-146274380D02*
X94368761Y-146274380D01*
X94464000Y-146322000D01*
X94511619Y-146369619D01*
X94559238Y-146464857D01*
X94606857Y-146655333D01*
X94606857Y-146893428D01*
X94559238Y-147083904D01*
X94511619Y-147179142D01*
X94464000Y-147226761D01*
X94368761Y-147274380D01*
X94273523Y-147274380D01*
X94178285Y-147226761D01*
X94130666Y-147179142D01*
X94083047Y-147083904D01*
X94035428Y-146893428D01*
X94035428Y-146655333D01*
X94083047Y-146464857D01*
X94130666Y-146369619D01*
X94178285Y-146322000D01*
X94273523Y-146274380D01*
X94987809Y-146369619D02*
X95035428Y-146322000D01*
X95130666Y-146274380D01*
X95368761Y-146274380D01*
X95464000Y-146322000D01*
X95511619Y-146369619D01*
X95559238Y-146464857D01*
X95559238Y-146560095D01*
X95511619Y-146702952D01*
X94940190Y-147274380D01*
X95559238Y-147274380D01*
X166261666Y-161250380D02*
X166261666Y-161964666D01*
X166214047Y-162107523D01*
X166118809Y-162202761D01*
X165975952Y-162250380D01*
X165880714Y-162250380D01*
X167261666Y-162250380D02*
X166690238Y-162250380D01*
X166975952Y-162250380D02*
X166975952Y-161250380D01*
X166880714Y-161393238D01*
X166785476Y-161488476D01*
X166690238Y-161536095D01*
X152482333Y-160875142D02*
X152434714Y-160922761D01*
X152291857Y-160970380D01*
X152196619Y-160970380D01*
X152053761Y-160922761D01*
X151958523Y-160827523D01*
X151910904Y-160732285D01*
X151863285Y-160541809D01*
X151863285Y-160398952D01*
X151910904Y-160208476D01*
X151958523Y-160113238D01*
X152053761Y-160018000D01*
X152196619Y-159970380D01*
X152291857Y-159970380D01*
X152434714Y-160018000D01*
X152482333Y-160065619D01*
X152815666Y-159970380D02*
X153482333Y-159970380D01*
X153053761Y-160970380D01*
X152487333Y-147229142D02*
X152439714Y-147276761D01*
X152296857Y-147324380D01*
X152201619Y-147324380D01*
X152058761Y-147276761D01*
X151963523Y-147181523D01*
X151915904Y-147086285D01*
X151868285Y-146895809D01*
X151868285Y-146752952D01*
X151915904Y-146562476D01*
X151963523Y-146467238D01*
X152058761Y-146372000D01*
X152201619Y-146324380D01*
X152296857Y-146324380D01*
X152439714Y-146372000D01*
X152487333Y-146419619D01*
X153439714Y-147324380D02*
X152868285Y-147324380D01*
X153154000Y-147324380D02*
X153154000Y-146324380D01*
X153058761Y-146467238D01*
X152963523Y-146562476D01*
X152868285Y-146610095D01*
X186237619Y-124039333D02*
X186713809Y-123706000D01*
X186237619Y-123467904D02*
X187237619Y-123467904D01*
X187237619Y-123848857D01*
X187190000Y-123944095D01*
X187142380Y-123991714D01*
X187047142Y-124039333D01*
X186904285Y-124039333D01*
X186809047Y-123991714D01*
X186761428Y-123944095D01*
X186713809Y-123848857D01*
X186713809Y-123467904D01*
X187237619Y-124896476D02*
X187237619Y-124706000D01*
X187190000Y-124610761D01*
X187142380Y-124563142D01*
X186999523Y-124467904D01*
X186809047Y-124420285D01*
X186428095Y-124420285D01*
X186332857Y-124467904D01*
X186285238Y-124515523D01*
X186237619Y-124610761D01*
X186237619Y-124801238D01*
X186285238Y-124896476D01*
X186332857Y-124944095D01*
X186428095Y-124991714D01*
X186666190Y-124991714D01*
X186761428Y-124944095D01*
X186809047Y-124896476D01*
X186856666Y-124801238D01*
X186856666Y-124610761D01*
X186809047Y-124515523D01*
X186761428Y-124467904D01*
X186666190Y-124420285D01*
X186904285Y-126071428D02*
X186237619Y-126071428D01*
X187285238Y-125833333D02*
X186570952Y-125595238D01*
X186570952Y-126214285D01*
X186332857Y-126595238D02*
X186285238Y-126642857D01*
X186237619Y-126595238D01*
X186285238Y-126547619D01*
X186332857Y-126595238D01*
X186237619Y-126595238D01*
X187237619Y-126976190D02*
X187237619Y-127642857D01*
X186237619Y-127214285D01*
X186237619Y-128023809D02*
X187237619Y-128023809D01*
X186618571Y-128119047D02*
X186237619Y-128404761D01*
X186904285Y-128404761D02*
X186523333Y-128023809D01*
X158805619Y-158300333D02*
X159281809Y-157967000D01*
X158805619Y-157728904D02*
X159805619Y-157728904D01*
X159805619Y-158109857D01*
X159758000Y-158205095D01*
X159710380Y-158252714D01*
X159615142Y-158300333D01*
X159472285Y-158300333D01*
X159377047Y-158252714D01*
X159329428Y-158205095D01*
X159281809Y-158109857D01*
X159281809Y-157728904D01*
X159472285Y-159157476D02*
X158805619Y-159157476D01*
X159853238Y-158919380D02*
X159138952Y-158681285D01*
X159138952Y-159300333D01*
X158721619Y-160411761D02*
X158721619Y-159840333D01*
X158721619Y-160126047D02*
X159721619Y-160126047D01*
X159578761Y-160030809D01*
X159483523Y-159935571D01*
X159435904Y-159840333D01*
X159721619Y-161030809D02*
X159721619Y-161126047D01*
X159674000Y-161221285D01*
X159626380Y-161268904D01*
X159531142Y-161316523D01*
X159340666Y-161364142D01*
X159102571Y-161364142D01*
X158912095Y-161316523D01*
X158816857Y-161268904D01*
X158769238Y-161221285D01*
X158721619Y-161126047D01*
X158721619Y-161030809D01*
X158769238Y-160935571D01*
X158816857Y-160887952D01*
X158912095Y-160840333D01*
X159102571Y-160792714D01*
X159340666Y-160792714D01*
X159531142Y-160840333D01*
X159626380Y-160887952D01*
X159674000Y-160935571D01*
X159721619Y-161030809D01*
X158721619Y-161792714D02*
X159721619Y-161792714D01*
X159102571Y-161887952D02*
X158721619Y-162173666D01*
X159388285Y-162173666D02*
X159007333Y-161792714D01*
D12*
X128270000Y-144102000D02*
X128270000Y-144792000D01*
X129690000Y-144792000D02*
X126850000Y-144792000D01*
X126850000Y-144792000D02*
X126850000Y-148832000D01*
X128270000Y-149522000D02*
X128270000Y-148832000D01*
X126850000Y-148832000D02*
X129690000Y-148832000D01*
X129690000Y-148832000D02*
X129690000Y-144792000D01*
X150682000Y-163178000D02*
X150682000Y-161528000D01*
X150682000Y-159528000D02*
X150682000Y-157878000D01*
X132782000Y-163178000D02*
X150682000Y-163178000D01*
X132782000Y-157878000D02*
X132782000Y-163178000D01*
X150682000Y-157878000D02*
X132782000Y-157878000D01*
X150682000Y-159528000D02*
G75*
G03*
X150682000Y-161528000I0J-1000000D01*
G01*
X92650000Y-163576000D02*
X92650000Y-162246000D01*
X92650000Y-164846000D02*
X95310000Y-164846000D01*
X92650000Y-164906000D02*
X95310000Y-164906000D01*
X95310000Y-164846000D02*
X95310000Y-164906000D01*
X92650000Y-164846000D02*
X92650000Y-164906000D01*
X92650000Y-162246000D02*
X93980000Y-162246000D01*
X126850000Y-162548000D02*
X129690000Y-162548000D01*
X128270000Y-157818000D02*
X128270000Y-158508000D01*
X128270000Y-163238000D02*
X128270000Y-162548000D01*
X126850000Y-158508000D02*
X126850000Y-162548000D01*
X129690000Y-158508000D02*
X126850000Y-158508000D01*
X129690000Y-162548000D02*
X129690000Y-158508000D01*
G36*
X183274604Y-158468084D02*
G01*
X183288038Y-158473643D01*
X183305721Y-158482697D01*
X183317637Y-158490371D01*
X183320859Y-158494103D01*
X183317110Y-158500956D01*
X183307104Y-158514800D01*
X183292699Y-158533116D01*
X183286211Y-158541025D01*
X183251564Y-158582766D01*
X183231510Y-158570539D01*
X183202073Y-158559323D01*
X183171339Y-158559030D01*
X183142211Y-158568808D01*
X183117596Y-158587807D01*
X183103618Y-158608039D01*
X183099326Y-158617062D01*
X183096009Y-158626136D01*
X183093541Y-158636943D01*
X183091797Y-158651165D01*
X183090651Y-158670483D01*
X183089980Y-158696579D01*
X183089657Y-158731135D01*
X183089557Y-158775833D01*
X183089552Y-158797148D01*
X183089552Y-158958364D01*
X182989527Y-158958364D01*
X182989527Y-158464492D01*
X183089552Y-158464492D01*
X183089552Y-158515479D01*
X183114510Y-158494115D01*
X183149677Y-158471909D01*
X183189812Y-158459965D01*
X183232320Y-158458588D01*
X183274604Y-158468084D01*
G37*
G36*
X183230442Y-157676882D02*
G01*
X183266102Y-157687112D01*
X183273972Y-157690819D01*
X183308855Y-157713184D01*
X183334806Y-157741025D01*
X183353344Y-157773697D01*
X183357470Y-157783130D01*
X183360745Y-157792541D01*
X183363289Y-157803486D01*
X183365218Y-157817524D01*
X183366651Y-157836211D01*
X183367704Y-157861104D01*
X183368497Y-157893759D01*
X183369146Y-157935735D01*
X183369770Y-157988587D01*
X183369799Y-157991199D01*
X183371853Y-158177443D01*
X183319787Y-158175619D01*
X183267720Y-158173796D01*
X183264595Y-158005004D01*
X183263575Y-157953895D01*
X183262549Y-157913741D01*
X183261394Y-157882997D01*
X183259989Y-157860116D01*
X183258209Y-157843551D01*
X183255933Y-157831755D01*
X183253038Y-157823182D01*
X183249681Y-157816742D01*
X183229871Y-157793841D01*
X183203501Y-157780765D01*
X183171109Y-157776823D01*
X183137441Y-157780614D01*
X183111657Y-157792786D01*
X183091404Y-157814537D01*
X183088592Y-157818869D01*
X183084193Y-157826343D01*
X183080752Y-157833994D01*
X183078127Y-157843420D01*
X183076179Y-157856222D01*
X183074768Y-157874000D01*
X183073755Y-157898355D01*
X183072999Y-157930886D01*
X183072361Y-157973193D01*
X183071906Y-158009693D01*
X183069890Y-158176921D01*
X182970772Y-158176921D01*
X182970772Y-157676798D01*
X183070797Y-157676798D01*
X183070797Y-157701804D01*
X183072096Y-157719629D01*
X183076851Y-157725696D01*
X183086349Y-157720500D01*
X183095655Y-157711339D01*
X183121534Y-157692183D01*
X183154838Y-157679800D01*
X183192247Y-157674572D01*
X183230442Y-157676882D01*
G37*
G36*
X182503894Y-157793101D02*
G01*
X182525798Y-157752073D01*
X182546152Y-157727288D01*
X182582052Y-157699782D01*
X182623372Y-157682143D01*
X182667907Y-157674332D01*
X182713448Y-157676312D01*
X182757787Y-157688044D01*
X182798717Y-157709489D01*
X182826090Y-157732165D01*
X182852648Y-157764759D01*
X182871600Y-157802594D01*
X182883514Y-157847407D01*
X182888960Y-157900930D01*
X182889455Y-157925297D01*
X182889502Y-157964369D01*
X182576359Y-157964369D01*
X182580532Y-157987812D01*
X182591862Y-158023670D01*
X182611116Y-158052031D01*
X182636314Y-158070645D01*
X182672809Y-158081639D01*
X182712307Y-158081834D01*
X182752179Y-158071592D01*
X182789796Y-158051275D01*
X182792864Y-158049052D01*
X182800121Y-158044788D01*
X182807438Y-158044842D01*
X182817584Y-158050362D01*
X182833330Y-158062494D01*
X182841488Y-158069185D01*
X182877349Y-158098777D01*
X182848857Y-158124966D01*
X182826872Y-158142007D01*
X182801673Y-158157062D01*
X182787701Y-158163376D01*
X182752580Y-158173114D01*
X182712941Y-158178766D01*
X182674307Y-158179811D01*
X182646516Y-158176715D01*
X182603452Y-158162874D01*
X182564373Y-158140949D01*
X182541209Y-158121443D01*
X182515244Y-158086730D01*
X182496207Y-158044000D01*
X182484068Y-157995625D01*
X182478797Y-157943975D01*
X182480364Y-157891424D01*
X182481729Y-157883099D01*
X182577238Y-157883099D01*
X182783226Y-157883099D01*
X182783226Y-157865328D01*
X182778339Y-157841179D01*
X182765667Y-157815635D01*
X182748195Y-157793653D01*
X182733156Y-157782170D01*
X182704414Y-157772494D01*
X182672499Y-157770741D01*
X182642371Y-157776794D01*
X182626299Y-157784720D01*
X182604016Y-157806597D01*
X182587796Y-157837361D01*
X182580906Y-157862781D01*
X182577238Y-157883099D01*
X182481729Y-157883099D01*
X182488740Y-157840342D01*
X182503894Y-157793101D01*
G37*
G36*
X184218897Y-158633002D02*
G01*
X184233066Y-158676228D01*
X184246158Y-158715047D01*
X184257658Y-158748018D01*
X184267048Y-158773696D01*
X184273813Y-158790638D01*
X184277434Y-158797400D01*
X184277744Y-158797395D01*
X184280441Y-158790314D01*
X184285879Y-158772806D01*
X184293581Y-158746524D01*
X184303070Y-158713124D01*
X184313867Y-158674260D01*
X184324192Y-158636409D01*
X184335730Y-158593880D01*
X184346300Y-158555149D01*
X184355434Y-158521913D01*
X184362664Y-158495867D01*
X184367522Y-158478707D01*
X184369463Y-158472306D01*
X184376500Y-158467953D01*
X184394142Y-158465390D01*
X184423263Y-158464495D01*
X184425593Y-158464492D01*
X184452597Y-158464977D01*
X184468722Y-158466595D01*
X184475557Y-158469595D01*
X184475810Y-158472306D01*
X184473068Y-158480505D01*
X184467194Y-158498612D01*
X184458836Y-158524618D01*
X184448638Y-158556513D01*
X184437248Y-158592288D01*
X184437133Y-158592649D01*
X184423173Y-158636526D01*
X184406840Y-158687767D01*
X184389585Y-158741832D01*
X184372855Y-158794180D01*
X184360824Y-158831770D01*
X184320272Y-158958364D01*
X184230124Y-158958364D01*
X184180625Y-158792315D01*
X184167580Y-158748932D01*
X184155537Y-158709601D01*
X184144992Y-158675880D01*
X184136436Y-158649325D01*
X184130366Y-158631492D01*
X184127274Y-158623938D01*
X184127145Y-158623806D01*
X184124412Y-158628899D01*
X184118679Y-158644504D01*
X184110431Y-158669128D01*
X184100155Y-158701276D01*
X184088337Y-158739454D01*
X184075463Y-158782166D01*
X184073643Y-158788291D01*
X184024123Y-158955238D01*
X183978726Y-158957076D01*
X183952579Y-158957366D01*
X183937095Y-158955492D01*
X183930583Y-158951237D01*
X183930413Y-158950825D01*
X183927099Y-158940944D01*
X183920681Y-158921200D01*
X183911648Y-158893135D01*
X183900488Y-158858289D01*
X183887692Y-158818204D01*
X183873747Y-158774421D01*
X183859143Y-158728480D01*
X183844369Y-158681923D01*
X183829913Y-158636290D01*
X183816265Y-158593123D01*
X183803914Y-158553962D01*
X183793348Y-158520349D01*
X183785056Y-158493824D01*
X183779528Y-158475929D01*
X183777252Y-158468205D01*
X183777221Y-158468029D01*
X183782992Y-158466426D01*
X183798387Y-158465203D01*
X183820526Y-158464550D01*
X183830065Y-158464492D01*
X183882909Y-158464492D01*
X183888448Y-158484810D01*
X183891600Y-158496430D01*
X183897486Y-158518182D01*
X183905582Y-158548124D01*
X183915362Y-158584316D01*
X183926303Y-158624819D01*
X183934065Y-158653565D01*
X183945233Y-158694475D01*
X183955456Y-158731062D01*
X183964258Y-158761694D01*
X183971165Y-158784741D01*
X183975701Y-158798573D01*
X183977270Y-158801917D01*
X183979908Y-158796185D01*
X183985805Y-158780040D01*
X183994449Y-158754989D01*
X184005330Y-158722542D01*
X184017936Y-158684207D01*
X184031757Y-158641491D01*
X184033927Y-158634724D01*
X184087459Y-158467618D01*
X184125839Y-158465764D01*
X184164219Y-158463911D01*
X184218897Y-158633002D01*
G37*
G36*
X185284657Y-158469579D02*
G01*
X185320685Y-158488426D01*
X185323377Y-158493283D01*
X185320490Y-158501879D01*
X185311049Y-158515992D01*
X185294080Y-158537397D01*
X185293301Y-158538346D01*
X185257206Y-158582221D01*
X185232728Y-158569462D01*
X185201401Y-158559525D01*
X185169879Y-158560753D01*
X185140887Y-158572292D01*
X185117153Y-158593290D01*
X185107245Y-158608722D01*
X185103882Y-158616595D01*
X185101277Y-158626474D01*
X185099335Y-158639944D01*
X185097964Y-158658591D01*
X185097070Y-158684000D01*
X185096559Y-158717757D01*
X185096338Y-158761446D01*
X185096305Y-158794261D01*
X185096295Y-158958364D01*
X184996271Y-158958364D01*
X184996271Y-158464492D01*
X185096295Y-158464492D01*
X185096295Y-158508889D01*
X185118163Y-158492210D01*
X185156140Y-158470756D01*
X185198323Y-158459800D01*
X185242050Y-158459391D01*
X185284657Y-158469579D01*
G37*
G36*
X182114312Y-157676798D02*
G01*
X182114312Y-157725965D01*
X182145362Y-157705070D01*
X182185543Y-157684547D01*
X182227145Y-157674892D01*
X182268346Y-157675514D01*
X182307328Y-157685821D01*
X182342270Y-157705222D01*
X182371352Y-157733125D01*
X182392756Y-157768939D01*
X182399452Y-157787668D01*
X182403827Y-157810517D01*
X182406986Y-157842754D01*
X182408928Y-157881334D01*
X182409651Y-157923209D01*
X182409156Y-157965333D01*
X182407441Y-158004661D01*
X182404505Y-158038146D01*
X182400348Y-158062742D01*
X182399536Y-158065763D01*
X182382086Y-158104746D01*
X182355496Y-158136870D01*
X182321758Y-158160972D01*
X182282864Y-158175887D01*
X182240806Y-158180451D01*
X182209771Y-158176693D01*
X182187560Y-158169327D01*
X182162338Y-158157433D01*
X182147132Y-158148443D01*
X182114312Y-158126781D01*
X182114312Y-158317886D01*
X182114410Y-158373612D01*
X182114734Y-158417893D01*
X182115329Y-158451785D01*
X182116239Y-158476346D01*
X182117508Y-158492631D01*
X182119180Y-158501698D01*
X182121299Y-158504602D01*
X182122126Y-158504376D01*
X182132225Y-158497746D01*
X182146666Y-158487586D01*
X182148695Y-158486116D01*
X182184462Y-158467430D01*
X182224609Y-158458657D01*
X182266208Y-158459566D01*
X182306329Y-158469927D01*
X182342044Y-158489508D01*
X182357206Y-158502557D01*
X182369897Y-158515460D01*
X182380116Y-158527126D01*
X182388145Y-158539054D01*
X182394265Y-158552744D01*
X182398760Y-158569694D01*
X182401912Y-158591404D01*
X182404002Y-158619373D01*
X182405314Y-158655100D01*
X182406129Y-158700085D01*
X182406729Y-158755827D01*
X182406827Y-158766129D01*
X182408646Y-158958364D01*
X182308109Y-158958364D01*
X182308100Y-158794261D01*
X182307966Y-158739995D01*
X182307397Y-158696721D01*
X182306127Y-158662927D01*
X182303893Y-158637103D01*
X182300429Y-158617738D01*
X182295472Y-158603322D01*
X182288756Y-158592344D01*
X182280018Y-158583294D01*
X182269751Y-158575214D01*
X182242380Y-158562325D01*
X182211479Y-158559062D01*
X182180488Y-158564771D01*
X182152851Y-158578799D01*
X182132008Y-158600494D01*
X182131397Y-158601461D01*
X182127203Y-158608706D01*
X182123920Y-158616412D01*
X182121413Y-158626172D01*
X182119549Y-158639577D01*
X182118195Y-158658222D01*
X182117217Y-158683697D01*
X182116481Y-158717597D01*
X182115855Y-158761512D01*
X182115502Y-158791135D01*
X182113566Y-158958364D01*
X182014287Y-158958364D01*
X182014287Y-157939623D01*
X182113912Y-157939623D01*
X182117243Y-157979414D01*
X182125033Y-158015046D01*
X182137301Y-158043379D01*
X182143296Y-158051764D01*
X182163881Y-158067372D01*
X182191349Y-158076293D01*
X182221777Y-158078127D01*
X182251244Y-158072480D01*
X182268309Y-158064429D01*
X182281924Y-158054073D01*
X182291790Y-158041347D01*
X182298468Y-158024193D01*
X182302518Y-158000556D01*
X182304502Y-157968380D01*
X182304984Y-157929986D01*
X182304699Y-157892724D01*
X182303677Y-157865514D01*
X182301669Y-157845916D01*
X182298425Y-157831489D01*
X182293714Y-157819828D01*
X182277298Y-157796914D01*
X182254605Y-157783064D01*
X182224142Y-157777596D01*
X182201847Y-157778032D01*
X182179125Y-157780336D01*
X182164522Y-157784372D01*
X182153655Y-157791959D01*
X182144800Y-157801694D01*
X182130484Y-157826709D01*
X182120551Y-157860130D01*
X182115021Y-157898815D01*
X182113912Y-157939623D01*
X182014287Y-157939623D01*
X182014287Y-157676798D01*
X182114312Y-157676798D01*
G37*
G36*
X185876994Y-157845537D02*
G01*
X185894106Y-157792495D01*
X185919239Y-157748780D01*
X185952169Y-157714633D01*
X185992671Y-157690291D01*
X186035267Y-157676995D01*
X186084392Y-157673200D01*
X186132096Y-157681477D01*
X186176916Y-157701394D01*
X186214516Y-157729789D01*
X186238249Y-157755071D01*
X186255270Y-157781451D01*
X186266639Y-157811731D01*
X186273417Y-157848718D01*
X186276622Y-157894039D01*
X186279186Y-157964369D01*
X185971511Y-157964369D01*
X185971511Y-157981799D01*
X185975703Y-158003144D01*
X185986490Y-158027823D01*
X186001184Y-158050790D01*
X186016750Y-158066748D01*
X186036254Y-158075555D01*
X186063149Y-158080956D01*
X186092681Y-158082513D01*
X186120095Y-158079786D01*
X186129955Y-158077217D01*
X186150103Y-158068624D01*
X186171265Y-158056850D01*
X186174816Y-158054524D01*
X186197443Y-158039169D01*
X186231388Y-158068170D01*
X186248093Y-158083098D01*
X186260211Y-158095179D01*
X186265302Y-158101966D01*
X186265333Y-158102207D01*
X186260910Y-158108868D01*
X186249731Y-158119882D01*
X186243250Y-158125447D01*
X186197918Y-158154941D01*
X186147452Y-158173787D01*
X186094105Y-158181426D01*
X186040130Y-158177295D01*
X186037152Y-158176708D01*
X185988788Y-158161074D01*
X185948048Y-158135624D01*
X185915298Y-158100724D01*
X185890903Y-158056741D01*
X185878300Y-158017969D01*
X185874012Y-157991379D01*
X185871549Y-157957025D01*
X185870946Y-157919519D01*
X185872238Y-157883472D01*
X185872278Y-157883099D01*
X185971511Y-157883099D01*
X186179203Y-157883099D01*
X186174909Y-157859656D01*
X186163114Y-157823713D01*
X186143028Y-157796311D01*
X186115667Y-157778359D01*
X186082051Y-157770768D01*
X186075202Y-157770571D01*
X186046697Y-157773620D01*
X186022480Y-157781698D01*
X186021581Y-157782170D01*
X186002437Y-157797933D01*
X185985765Y-157821124D01*
X185974550Y-157846786D01*
X185971511Y-157865328D01*
X185971511Y-157883099D01*
X185872278Y-157883099D01*
X185875460Y-157853494D01*
X185876994Y-157845537D01*
G37*
G36*
X185364023Y-158559243D02*
G01*
X185391117Y-158519736D01*
X185425701Y-158489773D01*
X185467421Y-158469742D01*
X185515924Y-158460027D01*
X185522192Y-158459572D01*
X185574552Y-158461762D01*
X185620924Y-158474766D01*
X185660865Y-158498336D01*
X185693934Y-158532225D01*
X185715860Y-158568040D01*
X185724994Y-158587609D01*
X185731105Y-158604495D01*
X185734949Y-158622369D01*
X185737280Y-158644901D01*
X185738853Y-158675763D01*
X185739051Y-158680836D01*
X185741777Y-158752063D01*
X185432232Y-158752063D01*
X185435723Y-158778091D01*
X185445956Y-158809845D01*
X185466246Y-158836784D01*
X185494449Y-158856814D01*
X185527567Y-158867702D01*
X185555311Y-158867929D01*
X185587054Y-158861553D01*
X185617300Y-158850108D01*
X185638837Y-158836629D01*
X185657080Y-158821278D01*
X185690828Y-158849952D01*
X185707777Y-158864762D01*
X185720471Y-158876625D01*
X185726301Y-158883097D01*
X185726374Y-158883256D01*
X185723209Y-158890774D01*
X185711698Y-158902394D01*
X185694413Y-158916124D01*
X185673925Y-158929974D01*
X185652807Y-158941955D01*
X185646716Y-158944895D01*
X185615620Y-158955135D01*
X185578094Y-158961480D01*
X185538902Y-158963604D01*
X185502808Y-158961181D01*
X185480765Y-158956229D01*
X185440568Y-158939912D01*
X185409273Y-158919475D01*
X185383364Y-158892242D01*
X185368506Y-158870842D01*
X185349988Y-158831828D01*
X185337521Y-158784463D01*
X185331588Y-158731588D01*
X185332669Y-158676044D01*
X185333715Y-158665349D01*
X185333871Y-158664541D01*
X185432232Y-158664541D01*
X185639867Y-158664541D01*
X185635995Y-158644224D01*
X185623943Y-158607287D01*
X185604100Y-158579292D01*
X185577408Y-158561018D01*
X185544808Y-158553240D01*
X185526083Y-158553577D01*
X185491879Y-158562467D01*
X185464280Y-158581012D01*
X185444919Y-158607679D01*
X185435723Y-158638513D01*
X185432232Y-158664541D01*
X185333871Y-158664541D01*
X185344771Y-158607909D01*
X185364023Y-158559243D01*
G37*
G36*
X185681509Y-157672847D02*
G01*
X185705168Y-157676973D01*
X185715236Y-157679443D01*
X185755930Y-157693886D01*
X185794014Y-157714751D01*
X185824813Y-157739425D01*
X185827551Y-157742254D01*
X185837071Y-157753261D01*
X185838440Y-157760479D01*
X185832160Y-157769144D01*
X185830316Y-157771195D01*
X185817847Y-157783426D01*
X185801083Y-157798039D01*
X185795342Y-157802697D01*
X185772336Y-157820942D01*
X185743527Y-157800636D01*
X185724529Y-157788754D01*
X185706578Y-157782086D01*
X185684017Y-157778829D01*
X185672761Y-157778096D01*
X185632789Y-157779986D01*
X185600968Y-157790800D01*
X185576104Y-157811155D01*
X185559468Y-157836574D01*
X185551785Y-157853631D01*
X185547075Y-157870228D01*
X185544651Y-157890334D01*
X185543823Y-157917915D01*
X185543784Y-157926860D01*
X185544284Y-157957618D01*
X185546301Y-157979822D01*
X185550469Y-157997391D01*
X185557424Y-158014244D01*
X185558192Y-158015825D01*
X185578541Y-158044264D01*
X185606235Y-158064349D01*
X185638967Y-158075672D01*
X185674431Y-158077831D01*
X185710322Y-158070417D01*
X185744332Y-158053027D01*
X185749273Y-158049423D01*
X185771728Y-158032296D01*
X185795038Y-158050782D01*
X185812005Y-158065044D01*
X185826622Y-158078658D01*
X185830257Y-158082459D01*
X185838232Y-158092513D01*
X185837684Y-158099808D01*
X185830257Y-158108882D01*
X185805455Y-158130747D01*
X185773092Y-158151273D01*
X185738013Y-158167538D01*
X185726201Y-158171619D01*
X185697901Y-158179074D01*
X185672670Y-158181908D01*
X185644978Y-158180394D01*
X185620997Y-158176867D01*
X185583084Y-158165771D01*
X185544798Y-158146577D01*
X185511687Y-158122200D01*
X185505283Y-158116062D01*
X185478355Y-158080354D01*
X185458320Y-158036106D01*
X185445743Y-157985558D01*
X185441187Y-157930952D01*
X185444978Y-157876132D01*
X185458010Y-157819468D01*
X185479298Y-157772168D01*
X185508973Y-157734091D01*
X185547166Y-157705097D01*
X185594008Y-157685047D01*
X185632129Y-157676238D01*
X185659430Y-157672690D01*
X185681509Y-157672847D01*
G37*
G36*
X183884993Y-157674866D02*
G01*
X183920637Y-157680275D01*
X183953668Y-157687958D01*
X183976464Y-157695902D01*
X184000117Y-157707462D01*
X184021322Y-157719807D01*
X184037357Y-157731151D01*
X184045498Y-157739712D01*
X184045994Y-157741442D01*
X184042224Y-157748483D01*
X184032270Y-157762032D01*
X184018238Y-157779233D01*
X184017362Y-157780261D01*
X183988687Y-157813826D01*
X183953984Y-157794241D01*
X183923154Y-157781083D01*
X183888288Y-157772912D01*
X183853299Y-157770109D01*
X183822099Y-157773058D01*
X183803074Y-157779511D01*
X183783593Y-157794755D01*
X183773470Y-157813678D01*
X183772969Y-157833409D01*
X183782354Y-157851077D01*
X183795585Y-157861017D01*
X183810993Y-157866231D01*
X183833941Y-157870876D01*
X183859470Y-157873950D01*
X183859572Y-157873958D01*
X183911511Y-157879225D01*
X183952705Y-157886565D01*
X183984838Y-157896699D01*
X184009596Y-157910351D01*
X184028663Y-157928241D01*
X184043725Y-157951092D01*
X184044924Y-157953383D01*
X184056066Y-157985406D01*
X184060401Y-158021819D01*
X184057763Y-158057604D01*
X184049302Y-158085098D01*
X184027979Y-158116060D01*
X183996943Y-158141812D01*
X183958152Y-158161634D01*
X183913563Y-158174800D01*
X183865133Y-158180589D01*
X183814821Y-158178276D01*
X183802227Y-158176356D01*
X183777655Y-158170252D01*
X183749134Y-158160572D01*
X183728164Y-158151800D01*
X183705295Y-158139956D01*
X183682422Y-158126200D01*
X183662168Y-158112355D01*
X183647159Y-158100242D01*
X183640020Y-158091685D01*
X183639766Y-158090437D01*
X183644172Y-158084578D01*
X183655719Y-158072995D01*
X183672020Y-158058063D01*
X183674092Y-158056239D01*
X183708338Y-158026204D01*
X183736459Y-158045552D01*
X183774532Y-158067264D01*
X183813364Y-158079304D01*
X183857777Y-158083144D01*
X183859478Y-158083148D01*
X183900015Y-158080206D01*
X183929687Y-158071297D01*
X183948679Y-158056300D01*
X183957179Y-158035094D01*
X183957327Y-158019399D01*
X183953565Y-158004105D01*
X183944649Y-157992542D01*
X183928918Y-157983940D01*
X183904711Y-157977525D01*
X183870366Y-157972527D01*
X183852439Y-157970656D01*
X183801491Y-157963892D01*
X183761236Y-157954022D01*
X183730083Y-157940253D01*
X183706437Y-157921793D01*
X183688707Y-157897849D01*
X183682760Y-157886225D01*
X183675509Y-157863819D01*
X183671411Y-157838215D01*
X183671082Y-157830686D01*
X183676006Y-157786007D01*
X183691189Y-157748461D01*
X183716596Y-157718083D01*
X183752194Y-157694908D01*
X183797948Y-157678969D01*
X183824966Y-157673672D01*
X183851511Y-157672432D01*
X183884993Y-157674866D01*
G37*
G36*
X182495497Y-158751197D02*
G01*
X182513051Y-158719966D01*
X182524538Y-158707071D01*
X182541312Y-158693137D01*
X182559137Y-158682814D01*
X182580320Y-158675508D01*
X182607170Y-158670623D01*
X182641996Y-158667565D01*
X182684765Y-158665805D01*
X182776975Y-158663179D01*
X182776975Y-158629065D01*
X182775762Y-158607354D01*
X182772660Y-158589205D01*
X182770220Y-158582331D01*
X182756268Y-158568349D01*
X182732852Y-158558125D01*
X182702706Y-158552657D01*
X182687310Y-158552014D01*
X182652413Y-158553474D01*
X182626847Y-158558342D01*
X182607730Y-158567351D01*
X182598723Y-158574518D01*
X182582834Y-158589244D01*
X182545496Y-158560248D01*
X182527604Y-158545767D01*
X182514389Y-158533955D01*
X182508307Y-158527031D01*
X182508159Y-158526491D01*
X182512539Y-158520123D01*
X182523830Y-158508729D01*
X182534560Y-158499132D01*
X182560909Y-158480543D01*
X182590575Y-158468034D01*
X182625985Y-158461008D01*
X182669568Y-158458870D01*
X182695980Y-158459479D01*
X182728514Y-158461268D01*
X182752330Y-158463986D01*
X182771213Y-158468373D01*
X182788947Y-158475171D01*
X182798099Y-158479477D01*
X182832718Y-158501763D01*
X182857557Y-158530681D01*
X182871002Y-158558265D01*
X182873708Y-158569811D01*
X182875988Y-158589444D01*
X182877887Y-158618040D01*
X182879452Y-158656473D01*
X182880725Y-158705620D01*
X182881753Y-158766355D01*
X182881792Y-158769255D01*
X182884349Y-158958364D01*
X182776975Y-158958364D01*
X182776975Y-158919743D01*
X182758026Y-158935687D01*
X182738683Y-158948380D01*
X182717309Y-158957657D01*
X182715828Y-158958088D01*
X182686599Y-158962875D01*
X182651582Y-158963812D01*
X182616842Y-158961020D01*
X182591455Y-158955616D01*
X182551089Y-158937586D01*
X182518420Y-158911802D01*
X182495078Y-158879757D01*
X182486723Y-158859740D01*
X182481322Y-158825167D01*
X182482501Y-158811599D01*
X182577257Y-158811599D01*
X182584156Y-158832733D01*
X182599535Y-158850711D01*
X182622359Y-158862911D01*
X182630418Y-158865036D01*
X182649672Y-158867214D01*
X182675293Y-158867796D01*
X182702829Y-158866946D01*
X182727831Y-158864827D01*
X182745845Y-158861600D01*
X182748549Y-158860712D01*
X182761665Y-158849439D01*
X182771275Y-158828494D01*
X182776396Y-158800452D01*
X182776975Y-158786272D01*
X182776975Y-158751094D01*
X182693063Y-158753141D01*
X182658897Y-158754111D01*
X182634852Y-158755340D01*
X182618551Y-158757238D01*
X182607613Y-158760213D01*
X182599659Y-158764676D01*
X182593039Y-158770344D01*
X182579873Y-158789929D01*
X182577257Y-158811599D01*
X182482501Y-158811599D01*
X182484583Y-158787625D01*
X182495497Y-158751197D01*
G37*
G36*
X183330236Y-158714554D02*
G01*
X183330534Y-158663432D01*
X183331735Y-158622955D01*
X183334295Y-158591270D01*
X183338671Y-158566528D01*
X183345322Y-158546877D01*
X183354704Y-158530465D01*
X183367274Y-158515443D01*
X183383188Y-158500230D01*
X183414730Y-158476925D01*
X183448105Y-158463481D01*
X183487283Y-158458433D01*
X183496627Y-158458302D01*
X183524083Y-158461443D01*
X183553133Y-158469674D01*
X183579405Y-158481342D01*
X183598526Y-158494796D01*
X183601380Y-158497881D01*
X183610540Y-158506273D01*
X183615314Y-158508253D01*
X183617033Y-158502315D01*
X183618695Y-158485758D01*
X183620193Y-158460464D01*
X183621420Y-158428317D01*
X183622268Y-158391201D01*
X183622363Y-158384785D01*
X183624058Y-158261317D01*
X183672508Y-158259491D01*
X183720957Y-158257665D01*
X183720957Y-158958364D01*
X183620932Y-158958364D01*
X183620932Y-158936483D01*
X183619274Y-158920086D01*
X183613775Y-158915470D01*
X183603648Y-158922290D01*
X183599171Y-158926975D01*
X183582795Y-158939019D01*
X183558305Y-158950148D01*
X183530078Y-158958859D01*
X183502487Y-158963651D01*
X183490978Y-158964122D01*
X183466154Y-158961683D01*
X183441202Y-158956243D01*
X183435795Y-158954505D01*
X183402657Y-158937135D01*
X183372302Y-158911005D01*
X183348805Y-158879791D01*
X183344851Y-158872388D01*
X183339907Y-158861724D01*
X183336223Y-158851291D01*
X183333615Y-158839095D01*
X183331897Y-158823143D01*
X183330886Y-158801442D01*
X183330396Y-158771999D01*
X183330278Y-158741486D01*
X183428056Y-158741486D01*
X183432603Y-158783552D01*
X183442300Y-158815685D01*
X183457431Y-158838740D01*
X183478281Y-158853566D01*
X183484451Y-158856097D01*
X183517227Y-158863449D01*
X183548004Y-158859832D01*
X183568365Y-158851811D01*
X183586363Y-158841296D01*
X183599519Y-158828413D01*
X183608537Y-158811164D01*
X183614121Y-158787550D01*
X183616976Y-158755573D01*
X183617804Y-158713233D01*
X183617805Y-158711428D01*
X183617546Y-158676439D01*
X183616547Y-158651222D01*
X183614476Y-158633052D01*
X183611003Y-158619206D01*
X183605794Y-158606958D01*
X183604875Y-158605152D01*
X183586249Y-158581231D01*
X183561259Y-158565665D01*
X183532662Y-158558486D01*
X183503212Y-158559724D01*
X183475665Y-158569411D01*
X183452776Y-158587578D01*
X183442028Y-158603312D01*
X183435445Y-158622902D01*
X183430862Y-158653000D01*
X183428372Y-158688638D01*
X183428056Y-158741486D01*
X183330278Y-158741486D01*
X183330244Y-158732820D01*
X183330236Y-158714554D01*
G37*
G36*
X184716230Y-157848023D02*
G01*
X184716826Y-157899054D01*
X184717463Y-157939104D01*
X184718263Y-157969694D01*
X184719342Y-157992346D01*
X184720819Y-158008580D01*
X184722814Y-158019918D01*
X184725445Y-158027882D01*
X184728831Y-158033993D01*
X184730967Y-158036994D01*
X184752121Y-158060186D01*
X184774753Y-158073097D01*
X184802631Y-158077738D01*
X184807515Y-158077845D01*
X184842195Y-158073554D01*
X184869314Y-158059627D01*
X184890032Y-158035387D01*
X184894683Y-158026980D01*
X184898974Y-158018003D01*
X184902291Y-158008969D01*
X184904759Y-157998197D01*
X184906504Y-157984008D01*
X184907649Y-157964721D01*
X184908321Y-157938655D01*
X184908644Y-157904131D01*
X184908744Y-157859468D01*
X184908749Y-157838014D01*
X184908749Y-157676798D01*
X185008774Y-157676798D01*
X185008774Y-158176921D01*
X184908749Y-158176921D01*
X184908749Y-158127754D01*
X184877699Y-158148650D01*
X184836748Y-158169917D01*
X184794322Y-158180291D01*
X184752687Y-158179289D01*
X184743083Y-158177307D01*
X184699802Y-158160638D01*
X184663647Y-158133845D01*
X184635395Y-158097573D01*
X184626235Y-158080022D01*
X184622111Y-158070638D01*
X184618862Y-158061436D01*
X184616383Y-158050855D01*
X184614569Y-158037328D01*
X184613318Y-158019292D01*
X184612523Y-157995183D01*
X184612080Y-157963436D01*
X184611886Y-157922487D01*
X184611835Y-157870771D01*
X184611833Y-157864344D01*
X184611801Y-157679924D01*
X184663092Y-157678113D01*
X184714384Y-157676302D01*
X184716230Y-157848023D01*
G37*
G36*
X181527924Y-157829908D02*
G01*
X181538378Y-157794103D01*
X181554249Y-157763849D01*
X181576248Y-157736975D01*
X181585719Y-157727789D01*
X181625089Y-157699134D01*
X181668116Y-157681034D01*
X181713003Y-157673129D01*
X181757955Y-157675056D01*
X181801176Y-157686456D01*
X181840871Y-157706967D01*
X181875243Y-157736228D01*
X181902497Y-157773878D01*
X181911926Y-157793377D01*
X181919106Y-157818811D01*
X181924084Y-157853300D01*
X181926863Y-157893595D01*
X181927445Y-157936443D01*
X181925834Y-157978595D01*
X181922031Y-158016798D01*
X181916041Y-158047802D01*
X181911695Y-158060896D01*
X181889178Y-158100289D01*
X181858097Y-158133732D01*
X181821070Y-158158783D01*
X181795483Y-158169277D01*
X181758255Y-158177121D01*
X181717686Y-158179788D01*
X181682458Y-158177036D01*
X181637470Y-158162863D01*
X181596457Y-158137032D01*
X181580899Y-158123091D01*
X181557617Y-158095840D01*
X181540568Y-158065065D01*
X181529113Y-158028692D01*
X181522611Y-157984644D01*
X181520424Y-157930846D01*
X181520416Y-157926860D01*
X181623566Y-157926860D01*
X181624347Y-157967214D01*
X181627187Y-157997524D01*
X181632830Y-158020180D01*
X181642023Y-158037574D01*
X181655509Y-158052094D01*
X181664969Y-158059678D01*
X181692617Y-158073083D01*
X181725090Y-158077697D01*
X181758301Y-158073496D01*
X181788158Y-158060454D01*
X181788193Y-158060431D01*
X181803929Y-158045791D01*
X181815182Y-158024494D01*
X181822390Y-157995015D01*
X181825991Y-157955827D01*
X181826604Y-157926622D01*
X181826359Y-157893832D01*
X181825189Y-157870421D01*
X181822657Y-157853273D01*
X181818328Y-157839271D01*
X181812675Y-157827059D01*
X181793162Y-157801171D01*
X181767431Y-157784271D01*
X181737961Y-157776361D01*
X181707228Y-157777446D01*
X181677709Y-157787528D01*
X181651882Y-157806609D01*
X181636407Y-157826856D01*
X181630893Y-157837818D01*
X181627198Y-157850236D01*
X181624976Y-157866807D01*
X181623882Y-157890228D01*
X181623568Y-157923198D01*
X181623566Y-157926860D01*
X181520416Y-157926860D01*
X181522174Y-157873437D01*
X181527924Y-157829908D01*
G37*
G36*
X184492160Y-158769731D02*
G01*
X184509204Y-158732661D01*
X184536470Y-158702461D01*
X184571166Y-158680873D01*
X184584641Y-158675518D01*
X184599849Y-158671665D01*
X184619330Y-158668992D01*
X184645625Y-158667178D01*
X184681272Y-158665901D01*
X184691508Y-158665639D01*
X184783718Y-158663395D01*
X184783718Y-158627151D01*
X184781906Y-158600354D01*
X184776080Y-158582986D01*
X184772778Y-158578416D01*
X184753483Y-158564661D01*
X184726317Y-158555843D01*
X184694722Y-158551950D01*
X184662142Y-158552970D01*
X184632017Y-158558890D01*
X184607791Y-158569698D01*
X184597083Y-158579041D01*
X184591803Y-158583568D01*
X184585094Y-158583431D01*
X184574425Y-158577615D01*
X184557263Y-158565106D01*
X184551759Y-158560889D01*
X184533957Y-158546545D01*
X184520878Y-158534775D01*
X184515007Y-158527840D01*
X184514902Y-158527369D01*
X184520034Y-158517735D01*
X184533395Y-158504921D01*
X184551931Y-158491137D01*
X184572592Y-158478593D01*
X184592323Y-158469500D01*
X184596934Y-158467971D01*
X184630419Y-158461434D01*
X184670894Y-158458642D01*
X184713431Y-158459574D01*
X184753099Y-158464206D01*
X184773603Y-158468788D01*
X184806910Y-158482802D01*
X184836988Y-158504037D01*
X184860895Y-158529853D01*
X184875686Y-158557610D01*
X184876832Y-158561391D01*
X184878948Y-158575792D01*
X184880719Y-158601654D01*
X184882110Y-158637939D01*
X184883087Y-158683609D01*
X184883618Y-158737627D01*
X184883708Y-158772380D01*
X184883743Y-158958364D01*
X184783718Y-158958364D01*
X184783718Y-158919743D01*
X184764770Y-158935687D01*
X184745426Y-158948380D01*
X184724052Y-158957657D01*
X184722572Y-158958088D01*
X184691789Y-158963122D01*
X184655335Y-158963914D01*
X184619050Y-158960670D01*
X184588775Y-158953592D01*
X184588277Y-158953415D01*
X184548546Y-158933309D01*
X184517830Y-158905522D01*
X184496896Y-158871519D01*
X184486511Y-158832767D01*
X184487018Y-158809890D01*
X184583868Y-158809890D01*
X184588943Y-158834406D01*
X184603430Y-158852436D01*
X184622582Y-158861062D01*
X184640019Y-158864948D01*
X184649310Y-158867129D01*
X184667551Y-158868973D01*
X184691875Y-158868227D01*
X184717737Y-158865400D01*
X184740592Y-158861004D01*
X184755897Y-158855552D01*
X184756727Y-158855041D01*
X184772007Y-158839765D01*
X184780746Y-158817220D01*
X184783708Y-158785370D01*
X184783718Y-158782914D01*
X184783718Y-158752063D01*
X184705163Y-158752063D01*
X184662674Y-158752933D01*
X184631100Y-158756020D01*
X184608942Y-158762037D01*
X184594704Y-158771699D01*
X184586887Y-158785719D01*
X184583994Y-158804813D01*
X184583868Y-158809890D01*
X184487018Y-158809890D01*
X184487442Y-158790733D01*
X184492160Y-158769731D01*
G37*
G36*
X183961147Y-153963406D02*
G01*
X184011844Y-153963508D01*
X184052396Y-153963748D01*
X184083982Y-153964181D01*
X184107781Y-153964864D01*
X184124972Y-153965854D01*
X184136734Y-153967207D01*
X184144246Y-153968980D01*
X184148686Y-153971228D01*
X184151235Y-153974010D01*
X184152108Y-153975505D01*
X184154678Y-153984210D01*
X184159204Y-154003795D01*
X184165398Y-154032839D01*
X184172971Y-154069921D01*
X184181633Y-154113621D01*
X184191095Y-154162520D01*
X184201068Y-154215196D01*
X184202715Y-154224004D01*
X184212763Y-154276967D01*
X184222416Y-154326209D01*
X184231379Y-154370339D01*
X184239355Y-154407968D01*
X184246050Y-154437705D01*
X184251165Y-154458161D01*
X184254407Y-154467946D01*
X184254759Y-154468457D01*
X184263050Y-154473406D01*
X184281149Y-154482103D01*
X184307202Y-154493788D01*
X184339352Y-154507700D01*
X184375746Y-154523079D01*
X184414530Y-154539166D01*
X184453848Y-154555200D01*
X184491846Y-154570422D01*
X184526669Y-154584071D01*
X184556463Y-154595387D01*
X184579374Y-154603611D01*
X184593546Y-154607981D01*
X184596449Y-154608485D01*
X184605327Y-154605783D01*
X184622018Y-154597093D01*
X184646931Y-154582158D01*
X184680477Y-154560719D01*
X184723064Y-154532517D01*
X184775103Y-154497294D01*
X184805329Y-154476601D01*
X184857697Y-154440641D01*
X184900738Y-154411134D01*
X184935437Y-154387465D01*
X184962782Y-154369019D01*
X184983759Y-154355181D01*
X184999353Y-154345336D01*
X185010552Y-154338870D01*
X185018342Y-154335169D01*
X185023709Y-154333616D01*
X185027639Y-154333597D01*
X185031120Y-154334499D01*
X185032570Y-154334967D01*
X185040560Y-154340500D01*
X185055784Y-154353775D01*
X185077068Y-154373596D01*
X185103237Y-154398767D01*
X185133115Y-154428092D01*
X185165527Y-154460373D01*
X185199298Y-154494415D01*
X185233254Y-154529023D01*
X185266218Y-154562999D01*
X185297015Y-154595147D01*
X185324472Y-154624271D01*
X185347411Y-154649176D01*
X185364659Y-154668664D01*
X185375040Y-154681539D01*
X185377615Y-154686199D01*
X185374175Y-154694076D01*
X185364375Y-154711008D01*
X185348993Y-154735784D01*
X185328809Y-154767195D01*
X185304600Y-154804031D01*
X185277147Y-154845082D01*
X185247227Y-154889138D01*
X185243207Y-154895009D01*
X185202854Y-154954317D01*
X185169586Y-155004165D01*
X185143476Y-155044440D01*
X185124595Y-155075026D01*
X185113018Y-155095809D01*
X185108815Y-155106674D01*
X185108798Y-155107039D01*
X185111265Y-155118109D01*
X185118147Y-155138451D01*
X185128667Y-155166271D01*
X185142049Y-155199776D01*
X185157517Y-155237174D01*
X185174294Y-155276672D01*
X185191604Y-155316476D01*
X185208669Y-155354794D01*
X185224714Y-155389833D01*
X185238962Y-155419799D01*
X185250636Y-155442900D01*
X185258960Y-155457343D01*
X185262200Y-155461235D01*
X185271142Y-155464301D01*
X185290912Y-155469253D01*
X185320031Y-155475780D01*
X185357017Y-155483570D01*
X185400392Y-155492311D01*
X185448676Y-155501689D01*
X185496633Y-155510699D01*
X185548208Y-155520325D01*
X185596311Y-155529474D01*
X185639453Y-155537851D01*
X185676144Y-155545158D01*
X185704892Y-155551099D01*
X185724209Y-155555378D01*
X185732389Y-155557600D01*
X185746455Y-155563510D01*
X185746455Y-155813037D01*
X185746424Y-155875644D01*
X185746298Y-155926903D01*
X185746026Y-155967969D01*
X185745559Y-155999997D01*
X185744848Y-156024144D01*
X185743842Y-156041563D01*
X185742492Y-156053409D01*
X185740748Y-156060839D01*
X185738561Y-156065007D01*
X185735881Y-156067069D01*
X185735515Y-156067233D01*
X185727027Y-156069428D01*
X185707696Y-156073615D01*
X185678973Y-156079504D01*
X185642310Y-156086806D01*
X185599156Y-156095233D01*
X185550964Y-156104496D01*
X185499886Y-156114173D01*
X185437302Y-156126073D01*
X185386124Y-156136106D01*
X185345429Y-156144480D01*
X185314294Y-156151406D01*
X185291796Y-156157095D01*
X185277011Y-156161757D01*
X185269017Y-156165601D01*
X185267399Y-156167108D01*
X185263171Y-156175448D01*
X185254987Y-156193875D01*
X185243493Y-156220850D01*
X185229333Y-156254836D01*
X185213154Y-156294294D01*
X185195600Y-156337684D01*
X185189757Y-156352250D01*
X185166766Y-156410390D01*
X185148743Y-156457565D01*
X185135535Y-156494215D01*
X185126988Y-156520780D01*
X185122947Y-156537701D01*
X185122675Y-156543813D01*
X185126784Y-156552820D01*
X185137228Y-156570777D01*
X185153175Y-156596391D01*
X185173791Y-156628366D01*
X185198245Y-156665409D01*
X185225704Y-156706226D01*
X185251526Y-156744001D01*
X185280757Y-156786746D01*
X185307592Y-156826557D01*
X185331223Y-156862192D01*
X185350844Y-156892411D01*
X185365648Y-156915972D01*
X185374828Y-156931635D01*
X185377615Y-156937948D01*
X185373317Y-156944628D01*
X185361062Y-156959065D01*
X185341804Y-156980246D01*
X185316498Y-157007158D01*
X185286098Y-157038790D01*
X185251561Y-157074130D01*
X185213840Y-157112165D01*
X185203656Y-157122343D01*
X185158398Y-157167362D01*
X185121083Y-157204140D01*
X185090928Y-157233390D01*
X185067149Y-157255827D01*
X185048962Y-157272161D01*
X185035583Y-157283106D01*
X185026229Y-157289376D01*
X185020115Y-157291681D01*
X185017673Y-157291458D01*
X185009838Y-157286975D01*
X184992983Y-157276229D01*
X184968375Y-157260066D01*
X184937281Y-157239330D01*
X184900970Y-157214865D01*
X184860708Y-157187514D01*
X184824985Y-157163082D01*
X184782442Y-157134128D01*
X184742776Y-157107574D01*
X184707250Y-157084232D01*
X184677128Y-157064915D01*
X184653673Y-157050434D01*
X184638149Y-157041601D01*
X184632152Y-157039141D01*
X184622529Y-157041990D01*
X184604245Y-157049827D01*
X184579579Y-157061591D01*
X184550814Y-157076219D01*
X184537747Y-157083128D01*
X184508011Y-157098520D01*
X184481454Y-157111313D01*
X184460329Y-157120494D01*
X184446887Y-157125047D01*
X184443996Y-157125325D01*
X184440606Y-157122452D01*
X184435281Y-157114185D01*
X184427738Y-157099879D01*
X184417691Y-157078888D01*
X184404857Y-157050569D01*
X184388951Y-157014276D01*
X184369691Y-156969365D01*
X184346790Y-156915190D01*
X184319967Y-156851107D01*
X184288935Y-156776472D01*
X184267390Y-156724449D01*
X184239701Y-156657343D01*
X184213469Y-156593434D01*
X184189081Y-156533689D01*
X184166927Y-156479076D01*
X184147393Y-156430561D01*
X184130869Y-156389111D01*
X184117743Y-156355694D01*
X184108403Y-156331276D01*
X184103237Y-156316824D01*
X184102301Y-156313273D01*
X184107759Y-156301847D01*
X184122657Y-156288321D01*
X184128870Y-156284067D01*
X184146656Y-156272132D01*
X184170060Y-156255793D01*
X184194684Y-156238131D01*
X184200392Y-156233960D01*
X184261133Y-156181961D01*
X184312184Y-156122842D01*
X184353213Y-156057777D01*
X184383886Y-155987939D01*
X184403874Y-155914501D01*
X184412842Y-155838636D01*
X184410458Y-155761516D01*
X184396391Y-155684314D01*
X184374669Y-155618684D01*
X184355103Y-155575811D01*
X184332112Y-155537186D01*
X184303393Y-155499485D01*
X184266644Y-155459386D01*
X184258589Y-155451248D01*
X184203189Y-155401993D01*
X184145487Y-155363533D01*
X184082639Y-155334173D01*
X184036660Y-155318870D01*
X183991965Y-155309565D01*
X183939790Y-155304421D01*
X183884444Y-155303439D01*
X183830236Y-155306619D01*
X183781475Y-155313961D01*
X183761592Y-155318870D01*
X183687943Y-155346327D01*
X183619930Y-155384104D01*
X183558567Y-155431119D01*
X183504869Y-155486286D01*
X183459850Y-155548523D01*
X183424525Y-155616745D01*
X183399907Y-155689870D01*
X183395233Y-155710288D01*
X183385205Y-155788841D01*
X183387194Y-155866763D01*
X183400726Y-155942831D01*
X183425328Y-156015825D01*
X183460528Y-156084520D01*
X183505853Y-156147696D01*
X183560829Y-156204131D01*
X183597860Y-156233960D01*
X183622114Y-156251478D01*
X183646222Y-156268425D01*
X183665788Y-156281721D01*
X183669382Y-156284067D01*
X183686766Y-156297750D01*
X183695398Y-156310090D01*
X183695951Y-156313273D01*
X183693612Y-156320954D01*
X183686855Y-156339210D01*
X183676067Y-156367075D01*
X183661637Y-156403580D01*
X183643953Y-156447760D01*
X183623403Y-156498647D01*
X183600376Y-156555273D01*
X183575260Y-156616673D01*
X183548443Y-156681880D01*
X183530862Y-156724449D01*
X183497071Y-156805973D01*
X183467664Y-156876543D01*
X183442357Y-156936804D01*
X183420866Y-156987400D01*
X183402907Y-157028977D01*
X183388197Y-157062179D01*
X183376450Y-157087651D01*
X183367383Y-157106039D01*
X183360712Y-157117986D01*
X183356152Y-157124138D01*
X183354256Y-157125325D01*
X183344888Y-157123117D01*
X183326850Y-157115838D01*
X183302394Y-157104502D01*
X183273773Y-157090123D01*
X183260504Y-157083128D01*
X183230676Y-157067594D01*
X183203967Y-157054468D01*
X183182659Y-157044812D01*
X183169031Y-157039687D01*
X183166100Y-157039141D01*
X183158246Y-157042579D01*
X183141396Y-157052350D01*
X183116813Y-157067642D01*
X183085761Y-157087644D01*
X183049503Y-157111542D01*
X183009302Y-157138526D01*
X182973267Y-157163082D01*
X182930677Y-157192193D01*
X182890980Y-157219125D01*
X182855443Y-157243033D01*
X182825333Y-157263073D01*
X182801918Y-157278400D01*
X182786464Y-157288169D01*
X182780578Y-157291458D01*
X182776034Y-157291190D01*
X182768720Y-157287387D01*
X182757852Y-157279336D01*
X182742647Y-157266324D01*
X182722321Y-157247638D01*
X182696090Y-157222566D01*
X182663169Y-157190395D01*
X182622776Y-157150412D01*
X182594595Y-157122343D01*
X182556205Y-157083775D01*
X182520750Y-157047639D01*
X182489186Y-157014948D01*
X182462468Y-156986715D01*
X182441549Y-156963950D01*
X182427386Y-156947668D01*
X182420934Y-156938879D01*
X182420637Y-156937948D01*
X182424080Y-156930434D01*
X182433871Y-156913907D01*
X182449204Y-156889609D01*
X182469271Y-156858781D01*
X182493266Y-156822662D01*
X182520383Y-156782495D01*
X182546726Y-156744001D01*
X182576129Y-156700944D01*
X182603256Y-156660529D01*
X182627274Y-156624050D01*
X182647351Y-156592802D01*
X182662653Y-156568078D01*
X182672348Y-156551173D01*
X182675576Y-156543813D01*
X182674435Y-156533039D01*
X182668889Y-156512911D01*
X182658786Y-156482990D01*
X182643969Y-156442836D01*
X182624286Y-156392008D01*
X182608495Y-156352250D01*
X182590635Y-156307920D01*
X182573942Y-156267027D01*
X182559062Y-156231110D01*
X182546638Y-156201708D01*
X182537317Y-156180358D01*
X182531744Y-156168600D01*
X182530853Y-156167108D01*
X182525591Y-156163560D01*
X182513950Y-156159289D01*
X182495007Y-156154085D01*
X182467839Y-156147736D01*
X182431523Y-156140034D01*
X182385136Y-156130767D01*
X182327755Y-156119726D01*
X182298366Y-156114173D01*
X182246623Y-156104369D01*
X182198488Y-156095116D01*
X182155411Y-156086702D01*
X182118843Y-156079416D01*
X182090235Y-156073547D01*
X182071039Y-156069385D01*
X182062736Y-156067233D01*
X182059992Y-156065351D01*
X182057747Y-156061504D01*
X182055952Y-156054537D01*
X182054556Y-156043295D01*
X182053511Y-156026623D01*
X182052766Y-156003366D01*
X182052272Y-155972368D01*
X182051979Y-155932474D01*
X182051837Y-155882530D01*
X182051797Y-155821380D01*
X182051796Y-155813037D01*
X182051796Y-155563510D01*
X182065862Y-155557600D01*
X182075116Y-155555125D01*
X182095181Y-155550713D01*
X182124568Y-155544660D01*
X182161787Y-155537264D01*
X182205347Y-155528820D01*
X182253759Y-155519626D01*
X182301618Y-155510699D01*
X182353136Y-155501008D01*
X182401120Y-155491665D01*
X182444090Y-155482982D01*
X182480567Y-155475271D01*
X182509070Y-155468846D01*
X182528119Y-155464017D01*
X182536051Y-155461235D01*
X182541787Y-155453366D01*
X182551377Y-155435676D01*
X182564044Y-155409958D01*
X182579012Y-155378004D01*
X182595504Y-155341609D01*
X182612744Y-155302564D01*
X182629955Y-155262663D01*
X182646360Y-155223699D01*
X182661183Y-155187465D01*
X182673648Y-155155753D01*
X182682978Y-155130357D01*
X182688397Y-155113070D01*
X182689453Y-155107039D01*
X182685739Y-155096831D01*
X182674645Y-155076699D01*
X182656244Y-155046756D01*
X182630608Y-155007116D01*
X182597810Y-154957896D01*
X182557922Y-154899208D01*
X182555045Y-154895009D01*
X182524863Y-154850652D01*
X182497045Y-154809143D01*
X182472372Y-154771693D01*
X182451622Y-154739510D01*
X182435573Y-154713805D01*
X182425005Y-154695787D01*
X182420697Y-154686667D01*
X182420637Y-154686199D01*
X182424916Y-154679244D01*
X182436968Y-154664754D01*
X182455619Y-154643924D01*
X182479693Y-154617950D01*
X182508016Y-154588030D01*
X182539412Y-154555359D01*
X182572706Y-154521134D01*
X182606722Y-154486550D01*
X182640287Y-154452804D01*
X182672224Y-154421093D01*
X182701359Y-154392611D01*
X182726516Y-154368557D01*
X182746520Y-154350125D01*
X182760196Y-154338512D01*
X182765682Y-154334967D01*
X182769344Y-154333885D01*
X182773143Y-154333541D01*
X182778065Y-154334549D01*
X182785096Y-154337523D01*
X182795224Y-154343079D01*
X182809434Y-154351831D01*
X182828712Y-154364393D01*
X182854047Y-154381381D01*
X182886424Y-154403409D01*
X182926830Y-154431091D01*
X182976252Y-154465042D01*
X182993606Y-154476970D01*
X183050558Y-154515858D01*
X183097848Y-154547582D01*
X183135878Y-154572396D01*
X183165052Y-154590554D01*
X183185772Y-154602311D01*
X183198440Y-154607922D01*
X183201797Y-154608505D01*
X183211764Y-154605986D01*
X183231254Y-154599293D01*
X183258412Y-154589186D01*
X183291379Y-154576425D01*
X183328298Y-154561772D01*
X183367311Y-154545987D01*
X183406561Y-154529832D01*
X183444190Y-154514066D01*
X183478340Y-154499451D01*
X183507153Y-154486748D01*
X183528773Y-154476716D01*
X183541342Y-154470118D01*
X183543437Y-154468591D01*
X183546367Y-154460782D01*
X183551213Y-154442058D01*
X183557680Y-154413812D01*
X183565470Y-154377436D01*
X183574288Y-154334320D01*
X183583836Y-154285856D01*
X183593818Y-154233436D01*
X183595559Y-154224108D01*
X183605562Y-154170957D01*
X183615106Y-154121349D01*
X183623901Y-154076706D01*
X183631659Y-154038450D01*
X183638091Y-154008002D01*
X183642906Y-153986783D01*
X183645818Y-153976217D01*
X183646087Y-153975610D01*
X183648149Y-153972535D01*
X183651509Y-153970024D01*
X183657345Y-153968019D01*
X183666837Y-153966464D01*
X183681166Y-153965302D01*
X183701510Y-153964476D01*
X183729048Y-153963928D01*
X183764962Y-153963603D01*
X183810430Y-153963442D01*
X183866631Y-153963388D01*
X183899126Y-153963385D01*
X183961147Y-153963406D01*
G37*
G36*
X185367295Y-157675486D02*
G01*
X185404683Y-157683594D01*
X185432158Y-157696421D01*
X185452720Y-157709129D01*
X185440520Y-157725784D01*
X185429374Y-157740055D01*
X185414083Y-157758505D01*
X185404309Y-157769863D01*
X185380297Y-157797286D01*
X185360512Y-157787054D01*
X185335575Y-157779096D01*
X185306885Y-157777181D01*
X185279775Y-157781232D01*
X185263180Y-157788468D01*
X185252270Y-157795898D01*
X185243622Y-157803178D01*
X185236943Y-157811801D01*
X185231940Y-157823263D01*
X185228320Y-157839055D01*
X185225791Y-157860674D01*
X185224058Y-157889612D01*
X185222830Y-157927364D01*
X185221813Y-157975424D01*
X185221326Y-158001878D01*
X185218200Y-158173796D01*
X185166625Y-158175611D01*
X185115050Y-158177427D01*
X185115050Y-157676293D01*
X185166625Y-157678108D01*
X185218200Y-157679924D01*
X185221326Y-157704400D01*
X185223804Y-157719413D01*
X185226912Y-157723819D01*
X185232185Y-157719481D01*
X185232969Y-157718542D01*
X185258175Y-157697131D01*
X185290995Y-157682593D01*
X185328384Y-157675265D01*
X185367295Y-157675486D01*
G37*
G36*
X184121506Y-157868460D02*
G01*
X184126502Y-157829000D01*
X184134405Y-157797404D01*
X184136555Y-157791796D01*
X184159754Y-157751152D01*
X184190843Y-157718667D01*
X184228002Y-157694621D01*
X184269414Y-157679294D01*
X184313257Y-157672968D01*
X184357715Y-157675922D01*
X184400966Y-157688438D01*
X184441192Y-157710796D01*
X184473529Y-157739813D01*
X184491421Y-157761655D01*
X184504676Y-157783350D01*
X184513932Y-157807289D01*
X184519824Y-157835867D01*
X184522988Y-157871476D01*
X184524061Y-157916509D01*
X184524076Y-157929986D01*
X184523784Y-157967881D01*
X184522898Y-157995993D01*
X184521118Y-158017039D01*
X184518143Y-158033735D01*
X184513674Y-158048799D01*
X184509811Y-158059035D01*
X184491370Y-158092013D01*
X184464392Y-158123539D01*
X184432615Y-158149797D01*
X184406858Y-158164182D01*
X184372214Y-158174546D01*
X184331970Y-158179441D01*
X184292045Y-158178265D01*
X184282256Y-158176858D01*
X184236169Y-158162832D01*
X184195489Y-158138331D01*
X184162048Y-158104762D01*
X184139063Y-158066669D01*
X184129981Y-158038055D01*
X184123654Y-158000582D01*
X184120112Y-157957596D01*
X184119614Y-157926622D01*
X184221217Y-157926622D01*
X184222648Y-157972243D01*
X184227290Y-158007237D01*
X184235962Y-158033248D01*
X184249484Y-158051919D01*
X184268675Y-158064895D01*
X184294355Y-158073820D01*
X184294593Y-158073881D01*
X184331133Y-158077735D01*
X184364176Y-158070316D01*
X184383136Y-158059466D01*
X184399187Y-158045558D01*
X184410564Y-158030017D01*
X184418008Y-158010462D01*
X184422256Y-157984510D01*
X184424048Y-157949778D01*
X184424255Y-157926860D01*
X184423996Y-157892861D01*
X184422989Y-157868662D01*
X184420888Y-157851566D01*
X184417345Y-157838874D01*
X184412015Y-157827891D01*
X184411414Y-157826856D01*
X184388888Y-157799289D01*
X184360170Y-157782568D01*
X184325487Y-157776825D01*
X184324771Y-157776823D01*
X184288643Y-157781473D01*
X184260344Y-157795670D01*
X184239209Y-157819788D01*
X184235146Y-157827059D01*
X184228871Y-157840870D01*
X184224778Y-157855081D01*
X184222430Y-157872809D01*
X184221393Y-157897170D01*
X184221217Y-157926622D01*
X184119614Y-157926622D01*
X184119386Y-157912440D01*
X184121506Y-157868460D01*
G37*
X107387000Y-157888000D02*
X107387000Y-163188000D01*
X125287000Y-157888000D02*
X107387000Y-157888000D01*
X125287000Y-159538000D02*
X125287000Y-157888000D01*
X125287000Y-163188000D02*
X125287000Y-161538000D01*
X107387000Y-163188000D02*
X125287000Y-163188000D01*
X125287000Y-159538000D02*
G75*
G03*
X125287000Y-161538000I0J-1000000D01*
G01*
X104352847Y-99906000D02*
G75*
G03*
X104412449Y-97638634I1311153J1100000D01*
G01*
X154078000Y-132588000D02*
X154008000Y-132588000D01*
X156818000Y-132588000D02*
G75*
G03*
X156818000Y-132588000I-1370000J0D01*
G01*
X161585153Y-96944000D02*
G75*
G03*
X161525551Y-99211366I-1311153J-1100000D01*
G01*
X155124000Y-144207000D02*
X155124000Y-149407000D01*
X165404000Y-144207000D02*
X165404000Y-145537000D01*
X165404000Y-146807000D02*
X165404000Y-149407000D01*
X164074000Y-144207000D02*
X165404000Y-144207000D01*
X162804000Y-144207000D02*
X155124000Y-144207000D01*
X162804000Y-144207000D02*
X162804000Y-146807000D01*
X165404000Y-149407000D02*
X155124000Y-149407000D01*
X162804000Y-146807000D02*
X165404000Y-146807000D01*
X152296000Y-100596000D02*
X149456000Y-100596000D01*
X149456000Y-100596000D02*
X149456000Y-104636000D01*
X150876000Y-105326000D02*
X150876000Y-104636000D01*
X150876000Y-99906000D02*
X150876000Y-100596000D01*
X152296000Y-104636000D02*
X152296000Y-100596000D01*
X149456000Y-104636000D02*
X152296000Y-104636000D01*
X155519000Y-153416000D02*
X155589000Y-153416000D01*
X155519000Y-153416000D02*
G75*
G03*
X155519000Y-153416000I-1370000J0D01*
G01*
X126094000Y-100778000D02*
X120634000Y-100778000D01*
X113174000Y-100778000D02*
X113174000Y-131378000D01*
X128584000Y-100718000D02*
X110684000Y-100718000D01*
X118634000Y-100778000D02*
X113174000Y-100778000D01*
X110684000Y-131438000D02*
X128584000Y-131438000D01*
X128584000Y-131438000D02*
X128584000Y-100718000D01*
X126094000Y-131378000D02*
X126094000Y-100778000D01*
X110684000Y-100718000D02*
X110684000Y-131438000D01*
X113174000Y-131378000D02*
X126094000Y-131378000D01*
X118634000Y-100778000D02*
G75*
G03*
X120634000Y-100778000I1000000J0D01*
G01*
X146414000Y-136458000D02*
X146414000Y-100778000D01*
X142764000Y-100778000D02*
X141114000Y-100778000D01*
X141114000Y-136458000D02*
X146414000Y-136458000D01*
X141114000Y-100778000D02*
X141114000Y-136458000D01*
X146414000Y-100778000D02*
X144764000Y-100778000D01*
X142764000Y-100778000D02*
G75*
G03*
X144764000Y-100778000I1000000J0D01*
G01*
X156404000Y-104588000D02*
X157734000Y-104588000D01*
X156404000Y-107188000D02*
X159064000Y-107188000D01*
X159064000Y-107188000D02*
X159064000Y-107248000D01*
X156404000Y-107248000D02*
X159064000Y-107248000D01*
X156404000Y-105918000D02*
X156404000Y-104588000D01*
X156404000Y-107188000D02*
X156404000Y-107248000D01*
X150682000Y-149472000D02*
X150682000Y-147822000D01*
X150682000Y-144172000D02*
X130242000Y-144172000D01*
X130242000Y-149472000D02*
X150682000Y-149472000D01*
X150682000Y-145822000D02*
X150682000Y-144172000D01*
X130242000Y-144172000D02*
X130242000Y-149472000D01*
X150682000Y-145822000D02*
G75*
G03*
X150682000Y-147822000I0J-1000000D01*
G01*
X95504000Y-103378000D02*
X95504000Y-100778000D01*
X95504000Y-100778000D02*
X98104000Y-100778000D01*
X98104000Y-100778000D02*
X98104000Y-131378000D01*
X92904000Y-103378000D02*
X92904000Y-131378000D01*
X92904000Y-103378000D02*
X95504000Y-103378000D01*
X92904000Y-131378000D02*
X98104000Y-131378000D01*
X92904000Y-102108000D02*
X92904000Y-100778000D01*
X92904000Y-100778000D02*
X94234000Y-100778000D01*
X125287000Y-145822000D02*
X125287000Y-144172000D01*
X125287000Y-144172000D02*
X107387000Y-144172000D01*
X107387000Y-149472000D02*
X125287000Y-149472000D01*
X125287000Y-149472000D02*
X125287000Y-147822000D01*
X107387000Y-144172000D02*
X107387000Y-149472000D01*
X125287000Y-145822000D02*
G75*
G03*
X125287000Y-147822000I0J-1000000D01*
G01*
X163344000Y-150796000D02*
X159744000Y-150796000D01*
X159188542Y-153744371D02*
G75*
G03*
X160434000Y-154996000I2355460J1098374D01*
G01*
X162684000Y-154995999D02*
G75*
G03*
X163911199Y-153749842I-1139999J2349998D01*
G01*
X163868184Y-151523205D02*
G75*
G03*
X163344000Y-150796000I-2324175J-1122789D01*
G01*
X159744000Y-150796000D02*
G75*
G03*
X159219816Y-151523205I1799991J-1849994D01*
G01*
X132020000Y-102556000D02*
X133350000Y-102556000D01*
X132020000Y-105156000D02*
X132020000Y-105216000D01*
X132020000Y-105216000D02*
X134680000Y-105216000D01*
X132020000Y-105156000D02*
X134680000Y-105156000D01*
X132020000Y-103886000D02*
X132020000Y-102556000D01*
X134680000Y-105156000D02*
X134680000Y-105216000D01*
X185016000Y-148832000D02*
X187856000Y-148832000D01*
X185016000Y-144792000D02*
X185016000Y-148832000D01*
X186436000Y-149522000D02*
X186436000Y-148832000D01*
X187856000Y-148832000D02*
X187856000Y-144792000D01*
X186436000Y-144102000D02*
X186436000Y-144792000D01*
X187856000Y-144792000D02*
X185016000Y-144792000D01*
D11*
X177038000Y-105410000D02*
X169418000Y-105410000D01*
X169418000Y-105410000D02*
X169418000Y-95250000D01*
D12*
X179578000Y-135890000D02*
X179578000Y-138430000D01*
D11*
X177038000Y-95250000D02*
X177038000Y-105410000D01*
D12*
X182248000Y-141100000D02*
X182248000Y-138430000D01*
X166878000Y-100330000D02*
X164208000Y-100330000D01*
X166878000Y-138430000D02*
X164208000Y-138430000D01*
X179578000Y-135890000D02*
X179578000Y-100330000D01*
X179578000Y-100330000D02*
X182248000Y-100330000D01*
X182248000Y-97660000D02*
X164208000Y-97660000D01*
X164208000Y-141100000D02*
X182248000Y-141100000D01*
X166878000Y-138430000D02*
X166878000Y-100330000D01*
X179578000Y-138430000D02*
X182248000Y-138430000D01*
X179578000Y-135890000D02*
X182248000Y-135890000D01*
X164208000Y-97660000D02*
X164208000Y-141100000D01*
X182248000Y-135890000D02*
X182248000Y-97660000D01*
D11*
X169418000Y-95250000D02*
X177038000Y-95250000D01*
D12*
X160020000Y-135199000D02*
X160020000Y-135269000D01*
X161390000Y-133829000D02*
G75*
G03*
X161390000Y-133829000I-1370000J0D01*
G01*
X94936000Y-98806000D02*
X94936000Y-97476000D01*
X97596000Y-100076000D02*
X97596000Y-100136000D01*
X94936000Y-100076000D02*
X94936000Y-100136000D01*
X94936000Y-97476000D02*
X96266000Y-97476000D01*
X94936000Y-100136000D02*
X97596000Y-100136000D01*
X94936000Y-100076000D02*
X97596000Y-100076000D01*
X132020000Y-100076000D02*
X134680000Y-100076000D01*
X132020000Y-100136000D02*
X134680000Y-100136000D01*
X134680000Y-100076000D02*
X134680000Y-100136000D01*
X132020000Y-98806000D02*
X132020000Y-97476000D01*
X132020000Y-100076000D02*
X132020000Y-100136000D01*
X132020000Y-97476000D02*
X133350000Y-97476000D01*
X184469000Y-149472000D02*
X184469000Y-147822000D01*
X166569000Y-144172000D02*
X166569000Y-149472000D01*
X184469000Y-144172000D02*
X166569000Y-144172000D01*
X166569000Y-149472000D02*
X184469000Y-149472000D01*
X184469000Y-145822000D02*
X184469000Y-144172000D01*
X184469000Y-145822000D02*
G75*
G03*
X184469000Y-147822000I0J-1000000D01*
G01*
X88317000Y-149472000D02*
X106217000Y-149472000D01*
X88317000Y-144172000D02*
X88317000Y-149472000D01*
X106217000Y-145822000D02*
X106217000Y-144172000D01*
X106217000Y-149472000D02*
X106217000Y-147822000D01*
X106217000Y-144172000D02*
X88317000Y-144172000D01*
X106217000Y-145822000D02*
G75*
G03*
X106217000Y-147822000I0J-1000000D01*
G01*
X170195000Y-160468000D02*
X175335000Y-160468000D01*
X168925000Y-163128000D02*
X167595000Y-163128000D01*
X170195000Y-163128000D02*
X170195000Y-160468000D01*
X175335000Y-163128000D02*
X175335000Y-160468000D01*
X167595000Y-163128000D02*
X167595000Y-161798000D01*
X170195000Y-163128000D02*
X175335000Y-163128000D01*
X154069000Y-162538000D02*
X154069000Y-158498000D01*
X152649000Y-163228000D02*
X152649000Y-162538000D01*
X154069000Y-158498000D02*
X151229000Y-158498000D01*
X151229000Y-158498000D02*
X151229000Y-162538000D01*
X152649000Y-157808000D02*
X152649000Y-158498000D01*
X151229000Y-162538000D02*
X154069000Y-162538000D01*
X154074000Y-144792000D02*
X151234000Y-144792000D01*
X154074000Y-148832000D02*
X154074000Y-144792000D01*
X152654000Y-144102000D02*
X152654000Y-144792000D01*
X151234000Y-144792000D02*
X151234000Y-148832000D01*
X152654000Y-149522000D02*
X152654000Y-148832000D01*
X151234000Y-148832000D02*
X154074000Y-148832000D01*
X184404000Y-125659000D02*
X184404000Y-125589000D01*
X185774000Y-127029000D02*
G75*
G03*
X185774000Y-127029000I-1370000J0D01*
G01*
X90872000Y-155702000D02*
X90872000Y-154372000D01*
X90872000Y-156972000D02*
X93532000Y-156972000D01*
X90872000Y-156972000D02*
X90872000Y-157032000D01*
X90872000Y-157032000D02*
X93532000Y-157032000D01*
X90872000Y-154372000D02*
X92202000Y-154372000D01*
X93532000Y-156972000D02*
X93532000Y-157032000D01*
X97342000Y-156972000D02*
X97342000Y-157032000D01*
X94682000Y-156972000D02*
X97342000Y-156972000D01*
X94682000Y-157032000D02*
X97342000Y-157032000D01*
X94682000Y-155702000D02*
X94682000Y-154372000D01*
X94682000Y-154372000D02*
X96012000Y-154372000D01*
X94682000Y-156972000D02*
X94682000Y-157032000D01*
X161544000Y-160091000D02*
X161544000Y-160161000D01*
X162914000Y-158721000D02*
G75*
G03*
X162914000Y-158721000I-1370000J0D01*
G01*
%LPC*%
D13*
X128270000Y-150562000D03*
D14*
X128270000Y-143062000D03*
D15*
X149352000Y-156718000D03*
D14*
X146812000Y-156718000D03*
X144272000Y-156718000D03*
X141732000Y-156718000D03*
X139192000Y-156718000D03*
X136652000Y-156718000D03*
X134112000Y-156718000D03*
X134112000Y-164338000D03*
X136652000Y-164338000D03*
X139192000Y-164338000D03*
X141732000Y-164338000D03*
X144272000Y-164338000D03*
X146812000Y-164338000D03*
X149352000Y-164338000D03*
D16*
X184658000Y-97282000D03*
D15*
X89154000Y-102108000D03*
D14*
X89154000Y-104648000D03*
X89154000Y-107188000D03*
X89154000Y-109728000D03*
X89154000Y-112268000D03*
X89154000Y-114808000D03*
X89154000Y-117348000D03*
X89154000Y-119888000D03*
X89154000Y-122428000D03*
X89154000Y-124968000D03*
X89154000Y-127508000D03*
X89154000Y-130048000D03*
X104394000Y-130048000D03*
X104394000Y-127508000D03*
X104394000Y-124968000D03*
X104394000Y-122428000D03*
X104394000Y-119888000D03*
X104394000Y-117348000D03*
X104394000Y-114808000D03*
X104394000Y-112268000D03*
X104394000Y-109728000D03*
X104394000Y-107188000D03*
X104394000Y-104648000D03*
X104394000Y-102108000D03*
D17*
X93980000Y-163576000D03*
D13*
X128270000Y-164278000D03*
D14*
X128270000Y-156778000D03*
D15*
X123957000Y-156728000D03*
D14*
X121417000Y-156728000D03*
X118877000Y-156728000D03*
X116337000Y-156728000D03*
X113797000Y-156728000D03*
X111257000Y-156728000D03*
X108717000Y-156728000D03*
X108717000Y-164348000D03*
X111257000Y-164348000D03*
X113797000Y-164348000D03*
X116337000Y-164348000D03*
X118877000Y-164348000D03*
X121417000Y-164348000D03*
X123957000Y-164348000D03*
D18*
X105664000Y-98806000D03*
D19*
X103124000Y-98806000D03*
D13*
X155448000Y-132588000D03*
D14*
X152908000Y-132588000D03*
D18*
X160274000Y-98044000D03*
D19*
X162814000Y-98044000D03*
D17*
X164074000Y-145537000D03*
D20*
X164074000Y-148077000D03*
X161534000Y-145537000D03*
X161534000Y-148077000D03*
X158994000Y-145537000D03*
X158994000Y-148077000D03*
X156454000Y-145537000D03*
X156454000Y-148077000D03*
D13*
X150876000Y-98866000D03*
D14*
X150876000Y-106366000D03*
D13*
X154149000Y-153416000D03*
D14*
X156689000Y-153416000D03*
D15*
X112014000Y-102108000D03*
D14*
X112014000Y-104648000D03*
X112014000Y-107188000D03*
X112014000Y-109728000D03*
X112014000Y-112268000D03*
X112014000Y-114808000D03*
X112014000Y-117348000D03*
X112014000Y-119888000D03*
X112014000Y-122428000D03*
X112014000Y-124968000D03*
X112014000Y-127508000D03*
X112014000Y-130048000D03*
X127254000Y-130048000D03*
X127254000Y-127508000D03*
X127254000Y-124968000D03*
X127254000Y-122428000D03*
X127254000Y-119888000D03*
X127254000Y-117348000D03*
X127254000Y-114808000D03*
X127254000Y-112268000D03*
X127254000Y-109728000D03*
X127254000Y-107188000D03*
X127254000Y-104648000D03*
X127254000Y-102108000D03*
D15*
X139954000Y-102108000D03*
D14*
X139954000Y-104648000D03*
X139954000Y-107188000D03*
X139954000Y-109728000D03*
X139954000Y-112268000D03*
X139954000Y-114808000D03*
X139954000Y-117348000D03*
X139954000Y-119888000D03*
X139954000Y-122428000D03*
X139954000Y-124968000D03*
X139954000Y-127508000D03*
X139954000Y-130048000D03*
X139954000Y-132588000D03*
X139954000Y-135128000D03*
X147574000Y-135128000D03*
X147574000Y-132588000D03*
X147574000Y-130048000D03*
X147574000Y-127508000D03*
X147574000Y-124968000D03*
X147574000Y-122428000D03*
X147574000Y-119888000D03*
X147574000Y-117348000D03*
X147574000Y-114808000D03*
X147574000Y-112268000D03*
X147574000Y-109728000D03*
X147574000Y-107188000D03*
X147574000Y-104648000D03*
X147574000Y-102108000D03*
D17*
X157734000Y-105918000D03*
D15*
X149352000Y-143012000D03*
D14*
X146812000Y-143012000D03*
X144272000Y-143012000D03*
X141732000Y-143012000D03*
X139192000Y-143012000D03*
X136652000Y-143012000D03*
X134112000Y-143012000D03*
X131572000Y-143012000D03*
X131572000Y-150632000D03*
X134112000Y-150632000D03*
X136652000Y-150632000D03*
X139192000Y-150632000D03*
X141732000Y-150632000D03*
X144272000Y-150632000D03*
X146812000Y-150632000D03*
X149352000Y-150632000D03*
D16*
X88138000Y-97282000D03*
D17*
X94234000Y-102108000D03*
D20*
X96774000Y-102108000D03*
X94234000Y-104648000D03*
X96774000Y-104648000D03*
X94234000Y-107188000D03*
X96774000Y-107188000D03*
X94234000Y-109728000D03*
X96774000Y-109728000D03*
X94234000Y-112268000D03*
X96774000Y-112268000D03*
X94234000Y-114808000D03*
X96774000Y-114808000D03*
X94234000Y-117348000D03*
X96774000Y-117348000D03*
X94234000Y-119888000D03*
X96774000Y-119888000D03*
X94234000Y-122428000D03*
X96774000Y-122428000D03*
X94234000Y-124968000D03*
X96774000Y-124968000D03*
X94234000Y-127508000D03*
X96774000Y-127508000D03*
X94234000Y-130048000D03*
X96774000Y-130048000D03*
D15*
X123957000Y-143012000D03*
D14*
X121417000Y-143012000D03*
X118877000Y-143012000D03*
X116337000Y-143012000D03*
X113797000Y-143012000D03*
X111257000Y-143012000D03*
X108717000Y-143012000D03*
X108717000Y-150632000D03*
X111257000Y-150632000D03*
X113797000Y-150632000D03*
X116337000Y-150632000D03*
X118877000Y-150632000D03*
X121417000Y-150632000D03*
X123957000Y-150632000D03*
D21*
X164084000Y-152646000D03*
D22*
X161544000Y-155186000D03*
X159004000Y-152646000D03*
D17*
X133350000Y-103886000D03*
D16*
X88138000Y-165100000D03*
D13*
X186436000Y-150562000D03*
D14*
X186436000Y-143062000D03*
D15*
X180848000Y-137160000D03*
D14*
X180848000Y-134620000D03*
X180848000Y-132080000D03*
X180848000Y-129540000D03*
X180848000Y-127000000D03*
X180848000Y-124460000D03*
X180848000Y-121920000D03*
X180848000Y-119380000D03*
X180848000Y-116840000D03*
X180848000Y-114300000D03*
X180848000Y-111760000D03*
X180848000Y-109220000D03*
X180848000Y-106680000D03*
X180848000Y-104140000D03*
X180848000Y-101600000D03*
X165608000Y-101600000D03*
X165608000Y-104140000D03*
X165608000Y-106680000D03*
X165608000Y-109220000D03*
X165608000Y-111760000D03*
X165608000Y-114300000D03*
X165608000Y-116840000D03*
X165608000Y-119380000D03*
X165608000Y-121920000D03*
X165608000Y-124460000D03*
X165608000Y-127000000D03*
X165608000Y-129540000D03*
X165608000Y-132080000D03*
X165608000Y-134620000D03*
X165608000Y-137160000D03*
D13*
X160020000Y-133829000D03*
D14*
X160020000Y-136369000D03*
D17*
X96266000Y-98806000D03*
X133350000Y-98806000D03*
D15*
X183139000Y-143012000D03*
D14*
X180599000Y-143012000D03*
X178059000Y-143012000D03*
X175519000Y-143012000D03*
X172979000Y-143012000D03*
X170439000Y-143012000D03*
X167899000Y-143012000D03*
X167899000Y-150632000D03*
X170439000Y-150632000D03*
X172979000Y-150632000D03*
X175519000Y-150632000D03*
X178059000Y-150632000D03*
X180599000Y-150632000D03*
X183139000Y-150632000D03*
D15*
X104887000Y-143012000D03*
D14*
X102347000Y-143012000D03*
X99807000Y-143012000D03*
X97267000Y-143012000D03*
X94727000Y-143012000D03*
X92187000Y-143012000D03*
X89647000Y-143012000D03*
X89647000Y-150632000D03*
X92187000Y-150632000D03*
X94727000Y-150632000D03*
X97267000Y-150632000D03*
X99807000Y-150632000D03*
X102347000Y-150632000D03*
X104887000Y-150632000D03*
D17*
X168925000Y-161798000D03*
D20*
X171465000Y-161798000D03*
X174005000Y-161798000D03*
D13*
X152649000Y-164268000D03*
D14*
X152649000Y-156768000D03*
D13*
X152654000Y-150562000D03*
D14*
X152654000Y-143062000D03*
D16*
X184658000Y-165100000D03*
D13*
X184404000Y-127029000D03*
D14*
X184404000Y-124489000D03*
D17*
X92202000Y-155702000D03*
X96012000Y-155702000D03*
D13*
X161544000Y-158721000D03*
D14*
X161544000Y-161261000D03*
M02*
