%FSLAX45Y45*%
G04 Gerber Fmt 4.5, Leading zero omitted, Abs format (unit mm)*
G04 Created by KiCad (PCBNEW (6.0.0)) date 2022-11-09 00:09:47*
%MOMM*%
%LPD*%
G01*
G04 APERTURE LIST*
%TA.AperFunction,Profile*%
%ADD10C,0.100000*%
%TD*%
%ADD11C,0.200000*%
%ADD12C,0.040000*%
%ADD13C,0.080000*%
%ADD14C,0.100000*%
%ADD15C,0.110000*%
G04 APERTURE END LIST*
D10*
X8458200Y-9728200D02*
X8458200Y-9906000D01*
X18465800Y-16865600D02*
G75*
G03*
X18821400Y-16510000I0J355600D01*
G01*
X8458200Y-12344400D02*
X8458200Y-14681200D01*
X18465800Y-16865600D02*
X9855200Y-16865600D01*
X17805400Y-9372600D02*
X18465800Y-9372600D01*
X8458200Y-16510000D02*
X8458200Y-14681200D01*
X8813800Y-16865600D02*
X9855200Y-16865600D01*
X8813800Y-9372600D02*
X17805400Y-9372600D01*
X18821400Y-16510000D02*
X18821400Y-9728200D01*
X18821400Y-9728200D02*
G75*
G03*
X18465800Y-9372600I-355600J0D01*
G01*
X8813800Y-9372600D02*
G75*
G03*
X8458200Y-9728200I0J-355600D01*
G01*
X8458200Y-12344400D02*
X8458200Y-9906000D01*
X8458200Y-16510000D02*
G75*
G03*
X8813800Y-16865600I355600J0D01*
G01*
D11*
D12*
X8944700Y-15878900D02*
X8984700Y-15918900D01*
X8984700Y-15878900D02*
X8944700Y-15918900D01*
X9706700Y-16412300D02*
X9746700Y-16452300D01*
X9746700Y-16412300D02*
X9706700Y-16452300D01*
X9835200Y-14178600D02*
X9875200Y-14218600D01*
X9875200Y-14178600D02*
X9835200Y-14218600D01*
X9841249Y-14401151D02*
X9881249Y-14441151D01*
X9881249Y-14401151D02*
X9841249Y-14441151D01*
X9962200Y-14508800D02*
X10002200Y-14548800D01*
X10002200Y-14508800D02*
X9962200Y-14548800D01*
X10299449Y-13118849D02*
X10339449Y-13158849D01*
X10339449Y-13118849D02*
X10299449Y-13158849D01*
X10468700Y-14558100D02*
X10508700Y-14598100D01*
X10508700Y-14558100D02*
X10468700Y-14598100D01*
X10698800Y-12222800D02*
X10738800Y-12262800D01*
X10738800Y-12222800D02*
X10698800Y-12262800D01*
X10800400Y-11841800D02*
X10840400Y-11881800D01*
X10840400Y-11841800D02*
X10800400Y-11881800D01*
X10800400Y-13188000D02*
X10840400Y-13228000D01*
X10840400Y-13188000D02*
X10800400Y-13228000D01*
X10851200Y-11333800D02*
X10891200Y-11373800D01*
X10891200Y-11333800D02*
X10851200Y-11373800D01*
X10880351Y-13260449D02*
X10920351Y-13300449D01*
X10920351Y-13260449D02*
X10880351Y-13300449D01*
X11007351Y-13539849D02*
X11047351Y-13579849D01*
X11047351Y-13539849D02*
X11007351Y-13579849D01*
X11232200Y-13391200D02*
X11272200Y-13431200D01*
X11272200Y-13391200D02*
X11232200Y-13431200D01*
X11498900Y-13632500D02*
X11538900Y-13672500D01*
X11538900Y-13632500D02*
X11498900Y-13672500D01*
X11765600Y-13442000D02*
X11805600Y-13482000D01*
X11805600Y-13442000D02*
X11765600Y-13482000D01*
X11841800Y-11740200D02*
X11881800Y-11780200D01*
X11881800Y-11740200D02*
X11841800Y-11780200D01*
X12108055Y-14521055D02*
X12148055Y-14561055D01*
X12148055Y-14521055D02*
X12108055Y-14561055D01*
X12273600Y-11206800D02*
X12313600Y-11246800D01*
X12313600Y-11206800D02*
X12273600Y-11246800D01*
X12346049Y-13539849D02*
X12386049Y-13579849D01*
X12386049Y-13539849D02*
X12346049Y-13579849D01*
X12349800Y-14686600D02*
X12389800Y-14726600D01*
X12389800Y-14686600D02*
X12349800Y-14726600D01*
X12426000Y-13442000D02*
X12466000Y-13482000D01*
X12466000Y-13442000D02*
X12426000Y-13482000D01*
X12527600Y-14000800D02*
X12567600Y-14040800D01*
X12567600Y-14000800D02*
X12527600Y-14040800D01*
X12680000Y-13365800D02*
X12720000Y-13405800D01*
X12720000Y-13365800D02*
X12680000Y-13405800D01*
X12705400Y-9860600D02*
X12745400Y-9900600D01*
X12745400Y-9860600D02*
X12705400Y-9900600D01*
X12876151Y-10070849D02*
X12916151Y-10110849D01*
X12916151Y-10070849D02*
X12876151Y-10110849D01*
X12977751Y-10324849D02*
X13017751Y-10364849D01*
X13017751Y-10324849D02*
X12977751Y-10364849D01*
X12994960Y-12187240D02*
X13034960Y-12227240D01*
X13034960Y-12187240D02*
X12994960Y-12227240D01*
X13022900Y-12438700D02*
X13062900Y-12478700D01*
X13062900Y-12438700D02*
X13022900Y-12478700D01*
X13035600Y-10571800D02*
X13075600Y-10611800D01*
X13075600Y-10571800D02*
X13035600Y-10611800D01*
X13041950Y-11954830D02*
X13081950Y-11994830D01*
X13081950Y-11954830D02*
X13041950Y-11994830D01*
X13079351Y-11848849D02*
X13119351Y-11888849D01*
X13119351Y-11848849D02*
X13079351Y-11888849D01*
X13086400Y-10698800D02*
X13126400Y-10738800D01*
X13126400Y-10698800D02*
X13086400Y-10738800D01*
X13137200Y-11714800D02*
X13177200Y-11754800D01*
X13177200Y-11714800D02*
X13137200Y-11754800D01*
X13155551Y-10832849D02*
X13195551Y-10872849D01*
X13195551Y-10832849D02*
X13155551Y-10872849D01*
X13162600Y-12349800D02*
X13202600Y-12389800D01*
X13202600Y-12349800D02*
X13162600Y-12389800D01*
X13162600Y-13365800D02*
X13202600Y-13405800D01*
X13202600Y-13365800D02*
X13162600Y-13405800D01*
X13180951Y-11848849D02*
X13220951Y-11888849D01*
X13220951Y-11848849D02*
X13180951Y-11888849D01*
X13206351Y-11594849D02*
X13246351Y-11634849D01*
X13246351Y-11594849D02*
X13206351Y-11634849D01*
X13213400Y-10952800D02*
X13253400Y-10992800D01*
X13253400Y-10952800D02*
X13213400Y-10992800D01*
X13257151Y-11086849D02*
X13297151Y-11126849D01*
X13297151Y-11086849D02*
X13257151Y-11126849D01*
X13257151Y-12610849D02*
X13297151Y-12650849D01*
X13297151Y-12610849D02*
X13257151Y-12650849D01*
X13264200Y-11460800D02*
X13304200Y-11500800D01*
X13304200Y-11460800D02*
X13264200Y-11500800D01*
X13307951Y-11594849D02*
X13347951Y-11634849D01*
X13347951Y-11594849D02*
X13307951Y-11634849D01*
X13333351Y-11340849D02*
X13373351Y-11380849D01*
X13373351Y-11340849D02*
X13333351Y-11380849D01*
X13391200Y-12984800D02*
X13431200Y-13024800D01*
X13431200Y-12984800D02*
X13391200Y-13024800D01*
X13409551Y-11086849D02*
X13449551Y-11126849D01*
X13449551Y-11086849D02*
X13409551Y-11126849D01*
X13492800Y-12730800D02*
X13532800Y-12770800D01*
X13532800Y-12730800D02*
X13492800Y-12770800D01*
X13507806Y-10836194D02*
X13547806Y-10876194D01*
X13547806Y-10836194D02*
X13507806Y-10876194D01*
X13543600Y-12553000D02*
X13583600Y-12593000D01*
X13583600Y-12553000D02*
X13543600Y-12593000D01*
X13587351Y-10578849D02*
X13627351Y-10618849D01*
X13627351Y-10578849D02*
X13587351Y-10618849D01*
X13590531Y-12269849D02*
X13630531Y-12309849D01*
X13630531Y-12269849D02*
X13590531Y-12309849D01*
X13667489Y-10310751D02*
X13707489Y-10350751D01*
X13707489Y-10310751D02*
X13667489Y-10350751D01*
X13677783Y-12042897D02*
X13717783Y-12082897D01*
X13717783Y-12042897D02*
X13677783Y-12082897D01*
X13823000Y-9860600D02*
X13863000Y-9900600D01*
X13863000Y-9860600D02*
X13823000Y-9900600D01*
X14254800Y-14737400D02*
X14294800Y-14777400D01*
X14294800Y-14737400D02*
X14254800Y-14777400D01*
X14483400Y-14788200D02*
X14523400Y-14828200D01*
X14523400Y-14788200D02*
X14483400Y-14828200D01*
X14661200Y-14661200D02*
X14701200Y-14701200D01*
X14701200Y-14661200D02*
X14661200Y-14701200D01*
X14788200Y-14559600D02*
X14828200Y-14599600D01*
X14828200Y-14559600D02*
X14788200Y-14599600D01*
X14991400Y-13492800D02*
X15031400Y-13532800D01*
X15031400Y-13492800D02*
X14991400Y-13532800D01*
X15220000Y-14000800D02*
X15260000Y-14040800D01*
X15260000Y-14000800D02*
X15220000Y-14040800D01*
X15321600Y-13492800D02*
X15361600Y-13532800D01*
X15361600Y-13492800D02*
X15321600Y-13532800D01*
X15524800Y-12603800D02*
X15564800Y-12643800D01*
X15564800Y-12603800D02*
X15524800Y-12643800D01*
X16660751Y-13307951D02*
X16700751Y-13347951D01*
X16700751Y-13307951D02*
X16660751Y-13347951D01*
X16718600Y-16617000D02*
X16758600Y-16657000D01*
X16758600Y-16617000D02*
X16718600Y-16657000D01*
X16921800Y-13569000D02*
X16961800Y-13609000D01*
X16961800Y-13569000D02*
X16921800Y-13609000D01*
X16972600Y-16591600D02*
X17012600Y-16631600D01*
X17012600Y-16591600D02*
X16972600Y-16631600D01*
X16998000Y-13696000D02*
X17038000Y-13736000D01*
X17038000Y-13696000D02*
X16998000Y-13736000D01*
X17861600Y-14000800D02*
X17901600Y-14040800D01*
X17901600Y-14000800D02*
X17861600Y-14040800D01*
X17912400Y-15651800D02*
X17952400Y-15691800D01*
X17952400Y-15651800D02*
X17912400Y-15691800D01*
X18166400Y-13061000D02*
X18206400Y-13101000D01*
X18206400Y-13061000D02*
X18166400Y-13101000D01*
X18184751Y-12814049D02*
X18224751Y-12854049D01*
X18224751Y-12814049D02*
X18184751Y-12854049D01*
D13*
X8955400Y-10210800D02*
G75*
G03*
X8955400Y-10210800I-40000J0D01*
G01*
X8955400Y-10464800D02*
G75*
G03*
X8955400Y-10464800I-40000J0D01*
G01*
X8955400Y-10718800D02*
G75*
G03*
X8955400Y-10718800I-40000J0D01*
G01*
X8955400Y-10972800D02*
G75*
G03*
X8955400Y-10972800I-40000J0D01*
G01*
X8955400Y-11226800D02*
G75*
G03*
X8955400Y-11226800I-40000J0D01*
G01*
X8955400Y-11480800D02*
G75*
G03*
X8955400Y-11480800I-40000J0D01*
G01*
X8955400Y-11734800D02*
G75*
G03*
X8955400Y-11734800I-40000J0D01*
G01*
X8955400Y-11988800D02*
G75*
G03*
X8955400Y-11988800I-40000J0D01*
G01*
X8955400Y-12242800D02*
G75*
G03*
X8955400Y-12242800I-40000J0D01*
G01*
X8955400Y-12496800D02*
G75*
G03*
X8955400Y-12496800I-40000J0D01*
G01*
X8955400Y-12750800D02*
G75*
G03*
X8955400Y-12750800I-40000J0D01*
G01*
X8955400Y-13004800D02*
G75*
G03*
X8955400Y-13004800I-40000J0D01*
G01*
X9004700Y-14301200D02*
G75*
G03*
X9004700Y-14301200I-40000J0D01*
G01*
X9004700Y-15063200D02*
G75*
G03*
X9004700Y-15063200I-40000J0D01*
G01*
X9258700Y-14301200D02*
G75*
G03*
X9258700Y-14301200I-40000J0D01*
G01*
X9258700Y-15063200D02*
G75*
G03*
X9258700Y-15063200I-40000J0D01*
G01*
X9512700Y-14301200D02*
G75*
G03*
X9512700Y-14301200I-40000J0D01*
G01*
X9512700Y-15063200D02*
G75*
G03*
X9512700Y-15063200I-40000J0D01*
G01*
X9766700Y-14301200D02*
G75*
G03*
X9766700Y-14301200I-40000J0D01*
G01*
X9766700Y-15063200D02*
G75*
G03*
X9766700Y-15063200I-40000J0D01*
G01*
X10020700Y-14301200D02*
G75*
G03*
X10020700Y-14301200I-40000J0D01*
G01*
X10020700Y-15063200D02*
G75*
G03*
X10020700Y-15063200I-40000J0D01*
G01*
X10274700Y-14301200D02*
G75*
G03*
X10274700Y-14301200I-40000J0D01*
G01*
X10274700Y-15063200D02*
G75*
G03*
X10274700Y-15063200I-40000J0D01*
G01*
X10479400Y-10210800D02*
G75*
G03*
X10479400Y-10210800I-40000J0D01*
G01*
X10479400Y-10464800D02*
G75*
G03*
X10479400Y-10464800I-40000J0D01*
G01*
X10479400Y-10718800D02*
G75*
G03*
X10479400Y-10718800I-40000J0D01*
G01*
X10479400Y-10972800D02*
G75*
G03*
X10479400Y-10972800I-40000J0D01*
G01*
X10479400Y-11226800D02*
G75*
G03*
X10479400Y-11226800I-40000J0D01*
G01*
X10479400Y-11480800D02*
G75*
G03*
X10479400Y-11480800I-40000J0D01*
G01*
X10479400Y-11734800D02*
G75*
G03*
X10479400Y-11734800I-40000J0D01*
G01*
X10479400Y-11988800D02*
G75*
G03*
X10479400Y-11988800I-40000J0D01*
G01*
X10479400Y-12242800D02*
G75*
G03*
X10479400Y-12242800I-40000J0D01*
G01*
X10479400Y-12496800D02*
G75*
G03*
X10479400Y-12496800I-40000J0D01*
G01*
X10479400Y-12750800D02*
G75*
G03*
X10479400Y-12750800I-40000J0D01*
G01*
X10479400Y-13004800D02*
G75*
G03*
X10479400Y-13004800I-40000J0D01*
G01*
X10528700Y-14301200D02*
G75*
G03*
X10528700Y-14301200I-40000J0D01*
G01*
X10528700Y-15063200D02*
G75*
G03*
X10528700Y-15063200I-40000J0D01*
G01*
X10911700Y-14301200D02*
G75*
G03*
X10911700Y-14301200I-40000J0D01*
G01*
X10911700Y-15063200D02*
G75*
G03*
X10911700Y-15063200I-40000J0D01*
G01*
X10911700Y-15672800D02*
G75*
G03*
X10911700Y-15672800I-40000J0D01*
G01*
X10911700Y-16434800D02*
G75*
G03*
X10911700Y-16434800I-40000J0D01*
G01*
X11165700Y-14301200D02*
G75*
G03*
X11165700Y-14301200I-40000J0D01*
G01*
X11165700Y-15063200D02*
G75*
G03*
X11165700Y-15063200I-40000J0D01*
G01*
X11165700Y-15672800D02*
G75*
G03*
X11165700Y-15672800I-40000J0D01*
G01*
X11165700Y-16434800D02*
G75*
G03*
X11165700Y-16434800I-40000J0D01*
G01*
X11241400Y-10210800D02*
G75*
G03*
X11241400Y-10210800I-40000J0D01*
G01*
X11241400Y-10464800D02*
G75*
G03*
X11241400Y-10464800I-40000J0D01*
G01*
X11241400Y-10718800D02*
G75*
G03*
X11241400Y-10718800I-40000J0D01*
G01*
X11241400Y-10972800D02*
G75*
G03*
X11241400Y-10972800I-40000J0D01*
G01*
X11241400Y-11226800D02*
G75*
G03*
X11241400Y-11226800I-40000J0D01*
G01*
X11241400Y-11480800D02*
G75*
G03*
X11241400Y-11480800I-40000J0D01*
G01*
X11241400Y-11734800D02*
G75*
G03*
X11241400Y-11734800I-40000J0D01*
G01*
X11241400Y-11988800D02*
G75*
G03*
X11241400Y-11988800I-40000J0D01*
G01*
X11241400Y-12242800D02*
G75*
G03*
X11241400Y-12242800I-40000J0D01*
G01*
X11241400Y-12496800D02*
G75*
G03*
X11241400Y-12496800I-40000J0D01*
G01*
X11241400Y-12750800D02*
G75*
G03*
X11241400Y-12750800I-40000J0D01*
G01*
X11241400Y-13004800D02*
G75*
G03*
X11241400Y-13004800I-40000J0D01*
G01*
X11419700Y-14301200D02*
G75*
G03*
X11419700Y-14301200I-40000J0D01*
G01*
X11419700Y-15063200D02*
G75*
G03*
X11419700Y-15063200I-40000J0D01*
G01*
X11419700Y-15672800D02*
G75*
G03*
X11419700Y-15672800I-40000J0D01*
G01*
X11419700Y-16434800D02*
G75*
G03*
X11419700Y-16434800I-40000J0D01*
G01*
X11673700Y-14301200D02*
G75*
G03*
X11673700Y-14301200I-40000J0D01*
G01*
X11673700Y-15063200D02*
G75*
G03*
X11673700Y-15063200I-40000J0D01*
G01*
X11673700Y-15672800D02*
G75*
G03*
X11673700Y-15672800I-40000J0D01*
G01*
X11673700Y-16434800D02*
G75*
G03*
X11673700Y-16434800I-40000J0D01*
G01*
X11927700Y-14301200D02*
G75*
G03*
X11927700Y-14301200I-40000J0D01*
G01*
X11927700Y-15063200D02*
G75*
G03*
X11927700Y-15063200I-40000J0D01*
G01*
X11927700Y-15672800D02*
G75*
G03*
X11927700Y-15672800I-40000J0D01*
G01*
X11927700Y-16434800D02*
G75*
G03*
X11927700Y-16434800I-40000J0D01*
G01*
X12181700Y-14301200D02*
G75*
G03*
X12181700Y-14301200I-40000J0D01*
G01*
X12181700Y-15063200D02*
G75*
G03*
X12181700Y-15063200I-40000J0D01*
G01*
X12181700Y-15672800D02*
G75*
G03*
X12181700Y-15672800I-40000J0D01*
G01*
X12181700Y-16434800D02*
G75*
G03*
X12181700Y-16434800I-40000J0D01*
G01*
X12435700Y-14301200D02*
G75*
G03*
X12435700Y-14301200I-40000J0D01*
G01*
X12435700Y-15063200D02*
G75*
G03*
X12435700Y-15063200I-40000J0D01*
G01*
X12435700Y-15672800D02*
G75*
G03*
X12435700Y-15672800I-40000J0D01*
G01*
X12435700Y-16434800D02*
G75*
G03*
X12435700Y-16434800I-40000J0D01*
G01*
X12765400Y-10210800D02*
G75*
G03*
X12765400Y-10210800I-40000J0D01*
G01*
X12765400Y-10464800D02*
G75*
G03*
X12765400Y-10464800I-40000J0D01*
G01*
X12765400Y-10718800D02*
G75*
G03*
X12765400Y-10718800I-40000J0D01*
G01*
X12765400Y-10972800D02*
G75*
G03*
X12765400Y-10972800I-40000J0D01*
G01*
X12765400Y-11226800D02*
G75*
G03*
X12765400Y-11226800I-40000J0D01*
G01*
X12765400Y-11480800D02*
G75*
G03*
X12765400Y-11480800I-40000J0D01*
G01*
X12765400Y-11734800D02*
G75*
G03*
X12765400Y-11734800I-40000J0D01*
G01*
X12765400Y-11988800D02*
G75*
G03*
X12765400Y-11988800I-40000J0D01*
G01*
X12765400Y-12242800D02*
G75*
G03*
X12765400Y-12242800I-40000J0D01*
G01*
X12765400Y-12496800D02*
G75*
G03*
X12765400Y-12496800I-40000J0D01*
G01*
X12765400Y-12750800D02*
G75*
G03*
X12765400Y-12750800I-40000J0D01*
G01*
X12765400Y-13004800D02*
G75*
G03*
X12765400Y-13004800I-40000J0D01*
G01*
X12867000Y-14306200D02*
G75*
G03*
X12867000Y-14306200I-40000J0D01*
G01*
X12867000Y-15056200D02*
G75*
G03*
X12867000Y-15056200I-40000J0D01*
G01*
X12867000Y-15677800D02*
G75*
G03*
X12867000Y-15677800I-40000J0D01*
G01*
X12867000Y-16427800D02*
G75*
G03*
X12867000Y-16427800I-40000J0D01*
G01*
X13197200Y-14301200D02*
G75*
G03*
X13197200Y-14301200I-40000J0D01*
G01*
X13197200Y-15063200D02*
G75*
G03*
X13197200Y-15063200I-40000J0D01*
G01*
X13451200Y-14301200D02*
G75*
G03*
X13451200Y-14301200I-40000J0D01*
G01*
X13451200Y-15063200D02*
G75*
G03*
X13451200Y-15063200I-40000J0D01*
G01*
X13451200Y-15671800D02*
G75*
G03*
X13451200Y-15671800I-40000J0D01*
G01*
X13451200Y-16433800D02*
G75*
G03*
X13451200Y-16433800I-40000J0D01*
G01*
X13705200Y-14301200D02*
G75*
G03*
X13705200Y-14301200I-40000J0D01*
G01*
X13705200Y-15063200D02*
G75*
G03*
X13705200Y-15063200I-40000J0D01*
G01*
X13705200Y-15671800D02*
G75*
G03*
X13705200Y-15671800I-40000J0D01*
G01*
X13705200Y-16433800D02*
G75*
G03*
X13705200Y-16433800I-40000J0D01*
G01*
X13959200Y-14301200D02*
G75*
G03*
X13959200Y-14301200I-40000J0D01*
G01*
X13959200Y-15063200D02*
G75*
G03*
X13959200Y-15063200I-40000J0D01*
G01*
X13959200Y-15671800D02*
G75*
G03*
X13959200Y-15671800I-40000J0D01*
G01*
X13959200Y-16433800D02*
G75*
G03*
X13959200Y-16433800I-40000J0D01*
G01*
X14035400Y-10210800D02*
G75*
G03*
X14035400Y-10210800I-40000J0D01*
G01*
X14035400Y-10464800D02*
G75*
G03*
X14035400Y-10464800I-40000J0D01*
G01*
X14035400Y-10718800D02*
G75*
G03*
X14035400Y-10718800I-40000J0D01*
G01*
X14035400Y-10972800D02*
G75*
G03*
X14035400Y-10972800I-40000J0D01*
G01*
X14035400Y-11226800D02*
G75*
G03*
X14035400Y-11226800I-40000J0D01*
G01*
X14035400Y-11480800D02*
G75*
G03*
X14035400Y-11480800I-40000J0D01*
G01*
X14035400Y-11734800D02*
G75*
G03*
X14035400Y-11734800I-40000J0D01*
G01*
X14035400Y-11988800D02*
G75*
G03*
X14035400Y-11988800I-40000J0D01*
G01*
X14035400Y-12242800D02*
G75*
G03*
X14035400Y-12242800I-40000J0D01*
G01*
X14035400Y-12496800D02*
G75*
G03*
X14035400Y-12496800I-40000J0D01*
G01*
X14035400Y-12750800D02*
G75*
G03*
X14035400Y-12750800I-40000J0D01*
G01*
X14035400Y-13004800D02*
G75*
G03*
X14035400Y-13004800I-40000J0D01*
G01*
X14035400Y-13258800D02*
G75*
G03*
X14035400Y-13258800I-40000J0D01*
G01*
X14035400Y-13512800D02*
G75*
G03*
X14035400Y-13512800I-40000J0D01*
G01*
X14213200Y-14301200D02*
G75*
G03*
X14213200Y-14301200I-40000J0D01*
G01*
X14213200Y-15063200D02*
G75*
G03*
X14213200Y-15063200I-40000J0D01*
G01*
X14213200Y-15671800D02*
G75*
G03*
X14213200Y-15671800I-40000J0D01*
G01*
X14213200Y-16433800D02*
G75*
G03*
X14213200Y-16433800I-40000J0D01*
G01*
X14467200Y-14301200D02*
G75*
G03*
X14467200Y-14301200I-40000J0D01*
G01*
X14467200Y-15063200D02*
G75*
G03*
X14467200Y-15063200I-40000J0D01*
G01*
X14467200Y-15671800D02*
G75*
G03*
X14467200Y-15671800I-40000J0D01*
G01*
X14467200Y-16433800D02*
G75*
G03*
X14467200Y-16433800I-40000J0D01*
G01*
X14721200Y-14301200D02*
G75*
G03*
X14721200Y-14301200I-40000J0D01*
G01*
X14721200Y-15063200D02*
G75*
G03*
X14721200Y-15063200I-40000J0D01*
G01*
X14721200Y-15671800D02*
G75*
G03*
X14721200Y-15671800I-40000J0D01*
G01*
X14721200Y-16433800D02*
G75*
G03*
X14721200Y-16433800I-40000J0D01*
G01*
X14797400Y-10210800D02*
G75*
G03*
X14797400Y-10210800I-40000J0D01*
G01*
X14797400Y-10464800D02*
G75*
G03*
X14797400Y-10464800I-40000J0D01*
G01*
X14797400Y-10718800D02*
G75*
G03*
X14797400Y-10718800I-40000J0D01*
G01*
X14797400Y-10972800D02*
G75*
G03*
X14797400Y-10972800I-40000J0D01*
G01*
X14797400Y-11226800D02*
G75*
G03*
X14797400Y-11226800I-40000J0D01*
G01*
X14797400Y-11480800D02*
G75*
G03*
X14797400Y-11480800I-40000J0D01*
G01*
X14797400Y-11734800D02*
G75*
G03*
X14797400Y-11734800I-40000J0D01*
G01*
X14797400Y-11988800D02*
G75*
G03*
X14797400Y-11988800I-40000J0D01*
G01*
X14797400Y-12242800D02*
G75*
G03*
X14797400Y-12242800I-40000J0D01*
G01*
X14797400Y-12496800D02*
G75*
G03*
X14797400Y-12496800I-40000J0D01*
G01*
X14797400Y-12750800D02*
G75*
G03*
X14797400Y-12750800I-40000J0D01*
G01*
X14797400Y-13004800D02*
G75*
G03*
X14797400Y-13004800I-40000J0D01*
G01*
X14797400Y-13258800D02*
G75*
G03*
X14797400Y-13258800I-40000J0D01*
G01*
X14797400Y-13512800D02*
G75*
G03*
X14797400Y-13512800I-40000J0D01*
G01*
X14975200Y-14301200D02*
G75*
G03*
X14975200Y-14301200I-40000J0D01*
G01*
X14975200Y-15063200D02*
G75*
G03*
X14975200Y-15063200I-40000J0D01*
G01*
X14975200Y-15671800D02*
G75*
G03*
X14975200Y-15671800I-40000J0D01*
G01*
X14975200Y-16433800D02*
G75*
G03*
X14975200Y-16433800I-40000J0D01*
G01*
X15127600Y-9886600D02*
G75*
G03*
X15127600Y-9886600I-40000J0D01*
G01*
X15127600Y-10636600D02*
G75*
G03*
X15127600Y-10636600I-40000J0D01*
G01*
X15304900Y-15676800D02*
G75*
G03*
X15304900Y-15676800I-40000J0D01*
G01*
X15304900Y-16426800D02*
G75*
G03*
X15304900Y-16426800I-40000J0D01*
G01*
X15305400Y-14306200D02*
G75*
G03*
X15305400Y-14306200I-40000J0D01*
G01*
X15305400Y-15056200D02*
G75*
G03*
X15305400Y-15056200I-40000J0D01*
G01*
X15330800Y-13258800D02*
G75*
G03*
X15330800Y-13258800I-40000J0D01*
G01*
X15454900Y-15341600D02*
G75*
G03*
X15454900Y-15341600I-40000J0D01*
G01*
X15584800Y-13258800D02*
G75*
G03*
X15584800Y-13258800I-40000J0D01*
G01*
X15708900Y-15341600D02*
G75*
G03*
X15708900Y-15341600I-40000J0D01*
G01*
X15940400Y-15264600D02*
G75*
G03*
X15940400Y-15264600I-40000J0D01*
G01*
X16042000Y-13382900D02*
G75*
G03*
X16042000Y-13382900I-40000J0D01*
G01*
X16042000Y-13636900D02*
G75*
G03*
X16042000Y-13636900I-40000J0D01*
G01*
X16194400Y-15518600D02*
G75*
G03*
X16194400Y-15518600I-40000J0D01*
G01*
X16194400Y-15872100D02*
G75*
G03*
X16194400Y-15872100I-40000J0D01*
G01*
X16194400Y-16126100D02*
G75*
G03*
X16194400Y-16126100I-40000J0D01*
G01*
X16448400Y-15264600D02*
G75*
G03*
X16448400Y-15264600I-40000J0D01*
G01*
X16829900Y-14301200D02*
G75*
G03*
X16829900Y-14301200I-40000J0D01*
G01*
X16829900Y-15063200D02*
G75*
G03*
X16829900Y-15063200I-40000J0D01*
G01*
X17083900Y-14301200D02*
G75*
G03*
X17083900Y-14301200I-40000J0D01*
G01*
X17083900Y-15063200D02*
G75*
G03*
X17083900Y-15063200I-40000J0D01*
G01*
X17337900Y-14301200D02*
G75*
G03*
X17337900Y-14301200I-40000J0D01*
G01*
X17337900Y-15063200D02*
G75*
G03*
X17337900Y-15063200I-40000J0D01*
G01*
X17591900Y-14301200D02*
G75*
G03*
X17591900Y-14301200I-40000J0D01*
G01*
X17591900Y-15063200D02*
G75*
G03*
X17591900Y-15063200I-40000J0D01*
G01*
X17845900Y-14301200D02*
G75*
G03*
X17845900Y-14301200I-40000J0D01*
G01*
X17845900Y-15063200D02*
G75*
G03*
X17845900Y-15063200I-40000J0D01*
G01*
X18099900Y-14301200D02*
G75*
G03*
X18099900Y-14301200I-40000J0D01*
G01*
X18099900Y-15063200D02*
G75*
G03*
X18099900Y-15063200I-40000J0D01*
G01*
X18353900Y-14301200D02*
G75*
G03*
X18353900Y-14301200I-40000J0D01*
G01*
X18353900Y-15063200D02*
G75*
G03*
X18353900Y-15063200I-40000J0D01*
G01*
X18480400Y-12448900D02*
G75*
G03*
X18480400Y-12448900I-40000J0D01*
G01*
X18480400Y-12702900D02*
G75*
G03*
X18480400Y-12702900I-40000J0D01*
G01*
X18683600Y-14306200D02*
G75*
G03*
X18683600Y-14306200I-40000J0D01*
G01*
X18683600Y-15056200D02*
G75*
G03*
X18683600Y-15056200I-40000J0D01*
G01*
D14*
X9220200Y-15520200D02*
X9220200Y-15620200D01*
X9170200Y-15570200D02*
X9270200Y-15570200D01*
X9398000Y-16307600D02*
X9398000Y-16407600D01*
X9348000Y-16357600D02*
X9448000Y-16357600D01*
X9423400Y-10160800D02*
X9423400Y-10260800D01*
X9373400Y-10210800D02*
X9473400Y-10210800D01*
X9423400Y-10414800D02*
X9423400Y-10514800D01*
X9373400Y-10464800D02*
X9473400Y-10464800D01*
X9423400Y-10668800D02*
X9423400Y-10768800D01*
X9373400Y-10718800D02*
X9473400Y-10718800D01*
X9423400Y-10922800D02*
X9423400Y-11022800D01*
X9373400Y-10972800D02*
X9473400Y-10972800D01*
X9423400Y-11176800D02*
X9423400Y-11276800D01*
X9373400Y-11226800D02*
X9473400Y-11226800D01*
X9423400Y-11430800D02*
X9423400Y-11530800D01*
X9373400Y-11480800D02*
X9473400Y-11480800D01*
X9423400Y-11684800D02*
X9423400Y-11784800D01*
X9373400Y-11734800D02*
X9473400Y-11734800D01*
X9423400Y-11938800D02*
X9423400Y-12038800D01*
X9373400Y-11988800D02*
X9473400Y-11988800D01*
X9423400Y-12192800D02*
X9423400Y-12292800D01*
X9373400Y-12242800D02*
X9473400Y-12242800D01*
X9423400Y-12446800D02*
X9423400Y-12546800D01*
X9373400Y-12496800D02*
X9473400Y-12496800D01*
X9423400Y-12700800D02*
X9423400Y-12800800D01*
X9373400Y-12750800D02*
X9473400Y-12750800D01*
X9423400Y-12954800D02*
X9423400Y-13054800D01*
X9373400Y-13004800D02*
X9473400Y-13004800D01*
X9601200Y-15520200D02*
X9601200Y-15620200D01*
X9551200Y-15570200D02*
X9651200Y-15570200D01*
X9626600Y-9830600D02*
X9626600Y-9930600D01*
X9576600Y-9880600D02*
X9676600Y-9880600D01*
X9677400Y-10160800D02*
X9677400Y-10260800D01*
X9627400Y-10210800D02*
X9727400Y-10210800D01*
X9677400Y-10414800D02*
X9677400Y-10514800D01*
X9627400Y-10464800D02*
X9727400Y-10464800D01*
X9677400Y-10668800D02*
X9677400Y-10768800D01*
X9627400Y-10718800D02*
X9727400Y-10718800D01*
X9677400Y-10922800D02*
X9677400Y-11022800D01*
X9627400Y-10972800D02*
X9727400Y-10972800D01*
X9677400Y-11176800D02*
X9677400Y-11276800D01*
X9627400Y-11226800D02*
X9727400Y-11226800D01*
X9677400Y-11430800D02*
X9677400Y-11530800D01*
X9627400Y-11480800D02*
X9727400Y-11480800D01*
X9677400Y-11684800D02*
X9677400Y-11784800D01*
X9627400Y-11734800D02*
X9727400Y-11734800D01*
X9677400Y-11938800D02*
X9677400Y-12038800D01*
X9627400Y-11988800D02*
X9727400Y-11988800D01*
X9677400Y-12192800D02*
X9677400Y-12292800D01*
X9627400Y-12242800D02*
X9727400Y-12242800D01*
X9677400Y-12446800D02*
X9677400Y-12546800D01*
X9627400Y-12496800D02*
X9727400Y-12496800D01*
X9677400Y-12700800D02*
X9677400Y-12800800D01*
X9627400Y-12750800D02*
X9727400Y-12750800D01*
X9677400Y-12954800D02*
X9677400Y-13054800D01*
X9627400Y-13004800D02*
X9727400Y-13004800D01*
X13335000Y-9830600D02*
X13335000Y-9930600D01*
X13285000Y-9880600D02*
X13385000Y-9880600D01*
X13335000Y-10338600D02*
X13335000Y-10438600D01*
X13285000Y-10388600D02*
X13385000Y-10388600D01*
X15645400Y-14503700D02*
X15645400Y-14603700D01*
X15595400Y-14553700D02*
X15695400Y-14553700D01*
X15645400Y-14757700D02*
X15645400Y-14857700D01*
X15595400Y-14807700D02*
X15695400Y-14807700D01*
X15773400Y-10541800D02*
X15773400Y-10641800D01*
X15723400Y-10591800D02*
X15823400Y-10591800D01*
X15899400Y-14503700D02*
X15899400Y-14603700D01*
X15849400Y-14553700D02*
X15949400Y-14553700D01*
X15899400Y-14757700D02*
X15899400Y-14857700D01*
X15849400Y-14807700D02*
X15949400Y-14807700D01*
X16153400Y-14503700D02*
X16153400Y-14603700D01*
X16103400Y-14553700D02*
X16203400Y-14553700D01*
X16153400Y-14757700D02*
X16153400Y-14857700D01*
X16103400Y-14807700D02*
X16203400Y-14807700D01*
X16407400Y-14503700D02*
X16407400Y-14603700D01*
X16357400Y-14553700D02*
X16457400Y-14553700D01*
X16407400Y-14757700D02*
X16407400Y-14857700D01*
X16357400Y-14807700D02*
X16457400Y-14807700D01*
X16560800Y-10110000D02*
X16560800Y-10210000D01*
X16510800Y-10160000D02*
X16610800Y-10160000D01*
X16560800Y-10364000D02*
X16560800Y-10464000D01*
X16510800Y-10414000D02*
X16610800Y-10414000D01*
X16560800Y-10618000D02*
X16560800Y-10718000D01*
X16510800Y-10668000D02*
X16610800Y-10668000D01*
X16560800Y-10872000D02*
X16560800Y-10972000D01*
X16510800Y-10922000D02*
X16610800Y-10922000D01*
X16560800Y-11126000D02*
X16560800Y-11226000D01*
X16510800Y-11176000D02*
X16610800Y-11176000D01*
X16560800Y-11380000D02*
X16560800Y-11480000D01*
X16510800Y-11430000D02*
X16610800Y-11430000D01*
X16560800Y-11634000D02*
X16560800Y-11734000D01*
X16510800Y-11684000D02*
X16610800Y-11684000D01*
X16560800Y-11888000D02*
X16560800Y-11988000D01*
X16510800Y-11938000D02*
X16610800Y-11938000D01*
X16560800Y-12142000D02*
X16560800Y-12242000D01*
X16510800Y-12192000D02*
X16610800Y-12192000D01*
X16560800Y-12396000D02*
X16560800Y-12496000D01*
X16510800Y-12446000D02*
X16610800Y-12446000D01*
X16560800Y-12650000D02*
X16560800Y-12750000D01*
X16510800Y-12700000D02*
X16610800Y-12700000D01*
X16560800Y-12904000D02*
X16560800Y-13004000D01*
X16510800Y-12954000D02*
X16610800Y-12954000D01*
X16560800Y-13158000D02*
X16560800Y-13258000D01*
X16510800Y-13208000D02*
X16610800Y-13208000D01*
X16560800Y-13412000D02*
X16560800Y-13512000D01*
X16510800Y-13462000D02*
X16610800Y-13462000D01*
X16560800Y-13666000D02*
X16560800Y-13766000D01*
X16510800Y-13716000D02*
X16610800Y-13716000D01*
X16892500Y-16129800D02*
X16892500Y-16229800D01*
X16842500Y-16179800D02*
X16942500Y-16179800D01*
X17146500Y-16129800D02*
X17146500Y-16229800D01*
X17096500Y-16179800D02*
X17196500Y-16179800D01*
X17400500Y-16129800D02*
X17400500Y-16229800D01*
X17350500Y-16179800D02*
X17450500Y-16179800D01*
X18084800Y-10110000D02*
X18084800Y-10210000D01*
X18034800Y-10160000D02*
X18134800Y-10160000D01*
X18084800Y-10364000D02*
X18084800Y-10464000D01*
X18034800Y-10414000D02*
X18134800Y-10414000D01*
X18084800Y-10618000D02*
X18084800Y-10718000D01*
X18034800Y-10668000D02*
X18134800Y-10668000D01*
X18084800Y-10872000D02*
X18084800Y-10972000D01*
X18034800Y-10922000D02*
X18134800Y-10922000D01*
X18084800Y-11126000D02*
X18084800Y-11226000D01*
X18034800Y-11176000D02*
X18134800Y-11176000D01*
X18084800Y-11380000D02*
X18084800Y-11480000D01*
X18034800Y-11430000D02*
X18134800Y-11430000D01*
X18084800Y-11634000D02*
X18084800Y-11734000D01*
X18034800Y-11684000D02*
X18134800Y-11684000D01*
X18084800Y-11888000D02*
X18084800Y-11988000D01*
X18034800Y-11938000D02*
X18134800Y-11938000D01*
X18084800Y-12142000D02*
X18084800Y-12242000D01*
X18034800Y-12192000D02*
X18134800Y-12192000D01*
X18084800Y-12396000D02*
X18084800Y-12496000D01*
X18034800Y-12446000D02*
X18134800Y-12446000D01*
X18084800Y-12650000D02*
X18084800Y-12750000D01*
X18034800Y-12700000D02*
X18134800Y-12700000D01*
X18084800Y-12904000D02*
X18084800Y-13004000D01*
X18034800Y-12954000D02*
X18134800Y-12954000D01*
X18084800Y-13158000D02*
X18084800Y-13258000D01*
X18034800Y-13208000D02*
X18134800Y-13208000D01*
X18084800Y-13412000D02*
X18084800Y-13512000D01*
X18034800Y-13462000D02*
X18134800Y-13462000D01*
X18084800Y-13666000D02*
X18084800Y-13766000D01*
X18034800Y-13716000D02*
X18134800Y-13716000D01*
D15*
X10351291Y-9919491D02*
X10351291Y-9841709D01*
X10273509Y-9841709D01*
X10273509Y-9919491D01*
X10351291Y-9919491D01*
X10605291Y-9919491D02*
X10605291Y-9841709D01*
X10527509Y-9841709D01*
X10527509Y-9919491D01*
X10605291Y-9919491D01*
X16066291Y-9843291D02*
X16066291Y-9765509D01*
X15988509Y-9765509D01*
X15988509Y-9843291D01*
X16066291Y-9843291D01*
X16320291Y-9843291D02*
X16320291Y-9765509D01*
X16242509Y-9765509D01*
X16242509Y-9843291D01*
X16320291Y-9843291D01*
D11*
X8710819Y-17181076D02*
X8710819Y-16981076D01*
X8758438Y-16981076D01*
X8787010Y-16990600D01*
X8806057Y-17009648D01*
X8815581Y-17028695D01*
X8825105Y-17066790D01*
X8825105Y-17095362D01*
X8815581Y-17133457D01*
X8806057Y-17152505D01*
X8787010Y-17171552D01*
X8758438Y-17181076D01*
X8710819Y-17181076D01*
X8910819Y-17181076D02*
X8910819Y-17047743D01*
X8910819Y-17085838D02*
X8920343Y-17066790D01*
X8929867Y-17057267D01*
X8948914Y-17047743D01*
X8967962Y-17047743D01*
X9034629Y-17181076D02*
X9034629Y-17047743D01*
X9034629Y-16981076D02*
X9025105Y-16990600D01*
X9034629Y-17000124D01*
X9044152Y-16990600D01*
X9034629Y-16981076D01*
X9034629Y-17000124D01*
X9158438Y-17181076D02*
X9139390Y-17171552D01*
X9129867Y-17152505D01*
X9129867Y-16981076D01*
X9263200Y-17181076D02*
X9244152Y-17171552D01*
X9234629Y-17152505D01*
X9234629Y-16981076D01*
X9491771Y-17181076D02*
X9491771Y-16981076D01*
X9558438Y-17123933D01*
X9625105Y-16981076D01*
X9625105Y-17181076D01*
X9806057Y-17181076D02*
X9806057Y-17076314D01*
X9796533Y-17057267D01*
X9777486Y-17047743D01*
X9739390Y-17047743D01*
X9720343Y-17057267D01*
X9806057Y-17171552D02*
X9787010Y-17181076D01*
X9739390Y-17181076D01*
X9720343Y-17171552D01*
X9710819Y-17152505D01*
X9710819Y-17133457D01*
X9720343Y-17114410D01*
X9739390Y-17104886D01*
X9787010Y-17104886D01*
X9806057Y-17095362D01*
X9901295Y-17047743D02*
X9901295Y-17247743D01*
X9901295Y-17057267D02*
X9920343Y-17047743D01*
X9958438Y-17047743D01*
X9977486Y-17057267D01*
X9987010Y-17066790D01*
X9996533Y-17085838D01*
X9996533Y-17142981D01*
X9987010Y-17162029D01*
X9977486Y-17171552D01*
X9958438Y-17181076D01*
X9920343Y-17181076D01*
X9901295Y-17171552D01*
X10082248Y-17162029D02*
X10091771Y-17171552D01*
X10082248Y-17181076D01*
X10072724Y-17171552D01*
X10082248Y-17162029D01*
X10082248Y-17181076D01*
X10082248Y-17057267D02*
X10091771Y-17066790D01*
X10082248Y-17076314D01*
X10072724Y-17066790D01*
X10082248Y-17057267D01*
X10082248Y-17076314D01*
D12*
X8413200Y-17490600D02*
X8453200Y-17530600D01*
X8453200Y-17490600D02*
X8413200Y-17530600D01*
D11*
X8748914Y-17401076D02*
X8767962Y-17401076D01*
X8787010Y-17410600D01*
X8796533Y-17420124D01*
X8806057Y-17439171D01*
X8815581Y-17477267D01*
X8815581Y-17524886D01*
X8806057Y-17562981D01*
X8796533Y-17582029D01*
X8787010Y-17591552D01*
X8767962Y-17601076D01*
X8748914Y-17601076D01*
X8729867Y-17591552D01*
X8720343Y-17582029D01*
X8710819Y-17562981D01*
X8701295Y-17524886D01*
X8701295Y-17477267D01*
X8710819Y-17439171D01*
X8720343Y-17420124D01*
X8729867Y-17410600D01*
X8748914Y-17401076D01*
X8901295Y-17582029D02*
X8910819Y-17591552D01*
X8901295Y-17601076D01*
X8891771Y-17591552D01*
X8901295Y-17582029D01*
X8901295Y-17601076D01*
X9082248Y-17467743D02*
X9082248Y-17601076D01*
X9034629Y-17391552D02*
X8987010Y-17534410D01*
X9110819Y-17534410D01*
X9225105Y-17401076D02*
X9244152Y-17401076D01*
X9263200Y-17410600D01*
X9272724Y-17420124D01*
X9282248Y-17439171D01*
X9291771Y-17477267D01*
X9291771Y-17524886D01*
X9282248Y-17562981D01*
X9272724Y-17582029D01*
X9263200Y-17591552D01*
X9244152Y-17601076D01*
X9225105Y-17601076D01*
X9206057Y-17591552D01*
X9196533Y-17582029D01*
X9187010Y-17562981D01*
X9177486Y-17524886D01*
X9177486Y-17477267D01*
X9187010Y-17439171D01*
X9196533Y-17420124D01*
X9206057Y-17410600D01*
X9225105Y-17401076D01*
X9415581Y-17401076D02*
X9434629Y-17401076D01*
X9453676Y-17410600D01*
X9463200Y-17420124D01*
X9472724Y-17439171D01*
X9482248Y-17477267D01*
X9482248Y-17524886D01*
X9472724Y-17562981D01*
X9463200Y-17582029D01*
X9453676Y-17591552D01*
X9434629Y-17601076D01*
X9415581Y-17601076D01*
X9396533Y-17591552D01*
X9387010Y-17582029D01*
X9377486Y-17562981D01*
X9367962Y-17524886D01*
X9367962Y-17477267D01*
X9377486Y-17439171D01*
X9387010Y-17420124D01*
X9396533Y-17410600D01*
X9415581Y-17401076D01*
X9567962Y-17601076D02*
X9567962Y-17467743D01*
X9567962Y-17486790D02*
X9577486Y-17477267D01*
X9596533Y-17467743D01*
X9625105Y-17467743D01*
X9644152Y-17477267D01*
X9653676Y-17496314D01*
X9653676Y-17601076D01*
X9653676Y-17496314D02*
X9663200Y-17477267D01*
X9682248Y-17467743D01*
X9710819Y-17467743D01*
X9729867Y-17477267D01*
X9739390Y-17496314D01*
X9739390Y-17601076D01*
X9834629Y-17601076D02*
X9834629Y-17467743D01*
X9834629Y-17486790D02*
X9844152Y-17477267D01*
X9863200Y-17467743D01*
X9891771Y-17467743D01*
X9910819Y-17477267D01*
X9920343Y-17496314D01*
X9920343Y-17601076D01*
X9920343Y-17496314D02*
X9929867Y-17477267D01*
X9948914Y-17467743D01*
X9977486Y-17467743D01*
X9996533Y-17477267D01*
X10006057Y-17496314D01*
X10006057Y-17601076D01*
X10396533Y-17391552D02*
X10225105Y-17648695D01*
X10653676Y-17401076D02*
X10672724Y-17401076D01*
X10691771Y-17410600D01*
X10701295Y-17420124D01*
X10710819Y-17439171D01*
X10720343Y-17477267D01*
X10720343Y-17524886D01*
X10710819Y-17562981D01*
X10701295Y-17582029D01*
X10691771Y-17591552D01*
X10672724Y-17601076D01*
X10653676Y-17601076D01*
X10634629Y-17591552D01*
X10625105Y-17582029D01*
X10615581Y-17562981D01*
X10606057Y-17524886D01*
X10606057Y-17477267D01*
X10615581Y-17439171D01*
X10625105Y-17420124D01*
X10634629Y-17410600D01*
X10653676Y-17401076D01*
X10806057Y-17582029D02*
X10815581Y-17591552D01*
X10806057Y-17601076D01*
X10796533Y-17591552D01*
X10806057Y-17582029D01*
X10806057Y-17601076D01*
X10939390Y-17401076D02*
X10958438Y-17401076D01*
X10977486Y-17410600D01*
X10987010Y-17420124D01*
X10996533Y-17439171D01*
X11006057Y-17477267D01*
X11006057Y-17524886D01*
X10996533Y-17562981D01*
X10987010Y-17582029D01*
X10977486Y-17591552D01*
X10958438Y-17601076D01*
X10939390Y-17601076D01*
X10920343Y-17591552D01*
X10910819Y-17582029D01*
X10901295Y-17562981D01*
X10891771Y-17524886D01*
X10891771Y-17477267D01*
X10901295Y-17439171D01*
X10910819Y-17420124D01*
X10920343Y-17410600D01*
X10939390Y-17401076D01*
X11196533Y-17601076D02*
X11082248Y-17601076D01*
X11139390Y-17601076D02*
X11139390Y-17401076D01*
X11120343Y-17429648D01*
X11101295Y-17448695D01*
X11082248Y-17458219D01*
X11377486Y-17401076D02*
X11282248Y-17401076D01*
X11272724Y-17496314D01*
X11282248Y-17486790D01*
X11301295Y-17477267D01*
X11348914Y-17477267D01*
X11367962Y-17486790D01*
X11377486Y-17496314D01*
X11387009Y-17515362D01*
X11387009Y-17562981D01*
X11377486Y-17582029D01*
X11367962Y-17591552D01*
X11348914Y-17601076D01*
X11301295Y-17601076D01*
X11282248Y-17591552D01*
X11272724Y-17582029D01*
X11453676Y-17401076D02*
X11587009Y-17401076D01*
X11501295Y-17601076D01*
X11653676Y-17401076D02*
X11653676Y-17439171D01*
X11729867Y-17401076D02*
X11729867Y-17439171D01*
X12025105Y-17677267D02*
X12015581Y-17667743D01*
X11996533Y-17639171D01*
X11987009Y-17620124D01*
X11977486Y-17591552D01*
X11967962Y-17543933D01*
X11967962Y-17505838D01*
X11977486Y-17458219D01*
X11987009Y-17429648D01*
X11996533Y-17410600D01*
X12015581Y-17382029D01*
X12025105Y-17372505D01*
X12082248Y-17401076D02*
X12215581Y-17401076D01*
X12129867Y-17601076D01*
X12282248Y-17420124D02*
X12291771Y-17410600D01*
X12310819Y-17401076D01*
X12358438Y-17401076D01*
X12377486Y-17410600D01*
X12387009Y-17420124D01*
X12396533Y-17439171D01*
X12396533Y-17458219D01*
X12387009Y-17486790D01*
X12272724Y-17601076D01*
X12396533Y-17601076D01*
X12634628Y-17601076D02*
X12634628Y-17401076D01*
X12720343Y-17601076D02*
X12720343Y-17496314D01*
X12710819Y-17477267D01*
X12691771Y-17467743D01*
X12663200Y-17467743D01*
X12644152Y-17477267D01*
X12634628Y-17486790D01*
X12844152Y-17601076D02*
X12825105Y-17591552D01*
X12815581Y-17582029D01*
X12806057Y-17562981D01*
X12806057Y-17505838D01*
X12815581Y-17486790D01*
X12825105Y-17477267D01*
X12844152Y-17467743D01*
X12872724Y-17467743D01*
X12891771Y-17477267D01*
X12901295Y-17486790D01*
X12910819Y-17505838D01*
X12910819Y-17562981D01*
X12901295Y-17582029D01*
X12891771Y-17591552D01*
X12872724Y-17601076D01*
X12844152Y-17601076D01*
X13025105Y-17601076D02*
X13006057Y-17591552D01*
X12996533Y-17572505D01*
X12996533Y-17401076D01*
X13177486Y-17591552D02*
X13158438Y-17601076D01*
X13120343Y-17601076D01*
X13101295Y-17591552D01*
X13091771Y-17572505D01*
X13091771Y-17496314D01*
X13101295Y-17477267D01*
X13120343Y-17467743D01*
X13158438Y-17467743D01*
X13177486Y-17477267D01*
X13187009Y-17496314D01*
X13187009Y-17515362D01*
X13091771Y-17534410D01*
X13263200Y-17591552D02*
X13282248Y-17601076D01*
X13320343Y-17601076D01*
X13339390Y-17591552D01*
X13348914Y-17572505D01*
X13348914Y-17562981D01*
X13339390Y-17543933D01*
X13320343Y-17534410D01*
X13291771Y-17534410D01*
X13272724Y-17524886D01*
X13263200Y-17505838D01*
X13263200Y-17496314D01*
X13272724Y-17477267D01*
X13291771Y-17467743D01*
X13320343Y-17467743D01*
X13339390Y-17477267D01*
X13415581Y-17677267D02*
X13425105Y-17667743D01*
X13444152Y-17639171D01*
X13453676Y-17620124D01*
X13463200Y-17591552D01*
X13472724Y-17543933D01*
X13472724Y-17505838D01*
X13463200Y-17458219D01*
X13453676Y-17429648D01*
X13444152Y-17410600D01*
X13425105Y-17382029D01*
X13415581Y-17372505D01*
D13*
X8453200Y-17774600D02*
G75*
G03*
X8453200Y-17774600I-40000J0D01*
G01*
D11*
X8748914Y-17665076D02*
X8767962Y-17665076D01*
X8787010Y-17674600D01*
X8796533Y-17684124D01*
X8806057Y-17703171D01*
X8815581Y-17741267D01*
X8815581Y-17788886D01*
X8806057Y-17826981D01*
X8796533Y-17846029D01*
X8787010Y-17855552D01*
X8767962Y-17865076D01*
X8748914Y-17865076D01*
X8729867Y-17855552D01*
X8720343Y-17846029D01*
X8710819Y-17826981D01*
X8701295Y-17788886D01*
X8701295Y-17741267D01*
X8710819Y-17703171D01*
X8720343Y-17684124D01*
X8729867Y-17674600D01*
X8748914Y-17665076D01*
X8901295Y-17846029D02*
X8910819Y-17855552D01*
X8901295Y-17865076D01*
X8891771Y-17855552D01*
X8901295Y-17846029D01*
X8901295Y-17865076D01*
X9025105Y-17750790D02*
X9006057Y-17741267D01*
X8996533Y-17731743D01*
X8987010Y-17712695D01*
X8987010Y-17703171D01*
X8996533Y-17684124D01*
X9006057Y-17674600D01*
X9025105Y-17665076D01*
X9063200Y-17665076D01*
X9082248Y-17674600D01*
X9091771Y-17684124D01*
X9101295Y-17703171D01*
X9101295Y-17712695D01*
X9091771Y-17731743D01*
X9082248Y-17741267D01*
X9063200Y-17750790D01*
X9025105Y-17750790D01*
X9006057Y-17760314D01*
X8996533Y-17769838D01*
X8987010Y-17788886D01*
X8987010Y-17826981D01*
X8996533Y-17846029D01*
X9006057Y-17855552D01*
X9025105Y-17865076D01*
X9063200Y-17865076D01*
X9082248Y-17855552D01*
X9091771Y-17846029D01*
X9101295Y-17826981D01*
X9101295Y-17788886D01*
X9091771Y-17769838D01*
X9082248Y-17760314D01*
X9063200Y-17750790D01*
X9225105Y-17665076D02*
X9244152Y-17665076D01*
X9263200Y-17674600D01*
X9272724Y-17684124D01*
X9282248Y-17703171D01*
X9291771Y-17741267D01*
X9291771Y-17788886D01*
X9282248Y-17826981D01*
X9272724Y-17846029D01*
X9263200Y-17855552D01*
X9244152Y-17865076D01*
X9225105Y-17865076D01*
X9206057Y-17855552D01*
X9196533Y-17846029D01*
X9187010Y-17826981D01*
X9177486Y-17788886D01*
X9177486Y-17741267D01*
X9187010Y-17703171D01*
X9196533Y-17684124D01*
X9206057Y-17674600D01*
X9225105Y-17665076D01*
X9415581Y-17665076D02*
X9434629Y-17665076D01*
X9453676Y-17674600D01*
X9463200Y-17684124D01*
X9472724Y-17703171D01*
X9482248Y-17741267D01*
X9482248Y-17788886D01*
X9472724Y-17826981D01*
X9463200Y-17846029D01*
X9453676Y-17855552D01*
X9434629Y-17865076D01*
X9415581Y-17865076D01*
X9396533Y-17855552D01*
X9387010Y-17846029D01*
X9377486Y-17826981D01*
X9367962Y-17788886D01*
X9367962Y-17741267D01*
X9377486Y-17703171D01*
X9387010Y-17684124D01*
X9396533Y-17674600D01*
X9415581Y-17665076D01*
X9567962Y-17865076D02*
X9567962Y-17731743D01*
X9567962Y-17750790D02*
X9577486Y-17741267D01*
X9596533Y-17731743D01*
X9625105Y-17731743D01*
X9644152Y-17741267D01*
X9653676Y-17760314D01*
X9653676Y-17865076D01*
X9653676Y-17760314D02*
X9663200Y-17741267D01*
X9682248Y-17731743D01*
X9710819Y-17731743D01*
X9729867Y-17741267D01*
X9739390Y-17760314D01*
X9739390Y-17865076D01*
X9834629Y-17865076D02*
X9834629Y-17731743D01*
X9834629Y-17750790D02*
X9844152Y-17741267D01*
X9863200Y-17731743D01*
X9891771Y-17731743D01*
X9910819Y-17741267D01*
X9920343Y-17760314D01*
X9920343Y-17865076D01*
X9920343Y-17760314D02*
X9929867Y-17741267D01*
X9948914Y-17731743D01*
X9977486Y-17731743D01*
X9996533Y-17741267D01*
X10006057Y-17760314D01*
X10006057Y-17865076D01*
X10396533Y-17655552D02*
X10225105Y-17912695D01*
X10653676Y-17665076D02*
X10672724Y-17665076D01*
X10691771Y-17674600D01*
X10701295Y-17684124D01*
X10710819Y-17703171D01*
X10720343Y-17741267D01*
X10720343Y-17788886D01*
X10710819Y-17826981D01*
X10701295Y-17846029D01*
X10691771Y-17855552D01*
X10672724Y-17865076D01*
X10653676Y-17865076D01*
X10634629Y-17855552D01*
X10625105Y-17846029D01*
X10615581Y-17826981D01*
X10606057Y-17788886D01*
X10606057Y-17741267D01*
X10615581Y-17703171D01*
X10625105Y-17684124D01*
X10634629Y-17674600D01*
X10653676Y-17665076D01*
X10806057Y-17846029D02*
X10815581Y-17855552D01*
X10806057Y-17865076D01*
X10796533Y-17855552D01*
X10806057Y-17846029D01*
X10806057Y-17865076D01*
X10939390Y-17665076D02*
X10958438Y-17665076D01*
X10977486Y-17674600D01*
X10987010Y-17684124D01*
X10996533Y-17703171D01*
X11006057Y-17741267D01*
X11006057Y-17788886D01*
X10996533Y-17826981D01*
X10987010Y-17846029D01*
X10977486Y-17855552D01*
X10958438Y-17865076D01*
X10939390Y-17865076D01*
X10920343Y-17855552D01*
X10910819Y-17846029D01*
X10901295Y-17826981D01*
X10891771Y-17788886D01*
X10891771Y-17741267D01*
X10901295Y-17703171D01*
X10910819Y-17684124D01*
X10920343Y-17674600D01*
X10939390Y-17665076D01*
X11072724Y-17665076D02*
X11196533Y-17665076D01*
X11129867Y-17741267D01*
X11158438Y-17741267D01*
X11177486Y-17750790D01*
X11187009Y-17760314D01*
X11196533Y-17779362D01*
X11196533Y-17826981D01*
X11187009Y-17846029D01*
X11177486Y-17855552D01*
X11158438Y-17865076D01*
X11101295Y-17865076D01*
X11082248Y-17855552D01*
X11072724Y-17846029D01*
X11387009Y-17865076D02*
X11272724Y-17865076D01*
X11329867Y-17865076D02*
X11329867Y-17665076D01*
X11310819Y-17693648D01*
X11291771Y-17712695D01*
X11272724Y-17722219D01*
X11567962Y-17665076D02*
X11472724Y-17665076D01*
X11463200Y-17760314D01*
X11472724Y-17750790D01*
X11491771Y-17741267D01*
X11539390Y-17741267D01*
X11558438Y-17750790D01*
X11567962Y-17760314D01*
X11577486Y-17779362D01*
X11577486Y-17826981D01*
X11567962Y-17846029D01*
X11558438Y-17855552D01*
X11539390Y-17865076D01*
X11491771Y-17865076D01*
X11472724Y-17855552D01*
X11463200Y-17846029D01*
X11653676Y-17665076D02*
X11653676Y-17703171D01*
X11729867Y-17665076D02*
X11729867Y-17703171D01*
X12025105Y-17941267D02*
X12015581Y-17931743D01*
X11996533Y-17903171D01*
X11987009Y-17884124D01*
X11977486Y-17855552D01*
X11967962Y-17807933D01*
X11967962Y-17769838D01*
X11977486Y-17722219D01*
X11987009Y-17693648D01*
X11996533Y-17674600D01*
X12015581Y-17646029D01*
X12025105Y-17636505D01*
X12206057Y-17865076D02*
X12091771Y-17865076D01*
X12148914Y-17865076D02*
X12148914Y-17665076D01*
X12129867Y-17693648D01*
X12110819Y-17712695D01*
X12091771Y-17722219D01*
X12320343Y-17750790D02*
X12301295Y-17741267D01*
X12291771Y-17731743D01*
X12282248Y-17712695D01*
X12282248Y-17703171D01*
X12291771Y-17684124D01*
X12301295Y-17674600D01*
X12320343Y-17665076D01*
X12358438Y-17665076D01*
X12377486Y-17674600D01*
X12387009Y-17684124D01*
X12396533Y-17703171D01*
X12396533Y-17712695D01*
X12387009Y-17731743D01*
X12377486Y-17741267D01*
X12358438Y-17750790D01*
X12320343Y-17750790D01*
X12301295Y-17760314D01*
X12291771Y-17769838D01*
X12282248Y-17788886D01*
X12282248Y-17826981D01*
X12291771Y-17846029D01*
X12301295Y-17855552D01*
X12320343Y-17865076D01*
X12358438Y-17865076D01*
X12377486Y-17855552D01*
X12387009Y-17846029D01*
X12396533Y-17826981D01*
X12396533Y-17788886D01*
X12387009Y-17769838D01*
X12377486Y-17760314D01*
X12358438Y-17750790D01*
X12463200Y-17665076D02*
X12596533Y-17665076D01*
X12510819Y-17865076D01*
X12825105Y-17865076D02*
X12825105Y-17665076D01*
X12910819Y-17865076D02*
X12910819Y-17760314D01*
X12901295Y-17741267D01*
X12882248Y-17731743D01*
X12853676Y-17731743D01*
X12834628Y-17741267D01*
X12825105Y-17750790D01*
X13034628Y-17865076D02*
X13015581Y-17855552D01*
X13006057Y-17846029D01*
X12996533Y-17826981D01*
X12996533Y-17769838D01*
X13006057Y-17750790D01*
X13015581Y-17741267D01*
X13034628Y-17731743D01*
X13063200Y-17731743D01*
X13082248Y-17741267D01*
X13091771Y-17750790D01*
X13101295Y-17769838D01*
X13101295Y-17826981D01*
X13091771Y-17846029D01*
X13082248Y-17855552D01*
X13063200Y-17865076D01*
X13034628Y-17865076D01*
X13215581Y-17865076D02*
X13196533Y-17855552D01*
X13187009Y-17836505D01*
X13187009Y-17665076D01*
X13367962Y-17855552D02*
X13348914Y-17865076D01*
X13310819Y-17865076D01*
X13291771Y-17855552D01*
X13282248Y-17836505D01*
X13282248Y-17760314D01*
X13291771Y-17741267D01*
X13310819Y-17731743D01*
X13348914Y-17731743D01*
X13367962Y-17741267D01*
X13377486Y-17760314D01*
X13377486Y-17779362D01*
X13282248Y-17798410D01*
X13453676Y-17855552D02*
X13472724Y-17865076D01*
X13510819Y-17865076D01*
X13529867Y-17855552D01*
X13539390Y-17836505D01*
X13539390Y-17826981D01*
X13529867Y-17807933D01*
X13510819Y-17798410D01*
X13482248Y-17798410D01*
X13463200Y-17788886D01*
X13453676Y-17769838D01*
X13453676Y-17760314D01*
X13463200Y-17741267D01*
X13482248Y-17731743D01*
X13510819Y-17731743D01*
X13529867Y-17741267D01*
X13606057Y-17941267D02*
X13615581Y-17931743D01*
X13634628Y-17903171D01*
X13644152Y-17884124D01*
X13653676Y-17855552D01*
X13663200Y-17807933D01*
X13663200Y-17769838D01*
X13653676Y-17722219D01*
X13644152Y-17693648D01*
X13634628Y-17674600D01*
X13615581Y-17646029D01*
X13606057Y-17636505D01*
D14*
X8403200Y-17988600D02*
X8403200Y-18088600D01*
X8353200Y-18038600D02*
X8453200Y-18038600D01*
D11*
X8815581Y-18129076D02*
X8701295Y-18129076D01*
X8758438Y-18129076D02*
X8758438Y-17929076D01*
X8739390Y-17957648D01*
X8720343Y-17976695D01*
X8701295Y-17986219D01*
X8901295Y-18110029D02*
X8910819Y-18119552D01*
X8901295Y-18129076D01*
X8891771Y-18119552D01*
X8901295Y-18110029D01*
X8901295Y-18129076D01*
X9034629Y-17929076D02*
X9053676Y-17929076D01*
X9072724Y-17938600D01*
X9082248Y-17948124D01*
X9091771Y-17967171D01*
X9101295Y-18005267D01*
X9101295Y-18052886D01*
X9091771Y-18090981D01*
X9082248Y-18110029D01*
X9072724Y-18119552D01*
X9053676Y-18129076D01*
X9034629Y-18129076D01*
X9015581Y-18119552D01*
X9006057Y-18110029D01*
X8996533Y-18090981D01*
X8987010Y-18052886D01*
X8987010Y-18005267D01*
X8996533Y-17967171D01*
X9006057Y-17948124D01*
X9015581Y-17938600D01*
X9034629Y-17929076D01*
X9225105Y-17929076D02*
X9244152Y-17929076D01*
X9263200Y-17938600D01*
X9272724Y-17948124D01*
X9282248Y-17967171D01*
X9291771Y-18005267D01*
X9291771Y-18052886D01*
X9282248Y-18090981D01*
X9272724Y-18110029D01*
X9263200Y-18119552D01*
X9244152Y-18129076D01*
X9225105Y-18129076D01*
X9206057Y-18119552D01*
X9196533Y-18110029D01*
X9187010Y-18090981D01*
X9177486Y-18052886D01*
X9177486Y-18005267D01*
X9187010Y-17967171D01*
X9196533Y-17948124D01*
X9206057Y-17938600D01*
X9225105Y-17929076D01*
X9415581Y-17929076D02*
X9434629Y-17929076D01*
X9453676Y-17938600D01*
X9463200Y-17948124D01*
X9472724Y-17967171D01*
X9482248Y-18005267D01*
X9482248Y-18052886D01*
X9472724Y-18090981D01*
X9463200Y-18110029D01*
X9453676Y-18119552D01*
X9434629Y-18129076D01*
X9415581Y-18129076D01*
X9396533Y-18119552D01*
X9387010Y-18110029D01*
X9377486Y-18090981D01*
X9367962Y-18052886D01*
X9367962Y-18005267D01*
X9377486Y-17967171D01*
X9387010Y-17948124D01*
X9396533Y-17938600D01*
X9415581Y-17929076D01*
X9567962Y-18129076D02*
X9567962Y-17995743D01*
X9567962Y-18014790D02*
X9577486Y-18005267D01*
X9596533Y-17995743D01*
X9625105Y-17995743D01*
X9644152Y-18005267D01*
X9653676Y-18024314D01*
X9653676Y-18129076D01*
X9653676Y-18024314D02*
X9663200Y-18005267D01*
X9682248Y-17995743D01*
X9710819Y-17995743D01*
X9729867Y-18005267D01*
X9739390Y-18024314D01*
X9739390Y-18129076D01*
X9834629Y-18129076D02*
X9834629Y-17995743D01*
X9834629Y-18014790D02*
X9844152Y-18005267D01*
X9863200Y-17995743D01*
X9891771Y-17995743D01*
X9910819Y-18005267D01*
X9920343Y-18024314D01*
X9920343Y-18129076D01*
X9920343Y-18024314D02*
X9929867Y-18005267D01*
X9948914Y-17995743D01*
X9977486Y-17995743D01*
X9996533Y-18005267D01*
X10006057Y-18024314D01*
X10006057Y-18129076D01*
X10396533Y-17919552D02*
X10225105Y-18176695D01*
X10653676Y-17929076D02*
X10672724Y-17929076D01*
X10691771Y-17938600D01*
X10701295Y-17948124D01*
X10710819Y-17967171D01*
X10720343Y-18005267D01*
X10720343Y-18052886D01*
X10710819Y-18090981D01*
X10701295Y-18110029D01*
X10691771Y-18119552D01*
X10672724Y-18129076D01*
X10653676Y-18129076D01*
X10634629Y-18119552D01*
X10625105Y-18110029D01*
X10615581Y-18090981D01*
X10606057Y-18052886D01*
X10606057Y-18005267D01*
X10615581Y-17967171D01*
X10625105Y-17948124D01*
X10634629Y-17938600D01*
X10653676Y-17929076D01*
X10806057Y-18110029D02*
X10815581Y-18119552D01*
X10806057Y-18129076D01*
X10796533Y-18119552D01*
X10806057Y-18110029D01*
X10806057Y-18129076D01*
X10939390Y-17929076D02*
X10958438Y-17929076D01*
X10977486Y-17938600D01*
X10987010Y-17948124D01*
X10996533Y-17967171D01*
X11006057Y-18005267D01*
X11006057Y-18052886D01*
X10996533Y-18090981D01*
X10987010Y-18110029D01*
X10977486Y-18119552D01*
X10958438Y-18129076D01*
X10939390Y-18129076D01*
X10920343Y-18119552D01*
X10910819Y-18110029D01*
X10901295Y-18090981D01*
X10891771Y-18052886D01*
X10891771Y-18005267D01*
X10901295Y-17967171D01*
X10910819Y-17948124D01*
X10920343Y-17938600D01*
X10939390Y-17929076D01*
X11072724Y-17929076D02*
X11196533Y-17929076D01*
X11129867Y-18005267D01*
X11158438Y-18005267D01*
X11177486Y-18014790D01*
X11187009Y-18024314D01*
X11196533Y-18043362D01*
X11196533Y-18090981D01*
X11187009Y-18110029D01*
X11177486Y-18119552D01*
X11158438Y-18129076D01*
X11101295Y-18129076D01*
X11082248Y-18119552D01*
X11072724Y-18110029D01*
X11291771Y-18129076D02*
X11329867Y-18129076D01*
X11348914Y-18119552D01*
X11358438Y-18110029D01*
X11377486Y-18081457D01*
X11387009Y-18043362D01*
X11387009Y-17967171D01*
X11377486Y-17948124D01*
X11367962Y-17938600D01*
X11348914Y-17929076D01*
X11310819Y-17929076D01*
X11291771Y-17938600D01*
X11282248Y-17948124D01*
X11272724Y-17967171D01*
X11272724Y-18014790D01*
X11282248Y-18033838D01*
X11291771Y-18043362D01*
X11310819Y-18052886D01*
X11348914Y-18052886D01*
X11367962Y-18043362D01*
X11377486Y-18033838D01*
X11387009Y-18014790D01*
X11558438Y-17995743D02*
X11558438Y-18129076D01*
X11510819Y-17919552D02*
X11463200Y-18062410D01*
X11587009Y-18062410D01*
X11653676Y-17929076D02*
X11653676Y-17967171D01*
X11729867Y-17929076D02*
X11729867Y-17967171D01*
X12025105Y-18205267D02*
X12015581Y-18195743D01*
X11996533Y-18167171D01*
X11987009Y-18148124D01*
X11977486Y-18119552D01*
X11967962Y-18071933D01*
X11967962Y-18033838D01*
X11977486Y-17986219D01*
X11987009Y-17957648D01*
X11996533Y-17938600D01*
X12015581Y-17910029D01*
X12025105Y-17900505D01*
X12082248Y-17929076D02*
X12215581Y-17929076D01*
X12129867Y-18129076D01*
X12282248Y-17948124D02*
X12291771Y-17938600D01*
X12310819Y-17929076D01*
X12358438Y-17929076D01*
X12377486Y-17938600D01*
X12387009Y-17948124D01*
X12396533Y-17967171D01*
X12396533Y-17986219D01*
X12387009Y-18014790D01*
X12272724Y-18129076D01*
X12396533Y-18129076D01*
X12634628Y-18129076D02*
X12634628Y-17929076D01*
X12720343Y-18129076D02*
X12720343Y-18024314D01*
X12710819Y-18005267D01*
X12691771Y-17995743D01*
X12663200Y-17995743D01*
X12644152Y-18005267D01*
X12634628Y-18014790D01*
X12844152Y-18129076D02*
X12825105Y-18119552D01*
X12815581Y-18110029D01*
X12806057Y-18090981D01*
X12806057Y-18033838D01*
X12815581Y-18014790D01*
X12825105Y-18005267D01*
X12844152Y-17995743D01*
X12872724Y-17995743D01*
X12891771Y-18005267D01*
X12901295Y-18014790D01*
X12910819Y-18033838D01*
X12910819Y-18090981D01*
X12901295Y-18110029D01*
X12891771Y-18119552D01*
X12872724Y-18129076D01*
X12844152Y-18129076D01*
X13025105Y-18129076D02*
X13006057Y-18119552D01*
X12996533Y-18100505D01*
X12996533Y-17929076D01*
X13177486Y-18119552D02*
X13158438Y-18129076D01*
X13120343Y-18129076D01*
X13101295Y-18119552D01*
X13091771Y-18100505D01*
X13091771Y-18024314D01*
X13101295Y-18005267D01*
X13120343Y-17995743D01*
X13158438Y-17995743D01*
X13177486Y-18005267D01*
X13187009Y-18024314D01*
X13187009Y-18043362D01*
X13091771Y-18062410D01*
X13263200Y-18119552D02*
X13282248Y-18129076D01*
X13320343Y-18129076D01*
X13339390Y-18119552D01*
X13348914Y-18100505D01*
X13348914Y-18090981D01*
X13339390Y-18071933D01*
X13320343Y-18062410D01*
X13291771Y-18062410D01*
X13272724Y-18052886D01*
X13263200Y-18033838D01*
X13263200Y-18024314D01*
X13272724Y-18005267D01*
X13291771Y-17995743D01*
X13320343Y-17995743D01*
X13339390Y-18005267D01*
X13415581Y-18205267D02*
X13425105Y-18195743D01*
X13444152Y-18167171D01*
X13453676Y-18148124D01*
X13463200Y-18119552D01*
X13472724Y-18071933D01*
X13472724Y-18033838D01*
X13463200Y-17986219D01*
X13453676Y-17957648D01*
X13444152Y-17938600D01*
X13425105Y-17910029D01*
X13415581Y-17900505D01*
D15*
X8437091Y-18341491D02*
X8437091Y-18263709D01*
X8359309Y-18263709D01*
X8359309Y-18341491D01*
X8437091Y-18341491D01*
D11*
X8815581Y-18393076D02*
X8701295Y-18393076D01*
X8758438Y-18393076D02*
X8758438Y-18193076D01*
X8739390Y-18221648D01*
X8720343Y-18240695D01*
X8701295Y-18250219D01*
X8901295Y-18374029D02*
X8910819Y-18383552D01*
X8901295Y-18393076D01*
X8891771Y-18383552D01*
X8901295Y-18374029D01*
X8901295Y-18393076D01*
X9101295Y-18393076D02*
X8987010Y-18393076D01*
X9044152Y-18393076D02*
X9044152Y-18193076D01*
X9025105Y-18221648D01*
X9006057Y-18240695D01*
X8987010Y-18250219D01*
X9225105Y-18193076D02*
X9244152Y-18193076D01*
X9263200Y-18202600D01*
X9272724Y-18212124D01*
X9282248Y-18231171D01*
X9291771Y-18269267D01*
X9291771Y-18316886D01*
X9282248Y-18354981D01*
X9272724Y-18374029D01*
X9263200Y-18383552D01*
X9244152Y-18393076D01*
X9225105Y-18393076D01*
X9206057Y-18383552D01*
X9196533Y-18374029D01*
X9187010Y-18354981D01*
X9177486Y-18316886D01*
X9177486Y-18269267D01*
X9187010Y-18231171D01*
X9196533Y-18212124D01*
X9206057Y-18202600D01*
X9225105Y-18193076D01*
X9415581Y-18193076D02*
X9434629Y-18193076D01*
X9453676Y-18202600D01*
X9463200Y-18212124D01*
X9472724Y-18231171D01*
X9482248Y-18269267D01*
X9482248Y-18316886D01*
X9472724Y-18354981D01*
X9463200Y-18374029D01*
X9453676Y-18383552D01*
X9434629Y-18393076D01*
X9415581Y-18393076D01*
X9396533Y-18383552D01*
X9387010Y-18374029D01*
X9377486Y-18354981D01*
X9367962Y-18316886D01*
X9367962Y-18269267D01*
X9377486Y-18231171D01*
X9387010Y-18212124D01*
X9396533Y-18202600D01*
X9415581Y-18193076D01*
X9567962Y-18393076D02*
X9567962Y-18259743D01*
X9567962Y-18278790D02*
X9577486Y-18269267D01*
X9596533Y-18259743D01*
X9625105Y-18259743D01*
X9644152Y-18269267D01*
X9653676Y-18288314D01*
X9653676Y-18393076D01*
X9653676Y-18288314D02*
X9663200Y-18269267D01*
X9682248Y-18259743D01*
X9710819Y-18259743D01*
X9729867Y-18269267D01*
X9739390Y-18288314D01*
X9739390Y-18393076D01*
X9834629Y-18393076D02*
X9834629Y-18259743D01*
X9834629Y-18278790D02*
X9844152Y-18269267D01*
X9863200Y-18259743D01*
X9891771Y-18259743D01*
X9910819Y-18269267D01*
X9920343Y-18288314D01*
X9920343Y-18393076D01*
X9920343Y-18288314D02*
X9929867Y-18269267D01*
X9948914Y-18259743D01*
X9977486Y-18259743D01*
X9996533Y-18269267D01*
X10006057Y-18288314D01*
X10006057Y-18393076D01*
X10396533Y-18183552D02*
X10225105Y-18440695D01*
X10653676Y-18193076D02*
X10672724Y-18193076D01*
X10691771Y-18202600D01*
X10701295Y-18212124D01*
X10710819Y-18231171D01*
X10720343Y-18269267D01*
X10720343Y-18316886D01*
X10710819Y-18354981D01*
X10701295Y-18374029D01*
X10691771Y-18383552D01*
X10672724Y-18393076D01*
X10653676Y-18393076D01*
X10634629Y-18383552D01*
X10625105Y-18374029D01*
X10615581Y-18354981D01*
X10606057Y-18316886D01*
X10606057Y-18269267D01*
X10615581Y-18231171D01*
X10625105Y-18212124D01*
X10634629Y-18202600D01*
X10653676Y-18193076D01*
X10806057Y-18374029D02*
X10815581Y-18383552D01*
X10806057Y-18393076D01*
X10796533Y-18383552D01*
X10806057Y-18374029D01*
X10806057Y-18393076D01*
X10939390Y-18193076D02*
X10958438Y-18193076D01*
X10977486Y-18202600D01*
X10987010Y-18212124D01*
X10996533Y-18231171D01*
X11006057Y-18269267D01*
X11006057Y-18316886D01*
X10996533Y-18354981D01*
X10987010Y-18374029D01*
X10977486Y-18383552D01*
X10958438Y-18393076D01*
X10939390Y-18393076D01*
X10920343Y-18383552D01*
X10910819Y-18374029D01*
X10901295Y-18354981D01*
X10891771Y-18316886D01*
X10891771Y-18269267D01*
X10901295Y-18231171D01*
X10910819Y-18212124D01*
X10920343Y-18202600D01*
X10939390Y-18193076D01*
X11177486Y-18259743D02*
X11177486Y-18393076D01*
X11129867Y-18183552D02*
X11082248Y-18326410D01*
X11206057Y-18326410D01*
X11263200Y-18193076D02*
X11387009Y-18193076D01*
X11320343Y-18269267D01*
X11348914Y-18269267D01*
X11367962Y-18278790D01*
X11377486Y-18288314D01*
X11387009Y-18307362D01*
X11387009Y-18354981D01*
X11377486Y-18374029D01*
X11367962Y-18383552D01*
X11348914Y-18393076D01*
X11291771Y-18393076D01*
X11272724Y-18383552D01*
X11263200Y-18374029D01*
X11453676Y-18193076D02*
X11577486Y-18193076D01*
X11510819Y-18269267D01*
X11539390Y-18269267D01*
X11558438Y-18278790D01*
X11567962Y-18288314D01*
X11577486Y-18307362D01*
X11577486Y-18354981D01*
X11567962Y-18374029D01*
X11558438Y-18383552D01*
X11539390Y-18393076D01*
X11482248Y-18393076D01*
X11463200Y-18383552D01*
X11453676Y-18374029D01*
X11653676Y-18193076D02*
X11653676Y-18231171D01*
X11729867Y-18193076D02*
X11729867Y-18231171D01*
X12025105Y-18469267D02*
X12015581Y-18459743D01*
X11996533Y-18431171D01*
X11987009Y-18412124D01*
X11977486Y-18383552D01*
X11967962Y-18335933D01*
X11967962Y-18297838D01*
X11977486Y-18250219D01*
X11987009Y-18221648D01*
X11996533Y-18202600D01*
X12015581Y-18174029D01*
X12025105Y-18164505D01*
X12187009Y-18259743D02*
X12187009Y-18393076D01*
X12139390Y-18183552D02*
X12091771Y-18326410D01*
X12215581Y-18326410D01*
X12444152Y-18393076D02*
X12444152Y-18193076D01*
X12529867Y-18393076D02*
X12529867Y-18288314D01*
X12520343Y-18269267D01*
X12501295Y-18259743D01*
X12472724Y-18259743D01*
X12453676Y-18269267D01*
X12444152Y-18278790D01*
X12653676Y-18393076D02*
X12634628Y-18383552D01*
X12625105Y-18374029D01*
X12615581Y-18354981D01*
X12615581Y-18297838D01*
X12625105Y-18278790D01*
X12634628Y-18269267D01*
X12653676Y-18259743D01*
X12682248Y-18259743D01*
X12701295Y-18269267D01*
X12710819Y-18278790D01*
X12720343Y-18297838D01*
X12720343Y-18354981D01*
X12710819Y-18374029D01*
X12701295Y-18383552D01*
X12682248Y-18393076D01*
X12653676Y-18393076D01*
X12834628Y-18393076D02*
X12815581Y-18383552D01*
X12806057Y-18364505D01*
X12806057Y-18193076D01*
X12987009Y-18383552D02*
X12967962Y-18393076D01*
X12929867Y-18393076D01*
X12910819Y-18383552D01*
X12901295Y-18364505D01*
X12901295Y-18288314D01*
X12910819Y-18269267D01*
X12929867Y-18259743D01*
X12967962Y-18259743D01*
X12987009Y-18269267D01*
X12996533Y-18288314D01*
X12996533Y-18307362D01*
X12901295Y-18326410D01*
X13072724Y-18383552D02*
X13091771Y-18393076D01*
X13129867Y-18393076D01*
X13148914Y-18383552D01*
X13158438Y-18364505D01*
X13158438Y-18354981D01*
X13148914Y-18335933D01*
X13129867Y-18326410D01*
X13101295Y-18326410D01*
X13082248Y-18316886D01*
X13072724Y-18297838D01*
X13072724Y-18288314D01*
X13082248Y-18269267D01*
X13101295Y-18259743D01*
X13129867Y-18259743D01*
X13148914Y-18269267D01*
X13225105Y-18469267D02*
X13234628Y-18459743D01*
X13253676Y-18431171D01*
X13263200Y-18412124D01*
X13272724Y-18383552D01*
X13282248Y-18335933D01*
X13282248Y-18297838D01*
X13272724Y-18250219D01*
X13263200Y-18221648D01*
X13253676Y-18202600D01*
X13234628Y-18174029D01*
X13225105Y-18164505D01*
M02*
