M48
; DRILL file {KiCad (6.0.0)} date Wed Nov  9 00:09:47 2022
; FORMAT={-:-/ absolute / metric / decimal}
; #@! TF.CreationDate,2022-11-09T00:09:47-05:00
; #@! TF.GenerationSoftware,Kicad,Pcbnew,(6.0.0)
; #@! TF.FileFunction,Plated,1,2,PTH
FMAT,2
METRIC
; #@! TA.AperFunction,Plated,PTH,ViaDrill
T1C0.400
; #@! TA.AperFunction,Plated,PTH,ComponentDrill
T2C0.800
; #@! TA.AperFunction,Plated,PTH,ComponentDrill
T3C1.000
; #@! TA.AperFunction,Plated,PTH,ComponentDrill
T4C1.100
%
G90
G05
T1
X89.647Y-158.989
X97.267Y-164.323
X98.552Y-141.986
X98.612Y-144.212
X99.822Y-145.288
X103.194Y-131.388
X104.887Y-145.781
X107.188Y-122.428
X108.204Y-118.618
X108.204Y-132.08
X108.712Y-113.538
X109.004Y-132.804
X110.274Y-135.598
X112.522Y-134.112
X115.189Y-136.525
X117.856Y-134.62
X118.618Y-117.602
X121.281Y-145.411
X122.936Y-112.268
X123.66Y-135.598
X123.698Y-147.066
X124.46Y-134.62
X125.476Y-140.208
X127.0Y-133.858
X127.254Y-98.806
X128.962Y-100.908
X129.978Y-103.448
X130.15Y-122.072
X130.429Y-124.587
X130.556Y-105.918
X130.619Y-119.748
X130.994Y-118.688
X131.064Y-107.188
X131.572Y-117.348
X131.756Y-108.528
X131.826Y-123.698
X131.826Y-133.858
X132.01Y-118.688
X132.264Y-116.148
X132.334Y-109.728
X132.772Y-111.068
X132.772Y-126.308
X132.842Y-114.808
X133.28Y-116.148
X133.534Y-113.608
X134.112Y-130.048
X134.296Y-111.068
X135.128Y-127.508
X135.278Y-108.562
X135.636Y-125.73
X136.074Y-105.988
X136.105Y-122.898
X136.875Y-103.308
X136.978Y-120.629
X138.43Y-98.806
X142.748Y-147.574
X145.034Y-148.082
X146.812Y-146.812
X148.082Y-145.796
X150.114Y-135.128
X152.4Y-140.208
X153.416Y-135.128
X155.448Y-126.238
X166.808Y-133.28
X167.386Y-166.37
X169.418Y-135.89
X169.926Y-166.116
X170.18Y-137.16
X178.816Y-140.208
X179.324Y-156.718
X181.864Y-130.81
X182.048Y-128.34
T2
X89.154Y-102.108
X89.154Y-104.648
X89.154Y-107.188
X89.154Y-109.728
X89.154Y-112.268
X89.154Y-114.808
X89.154Y-117.348
X89.154Y-119.888
X89.154Y-122.428
X89.154Y-124.968
X89.154Y-127.508
X89.154Y-130.048
X89.647Y-143.012
X89.647Y-150.632
X92.187Y-143.012
X92.187Y-150.632
X94.727Y-143.012
X94.727Y-150.632
X97.267Y-143.012
X97.267Y-150.632
X99.807Y-143.012
X99.807Y-150.632
X102.347Y-143.012
X102.347Y-150.632
X104.394Y-102.108
X104.394Y-104.648
X104.394Y-107.188
X104.394Y-109.728
X104.394Y-112.268
X104.394Y-114.808
X104.394Y-117.348
X104.394Y-119.888
X104.394Y-122.428
X104.394Y-124.968
X104.394Y-127.508
X104.394Y-130.048
X104.887Y-143.012
X104.887Y-150.632
X108.717Y-143.012
X108.717Y-150.632
X108.717Y-156.728
X108.717Y-164.348
X111.257Y-143.012
X111.257Y-150.632
X111.257Y-156.728
X111.257Y-164.348
X112.014Y-102.108
X112.014Y-104.648
X112.014Y-107.188
X112.014Y-109.728
X112.014Y-112.268
X112.014Y-114.808
X112.014Y-117.348
X112.014Y-119.888
X112.014Y-122.428
X112.014Y-124.968
X112.014Y-127.508
X112.014Y-130.048
X113.797Y-143.012
X113.797Y-150.632
X113.797Y-156.728
X113.797Y-164.348
X116.337Y-143.012
X116.337Y-150.632
X116.337Y-156.728
X116.337Y-164.348
X118.877Y-143.012
X118.877Y-150.632
X118.877Y-156.728
X118.877Y-164.348
X121.417Y-143.012
X121.417Y-150.632
X121.417Y-156.728
X121.417Y-164.348
X123.957Y-143.012
X123.957Y-150.632
X123.957Y-156.728
X123.957Y-164.348
X127.254Y-102.108
X127.254Y-104.648
X127.254Y-107.188
X127.254Y-109.728
X127.254Y-112.268
X127.254Y-114.808
X127.254Y-117.348
X127.254Y-119.888
X127.254Y-122.428
X127.254Y-124.968
X127.254Y-127.508
X127.254Y-130.048
X128.27Y-143.062
X128.27Y-150.562
X128.27Y-156.778
X128.27Y-164.278
X131.572Y-143.012
X131.572Y-150.632
X134.112Y-143.012
X134.112Y-150.632
X134.112Y-156.718
X134.112Y-164.338
X136.652Y-143.012
X136.652Y-150.632
X136.652Y-156.718
X136.652Y-164.338
X139.192Y-143.012
X139.192Y-150.632
X139.192Y-156.718
X139.192Y-164.338
X139.954Y-102.108
X139.954Y-104.648
X139.954Y-107.188
X139.954Y-109.728
X139.954Y-112.268
X139.954Y-114.808
X139.954Y-117.348
X139.954Y-119.888
X139.954Y-122.428
X139.954Y-124.968
X139.954Y-127.508
X139.954Y-130.048
X139.954Y-132.588
X139.954Y-135.128
X141.732Y-143.012
X141.732Y-150.632
X141.732Y-156.718
X141.732Y-164.338
X144.272Y-143.012
X144.272Y-150.632
X144.272Y-156.718
X144.272Y-164.338
X146.812Y-143.012
X146.812Y-150.632
X146.812Y-156.718
X146.812Y-164.338
X147.574Y-102.108
X147.574Y-104.648
X147.574Y-107.188
X147.574Y-109.728
X147.574Y-112.268
X147.574Y-114.808
X147.574Y-117.348
X147.574Y-119.888
X147.574Y-122.428
X147.574Y-124.968
X147.574Y-127.508
X147.574Y-130.048
X147.574Y-132.588
X147.574Y-135.128
X149.352Y-143.012
X149.352Y-150.632
X149.352Y-156.718
X149.352Y-164.338
X150.876Y-98.866
X150.876Y-106.366
X152.649Y-156.768
X152.649Y-164.268
X152.654Y-143.062
X152.654Y-150.562
X152.908Y-132.588
X154.149Y-153.416
X155.448Y-132.588
X156.689Y-153.416
X159.004Y-152.646
X160.02Y-133.829
X160.02Y-136.369
X161.544Y-155.186
X161.544Y-158.721
X161.544Y-161.261
X164.084Y-152.646
X167.899Y-143.012
X167.899Y-150.632
X170.439Y-143.012
X170.439Y-150.632
X172.979Y-143.012
X172.979Y-150.632
X175.519Y-143.012
X175.519Y-150.632
X178.059Y-143.012
X178.059Y-150.632
X180.599Y-143.012
X180.599Y-150.632
X183.139Y-143.012
X183.139Y-150.632
X184.404Y-124.489
X184.404Y-127.029
X186.436Y-143.062
X186.436Y-150.562
T3
X92.202Y-155.702
X93.98Y-163.576
X94.234Y-102.108
X94.234Y-104.648
X94.234Y-107.188
X94.234Y-109.728
X94.234Y-112.268
X94.234Y-114.808
X94.234Y-117.348
X94.234Y-119.888
X94.234Y-122.428
X94.234Y-124.968
X94.234Y-127.508
X94.234Y-130.048
X96.012Y-155.702
X96.266Y-98.806
X96.774Y-102.108
X96.774Y-104.648
X96.774Y-107.188
X96.774Y-109.728
X96.774Y-112.268
X96.774Y-114.808
X96.774Y-117.348
X96.774Y-119.888
X96.774Y-122.428
X96.774Y-124.968
X96.774Y-127.508
X96.774Y-130.048
X133.35Y-98.806
X133.35Y-103.886
X156.454Y-145.537
X156.454Y-148.077
X157.734Y-105.918
X158.994Y-145.537
X158.994Y-148.077
X161.534Y-145.537
X161.534Y-148.077
X164.074Y-145.537
X164.074Y-148.077
X165.608Y-101.6
X165.608Y-104.14
X165.608Y-106.68
X165.608Y-109.22
X165.608Y-111.76
X165.608Y-114.3
X165.608Y-116.84
X165.608Y-119.38
X165.608Y-121.92
X165.608Y-124.46
X165.608Y-127.0
X165.608Y-129.54
X165.608Y-132.08
X165.608Y-134.62
X165.608Y-137.16
X168.925Y-161.798
X171.465Y-161.798
X174.005Y-161.798
X180.848Y-101.6
X180.848Y-104.14
X180.848Y-106.68
X180.848Y-109.22
X180.848Y-111.76
X180.848Y-114.3
X180.848Y-116.84
X180.848Y-119.38
X180.848Y-121.92
X180.848Y-124.46
X180.848Y-127.0
X180.848Y-129.54
X180.848Y-132.08
X180.848Y-134.62
X180.848Y-137.16
T4
X103.124Y-98.806
X105.664Y-98.806
X160.274Y-98.044
X162.814Y-98.044
T0
M30
